G75*
%MOIN*%
%OFA0B0*%
%FSLAX25Y25*%
%IPPOS*%
%LPD*%
%AMOC8*
5,1,8,0,0,1.08239X$1,22.5*
%
%ADD10C,0.00000*%
%ADD11C,0.01600*%
%ADD12R,0.17000X0.13000*%
%ADD13R,0.05906X0.07874*%
%ADD14R,0.03300X0.03300*%
%ADD15C,0.03100*%
%ADD16R,0.04331X0.03937*%
%ADD17R,0.07283X0.01969*%
%ADD18R,0.01969X0.07283*%
%ADD19R,0.03937X0.04331*%
%ADD20R,0.02756X0.05512*%
%ADD21C,0.01000*%
%ADD22C,0.00600*%
%ADD23C,0.02500*%
D10*
X0027475Y0032412D02*
X0027477Y0032538D01*
X0027483Y0032664D01*
X0027493Y0032790D01*
X0027507Y0032916D01*
X0027525Y0033041D01*
X0027547Y0033165D01*
X0027572Y0033289D01*
X0027602Y0033412D01*
X0027635Y0033533D01*
X0027673Y0033654D01*
X0027714Y0033773D01*
X0027759Y0033892D01*
X0027807Y0034008D01*
X0027859Y0034123D01*
X0027915Y0034236D01*
X0027975Y0034348D01*
X0028038Y0034457D01*
X0028104Y0034565D01*
X0028173Y0034670D01*
X0028246Y0034773D01*
X0028323Y0034874D01*
X0028402Y0034972D01*
X0028484Y0035068D01*
X0028570Y0035161D01*
X0028658Y0035252D01*
X0028749Y0035339D01*
X0028843Y0035424D01*
X0028939Y0035505D01*
X0029038Y0035584D01*
X0029139Y0035659D01*
X0029243Y0035731D01*
X0029349Y0035800D01*
X0029457Y0035866D01*
X0029567Y0035928D01*
X0029679Y0035986D01*
X0029792Y0036041D01*
X0029908Y0036092D01*
X0030025Y0036140D01*
X0030143Y0036184D01*
X0030263Y0036224D01*
X0030384Y0036260D01*
X0030506Y0036293D01*
X0030629Y0036322D01*
X0030753Y0036346D01*
X0030877Y0036367D01*
X0031002Y0036384D01*
X0031128Y0036397D01*
X0031254Y0036406D01*
X0031380Y0036411D01*
X0031507Y0036412D01*
X0031633Y0036409D01*
X0031759Y0036402D01*
X0031885Y0036391D01*
X0032010Y0036376D01*
X0032135Y0036357D01*
X0032259Y0036334D01*
X0032383Y0036308D01*
X0032505Y0036277D01*
X0032627Y0036243D01*
X0032747Y0036204D01*
X0032866Y0036162D01*
X0032984Y0036117D01*
X0033100Y0036067D01*
X0033215Y0036014D01*
X0033327Y0035957D01*
X0033438Y0035897D01*
X0033547Y0035833D01*
X0033654Y0035766D01*
X0033759Y0035696D01*
X0033862Y0035622D01*
X0033962Y0035545D01*
X0034060Y0035465D01*
X0034155Y0035382D01*
X0034247Y0035296D01*
X0034337Y0035207D01*
X0034424Y0035115D01*
X0034507Y0035021D01*
X0034588Y0034924D01*
X0034666Y0034824D01*
X0034741Y0034722D01*
X0034812Y0034618D01*
X0034880Y0034511D01*
X0034944Y0034403D01*
X0035005Y0034292D01*
X0035063Y0034180D01*
X0035117Y0034066D01*
X0035167Y0033950D01*
X0035214Y0033833D01*
X0035257Y0033714D01*
X0035296Y0033594D01*
X0035332Y0033473D01*
X0035363Y0033350D01*
X0035391Y0033227D01*
X0035415Y0033103D01*
X0035435Y0032978D01*
X0035451Y0032853D01*
X0035463Y0032727D01*
X0035471Y0032601D01*
X0035475Y0032475D01*
X0035475Y0032349D01*
X0035471Y0032223D01*
X0035463Y0032097D01*
X0035451Y0031971D01*
X0035435Y0031846D01*
X0035415Y0031721D01*
X0035391Y0031597D01*
X0035363Y0031474D01*
X0035332Y0031351D01*
X0035296Y0031230D01*
X0035257Y0031110D01*
X0035214Y0030991D01*
X0035167Y0030874D01*
X0035117Y0030758D01*
X0035063Y0030644D01*
X0035005Y0030532D01*
X0034944Y0030421D01*
X0034880Y0030313D01*
X0034812Y0030206D01*
X0034741Y0030102D01*
X0034666Y0030000D01*
X0034588Y0029900D01*
X0034507Y0029803D01*
X0034424Y0029709D01*
X0034337Y0029617D01*
X0034247Y0029528D01*
X0034155Y0029442D01*
X0034060Y0029359D01*
X0033962Y0029279D01*
X0033862Y0029202D01*
X0033759Y0029128D01*
X0033654Y0029058D01*
X0033547Y0028991D01*
X0033438Y0028927D01*
X0033327Y0028867D01*
X0033215Y0028810D01*
X0033100Y0028757D01*
X0032984Y0028707D01*
X0032866Y0028662D01*
X0032747Y0028620D01*
X0032627Y0028581D01*
X0032505Y0028547D01*
X0032383Y0028516D01*
X0032259Y0028490D01*
X0032135Y0028467D01*
X0032010Y0028448D01*
X0031885Y0028433D01*
X0031759Y0028422D01*
X0031633Y0028415D01*
X0031507Y0028412D01*
X0031380Y0028413D01*
X0031254Y0028418D01*
X0031128Y0028427D01*
X0031002Y0028440D01*
X0030877Y0028457D01*
X0030753Y0028478D01*
X0030629Y0028502D01*
X0030506Y0028531D01*
X0030384Y0028564D01*
X0030263Y0028600D01*
X0030143Y0028640D01*
X0030025Y0028684D01*
X0029908Y0028732D01*
X0029792Y0028783D01*
X0029679Y0028838D01*
X0029567Y0028896D01*
X0029457Y0028958D01*
X0029349Y0029024D01*
X0029243Y0029093D01*
X0029139Y0029165D01*
X0029038Y0029240D01*
X0028939Y0029319D01*
X0028843Y0029400D01*
X0028749Y0029485D01*
X0028658Y0029572D01*
X0028570Y0029663D01*
X0028484Y0029756D01*
X0028402Y0029852D01*
X0028323Y0029950D01*
X0028246Y0030051D01*
X0028173Y0030154D01*
X0028104Y0030259D01*
X0028038Y0030367D01*
X0027975Y0030476D01*
X0027915Y0030588D01*
X0027859Y0030701D01*
X0027807Y0030816D01*
X0027759Y0030932D01*
X0027714Y0031051D01*
X0027673Y0031170D01*
X0027635Y0031291D01*
X0027602Y0031412D01*
X0027572Y0031535D01*
X0027547Y0031659D01*
X0027525Y0031783D01*
X0027507Y0031908D01*
X0027493Y0032034D01*
X0027483Y0032160D01*
X0027477Y0032286D01*
X0027475Y0032412D01*
X0079475Y0146412D02*
X0079477Y0146501D01*
X0079483Y0146590D01*
X0079493Y0146679D01*
X0079507Y0146767D01*
X0079524Y0146854D01*
X0079546Y0146940D01*
X0079572Y0147026D01*
X0079601Y0147110D01*
X0079634Y0147193D01*
X0079670Y0147274D01*
X0079711Y0147354D01*
X0079754Y0147431D01*
X0079801Y0147507D01*
X0079852Y0147580D01*
X0079905Y0147651D01*
X0079962Y0147720D01*
X0080022Y0147786D01*
X0080085Y0147850D01*
X0080150Y0147910D01*
X0080218Y0147968D01*
X0080289Y0148022D01*
X0080362Y0148073D01*
X0080437Y0148121D01*
X0080514Y0148166D01*
X0080593Y0148207D01*
X0080674Y0148244D01*
X0080756Y0148278D01*
X0080840Y0148309D01*
X0080925Y0148335D01*
X0081011Y0148358D01*
X0081098Y0148376D01*
X0081186Y0148391D01*
X0081275Y0148402D01*
X0081364Y0148409D01*
X0081453Y0148412D01*
X0081542Y0148411D01*
X0081631Y0148406D01*
X0081719Y0148397D01*
X0081808Y0148384D01*
X0081895Y0148367D01*
X0081982Y0148347D01*
X0082068Y0148322D01*
X0082152Y0148294D01*
X0082235Y0148262D01*
X0082317Y0148226D01*
X0082397Y0148187D01*
X0082475Y0148144D01*
X0082551Y0148098D01*
X0082625Y0148048D01*
X0082697Y0147995D01*
X0082766Y0147939D01*
X0082833Y0147880D01*
X0082897Y0147818D01*
X0082958Y0147754D01*
X0083017Y0147686D01*
X0083072Y0147616D01*
X0083124Y0147544D01*
X0083173Y0147469D01*
X0083218Y0147393D01*
X0083260Y0147314D01*
X0083298Y0147234D01*
X0083333Y0147152D01*
X0083364Y0147068D01*
X0083392Y0146983D01*
X0083415Y0146897D01*
X0083435Y0146810D01*
X0083451Y0146723D01*
X0083463Y0146634D01*
X0083471Y0146546D01*
X0083475Y0146457D01*
X0083475Y0146367D01*
X0083471Y0146278D01*
X0083463Y0146190D01*
X0083451Y0146101D01*
X0083435Y0146014D01*
X0083415Y0145927D01*
X0083392Y0145841D01*
X0083364Y0145756D01*
X0083333Y0145672D01*
X0083298Y0145590D01*
X0083260Y0145510D01*
X0083218Y0145431D01*
X0083173Y0145355D01*
X0083124Y0145280D01*
X0083072Y0145208D01*
X0083017Y0145138D01*
X0082958Y0145070D01*
X0082897Y0145006D01*
X0082833Y0144944D01*
X0082766Y0144885D01*
X0082697Y0144829D01*
X0082625Y0144776D01*
X0082551Y0144726D01*
X0082475Y0144680D01*
X0082397Y0144637D01*
X0082317Y0144598D01*
X0082235Y0144562D01*
X0082152Y0144530D01*
X0082068Y0144502D01*
X0081982Y0144477D01*
X0081895Y0144457D01*
X0081808Y0144440D01*
X0081719Y0144427D01*
X0081631Y0144418D01*
X0081542Y0144413D01*
X0081453Y0144412D01*
X0081364Y0144415D01*
X0081275Y0144422D01*
X0081186Y0144433D01*
X0081098Y0144448D01*
X0081011Y0144466D01*
X0080925Y0144489D01*
X0080840Y0144515D01*
X0080756Y0144546D01*
X0080674Y0144580D01*
X0080593Y0144617D01*
X0080514Y0144658D01*
X0080437Y0144703D01*
X0080362Y0144751D01*
X0080289Y0144802D01*
X0080218Y0144856D01*
X0080150Y0144914D01*
X0080085Y0144974D01*
X0080022Y0145038D01*
X0079962Y0145104D01*
X0079905Y0145173D01*
X0079852Y0145244D01*
X0079801Y0145317D01*
X0079754Y0145393D01*
X0079711Y0145470D01*
X0079670Y0145550D01*
X0079634Y0145631D01*
X0079601Y0145714D01*
X0079572Y0145798D01*
X0079546Y0145884D01*
X0079524Y0145970D01*
X0079507Y0146057D01*
X0079493Y0146145D01*
X0079483Y0146234D01*
X0079477Y0146323D01*
X0079475Y0146412D01*
X0079475Y0154412D02*
X0079477Y0154501D01*
X0079483Y0154590D01*
X0079493Y0154679D01*
X0079507Y0154767D01*
X0079524Y0154854D01*
X0079546Y0154940D01*
X0079572Y0155026D01*
X0079601Y0155110D01*
X0079634Y0155193D01*
X0079670Y0155274D01*
X0079711Y0155354D01*
X0079754Y0155431D01*
X0079801Y0155507D01*
X0079852Y0155580D01*
X0079905Y0155651D01*
X0079962Y0155720D01*
X0080022Y0155786D01*
X0080085Y0155850D01*
X0080150Y0155910D01*
X0080218Y0155968D01*
X0080289Y0156022D01*
X0080362Y0156073D01*
X0080437Y0156121D01*
X0080514Y0156166D01*
X0080593Y0156207D01*
X0080674Y0156244D01*
X0080756Y0156278D01*
X0080840Y0156309D01*
X0080925Y0156335D01*
X0081011Y0156358D01*
X0081098Y0156376D01*
X0081186Y0156391D01*
X0081275Y0156402D01*
X0081364Y0156409D01*
X0081453Y0156412D01*
X0081542Y0156411D01*
X0081631Y0156406D01*
X0081719Y0156397D01*
X0081808Y0156384D01*
X0081895Y0156367D01*
X0081982Y0156347D01*
X0082068Y0156322D01*
X0082152Y0156294D01*
X0082235Y0156262D01*
X0082317Y0156226D01*
X0082397Y0156187D01*
X0082475Y0156144D01*
X0082551Y0156098D01*
X0082625Y0156048D01*
X0082697Y0155995D01*
X0082766Y0155939D01*
X0082833Y0155880D01*
X0082897Y0155818D01*
X0082958Y0155754D01*
X0083017Y0155686D01*
X0083072Y0155616D01*
X0083124Y0155544D01*
X0083173Y0155469D01*
X0083218Y0155393D01*
X0083260Y0155314D01*
X0083298Y0155234D01*
X0083333Y0155152D01*
X0083364Y0155068D01*
X0083392Y0154983D01*
X0083415Y0154897D01*
X0083435Y0154810D01*
X0083451Y0154723D01*
X0083463Y0154634D01*
X0083471Y0154546D01*
X0083475Y0154457D01*
X0083475Y0154367D01*
X0083471Y0154278D01*
X0083463Y0154190D01*
X0083451Y0154101D01*
X0083435Y0154014D01*
X0083415Y0153927D01*
X0083392Y0153841D01*
X0083364Y0153756D01*
X0083333Y0153672D01*
X0083298Y0153590D01*
X0083260Y0153510D01*
X0083218Y0153431D01*
X0083173Y0153355D01*
X0083124Y0153280D01*
X0083072Y0153208D01*
X0083017Y0153138D01*
X0082958Y0153070D01*
X0082897Y0153006D01*
X0082833Y0152944D01*
X0082766Y0152885D01*
X0082697Y0152829D01*
X0082625Y0152776D01*
X0082551Y0152726D01*
X0082475Y0152680D01*
X0082397Y0152637D01*
X0082317Y0152598D01*
X0082235Y0152562D01*
X0082152Y0152530D01*
X0082068Y0152502D01*
X0081982Y0152477D01*
X0081895Y0152457D01*
X0081808Y0152440D01*
X0081719Y0152427D01*
X0081631Y0152418D01*
X0081542Y0152413D01*
X0081453Y0152412D01*
X0081364Y0152415D01*
X0081275Y0152422D01*
X0081186Y0152433D01*
X0081098Y0152448D01*
X0081011Y0152466D01*
X0080925Y0152489D01*
X0080840Y0152515D01*
X0080756Y0152546D01*
X0080674Y0152580D01*
X0080593Y0152617D01*
X0080514Y0152658D01*
X0080437Y0152703D01*
X0080362Y0152751D01*
X0080289Y0152802D01*
X0080218Y0152856D01*
X0080150Y0152914D01*
X0080085Y0152974D01*
X0080022Y0153038D01*
X0079962Y0153104D01*
X0079905Y0153173D01*
X0079852Y0153244D01*
X0079801Y0153317D01*
X0079754Y0153393D01*
X0079711Y0153470D01*
X0079670Y0153550D01*
X0079634Y0153631D01*
X0079601Y0153714D01*
X0079572Y0153798D01*
X0079546Y0153884D01*
X0079524Y0153970D01*
X0079507Y0154057D01*
X0079493Y0154145D01*
X0079483Y0154234D01*
X0079477Y0154323D01*
X0079475Y0154412D01*
X0059475Y0150412D02*
X0059477Y0150501D01*
X0059483Y0150590D01*
X0059493Y0150679D01*
X0059507Y0150767D01*
X0059524Y0150854D01*
X0059546Y0150940D01*
X0059572Y0151026D01*
X0059601Y0151110D01*
X0059634Y0151193D01*
X0059670Y0151274D01*
X0059711Y0151354D01*
X0059754Y0151431D01*
X0059801Y0151507D01*
X0059852Y0151580D01*
X0059905Y0151651D01*
X0059962Y0151720D01*
X0060022Y0151786D01*
X0060085Y0151850D01*
X0060150Y0151910D01*
X0060218Y0151968D01*
X0060289Y0152022D01*
X0060362Y0152073D01*
X0060437Y0152121D01*
X0060514Y0152166D01*
X0060593Y0152207D01*
X0060674Y0152244D01*
X0060756Y0152278D01*
X0060840Y0152309D01*
X0060925Y0152335D01*
X0061011Y0152358D01*
X0061098Y0152376D01*
X0061186Y0152391D01*
X0061275Y0152402D01*
X0061364Y0152409D01*
X0061453Y0152412D01*
X0061542Y0152411D01*
X0061631Y0152406D01*
X0061719Y0152397D01*
X0061808Y0152384D01*
X0061895Y0152367D01*
X0061982Y0152347D01*
X0062068Y0152322D01*
X0062152Y0152294D01*
X0062235Y0152262D01*
X0062317Y0152226D01*
X0062397Y0152187D01*
X0062475Y0152144D01*
X0062551Y0152098D01*
X0062625Y0152048D01*
X0062697Y0151995D01*
X0062766Y0151939D01*
X0062833Y0151880D01*
X0062897Y0151818D01*
X0062958Y0151754D01*
X0063017Y0151686D01*
X0063072Y0151616D01*
X0063124Y0151544D01*
X0063173Y0151469D01*
X0063218Y0151393D01*
X0063260Y0151314D01*
X0063298Y0151234D01*
X0063333Y0151152D01*
X0063364Y0151068D01*
X0063392Y0150983D01*
X0063415Y0150897D01*
X0063435Y0150810D01*
X0063451Y0150723D01*
X0063463Y0150634D01*
X0063471Y0150546D01*
X0063475Y0150457D01*
X0063475Y0150367D01*
X0063471Y0150278D01*
X0063463Y0150190D01*
X0063451Y0150101D01*
X0063435Y0150014D01*
X0063415Y0149927D01*
X0063392Y0149841D01*
X0063364Y0149756D01*
X0063333Y0149672D01*
X0063298Y0149590D01*
X0063260Y0149510D01*
X0063218Y0149431D01*
X0063173Y0149355D01*
X0063124Y0149280D01*
X0063072Y0149208D01*
X0063017Y0149138D01*
X0062958Y0149070D01*
X0062897Y0149006D01*
X0062833Y0148944D01*
X0062766Y0148885D01*
X0062697Y0148829D01*
X0062625Y0148776D01*
X0062551Y0148726D01*
X0062475Y0148680D01*
X0062397Y0148637D01*
X0062317Y0148598D01*
X0062235Y0148562D01*
X0062152Y0148530D01*
X0062068Y0148502D01*
X0061982Y0148477D01*
X0061895Y0148457D01*
X0061808Y0148440D01*
X0061719Y0148427D01*
X0061631Y0148418D01*
X0061542Y0148413D01*
X0061453Y0148412D01*
X0061364Y0148415D01*
X0061275Y0148422D01*
X0061186Y0148433D01*
X0061098Y0148448D01*
X0061011Y0148466D01*
X0060925Y0148489D01*
X0060840Y0148515D01*
X0060756Y0148546D01*
X0060674Y0148580D01*
X0060593Y0148617D01*
X0060514Y0148658D01*
X0060437Y0148703D01*
X0060362Y0148751D01*
X0060289Y0148802D01*
X0060218Y0148856D01*
X0060150Y0148914D01*
X0060085Y0148974D01*
X0060022Y0149038D01*
X0059962Y0149104D01*
X0059905Y0149173D01*
X0059852Y0149244D01*
X0059801Y0149317D01*
X0059754Y0149393D01*
X0059711Y0149470D01*
X0059670Y0149550D01*
X0059634Y0149631D01*
X0059601Y0149714D01*
X0059572Y0149798D01*
X0059546Y0149884D01*
X0059524Y0149970D01*
X0059507Y0150057D01*
X0059493Y0150145D01*
X0059483Y0150234D01*
X0059477Y0150323D01*
X0059475Y0150412D01*
X0029475Y0154412D02*
X0029477Y0154538D01*
X0029483Y0154664D01*
X0029493Y0154790D01*
X0029507Y0154916D01*
X0029525Y0155041D01*
X0029547Y0155165D01*
X0029572Y0155289D01*
X0029602Y0155412D01*
X0029635Y0155533D01*
X0029673Y0155654D01*
X0029714Y0155773D01*
X0029759Y0155892D01*
X0029807Y0156008D01*
X0029859Y0156123D01*
X0029915Y0156236D01*
X0029975Y0156348D01*
X0030038Y0156457D01*
X0030104Y0156565D01*
X0030173Y0156670D01*
X0030246Y0156773D01*
X0030323Y0156874D01*
X0030402Y0156972D01*
X0030484Y0157068D01*
X0030570Y0157161D01*
X0030658Y0157252D01*
X0030749Y0157339D01*
X0030843Y0157424D01*
X0030939Y0157505D01*
X0031038Y0157584D01*
X0031139Y0157659D01*
X0031243Y0157731D01*
X0031349Y0157800D01*
X0031457Y0157866D01*
X0031567Y0157928D01*
X0031679Y0157986D01*
X0031792Y0158041D01*
X0031908Y0158092D01*
X0032025Y0158140D01*
X0032143Y0158184D01*
X0032263Y0158224D01*
X0032384Y0158260D01*
X0032506Y0158293D01*
X0032629Y0158322D01*
X0032753Y0158346D01*
X0032877Y0158367D01*
X0033002Y0158384D01*
X0033128Y0158397D01*
X0033254Y0158406D01*
X0033380Y0158411D01*
X0033507Y0158412D01*
X0033633Y0158409D01*
X0033759Y0158402D01*
X0033885Y0158391D01*
X0034010Y0158376D01*
X0034135Y0158357D01*
X0034259Y0158334D01*
X0034383Y0158308D01*
X0034505Y0158277D01*
X0034627Y0158243D01*
X0034747Y0158204D01*
X0034866Y0158162D01*
X0034984Y0158117D01*
X0035100Y0158067D01*
X0035215Y0158014D01*
X0035327Y0157957D01*
X0035438Y0157897D01*
X0035547Y0157833D01*
X0035654Y0157766D01*
X0035759Y0157696D01*
X0035862Y0157622D01*
X0035962Y0157545D01*
X0036060Y0157465D01*
X0036155Y0157382D01*
X0036247Y0157296D01*
X0036337Y0157207D01*
X0036424Y0157115D01*
X0036507Y0157021D01*
X0036588Y0156924D01*
X0036666Y0156824D01*
X0036741Y0156722D01*
X0036812Y0156618D01*
X0036880Y0156511D01*
X0036944Y0156403D01*
X0037005Y0156292D01*
X0037063Y0156180D01*
X0037117Y0156066D01*
X0037167Y0155950D01*
X0037214Y0155833D01*
X0037257Y0155714D01*
X0037296Y0155594D01*
X0037332Y0155473D01*
X0037363Y0155350D01*
X0037391Y0155227D01*
X0037415Y0155103D01*
X0037435Y0154978D01*
X0037451Y0154853D01*
X0037463Y0154727D01*
X0037471Y0154601D01*
X0037475Y0154475D01*
X0037475Y0154349D01*
X0037471Y0154223D01*
X0037463Y0154097D01*
X0037451Y0153971D01*
X0037435Y0153846D01*
X0037415Y0153721D01*
X0037391Y0153597D01*
X0037363Y0153474D01*
X0037332Y0153351D01*
X0037296Y0153230D01*
X0037257Y0153110D01*
X0037214Y0152991D01*
X0037167Y0152874D01*
X0037117Y0152758D01*
X0037063Y0152644D01*
X0037005Y0152532D01*
X0036944Y0152421D01*
X0036880Y0152313D01*
X0036812Y0152206D01*
X0036741Y0152102D01*
X0036666Y0152000D01*
X0036588Y0151900D01*
X0036507Y0151803D01*
X0036424Y0151709D01*
X0036337Y0151617D01*
X0036247Y0151528D01*
X0036155Y0151442D01*
X0036060Y0151359D01*
X0035962Y0151279D01*
X0035862Y0151202D01*
X0035759Y0151128D01*
X0035654Y0151058D01*
X0035547Y0150991D01*
X0035438Y0150927D01*
X0035327Y0150867D01*
X0035215Y0150810D01*
X0035100Y0150757D01*
X0034984Y0150707D01*
X0034866Y0150662D01*
X0034747Y0150620D01*
X0034627Y0150581D01*
X0034505Y0150547D01*
X0034383Y0150516D01*
X0034259Y0150490D01*
X0034135Y0150467D01*
X0034010Y0150448D01*
X0033885Y0150433D01*
X0033759Y0150422D01*
X0033633Y0150415D01*
X0033507Y0150412D01*
X0033380Y0150413D01*
X0033254Y0150418D01*
X0033128Y0150427D01*
X0033002Y0150440D01*
X0032877Y0150457D01*
X0032753Y0150478D01*
X0032629Y0150502D01*
X0032506Y0150531D01*
X0032384Y0150564D01*
X0032263Y0150600D01*
X0032143Y0150640D01*
X0032025Y0150684D01*
X0031908Y0150732D01*
X0031792Y0150783D01*
X0031679Y0150838D01*
X0031567Y0150896D01*
X0031457Y0150958D01*
X0031349Y0151024D01*
X0031243Y0151093D01*
X0031139Y0151165D01*
X0031038Y0151240D01*
X0030939Y0151319D01*
X0030843Y0151400D01*
X0030749Y0151485D01*
X0030658Y0151572D01*
X0030570Y0151663D01*
X0030484Y0151756D01*
X0030402Y0151852D01*
X0030323Y0151950D01*
X0030246Y0152051D01*
X0030173Y0152154D01*
X0030104Y0152259D01*
X0030038Y0152367D01*
X0029975Y0152476D01*
X0029915Y0152588D01*
X0029859Y0152701D01*
X0029807Y0152816D01*
X0029759Y0152932D01*
X0029714Y0153051D01*
X0029673Y0153170D01*
X0029635Y0153291D01*
X0029602Y0153412D01*
X0029572Y0153535D01*
X0029547Y0153659D01*
X0029525Y0153783D01*
X0029507Y0153908D01*
X0029493Y0154034D01*
X0029483Y0154160D01*
X0029477Y0154286D01*
X0029475Y0154412D01*
X0150475Y0033412D02*
X0150477Y0033538D01*
X0150483Y0033664D01*
X0150493Y0033790D01*
X0150507Y0033916D01*
X0150525Y0034041D01*
X0150547Y0034165D01*
X0150572Y0034289D01*
X0150602Y0034412D01*
X0150635Y0034533D01*
X0150673Y0034654D01*
X0150714Y0034773D01*
X0150759Y0034892D01*
X0150807Y0035008D01*
X0150859Y0035123D01*
X0150915Y0035236D01*
X0150975Y0035348D01*
X0151038Y0035457D01*
X0151104Y0035565D01*
X0151173Y0035670D01*
X0151246Y0035773D01*
X0151323Y0035874D01*
X0151402Y0035972D01*
X0151484Y0036068D01*
X0151570Y0036161D01*
X0151658Y0036252D01*
X0151749Y0036339D01*
X0151843Y0036424D01*
X0151939Y0036505D01*
X0152038Y0036584D01*
X0152139Y0036659D01*
X0152243Y0036731D01*
X0152349Y0036800D01*
X0152457Y0036866D01*
X0152567Y0036928D01*
X0152679Y0036986D01*
X0152792Y0037041D01*
X0152908Y0037092D01*
X0153025Y0037140D01*
X0153143Y0037184D01*
X0153263Y0037224D01*
X0153384Y0037260D01*
X0153506Y0037293D01*
X0153629Y0037322D01*
X0153753Y0037346D01*
X0153877Y0037367D01*
X0154002Y0037384D01*
X0154128Y0037397D01*
X0154254Y0037406D01*
X0154380Y0037411D01*
X0154507Y0037412D01*
X0154633Y0037409D01*
X0154759Y0037402D01*
X0154885Y0037391D01*
X0155010Y0037376D01*
X0155135Y0037357D01*
X0155259Y0037334D01*
X0155383Y0037308D01*
X0155505Y0037277D01*
X0155627Y0037243D01*
X0155747Y0037204D01*
X0155866Y0037162D01*
X0155984Y0037117D01*
X0156100Y0037067D01*
X0156215Y0037014D01*
X0156327Y0036957D01*
X0156438Y0036897D01*
X0156547Y0036833D01*
X0156654Y0036766D01*
X0156759Y0036696D01*
X0156862Y0036622D01*
X0156962Y0036545D01*
X0157060Y0036465D01*
X0157155Y0036382D01*
X0157247Y0036296D01*
X0157337Y0036207D01*
X0157424Y0036115D01*
X0157507Y0036021D01*
X0157588Y0035924D01*
X0157666Y0035824D01*
X0157741Y0035722D01*
X0157812Y0035618D01*
X0157880Y0035511D01*
X0157944Y0035403D01*
X0158005Y0035292D01*
X0158063Y0035180D01*
X0158117Y0035066D01*
X0158167Y0034950D01*
X0158214Y0034833D01*
X0158257Y0034714D01*
X0158296Y0034594D01*
X0158332Y0034473D01*
X0158363Y0034350D01*
X0158391Y0034227D01*
X0158415Y0034103D01*
X0158435Y0033978D01*
X0158451Y0033853D01*
X0158463Y0033727D01*
X0158471Y0033601D01*
X0158475Y0033475D01*
X0158475Y0033349D01*
X0158471Y0033223D01*
X0158463Y0033097D01*
X0158451Y0032971D01*
X0158435Y0032846D01*
X0158415Y0032721D01*
X0158391Y0032597D01*
X0158363Y0032474D01*
X0158332Y0032351D01*
X0158296Y0032230D01*
X0158257Y0032110D01*
X0158214Y0031991D01*
X0158167Y0031874D01*
X0158117Y0031758D01*
X0158063Y0031644D01*
X0158005Y0031532D01*
X0157944Y0031421D01*
X0157880Y0031313D01*
X0157812Y0031206D01*
X0157741Y0031102D01*
X0157666Y0031000D01*
X0157588Y0030900D01*
X0157507Y0030803D01*
X0157424Y0030709D01*
X0157337Y0030617D01*
X0157247Y0030528D01*
X0157155Y0030442D01*
X0157060Y0030359D01*
X0156962Y0030279D01*
X0156862Y0030202D01*
X0156759Y0030128D01*
X0156654Y0030058D01*
X0156547Y0029991D01*
X0156438Y0029927D01*
X0156327Y0029867D01*
X0156215Y0029810D01*
X0156100Y0029757D01*
X0155984Y0029707D01*
X0155866Y0029662D01*
X0155747Y0029620D01*
X0155627Y0029581D01*
X0155505Y0029547D01*
X0155383Y0029516D01*
X0155259Y0029490D01*
X0155135Y0029467D01*
X0155010Y0029448D01*
X0154885Y0029433D01*
X0154759Y0029422D01*
X0154633Y0029415D01*
X0154507Y0029412D01*
X0154380Y0029413D01*
X0154254Y0029418D01*
X0154128Y0029427D01*
X0154002Y0029440D01*
X0153877Y0029457D01*
X0153753Y0029478D01*
X0153629Y0029502D01*
X0153506Y0029531D01*
X0153384Y0029564D01*
X0153263Y0029600D01*
X0153143Y0029640D01*
X0153025Y0029684D01*
X0152908Y0029732D01*
X0152792Y0029783D01*
X0152679Y0029838D01*
X0152567Y0029896D01*
X0152457Y0029958D01*
X0152349Y0030024D01*
X0152243Y0030093D01*
X0152139Y0030165D01*
X0152038Y0030240D01*
X0151939Y0030319D01*
X0151843Y0030400D01*
X0151749Y0030485D01*
X0151658Y0030572D01*
X0151570Y0030663D01*
X0151484Y0030756D01*
X0151402Y0030852D01*
X0151323Y0030950D01*
X0151246Y0031051D01*
X0151173Y0031154D01*
X0151104Y0031259D01*
X0151038Y0031367D01*
X0150975Y0031476D01*
X0150915Y0031588D01*
X0150859Y0031701D01*
X0150807Y0031816D01*
X0150759Y0031932D01*
X0150714Y0032051D01*
X0150673Y0032170D01*
X0150635Y0032291D01*
X0150602Y0032412D01*
X0150572Y0032535D01*
X0150547Y0032659D01*
X0150525Y0032783D01*
X0150507Y0032908D01*
X0150493Y0033034D01*
X0150483Y0033160D01*
X0150477Y0033286D01*
X0150475Y0033412D01*
X0151475Y0155412D02*
X0151477Y0155538D01*
X0151483Y0155664D01*
X0151493Y0155790D01*
X0151507Y0155916D01*
X0151525Y0156041D01*
X0151547Y0156165D01*
X0151572Y0156289D01*
X0151602Y0156412D01*
X0151635Y0156533D01*
X0151673Y0156654D01*
X0151714Y0156773D01*
X0151759Y0156892D01*
X0151807Y0157008D01*
X0151859Y0157123D01*
X0151915Y0157236D01*
X0151975Y0157348D01*
X0152038Y0157457D01*
X0152104Y0157565D01*
X0152173Y0157670D01*
X0152246Y0157773D01*
X0152323Y0157874D01*
X0152402Y0157972D01*
X0152484Y0158068D01*
X0152570Y0158161D01*
X0152658Y0158252D01*
X0152749Y0158339D01*
X0152843Y0158424D01*
X0152939Y0158505D01*
X0153038Y0158584D01*
X0153139Y0158659D01*
X0153243Y0158731D01*
X0153349Y0158800D01*
X0153457Y0158866D01*
X0153567Y0158928D01*
X0153679Y0158986D01*
X0153792Y0159041D01*
X0153908Y0159092D01*
X0154025Y0159140D01*
X0154143Y0159184D01*
X0154263Y0159224D01*
X0154384Y0159260D01*
X0154506Y0159293D01*
X0154629Y0159322D01*
X0154753Y0159346D01*
X0154877Y0159367D01*
X0155002Y0159384D01*
X0155128Y0159397D01*
X0155254Y0159406D01*
X0155380Y0159411D01*
X0155507Y0159412D01*
X0155633Y0159409D01*
X0155759Y0159402D01*
X0155885Y0159391D01*
X0156010Y0159376D01*
X0156135Y0159357D01*
X0156259Y0159334D01*
X0156383Y0159308D01*
X0156505Y0159277D01*
X0156627Y0159243D01*
X0156747Y0159204D01*
X0156866Y0159162D01*
X0156984Y0159117D01*
X0157100Y0159067D01*
X0157215Y0159014D01*
X0157327Y0158957D01*
X0157438Y0158897D01*
X0157547Y0158833D01*
X0157654Y0158766D01*
X0157759Y0158696D01*
X0157862Y0158622D01*
X0157962Y0158545D01*
X0158060Y0158465D01*
X0158155Y0158382D01*
X0158247Y0158296D01*
X0158337Y0158207D01*
X0158424Y0158115D01*
X0158507Y0158021D01*
X0158588Y0157924D01*
X0158666Y0157824D01*
X0158741Y0157722D01*
X0158812Y0157618D01*
X0158880Y0157511D01*
X0158944Y0157403D01*
X0159005Y0157292D01*
X0159063Y0157180D01*
X0159117Y0157066D01*
X0159167Y0156950D01*
X0159214Y0156833D01*
X0159257Y0156714D01*
X0159296Y0156594D01*
X0159332Y0156473D01*
X0159363Y0156350D01*
X0159391Y0156227D01*
X0159415Y0156103D01*
X0159435Y0155978D01*
X0159451Y0155853D01*
X0159463Y0155727D01*
X0159471Y0155601D01*
X0159475Y0155475D01*
X0159475Y0155349D01*
X0159471Y0155223D01*
X0159463Y0155097D01*
X0159451Y0154971D01*
X0159435Y0154846D01*
X0159415Y0154721D01*
X0159391Y0154597D01*
X0159363Y0154474D01*
X0159332Y0154351D01*
X0159296Y0154230D01*
X0159257Y0154110D01*
X0159214Y0153991D01*
X0159167Y0153874D01*
X0159117Y0153758D01*
X0159063Y0153644D01*
X0159005Y0153532D01*
X0158944Y0153421D01*
X0158880Y0153313D01*
X0158812Y0153206D01*
X0158741Y0153102D01*
X0158666Y0153000D01*
X0158588Y0152900D01*
X0158507Y0152803D01*
X0158424Y0152709D01*
X0158337Y0152617D01*
X0158247Y0152528D01*
X0158155Y0152442D01*
X0158060Y0152359D01*
X0157962Y0152279D01*
X0157862Y0152202D01*
X0157759Y0152128D01*
X0157654Y0152058D01*
X0157547Y0151991D01*
X0157438Y0151927D01*
X0157327Y0151867D01*
X0157215Y0151810D01*
X0157100Y0151757D01*
X0156984Y0151707D01*
X0156866Y0151662D01*
X0156747Y0151620D01*
X0156627Y0151581D01*
X0156505Y0151547D01*
X0156383Y0151516D01*
X0156259Y0151490D01*
X0156135Y0151467D01*
X0156010Y0151448D01*
X0155885Y0151433D01*
X0155759Y0151422D01*
X0155633Y0151415D01*
X0155507Y0151412D01*
X0155380Y0151413D01*
X0155254Y0151418D01*
X0155128Y0151427D01*
X0155002Y0151440D01*
X0154877Y0151457D01*
X0154753Y0151478D01*
X0154629Y0151502D01*
X0154506Y0151531D01*
X0154384Y0151564D01*
X0154263Y0151600D01*
X0154143Y0151640D01*
X0154025Y0151684D01*
X0153908Y0151732D01*
X0153792Y0151783D01*
X0153679Y0151838D01*
X0153567Y0151896D01*
X0153457Y0151958D01*
X0153349Y0152024D01*
X0153243Y0152093D01*
X0153139Y0152165D01*
X0153038Y0152240D01*
X0152939Y0152319D01*
X0152843Y0152400D01*
X0152749Y0152485D01*
X0152658Y0152572D01*
X0152570Y0152663D01*
X0152484Y0152756D01*
X0152402Y0152852D01*
X0152323Y0152950D01*
X0152246Y0153051D01*
X0152173Y0153154D01*
X0152104Y0153259D01*
X0152038Y0153367D01*
X0151975Y0153476D01*
X0151915Y0153588D01*
X0151859Y0153701D01*
X0151807Y0153816D01*
X0151759Y0153932D01*
X0151714Y0154051D01*
X0151673Y0154170D01*
X0151635Y0154291D01*
X0151602Y0154412D01*
X0151572Y0154535D01*
X0151547Y0154659D01*
X0151525Y0154783D01*
X0151507Y0154908D01*
X0151493Y0155034D01*
X0151483Y0155160D01*
X0151477Y0155286D01*
X0151475Y0155412D01*
D11*
X0024909Y0031080D02*
X0027341Y0027763D01*
X0030550Y0025188D01*
X0034315Y0023532D01*
X0038381Y0022906D01*
X0040137Y0022983D01*
X0040206Y0023012D01*
X0040581Y0023012D01*
X0040954Y0023053D01*
X0041094Y0023012D01*
X0042358Y0023012D01*
X0042646Y0023676D01*
X0042646Y0023676D01*
X0045654Y0027495D01*
X0045654Y0027496D01*
X0049538Y0030420D01*
X0049538Y0030420D01*
X0054039Y0032256D01*
X0054039Y0032256D01*
X0058861Y0032882D01*
X0058861Y0032882D01*
X0063682Y0032256D01*
X0063682Y0032256D01*
X0068184Y0030420D01*
X0068184Y0030420D01*
X0072067Y0027496D01*
X0072067Y0027496D01*
X0072067Y0027495D01*
X0075075Y0023676D01*
X0075075Y0023676D01*
X0075363Y0023012D01*
X0111811Y0023012D01*
X0103064Y0031759D01*
X0103064Y0032919D01*
X0115905Y0045760D01*
X0117065Y0045760D01*
X0127077Y0035747D01*
X0127077Y0035312D01*
X0136688Y0035312D01*
X0144575Y0043199D01*
X0144575Y0046075D01*
X0142848Y0046075D01*
X0142028Y0046895D01*
X0142028Y0055929D01*
X0142848Y0056749D01*
X0144507Y0056749D01*
X0144507Y0057795D01*
X0135996Y0066417D01*
X0127540Y0066393D01*
X0127511Y0066366D01*
X0126758Y0066391D01*
X0126006Y0066389D01*
X0125978Y0066417D01*
X0123135Y0066512D01*
X0105688Y0066512D01*
X0104575Y0067625D01*
X0099560Y0072640D01*
X0099560Y0108184D01*
X0100673Y0109297D01*
X0100890Y0109514D01*
X0100890Y0109587D01*
X0089613Y0109587D01*
X0085688Y0113512D01*
X0084575Y0114625D01*
X0084575Y0120052D01*
X0073475Y0130412D01*
X0073901Y0138512D01*
X0067387Y0138512D01*
X0067387Y0137863D01*
X0066567Y0137043D01*
X0061076Y0137043D01*
X0060751Y0137368D01*
X0060734Y0137338D01*
X0060399Y0137003D01*
X0059989Y0136766D01*
X0059531Y0136643D01*
X0057313Y0136643D01*
X0057313Y0140228D01*
X0056944Y0140228D01*
X0053163Y0140228D01*
X0053163Y0138206D01*
X0053286Y0137749D01*
X0053523Y0137338D01*
X0053858Y0137003D01*
X0054268Y0136766D01*
X0054726Y0136643D01*
X0056944Y0136643D01*
X0056944Y0140228D01*
X0056944Y0140596D01*
X0053163Y0140596D01*
X0053163Y0142617D01*
X0053286Y0143075D01*
X0053523Y0143486D01*
X0053858Y0143821D01*
X0054268Y0144058D01*
X0054726Y0144180D01*
X0056944Y0144180D01*
X0056944Y0140596D01*
X0057313Y0140596D01*
X0057313Y0144180D01*
X0059531Y0144180D01*
X0059989Y0144058D01*
X0060399Y0143821D01*
X0060734Y0143486D01*
X0060751Y0143456D01*
X0061076Y0143780D01*
X0066567Y0143780D01*
X0067387Y0142960D01*
X0067387Y0142312D01*
X0074101Y0142312D01*
X0074112Y0142512D01*
X0070178Y0142512D01*
X0070114Y0142457D01*
X0069402Y0142512D01*
X0068688Y0142512D01*
X0068628Y0142571D01*
X0068544Y0142578D01*
X0068080Y0143120D01*
X0067575Y0143625D01*
X0067575Y0143709D01*
X0066501Y0144962D01*
X0065888Y0144962D01*
X0064804Y0145411D01*
X0063974Y0146241D01*
X0063587Y0147174D01*
X0062231Y0146612D01*
X0060719Y0146612D01*
X0059322Y0147190D01*
X0058253Y0148259D01*
X0057675Y0149656D01*
X0057675Y0149864D01*
X0056976Y0149165D01*
X0056002Y0148762D01*
X0054948Y0148762D01*
X0054387Y0148994D01*
X0054387Y0148863D01*
X0053567Y0148043D01*
X0048076Y0148043D01*
X0047751Y0148368D01*
X0047734Y0148338D01*
X0047399Y0148003D01*
X0046989Y0147766D01*
X0046531Y0147643D01*
X0044313Y0147643D01*
X0044313Y0151228D01*
X0043944Y0151228D01*
X0040163Y0151228D01*
X0040163Y0149206D01*
X0040286Y0148749D01*
X0040523Y0148338D01*
X0040858Y0148003D01*
X0041268Y0147766D01*
X0041726Y0147643D01*
X0043944Y0147643D01*
X0043944Y0151228D01*
X0043944Y0151596D01*
X0040163Y0151596D01*
X0040163Y0153617D01*
X0040286Y0154075D01*
X0040523Y0154486D01*
X0040858Y0154821D01*
X0041268Y0155058D01*
X0041726Y0155180D01*
X0043944Y0155180D01*
X0043944Y0151596D01*
X0044313Y0151596D01*
X0044313Y0155180D01*
X0046531Y0155180D01*
X0046989Y0155058D01*
X0047399Y0154821D01*
X0047734Y0154486D01*
X0047751Y0154456D01*
X0048076Y0154780D01*
X0053567Y0154780D01*
X0054387Y0153960D01*
X0054387Y0153829D01*
X0054948Y0154062D01*
X0056002Y0154062D01*
X0056976Y0153658D01*
X0057721Y0152913D01*
X0058060Y0152097D01*
X0058253Y0152564D01*
X0059322Y0153633D01*
X0060719Y0154212D01*
X0062231Y0154212D01*
X0063587Y0153650D01*
X0063974Y0154583D01*
X0064804Y0155413D01*
X0065255Y0155599D01*
X0061281Y0154412D01*
X0056441Y0154412D01*
X0051804Y0155798D01*
X0051804Y0155798D01*
X0047758Y0158454D01*
X0047758Y0158454D01*
X0047758Y0158454D01*
X0044642Y0162158D01*
X0044642Y0162158D01*
X0044358Y0162812D01*
X0040475Y0162812D01*
X0038527Y0162702D01*
X0034728Y0161835D01*
X0031217Y0160145D01*
X0030199Y0159333D01*
X0032321Y0160212D01*
X0034629Y0160212D01*
X0036760Y0159329D01*
X0038392Y0157697D01*
X0039275Y0155566D01*
X0039275Y0153258D01*
X0038392Y0151126D01*
X0036760Y0149495D01*
X0034629Y0148612D01*
X0032321Y0148612D01*
X0030189Y0149495D01*
X0028558Y0151126D01*
X0027675Y0153258D01*
X0027675Y0155566D01*
X0028558Y0157697D01*
X0030170Y0159310D01*
X0028171Y0157716D01*
X0025742Y0154669D01*
X0024051Y0151159D01*
X0023184Y0147360D01*
X0023075Y0145412D01*
X0023075Y0116130D01*
X0027319Y0120374D01*
X0032622Y0115071D01*
X0033753Y0116202D01*
X0028450Y0121505D01*
X0034062Y0127117D01*
X0034473Y0127354D01*
X0034930Y0127477D01*
X0035404Y0127477D01*
X0035862Y0127354D01*
X0036273Y0127117D01*
X0040471Y0122919D01*
X0033753Y0116202D01*
X0034885Y0115071D01*
X0041602Y0121788D01*
X0045800Y0117590D01*
X0046037Y0117179D01*
X0046160Y0116722D01*
X0046160Y0116248D01*
X0046037Y0115790D01*
X0045800Y0115379D01*
X0040188Y0109767D01*
X0034885Y0115070D01*
X0033753Y0113939D01*
X0027036Y0107222D01*
X0031234Y0103024D01*
X0031644Y0102787D01*
X0032102Y0102664D01*
X0032576Y0102664D01*
X0033034Y0102787D01*
X0033444Y0103024D01*
X0039057Y0108636D01*
X0033753Y0113939D01*
X0032622Y0115070D01*
X0025904Y0108353D01*
X0023075Y0111182D01*
X0023075Y0075300D01*
X0023739Y0075012D01*
X0023739Y0075012D01*
X0027558Y0072004D01*
X0027559Y0072004D01*
X0027559Y0072004D01*
X0030483Y0068121D01*
X0030483Y0068121D01*
X0032319Y0063619D01*
X0032319Y0063619D01*
X0032945Y0058798D01*
X0032945Y0058798D01*
X0032319Y0053976D01*
X0032319Y0053976D01*
X0030483Y0049475D01*
X0030483Y0049475D01*
X0027559Y0045591D01*
X0027559Y0045591D01*
X0027558Y0045591D01*
X0023739Y0042583D01*
X0023739Y0042583D01*
X0023075Y0042295D01*
X0023075Y0036856D01*
X0023417Y0034914D01*
X0024909Y0031080D01*
X0024706Y0031601D02*
X0025675Y0031601D01*
X0025675Y0031258D02*
X0026558Y0029126D01*
X0028189Y0027495D01*
X0030321Y0026612D01*
X0032629Y0026612D01*
X0034760Y0027495D01*
X0036392Y0029126D01*
X0037275Y0031258D01*
X0037275Y0033566D01*
X0036392Y0035697D01*
X0034760Y0037329D01*
X0032629Y0038212D01*
X0030321Y0038212D01*
X0028189Y0037329D01*
X0026558Y0035697D01*
X0025675Y0033566D01*
X0025675Y0031258D01*
X0025699Y0030003D02*
X0026195Y0030003D01*
X0026871Y0028404D02*
X0027280Y0028404D01*
X0028534Y0026806D02*
X0029853Y0026806D01*
X0030526Y0025207D02*
X0043852Y0025207D01*
X0042617Y0023609D02*
X0034140Y0023609D01*
X0033097Y0026806D02*
X0045111Y0026806D01*
X0046861Y0028404D02*
X0035670Y0028404D01*
X0036755Y0030003D02*
X0048984Y0030003D01*
X0052434Y0031601D02*
X0037275Y0031601D01*
X0037275Y0033200D02*
X0103345Y0033200D01*
X0103222Y0031601D02*
X0065288Y0031601D01*
X0068738Y0030003D02*
X0104820Y0030003D01*
X0106419Y0028404D02*
X0070860Y0028404D01*
X0072610Y0026806D02*
X0108017Y0026806D01*
X0109616Y0025207D02*
X0073869Y0025207D01*
X0075104Y0023609D02*
X0111214Y0023609D01*
X0115501Y0023012D02*
X0124001Y0031512D01*
X0138262Y0031512D01*
X0147262Y0040512D01*
X0148375Y0041625D01*
X0148375Y0046075D01*
X0149913Y0046075D01*
X0150733Y0046895D01*
X0150733Y0055929D01*
X0149913Y0056749D01*
X0148352Y0056749D01*
X0148364Y0057702D01*
X0148370Y0057707D01*
X0148375Y0058488D01*
X0148385Y0059268D01*
X0148380Y0059273D01*
X0148380Y0059281D01*
X0148307Y0059355D01*
X0148307Y0084267D01*
X0147194Y0085380D01*
X0141262Y0091312D01*
X0137615Y0091312D01*
X0138643Y0092340D01*
X0140591Y0094288D01*
X0142540Y0096237D01*
X0144489Y0098186D01*
X0146438Y0100135D01*
X0148386Y0102083D01*
X0150335Y0104032D01*
X0152284Y0105981D01*
X0154232Y0107929D01*
X0155781Y0109478D01*
X0155838Y0109478D01*
X0156296Y0109601D01*
X0156706Y0109838D01*
X0157570Y0110701D01*
X0153722Y0114549D01*
X0153722Y0114549D01*
X0150397Y0117874D01*
X0150397Y0117874D01*
X0153722Y0114549D01*
X0153722Y0114549D01*
X0157570Y0110701D01*
X0158434Y0111565D01*
X0158671Y0111975D01*
X0158793Y0112433D01*
X0158793Y0112907D01*
X0158671Y0113365D01*
X0158434Y0113775D01*
X0155691Y0116518D01*
X0153722Y0114549D01*
X0153722Y0114549D01*
X0155691Y0116518D01*
X0152948Y0119261D01*
X0152538Y0119498D01*
X0152130Y0119607D01*
X0155263Y0122740D01*
X0155861Y0120741D01*
X0155861Y0120741D01*
X0158517Y0116695D01*
X0158517Y0116695D01*
X0162221Y0113579D01*
X0162875Y0113295D01*
X0162875Y0073300D01*
X0162221Y0073016D01*
X0162221Y0073016D01*
X0158517Y0069901D01*
X0158517Y0069901D01*
X0158517Y0069901D01*
X0155861Y0065855D01*
X0154475Y0061218D01*
X0154475Y0056378D01*
X0155861Y0051741D01*
X0155861Y0051741D01*
X0158517Y0047695D01*
X0158517Y0047695D01*
X0162221Y0044579D01*
X0162875Y0044295D01*
X0162875Y0040412D01*
X0162765Y0038464D01*
X0161898Y0034665D01*
X0160208Y0031155D01*
X0159396Y0030136D01*
X0160275Y0032258D01*
X0160275Y0034566D01*
X0159392Y0036697D01*
X0157760Y0038329D01*
X0155629Y0039212D01*
X0153321Y0039212D01*
X0151189Y0038329D01*
X0149558Y0036697D01*
X0148675Y0034566D01*
X0148675Y0032258D01*
X0149558Y0030126D01*
X0151189Y0028495D01*
X0153321Y0027612D01*
X0155629Y0027612D01*
X0157760Y0028495D01*
X0159373Y0030107D01*
X0157779Y0028108D01*
X0154732Y0025679D01*
X0151222Y0023988D01*
X0147423Y0023121D01*
X0145475Y0023012D01*
X0115501Y0023012D01*
X0116098Y0023609D02*
X0149559Y0023609D01*
X0151408Y0028404D02*
X0120894Y0028404D01*
X0119295Y0026806D02*
X0156146Y0026806D01*
X0157542Y0028404D02*
X0158015Y0028404D01*
X0159268Y0030003D02*
X0159290Y0030003D01*
X0160003Y0031601D02*
X0160423Y0031601D01*
X0160275Y0033200D02*
X0161193Y0033200D01*
X0161929Y0034798D02*
X0160178Y0034798D01*
X0159516Y0036397D02*
X0162294Y0036397D01*
X0162659Y0037995D02*
X0158094Y0037995D01*
X0162829Y0039594D02*
X0146344Y0039594D01*
X0165475Y0040412D02*
X0165469Y0039929D01*
X0165452Y0039446D01*
X0165422Y0038963D01*
X0165382Y0038482D01*
X0165329Y0038001D01*
X0165265Y0037522D01*
X0165190Y0037045D01*
X0165102Y0036569D01*
X0165004Y0036096D01*
X0164894Y0035626D01*
X0164773Y0035158D01*
X0164640Y0034693D01*
X0164496Y0034232D01*
X0164341Y0033774D01*
X0164175Y0033320D01*
X0163998Y0032870D01*
X0163811Y0032425D01*
X0163612Y0031984D01*
X0163404Y0031548D01*
X0163184Y0031118D01*
X0162954Y0030692D01*
X0162714Y0030273D01*
X0162464Y0029859D01*
X0162204Y0029452D01*
X0161935Y0029051D01*
X0161655Y0028656D01*
X0161367Y0028269D01*
X0161068Y0027888D01*
X0160761Y0027515D01*
X0160445Y0027150D01*
X0160120Y0026792D01*
X0159787Y0026442D01*
X0159445Y0026100D01*
X0159095Y0025767D01*
X0158737Y0025442D01*
X0158372Y0025126D01*
X0157999Y0024819D01*
X0157618Y0024520D01*
X0157231Y0024232D01*
X0156836Y0023952D01*
X0156435Y0023683D01*
X0156028Y0023423D01*
X0155614Y0023173D01*
X0155195Y0022933D01*
X0154769Y0022703D01*
X0154339Y0022483D01*
X0153903Y0022275D01*
X0153462Y0022076D01*
X0153017Y0021889D01*
X0152567Y0021712D01*
X0152113Y0021546D01*
X0151655Y0021391D01*
X0151194Y0021247D01*
X0150729Y0021114D01*
X0150261Y0020993D01*
X0149791Y0020883D01*
X0149318Y0020785D01*
X0148842Y0020697D01*
X0148365Y0020622D01*
X0147886Y0020558D01*
X0147405Y0020505D01*
X0146924Y0020465D01*
X0146441Y0020435D01*
X0145958Y0020418D01*
X0145475Y0020412D01*
X0073656Y0020412D01*
X0073657Y0020412D02*
X0073495Y0020772D01*
X0073325Y0021128D01*
X0073147Y0021480D01*
X0072960Y0021827D01*
X0072764Y0022170D01*
X0072560Y0022507D01*
X0072348Y0022840D01*
X0072128Y0023167D01*
X0071899Y0023489D01*
X0071663Y0023805D01*
X0071420Y0024115D01*
X0071169Y0024419D01*
X0070910Y0024717D01*
X0070645Y0025008D01*
X0070372Y0025293D01*
X0070092Y0025572D01*
X0069806Y0025843D01*
X0069513Y0026107D01*
X0069214Y0026364D01*
X0068908Y0026613D01*
X0068597Y0026855D01*
X0068279Y0027090D01*
X0067956Y0027316D01*
X0067628Y0027534D01*
X0067294Y0027745D01*
X0066956Y0027947D01*
X0066612Y0028141D01*
X0066264Y0028326D01*
X0065911Y0028503D01*
X0065555Y0028671D01*
X0065194Y0028830D01*
X0064829Y0028981D01*
X0064461Y0029122D01*
X0064090Y0029255D01*
X0063715Y0029378D01*
X0063337Y0029492D01*
X0062957Y0029597D01*
X0062574Y0029693D01*
X0062190Y0029779D01*
X0061803Y0029855D01*
X0061414Y0029923D01*
X0061024Y0029980D01*
X0060632Y0030028D01*
X0060240Y0030067D01*
X0059846Y0030096D01*
X0059453Y0030115D01*
X0059058Y0030125D01*
X0058664Y0030125D01*
X0058269Y0030115D01*
X0057876Y0030096D01*
X0057482Y0030067D01*
X0057090Y0030028D01*
X0056698Y0029980D01*
X0056308Y0029923D01*
X0055919Y0029855D01*
X0055532Y0029779D01*
X0055148Y0029693D01*
X0054765Y0029597D01*
X0054385Y0029492D01*
X0054007Y0029378D01*
X0053632Y0029255D01*
X0053261Y0029122D01*
X0052893Y0028981D01*
X0052528Y0028830D01*
X0052167Y0028671D01*
X0051811Y0028503D01*
X0051458Y0028326D01*
X0051110Y0028141D01*
X0050766Y0027947D01*
X0050428Y0027745D01*
X0050094Y0027534D01*
X0049766Y0027316D01*
X0049443Y0027090D01*
X0049125Y0026855D01*
X0048814Y0026613D01*
X0048508Y0026364D01*
X0048209Y0026107D01*
X0047916Y0025843D01*
X0047630Y0025572D01*
X0047350Y0025293D01*
X0047077Y0025008D01*
X0046812Y0024717D01*
X0046553Y0024419D01*
X0046302Y0024115D01*
X0046059Y0023805D01*
X0045823Y0023489D01*
X0045594Y0023167D01*
X0045374Y0022840D01*
X0045162Y0022507D01*
X0044958Y0022170D01*
X0044762Y0021827D01*
X0044575Y0021480D01*
X0044397Y0021128D01*
X0044227Y0020772D01*
X0044065Y0020412D01*
X0040723Y0020412D01*
X0036764Y0034798D02*
X0104943Y0034798D01*
X0106542Y0036397D02*
X0035692Y0036397D01*
X0033151Y0037995D02*
X0108141Y0037995D01*
X0109739Y0039594D02*
X0023075Y0039594D01*
X0023075Y0037995D02*
X0029799Y0037995D01*
X0027258Y0036397D02*
X0023156Y0036397D01*
X0023462Y0034798D02*
X0026186Y0034798D01*
X0025675Y0033200D02*
X0024084Y0033200D01*
X0020475Y0036660D02*
X0020475Y0044002D01*
X0024003Y0042791D02*
X0112936Y0042791D01*
X0111338Y0041193D02*
X0023075Y0041193D01*
X0026033Y0044390D02*
X0114535Y0044390D01*
X0118435Y0044390D02*
X0144575Y0044390D01*
X0144575Y0045988D02*
X0138547Y0045988D01*
X0138627Y0046034D02*
X0138962Y0046370D01*
X0139199Y0046780D01*
X0139322Y0047238D01*
X0139322Y0050735D01*
X0135246Y0050735D01*
X0135246Y0045675D01*
X0137759Y0045675D01*
X0138217Y0045798D01*
X0138627Y0046034D01*
X0139322Y0047587D02*
X0142028Y0047587D01*
X0142028Y0049185D02*
X0139322Y0049185D01*
X0139322Y0052088D02*
X0139322Y0055586D01*
X0139199Y0056044D01*
X0138962Y0056454D01*
X0138627Y0056789D01*
X0138217Y0057026D01*
X0137759Y0057149D01*
X0135246Y0057149D01*
X0135246Y0052088D01*
X0139322Y0052088D01*
X0139322Y0052382D02*
X0142028Y0052382D01*
X0142028Y0050784D02*
X0135246Y0050784D01*
X0135246Y0050735D02*
X0135246Y0052088D01*
X0133893Y0052088D01*
X0133893Y0050735D01*
X0135246Y0050735D01*
X0133893Y0050735D02*
X0133893Y0045675D01*
X0131380Y0045675D01*
X0130922Y0045798D01*
X0130511Y0046034D01*
X0130176Y0046370D01*
X0129939Y0046780D01*
X0129817Y0047238D01*
X0129817Y0050735D01*
X0133893Y0050735D01*
X0133893Y0050784D02*
X0031017Y0050784D01*
X0031669Y0052382D02*
X0129817Y0052382D01*
X0129817Y0052088D02*
X0133893Y0052088D01*
X0133893Y0057149D01*
X0131380Y0057149D01*
X0130922Y0057026D01*
X0130511Y0056789D01*
X0130176Y0056454D01*
X0129939Y0056044D01*
X0129817Y0055586D01*
X0129817Y0052088D01*
X0129817Y0053981D02*
X0064432Y0053981D01*
X0064362Y0053962D02*
X0064820Y0054085D01*
X0065230Y0054322D01*
X0065565Y0054657D01*
X0065802Y0055067D01*
X0065925Y0055525D01*
X0065925Y0057412D01*
X0065925Y0059299D01*
X0065802Y0059757D01*
X0065565Y0060167D01*
X0065230Y0060502D01*
X0064820Y0060739D01*
X0064362Y0060862D01*
X0062475Y0060862D01*
X0062475Y0057412D01*
X0065925Y0057412D01*
X0062475Y0057412D01*
X0062475Y0057412D01*
X0062475Y0057412D01*
X0062475Y0060862D01*
X0060588Y0060862D01*
X0060130Y0060739D01*
X0059720Y0060502D01*
X0059384Y0060167D01*
X0059148Y0059757D01*
X0059025Y0059299D01*
X0059025Y0057412D01*
X0062475Y0057412D01*
X0062475Y0053962D01*
X0064362Y0053962D01*
X0062475Y0053981D02*
X0062475Y0053981D01*
X0062475Y0053962D02*
X0062475Y0057412D01*
X0062475Y0057412D01*
X0062475Y0057412D01*
X0059025Y0057412D01*
X0059025Y0055525D01*
X0059148Y0055067D01*
X0059384Y0054657D01*
X0059720Y0054322D01*
X0060130Y0054085D01*
X0060588Y0053962D01*
X0062475Y0053962D01*
X0062475Y0055579D02*
X0062475Y0055579D01*
X0062475Y0057178D02*
X0062475Y0057178D01*
X0062475Y0058776D02*
X0062475Y0058776D01*
X0062475Y0060375D02*
X0062475Y0060375D01*
X0059592Y0060375D02*
X0032741Y0060375D01*
X0032943Y0058776D02*
X0059025Y0058776D01*
X0059025Y0057178D02*
X0032735Y0057178D01*
X0032528Y0055579D02*
X0059025Y0055579D01*
X0060518Y0053981D02*
X0032320Y0053981D01*
X0030265Y0049185D02*
X0129817Y0049185D01*
X0129817Y0047587D02*
X0029061Y0047587D01*
X0027857Y0045988D02*
X0130592Y0045988D01*
X0133893Y0045988D02*
X0135246Y0045988D01*
X0135246Y0047587D02*
X0133893Y0047587D01*
X0133893Y0049185D02*
X0135246Y0049185D01*
X0135246Y0052382D02*
X0133893Y0052382D01*
X0133893Y0053981D02*
X0135246Y0053981D01*
X0135246Y0055579D02*
X0133893Y0055579D01*
X0131230Y0059322D02*
X0131565Y0059657D01*
X0131802Y0060067D01*
X0131925Y0060525D01*
X0131925Y0062412D01*
X0131925Y0064299D01*
X0131802Y0064757D01*
X0131565Y0065167D01*
X0131230Y0065502D01*
X0130820Y0065739D01*
X0130362Y0065862D01*
X0128475Y0065862D01*
X0128475Y0062412D01*
X0131925Y0062412D01*
X0128475Y0062412D01*
X0128475Y0062412D01*
X0128475Y0062412D01*
X0128475Y0065862D01*
X0126588Y0065862D01*
X0126130Y0065739D01*
X0125720Y0065502D01*
X0125384Y0065167D01*
X0125148Y0064757D01*
X0125025Y0064299D01*
X0125025Y0062412D01*
X0128475Y0062412D01*
X0128475Y0058962D01*
X0130362Y0058962D01*
X0130820Y0059085D01*
X0131230Y0059322D01*
X0131885Y0060375D02*
X0141961Y0060375D01*
X0143539Y0058776D02*
X0065925Y0058776D01*
X0065925Y0057178D02*
X0144507Y0057178D01*
X0142028Y0055579D02*
X0139322Y0055579D01*
X0139322Y0053981D02*
X0142028Y0053981D01*
X0148357Y0057178D02*
X0154475Y0057178D01*
X0154475Y0058776D02*
X0148379Y0058776D01*
X0148307Y0060375D02*
X0154475Y0060375D01*
X0154700Y0061973D02*
X0148307Y0061973D01*
X0148307Y0063572D02*
X0155178Y0063572D01*
X0155656Y0065170D02*
X0148307Y0065170D01*
X0148307Y0066769D02*
X0156461Y0066769D01*
X0155861Y0065855D02*
X0155861Y0065855D01*
X0157510Y0068367D02*
X0148307Y0068367D01*
X0148307Y0069966D02*
X0158594Y0069966D01*
X0160494Y0071564D02*
X0148307Y0071564D01*
X0148307Y0073163D02*
X0162558Y0073163D01*
X0162875Y0074761D02*
X0148307Y0074761D01*
X0148307Y0076360D02*
X0162875Y0076360D01*
X0162875Y0077958D02*
X0148307Y0077958D01*
X0148307Y0079557D02*
X0162875Y0079557D01*
X0162875Y0081155D02*
X0148307Y0081155D01*
X0148307Y0082754D02*
X0162875Y0082754D01*
X0162875Y0084352D02*
X0148221Y0084352D01*
X0146623Y0085951D02*
X0162875Y0085951D01*
X0162875Y0087549D02*
X0145024Y0087549D01*
X0143426Y0089148D02*
X0162875Y0089148D01*
X0162875Y0090746D02*
X0141827Y0090746D01*
X0138648Y0092345D02*
X0162875Y0092345D01*
X0162875Y0093943D02*
X0140246Y0093943D01*
X0141845Y0095542D02*
X0162875Y0095542D01*
X0162875Y0097140D02*
X0143443Y0097140D01*
X0145042Y0098739D02*
X0162875Y0098739D01*
X0162875Y0100337D02*
X0146640Y0100337D01*
X0148239Y0101936D02*
X0162875Y0101936D01*
X0162875Y0103534D02*
X0149837Y0103534D01*
X0151436Y0105133D02*
X0162875Y0105133D01*
X0162875Y0106731D02*
X0153034Y0106731D01*
X0154633Y0108330D02*
X0162875Y0108330D01*
X0162875Y0109929D02*
X0156797Y0109929D01*
X0156744Y0111527D02*
X0156744Y0111527D01*
X0158396Y0111527D02*
X0162875Y0111527D01*
X0162875Y0113126D02*
X0158735Y0113126D01*
X0157485Y0114724D02*
X0160859Y0114724D01*
X0162221Y0113579D02*
X0162221Y0113579D01*
X0158959Y0116323D02*
X0155886Y0116323D01*
X0155496Y0116323D02*
X0155495Y0116323D01*
X0154288Y0117921D02*
X0157712Y0117921D01*
X0156662Y0119520D02*
X0152456Y0119520D01*
X0153641Y0121118D02*
X0155748Y0121118D01*
X0155270Y0122717D02*
X0155239Y0122717D01*
X0151949Y0116323D02*
X0151949Y0116323D01*
X0153547Y0114724D02*
X0153547Y0114724D01*
X0153897Y0114724D02*
X0153897Y0114724D01*
X0155146Y0113126D02*
X0155146Y0113126D01*
X0148651Y0116608D02*
X0147102Y0115060D01*
X0145154Y0113111D01*
X0143205Y0111162D01*
X0141256Y0109213D01*
X0139307Y0107265D01*
X0137359Y0105316D01*
X0135410Y0103367D01*
X0133461Y0101418D01*
X0131513Y0099470D01*
X0131513Y0099470D01*
X0129564Y0097521D01*
X0128278Y0096236D01*
X0128221Y0096236D01*
X0127770Y0096115D01*
X0127770Y0096407D01*
X0125822Y0098356D01*
X0123610Y0100568D01*
X0123610Y0100568D01*
X0121924Y0102254D01*
X0119976Y0104202D01*
X0118027Y0106151D01*
X0116078Y0108100D01*
X0114129Y0110049D01*
X0112181Y0111997D01*
X0110232Y0113946D01*
X0108020Y0116158D01*
X0106860Y0116158D01*
X0104089Y0113387D01*
X0091187Y0113387D01*
X0088375Y0116199D01*
X0088375Y0116505D01*
X0088475Y0116412D01*
X0090646Y0118707D01*
X0090884Y0118468D01*
X0091295Y0118231D01*
X0091753Y0118108D01*
X0092226Y0118108D01*
X0092684Y0118231D01*
X0093095Y0118468D01*
X0095837Y0121210D01*
X0094386Y0122661D01*
X0094387Y0122661D01*
X0095837Y0121211D01*
X0098580Y0123953D01*
X0098817Y0124364D01*
X0098940Y0124821D01*
X0098940Y0125295D01*
X0098817Y0125753D01*
X0098580Y0126164D01*
X0098128Y0126616D01*
X0117986Y0147609D01*
X0119248Y0146347D01*
X0120934Y0144662D01*
X0120934Y0144662D01*
X0123146Y0142450D01*
X0125095Y0140501D01*
X0127043Y0138552D01*
X0127043Y0138552D01*
X0128992Y0136603D01*
X0130941Y0134655D01*
X0132889Y0132706D01*
X0134838Y0130757D01*
X0136787Y0128809D01*
X0138736Y0126860D01*
X0140684Y0124911D01*
X0142633Y0122962D01*
X0144318Y0121277D01*
X0146530Y0119065D01*
X0148479Y0117116D01*
X0148772Y0117116D01*
X0148651Y0116665D01*
X0148651Y0116608D01*
X0148365Y0116323D02*
X0088375Y0116323D01*
X0089850Y0114724D02*
X0105426Y0114724D01*
X0109454Y0114724D02*
X0146767Y0114724D01*
X0145168Y0113126D02*
X0111052Y0113126D01*
X0112651Y0111527D02*
X0143570Y0111527D01*
X0141971Y0109929D02*
X0114249Y0109929D01*
X0115848Y0108330D02*
X0140373Y0108330D01*
X0138774Y0106731D02*
X0117446Y0106731D01*
X0119045Y0105133D02*
X0137176Y0105133D01*
X0135577Y0103534D02*
X0120643Y0103534D01*
X0122242Y0101936D02*
X0133979Y0101936D01*
X0132380Y0100337D02*
X0123841Y0100337D01*
X0125439Y0098739D02*
X0130782Y0098739D01*
X0129564Y0097521D02*
X0129564Y0097521D01*
X0129183Y0097140D02*
X0127038Y0097140D01*
X0125280Y0092757D02*
X0122286Y0089763D01*
X0125672Y0086377D01*
X0125863Y0086568D01*
X0129779Y0086568D01*
X0130599Y0085748D01*
X0130599Y0082038D01*
X0134872Y0077765D01*
X0136106Y0077765D01*
X0136106Y0078811D01*
X0136431Y0079135D01*
X0136401Y0079153D01*
X0136066Y0079488D01*
X0135829Y0079898D01*
X0135706Y0080356D01*
X0135706Y0082574D01*
X0139291Y0082574D01*
X0139291Y0082943D01*
X0139291Y0086724D01*
X0137269Y0086724D01*
X0136812Y0086601D01*
X0136401Y0086364D01*
X0136066Y0086029D01*
X0135829Y0085618D01*
X0135706Y0085161D01*
X0135706Y0082943D01*
X0139291Y0082943D01*
X0139659Y0082943D01*
X0139659Y0086724D01*
X0140476Y0086724D01*
X0139688Y0087512D01*
X0135201Y0087512D01*
X0134791Y0087922D01*
X0134185Y0087317D01*
X0130338Y0091164D01*
X0130338Y0091165D01*
X0134185Y0087317D01*
X0133322Y0086453D01*
X0132911Y0086216D01*
X0132454Y0086094D01*
X0131980Y0086094D01*
X0131522Y0086216D01*
X0131111Y0086453D01*
X0128369Y0089196D01*
X0130337Y0091164D01*
X0130337Y0091165D01*
X0128369Y0089196D01*
X0125626Y0091938D01*
X0125389Y0092349D01*
X0125280Y0092757D01*
X0125391Y0092345D02*
X0124868Y0092345D01*
X0123269Y0090746D02*
X0126818Y0090746D01*
X0128417Y0089148D02*
X0122901Y0089148D01*
X0124500Y0087549D02*
X0130015Y0087549D01*
X0130396Y0085951D02*
X0136021Y0085951D01*
X0135706Y0084352D02*
X0130599Y0084352D01*
X0130599Y0082754D02*
X0139291Y0082754D01*
X0139659Y0082754D02*
X0144446Y0082754D01*
X0144507Y0082693D02*
X0144507Y0063204D01*
X0138685Y0069101D01*
X0138685Y0069111D01*
X0138134Y0069660D01*
X0137587Y0070214D01*
X0137577Y0070214D01*
X0137569Y0070221D01*
X0136792Y0070219D01*
X0136013Y0070224D01*
X0136006Y0070217D01*
X0126817Y0070191D01*
X0123980Y0070286D01*
X0123954Y0070312D01*
X0123199Y0070312D01*
X0122444Y0070337D01*
X0122417Y0070312D01*
X0107262Y0070312D01*
X0103360Y0074214D01*
X0103360Y0106558D01*
X0105051Y0104867D01*
X0106999Y0102918D01*
X0108948Y0100970D01*
X0110897Y0099021D01*
X0112845Y0097072D01*
X0112887Y0097031D01*
X0112887Y0088596D01*
X0113882Y0087600D01*
X0113882Y0087600D01*
X0118350Y0083132D01*
X0118350Y0079076D01*
X0119171Y0078256D01*
X0122573Y0078256D01*
X0122649Y0078180D01*
X0122313Y0078180D01*
X0122313Y0074596D01*
X0121944Y0074596D01*
X0121944Y0074228D01*
X0118163Y0074228D01*
X0118163Y0072206D01*
X0118286Y0071749D01*
X0118523Y0071338D01*
X0118858Y0071003D01*
X0119268Y0070766D01*
X0119726Y0070643D01*
X0121944Y0070643D01*
X0121944Y0074228D01*
X0122313Y0074228D01*
X0122313Y0070643D01*
X0124531Y0070643D01*
X0124989Y0070766D01*
X0125399Y0071003D01*
X0125734Y0071338D01*
X0125751Y0071368D01*
X0126076Y0071043D01*
X0131567Y0071043D01*
X0132387Y0071863D01*
X0132387Y0075442D01*
X0132468Y0075361D01*
X0133464Y0074365D01*
X0136106Y0074365D01*
X0136106Y0073320D01*
X0136926Y0072500D01*
X0142023Y0072500D01*
X0142843Y0073320D01*
X0142843Y0078811D01*
X0142519Y0079135D01*
X0142549Y0079153D01*
X0142884Y0079488D01*
X0143121Y0079898D01*
X0143243Y0080356D01*
X0143243Y0082574D01*
X0139659Y0082574D01*
X0139659Y0082943D01*
X0143243Y0082943D01*
X0143243Y0083956D01*
X0144507Y0082693D01*
X0144507Y0081155D02*
X0143243Y0081155D01*
X0142924Y0079557D02*
X0144507Y0079557D01*
X0144507Y0077958D02*
X0142843Y0077958D01*
X0142843Y0076360D02*
X0144507Y0076360D01*
X0144507Y0074761D02*
X0142843Y0074761D01*
X0142686Y0073163D02*
X0144507Y0073163D01*
X0144507Y0071564D02*
X0132087Y0071564D01*
X0132387Y0073163D02*
X0136264Y0073163D01*
X0137832Y0069966D02*
X0144507Y0069966D01*
X0144507Y0068367D02*
X0139410Y0068367D01*
X0140988Y0066769D02*
X0144507Y0066769D01*
X0144507Y0065170D02*
X0142566Y0065170D01*
X0144144Y0063572D02*
X0144507Y0063572D01*
X0140383Y0061973D02*
X0131925Y0061973D01*
X0131925Y0063572D02*
X0138805Y0063572D01*
X0137226Y0065170D02*
X0131562Y0065170D01*
X0128475Y0065170D02*
X0128475Y0065170D01*
X0128475Y0063572D02*
X0128475Y0063572D01*
X0128475Y0062412D02*
X0128475Y0062412D01*
X0128475Y0062412D01*
X0128475Y0058962D01*
X0126588Y0058962D01*
X0126130Y0059085D01*
X0125720Y0059322D01*
X0125384Y0059657D01*
X0125148Y0060067D01*
X0125025Y0060525D01*
X0125025Y0062412D01*
X0128475Y0062412D01*
X0128475Y0061973D02*
X0128475Y0061973D01*
X0128475Y0060375D02*
X0128475Y0060375D01*
X0125065Y0060375D02*
X0065358Y0060375D01*
X0065925Y0055579D02*
X0129817Y0055579D01*
X0125025Y0061973D02*
X0032533Y0061973D01*
X0032326Y0063572D02*
X0125025Y0063572D01*
X0125388Y0065170D02*
X0031687Y0065170D01*
X0031035Y0066769D02*
X0105431Y0066769D01*
X0103833Y0068367D02*
X0030298Y0068367D01*
X0029094Y0069966D02*
X0102234Y0069966D01*
X0100635Y0071564D02*
X0027890Y0071564D01*
X0026087Y0073163D02*
X0099560Y0073163D01*
X0099560Y0074761D02*
X0024058Y0074761D01*
X0023075Y0076360D02*
X0099560Y0076360D01*
X0099560Y0077958D02*
X0023075Y0077958D01*
X0023075Y0079557D02*
X0099560Y0079557D01*
X0099560Y0081155D02*
X0023075Y0081155D01*
X0023075Y0082754D02*
X0099560Y0082754D01*
X0099560Y0084352D02*
X0023075Y0084352D01*
X0023075Y0085951D02*
X0099560Y0085951D01*
X0099560Y0087549D02*
X0023075Y0087549D01*
X0023075Y0089148D02*
X0099560Y0089148D01*
X0099560Y0090746D02*
X0023075Y0090746D01*
X0023075Y0092345D02*
X0099560Y0092345D01*
X0099560Y0093943D02*
X0023075Y0093943D01*
X0023075Y0095542D02*
X0099560Y0095542D01*
X0099560Y0097140D02*
X0023075Y0097140D01*
X0023075Y0098739D02*
X0099560Y0098739D01*
X0099560Y0100337D02*
X0023075Y0100337D01*
X0023075Y0101936D02*
X0099560Y0101936D01*
X0099560Y0103534D02*
X0033955Y0103534D01*
X0035554Y0105133D02*
X0099560Y0105133D01*
X0099560Y0106731D02*
X0037152Y0106731D01*
X0038751Y0108330D02*
X0099706Y0108330D01*
X0103360Y0105133D02*
X0104785Y0105133D01*
X0103360Y0103534D02*
X0106383Y0103534D01*
X0107982Y0101936D02*
X0103360Y0101936D01*
X0103360Y0100337D02*
X0109580Y0100337D01*
X0111179Y0098739D02*
X0103360Y0098739D01*
X0103360Y0097140D02*
X0112777Y0097140D01*
X0112887Y0095542D02*
X0103360Y0095542D01*
X0103360Y0093943D02*
X0112887Y0093943D01*
X0112887Y0092345D02*
X0103360Y0092345D01*
X0103360Y0090746D02*
X0112887Y0090746D01*
X0112887Y0089148D02*
X0103360Y0089148D01*
X0103360Y0087549D02*
X0113933Y0087549D01*
X0115532Y0085951D02*
X0103360Y0085951D01*
X0103360Y0084352D02*
X0117130Y0084352D01*
X0118350Y0082754D02*
X0103360Y0082754D01*
X0103360Y0081155D02*
X0118350Y0081155D01*
X0118350Y0079557D02*
X0103360Y0079557D01*
X0103360Y0077958D02*
X0119096Y0077958D01*
X0119268Y0078058D02*
X0118858Y0077821D01*
X0118523Y0077486D01*
X0118286Y0077075D01*
X0118163Y0076617D01*
X0118163Y0074596D01*
X0121944Y0074596D01*
X0121944Y0078180D01*
X0119726Y0078180D01*
X0119268Y0078058D01*
X0118163Y0076360D02*
X0103360Y0076360D01*
X0103360Y0074761D02*
X0118163Y0074761D01*
X0118163Y0073163D02*
X0104411Y0073163D01*
X0106009Y0071564D02*
X0118392Y0071564D01*
X0121944Y0071564D02*
X0122313Y0071564D01*
X0122313Y0073163D02*
X0121944Y0073163D01*
X0121944Y0074761D02*
X0122313Y0074761D01*
X0122313Y0076360D02*
X0121944Y0076360D01*
X0121944Y0077958D02*
X0122313Y0077958D01*
X0131482Y0081155D02*
X0135706Y0081155D01*
X0136026Y0079557D02*
X0133081Y0079557D01*
X0134679Y0077958D02*
X0136106Y0077958D01*
X0133068Y0074761D02*
X0132387Y0074761D01*
X0139291Y0084352D02*
X0139659Y0084352D01*
X0139659Y0085951D02*
X0139291Y0085951D01*
X0135163Y0087549D02*
X0134418Y0087549D01*
X0133953Y0087549D02*
X0133953Y0087549D01*
X0132354Y0089148D02*
X0132354Y0089148D01*
X0130756Y0090746D02*
X0130756Y0090746D01*
X0129919Y0090746D02*
X0129919Y0090746D01*
X0138643Y0092340D02*
X0138643Y0092340D01*
X0147674Y0117921D02*
X0089902Y0117921D01*
X0094146Y0119520D02*
X0146076Y0119520D01*
X0144477Y0121118D02*
X0095745Y0121118D01*
X0097343Y0122717D02*
X0142879Y0122717D01*
X0144318Y0121277D02*
X0144318Y0121277D01*
X0141280Y0124315D02*
X0098789Y0124315D01*
X0098724Y0125914D02*
X0120236Y0125914D01*
X0120148Y0126067D02*
X0120384Y0125657D01*
X0120720Y0125322D01*
X0121130Y0125085D01*
X0121588Y0124962D01*
X0123475Y0124962D01*
X0125362Y0124962D01*
X0125820Y0125085D01*
X0126230Y0125322D01*
X0126565Y0125657D01*
X0126802Y0126067D01*
X0126925Y0126525D01*
X0126925Y0128412D01*
X0126925Y0130299D01*
X0126802Y0130757D01*
X0126565Y0131167D01*
X0126230Y0131502D01*
X0125820Y0131739D01*
X0125362Y0131862D01*
X0123475Y0131862D01*
X0123475Y0128412D01*
X0126925Y0128412D01*
X0123475Y0128412D01*
X0123475Y0128412D01*
X0123475Y0128412D01*
X0123475Y0131862D01*
X0121588Y0131862D01*
X0121130Y0131739D01*
X0120720Y0131502D01*
X0120384Y0131167D01*
X0120148Y0130757D01*
X0120025Y0130299D01*
X0120025Y0128412D01*
X0123475Y0128412D01*
X0123475Y0128412D01*
X0123475Y0124962D01*
X0123475Y0128412D01*
X0123475Y0128412D01*
X0120025Y0128412D01*
X0120025Y0126525D01*
X0120148Y0126067D01*
X0120025Y0127512D02*
X0098975Y0127512D01*
X0100487Y0129111D02*
X0120025Y0129111D01*
X0120135Y0130709D02*
X0101999Y0130709D01*
X0103511Y0132308D02*
X0133288Y0132308D01*
X0131689Y0133906D02*
X0105024Y0133906D01*
X0106536Y0135505D02*
X0130091Y0135505D01*
X0128492Y0137103D02*
X0108048Y0137103D01*
X0109560Y0138702D02*
X0126894Y0138702D01*
X0125295Y0140300D02*
X0111072Y0140300D01*
X0112584Y0141899D02*
X0123697Y0141899D01*
X0122098Y0143497D02*
X0114096Y0143497D01*
X0115608Y0145096D02*
X0120500Y0145096D01*
X0118901Y0146694D02*
X0117120Y0146694D01*
X0123475Y0130709D02*
X0123475Y0130709D01*
X0123475Y0129111D02*
X0123475Y0129111D01*
X0123475Y0127512D02*
X0123475Y0127512D01*
X0123475Y0125914D02*
X0123475Y0125914D01*
X0126714Y0125914D02*
X0139682Y0125914D01*
X0138083Y0127512D02*
X0126925Y0127512D01*
X0126925Y0129111D02*
X0136485Y0129111D01*
X0134886Y0130709D02*
X0126815Y0130709D01*
X0149475Y0165412D02*
X0149862Y0165407D01*
X0150248Y0165393D01*
X0150634Y0165370D01*
X0151019Y0165337D01*
X0151404Y0165295D01*
X0151787Y0165244D01*
X0152169Y0165184D01*
X0152549Y0165114D01*
X0152928Y0165035D01*
X0153304Y0164947D01*
X0153678Y0164850D01*
X0154050Y0164744D01*
X0154419Y0164629D01*
X0154786Y0164505D01*
X0155149Y0164372D01*
X0155509Y0164231D01*
X0155865Y0164081D01*
X0156217Y0163922D01*
X0156566Y0163755D01*
X0156911Y0163579D01*
X0157251Y0163395D01*
X0157586Y0163204D01*
X0157917Y0163003D01*
X0158243Y0162796D01*
X0158564Y0162580D01*
X0158880Y0162356D01*
X0159190Y0162125D01*
X0159494Y0161887D01*
X0159792Y0161641D01*
X0160085Y0161388D01*
X0160371Y0161128D01*
X0160651Y0160862D01*
X0160925Y0160588D01*
X0161191Y0160308D01*
X0161451Y0160022D01*
X0161704Y0159729D01*
X0161950Y0159431D01*
X0162188Y0159127D01*
X0162419Y0158817D01*
X0162643Y0158501D01*
X0162859Y0158180D01*
X0163066Y0157854D01*
X0163267Y0157523D01*
X0163458Y0157188D01*
X0163642Y0156848D01*
X0163818Y0156503D01*
X0163985Y0156154D01*
X0164144Y0155802D01*
X0164294Y0155446D01*
X0164435Y0155086D01*
X0164568Y0154723D01*
X0164692Y0154356D01*
X0164807Y0153987D01*
X0164913Y0153615D01*
X0165010Y0153241D01*
X0165098Y0152865D01*
X0165177Y0152486D01*
X0165247Y0152106D01*
X0165307Y0151724D01*
X0165358Y0151341D01*
X0165400Y0150956D01*
X0165433Y0150571D01*
X0165456Y0150185D01*
X0165470Y0149799D01*
X0165475Y0149412D01*
X0165475Y0140593D01*
X0165474Y0140593D02*
X0165163Y0140454D01*
X0164855Y0140307D01*
X0164551Y0140152D01*
X0164251Y0139990D01*
X0163955Y0139821D01*
X0163663Y0139645D01*
X0163375Y0139461D01*
X0163092Y0139271D01*
X0162814Y0139074D01*
X0162541Y0138870D01*
X0162272Y0138659D01*
X0162009Y0138442D01*
X0161752Y0138218D01*
X0161500Y0137988D01*
X0161253Y0137753D01*
X0161013Y0137511D01*
X0160778Y0137263D01*
X0160550Y0137010D01*
X0160328Y0136751D01*
X0160112Y0136487D01*
X0159903Y0136217D01*
X0159700Y0135943D01*
X0159504Y0135664D01*
X0159315Y0135380D01*
X0159133Y0135091D01*
X0158958Y0134798D01*
X0158791Y0134501D01*
X0158631Y0134200D01*
X0158478Y0133895D01*
X0158332Y0133587D01*
X0158194Y0133275D01*
X0158064Y0132959D01*
X0157942Y0132641D01*
X0157827Y0132320D01*
X0157721Y0131996D01*
X0157622Y0131669D01*
X0157531Y0131340D01*
X0157449Y0131009D01*
X0157374Y0130677D01*
X0157308Y0130342D01*
X0157250Y0130006D01*
X0157200Y0129668D01*
X0157158Y0129330D01*
X0157125Y0128990D01*
X0157100Y0128650D01*
X0157083Y0128310D01*
X0157075Y0127969D01*
X0157075Y0127627D01*
X0157083Y0127286D01*
X0157100Y0126946D01*
X0157125Y0126606D01*
X0157158Y0126266D01*
X0157200Y0125928D01*
X0157250Y0125590D01*
X0157308Y0125254D01*
X0157374Y0124919D01*
X0157449Y0124587D01*
X0157531Y0124256D01*
X0157622Y0123927D01*
X0157721Y0123600D01*
X0157827Y0123276D01*
X0157942Y0122955D01*
X0158064Y0122637D01*
X0158194Y0122321D01*
X0158332Y0122009D01*
X0158478Y0121701D01*
X0158631Y0121396D01*
X0158791Y0121095D01*
X0158958Y0120798D01*
X0159133Y0120505D01*
X0159315Y0120216D01*
X0159504Y0119932D01*
X0159700Y0119653D01*
X0159903Y0119379D01*
X0160112Y0119109D01*
X0160328Y0118845D01*
X0160550Y0118586D01*
X0160778Y0118333D01*
X0161013Y0118085D01*
X0161253Y0117843D01*
X0161500Y0117608D01*
X0161752Y0117378D01*
X0162009Y0117154D01*
X0162272Y0116937D01*
X0162541Y0116726D01*
X0162814Y0116522D01*
X0163092Y0116325D01*
X0163375Y0116135D01*
X0163663Y0115951D01*
X0163955Y0115775D01*
X0164251Y0115606D01*
X0164551Y0115444D01*
X0164855Y0115289D01*
X0165163Y0115142D01*
X0165474Y0115003D01*
X0165475Y0115002D02*
X0165475Y0071593D01*
X0165474Y0071593D02*
X0165163Y0071454D01*
X0164855Y0071307D01*
X0164551Y0071152D01*
X0164251Y0070990D01*
X0163955Y0070821D01*
X0163663Y0070645D01*
X0163375Y0070461D01*
X0163092Y0070271D01*
X0162814Y0070074D01*
X0162541Y0069870D01*
X0162272Y0069659D01*
X0162009Y0069442D01*
X0161752Y0069218D01*
X0161500Y0068988D01*
X0161253Y0068753D01*
X0161013Y0068511D01*
X0160778Y0068263D01*
X0160550Y0068010D01*
X0160328Y0067751D01*
X0160112Y0067487D01*
X0159903Y0067217D01*
X0159700Y0066943D01*
X0159504Y0066664D01*
X0159315Y0066380D01*
X0159133Y0066091D01*
X0158958Y0065798D01*
X0158791Y0065501D01*
X0158631Y0065200D01*
X0158478Y0064895D01*
X0158332Y0064587D01*
X0158194Y0064275D01*
X0158064Y0063959D01*
X0157942Y0063641D01*
X0157827Y0063320D01*
X0157721Y0062996D01*
X0157622Y0062669D01*
X0157531Y0062340D01*
X0157449Y0062009D01*
X0157374Y0061677D01*
X0157308Y0061342D01*
X0157250Y0061006D01*
X0157200Y0060668D01*
X0157158Y0060330D01*
X0157125Y0059990D01*
X0157100Y0059650D01*
X0157083Y0059310D01*
X0157075Y0058969D01*
X0157075Y0058627D01*
X0157083Y0058286D01*
X0157100Y0057946D01*
X0157125Y0057606D01*
X0157158Y0057266D01*
X0157200Y0056928D01*
X0157250Y0056590D01*
X0157308Y0056254D01*
X0157374Y0055919D01*
X0157449Y0055587D01*
X0157531Y0055256D01*
X0157622Y0054927D01*
X0157721Y0054600D01*
X0157827Y0054276D01*
X0157942Y0053955D01*
X0158064Y0053637D01*
X0158194Y0053321D01*
X0158332Y0053009D01*
X0158478Y0052701D01*
X0158631Y0052396D01*
X0158791Y0052095D01*
X0158958Y0051798D01*
X0159133Y0051505D01*
X0159315Y0051216D01*
X0159504Y0050932D01*
X0159700Y0050653D01*
X0159903Y0050379D01*
X0160112Y0050109D01*
X0160328Y0049845D01*
X0160550Y0049586D01*
X0160778Y0049333D01*
X0161013Y0049085D01*
X0161253Y0048843D01*
X0161500Y0048608D01*
X0161752Y0048378D01*
X0162009Y0048154D01*
X0162272Y0047937D01*
X0162541Y0047726D01*
X0162814Y0047522D01*
X0163092Y0047325D01*
X0163375Y0047135D01*
X0163663Y0046951D01*
X0163955Y0046775D01*
X0164251Y0046606D01*
X0164551Y0046444D01*
X0164855Y0046289D01*
X0165163Y0046142D01*
X0165474Y0046003D01*
X0165475Y0046002D02*
X0165475Y0040412D01*
X0162875Y0041193D02*
X0147943Y0041193D01*
X0148375Y0042791D02*
X0162875Y0042791D01*
X0162658Y0044390D02*
X0148375Y0044390D01*
X0148375Y0045988D02*
X0160546Y0045988D01*
X0162221Y0044579D02*
X0162221Y0044579D01*
X0158645Y0047587D02*
X0150733Y0047587D01*
X0150733Y0049185D02*
X0157538Y0049185D01*
X0156489Y0050784D02*
X0150733Y0050784D01*
X0150733Y0052382D02*
X0155669Y0052382D01*
X0155191Y0053981D02*
X0150733Y0053981D01*
X0150733Y0055579D02*
X0154713Y0055579D01*
X0144167Y0042791D02*
X0120033Y0042791D01*
X0121632Y0041193D02*
X0142569Y0041193D01*
X0140970Y0039594D02*
X0123230Y0039594D01*
X0124829Y0037995D02*
X0139371Y0037995D01*
X0137773Y0036397D02*
X0126427Y0036397D01*
X0122492Y0030003D02*
X0149681Y0030003D01*
X0148947Y0031601D02*
X0138351Y0031601D01*
X0139950Y0033200D02*
X0148675Y0033200D01*
X0148771Y0034798D02*
X0141548Y0034798D01*
X0143147Y0036397D02*
X0149433Y0036397D01*
X0150856Y0037995D02*
X0144745Y0037995D01*
X0153753Y0025207D02*
X0117697Y0025207D01*
X0040723Y0020411D02*
X0040275Y0020368D01*
X0039825Y0020335D01*
X0039375Y0020314D01*
X0038925Y0020303D01*
X0038474Y0020304D01*
X0038024Y0020315D01*
X0037574Y0020338D01*
X0037124Y0020372D01*
X0036676Y0020416D01*
X0036229Y0020472D01*
X0035783Y0020539D01*
X0035340Y0020616D01*
X0034898Y0020705D01*
X0034458Y0020804D01*
X0034021Y0020914D01*
X0033587Y0021035D01*
X0033156Y0021166D01*
X0032729Y0021308D01*
X0032305Y0021461D01*
X0031884Y0021623D01*
X0031468Y0021796D01*
X0031057Y0021979D01*
X0030650Y0022172D01*
X0030248Y0022376D01*
X0029850Y0022588D01*
X0029459Y0022811D01*
X0029073Y0023043D01*
X0028692Y0023285D01*
X0028318Y0023536D01*
X0027950Y0023795D01*
X0027588Y0024064D01*
X0027233Y0024342D01*
X0026886Y0024628D01*
X0026545Y0024923D01*
X0026211Y0025226D01*
X0025885Y0025537D01*
X0025567Y0025856D01*
X0025257Y0026183D01*
X0024955Y0026517D01*
X0024661Y0026859D01*
X0024376Y0027207D01*
X0024099Y0027563D01*
X0023831Y0027925D01*
X0023572Y0028294D01*
X0023322Y0028669D01*
X0023081Y0029050D01*
X0022850Y0029436D01*
X0022629Y0029829D01*
X0022417Y0030226D01*
X0022215Y0030629D01*
X0022023Y0031037D01*
X0021841Y0031449D01*
X0021669Y0031865D01*
X0021507Y0032286D01*
X0021356Y0032710D01*
X0021215Y0033138D01*
X0021085Y0033570D01*
X0020965Y0034004D01*
X0020856Y0034441D01*
X0020758Y0034881D01*
X0020671Y0035323D01*
X0020594Y0035767D01*
X0020529Y0036213D01*
X0020474Y0036660D01*
X0020475Y0044002D02*
X0020835Y0044164D01*
X0021191Y0044334D01*
X0021543Y0044512D01*
X0021890Y0044699D01*
X0022233Y0044895D01*
X0022570Y0045099D01*
X0022903Y0045311D01*
X0023230Y0045531D01*
X0023552Y0045760D01*
X0023868Y0045996D01*
X0024178Y0046239D01*
X0024482Y0046490D01*
X0024780Y0046749D01*
X0025071Y0047014D01*
X0025356Y0047287D01*
X0025635Y0047567D01*
X0025906Y0047853D01*
X0026170Y0048146D01*
X0026427Y0048445D01*
X0026676Y0048751D01*
X0026918Y0049062D01*
X0027153Y0049380D01*
X0027379Y0049703D01*
X0027597Y0050031D01*
X0027808Y0050365D01*
X0028010Y0050703D01*
X0028204Y0051047D01*
X0028389Y0051395D01*
X0028566Y0051748D01*
X0028734Y0052104D01*
X0028893Y0052465D01*
X0029044Y0052830D01*
X0029185Y0053198D01*
X0029318Y0053569D01*
X0029441Y0053944D01*
X0029555Y0054322D01*
X0029660Y0054702D01*
X0029756Y0055085D01*
X0029842Y0055469D01*
X0029918Y0055856D01*
X0029986Y0056245D01*
X0030043Y0056635D01*
X0030091Y0057027D01*
X0030130Y0057419D01*
X0030159Y0057813D01*
X0030178Y0058206D01*
X0030188Y0058601D01*
X0030188Y0058995D01*
X0030178Y0059390D01*
X0030159Y0059783D01*
X0030130Y0060177D01*
X0030091Y0060569D01*
X0030043Y0060961D01*
X0029986Y0061351D01*
X0029918Y0061740D01*
X0029842Y0062127D01*
X0029756Y0062511D01*
X0029660Y0062894D01*
X0029555Y0063274D01*
X0029441Y0063652D01*
X0029318Y0064027D01*
X0029185Y0064398D01*
X0029044Y0064766D01*
X0028893Y0065131D01*
X0028734Y0065492D01*
X0028566Y0065848D01*
X0028389Y0066201D01*
X0028204Y0066549D01*
X0028010Y0066893D01*
X0027808Y0067231D01*
X0027597Y0067565D01*
X0027379Y0067893D01*
X0027153Y0068216D01*
X0026918Y0068534D01*
X0026676Y0068845D01*
X0026427Y0069151D01*
X0026170Y0069450D01*
X0025906Y0069743D01*
X0025635Y0070029D01*
X0025356Y0070309D01*
X0025071Y0070582D01*
X0024780Y0070847D01*
X0024482Y0071106D01*
X0024178Y0071357D01*
X0023868Y0071600D01*
X0023552Y0071836D01*
X0023230Y0072065D01*
X0022903Y0072285D01*
X0022570Y0072497D01*
X0022233Y0072701D01*
X0021890Y0072897D01*
X0021543Y0073084D01*
X0021191Y0073262D01*
X0020835Y0073432D01*
X0020475Y0073594D01*
X0020475Y0073593D02*
X0020475Y0145412D01*
X0023075Y0145096D02*
X0065565Y0145096D01*
X0066850Y0143497D02*
X0067702Y0143497D01*
X0063786Y0146694D02*
X0062430Y0146694D01*
X0060520Y0146694D02*
X0023147Y0146694D01*
X0023397Y0148293D02*
X0040568Y0148293D01*
X0040163Y0149891D02*
X0037157Y0149891D01*
X0038542Y0151490D02*
X0043944Y0151490D01*
X0043944Y0153088D02*
X0044313Y0153088D01*
X0044313Y0154687D02*
X0043944Y0154687D01*
X0040724Y0154687D02*
X0039275Y0154687D01*
X0039204Y0153088D02*
X0040163Y0153088D01*
X0038977Y0156285D02*
X0051061Y0156285D01*
X0053660Y0154687D02*
X0055520Y0154687D01*
X0057546Y0153088D02*
X0058777Y0153088D01*
X0062202Y0154687D02*
X0064078Y0154687D01*
X0058240Y0148293D02*
X0053816Y0148293D01*
X0053534Y0143497D02*
X0023075Y0143497D01*
X0023075Y0141899D02*
X0053163Y0141899D01*
X0053163Y0138702D02*
X0023075Y0138702D01*
X0023075Y0140300D02*
X0056944Y0140300D01*
X0056944Y0138702D02*
X0057313Y0138702D01*
X0057313Y0137103D02*
X0056944Y0137103D01*
X0053758Y0137103D02*
X0023075Y0137103D01*
X0023075Y0135505D02*
X0073743Y0135505D01*
X0073827Y0137103D02*
X0066626Y0137103D01*
X0061016Y0137103D02*
X0060499Y0137103D01*
X0057313Y0141899D02*
X0056944Y0141899D01*
X0056944Y0143497D02*
X0057313Y0143497D01*
X0060722Y0143497D02*
X0060793Y0143497D01*
X0047827Y0148293D02*
X0047689Y0148293D01*
X0044313Y0148293D02*
X0043944Y0148293D01*
X0043944Y0149891D02*
X0044313Y0149891D01*
X0047533Y0154687D02*
X0047983Y0154687D01*
X0048626Y0157884D02*
X0038205Y0157884D01*
X0036390Y0159482D02*
X0046892Y0159482D01*
X0045548Y0161081D02*
X0033161Y0161081D01*
X0030560Y0159482D02*
X0030387Y0159482D01*
X0028744Y0157884D02*
X0028382Y0157884D01*
X0027973Y0156285D02*
X0027031Y0156285D01*
X0027675Y0154687D02*
X0025756Y0154687D01*
X0024981Y0153088D02*
X0027745Y0153088D01*
X0028407Y0151490D02*
X0024211Y0151490D01*
X0023762Y0149891D02*
X0029793Y0149891D01*
X0020475Y0145412D02*
X0020481Y0145895D01*
X0020498Y0146378D01*
X0020528Y0146861D01*
X0020568Y0147342D01*
X0020621Y0147823D01*
X0020685Y0148302D01*
X0020760Y0148779D01*
X0020848Y0149255D01*
X0020946Y0149728D01*
X0021056Y0150198D01*
X0021177Y0150666D01*
X0021310Y0151131D01*
X0021454Y0151592D01*
X0021609Y0152050D01*
X0021775Y0152504D01*
X0021952Y0152954D01*
X0022139Y0153399D01*
X0022338Y0153840D01*
X0022546Y0154276D01*
X0022766Y0154706D01*
X0022996Y0155132D01*
X0023236Y0155551D01*
X0023486Y0155965D01*
X0023746Y0156372D01*
X0024015Y0156773D01*
X0024295Y0157168D01*
X0024583Y0157555D01*
X0024882Y0157936D01*
X0025189Y0158309D01*
X0025505Y0158674D01*
X0025830Y0159032D01*
X0026163Y0159382D01*
X0026505Y0159724D01*
X0026855Y0160057D01*
X0027213Y0160382D01*
X0027578Y0160698D01*
X0027951Y0161005D01*
X0028332Y0161304D01*
X0028719Y0161592D01*
X0029114Y0161872D01*
X0029515Y0162141D01*
X0029922Y0162401D01*
X0030336Y0162651D01*
X0030755Y0162891D01*
X0031181Y0163121D01*
X0031611Y0163341D01*
X0032047Y0163549D01*
X0032488Y0163748D01*
X0032933Y0163935D01*
X0033383Y0164112D01*
X0033837Y0164278D01*
X0034295Y0164433D01*
X0034756Y0164577D01*
X0035221Y0164710D01*
X0035689Y0164831D01*
X0036159Y0164941D01*
X0036632Y0165039D01*
X0037108Y0165127D01*
X0037585Y0165202D01*
X0038064Y0165266D01*
X0038545Y0165319D01*
X0039026Y0165359D01*
X0039509Y0165389D01*
X0039992Y0165406D01*
X0040475Y0165412D01*
X0046065Y0165412D01*
X0044416Y0162679D02*
X0038426Y0162679D01*
X0046066Y0165411D02*
X0046205Y0165100D01*
X0046352Y0164792D01*
X0046507Y0164488D01*
X0046669Y0164188D01*
X0046838Y0163892D01*
X0047014Y0163600D01*
X0047198Y0163312D01*
X0047388Y0163029D01*
X0047585Y0162751D01*
X0047789Y0162478D01*
X0048000Y0162209D01*
X0048217Y0161946D01*
X0048441Y0161689D01*
X0048671Y0161437D01*
X0048906Y0161190D01*
X0049148Y0160950D01*
X0049396Y0160715D01*
X0049649Y0160487D01*
X0049908Y0160265D01*
X0050172Y0160049D01*
X0050442Y0159840D01*
X0050716Y0159637D01*
X0050995Y0159441D01*
X0051279Y0159252D01*
X0051568Y0159070D01*
X0051861Y0158895D01*
X0052158Y0158728D01*
X0052459Y0158568D01*
X0052764Y0158415D01*
X0053072Y0158269D01*
X0053384Y0158131D01*
X0053700Y0158001D01*
X0054018Y0157879D01*
X0054339Y0157764D01*
X0054663Y0157658D01*
X0054990Y0157559D01*
X0055319Y0157468D01*
X0055650Y0157386D01*
X0055982Y0157311D01*
X0056317Y0157245D01*
X0056653Y0157187D01*
X0056991Y0157137D01*
X0057329Y0157095D01*
X0057669Y0157062D01*
X0058009Y0157037D01*
X0058349Y0157020D01*
X0058690Y0157012D01*
X0059032Y0157012D01*
X0059373Y0157020D01*
X0059713Y0157037D01*
X0060053Y0157062D01*
X0060393Y0157095D01*
X0060731Y0157137D01*
X0061069Y0157187D01*
X0061405Y0157245D01*
X0061740Y0157311D01*
X0062072Y0157386D01*
X0062403Y0157468D01*
X0062732Y0157559D01*
X0063059Y0157658D01*
X0063383Y0157764D01*
X0063704Y0157879D01*
X0064022Y0158001D01*
X0064338Y0158131D01*
X0064650Y0158269D01*
X0064958Y0158415D01*
X0065263Y0158568D01*
X0065564Y0158728D01*
X0065861Y0158895D01*
X0066154Y0159070D01*
X0066443Y0159252D01*
X0066727Y0159441D01*
X0067006Y0159637D01*
X0067280Y0159840D01*
X0067550Y0160049D01*
X0067814Y0160265D01*
X0068073Y0160487D01*
X0068326Y0160715D01*
X0068574Y0160950D01*
X0068816Y0161190D01*
X0069051Y0161437D01*
X0069281Y0161689D01*
X0069505Y0161946D01*
X0069722Y0162209D01*
X0069933Y0162478D01*
X0070137Y0162751D01*
X0070334Y0163029D01*
X0070524Y0163312D01*
X0070708Y0163600D01*
X0070884Y0163892D01*
X0071053Y0164188D01*
X0071215Y0164488D01*
X0071370Y0164792D01*
X0071517Y0165100D01*
X0071656Y0165411D01*
X0071656Y0165412D02*
X0115065Y0165412D01*
X0115066Y0165411D02*
X0115205Y0165100D01*
X0115352Y0164792D01*
X0115507Y0164488D01*
X0115669Y0164188D01*
X0115838Y0163892D01*
X0116014Y0163600D01*
X0116198Y0163312D01*
X0116388Y0163029D01*
X0116585Y0162751D01*
X0116789Y0162478D01*
X0117000Y0162209D01*
X0117217Y0161946D01*
X0117441Y0161689D01*
X0117671Y0161437D01*
X0117906Y0161190D01*
X0118148Y0160950D01*
X0118396Y0160715D01*
X0118649Y0160487D01*
X0118908Y0160265D01*
X0119172Y0160049D01*
X0119442Y0159840D01*
X0119716Y0159637D01*
X0119995Y0159441D01*
X0120279Y0159252D01*
X0120568Y0159070D01*
X0120861Y0158895D01*
X0121158Y0158728D01*
X0121459Y0158568D01*
X0121764Y0158415D01*
X0122072Y0158269D01*
X0122384Y0158131D01*
X0122700Y0158001D01*
X0123018Y0157879D01*
X0123339Y0157764D01*
X0123663Y0157658D01*
X0123990Y0157559D01*
X0124319Y0157468D01*
X0124650Y0157386D01*
X0124982Y0157311D01*
X0125317Y0157245D01*
X0125653Y0157187D01*
X0125991Y0157137D01*
X0126329Y0157095D01*
X0126669Y0157062D01*
X0127009Y0157037D01*
X0127349Y0157020D01*
X0127690Y0157012D01*
X0128032Y0157012D01*
X0128373Y0157020D01*
X0128713Y0157037D01*
X0129053Y0157062D01*
X0129393Y0157095D01*
X0129731Y0157137D01*
X0130069Y0157187D01*
X0130405Y0157245D01*
X0130740Y0157311D01*
X0131072Y0157386D01*
X0131403Y0157468D01*
X0131732Y0157559D01*
X0132059Y0157658D01*
X0132383Y0157764D01*
X0132704Y0157879D01*
X0133022Y0158001D01*
X0133338Y0158131D01*
X0133650Y0158269D01*
X0133958Y0158415D01*
X0134263Y0158568D01*
X0134564Y0158728D01*
X0134861Y0158895D01*
X0135154Y0159070D01*
X0135443Y0159252D01*
X0135727Y0159441D01*
X0136006Y0159637D01*
X0136280Y0159840D01*
X0136550Y0160049D01*
X0136814Y0160265D01*
X0137073Y0160487D01*
X0137326Y0160715D01*
X0137574Y0160950D01*
X0137816Y0161190D01*
X0138051Y0161437D01*
X0138281Y0161689D01*
X0138505Y0161946D01*
X0138722Y0162209D01*
X0138933Y0162478D01*
X0139137Y0162751D01*
X0139334Y0163029D01*
X0139524Y0163312D01*
X0139708Y0163600D01*
X0139884Y0163892D01*
X0140053Y0164188D01*
X0140215Y0164488D01*
X0140370Y0164792D01*
X0140517Y0165100D01*
X0140656Y0165411D01*
X0140656Y0165412D02*
X0149475Y0165412D01*
X0089271Y0109929D02*
X0040349Y0109929D01*
X0040027Y0109929D02*
X0037764Y0109929D01*
X0038428Y0111527D02*
X0036165Y0111527D01*
X0036830Y0113126D02*
X0034567Y0113126D01*
X0034538Y0114724D02*
X0035231Y0114724D01*
X0036137Y0116323D02*
X0033874Y0116323D01*
X0033632Y0116323D02*
X0031370Y0116323D01*
X0032034Y0117921D02*
X0029771Y0117921D01*
X0030435Y0119520D02*
X0028173Y0119520D01*
X0026464Y0119520D02*
X0023075Y0119520D01*
X0023075Y0121118D02*
X0028837Y0121118D01*
X0029661Y0122717D02*
X0023075Y0122717D01*
X0023075Y0124315D02*
X0031260Y0124315D01*
X0032858Y0125914D02*
X0023075Y0125914D01*
X0023075Y0127512D02*
X0076582Y0127512D01*
X0078294Y0125914D02*
X0060712Y0125914D01*
X0060802Y0125757D02*
X0060565Y0126167D01*
X0060230Y0126502D01*
X0059820Y0126739D01*
X0059362Y0126862D01*
X0057475Y0126862D01*
X0057475Y0123412D01*
X0060925Y0123412D01*
X0060925Y0125299D01*
X0060802Y0125757D01*
X0060925Y0124315D02*
X0080007Y0124315D01*
X0081720Y0122717D02*
X0060925Y0122717D01*
X0060925Y0123412D02*
X0060925Y0121525D01*
X0060802Y0121067D01*
X0060565Y0120657D01*
X0060230Y0120322D01*
X0059820Y0120085D01*
X0059362Y0119962D01*
X0057475Y0119962D01*
X0057475Y0123412D01*
X0057475Y0123412D01*
X0057475Y0123412D01*
X0060925Y0123412D01*
X0060816Y0121118D02*
X0083432Y0121118D01*
X0084575Y0119520D02*
X0043871Y0119520D01*
X0045469Y0117921D02*
X0084575Y0117921D01*
X0084575Y0116323D02*
X0046160Y0116323D01*
X0045145Y0114724D02*
X0084575Y0114724D01*
X0086074Y0113126D02*
X0043546Y0113126D01*
X0041948Y0111527D02*
X0087673Y0111527D01*
X0074869Y0129111D02*
X0023075Y0129111D01*
X0023075Y0130709D02*
X0073491Y0130709D01*
X0073575Y0132308D02*
X0023075Y0132308D01*
X0023075Y0133906D02*
X0073659Y0133906D01*
X0057475Y0126862D02*
X0057475Y0123412D01*
X0057475Y0123412D01*
X0057475Y0123412D01*
X0054025Y0123412D01*
X0054025Y0125299D01*
X0054148Y0125757D01*
X0054384Y0126167D01*
X0054720Y0126502D01*
X0055130Y0126739D01*
X0055588Y0126862D01*
X0057475Y0126862D01*
X0057475Y0125914D02*
X0057475Y0125914D01*
X0057475Y0124315D02*
X0057475Y0124315D01*
X0057475Y0123412D02*
X0054025Y0123412D01*
X0054025Y0121525D01*
X0054148Y0121067D01*
X0054384Y0120657D01*
X0054720Y0120322D01*
X0055130Y0120085D01*
X0055588Y0119962D01*
X0057475Y0119962D01*
X0057475Y0123412D01*
X0057475Y0122717D02*
X0057475Y0122717D01*
X0057475Y0121118D02*
X0057475Y0121118D01*
X0054134Y0121118D02*
X0042272Y0121118D01*
X0040932Y0121118D02*
X0038669Y0121118D01*
X0039334Y0119520D02*
X0037071Y0119520D01*
X0037735Y0117921D02*
X0035472Y0117921D01*
X0032968Y0114724D02*
X0032275Y0114724D01*
X0032940Y0113126D02*
X0030677Y0113126D01*
X0031341Y0111527D02*
X0029078Y0111527D01*
X0029743Y0109929D02*
X0027480Y0109929D01*
X0028144Y0108330D02*
X0023075Y0108330D01*
X0023075Y0109929D02*
X0024329Y0109929D01*
X0023075Y0106731D02*
X0027526Y0106731D01*
X0029124Y0105133D02*
X0023075Y0105133D01*
X0023075Y0103534D02*
X0030723Y0103534D01*
X0023267Y0116323D02*
X0023075Y0116323D01*
X0023075Y0117921D02*
X0024866Y0117921D01*
X0037476Y0125914D02*
X0054238Y0125914D01*
X0054025Y0124315D02*
X0039075Y0124315D01*
X0040268Y0122717D02*
X0054025Y0122717D01*
D12*
G36*
X0023147Y0113657D02*
X0035167Y0125677D01*
X0044359Y0116485D01*
X0032339Y0104465D01*
X0023147Y0113657D01*
G37*
G36*
X0104465Y0032339D02*
X0116485Y0044359D01*
X0125677Y0035167D01*
X0113657Y0023147D01*
X0104465Y0032339D01*
G37*
D13*
X0134569Y0051412D03*
X0146380Y0051412D03*
D14*
X0128475Y0062412D03*
X0123475Y0128412D03*
X0057475Y0123412D03*
X0062475Y0057412D03*
D15*
X0066475Y0147912D03*
X0066475Y0152912D03*
X0071475Y0152912D03*
X0071475Y0147912D03*
X0076475Y0147912D03*
X0076475Y0152912D03*
D16*
X0063821Y0140412D03*
X0057128Y0140412D03*
X0050821Y0151412D03*
X0044128Y0151412D03*
X0122128Y0074412D03*
X0128821Y0074412D03*
D17*
G36*
X0126369Y0095826D02*
X0121221Y0090678D01*
X0119829Y0092070D01*
X0124977Y0097218D01*
X0126369Y0095826D01*
G37*
G36*
X0124421Y0097775D02*
X0119273Y0092627D01*
X0117881Y0094019D01*
X0123029Y0099167D01*
X0124421Y0097775D01*
G37*
G36*
X0122472Y0099724D02*
X0117324Y0094576D01*
X0115932Y0095968D01*
X0121080Y0101116D01*
X0122472Y0099724D01*
G37*
G36*
X0120523Y0101673D02*
X0115375Y0096525D01*
X0113983Y0097917D01*
X0119131Y0103065D01*
X0120523Y0101673D01*
G37*
G36*
X0118575Y0103621D02*
X0113427Y0098473D01*
X0112035Y0099865D01*
X0117183Y0105013D01*
X0118575Y0103621D01*
G37*
G36*
X0116626Y0105570D02*
X0111478Y0100422D01*
X0110086Y0101814D01*
X0115234Y0106962D01*
X0116626Y0105570D01*
G37*
G36*
X0114677Y0107519D02*
X0109529Y0102371D01*
X0108137Y0103763D01*
X0113285Y0108911D01*
X0114677Y0107519D01*
G37*
G36*
X0112728Y0109468D02*
X0107580Y0104320D01*
X0106188Y0105712D01*
X0111336Y0110860D01*
X0112728Y0109468D01*
G37*
G36*
X0110780Y0111416D02*
X0105632Y0106268D01*
X0104240Y0107660D01*
X0109388Y0112808D01*
X0110780Y0111416D01*
G37*
G36*
X0108831Y0113365D02*
X0103683Y0108217D01*
X0102291Y0109609D01*
X0107439Y0114757D01*
X0108831Y0113365D01*
G37*
G36*
X0097139Y0125057D02*
X0091991Y0119909D01*
X0090599Y0121301D01*
X0095747Y0126449D01*
X0097139Y0125057D01*
G37*
G36*
X0095190Y0127006D02*
X0090042Y0121858D01*
X0088650Y0123250D01*
X0093798Y0128398D01*
X0095190Y0127006D01*
G37*
G36*
X0123029Y0154845D02*
X0117881Y0149697D01*
X0116489Y0151089D01*
X0121637Y0156237D01*
X0123029Y0154845D01*
G37*
G36*
X0124977Y0152896D02*
X0119829Y0147748D01*
X0118437Y0149140D01*
X0123585Y0154288D01*
X0124977Y0152896D01*
G37*
G36*
X0126926Y0150947D02*
X0121778Y0145799D01*
X0120386Y0147191D01*
X0125534Y0152339D01*
X0126926Y0150947D01*
G37*
G36*
X0128875Y0148999D02*
X0123727Y0143851D01*
X0122335Y0145243D01*
X0127483Y0150391D01*
X0128875Y0148999D01*
G37*
G36*
X0130824Y0147050D02*
X0125676Y0141902D01*
X0124284Y0143294D01*
X0129432Y0148442D01*
X0130824Y0147050D01*
G37*
G36*
X0132772Y0145101D02*
X0127624Y0139953D01*
X0126232Y0141345D01*
X0131380Y0146493D01*
X0132772Y0145101D01*
G37*
G36*
X0134721Y0143153D02*
X0129573Y0138005D01*
X0128181Y0139397D01*
X0133329Y0144545D01*
X0134721Y0143153D01*
G37*
G36*
X0136670Y0141204D02*
X0131522Y0136056D01*
X0130130Y0137448D01*
X0135278Y0142596D01*
X0136670Y0141204D01*
G37*
G36*
X0138618Y0139255D02*
X0133470Y0134107D01*
X0132078Y0135499D01*
X0137226Y0140647D01*
X0138618Y0139255D01*
G37*
G36*
X0140567Y0137306D02*
X0135419Y0132158D01*
X0134027Y0133550D01*
X0139175Y0138698D01*
X0140567Y0137306D01*
G37*
G36*
X0142516Y0135358D02*
X0137368Y0130210D01*
X0135976Y0131602D01*
X0141124Y0136750D01*
X0142516Y0135358D01*
G37*
G36*
X0144465Y0133409D02*
X0139317Y0128261D01*
X0137925Y0129653D01*
X0143073Y0134801D01*
X0144465Y0133409D01*
G37*
G36*
X0146413Y0131460D02*
X0141265Y0126312D01*
X0139873Y0127704D01*
X0145021Y0132852D01*
X0146413Y0131460D01*
G37*
G36*
X0148362Y0129511D02*
X0143214Y0124363D01*
X0141822Y0125755D01*
X0146970Y0130903D01*
X0148362Y0129511D01*
G37*
G36*
X0150311Y0127563D02*
X0145163Y0122415D01*
X0143771Y0123807D01*
X0148919Y0128955D01*
X0150311Y0127563D01*
G37*
G36*
X0152260Y0125614D02*
X0147112Y0120466D01*
X0145720Y0121858D01*
X0150868Y0127006D01*
X0152260Y0125614D01*
G37*
G36*
X0154208Y0123665D02*
X0149060Y0118517D01*
X0147668Y0119909D01*
X0152816Y0125057D01*
X0154208Y0123665D01*
G37*
D18*
G36*
X0156992Y0112671D02*
X0155600Y0111279D01*
X0150452Y0116427D01*
X0151844Y0117819D01*
X0156992Y0112671D01*
G37*
G36*
X0155043Y0110723D02*
X0153651Y0109331D01*
X0148503Y0114479D01*
X0149895Y0115871D01*
X0155043Y0110723D01*
G37*
G36*
X0153095Y0108774D02*
X0151703Y0107382D01*
X0146555Y0112530D01*
X0147947Y0113922D01*
X0153095Y0108774D01*
G37*
G36*
X0151146Y0106825D02*
X0149754Y0105433D01*
X0144606Y0110581D01*
X0145998Y0111973D01*
X0151146Y0106825D01*
G37*
G36*
X0149197Y0104876D02*
X0147805Y0103484D01*
X0142657Y0108632D01*
X0144049Y0110024D01*
X0149197Y0104876D01*
G37*
G36*
X0147249Y0102928D02*
X0145857Y0101536D01*
X0140709Y0106684D01*
X0142101Y0108076D01*
X0147249Y0102928D01*
G37*
G36*
X0145300Y0100979D02*
X0143908Y0099587D01*
X0138760Y0104735D01*
X0140152Y0106127D01*
X0145300Y0100979D01*
G37*
G36*
X0143351Y0099030D02*
X0141959Y0097638D01*
X0136811Y0102786D01*
X0138203Y0104178D01*
X0143351Y0099030D01*
G37*
G36*
X0141402Y0097081D02*
X0140010Y0095689D01*
X0134862Y0100837D01*
X0136254Y0102229D01*
X0141402Y0097081D01*
G37*
G36*
X0139454Y0095133D02*
X0138062Y0093741D01*
X0132914Y0098889D01*
X0134306Y0100281D01*
X0139454Y0095133D01*
G37*
G36*
X0137505Y0093184D02*
X0136113Y0091792D01*
X0130965Y0096940D01*
X0132357Y0098332D01*
X0137505Y0093184D01*
G37*
G36*
X0135556Y0091235D02*
X0134164Y0089843D01*
X0129016Y0094991D01*
X0130408Y0096383D01*
X0135556Y0091235D01*
G37*
G36*
X0133608Y0089287D02*
X0132216Y0087895D01*
X0127068Y0093043D01*
X0128460Y0094435D01*
X0133608Y0089287D01*
G37*
D19*
X0139475Y0082758D03*
X0139475Y0076065D03*
D20*
X0127821Y0082412D03*
X0121128Y0082412D03*
D21*
X0122128Y0074412D02*
X0113475Y0074412D01*
X0106475Y0081412D01*
X0106475Y0082412D01*
X0101460Y0073427D02*
X0106475Y0068412D01*
X0123167Y0068412D01*
X0126788Y0068291D01*
X0136788Y0068319D01*
X0146475Y0058506D01*
X0146407Y0053413D01*
X0146407Y0083480D01*
X0140475Y0089412D01*
X0135988Y0089412D01*
X0132286Y0093113D01*
X0130338Y0091165D02*
X0138744Y0082758D01*
X0139475Y0082758D01*
X0140128Y0082758D01*
X0143475Y0079412D01*
X0143475Y0072412D01*
X0141475Y0070412D01*
X0126128Y0070412D01*
X0122128Y0074412D01*
X0128475Y0062412D02*
X0100475Y0062412D01*
X0080475Y0082412D01*
X0069385Y0093502D01*
X0069385Y0103420D01*
X0069350Y0111537D01*
X0057475Y0123412D01*
X0057475Y0140065D01*
X0057128Y0140412D01*
X0053475Y0140412D01*
X0045475Y0148412D01*
X0045475Y0151065D01*
X0044128Y0151412D01*
X0063821Y0140412D02*
X0078475Y0140412D01*
X0078475Y0142412D01*
X0076475Y0144412D01*
X0069475Y0144412D01*
X0066475Y0147912D01*
X0066475Y0152912D02*
X0067475Y0153912D01*
X0071475Y0152912D02*
X0071475Y0156412D01*
X0078975Y0150412D02*
X0076475Y0147912D01*
X0078975Y0150412D02*
X0083475Y0150412D01*
X0085475Y0148412D01*
X0085475Y0144412D01*
X0081475Y0140412D01*
X0081475Y0138412D01*
X0081475Y0135573D01*
X0091920Y0125128D01*
X0119759Y0152967D01*
X0123475Y0128412D02*
X0099101Y0128412D01*
X0093869Y0123179D01*
X0086475Y0125412D02*
X0086475Y0115412D01*
X0090400Y0111487D01*
X0105561Y0111487D01*
X0105550Y0111487D01*
X0101460Y0107397D01*
X0101460Y0073427D01*
X0080475Y0082412D02*
X0062475Y0064412D01*
X0062475Y0057412D01*
X0115071Y0033753D02*
X0117722Y0033753D01*
X0118063Y0033412D01*
X0137475Y0033412D01*
X0146475Y0042412D01*
X0146475Y0051412D01*
X0146380Y0051412D01*
X0146407Y0053413D01*
X0134569Y0051412D02*
X0128880Y0057817D01*
X0128475Y0062412D01*
X0130338Y0091165D02*
X0128338Y0093049D01*
X0127756Y0094631D01*
X0127756Y0096693D01*
X0148475Y0117412D01*
X0150859Y0117412D01*
X0153722Y0114549D01*
X0130338Y0091165D02*
X0130338Y0091165D01*
X0081475Y0138412D02*
X0066475Y0123412D01*
X0057475Y0123412D01*
X0057128Y0123758D01*
X0057475Y0123412D02*
X0042095Y0123412D01*
X0033753Y0115071D01*
D22*
X0050821Y0151412D02*
X0055475Y0151412D01*
X0067475Y0153912D02*
X0068475Y0154912D01*
X0068475Y0157412D01*
X0070475Y0159412D01*
X0078475Y0159412D01*
X0091920Y0125128D02*
X0093869Y0123179D01*
X0093869Y0117806D01*
X0092475Y0116412D01*
X0114587Y0097128D02*
X0114587Y0089300D01*
X0121128Y0082758D01*
X0121128Y0082412D01*
X0121128Y0082105D01*
X0128821Y0074412D01*
X0134168Y0076065D02*
X0139475Y0076065D01*
X0134168Y0076065D02*
X0127821Y0082412D01*
X0127821Y0081824D01*
X0116804Y0092841D01*
X0116804Y0095448D01*
X0119202Y0097846D01*
X0117253Y0099795D02*
X0114587Y0097128D01*
X0143475Y0138412D02*
X0139475Y0142412D01*
X0136486Y0142412D01*
X0133400Y0139326D01*
X0131451Y0141275D02*
X0135975Y0145298D01*
X0138475Y0145412D01*
X0141475Y0147412D02*
X0139778Y0149109D01*
X0136172Y0149109D01*
X0130286Y0143223D01*
X0129502Y0143223D01*
X0128235Y0145172D02*
X0127554Y0145172D01*
X0128235Y0145172D02*
X0134475Y0151412D01*
X0139475Y0151412D01*
X0137975Y0154412D02*
X0143475Y0154412D01*
X0146475Y0157412D01*
X0142475Y0157412D02*
X0141475Y0156412D01*
X0137475Y0156412D01*
X0135475Y0154412D01*
X0129475Y0154412D01*
X0123656Y0149593D01*
X0123656Y0149069D01*
X0125605Y0147121D02*
X0126184Y0147121D01*
X0132475Y0152912D01*
X0136475Y0152912D01*
X0137975Y0154412D01*
D23*
X0139475Y0151412D03*
X0141475Y0147412D03*
X0138475Y0145412D03*
X0143475Y0138412D03*
X0142475Y0157412D03*
X0146475Y0157412D03*
X0092475Y0116412D03*
X0086475Y0125412D03*
X0078475Y0140412D03*
X0071475Y0156412D03*
X0078475Y0159412D03*
X0055475Y0151412D03*
X0080475Y0082412D03*
X0106475Y0082412D03*
M02*
