G75*
%MOIN*%
%OFA0B0*%
%FSLAX25Y25*%
%IPPOS*%
%LPD*%
%AMOC8*
5,1,8,0,0,1.08239X$1,22.5*
%
%ADD10C,0.00000*%
%ADD11C,0.01600*%
%ADD12C,0.15000*%
%ADD13C,0.02500*%
%ADD14C,0.02000*%
D10*
X0027475Y0032412D02*
X0027477Y0032538D01*
X0027483Y0032664D01*
X0027493Y0032790D01*
X0027507Y0032916D01*
X0027525Y0033041D01*
X0027547Y0033165D01*
X0027572Y0033289D01*
X0027602Y0033412D01*
X0027635Y0033533D01*
X0027673Y0033654D01*
X0027714Y0033773D01*
X0027759Y0033892D01*
X0027807Y0034008D01*
X0027859Y0034123D01*
X0027915Y0034236D01*
X0027975Y0034348D01*
X0028038Y0034457D01*
X0028104Y0034565D01*
X0028173Y0034670D01*
X0028246Y0034773D01*
X0028323Y0034874D01*
X0028402Y0034972D01*
X0028484Y0035068D01*
X0028570Y0035161D01*
X0028658Y0035252D01*
X0028749Y0035339D01*
X0028843Y0035424D01*
X0028939Y0035505D01*
X0029038Y0035584D01*
X0029139Y0035659D01*
X0029243Y0035731D01*
X0029349Y0035800D01*
X0029457Y0035866D01*
X0029567Y0035928D01*
X0029679Y0035986D01*
X0029792Y0036041D01*
X0029908Y0036092D01*
X0030025Y0036140D01*
X0030143Y0036184D01*
X0030263Y0036224D01*
X0030384Y0036260D01*
X0030506Y0036293D01*
X0030629Y0036322D01*
X0030753Y0036346D01*
X0030877Y0036367D01*
X0031002Y0036384D01*
X0031128Y0036397D01*
X0031254Y0036406D01*
X0031380Y0036411D01*
X0031507Y0036412D01*
X0031633Y0036409D01*
X0031759Y0036402D01*
X0031885Y0036391D01*
X0032010Y0036376D01*
X0032135Y0036357D01*
X0032259Y0036334D01*
X0032383Y0036308D01*
X0032505Y0036277D01*
X0032627Y0036243D01*
X0032747Y0036204D01*
X0032866Y0036162D01*
X0032984Y0036117D01*
X0033100Y0036067D01*
X0033215Y0036014D01*
X0033327Y0035957D01*
X0033438Y0035897D01*
X0033547Y0035833D01*
X0033654Y0035766D01*
X0033759Y0035696D01*
X0033862Y0035622D01*
X0033962Y0035545D01*
X0034060Y0035465D01*
X0034155Y0035382D01*
X0034247Y0035296D01*
X0034337Y0035207D01*
X0034424Y0035115D01*
X0034507Y0035021D01*
X0034588Y0034924D01*
X0034666Y0034824D01*
X0034741Y0034722D01*
X0034812Y0034618D01*
X0034880Y0034511D01*
X0034944Y0034403D01*
X0035005Y0034292D01*
X0035063Y0034180D01*
X0035117Y0034066D01*
X0035167Y0033950D01*
X0035214Y0033833D01*
X0035257Y0033714D01*
X0035296Y0033594D01*
X0035332Y0033473D01*
X0035363Y0033350D01*
X0035391Y0033227D01*
X0035415Y0033103D01*
X0035435Y0032978D01*
X0035451Y0032853D01*
X0035463Y0032727D01*
X0035471Y0032601D01*
X0035475Y0032475D01*
X0035475Y0032349D01*
X0035471Y0032223D01*
X0035463Y0032097D01*
X0035451Y0031971D01*
X0035435Y0031846D01*
X0035415Y0031721D01*
X0035391Y0031597D01*
X0035363Y0031474D01*
X0035332Y0031351D01*
X0035296Y0031230D01*
X0035257Y0031110D01*
X0035214Y0030991D01*
X0035167Y0030874D01*
X0035117Y0030758D01*
X0035063Y0030644D01*
X0035005Y0030532D01*
X0034944Y0030421D01*
X0034880Y0030313D01*
X0034812Y0030206D01*
X0034741Y0030102D01*
X0034666Y0030000D01*
X0034588Y0029900D01*
X0034507Y0029803D01*
X0034424Y0029709D01*
X0034337Y0029617D01*
X0034247Y0029528D01*
X0034155Y0029442D01*
X0034060Y0029359D01*
X0033962Y0029279D01*
X0033862Y0029202D01*
X0033759Y0029128D01*
X0033654Y0029058D01*
X0033547Y0028991D01*
X0033438Y0028927D01*
X0033327Y0028867D01*
X0033215Y0028810D01*
X0033100Y0028757D01*
X0032984Y0028707D01*
X0032866Y0028662D01*
X0032747Y0028620D01*
X0032627Y0028581D01*
X0032505Y0028547D01*
X0032383Y0028516D01*
X0032259Y0028490D01*
X0032135Y0028467D01*
X0032010Y0028448D01*
X0031885Y0028433D01*
X0031759Y0028422D01*
X0031633Y0028415D01*
X0031507Y0028412D01*
X0031380Y0028413D01*
X0031254Y0028418D01*
X0031128Y0028427D01*
X0031002Y0028440D01*
X0030877Y0028457D01*
X0030753Y0028478D01*
X0030629Y0028502D01*
X0030506Y0028531D01*
X0030384Y0028564D01*
X0030263Y0028600D01*
X0030143Y0028640D01*
X0030025Y0028684D01*
X0029908Y0028732D01*
X0029792Y0028783D01*
X0029679Y0028838D01*
X0029567Y0028896D01*
X0029457Y0028958D01*
X0029349Y0029024D01*
X0029243Y0029093D01*
X0029139Y0029165D01*
X0029038Y0029240D01*
X0028939Y0029319D01*
X0028843Y0029400D01*
X0028749Y0029485D01*
X0028658Y0029572D01*
X0028570Y0029663D01*
X0028484Y0029756D01*
X0028402Y0029852D01*
X0028323Y0029950D01*
X0028246Y0030051D01*
X0028173Y0030154D01*
X0028104Y0030259D01*
X0028038Y0030367D01*
X0027975Y0030476D01*
X0027915Y0030588D01*
X0027859Y0030701D01*
X0027807Y0030816D01*
X0027759Y0030932D01*
X0027714Y0031051D01*
X0027673Y0031170D01*
X0027635Y0031291D01*
X0027602Y0031412D01*
X0027572Y0031535D01*
X0027547Y0031659D01*
X0027525Y0031783D01*
X0027507Y0031908D01*
X0027493Y0032034D01*
X0027483Y0032160D01*
X0027477Y0032286D01*
X0027475Y0032412D01*
X0084475Y0148412D02*
X0084477Y0148501D01*
X0084483Y0148590D01*
X0084493Y0148679D01*
X0084507Y0148767D01*
X0084524Y0148854D01*
X0084546Y0148940D01*
X0084572Y0149026D01*
X0084601Y0149110D01*
X0084634Y0149193D01*
X0084670Y0149274D01*
X0084711Y0149354D01*
X0084754Y0149431D01*
X0084801Y0149507D01*
X0084852Y0149580D01*
X0084905Y0149651D01*
X0084962Y0149720D01*
X0085022Y0149786D01*
X0085085Y0149850D01*
X0085150Y0149910D01*
X0085218Y0149968D01*
X0085289Y0150022D01*
X0085362Y0150073D01*
X0085437Y0150121D01*
X0085514Y0150166D01*
X0085593Y0150207D01*
X0085674Y0150244D01*
X0085756Y0150278D01*
X0085840Y0150309D01*
X0085925Y0150335D01*
X0086011Y0150358D01*
X0086098Y0150376D01*
X0086186Y0150391D01*
X0086275Y0150402D01*
X0086364Y0150409D01*
X0086453Y0150412D01*
X0086542Y0150411D01*
X0086631Y0150406D01*
X0086719Y0150397D01*
X0086808Y0150384D01*
X0086895Y0150367D01*
X0086982Y0150347D01*
X0087068Y0150322D01*
X0087152Y0150294D01*
X0087235Y0150262D01*
X0087317Y0150226D01*
X0087397Y0150187D01*
X0087475Y0150144D01*
X0087551Y0150098D01*
X0087625Y0150048D01*
X0087697Y0149995D01*
X0087766Y0149939D01*
X0087833Y0149880D01*
X0087897Y0149818D01*
X0087958Y0149754D01*
X0088017Y0149686D01*
X0088072Y0149616D01*
X0088124Y0149544D01*
X0088173Y0149469D01*
X0088218Y0149393D01*
X0088260Y0149314D01*
X0088298Y0149234D01*
X0088333Y0149152D01*
X0088364Y0149068D01*
X0088392Y0148983D01*
X0088415Y0148897D01*
X0088435Y0148810D01*
X0088451Y0148723D01*
X0088463Y0148634D01*
X0088471Y0148546D01*
X0088475Y0148457D01*
X0088475Y0148367D01*
X0088471Y0148278D01*
X0088463Y0148190D01*
X0088451Y0148101D01*
X0088435Y0148014D01*
X0088415Y0147927D01*
X0088392Y0147841D01*
X0088364Y0147756D01*
X0088333Y0147672D01*
X0088298Y0147590D01*
X0088260Y0147510D01*
X0088218Y0147431D01*
X0088173Y0147355D01*
X0088124Y0147280D01*
X0088072Y0147208D01*
X0088017Y0147138D01*
X0087958Y0147070D01*
X0087897Y0147006D01*
X0087833Y0146944D01*
X0087766Y0146885D01*
X0087697Y0146829D01*
X0087625Y0146776D01*
X0087551Y0146726D01*
X0087475Y0146680D01*
X0087397Y0146637D01*
X0087317Y0146598D01*
X0087235Y0146562D01*
X0087152Y0146530D01*
X0087068Y0146502D01*
X0086982Y0146477D01*
X0086895Y0146457D01*
X0086808Y0146440D01*
X0086719Y0146427D01*
X0086631Y0146418D01*
X0086542Y0146413D01*
X0086453Y0146412D01*
X0086364Y0146415D01*
X0086275Y0146422D01*
X0086186Y0146433D01*
X0086098Y0146448D01*
X0086011Y0146466D01*
X0085925Y0146489D01*
X0085840Y0146515D01*
X0085756Y0146546D01*
X0085674Y0146580D01*
X0085593Y0146617D01*
X0085514Y0146658D01*
X0085437Y0146703D01*
X0085362Y0146751D01*
X0085289Y0146802D01*
X0085218Y0146856D01*
X0085150Y0146914D01*
X0085085Y0146974D01*
X0085022Y0147038D01*
X0084962Y0147104D01*
X0084905Y0147173D01*
X0084852Y0147244D01*
X0084801Y0147317D01*
X0084754Y0147393D01*
X0084711Y0147470D01*
X0084670Y0147550D01*
X0084634Y0147631D01*
X0084601Y0147714D01*
X0084572Y0147798D01*
X0084546Y0147884D01*
X0084524Y0147970D01*
X0084507Y0148057D01*
X0084493Y0148145D01*
X0084483Y0148234D01*
X0084477Y0148323D01*
X0084475Y0148412D01*
X0084475Y0156412D02*
X0084477Y0156501D01*
X0084483Y0156590D01*
X0084493Y0156679D01*
X0084507Y0156767D01*
X0084524Y0156854D01*
X0084546Y0156940D01*
X0084572Y0157026D01*
X0084601Y0157110D01*
X0084634Y0157193D01*
X0084670Y0157274D01*
X0084711Y0157354D01*
X0084754Y0157431D01*
X0084801Y0157507D01*
X0084852Y0157580D01*
X0084905Y0157651D01*
X0084962Y0157720D01*
X0085022Y0157786D01*
X0085085Y0157850D01*
X0085150Y0157910D01*
X0085218Y0157968D01*
X0085289Y0158022D01*
X0085362Y0158073D01*
X0085437Y0158121D01*
X0085514Y0158166D01*
X0085593Y0158207D01*
X0085674Y0158244D01*
X0085756Y0158278D01*
X0085840Y0158309D01*
X0085925Y0158335D01*
X0086011Y0158358D01*
X0086098Y0158376D01*
X0086186Y0158391D01*
X0086275Y0158402D01*
X0086364Y0158409D01*
X0086453Y0158412D01*
X0086542Y0158411D01*
X0086631Y0158406D01*
X0086719Y0158397D01*
X0086808Y0158384D01*
X0086895Y0158367D01*
X0086982Y0158347D01*
X0087068Y0158322D01*
X0087152Y0158294D01*
X0087235Y0158262D01*
X0087317Y0158226D01*
X0087397Y0158187D01*
X0087475Y0158144D01*
X0087551Y0158098D01*
X0087625Y0158048D01*
X0087697Y0157995D01*
X0087766Y0157939D01*
X0087833Y0157880D01*
X0087897Y0157818D01*
X0087958Y0157754D01*
X0088017Y0157686D01*
X0088072Y0157616D01*
X0088124Y0157544D01*
X0088173Y0157469D01*
X0088218Y0157393D01*
X0088260Y0157314D01*
X0088298Y0157234D01*
X0088333Y0157152D01*
X0088364Y0157068D01*
X0088392Y0156983D01*
X0088415Y0156897D01*
X0088435Y0156810D01*
X0088451Y0156723D01*
X0088463Y0156634D01*
X0088471Y0156546D01*
X0088475Y0156457D01*
X0088475Y0156367D01*
X0088471Y0156278D01*
X0088463Y0156190D01*
X0088451Y0156101D01*
X0088435Y0156014D01*
X0088415Y0155927D01*
X0088392Y0155841D01*
X0088364Y0155756D01*
X0088333Y0155672D01*
X0088298Y0155590D01*
X0088260Y0155510D01*
X0088218Y0155431D01*
X0088173Y0155355D01*
X0088124Y0155280D01*
X0088072Y0155208D01*
X0088017Y0155138D01*
X0087958Y0155070D01*
X0087897Y0155006D01*
X0087833Y0154944D01*
X0087766Y0154885D01*
X0087697Y0154829D01*
X0087625Y0154776D01*
X0087551Y0154726D01*
X0087475Y0154680D01*
X0087397Y0154637D01*
X0087317Y0154598D01*
X0087235Y0154562D01*
X0087152Y0154530D01*
X0087068Y0154502D01*
X0086982Y0154477D01*
X0086895Y0154457D01*
X0086808Y0154440D01*
X0086719Y0154427D01*
X0086631Y0154418D01*
X0086542Y0154413D01*
X0086453Y0154412D01*
X0086364Y0154415D01*
X0086275Y0154422D01*
X0086186Y0154433D01*
X0086098Y0154448D01*
X0086011Y0154466D01*
X0085925Y0154489D01*
X0085840Y0154515D01*
X0085756Y0154546D01*
X0085674Y0154580D01*
X0085593Y0154617D01*
X0085514Y0154658D01*
X0085437Y0154703D01*
X0085362Y0154751D01*
X0085289Y0154802D01*
X0085218Y0154856D01*
X0085150Y0154914D01*
X0085085Y0154974D01*
X0085022Y0155038D01*
X0084962Y0155104D01*
X0084905Y0155173D01*
X0084852Y0155244D01*
X0084801Y0155317D01*
X0084754Y0155393D01*
X0084711Y0155470D01*
X0084670Y0155550D01*
X0084634Y0155631D01*
X0084601Y0155714D01*
X0084572Y0155798D01*
X0084546Y0155884D01*
X0084524Y0155970D01*
X0084507Y0156057D01*
X0084493Y0156145D01*
X0084483Y0156234D01*
X0084477Y0156323D01*
X0084475Y0156412D01*
X0064475Y0152412D02*
X0064477Y0152501D01*
X0064483Y0152590D01*
X0064493Y0152679D01*
X0064507Y0152767D01*
X0064524Y0152854D01*
X0064546Y0152940D01*
X0064572Y0153026D01*
X0064601Y0153110D01*
X0064634Y0153193D01*
X0064670Y0153274D01*
X0064711Y0153354D01*
X0064754Y0153431D01*
X0064801Y0153507D01*
X0064852Y0153580D01*
X0064905Y0153651D01*
X0064962Y0153720D01*
X0065022Y0153786D01*
X0065085Y0153850D01*
X0065150Y0153910D01*
X0065218Y0153968D01*
X0065289Y0154022D01*
X0065362Y0154073D01*
X0065437Y0154121D01*
X0065514Y0154166D01*
X0065593Y0154207D01*
X0065674Y0154244D01*
X0065756Y0154278D01*
X0065840Y0154309D01*
X0065925Y0154335D01*
X0066011Y0154358D01*
X0066098Y0154376D01*
X0066186Y0154391D01*
X0066275Y0154402D01*
X0066364Y0154409D01*
X0066453Y0154412D01*
X0066542Y0154411D01*
X0066631Y0154406D01*
X0066719Y0154397D01*
X0066808Y0154384D01*
X0066895Y0154367D01*
X0066982Y0154347D01*
X0067068Y0154322D01*
X0067152Y0154294D01*
X0067235Y0154262D01*
X0067317Y0154226D01*
X0067397Y0154187D01*
X0067475Y0154144D01*
X0067551Y0154098D01*
X0067625Y0154048D01*
X0067697Y0153995D01*
X0067766Y0153939D01*
X0067833Y0153880D01*
X0067897Y0153818D01*
X0067958Y0153754D01*
X0068017Y0153686D01*
X0068072Y0153616D01*
X0068124Y0153544D01*
X0068173Y0153469D01*
X0068218Y0153393D01*
X0068260Y0153314D01*
X0068298Y0153234D01*
X0068333Y0153152D01*
X0068364Y0153068D01*
X0068392Y0152983D01*
X0068415Y0152897D01*
X0068435Y0152810D01*
X0068451Y0152723D01*
X0068463Y0152634D01*
X0068471Y0152546D01*
X0068475Y0152457D01*
X0068475Y0152367D01*
X0068471Y0152278D01*
X0068463Y0152190D01*
X0068451Y0152101D01*
X0068435Y0152014D01*
X0068415Y0151927D01*
X0068392Y0151841D01*
X0068364Y0151756D01*
X0068333Y0151672D01*
X0068298Y0151590D01*
X0068260Y0151510D01*
X0068218Y0151431D01*
X0068173Y0151355D01*
X0068124Y0151280D01*
X0068072Y0151208D01*
X0068017Y0151138D01*
X0067958Y0151070D01*
X0067897Y0151006D01*
X0067833Y0150944D01*
X0067766Y0150885D01*
X0067697Y0150829D01*
X0067625Y0150776D01*
X0067551Y0150726D01*
X0067475Y0150680D01*
X0067397Y0150637D01*
X0067317Y0150598D01*
X0067235Y0150562D01*
X0067152Y0150530D01*
X0067068Y0150502D01*
X0066982Y0150477D01*
X0066895Y0150457D01*
X0066808Y0150440D01*
X0066719Y0150427D01*
X0066631Y0150418D01*
X0066542Y0150413D01*
X0066453Y0150412D01*
X0066364Y0150415D01*
X0066275Y0150422D01*
X0066186Y0150433D01*
X0066098Y0150448D01*
X0066011Y0150466D01*
X0065925Y0150489D01*
X0065840Y0150515D01*
X0065756Y0150546D01*
X0065674Y0150580D01*
X0065593Y0150617D01*
X0065514Y0150658D01*
X0065437Y0150703D01*
X0065362Y0150751D01*
X0065289Y0150802D01*
X0065218Y0150856D01*
X0065150Y0150914D01*
X0065085Y0150974D01*
X0065022Y0151038D01*
X0064962Y0151104D01*
X0064905Y0151173D01*
X0064852Y0151244D01*
X0064801Y0151317D01*
X0064754Y0151393D01*
X0064711Y0151470D01*
X0064670Y0151550D01*
X0064634Y0151631D01*
X0064601Y0151714D01*
X0064572Y0151798D01*
X0064546Y0151884D01*
X0064524Y0151970D01*
X0064507Y0152057D01*
X0064493Y0152145D01*
X0064483Y0152234D01*
X0064477Y0152323D01*
X0064475Y0152412D01*
X0029475Y0154412D02*
X0029477Y0154538D01*
X0029483Y0154664D01*
X0029493Y0154790D01*
X0029507Y0154916D01*
X0029525Y0155041D01*
X0029547Y0155165D01*
X0029572Y0155289D01*
X0029602Y0155412D01*
X0029635Y0155533D01*
X0029673Y0155654D01*
X0029714Y0155773D01*
X0029759Y0155892D01*
X0029807Y0156008D01*
X0029859Y0156123D01*
X0029915Y0156236D01*
X0029975Y0156348D01*
X0030038Y0156457D01*
X0030104Y0156565D01*
X0030173Y0156670D01*
X0030246Y0156773D01*
X0030323Y0156874D01*
X0030402Y0156972D01*
X0030484Y0157068D01*
X0030570Y0157161D01*
X0030658Y0157252D01*
X0030749Y0157339D01*
X0030843Y0157424D01*
X0030939Y0157505D01*
X0031038Y0157584D01*
X0031139Y0157659D01*
X0031243Y0157731D01*
X0031349Y0157800D01*
X0031457Y0157866D01*
X0031567Y0157928D01*
X0031679Y0157986D01*
X0031792Y0158041D01*
X0031908Y0158092D01*
X0032025Y0158140D01*
X0032143Y0158184D01*
X0032263Y0158224D01*
X0032384Y0158260D01*
X0032506Y0158293D01*
X0032629Y0158322D01*
X0032753Y0158346D01*
X0032877Y0158367D01*
X0033002Y0158384D01*
X0033128Y0158397D01*
X0033254Y0158406D01*
X0033380Y0158411D01*
X0033507Y0158412D01*
X0033633Y0158409D01*
X0033759Y0158402D01*
X0033885Y0158391D01*
X0034010Y0158376D01*
X0034135Y0158357D01*
X0034259Y0158334D01*
X0034383Y0158308D01*
X0034505Y0158277D01*
X0034627Y0158243D01*
X0034747Y0158204D01*
X0034866Y0158162D01*
X0034984Y0158117D01*
X0035100Y0158067D01*
X0035215Y0158014D01*
X0035327Y0157957D01*
X0035438Y0157897D01*
X0035547Y0157833D01*
X0035654Y0157766D01*
X0035759Y0157696D01*
X0035862Y0157622D01*
X0035962Y0157545D01*
X0036060Y0157465D01*
X0036155Y0157382D01*
X0036247Y0157296D01*
X0036337Y0157207D01*
X0036424Y0157115D01*
X0036507Y0157021D01*
X0036588Y0156924D01*
X0036666Y0156824D01*
X0036741Y0156722D01*
X0036812Y0156618D01*
X0036880Y0156511D01*
X0036944Y0156403D01*
X0037005Y0156292D01*
X0037063Y0156180D01*
X0037117Y0156066D01*
X0037167Y0155950D01*
X0037214Y0155833D01*
X0037257Y0155714D01*
X0037296Y0155594D01*
X0037332Y0155473D01*
X0037363Y0155350D01*
X0037391Y0155227D01*
X0037415Y0155103D01*
X0037435Y0154978D01*
X0037451Y0154853D01*
X0037463Y0154727D01*
X0037471Y0154601D01*
X0037475Y0154475D01*
X0037475Y0154349D01*
X0037471Y0154223D01*
X0037463Y0154097D01*
X0037451Y0153971D01*
X0037435Y0153846D01*
X0037415Y0153721D01*
X0037391Y0153597D01*
X0037363Y0153474D01*
X0037332Y0153351D01*
X0037296Y0153230D01*
X0037257Y0153110D01*
X0037214Y0152991D01*
X0037167Y0152874D01*
X0037117Y0152758D01*
X0037063Y0152644D01*
X0037005Y0152532D01*
X0036944Y0152421D01*
X0036880Y0152313D01*
X0036812Y0152206D01*
X0036741Y0152102D01*
X0036666Y0152000D01*
X0036588Y0151900D01*
X0036507Y0151803D01*
X0036424Y0151709D01*
X0036337Y0151617D01*
X0036247Y0151528D01*
X0036155Y0151442D01*
X0036060Y0151359D01*
X0035962Y0151279D01*
X0035862Y0151202D01*
X0035759Y0151128D01*
X0035654Y0151058D01*
X0035547Y0150991D01*
X0035438Y0150927D01*
X0035327Y0150867D01*
X0035215Y0150810D01*
X0035100Y0150757D01*
X0034984Y0150707D01*
X0034866Y0150662D01*
X0034747Y0150620D01*
X0034627Y0150581D01*
X0034505Y0150547D01*
X0034383Y0150516D01*
X0034259Y0150490D01*
X0034135Y0150467D01*
X0034010Y0150448D01*
X0033885Y0150433D01*
X0033759Y0150422D01*
X0033633Y0150415D01*
X0033507Y0150412D01*
X0033380Y0150413D01*
X0033254Y0150418D01*
X0033128Y0150427D01*
X0033002Y0150440D01*
X0032877Y0150457D01*
X0032753Y0150478D01*
X0032629Y0150502D01*
X0032506Y0150531D01*
X0032384Y0150564D01*
X0032263Y0150600D01*
X0032143Y0150640D01*
X0032025Y0150684D01*
X0031908Y0150732D01*
X0031792Y0150783D01*
X0031679Y0150838D01*
X0031567Y0150896D01*
X0031457Y0150958D01*
X0031349Y0151024D01*
X0031243Y0151093D01*
X0031139Y0151165D01*
X0031038Y0151240D01*
X0030939Y0151319D01*
X0030843Y0151400D01*
X0030749Y0151485D01*
X0030658Y0151572D01*
X0030570Y0151663D01*
X0030484Y0151756D01*
X0030402Y0151852D01*
X0030323Y0151950D01*
X0030246Y0152051D01*
X0030173Y0152154D01*
X0030104Y0152259D01*
X0030038Y0152367D01*
X0029975Y0152476D01*
X0029915Y0152588D01*
X0029859Y0152701D01*
X0029807Y0152816D01*
X0029759Y0152932D01*
X0029714Y0153051D01*
X0029673Y0153170D01*
X0029635Y0153291D01*
X0029602Y0153412D01*
X0029572Y0153535D01*
X0029547Y0153659D01*
X0029525Y0153783D01*
X0029507Y0153908D01*
X0029493Y0154034D01*
X0029483Y0154160D01*
X0029477Y0154286D01*
X0029475Y0154412D01*
X0150475Y0033412D02*
X0150477Y0033538D01*
X0150483Y0033664D01*
X0150493Y0033790D01*
X0150507Y0033916D01*
X0150525Y0034041D01*
X0150547Y0034165D01*
X0150572Y0034289D01*
X0150602Y0034412D01*
X0150635Y0034533D01*
X0150673Y0034654D01*
X0150714Y0034773D01*
X0150759Y0034892D01*
X0150807Y0035008D01*
X0150859Y0035123D01*
X0150915Y0035236D01*
X0150975Y0035348D01*
X0151038Y0035457D01*
X0151104Y0035565D01*
X0151173Y0035670D01*
X0151246Y0035773D01*
X0151323Y0035874D01*
X0151402Y0035972D01*
X0151484Y0036068D01*
X0151570Y0036161D01*
X0151658Y0036252D01*
X0151749Y0036339D01*
X0151843Y0036424D01*
X0151939Y0036505D01*
X0152038Y0036584D01*
X0152139Y0036659D01*
X0152243Y0036731D01*
X0152349Y0036800D01*
X0152457Y0036866D01*
X0152567Y0036928D01*
X0152679Y0036986D01*
X0152792Y0037041D01*
X0152908Y0037092D01*
X0153025Y0037140D01*
X0153143Y0037184D01*
X0153263Y0037224D01*
X0153384Y0037260D01*
X0153506Y0037293D01*
X0153629Y0037322D01*
X0153753Y0037346D01*
X0153877Y0037367D01*
X0154002Y0037384D01*
X0154128Y0037397D01*
X0154254Y0037406D01*
X0154380Y0037411D01*
X0154507Y0037412D01*
X0154633Y0037409D01*
X0154759Y0037402D01*
X0154885Y0037391D01*
X0155010Y0037376D01*
X0155135Y0037357D01*
X0155259Y0037334D01*
X0155383Y0037308D01*
X0155505Y0037277D01*
X0155627Y0037243D01*
X0155747Y0037204D01*
X0155866Y0037162D01*
X0155984Y0037117D01*
X0156100Y0037067D01*
X0156215Y0037014D01*
X0156327Y0036957D01*
X0156438Y0036897D01*
X0156547Y0036833D01*
X0156654Y0036766D01*
X0156759Y0036696D01*
X0156862Y0036622D01*
X0156962Y0036545D01*
X0157060Y0036465D01*
X0157155Y0036382D01*
X0157247Y0036296D01*
X0157337Y0036207D01*
X0157424Y0036115D01*
X0157507Y0036021D01*
X0157588Y0035924D01*
X0157666Y0035824D01*
X0157741Y0035722D01*
X0157812Y0035618D01*
X0157880Y0035511D01*
X0157944Y0035403D01*
X0158005Y0035292D01*
X0158063Y0035180D01*
X0158117Y0035066D01*
X0158167Y0034950D01*
X0158214Y0034833D01*
X0158257Y0034714D01*
X0158296Y0034594D01*
X0158332Y0034473D01*
X0158363Y0034350D01*
X0158391Y0034227D01*
X0158415Y0034103D01*
X0158435Y0033978D01*
X0158451Y0033853D01*
X0158463Y0033727D01*
X0158471Y0033601D01*
X0158475Y0033475D01*
X0158475Y0033349D01*
X0158471Y0033223D01*
X0158463Y0033097D01*
X0158451Y0032971D01*
X0158435Y0032846D01*
X0158415Y0032721D01*
X0158391Y0032597D01*
X0158363Y0032474D01*
X0158332Y0032351D01*
X0158296Y0032230D01*
X0158257Y0032110D01*
X0158214Y0031991D01*
X0158167Y0031874D01*
X0158117Y0031758D01*
X0158063Y0031644D01*
X0158005Y0031532D01*
X0157944Y0031421D01*
X0157880Y0031313D01*
X0157812Y0031206D01*
X0157741Y0031102D01*
X0157666Y0031000D01*
X0157588Y0030900D01*
X0157507Y0030803D01*
X0157424Y0030709D01*
X0157337Y0030617D01*
X0157247Y0030528D01*
X0157155Y0030442D01*
X0157060Y0030359D01*
X0156962Y0030279D01*
X0156862Y0030202D01*
X0156759Y0030128D01*
X0156654Y0030058D01*
X0156547Y0029991D01*
X0156438Y0029927D01*
X0156327Y0029867D01*
X0156215Y0029810D01*
X0156100Y0029757D01*
X0155984Y0029707D01*
X0155866Y0029662D01*
X0155747Y0029620D01*
X0155627Y0029581D01*
X0155505Y0029547D01*
X0155383Y0029516D01*
X0155259Y0029490D01*
X0155135Y0029467D01*
X0155010Y0029448D01*
X0154885Y0029433D01*
X0154759Y0029422D01*
X0154633Y0029415D01*
X0154507Y0029412D01*
X0154380Y0029413D01*
X0154254Y0029418D01*
X0154128Y0029427D01*
X0154002Y0029440D01*
X0153877Y0029457D01*
X0153753Y0029478D01*
X0153629Y0029502D01*
X0153506Y0029531D01*
X0153384Y0029564D01*
X0153263Y0029600D01*
X0153143Y0029640D01*
X0153025Y0029684D01*
X0152908Y0029732D01*
X0152792Y0029783D01*
X0152679Y0029838D01*
X0152567Y0029896D01*
X0152457Y0029958D01*
X0152349Y0030024D01*
X0152243Y0030093D01*
X0152139Y0030165D01*
X0152038Y0030240D01*
X0151939Y0030319D01*
X0151843Y0030400D01*
X0151749Y0030485D01*
X0151658Y0030572D01*
X0151570Y0030663D01*
X0151484Y0030756D01*
X0151402Y0030852D01*
X0151323Y0030950D01*
X0151246Y0031051D01*
X0151173Y0031154D01*
X0151104Y0031259D01*
X0151038Y0031367D01*
X0150975Y0031476D01*
X0150915Y0031588D01*
X0150859Y0031701D01*
X0150807Y0031816D01*
X0150759Y0031932D01*
X0150714Y0032051D01*
X0150673Y0032170D01*
X0150635Y0032291D01*
X0150602Y0032412D01*
X0150572Y0032535D01*
X0150547Y0032659D01*
X0150525Y0032783D01*
X0150507Y0032908D01*
X0150493Y0033034D01*
X0150483Y0033160D01*
X0150477Y0033286D01*
X0150475Y0033412D01*
X0151475Y0155412D02*
X0151477Y0155538D01*
X0151483Y0155664D01*
X0151493Y0155790D01*
X0151507Y0155916D01*
X0151525Y0156041D01*
X0151547Y0156165D01*
X0151572Y0156289D01*
X0151602Y0156412D01*
X0151635Y0156533D01*
X0151673Y0156654D01*
X0151714Y0156773D01*
X0151759Y0156892D01*
X0151807Y0157008D01*
X0151859Y0157123D01*
X0151915Y0157236D01*
X0151975Y0157348D01*
X0152038Y0157457D01*
X0152104Y0157565D01*
X0152173Y0157670D01*
X0152246Y0157773D01*
X0152323Y0157874D01*
X0152402Y0157972D01*
X0152484Y0158068D01*
X0152570Y0158161D01*
X0152658Y0158252D01*
X0152749Y0158339D01*
X0152843Y0158424D01*
X0152939Y0158505D01*
X0153038Y0158584D01*
X0153139Y0158659D01*
X0153243Y0158731D01*
X0153349Y0158800D01*
X0153457Y0158866D01*
X0153567Y0158928D01*
X0153679Y0158986D01*
X0153792Y0159041D01*
X0153908Y0159092D01*
X0154025Y0159140D01*
X0154143Y0159184D01*
X0154263Y0159224D01*
X0154384Y0159260D01*
X0154506Y0159293D01*
X0154629Y0159322D01*
X0154753Y0159346D01*
X0154877Y0159367D01*
X0155002Y0159384D01*
X0155128Y0159397D01*
X0155254Y0159406D01*
X0155380Y0159411D01*
X0155507Y0159412D01*
X0155633Y0159409D01*
X0155759Y0159402D01*
X0155885Y0159391D01*
X0156010Y0159376D01*
X0156135Y0159357D01*
X0156259Y0159334D01*
X0156383Y0159308D01*
X0156505Y0159277D01*
X0156627Y0159243D01*
X0156747Y0159204D01*
X0156866Y0159162D01*
X0156984Y0159117D01*
X0157100Y0159067D01*
X0157215Y0159014D01*
X0157327Y0158957D01*
X0157438Y0158897D01*
X0157547Y0158833D01*
X0157654Y0158766D01*
X0157759Y0158696D01*
X0157862Y0158622D01*
X0157962Y0158545D01*
X0158060Y0158465D01*
X0158155Y0158382D01*
X0158247Y0158296D01*
X0158337Y0158207D01*
X0158424Y0158115D01*
X0158507Y0158021D01*
X0158588Y0157924D01*
X0158666Y0157824D01*
X0158741Y0157722D01*
X0158812Y0157618D01*
X0158880Y0157511D01*
X0158944Y0157403D01*
X0159005Y0157292D01*
X0159063Y0157180D01*
X0159117Y0157066D01*
X0159167Y0156950D01*
X0159214Y0156833D01*
X0159257Y0156714D01*
X0159296Y0156594D01*
X0159332Y0156473D01*
X0159363Y0156350D01*
X0159391Y0156227D01*
X0159415Y0156103D01*
X0159435Y0155978D01*
X0159451Y0155853D01*
X0159463Y0155727D01*
X0159471Y0155601D01*
X0159475Y0155475D01*
X0159475Y0155349D01*
X0159471Y0155223D01*
X0159463Y0155097D01*
X0159451Y0154971D01*
X0159435Y0154846D01*
X0159415Y0154721D01*
X0159391Y0154597D01*
X0159363Y0154474D01*
X0159332Y0154351D01*
X0159296Y0154230D01*
X0159257Y0154110D01*
X0159214Y0153991D01*
X0159167Y0153874D01*
X0159117Y0153758D01*
X0159063Y0153644D01*
X0159005Y0153532D01*
X0158944Y0153421D01*
X0158880Y0153313D01*
X0158812Y0153206D01*
X0158741Y0153102D01*
X0158666Y0153000D01*
X0158588Y0152900D01*
X0158507Y0152803D01*
X0158424Y0152709D01*
X0158337Y0152617D01*
X0158247Y0152528D01*
X0158155Y0152442D01*
X0158060Y0152359D01*
X0157962Y0152279D01*
X0157862Y0152202D01*
X0157759Y0152128D01*
X0157654Y0152058D01*
X0157547Y0151991D01*
X0157438Y0151927D01*
X0157327Y0151867D01*
X0157215Y0151810D01*
X0157100Y0151757D01*
X0156984Y0151707D01*
X0156866Y0151662D01*
X0156747Y0151620D01*
X0156627Y0151581D01*
X0156505Y0151547D01*
X0156383Y0151516D01*
X0156259Y0151490D01*
X0156135Y0151467D01*
X0156010Y0151448D01*
X0155885Y0151433D01*
X0155759Y0151422D01*
X0155633Y0151415D01*
X0155507Y0151412D01*
X0155380Y0151413D01*
X0155254Y0151418D01*
X0155128Y0151427D01*
X0155002Y0151440D01*
X0154877Y0151457D01*
X0154753Y0151478D01*
X0154629Y0151502D01*
X0154506Y0151531D01*
X0154384Y0151564D01*
X0154263Y0151600D01*
X0154143Y0151640D01*
X0154025Y0151684D01*
X0153908Y0151732D01*
X0153792Y0151783D01*
X0153679Y0151838D01*
X0153567Y0151896D01*
X0153457Y0151958D01*
X0153349Y0152024D01*
X0153243Y0152093D01*
X0153139Y0152165D01*
X0153038Y0152240D01*
X0152939Y0152319D01*
X0152843Y0152400D01*
X0152749Y0152485D01*
X0152658Y0152572D01*
X0152570Y0152663D01*
X0152484Y0152756D01*
X0152402Y0152852D01*
X0152323Y0152950D01*
X0152246Y0153051D01*
X0152173Y0153154D01*
X0152104Y0153259D01*
X0152038Y0153367D01*
X0151975Y0153476D01*
X0151915Y0153588D01*
X0151859Y0153701D01*
X0151807Y0153816D01*
X0151759Y0153932D01*
X0151714Y0154051D01*
X0151673Y0154170D01*
X0151635Y0154291D01*
X0151602Y0154412D01*
X0151572Y0154535D01*
X0151547Y0154659D01*
X0151525Y0154783D01*
X0151507Y0154908D01*
X0151493Y0155034D01*
X0151483Y0155160D01*
X0151477Y0155286D01*
X0151475Y0155412D01*
D11*
X0149475Y0165412D02*
X0149862Y0165407D01*
X0150248Y0165393D01*
X0150634Y0165370D01*
X0151019Y0165337D01*
X0151404Y0165295D01*
X0151787Y0165244D01*
X0152169Y0165184D01*
X0152549Y0165114D01*
X0152928Y0165035D01*
X0153304Y0164947D01*
X0153678Y0164850D01*
X0154050Y0164744D01*
X0154419Y0164629D01*
X0154786Y0164505D01*
X0155149Y0164372D01*
X0155509Y0164231D01*
X0155865Y0164081D01*
X0156217Y0163922D01*
X0156566Y0163755D01*
X0156911Y0163579D01*
X0157251Y0163395D01*
X0157586Y0163204D01*
X0157917Y0163003D01*
X0158243Y0162796D01*
X0158564Y0162580D01*
X0158880Y0162356D01*
X0159190Y0162125D01*
X0159494Y0161887D01*
X0159792Y0161641D01*
X0160085Y0161388D01*
X0160371Y0161128D01*
X0160651Y0160862D01*
X0160925Y0160588D01*
X0161191Y0160308D01*
X0161451Y0160022D01*
X0161704Y0159729D01*
X0161950Y0159431D01*
X0162188Y0159127D01*
X0162419Y0158817D01*
X0162643Y0158501D01*
X0162859Y0158180D01*
X0163066Y0157854D01*
X0163267Y0157523D01*
X0163458Y0157188D01*
X0163642Y0156848D01*
X0163818Y0156503D01*
X0163985Y0156154D01*
X0164144Y0155802D01*
X0164294Y0155446D01*
X0164435Y0155086D01*
X0164568Y0154723D01*
X0164692Y0154356D01*
X0164807Y0153987D01*
X0164913Y0153615D01*
X0165010Y0153241D01*
X0165098Y0152865D01*
X0165177Y0152486D01*
X0165247Y0152106D01*
X0165307Y0151724D01*
X0165358Y0151341D01*
X0165400Y0150956D01*
X0165433Y0150571D01*
X0165456Y0150185D01*
X0165470Y0149799D01*
X0165475Y0149412D01*
X0165475Y0140593D01*
X0165474Y0140593D02*
X0165163Y0140454D01*
X0164855Y0140307D01*
X0164551Y0140152D01*
X0164251Y0139990D01*
X0163955Y0139821D01*
X0163663Y0139645D01*
X0163375Y0139461D01*
X0163092Y0139271D01*
X0162814Y0139074D01*
X0162541Y0138870D01*
X0162272Y0138659D01*
X0162009Y0138442D01*
X0161752Y0138218D01*
X0161500Y0137988D01*
X0161253Y0137753D01*
X0161013Y0137511D01*
X0160778Y0137263D01*
X0160550Y0137010D01*
X0160328Y0136751D01*
X0160112Y0136487D01*
X0159903Y0136217D01*
X0159700Y0135943D01*
X0159504Y0135664D01*
X0159315Y0135380D01*
X0159133Y0135091D01*
X0158958Y0134798D01*
X0158791Y0134501D01*
X0158631Y0134200D01*
X0158478Y0133895D01*
X0158332Y0133587D01*
X0158194Y0133275D01*
X0158064Y0132959D01*
X0157942Y0132641D01*
X0157827Y0132320D01*
X0157721Y0131996D01*
X0157622Y0131669D01*
X0157531Y0131340D01*
X0157449Y0131009D01*
X0157374Y0130677D01*
X0157308Y0130342D01*
X0157250Y0130006D01*
X0157200Y0129668D01*
X0157158Y0129330D01*
X0157125Y0128990D01*
X0157100Y0128650D01*
X0157083Y0128310D01*
X0157075Y0127969D01*
X0157075Y0127627D01*
X0157083Y0127286D01*
X0157100Y0126946D01*
X0157125Y0126606D01*
X0157158Y0126266D01*
X0157200Y0125928D01*
X0157250Y0125590D01*
X0157308Y0125254D01*
X0157374Y0124919D01*
X0157449Y0124587D01*
X0157531Y0124256D01*
X0157622Y0123927D01*
X0157721Y0123600D01*
X0157827Y0123276D01*
X0157942Y0122955D01*
X0158064Y0122637D01*
X0158194Y0122321D01*
X0158332Y0122009D01*
X0158478Y0121701D01*
X0158631Y0121396D01*
X0158791Y0121095D01*
X0158958Y0120798D01*
X0159133Y0120505D01*
X0159315Y0120216D01*
X0159504Y0119932D01*
X0159700Y0119653D01*
X0159903Y0119379D01*
X0160112Y0119109D01*
X0160328Y0118845D01*
X0160550Y0118586D01*
X0160778Y0118333D01*
X0161013Y0118085D01*
X0161253Y0117843D01*
X0161500Y0117608D01*
X0161752Y0117378D01*
X0162009Y0117154D01*
X0162272Y0116937D01*
X0162541Y0116726D01*
X0162814Y0116522D01*
X0163092Y0116325D01*
X0163375Y0116135D01*
X0163663Y0115951D01*
X0163955Y0115775D01*
X0164251Y0115606D01*
X0164551Y0115444D01*
X0164855Y0115289D01*
X0165163Y0115142D01*
X0165474Y0115003D01*
X0165475Y0115002D02*
X0165475Y0071593D01*
X0165474Y0071593D02*
X0165163Y0071454D01*
X0164855Y0071307D01*
X0164551Y0071152D01*
X0164251Y0070990D01*
X0163955Y0070821D01*
X0163663Y0070645D01*
X0163375Y0070461D01*
X0163092Y0070271D01*
X0162814Y0070074D01*
X0162541Y0069870D01*
X0162272Y0069659D01*
X0162009Y0069442D01*
X0161752Y0069218D01*
X0161500Y0068988D01*
X0161253Y0068753D01*
X0161013Y0068511D01*
X0160778Y0068263D01*
X0160550Y0068010D01*
X0160328Y0067751D01*
X0160112Y0067487D01*
X0159903Y0067217D01*
X0159700Y0066943D01*
X0159504Y0066664D01*
X0159315Y0066380D01*
X0159133Y0066091D01*
X0158958Y0065798D01*
X0158791Y0065501D01*
X0158631Y0065200D01*
X0158478Y0064895D01*
X0158332Y0064587D01*
X0158194Y0064275D01*
X0158064Y0063959D01*
X0157942Y0063641D01*
X0157827Y0063320D01*
X0157721Y0062996D01*
X0157622Y0062669D01*
X0157531Y0062340D01*
X0157449Y0062009D01*
X0157374Y0061677D01*
X0157308Y0061342D01*
X0157250Y0061006D01*
X0157200Y0060668D01*
X0157158Y0060330D01*
X0157125Y0059990D01*
X0157100Y0059650D01*
X0157083Y0059310D01*
X0157075Y0058969D01*
X0157075Y0058627D01*
X0157083Y0058286D01*
X0157100Y0057946D01*
X0157125Y0057606D01*
X0157158Y0057266D01*
X0157200Y0056928D01*
X0157250Y0056590D01*
X0157308Y0056254D01*
X0157374Y0055919D01*
X0157449Y0055587D01*
X0157531Y0055256D01*
X0157622Y0054927D01*
X0157721Y0054600D01*
X0157827Y0054276D01*
X0157942Y0053955D01*
X0158064Y0053637D01*
X0158194Y0053321D01*
X0158332Y0053009D01*
X0158478Y0052701D01*
X0158631Y0052396D01*
X0158791Y0052095D01*
X0158958Y0051798D01*
X0159133Y0051505D01*
X0159315Y0051216D01*
X0159504Y0050932D01*
X0159700Y0050653D01*
X0159903Y0050379D01*
X0160112Y0050109D01*
X0160328Y0049845D01*
X0160550Y0049586D01*
X0160778Y0049333D01*
X0161013Y0049085D01*
X0161253Y0048843D01*
X0161500Y0048608D01*
X0161752Y0048378D01*
X0162009Y0048154D01*
X0162272Y0047937D01*
X0162541Y0047726D01*
X0162814Y0047522D01*
X0163092Y0047325D01*
X0163375Y0047135D01*
X0163663Y0046951D01*
X0163955Y0046775D01*
X0164251Y0046606D01*
X0164551Y0046444D01*
X0164855Y0046289D01*
X0165163Y0046142D01*
X0165474Y0046003D01*
X0165475Y0046002D02*
X0165475Y0040412D01*
X0165469Y0039929D01*
X0165452Y0039446D01*
X0165422Y0038963D01*
X0165382Y0038482D01*
X0165329Y0038001D01*
X0165265Y0037522D01*
X0165190Y0037045D01*
X0165102Y0036569D01*
X0165004Y0036096D01*
X0164894Y0035626D01*
X0164773Y0035158D01*
X0164640Y0034693D01*
X0164496Y0034232D01*
X0164341Y0033774D01*
X0164175Y0033320D01*
X0163998Y0032870D01*
X0163811Y0032425D01*
X0163612Y0031984D01*
X0163404Y0031548D01*
X0163184Y0031118D01*
X0162954Y0030692D01*
X0162714Y0030273D01*
X0162464Y0029859D01*
X0162204Y0029452D01*
X0161935Y0029051D01*
X0161655Y0028656D01*
X0161367Y0028269D01*
X0161068Y0027888D01*
X0160761Y0027515D01*
X0160445Y0027150D01*
X0160120Y0026792D01*
X0159787Y0026442D01*
X0159445Y0026100D01*
X0159095Y0025767D01*
X0158737Y0025442D01*
X0158372Y0025126D01*
X0157999Y0024819D01*
X0157618Y0024520D01*
X0157231Y0024232D01*
X0156836Y0023952D01*
X0156435Y0023683D01*
X0156028Y0023423D01*
X0155614Y0023173D01*
X0155195Y0022933D01*
X0154769Y0022703D01*
X0154339Y0022483D01*
X0153903Y0022275D01*
X0153462Y0022076D01*
X0153017Y0021889D01*
X0152567Y0021712D01*
X0152113Y0021546D01*
X0151655Y0021391D01*
X0151194Y0021247D01*
X0150729Y0021114D01*
X0150261Y0020993D01*
X0149791Y0020883D01*
X0149318Y0020785D01*
X0148842Y0020697D01*
X0148365Y0020622D01*
X0147886Y0020558D01*
X0147405Y0020505D01*
X0146924Y0020465D01*
X0146441Y0020435D01*
X0145958Y0020418D01*
X0145475Y0020412D01*
X0073656Y0020412D01*
X0073657Y0020412D02*
X0073495Y0020772D01*
X0073325Y0021128D01*
X0073147Y0021480D01*
X0072960Y0021827D01*
X0072764Y0022170D01*
X0072560Y0022507D01*
X0072348Y0022840D01*
X0072128Y0023167D01*
X0071899Y0023489D01*
X0071663Y0023805D01*
X0071420Y0024115D01*
X0071169Y0024419D01*
X0070910Y0024717D01*
X0070645Y0025008D01*
X0070372Y0025293D01*
X0070092Y0025572D01*
X0069806Y0025843D01*
X0069513Y0026107D01*
X0069214Y0026364D01*
X0068908Y0026613D01*
X0068597Y0026855D01*
X0068279Y0027090D01*
X0067956Y0027316D01*
X0067628Y0027534D01*
X0067294Y0027745D01*
X0066956Y0027947D01*
X0066612Y0028141D01*
X0066264Y0028326D01*
X0065911Y0028503D01*
X0065555Y0028671D01*
X0065194Y0028830D01*
X0064829Y0028981D01*
X0064461Y0029122D01*
X0064090Y0029255D01*
X0063715Y0029378D01*
X0063337Y0029492D01*
X0062957Y0029597D01*
X0062574Y0029693D01*
X0062190Y0029779D01*
X0061803Y0029855D01*
X0061414Y0029923D01*
X0061024Y0029980D01*
X0060632Y0030028D01*
X0060240Y0030067D01*
X0059846Y0030096D01*
X0059453Y0030115D01*
X0059058Y0030125D01*
X0058664Y0030125D01*
X0058269Y0030115D01*
X0057876Y0030096D01*
X0057482Y0030067D01*
X0057090Y0030028D01*
X0056698Y0029980D01*
X0056308Y0029923D01*
X0055919Y0029855D01*
X0055532Y0029779D01*
X0055148Y0029693D01*
X0054765Y0029597D01*
X0054385Y0029492D01*
X0054007Y0029378D01*
X0053632Y0029255D01*
X0053261Y0029122D01*
X0052893Y0028981D01*
X0052528Y0028830D01*
X0052167Y0028671D01*
X0051811Y0028503D01*
X0051458Y0028326D01*
X0051110Y0028141D01*
X0050766Y0027947D01*
X0050428Y0027745D01*
X0050094Y0027534D01*
X0049766Y0027316D01*
X0049443Y0027090D01*
X0049125Y0026855D01*
X0048814Y0026613D01*
X0048508Y0026364D01*
X0048209Y0026107D01*
X0047916Y0025843D01*
X0047630Y0025572D01*
X0047350Y0025293D01*
X0047077Y0025008D01*
X0046812Y0024717D01*
X0046553Y0024419D01*
X0046302Y0024115D01*
X0046059Y0023805D01*
X0045823Y0023489D01*
X0045594Y0023167D01*
X0045374Y0022840D01*
X0045162Y0022507D01*
X0044958Y0022170D01*
X0044762Y0021827D01*
X0044575Y0021480D01*
X0044397Y0021128D01*
X0044227Y0020772D01*
X0044065Y0020412D01*
X0040723Y0020412D01*
X0040723Y0020411D02*
X0040275Y0020368D01*
X0039825Y0020335D01*
X0039375Y0020314D01*
X0038925Y0020303D01*
X0038474Y0020304D01*
X0038024Y0020315D01*
X0037574Y0020338D01*
X0037124Y0020372D01*
X0036676Y0020416D01*
X0036229Y0020472D01*
X0035783Y0020539D01*
X0035340Y0020616D01*
X0034898Y0020705D01*
X0034458Y0020804D01*
X0034021Y0020914D01*
X0033587Y0021035D01*
X0033156Y0021166D01*
X0032729Y0021308D01*
X0032305Y0021461D01*
X0031884Y0021623D01*
X0031468Y0021796D01*
X0031057Y0021979D01*
X0030650Y0022172D01*
X0030248Y0022376D01*
X0029850Y0022588D01*
X0029459Y0022811D01*
X0029073Y0023043D01*
X0028692Y0023285D01*
X0028318Y0023536D01*
X0027950Y0023795D01*
X0027588Y0024064D01*
X0027233Y0024342D01*
X0026886Y0024628D01*
X0026545Y0024923D01*
X0026211Y0025226D01*
X0025885Y0025537D01*
X0025567Y0025856D01*
X0025257Y0026183D01*
X0024955Y0026517D01*
X0024661Y0026859D01*
X0024376Y0027207D01*
X0024099Y0027563D01*
X0023831Y0027925D01*
X0023572Y0028294D01*
X0023322Y0028669D01*
X0023081Y0029050D01*
X0022850Y0029436D01*
X0022629Y0029829D01*
X0022417Y0030226D01*
X0022215Y0030629D01*
X0022023Y0031037D01*
X0021841Y0031449D01*
X0021669Y0031865D01*
X0021507Y0032286D01*
X0021356Y0032710D01*
X0021215Y0033138D01*
X0021085Y0033570D01*
X0020965Y0034004D01*
X0020856Y0034441D01*
X0020758Y0034881D01*
X0020671Y0035323D01*
X0020594Y0035767D01*
X0020529Y0036213D01*
X0020474Y0036660D01*
X0020475Y0036660D02*
X0020475Y0044002D01*
X0020835Y0044164D01*
X0021191Y0044334D01*
X0021543Y0044512D01*
X0021890Y0044699D01*
X0022233Y0044895D01*
X0022570Y0045099D01*
X0022903Y0045311D01*
X0023230Y0045531D01*
X0023552Y0045760D01*
X0023868Y0045996D01*
X0024178Y0046239D01*
X0024482Y0046490D01*
X0024780Y0046749D01*
X0025071Y0047014D01*
X0025356Y0047287D01*
X0025635Y0047567D01*
X0025906Y0047853D01*
X0026170Y0048146D01*
X0026427Y0048445D01*
X0026676Y0048751D01*
X0026918Y0049062D01*
X0027153Y0049380D01*
X0027379Y0049703D01*
X0027597Y0050031D01*
X0027808Y0050365D01*
X0028010Y0050703D01*
X0028204Y0051047D01*
X0028389Y0051395D01*
X0028566Y0051748D01*
X0028734Y0052104D01*
X0028893Y0052465D01*
X0029044Y0052830D01*
X0029185Y0053198D01*
X0029318Y0053569D01*
X0029441Y0053944D01*
X0029555Y0054322D01*
X0029660Y0054702D01*
X0029756Y0055085D01*
X0029842Y0055469D01*
X0029918Y0055856D01*
X0029986Y0056245D01*
X0030043Y0056635D01*
X0030091Y0057027D01*
X0030130Y0057419D01*
X0030159Y0057813D01*
X0030178Y0058206D01*
X0030188Y0058601D01*
X0030188Y0058995D01*
X0030178Y0059390D01*
X0030159Y0059783D01*
X0030130Y0060177D01*
X0030091Y0060569D01*
X0030043Y0060961D01*
X0029986Y0061351D01*
X0029918Y0061740D01*
X0029842Y0062127D01*
X0029756Y0062511D01*
X0029660Y0062894D01*
X0029555Y0063274D01*
X0029441Y0063652D01*
X0029318Y0064027D01*
X0029185Y0064398D01*
X0029044Y0064766D01*
X0028893Y0065131D01*
X0028734Y0065492D01*
X0028566Y0065848D01*
X0028389Y0066201D01*
X0028204Y0066549D01*
X0028010Y0066893D01*
X0027808Y0067231D01*
X0027597Y0067565D01*
X0027379Y0067893D01*
X0027153Y0068216D01*
X0026918Y0068534D01*
X0026676Y0068845D01*
X0026427Y0069151D01*
X0026170Y0069450D01*
X0025906Y0069743D01*
X0025635Y0070029D01*
X0025356Y0070309D01*
X0025071Y0070582D01*
X0024780Y0070847D01*
X0024482Y0071106D01*
X0024178Y0071357D01*
X0023868Y0071600D01*
X0023552Y0071836D01*
X0023230Y0072065D01*
X0022903Y0072285D01*
X0022570Y0072497D01*
X0022233Y0072701D01*
X0021890Y0072897D01*
X0021543Y0073084D01*
X0021191Y0073262D01*
X0020835Y0073432D01*
X0020475Y0073594D01*
X0020475Y0073593D02*
X0020475Y0145412D01*
X0020481Y0145895D01*
X0020498Y0146378D01*
X0020528Y0146861D01*
X0020568Y0147342D01*
X0020621Y0147823D01*
X0020685Y0148302D01*
X0020760Y0148779D01*
X0020848Y0149255D01*
X0020946Y0149728D01*
X0021056Y0150198D01*
X0021177Y0150666D01*
X0021310Y0151131D01*
X0021454Y0151592D01*
X0021609Y0152050D01*
X0021775Y0152504D01*
X0021952Y0152954D01*
X0022139Y0153399D01*
X0022338Y0153840D01*
X0022546Y0154276D01*
X0022766Y0154706D01*
X0022996Y0155132D01*
X0023236Y0155551D01*
X0023486Y0155965D01*
X0023746Y0156372D01*
X0024015Y0156773D01*
X0024295Y0157168D01*
X0024583Y0157555D01*
X0024882Y0157936D01*
X0025189Y0158309D01*
X0025505Y0158674D01*
X0025830Y0159032D01*
X0026163Y0159382D01*
X0026505Y0159724D01*
X0026855Y0160057D01*
X0027213Y0160382D01*
X0027578Y0160698D01*
X0027951Y0161005D01*
X0028332Y0161304D01*
X0028719Y0161592D01*
X0029114Y0161872D01*
X0029515Y0162141D01*
X0029922Y0162401D01*
X0030336Y0162651D01*
X0030755Y0162891D01*
X0031181Y0163121D01*
X0031611Y0163341D01*
X0032047Y0163549D01*
X0032488Y0163748D01*
X0032933Y0163935D01*
X0033383Y0164112D01*
X0033837Y0164278D01*
X0034295Y0164433D01*
X0034756Y0164577D01*
X0035221Y0164710D01*
X0035689Y0164831D01*
X0036159Y0164941D01*
X0036632Y0165039D01*
X0037108Y0165127D01*
X0037585Y0165202D01*
X0038064Y0165266D01*
X0038545Y0165319D01*
X0039026Y0165359D01*
X0039509Y0165389D01*
X0039992Y0165406D01*
X0040475Y0165412D01*
X0046065Y0165412D01*
X0046066Y0165411D02*
X0046205Y0165100D01*
X0046352Y0164792D01*
X0046507Y0164488D01*
X0046669Y0164188D01*
X0046838Y0163892D01*
X0047014Y0163600D01*
X0047198Y0163312D01*
X0047388Y0163029D01*
X0047585Y0162751D01*
X0047789Y0162478D01*
X0048000Y0162209D01*
X0048217Y0161946D01*
X0048441Y0161689D01*
X0048671Y0161437D01*
X0048906Y0161190D01*
X0049148Y0160950D01*
X0049396Y0160715D01*
X0049649Y0160487D01*
X0049908Y0160265D01*
X0050172Y0160049D01*
X0050442Y0159840D01*
X0050716Y0159637D01*
X0050995Y0159441D01*
X0051279Y0159252D01*
X0051568Y0159070D01*
X0051861Y0158895D01*
X0052158Y0158728D01*
X0052459Y0158568D01*
X0052764Y0158415D01*
X0053072Y0158269D01*
X0053384Y0158131D01*
X0053700Y0158001D01*
X0054018Y0157879D01*
X0054339Y0157764D01*
X0054663Y0157658D01*
X0054990Y0157559D01*
X0055319Y0157468D01*
X0055650Y0157386D01*
X0055982Y0157311D01*
X0056317Y0157245D01*
X0056653Y0157187D01*
X0056991Y0157137D01*
X0057329Y0157095D01*
X0057669Y0157062D01*
X0058009Y0157037D01*
X0058349Y0157020D01*
X0058690Y0157012D01*
X0059032Y0157012D01*
X0059373Y0157020D01*
X0059713Y0157037D01*
X0060053Y0157062D01*
X0060393Y0157095D01*
X0060731Y0157137D01*
X0061069Y0157187D01*
X0061405Y0157245D01*
X0061740Y0157311D01*
X0062072Y0157386D01*
X0062403Y0157468D01*
X0062732Y0157559D01*
X0063059Y0157658D01*
X0063383Y0157764D01*
X0063704Y0157879D01*
X0064022Y0158001D01*
X0064338Y0158131D01*
X0064650Y0158269D01*
X0064958Y0158415D01*
X0065263Y0158568D01*
X0065564Y0158728D01*
X0065861Y0158895D01*
X0066154Y0159070D01*
X0066443Y0159252D01*
X0066727Y0159441D01*
X0067006Y0159637D01*
X0067280Y0159840D01*
X0067550Y0160049D01*
X0067814Y0160265D01*
X0068073Y0160487D01*
X0068326Y0160715D01*
X0068574Y0160950D01*
X0068816Y0161190D01*
X0069051Y0161437D01*
X0069281Y0161689D01*
X0069505Y0161946D01*
X0069722Y0162209D01*
X0069933Y0162478D01*
X0070137Y0162751D01*
X0070334Y0163029D01*
X0070524Y0163312D01*
X0070708Y0163600D01*
X0070884Y0163892D01*
X0071053Y0164188D01*
X0071215Y0164488D01*
X0071370Y0164792D01*
X0071517Y0165100D01*
X0071656Y0165411D01*
X0071656Y0165412D02*
X0115065Y0165412D01*
X0115066Y0165411D02*
X0115205Y0165100D01*
X0115352Y0164792D01*
X0115507Y0164488D01*
X0115669Y0164188D01*
X0115838Y0163892D01*
X0116014Y0163600D01*
X0116198Y0163312D01*
X0116388Y0163029D01*
X0116585Y0162751D01*
X0116789Y0162478D01*
X0117000Y0162209D01*
X0117217Y0161946D01*
X0117441Y0161689D01*
X0117671Y0161437D01*
X0117906Y0161190D01*
X0118148Y0160950D01*
X0118396Y0160715D01*
X0118649Y0160487D01*
X0118908Y0160265D01*
X0119172Y0160049D01*
X0119442Y0159840D01*
X0119716Y0159637D01*
X0119995Y0159441D01*
X0120279Y0159252D01*
X0120568Y0159070D01*
X0120861Y0158895D01*
X0121158Y0158728D01*
X0121459Y0158568D01*
X0121764Y0158415D01*
X0122072Y0158269D01*
X0122384Y0158131D01*
X0122700Y0158001D01*
X0123018Y0157879D01*
X0123339Y0157764D01*
X0123663Y0157658D01*
X0123990Y0157559D01*
X0124319Y0157468D01*
X0124650Y0157386D01*
X0124982Y0157311D01*
X0125317Y0157245D01*
X0125653Y0157187D01*
X0125991Y0157137D01*
X0126329Y0157095D01*
X0126669Y0157062D01*
X0127009Y0157037D01*
X0127349Y0157020D01*
X0127690Y0157012D01*
X0128032Y0157012D01*
X0128373Y0157020D01*
X0128713Y0157037D01*
X0129053Y0157062D01*
X0129393Y0157095D01*
X0129731Y0157137D01*
X0130069Y0157187D01*
X0130405Y0157245D01*
X0130740Y0157311D01*
X0131072Y0157386D01*
X0131403Y0157468D01*
X0131732Y0157559D01*
X0132059Y0157658D01*
X0132383Y0157764D01*
X0132704Y0157879D01*
X0133022Y0158001D01*
X0133338Y0158131D01*
X0133650Y0158269D01*
X0133958Y0158415D01*
X0134263Y0158568D01*
X0134564Y0158728D01*
X0134861Y0158895D01*
X0135154Y0159070D01*
X0135443Y0159252D01*
X0135727Y0159441D01*
X0136006Y0159637D01*
X0136280Y0159840D01*
X0136550Y0160049D01*
X0136814Y0160265D01*
X0137073Y0160487D01*
X0137326Y0160715D01*
X0137574Y0160950D01*
X0137816Y0161190D01*
X0138051Y0161437D01*
X0138281Y0161689D01*
X0138505Y0161946D01*
X0138722Y0162209D01*
X0138933Y0162478D01*
X0139137Y0162751D01*
X0139334Y0163029D01*
X0139524Y0163312D01*
X0139708Y0163600D01*
X0139884Y0163892D01*
X0140053Y0164188D01*
X0140215Y0164488D01*
X0140370Y0164792D01*
X0140517Y0165100D01*
X0140656Y0165411D01*
X0140656Y0165412D02*
X0149475Y0165412D01*
D12*
X0123475Y0123412D03*
X0123475Y0062412D03*
X0062475Y0062412D03*
X0062475Y0123412D03*
D13*
X0079975Y0123412D03*
X0123475Y0105912D03*
X0105975Y0062412D03*
X0062475Y0079912D03*
D14*
X0062475Y0082412D02*
X0060064Y0082266D01*
X0057689Y0081831D01*
X0055383Y0081112D01*
X0053180Y0080121D01*
X0051114Y0078872D01*
X0049212Y0077382D01*
X0047505Y0075674D01*
X0046015Y0073773D01*
X0044766Y0071706D01*
X0043775Y0069504D01*
X0043056Y0067198D01*
X0042621Y0064823D01*
X0042475Y0062412D01*
X0042597Y0059844D01*
X0043054Y0057314D01*
X0043837Y0054866D01*
X0044932Y0052540D01*
X0046322Y0050377D01*
X0047983Y0048415D01*
X0049885Y0046686D01*
X0051997Y0045219D01*
X0054282Y0044042D01*
X0056701Y0043172D01*
X0059213Y0042626D01*
X0061775Y0042412D01*
X0061775Y0047412D01*
X0059866Y0047583D01*
X0057995Y0048002D01*
X0056195Y0048661D01*
X0054497Y0049550D01*
X0052929Y0050652D01*
X0051518Y0051950D01*
X0050289Y0053421D01*
X0049263Y0055040D01*
X0048456Y0056779D01*
X0047883Y0058608D01*
X0047555Y0060497D01*
X0047475Y0062412D01*
X0047628Y0064547D01*
X0048082Y0066638D01*
X0048830Y0068643D01*
X0049856Y0070521D01*
X0051139Y0072235D01*
X0052652Y0073748D01*
X0054365Y0075031D01*
X0056244Y0076056D01*
X0058249Y0076804D01*
X0060340Y0077259D01*
X0062475Y0077412D01*
X0064610Y0077259D01*
X0066701Y0076804D01*
X0068706Y0076056D01*
X0070584Y0075031D01*
X0072298Y0073748D01*
X0073811Y0072235D01*
X0075094Y0070521D01*
X0076119Y0068643D01*
X0076867Y0066638D01*
X0077322Y0064547D01*
X0077475Y0062412D01*
X0077475Y0061412D01*
X0077256Y0059353D01*
X0076747Y0057347D01*
X0075957Y0055434D01*
X0074903Y0053652D01*
X0073606Y0052039D01*
X0072092Y0050626D01*
X0070394Y0049443D01*
X0068544Y0048515D01*
X0066580Y0047858D01*
X0064544Y0047488D01*
X0062475Y0047412D01*
X0062475Y0042412D01*
X0065063Y0042643D01*
X0067601Y0043198D01*
X0070049Y0044070D01*
X0072367Y0045244D01*
X0074518Y0046702D01*
X0076468Y0048419D01*
X0078185Y0050369D01*
X0079642Y0052520D01*
X0080816Y0054838D01*
X0081688Y0057286D01*
X0082244Y0059824D01*
X0082475Y0062412D01*
X0082329Y0064823D01*
X0081894Y0067198D01*
X0081175Y0069504D01*
X0080184Y0071706D01*
X0078935Y0073773D01*
X0077445Y0075674D01*
X0075737Y0077382D01*
X0073836Y0078872D01*
X0071769Y0080121D01*
X0069567Y0081112D01*
X0067261Y0081831D01*
X0064886Y0082266D01*
X0062475Y0082412D01*
X0061712Y0082366D02*
X0063238Y0082366D01*
X0067865Y0076370D02*
X0076749Y0076370D01*
X0078466Y0074372D02*
X0071465Y0074372D01*
X0073673Y0072373D02*
X0079781Y0072373D01*
X0080783Y0070375D02*
X0075174Y0070375D01*
X0076219Y0068376D02*
X0081527Y0068376D01*
X0082044Y0066378D02*
X0076924Y0066378D01*
X0077334Y0064379D02*
X0082356Y0064379D01*
X0082472Y0062381D02*
X0077475Y0062381D01*
X0077365Y0060382D02*
X0082294Y0060382D01*
X0081929Y0058384D02*
X0077010Y0058384D01*
X0076350Y0056385D02*
X0081367Y0056385D01*
X0080588Y0054387D02*
X0075337Y0054387D01*
X0073887Y0052388D02*
X0079553Y0052388D01*
X0078199Y0050390D02*
X0071753Y0050390D01*
X0068174Y0048391D02*
X0076436Y0048391D01*
X0074061Y0046393D02*
X0062475Y0046393D01*
X0061775Y0046393D02*
X0050307Y0046393D01*
X0048009Y0048391D02*
X0056932Y0048391D01*
X0053302Y0050390D02*
X0046315Y0050390D01*
X0045030Y0052388D02*
X0051152Y0052388D01*
X0049677Y0054387D02*
X0044062Y0054387D01*
X0043351Y0056385D02*
X0048639Y0056385D01*
X0047954Y0058384D02*
X0042861Y0058384D01*
X0042572Y0060382D02*
X0047574Y0060382D01*
X0047476Y0062381D02*
X0042476Y0062381D01*
X0042594Y0064379D02*
X0047616Y0064379D01*
X0048026Y0066378D02*
X0042906Y0066378D01*
X0043423Y0068376D02*
X0048731Y0068376D01*
X0049776Y0070375D02*
X0044166Y0070375D01*
X0045169Y0072373D02*
X0051277Y0072373D01*
X0053485Y0074372D02*
X0046484Y0074372D01*
X0048201Y0076370D02*
X0057085Y0076370D01*
X0053727Y0080367D02*
X0071222Y0080367D01*
X0074478Y0078369D02*
X0050472Y0078369D01*
X0057349Y0104198D02*
X0054901Y0105070D01*
X0052583Y0106244D01*
X0050432Y0107702D01*
X0048482Y0109419D01*
X0046765Y0111369D01*
X0045307Y0113520D01*
X0044133Y0115838D01*
X0043261Y0118286D01*
X0042706Y0120824D01*
X0042475Y0123412D01*
X0047475Y0123412D01*
X0047551Y0121343D01*
X0047921Y0119306D01*
X0048577Y0117343D01*
X0049506Y0115493D01*
X0050689Y0113794D01*
X0052102Y0112281D01*
X0053715Y0110984D01*
X0055497Y0109930D01*
X0057410Y0109140D01*
X0059416Y0108631D01*
X0061475Y0108412D01*
X0062475Y0108412D01*
X0064610Y0108565D01*
X0066701Y0109019D01*
X0068706Y0109767D01*
X0070584Y0110793D01*
X0072298Y0112076D01*
X0073811Y0113589D01*
X0075094Y0115302D01*
X0076119Y0117181D01*
X0076867Y0119186D01*
X0077322Y0121277D01*
X0077475Y0123412D01*
X0077322Y0125547D01*
X0076867Y0127638D01*
X0076119Y0129643D01*
X0075094Y0131521D01*
X0073811Y0133235D01*
X0072298Y0134748D01*
X0070584Y0136031D01*
X0068706Y0137056D01*
X0066701Y0137804D01*
X0064610Y0138259D01*
X0062475Y0138412D01*
X0060560Y0138332D01*
X0058671Y0138003D01*
X0056842Y0137431D01*
X0055103Y0136624D01*
X0053484Y0135598D01*
X0052013Y0134368D01*
X0050715Y0132958D01*
X0049613Y0131390D01*
X0048724Y0129692D01*
X0048065Y0127892D01*
X0047646Y0126021D01*
X0047475Y0124112D01*
X0042475Y0124112D01*
X0042689Y0126674D01*
X0043235Y0129186D01*
X0044105Y0131605D01*
X0045282Y0133890D01*
X0046749Y0136002D01*
X0048478Y0137904D01*
X0050440Y0139564D01*
X0052603Y0140954D01*
X0054928Y0142050D01*
X0057377Y0142833D01*
X0059907Y0143289D01*
X0062475Y0143412D01*
X0064886Y0143266D01*
X0067261Y0142831D01*
X0069567Y0142112D01*
X0071769Y0141121D01*
X0073836Y0139872D01*
X0075737Y0138382D01*
X0077445Y0136674D01*
X0078935Y0134773D01*
X0080184Y0132706D01*
X0081175Y0130504D01*
X0081894Y0128198D01*
X0082329Y0125823D01*
X0082475Y0123412D01*
X0082329Y0121001D01*
X0081894Y0118626D01*
X0081175Y0116320D01*
X0080184Y0114117D01*
X0078935Y0112051D01*
X0077445Y0110149D01*
X0075737Y0108442D01*
X0073836Y0106952D01*
X0071769Y0105703D01*
X0069567Y0104712D01*
X0067261Y0103993D01*
X0064886Y0103558D01*
X0062475Y0103412D01*
X0059887Y0103643D01*
X0057349Y0104198D01*
X0056925Y0104349D02*
X0068405Y0104349D01*
X0072836Y0106348D02*
X0052430Y0106348D01*
X0049700Y0108346D02*
X0075616Y0108346D01*
X0077598Y0110345D02*
X0069764Y0110345D01*
X0072566Y0112343D02*
X0079112Y0112343D01*
X0080285Y0114342D02*
X0074375Y0114342D01*
X0075661Y0116340D02*
X0081182Y0116340D01*
X0081804Y0118339D02*
X0076551Y0118339D01*
X0077118Y0120337D02*
X0082207Y0120337D01*
X0082410Y0122336D02*
X0077398Y0122336D01*
X0077409Y0124334D02*
X0082419Y0124334D01*
X0082236Y0126333D02*
X0077151Y0126333D01*
X0076609Y0128331D02*
X0081852Y0128331D01*
X0081229Y0130330D02*
X0075744Y0130330D01*
X0074490Y0132329D02*
X0080354Y0132329D01*
X0079204Y0134327D02*
X0072719Y0134327D01*
X0070044Y0136326D02*
X0077718Y0136326D01*
X0075795Y0138324D02*
X0063703Y0138324D01*
X0060513Y0138324D02*
X0048974Y0138324D01*
X0047043Y0136326D02*
X0054632Y0136326D01*
X0051975Y0134327D02*
X0045586Y0134327D01*
X0044478Y0132329D02*
X0050273Y0132329D01*
X0049058Y0130330D02*
X0043646Y0130330D01*
X0043049Y0128331D02*
X0048226Y0128331D01*
X0047716Y0126333D02*
X0042660Y0126333D01*
X0042493Y0124334D02*
X0047495Y0124334D01*
X0047515Y0122336D02*
X0042571Y0122336D01*
X0042812Y0120337D02*
X0047734Y0120337D01*
X0048245Y0118339D02*
X0043250Y0118339D01*
X0043954Y0116340D02*
X0049081Y0116340D01*
X0050308Y0114342D02*
X0044891Y0114342D01*
X0046105Y0112343D02*
X0052043Y0112343D01*
X0054795Y0110345D02*
X0047667Y0110345D01*
X0051620Y0140323D02*
X0073090Y0140323D01*
X0068897Y0142321D02*
X0055776Y0142321D01*
X0104261Y0128538D02*
X0103706Y0126000D01*
X0103475Y0123412D01*
X0103621Y0121001D01*
X0104056Y0118626D01*
X0104775Y0116320D01*
X0105766Y0114117D01*
X0107015Y0112051D01*
X0108505Y0110149D01*
X0110212Y0108442D01*
X0112114Y0106952D01*
X0114180Y0105703D01*
X0116383Y0104712D01*
X0118689Y0103993D01*
X0121064Y0103558D01*
X0123475Y0103412D01*
X0125886Y0103558D01*
X0128261Y0103993D01*
X0130567Y0104712D01*
X0132769Y0105703D01*
X0134836Y0106952D01*
X0136737Y0108442D01*
X0138445Y0110149D01*
X0139935Y0112051D01*
X0141184Y0114117D01*
X0142175Y0116320D01*
X0142894Y0118626D01*
X0143329Y0121001D01*
X0143475Y0123412D01*
X0143352Y0125980D01*
X0142896Y0128510D01*
X0142113Y0130958D01*
X0141017Y0133284D01*
X0139627Y0135446D01*
X0137967Y0137409D01*
X0136065Y0139138D01*
X0133953Y0140604D01*
X0131668Y0141782D01*
X0129249Y0142652D01*
X0126737Y0143198D01*
X0124175Y0143412D01*
X0124175Y0138412D01*
X0126084Y0138241D01*
X0127955Y0137822D01*
X0129755Y0137163D01*
X0131453Y0136274D01*
X0133021Y0135171D01*
X0134431Y0133873D01*
X0135661Y0132403D01*
X0136687Y0130784D01*
X0137494Y0129045D01*
X0138066Y0127216D01*
X0138395Y0125327D01*
X0138475Y0123412D01*
X0138322Y0121277D01*
X0137867Y0119186D01*
X0137119Y0117181D01*
X0136094Y0115302D01*
X0134811Y0113589D01*
X0133298Y0112076D01*
X0131584Y0110793D01*
X0129706Y0109767D01*
X0127701Y0109019D01*
X0125610Y0108565D01*
X0123475Y0108412D01*
X0121340Y0108565D01*
X0119249Y0109019D01*
X0117244Y0109767D01*
X0115365Y0110793D01*
X0113652Y0112076D01*
X0112139Y0113589D01*
X0110856Y0115302D01*
X0109830Y0117181D01*
X0109082Y0119186D01*
X0108628Y0121277D01*
X0108475Y0123412D01*
X0108475Y0124412D01*
X0108694Y0126470D01*
X0109203Y0128477D01*
X0109993Y0130390D01*
X0111047Y0132172D01*
X0112344Y0133785D01*
X0113857Y0135198D01*
X0115556Y0136380D01*
X0117406Y0137309D01*
X0119369Y0137965D01*
X0121406Y0138335D01*
X0123475Y0138412D01*
X0123475Y0143412D01*
X0120887Y0143181D01*
X0118349Y0142625D01*
X0115901Y0141753D01*
X0113583Y0140579D01*
X0111432Y0139122D01*
X0109482Y0137405D01*
X0107765Y0135455D01*
X0106307Y0133304D01*
X0105133Y0130986D01*
X0104261Y0128538D01*
X0104216Y0128331D02*
X0109166Y0128331D01*
X0108679Y0126333D02*
X0103779Y0126333D01*
X0103557Y0124334D02*
X0108475Y0124334D01*
X0108552Y0122336D02*
X0103540Y0122336D01*
X0103742Y0120337D02*
X0108832Y0120337D01*
X0109398Y0118339D02*
X0104145Y0118339D01*
X0104768Y0116340D02*
X0110289Y0116340D01*
X0111575Y0114342D02*
X0105665Y0114342D01*
X0106838Y0112343D02*
X0113384Y0112343D01*
X0116186Y0110345D02*
X0108352Y0110345D01*
X0110334Y0108346D02*
X0136616Y0108346D01*
X0138598Y0110345D02*
X0130764Y0110345D01*
X0133566Y0112343D02*
X0140112Y0112343D01*
X0141285Y0114342D02*
X0135375Y0114342D01*
X0136661Y0116340D02*
X0142182Y0116340D01*
X0142804Y0118339D02*
X0137551Y0118339D01*
X0138118Y0120337D02*
X0143207Y0120337D01*
X0143410Y0122336D02*
X0138398Y0122336D01*
X0138437Y0124334D02*
X0143431Y0124334D01*
X0143289Y0126333D02*
X0138220Y0126333D01*
X0137717Y0128331D02*
X0142928Y0128331D01*
X0142314Y0130330D02*
X0136898Y0130330D01*
X0135708Y0132329D02*
X0141467Y0132329D01*
X0140347Y0134327D02*
X0133939Y0134327D01*
X0131355Y0136326D02*
X0138884Y0136326D01*
X0136960Y0138324D02*
X0125155Y0138324D01*
X0124175Y0140323D02*
X0134359Y0140323D01*
X0130169Y0142321D02*
X0124175Y0142321D01*
X0123475Y0142321D02*
X0117495Y0142321D01*
X0121343Y0138324D02*
X0110526Y0138324D01*
X0108532Y0136326D02*
X0115477Y0136326D01*
X0112924Y0134327D02*
X0107001Y0134327D01*
X0105813Y0132329D02*
X0111173Y0132329D01*
X0109968Y0130330D02*
X0104900Y0130330D01*
X0113204Y0140323D02*
X0123475Y0140323D01*
X0133836Y0106348D02*
X0113113Y0106348D01*
X0117545Y0104349D02*
X0129405Y0104349D01*
X0126063Y0082181D02*
X0123475Y0082412D01*
X0121064Y0082266D01*
X0118689Y0081831D01*
X0116383Y0081112D01*
X0114180Y0080121D01*
X0112114Y0078872D01*
X0110212Y0077382D01*
X0108505Y0075674D01*
X0107015Y0073773D01*
X0105766Y0071706D01*
X0104775Y0069504D01*
X0104056Y0067198D01*
X0103621Y0064823D01*
X0103475Y0062412D01*
X0103621Y0060001D01*
X0104056Y0057626D01*
X0104775Y0055320D01*
X0105766Y0053117D01*
X0107015Y0051051D01*
X0108505Y0049149D01*
X0110212Y0047442D01*
X0112114Y0045952D01*
X0114180Y0044703D01*
X0116383Y0043712D01*
X0118689Y0042993D01*
X0121064Y0042558D01*
X0123475Y0042412D01*
X0126043Y0042534D01*
X0128573Y0042991D01*
X0131021Y0043774D01*
X0133347Y0044869D01*
X0135509Y0046259D01*
X0137472Y0047920D01*
X0139201Y0049822D01*
X0140667Y0051934D01*
X0141845Y0054219D01*
X0142715Y0056638D01*
X0143261Y0059150D01*
X0143475Y0061712D01*
X0138475Y0061712D01*
X0138304Y0059803D01*
X0137885Y0057932D01*
X0137226Y0056132D01*
X0136337Y0054434D01*
X0135234Y0052866D01*
X0133936Y0051455D01*
X0132466Y0050226D01*
X0130847Y0049200D01*
X0129108Y0048393D01*
X0127278Y0047820D01*
X0125390Y0047492D01*
X0123475Y0047412D01*
X0121340Y0047565D01*
X0119249Y0048019D01*
X0117244Y0048767D01*
X0115365Y0049793D01*
X0113652Y0051076D01*
X0112139Y0052589D01*
X0110856Y0054302D01*
X0109830Y0056181D01*
X0109082Y0058186D01*
X0108628Y0060277D01*
X0108475Y0062412D01*
X0108628Y0064547D01*
X0109082Y0066638D01*
X0109830Y0068643D01*
X0110856Y0070521D01*
X0112139Y0072235D01*
X0113652Y0073748D01*
X0115365Y0075031D01*
X0117244Y0076056D01*
X0119249Y0076804D01*
X0121340Y0077259D01*
X0123475Y0077412D01*
X0124475Y0077412D01*
X0126533Y0077193D01*
X0128540Y0076684D01*
X0130453Y0075894D01*
X0132235Y0074840D01*
X0133848Y0073543D01*
X0135261Y0072029D01*
X0136443Y0070331D01*
X0137372Y0068481D01*
X0138028Y0066517D01*
X0138398Y0064481D01*
X0138475Y0062412D01*
X0143475Y0062412D01*
X0143244Y0065000D01*
X0142688Y0067538D01*
X0141816Y0069986D01*
X0140642Y0072304D01*
X0139185Y0074455D01*
X0137468Y0076405D01*
X0135518Y0078122D01*
X0133367Y0079579D01*
X0131049Y0080753D01*
X0128601Y0081625D01*
X0126063Y0082181D01*
X0123992Y0082366D02*
X0122712Y0082366D01*
X0118085Y0076370D02*
X0109201Y0076370D01*
X0107484Y0074372D02*
X0114485Y0074372D01*
X0112277Y0072373D02*
X0106169Y0072373D01*
X0105166Y0070375D02*
X0110776Y0070375D01*
X0109731Y0068376D02*
X0104423Y0068376D01*
X0103906Y0066378D02*
X0109026Y0066378D01*
X0108616Y0064379D02*
X0103594Y0064379D01*
X0103477Y0062381D02*
X0108477Y0062381D01*
X0108620Y0060382D02*
X0103598Y0060382D01*
X0103917Y0058384D02*
X0109039Y0058384D01*
X0109754Y0056385D02*
X0104443Y0056385D01*
X0105195Y0054387D02*
X0110810Y0054387D01*
X0112340Y0052388D02*
X0106207Y0052388D01*
X0107533Y0050390D02*
X0114568Y0050390D01*
X0118253Y0048391D02*
X0109263Y0048391D01*
X0111552Y0046393D02*
X0135667Y0046393D01*
X0137900Y0048391D02*
X0129101Y0048391D01*
X0132661Y0050390D02*
X0139595Y0050390D01*
X0140901Y0052388D02*
X0134795Y0052388D01*
X0136304Y0054387D02*
X0141905Y0054387D01*
X0142624Y0056385D02*
X0137318Y0056385D01*
X0137986Y0058384D02*
X0143094Y0058384D01*
X0143364Y0060382D02*
X0138356Y0060382D01*
X0138402Y0064379D02*
X0143299Y0064379D01*
X0142942Y0066378D02*
X0138054Y0066378D01*
X0137407Y0068376D02*
X0142390Y0068376D01*
X0141619Y0070375D02*
X0136413Y0070375D01*
X0134940Y0072373D02*
X0140595Y0072373D01*
X0139241Y0074372D02*
X0132817Y0074372D01*
X0129299Y0076370D02*
X0137498Y0076370D01*
X0135154Y0078369D02*
X0111472Y0078369D01*
X0114727Y0080367D02*
X0131811Y0080367D01*
X0132338Y0044394D02*
X0114866Y0044394D01*
X0070688Y0044394D02*
X0062475Y0044394D01*
X0061775Y0044394D02*
X0053598Y0044394D01*
M02*
