G75*
%MOIN*%
%OFA0B0*%
%FSLAX25Y25*%
%IPPOS*%
%LPD*%
%AMOC8*
5,1,8,0,0,1.08239X$1,22.5*
%
%ADD10C,0.00000*%
%ADD11C,0.01600*%
%ADD12R,0.17000X0.13000*%
%ADD13C,0.07400*%
%ADD14C,0.00583*%
%ADD15R,0.02913X0.11024*%
%ADD16C,0.03346*%
%ADD17R,0.05118X0.06299*%
%ADD18R,0.07874X0.05906*%
%ADD19C,0.02700*%
%ADD20C,0.01000*%
%ADD21C,0.00600*%
D10*
X0017840Y0042840D02*
X0017842Y0042966D01*
X0017848Y0043092D01*
X0017858Y0043218D01*
X0017872Y0043344D01*
X0017890Y0043469D01*
X0017912Y0043593D01*
X0017937Y0043717D01*
X0017967Y0043840D01*
X0018000Y0043961D01*
X0018038Y0044082D01*
X0018079Y0044201D01*
X0018124Y0044320D01*
X0018172Y0044436D01*
X0018224Y0044551D01*
X0018280Y0044664D01*
X0018340Y0044776D01*
X0018403Y0044885D01*
X0018469Y0044993D01*
X0018538Y0045098D01*
X0018611Y0045201D01*
X0018688Y0045302D01*
X0018767Y0045400D01*
X0018849Y0045496D01*
X0018935Y0045589D01*
X0019023Y0045680D01*
X0019114Y0045767D01*
X0019208Y0045852D01*
X0019304Y0045933D01*
X0019403Y0046012D01*
X0019504Y0046087D01*
X0019608Y0046159D01*
X0019714Y0046228D01*
X0019822Y0046294D01*
X0019932Y0046356D01*
X0020044Y0046414D01*
X0020157Y0046469D01*
X0020273Y0046520D01*
X0020390Y0046568D01*
X0020508Y0046612D01*
X0020628Y0046652D01*
X0020749Y0046688D01*
X0020871Y0046721D01*
X0020994Y0046750D01*
X0021118Y0046774D01*
X0021242Y0046795D01*
X0021367Y0046812D01*
X0021493Y0046825D01*
X0021619Y0046834D01*
X0021745Y0046839D01*
X0021872Y0046840D01*
X0021998Y0046837D01*
X0022124Y0046830D01*
X0022250Y0046819D01*
X0022375Y0046804D01*
X0022500Y0046785D01*
X0022624Y0046762D01*
X0022748Y0046736D01*
X0022870Y0046705D01*
X0022992Y0046671D01*
X0023112Y0046632D01*
X0023231Y0046590D01*
X0023349Y0046545D01*
X0023465Y0046495D01*
X0023580Y0046442D01*
X0023692Y0046385D01*
X0023803Y0046325D01*
X0023912Y0046261D01*
X0024019Y0046194D01*
X0024124Y0046124D01*
X0024227Y0046050D01*
X0024327Y0045973D01*
X0024425Y0045893D01*
X0024520Y0045810D01*
X0024612Y0045724D01*
X0024702Y0045635D01*
X0024789Y0045543D01*
X0024872Y0045449D01*
X0024953Y0045352D01*
X0025031Y0045252D01*
X0025106Y0045150D01*
X0025177Y0045046D01*
X0025245Y0044939D01*
X0025309Y0044831D01*
X0025370Y0044720D01*
X0025428Y0044608D01*
X0025482Y0044494D01*
X0025532Y0044378D01*
X0025579Y0044261D01*
X0025622Y0044142D01*
X0025661Y0044022D01*
X0025697Y0043901D01*
X0025728Y0043778D01*
X0025756Y0043655D01*
X0025780Y0043531D01*
X0025800Y0043406D01*
X0025816Y0043281D01*
X0025828Y0043155D01*
X0025836Y0043029D01*
X0025840Y0042903D01*
X0025840Y0042777D01*
X0025836Y0042651D01*
X0025828Y0042525D01*
X0025816Y0042399D01*
X0025800Y0042274D01*
X0025780Y0042149D01*
X0025756Y0042025D01*
X0025728Y0041902D01*
X0025697Y0041779D01*
X0025661Y0041658D01*
X0025622Y0041538D01*
X0025579Y0041419D01*
X0025532Y0041302D01*
X0025482Y0041186D01*
X0025428Y0041072D01*
X0025370Y0040960D01*
X0025309Y0040849D01*
X0025245Y0040741D01*
X0025177Y0040634D01*
X0025106Y0040530D01*
X0025031Y0040428D01*
X0024953Y0040328D01*
X0024872Y0040231D01*
X0024789Y0040137D01*
X0024702Y0040045D01*
X0024612Y0039956D01*
X0024520Y0039870D01*
X0024425Y0039787D01*
X0024327Y0039707D01*
X0024227Y0039630D01*
X0024124Y0039556D01*
X0024019Y0039486D01*
X0023912Y0039419D01*
X0023803Y0039355D01*
X0023692Y0039295D01*
X0023580Y0039238D01*
X0023465Y0039185D01*
X0023349Y0039135D01*
X0023231Y0039090D01*
X0023112Y0039048D01*
X0022992Y0039009D01*
X0022870Y0038975D01*
X0022748Y0038944D01*
X0022624Y0038918D01*
X0022500Y0038895D01*
X0022375Y0038876D01*
X0022250Y0038861D01*
X0022124Y0038850D01*
X0021998Y0038843D01*
X0021872Y0038840D01*
X0021745Y0038841D01*
X0021619Y0038846D01*
X0021493Y0038855D01*
X0021367Y0038868D01*
X0021242Y0038885D01*
X0021118Y0038906D01*
X0020994Y0038930D01*
X0020871Y0038959D01*
X0020749Y0038992D01*
X0020628Y0039028D01*
X0020508Y0039068D01*
X0020390Y0039112D01*
X0020273Y0039160D01*
X0020157Y0039211D01*
X0020044Y0039266D01*
X0019932Y0039324D01*
X0019822Y0039386D01*
X0019714Y0039452D01*
X0019608Y0039521D01*
X0019504Y0039593D01*
X0019403Y0039668D01*
X0019304Y0039747D01*
X0019208Y0039828D01*
X0019114Y0039913D01*
X0019023Y0040000D01*
X0018935Y0040091D01*
X0018849Y0040184D01*
X0018767Y0040280D01*
X0018688Y0040378D01*
X0018611Y0040479D01*
X0018538Y0040582D01*
X0018469Y0040687D01*
X0018403Y0040795D01*
X0018340Y0040904D01*
X0018280Y0041016D01*
X0018224Y0041129D01*
X0018172Y0041244D01*
X0018124Y0041360D01*
X0018079Y0041479D01*
X0018038Y0041598D01*
X0018000Y0041719D01*
X0017967Y0041840D01*
X0017937Y0041963D01*
X0017912Y0042087D01*
X0017890Y0042211D01*
X0017872Y0042336D01*
X0017858Y0042462D01*
X0017848Y0042588D01*
X0017842Y0042714D01*
X0017840Y0042840D01*
X0038840Y0021840D02*
X0038842Y0021966D01*
X0038848Y0022092D01*
X0038858Y0022218D01*
X0038872Y0022344D01*
X0038890Y0022469D01*
X0038912Y0022593D01*
X0038937Y0022717D01*
X0038967Y0022840D01*
X0039000Y0022961D01*
X0039038Y0023082D01*
X0039079Y0023201D01*
X0039124Y0023320D01*
X0039172Y0023436D01*
X0039224Y0023551D01*
X0039280Y0023664D01*
X0039340Y0023776D01*
X0039403Y0023885D01*
X0039469Y0023993D01*
X0039538Y0024098D01*
X0039611Y0024201D01*
X0039688Y0024302D01*
X0039767Y0024400D01*
X0039849Y0024496D01*
X0039935Y0024589D01*
X0040023Y0024680D01*
X0040114Y0024767D01*
X0040208Y0024852D01*
X0040304Y0024933D01*
X0040403Y0025012D01*
X0040504Y0025087D01*
X0040608Y0025159D01*
X0040714Y0025228D01*
X0040822Y0025294D01*
X0040932Y0025356D01*
X0041044Y0025414D01*
X0041157Y0025469D01*
X0041273Y0025520D01*
X0041390Y0025568D01*
X0041508Y0025612D01*
X0041628Y0025652D01*
X0041749Y0025688D01*
X0041871Y0025721D01*
X0041994Y0025750D01*
X0042118Y0025774D01*
X0042242Y0025795D01*
X0042367Y0025812D01*
X0042493Y0025825D01*
X0042619Y0025834D01*
X0042745Y0025839D01*
X0042872Y0025840D01*
X0042998Y0025837D01*
X0043124Y0025830D01*
X0043250Y0025819D01*
X0043375Y0025804D01*
X0043500Y0025785D01*
X0043624Y0025762D01*
X0043748Y0025736D01*
X0043870Y0025705D01*
X0043992Y0025671D01*
X0044112Y0025632D01*
X0044231Y0025590D01*
X0044349Y0025545D01*
X0044465Y0025495D01*
X0044580Y0025442D01*
X0044692Y0025385D01*
X0044803Y0025325D01*
X0044912Y0025261D01*
X0045019Y0025194D01*
X0045124Y0025124D01*
X0045227Y0025050D01*
X0045327Y0024973D01*
X0045425Y0024893D01*
X0045520Y0024810D01*
X0045612Y0024724D01*
X0045702Y0024635D01*
X0045789Y0024543D01*
X0045872Y0024449D01*
X0045953Y0024352D01*
X0046031Y0024252D01*
X0046106Y0024150D01*
X0046177Y0024046D01*
X0046245Y0023939D01*
X0046309Y0023831D01*
X0046370Y0023720D01*
X0046428Y0023608D01*
X0046482Y0023494D01*
X0046532Y0023378D01*
X0046579Y0023261D01*
X0046622Y0023142D01*
X0046661Y0023022D01*
X0046697Y0022901D01*
X0046728Y0022778D01*
X0046756Y0022655D01*
X0046780Y0022531D01*
X0046800Y0022406D01*
X0046816Y0022281D01*
X0046828Y0022155D01*
X0046836Y0022029D01*
X0046840Y0021903D01*
X0046840Y0021777D01*
X0046836Y0021651D01*
X0046828Y0021525D01*
X0046816Y0021399D01*
X0046800Y0021274D01*
X0046780Y0021149D01*
X0046756Y0021025D01*
X0046728Y0020902D01*
X0046697Y0020779D01*
X0046661Y0020658D01*
X0046622Y0020538D01*
X0046579Y0020419D01*
X0046532Y0020302D01*
X0046482Y0020186D01*
X0046428Y0020072D01*
X0046370Y0019960D01*
X0046309Y0019849D01*
X0046245Y0019741D01*
X0046177Y0019634D01*
X0046106Y0019530D01*
X0046031Y0019428D01*
X0045953Y0019328D01*
X0045872Y0019231D01*
X0045789Y0019137D01*
X0045702Y0019045D01*
X0045612Y0018956D01*
X0045520Y0018870D01*
X0045425Y0018787D01*
X0045327Y0018707D01*
X0045227Y0018630D01*
X0045124Y0018556D01*
X0045019Y0018486D01*
X0044912Y0018419D01*
X0044803Y0018355D01*
X0044692Y0018295D01*
X0044580Y0018238D01*
X0044465Y0018185D01*
X0044349Y0018135D01*
X0044231Y0018090D01*
X0044112Y0018048D01*
X0043992Y0018009D01*
X0043870Y0017975D01*
X0043748Y0017944D01*
X0043624Y0017918D01*
X0043500Y0017895D01*
X0043375Y0017876D01*
X0043250Y0017861D01*
X0043124Y0017850D01*
X0042998Y0017843D01*
X0042872Y0017840D01*
X0042745Y0017841D01*
X0042619Y0017846D01*
X0042493Y0017855D01*
X0042367Y0017868D01*
X0042242Y0017885D01*
X0042118Y0017906D01*
X0041994Y0017930D01*
X0041871Y0017959D01*
X0041749Y0017992D01*
X0041628Y0018028D01*
X0041508Y0018068D01*
X0041390Y0018112D01*
X0041273Y0018160D01*
X0041157Y0018211D01*
X0041044Y0018266D01*
X0040932Y0018324D01*
X0040822Y0018386D01*
X0040714Y0018452D01*
X0040608Y0018521D01*
X0040504Y0018593D01*
X0040403Y0018668D01*
X0040304Y0018747D01*
X0040208Y0018828D01*
X0040114Y0018913D01*
X0040023Y0019000D01*
X0039935Y0019091D01*
X0039849Y0019184D01*
X0039767Y0019280D01*
X0039688Y0019378D01*
X0039611Y0019479D01*
X0039538Y0019582D01*
X0039469Y0019687D01*
X0039403Y0019795D01*
X0039340Y0019904D01*
X0039280Y0020016D01*
X0039224Y0020129D01*
X0039172Y0020244D01*
X0039124Y0020360D01*
X0039079Y0020479D01*
X0039038Y0020598D01*
X0039000Y0020719D01*
X0038967Y0020840D01*
X0038937Y0020963D01*
X0038912Y0021087D01*
X0038890Y0021211D01*
X0038872Y0021336D01*
X0038858Y0021462D01*
X0038848Y0021588D01*
X0038842Y0021714D01*
X0038840Y0021840D01*
X0144840Y0027840D02*
X0144842Y0027966D01*
X0144848Y0028092D01*
X0144858Y0028218D01*
X0144872Y0028344D01*
X0144890Y0028469D01*
X0144912Y0028593D01*
X0144937Y0028717D01*
X0144967Y0028840D01*
X0145000Y0028961D01*
X0145038Y0029082D01*
X0145079Y0029201D01*
X0145124Y0029320D01*
X0145172Y0029436D01*
X0145224Y0029551D01*
X0145280Y0029664D01*
X0145340Y0029776D01*
X0145403Y0029885D01*
X0145469Y0029993D01*
X0145538Y0030098D01*
X0145611Y0030201D01*
X0145688Y0030302D01*
X0145767Y0030400D01*
X0145849Y0030496D01*
X0145935Y0030589D01*
X0146023Y0030680D01*
X0146114Y0030767D01*
X0146208Y0030852D01*
X0146304Y0030933D01*
X0146403Y0031012D01*
X0146504Y0031087D01*
X0146608Y0031159D01*
X0146714Y0031228D01*
X0146822Y0031294D01*
X0146932Y0031356D01*
X0147044Y0031414D01*
X0147157Y0031469D01*
X0147273Y0031520D01*
X0147390Y0031568D01*
X0147508Y0031612D01*
X0147628Y0031652D01*
X0147749Y0031688D01*
X0147871Y0031721D01*
X0147994Y0031750D01*
X0148118Y0031774D01*
X0148242Y0031795D01*
X0148367Y0031812D01*
X0148493Y0031825D01*
X0148619Y0031834D01*
X0148745Y0031839D01*
X0148872Y0031840D01*
X0148998Y0031837D01*
X0149124Y0031830D01*
X0149250Y0031819D01*
X0149375Y0031804D01*
X0149500Y0031785D01*
X0149624Y0031762D01*
X0149748Y0031736D01*
X0149870Y0031705D01*
X0149992Y0031671D01*
X0150112Y0031632D01*
X0150231Y0031590D01*
X0150349Y0031545D01*
X0150465Y0031495D01*
X0150580Y0031442D01*
X0150692Y0031385D01*
X0150803Y0031325D01*
X0150912Y0031261D01*
X0151019Y0031194D01*
X0151124Y0031124D01*
X0151227Y0031050D01*
X0151327Y0030973D01*
X0151425Y0030893D01*
X0151520Y0030810D01*
X0151612Y0030724D01*
X0151702Y0030635D01*
X0151789Y0030543D01*
X0151872Y0030449D01*
X0151953Y0030352D01*
X0152031Y0030252D01*
X0152106Y0030150D01*
X0152177Y0030046D01*
X0152245Y0029939D01*
X0152309Y0029831D01*
X0152370Y0029720D01*
X0152428Y0029608D01*
X0152482Y0029494D01*
X0152532Y0029378D01*
X0152579Y0029261D01*
X0152622Y0029142D01*
X0152661Y0029022D01*
X0152697Y0028901D01*
X0152728Y0028778D01*
X0152756Y0028655D01*
X0152780Y0028531D01*
X0152800Y0028406D01*
X0152816Y0028281D01*
X0152828Y0028155D01*
X0152836Y0028029D01*
X0152840Y0027903D01*
X0152840Y0027777D01*
X0152836Y0027651D01*
X0152828Y0027525D01*
X0152816Y0027399D01*
X0152800Y0027274D01*
X0152780Y0027149D01*
X0152756Y0027025D01*
X0152728Y0026902D01*
X0152697Y0026779D01*
X0152661Y0026658D01*
X0152622Y0026538D01*
X0152579Y0026419D01*
X0152532Y0026302D01*
X0152482Y0026186D01*
X0152428Y0026072D01*
X0152370Y0025960D01*
X0152309Y0025849D01*
X0152245Y0025741D01*
X0152177Y0025634D01*
X0152106Y0025530D01*
X0152031Y0025428D01*
X0151953Y0025328D01*
X0151872Y0025231D01*
X0151789Y0025137D01*
X0151702Y0025045D01*
X0151612Y0024956D01*
X0151520Y0024870D01*
X0151425Y0024787D01*
X0151327Y0024707D01*
X0151227Y0024630D01*
X0151124Y0024556D01*
X0151019Y0024486D01*
X0150912Y0024419D01*
X0150803Y0024355D01*
X0150692Y0024295D01*
X0150580Y0024238D01*
X0150465Y0024185D01*
X0150349Y0024135D01*
X0150231Y0024090D01*
X0150112Y0024048D01*
X0149992Y0024009D01*
X0149870Y0023975D01*
X0149748Y0023944D01*
X0149624Y0023918D01*
X0149500Y0023895D01*
X0149375Y0023876D01*
X0149250Y0023861D01*
X0149124Y0023850D01*
X0148998Y0023843D01*
X0148872Y0023840D01*
X0148745Y0023841D01*
X0148619Y0023846D01*
X0148493Y0023855D01*
X0148367Y0023868D01*
X0148242Y0023885D01*
X0148118Y0023906D01*
X0147994Y0023930D01*
X0147871Y0023959D01*
X0147749Y0023992D01*
X0147628Y0024028D01*
X0147508Y0024068D01*
X0147390Y0024112D01*
X0147273Y0024160D01*
X0147157Y0024211D01*
X0147044Y0024266D01*
X0146932Y0024324D01*
X0146822Y0024386D01*
X0146714Y0024452D01*
X0146608Y0024521D01*
X0146504Y0024593D01*
X0146403Y0024668D01*
X0146304Y0024747D01*
X0146208Y0024828D01*
X0146114Y0024913D01*
X0146023Y0025000D01*
X0145935Y0025091D01*
X0145849Y0025184D01*
X0145767Y0025280D01*
X0145688Y0025378D01*
X0145611Y0025479D01*
X0145538Y0025582D01*
X0145469Y0025687D01*
X0145403Y0025795D01*
X0145340Y0025904D01*
X0145280Y0026016D01*
X0145224Y0026129D01*
X0145172Y0026244D01*
X0145124Y0026360D01*
X0145079Y0026479D01*
X0145038Y0026598D01*
X0145000Y0026719D01*
X0144967Y0026840D01*
X0144937Y0026963D01*
X0144912Y0027087D01*
X0144890Y0027211D01*
X0144872Y0027336D01*
X0144858Y0027462D01*
X0144848Y0027588D01*
X0144842Y0027714D01*
X0144840Y0027840D01*
X0147840Y0144840D02*
X0147842Y0144966D01*
X0147848Y0145092D01*
X0147858Y0145218D01*
X0147872Y0145344D01*
X0147890Y0145469D01*
X0147912Y0145593D01*
X0147937Y0145717D01*
X0147967Y0145840D01*
X0148000Y0145961D01*
X0148038Y0146082D01*
X0148079Y0146201D01*
X0148124Y0146320D01*
X0148172Y0146436D01*
X0148224Y0146551D01*
X0148280Y0146664D01*
X0148340Y0146776D01*
X0148403Y0146885D01*
X0148469Y0146993D01*
X0148538Y0147098D01*
X0148611Y0147201D01*
X0148688Y0147302D01*
X0148767Y0147400D01*
X0148849Y0147496D01*
X0148935Y0147589D01*
X0149023Y0147680D01*
X0149114Y0147767D01*
X0149208Y0147852D01*
X0149304Y0147933D01*
X0149403Y0148012D01*
X0149504Y0148087D01*
X0149608Y0148159D01*
X0149714Y0148228D01*
X0149822Y0148294D01*
X0149932Y0148356D01*
X0150044Y0148414D01*
X0150157Y0148469D01*
X0150273Y0148520D01*
X0150390Y0148568D01*
X0150508Y0148612D01*
X0150628Y0148652D01*
X0150749Y0148688D01*
X0150871Y0148721D01*
X0150994Y0148750D01*
X0151118Y0148774D01*
X0151242Y0148795D01*
X0151367Y0148812D01*
X0151493Y0148825D01*
X0151619Y0148834D01*
X0151745Y0148839D01*
X0151872Y0148840D01*
X0151998Y0148837D01*
X0152124Y0148830D01*
X0152250Y0148819D01*
X0152375Y0148804D01*
X0152500Y0148785D01*
X0152624Y0148762D01*
X0152748Y0148736D01*
X0152870Y0148705D01*
X0152992Y0148671D01*
X0153112Y0148632D01*
X0153231Y0148590D01*
X0153349Y0148545D01*
X0153465Y0148495D01*
X0153580Y0148442D01*
X0153692Y0148385D01*
X0153803Y0148325D01*
X0153912Y0148261D01*
X0154019Y0148194D01*
X0154124Y0148124D01*
X0154227Y0148050D01*
X0154327Y0147973D01*
X0154425Y0147893D01*
X0154520Y0147810D01*
X0154612Y0147724D01*
X0154702Y0147635D01*
X0154789Y0147543D01*
X0154872Y0147449D01*
X0154953Y0147352D01*
X0155031Y0147252D01*
X0155106Y0147150D01*
X0155177Y0147046D01*
X0155245Y0146939D01*
X0155309Y0146831D01*
X0155370Y0146720D01*
X0155428Y0146608D01*
X0155482Y0146494D01*
X0155532Y0146378D01*
X0155579Y0146261D01*
X0155622Y0146142D01*
X0155661Y0146022D01*
X0155697Y0145901D01*
X0155728Y0145778D01*
X0155756Y0145655D01*
X0155780Y0145531D01*
X0155800Y0145406D01*
X0155816Y0145281D01*
X0155828Y0145155D01*
X0155836Y0145029D01*
X0155840Y0144903D01*
X0155840Y0144777D01*
X0155836Y0144651D01*
X0155828Y0144525D01*
X0155816Y0144399D01*
X0155800Y0144274D01*
X0155780Y0144149D01*
X0155756Y0144025D01*
X0155728Y0143902D01*
X0155697Y0143779D01*
X0155661Y0143658D01*
X0155622Y0143538D01*
X0155579Y0143419D01*
X0155532Y0143302D01*
X0155482Y0143186D01*
X0155428Y0143072D01*
X0155370Y0142960D01*
X0155309Y0142849D01*
X0155245Y0142741D01*
X0155177Y0142634D01*
X0155106Y0142530D01*
X0155031Y0142428D01*
X0154953Y0142328D01*
X0154872Y0142231D01*
X0154789Y0142137D01*
X0154702Y0142045D01*
X0154612Y0141956D01*
X0154520Y0141870D01*
X0154425Y0141787D01*
X0154327Y0141707D01*
X0154227Y0141630D01*
X0154124Y0141556D01*
X0154019Y0141486D01*
X0153912Y0141419D01*
X0153803Y0141355D01*
X0153692Y0141295D01*
X0153580Y0141238D01*
X0153465Y0141185D01*
X0153349Y0141135D01*
X0153231Y0141090D01*
X0153112Y0141048D01*
X0152992Y0141009D01*
X0152870Y0140975D01*
X0152748Y0140944D01*
X0152624Y0140918D01*
X0152500Y0140895D01*
X0152375Y0140876D01*
X0152250Y0140861D01*
X0152124Y0140850D01*
X0151998Y0140843D01*
X0151872Y0140840D01*
X0151745Y0140841D01*
X0151619Y0140846D01*
X0151493Y0140855D01*
X0151367Y0140868D01*
X0151242Y0140885D01*
X0151118Y0140906D01*
X0150994Y0140930D01*
X0150871Y0140959D01*
X0150749Y0140992D01*
X0150628Y0141028D01*
X0150508Y0141068D01*
X0150390Y0141112D01*
X0150273Y0141160D01*
X0150157Y0141211D01*
X0150044Y0141266D01*
X0149932Y0141324D01*
X0149822Y0141386D01*
X0149714Y0141452D01*
X0149608Y0141521D01*
X0149504Y0141593D01*
X0149403Y0141668D01*
X0149304Y0141747D01*
X0149208Y0141828D01*
X0149114Y0141913D01*
X0149023Y0142000D01*
X0148935Y0142091D01*
X0148849Y0142184D01*
X0148767Y0142280D01*
X0148688Y0142378D01*
X0148611Y0142479D01*
X0148538Y0142582D01*
X0148469Y0142687D01*
X0148403Y0142795D01*
X0148340Y0142904D01*
X0148280Y0143016D01*
X0148224Y0143129D01*
X0148172Y0143244D01*
X0148124Y0143360D01*
X0148079Y0143479D01*
X0148038Y0143598D01*
X0148000Y0143719D01*
X0147967Y0143840D01*
X0147937Y0143963D01*
X0147912Y0144087D01*
X0147890Y0144211D01*
X0147872Y0144336D01*
X0147858Y0144462D01*
X0147848Y0144588D01*
X0147842Y0144714D01*
X0147840Y0144840D01*
X0023840Y0148840D02*
X0023842Y0148966D01*
X0023848Y0149092D01*
X0023858Y0149218D01*
X0023872Y0149344D01*
X0023890Y0149469D01*
X0023912Y0149593D01*
X0023937Y0149717D01*
X0023967Y0149840D01*
X0024000Y0149961D01*
X0024038Y0150082D01*
X0024079Y0150201D01*
X0024124Y0150320D01*
X0024172Y0150436D01*
X0024224Y0150551D01*
X0024280Y0150664D01*
X0024340Y0150776D01*
X0024403Y0150885D01*
X0024469Y0150993D01*
X0024538Y0151098D01*
X0024611Y0151201D01*
X0024688Y0151302D01*
X0024767Y0151400D01*
X0024849Y0151496D01*
X0024935Y0151589D01*
X0025023Y0151680D01*
X0025114Y0151767D01*
X0025208Y0151852D01*
X0025304Y0151933D01*
X0025403Y0152012D01*
X0025504Y0152087D01*
X0025608Y0152159D01*
X0025714Y0152228D01*
X0025822Y0152294D01*
X0025932Y0152356D01*
X0026044Y0152414D01*
X0026157Y0152469D01*
X0026273Y0152520D01*
X0026390Y0152568D01*
X0026508Y0152612D01*
X0026628Y0152652D01*
X0026749Y0152688D01*
X0026871Y0152721D01*
X0026994Y0152750D01*
X0027118Y0152774D01*
X0027242Y0152795D01*
X0027367Y0152812D01*
X0027493Y0152825D01*
X0027619Y0152834D01*
X0027745Y0152839D01*
X0027872Y0152840D01*
X0027998Y0152837D01*
X0028124Y0152830D01*
X0028250Y0152819D01*
X0028375Y0152804D01*
X0028500Y0152785D01*
X0028624Y0152762D01*
X0028748Y0152736D01*
X0028870Y0152705D01*
X0028992Y0152671D01*
X0029112Y0152632D01*
X0029231Y0152590D01*
X0029349Y0152545D01*
X0029465Y0152495D01*
X0029580Y0152442D01*
X0029692Y0152385D01*
X0029803Y0152325D01*
X0029912Y0152261D01*
X0030019Y0152194D01*
X0030124Y0152124D01*
X0030227Y0152050D01*
X0030327Y0151973D01*
X0030425Y0151893D01*
X0030520Y0151810D01*
X0030612Y0151724D01*
X0030702Y0151635D01*
X0030789Y0151543D01*
X0030872Y0151449D01*
X0030953Y0151352D01*
X0031031Y0151252D01*
X0031106Y0151150D01*
X0031177Y0151046D01*
X0031245Y0150939D01*
X0031309Y0150831D01*
X0031370Y0150720D01*
X0031428Y0150608D01*
X0031482Y0150494D01*
X0031532Y0150378D01*
X0031579Y0150261D01*
X0031622Y0150142D01*
X0031661Y0150022D01*
X0031697Y0149901D01*
X0031728Y0149778D01*
X0031756Y0149655D01*
X0031780Y0149531D01*
X0031800Y0149406D01*
X0031816Y0149281D01*
X0031828Y0149155D01*
X0031836Y0149029D01*
X0031840Y0148903D01*
X0031840Y0148777D01*
X0031836Y0148651D01*
X0031828Y0148525D01*
X0031816Y0148399D01*
X0031800Y0148274D01*
X0031780Y0148149D01*
X0031756Y0148025D01*
X0031728Y0147902D01*
X0031697Y0147779D01*
X0031661Y0147658D01*
X0031622Y0147538D01*
X0031579Y0147419D01*
X0031532Y0147302D01*
X0031482Y0147186D01*
X0031428Y0147072D01*
X0031370Y0146960D01*
X0031309Y0146849D01*
X0031245Y0146741D01*
X0031177Y0146634D01*
X0031106Y0146530D01*
X0031031Y0146428D01*
X0030953Y0146328D01*
X0030872Y0146231D01*
X0030789Y0146137D01*
X0030702Y0146045D01*
X0030612Y0145956D01*
X0030520Y0145870D01*
X0030425Y0145787D01*
X0030327Y0145707D01*
X0030227Y0145630D01*
X0030124Y0145556D01*
X0030019Y0145486D01*
X0029912Y0145419D01*
X0029803Y0145355D01*
X0029692Y0145295D01*
X0029580Y0145238D01*
X0029465Y0145185D01*
X0029349Y0145135D01*
X0029231Y0145090D01*
X0029112Y0145048D01*
X0028992Y0145009D01*
X0028870Y0144975D01*
X0028748Y0144944D01*
X0028624Y0144918D01*
X0028500Y0144895D01*
X0028375Y0144876D01*
X0028250Y0144861D01*
X0028124Y0144850D01*
X0027998Y0144843D01*
X0027872Y0144840D01*
X0027745Y0144841D01*
X0027619Y0144846D01*
X0027493Y0144855D01*
X0027367Y0144868D01*
X0027242Y0144885D01*
X0027118Y0144906D01*
X0026994Y0144930D01*
X0026871Y0144959D01*
X0026749Y0144992D01*
X0026628Y0145028D01*
X0026508Y0145068D01*
X0026390Y0145112D01*
X0026273Y0145160D01*
X0026157Y0145211D01*
X0026044Y0145266D01*
X0025932Y0145324D01*
X0025822Y0145386D01*
X0025714Y0145452D01*
X0025608Y0145521D01*
X0025504Y0145593D01*
X0025403Y0145668D01*
X0025304Y0145747D01*
X0025208Y0145828D01*
X0025114Y0145913D01*
X0025023Y0146000D01*
X0024935Y0146091D01*
X0024849Y0146184D01*
X0024767Y0146280D01*
X0024688Y0146378D01*
X0024611Y0146479D01*
X0024538Y0146582D01*
X0024469Y0146687D01*
X0024403Y0146795D01*
X0024340Y0146904D01*
X0024280Y0147016D01*
X0024224Y0147129D01*
X0024172Y0147244D01*
X0024124Y0147360D01*
X0024079Y0147479D01*
X0024038Y0147598D01*
X0024000Y0147719D01*
X0023967Y0147840D01*
X0023937Y0147963D01*
X0023912Y0148087D01*
X0023890Y0148211D01*
X0023872Y0148336D01*
X0023858Y0148462D01*
X0023848Y0148588D01*
X0023842Y0148714D01*
X0023840Y0148840D01*
D11*
X0020569Y0025965D02*
X0022963Y0022963D01*
X0025965Y0020569D01*
X0029425Y0018902D01*
X0033169Y0018048D01*
X0035089Y0017940D01*
X0037831Y0017940D01*
X0037499Y0018272D01*
X0036540Y0020587D01*
X0036540Y0023093D01*
X0037499Y0025409D01*
X0039272Y0027181D01*
X0041587Y0028140D01*
X0044093Y0028140D01*
X0046409Y0027181D01*
X0046940Y0026650D01*
X0046940Y0037420D01*
X0047760Y0038240D01*
X0065920Y0038240D01*
X0066740Y0037420D01*
X0066740Y0032240D01*
X0076851Y0032240D01*
X0077282Y0032671D01*
X0078293Y0033090D01*
X0079387Y0033090D01*
X0080398Y0032671D01*
X0080829Y0032240D01*
X0086753Y0032240D01*
X0082053Y0036940D01*
X0080940Y0038053D01*
X0080940Y0093536D01*
X0068590Y0081186D01*
X0068590Y0080293D01*
X0068171Y0079282D01*
X0067398Y0078509D01*
X0066387Y0078090D01*
X0065293Y0078090D01*
X0064282Y0078509D01*
X0063509Y0079282D01*
X0063090Y0080293D01*
X0063090Y0081387D01*
X0063509Y0082398D01*
X0064282Y0083171D01*
X0065293Y0083590D01*
X0066186Y0083590D01*
X0078140Y0095544D01*
X0078140Y0130651D01*
X0077509Y0131282D01*
X0077090Y0132293D01*
X0077090Y0133387D01*
X0077509Y0134398D01*
X0078002Y0134891D01*
X0077383Y0134891D01*
X0077383Y0139361D01*
X0076424Y0139361D01*
X0076424Y0134891D01*
X0074107Y0134891D01*
X0073649Y0135013D01*
X0073239Y0135250D01*
X0072904Y0135585D01*
X0072667Y0135996D01*
X0072544Y0136454D01*
X0072544Y0139361D01*
X0076424Y0139361D01*
X0076424Y0140320D01*
X0076424Y0147361D01*
X0077383Y0147361D01*
X0077383Y0142891D01*
X0077383Y0140320D01*
X0076424Y0140320D01*
X0072544Y0140320D01*
X0072544Y0143227D01*
X0072667Y0143685D01*
X0072757Y0143840D01*
X0072667Y0143996D01*
X0072544Y0144454D01*
X0072544Y0147361D01*
X0076424Y0147361D01*
X0076424Y0148320D01*
X0076424Y0152790D01*
X0074107Y0152790D01*
X0073649Y0152667D01*
X0073239Y0152430D01*
X0072904Y0152095D01*
X0072667Y0151685D01*
X0072544Y0151227D01*
X0072544Y0148320D01*
X0076424Y0148320D01*
X0077383Y0148320D01*
X0077383Y0152790D01*
X0079699Y0152790D01*
X0080157Y0152667D01*
X0080567Y0152430D01*
X0080903Y0152095D01*
X0081064Y0151815D01*
X0081638Y0152390D01*
X0087916Y0152390D01*
X0088736Y0151570D01*
X0088736Y0149740D01*
X0090181Y0149740D01*
X0090184Y0149746D01*
X0090630Y0150192D01*
X0090575Y0150229D01*
X0090091Y0150713D01*
X0089711Y0151282D01*
X0089449Y0151914D01*
X0089316Y0152585D01*
X0089316Y0152890D01*
X0096985Y0152890D01*
X0096985Y0152963D01*
X0089316Y0152963D01*
X0089316Y0153269D01*
X0089449Y0153940D01*
X0089711Y0154572D01*
X0090091Y0155141D01*
X0090575Y0155625D01*
X0091144Y0156005D01*
X0091776Y0156267D01*
X0092447Y0156400D01*
X0096985Y0156400D01*
X0096985Y0152963D01*
X0097058Y0152963D01*
X0104727Y0152963D01*
X0104727Y0153269D01*
X0104593Y0153940D01*
X0104331Y0154572D01*
X0103951Y0155141D01*
X0103468Y0155625D01*
X0102899Y0156005D01*
X0102267Y0156267D01*
X0101596Y0156400D01*
X0097058Y0156400D01*
X0097058Y0152963D01*
X0097058Y0152890D01*
X0104727Y0152890D01*
X0104727Y0152585D01*
X0104593Y0151914D01*
X0104331Y0151282D01*
X0103951Y0150713D01*
X0103468Y0150229D01*
X0103413Y0150192D01*
X0103859Y0149746D01*
X0104327Y0148617D01*
X0104327Y0147394D01*
X0103859Y0146265D01*
X0103139Y0145545D01*
X0103859Y0144825D01*
X0104327Y0143696D01*
X0104327Y0143041D01*
X0108740Y0138627D01*
X0108740Y0117627D01*
X0133990Y0092378D01*
X0134786Y0092048D01*
X0135232Y0091602D01*
X0135268Y0091657D01*
X0135752Y0092140D01*
X0136321Y0092520D01*
X0136953Y0092782D01*
X0137324Y0092856D01*
X0137157Y0093260D01*
X0137157Y0094483D01*
X0137625Y0095612D01*
X0138344Y0096332D01*
X0137625Y0097052D01*
X0137157Y0098182D01*
X0137157Y0099404D01*
X0137625Y0100534D01*
X0138344Y0101254D01*
X0137625Y0101973D01*
X0137157Y0103103D01*
X0137157Y0104325D01*
X0137625Y0105455D01*
X0138344Y0106175D01*
X0137625Y0106895D01*
X0137157Y0108024D01*
X0137157Y0109247D01*
X0137625Y0110376D01*
X0138344Y0111096D01*
X0137625Y0111816D01*
X0137157Y0112945D01*
X0137157Y0114168D01*
X0137625Y0115298D01*
X0138344Y0116017D01*
X0137625Y0116737D01*
X0137157Y0117867D01*
X0137157Y0119089D01*
X0137625Y0120219D01*
X0138344Y0120939D01*
X0137625Y0121658D01*
X0137157Y0122788D01*
X0137157Y0124011D01*
X0137625Y0125140D01*
X0138344Y0125860D01*
X0137625Y0126580D01*
X0137157Y0127709D01*
X0137157Y0128932D01*
X0137625Y0130061D01*
X0138071Y0130507D01*
X0138016Y0130544D01*
X0137532Y0131028D01*
X0137152Y0131597D01*
X0136890Y0132229D01*
X0136757Y0132900D01*
X0136757Y0133205D01*
X0144426Y0133205D01*
X0144426Y0133278D01*
X0136757Y0133278D01*
X0136757Y0133584D01*
X0136890Y0134255D01*
X0137133Y0134840D01*
X0120840Y0134840D01*
X0120840Y0156740D01*
X0034840Y0156740D01*
X0032948Y0156634D01*
X0029258Y0155792D01*
X0027905Y0155140D01*
X0029093Y0155140D01*
X0031409Y0154181D01*
X0033181Y0152409D01*
X0034140Y0150093D01*
X0034140Y0147587D01*
X0033181Y0145272D01*
X0031409Y0143499D01*
X0029093Y0142540D01*
X0026587Y0142540D01*
X0024272Y0143499D01*
X0022499Y0145272D01*
X0021540Y0147587D01*
X0021540Y0150093D01*
X0021544Y0150102D01*
X0020531Y0148832D01*
X0018889Y0145422D01*
X0018046Y0141732D01*
X0017940Y0139840D01*
X0017940Y0047850D01*
X0018272Y0048181D01*
X0020587Y0049140D01*
X0023093Y0049140D01*
X0025409Y0048181D01*
X0027181Y0046409D01*
X0028140Y0044093D01*
X0028140Y0041587D01*
X0027181Y0039272D01*
X0025409Y0037499D01*
X0023093Y0036540D01*
X0020587Y0036540D01*
X0018272Y0037499D01*
X0017940Y0037831D01*
X0017940Y0035089D01*
X0018048Y0033169D01*
X0018902Y0029425D01*
X0020569Y0025965D01*
X0020537Y0026030D02*
X0038120Y0026030D01*
X0037094Y0024431D02*
X0021792Y0024431D01*
X0023126Y0022833D02*
X0036540Y0022833D01*
X0036540Y0021234D02*
X0025130Y0021234D01*
X0027902Y0019636D02*
X0036934Y0019636D01*
X0037734Y0018037D02*
X0033361Y0018037D01*
X0035089Y0014840D02*
X0139840Y0014840D01*
X0139840Y0017940D02*
X0133627Y0017940D01*
X0134627Y0018940D01*
X0135740Y0020053D01*
X0135740Y0026635D01*
X0135697Y0026678D01*
X0135697Y0032140D01*
X0142544Y0032140D01*
X0149436Y0039032D01*
X0149951Y0038517D01*
X0151826Y0037740D01*
X0153855Y0037740D01*
X0155729Y0038517D01*
X0156740Y0039528D01*
X0156740Y0034840D01*
X0156634Y0032948D01*
X0155792Y0029258D01*
X0155140Y0027905D01*
X0155140Y0029093D01*
X0154181Y0031409D01*
X0152409Y0033181D01*
X0150093Y0034140D01*
X0147587Y0034140D01*
X0145272Y0033181D01*
X0143499Y0031409D01*
X0142540Y0029093D01*
X0142540Y0026587D01*
X0143499Y0024272D01*
X0145272Y0022499D01*
X0147587Y0021540D01*
X0150093Y0021540D01*
X0150102Y0021544D01*
X0148832Y0020531D01*
X0145422Y0018889D01*
X0141732Y0018046D01*
X0139840Y0017940D01*
X0141568Y0018037D02*
X0133724Y0018037D01*
X0135323Y0019636D02*
X0146973Y0019636D01*
X0149714Y0021234D02*
X0135740Y0021234D01*
X0135740Y0022833D02*
X0144938Y0022833D01*
X0143433Y0024431D02*
X0135740Y0024431D01*
X0135740Y0026030D02*
X0142771Y0026030D01*
X0142540Y0027628D02*
X0135697Y0027628D01*
X0135697Y0029227D02*
X0142595Y0029227D01*
X0143258Y0030825D02*
X0135697Y0030825D01*
X0134877Y0035920D02*
X0130804Y0035920D01*
X0130340Y0036384D01*
X0129877Y0035920D01*
X0125804Y0035920D01*
X0125340Y0036384D01*
X0124877Y0035920D01*
X0120804Y0035920D01*
X0120340Y0036384D01*
X0119877Y0035920D01*
X0118607Y0035920D01*
X0116627Y0033940D01*
X0114946Y0033940D01*
X0115290Y0033742D01*
X0115538Y0033494D01*
X0115804Y0033760D01*
X0119877Y0033760D01*
X0120340Y0033296D01*
X0120804Y0033760D01*
X0124877Y0033760D01*
X0125340Y0033296D01*
X0125804Y0033760D01*
X0128356Y0033760D01*
X0129140Y0034544D01*
X0130136Y0035540D01*
X0141136Y0035540D01*
X0143040Y0037444D01*
X0143040Y0042640D01*
X0142640Y0042640D01*
X0142640Y0037340D01*
X0142407Y0037340D01*
X0141552Y0037476D01*
X0140729Y0037743D01*
X0139958Y0038136D01*
X0139257Y0038645D01*
X0138645Y0039257D01*
X0138136Y0039958D01*
X0137743Y0040729D01*
X0137476Y0041552D01*
X0137340Y0042407D01*
X0137340Y0042640D01*
X0142640Y0042640D01*
X0142640Y0043040D01*
X0137340Y0043040D01*
X0137340Y0043273D01*
X0137476Y0044128D01*
X0137743Y0044951D01*
X0138136Y0045723D01*
X0138645Y0046423D01*
X0139257Y0047035D01*
X0139958Y0047544D01*
X0140729Y0047937D01*
X0141552Y0048205D01*
X0142407Y0048340D01*
X0142640Y0048340D01*
X0142640Y0043040D01*
X0143040Y0043040D01*
X0143040Y0048340D01*
X0143273Y0048340D01*
X0144128Y0048205D01*
X0144951Y0047937D01*
X0145723Y0047544D01*
X0146423Y0047035D01*
X0146527Y0046931D01*
X0155519Y0055923D01*
X0155519Y0077115D01*
X0153540Y0075136D01*
X0152544Y0074140D01*
X0150029Y0074140D01*
X0149398Y0073509D01*
X0148387Y0073090D01*
X0147293Y0073090D01*
X0146282Y0073509D01*
X0145509Y0074282D01*
X0145090Y0075293D01*
X0145090Y0076387D01*
X0145509Y0077398D01*
X0146282Y0078171D01*
X0146521Y0078270D01*
X0146509Y0078282D01*
X0146090Y0079293D01*
X0146090Y0080387D01*
X0146509Y0081398D01*
X0147282Y0082171D01*
X0148293Y0082590D01*
X0149186Y0082590D01*
X0151686Y0085090D01*
X0151293Y0085090D01*
X0150282Y0085509D01*
X0149509Y0086282D01*
X0149090Y0087293D01*
X0149090Y0088387D01*
X0149509Y0089398D01*
X0150140Y0090029D01*
X0150140Y0091144D01*
X0149306Y0090798D01*
X0146162Y0090798D01*
X0146162Y0090269D01*
X0146398Y0090171D01*
X0147171Y0089398D01*
X0147590Y0088387D01*
X0147590Y0087293D01*
X0147171Y0086282D01*
X0146398Y0085509D01*
X0145387Y0085090D01*
X0144293Y0085090D01*
X0143282Y0085509D01*
X0142509Y0086282D01*
X0142090Y0087293D01*
X0142090Y0088387D01*
X0142509Y0089398D01*
X0142762Y0089651D01*
X0142762Y0090798D01*
X0141164Y0090798D01*
X0141306Y0090456D01*
X0141439Y0089785D01*
X0141439Y0085247D01*
X0138003Y0085247D01*
X0138003Y0085174D01*
X0141439Y0085174D01*
X0141439Y0080636D01*
X0141306Y0079965D01*
X0141044Y0079333D01*
X0140664Y0078764D01*
X0140180Y0078280D01*
X0139611Y0077900D01*
X0138979Y0077638D01*
X0138308Y0077505D01*
X0138003Y0077505D01*
X0138003Y0085174D01*
X0137930Y0085174D01*
X0137930Y0077505D01*
X0137624Y0077505D01*
X0136953Y0077638D01*
X0136321Y0077900D01*
X0135752Y0078280D01*
X0135268Y0078764D01*
X0135232Y0078819D01*
X0134786Y0078373D01*
X0134740Y0078354D01*
X0134740Y0075053D01*
X0133627Y0073940D01*
X0114740Y0055053D01*
X0114740Y0049744D01*
X0114877Y0049744D01*
X0115340Y0049281D01*
X0115804Y0049744D01*
X0119877Y0049744D01*
X0120340Y0049281D01*
X0120804Y0049744D01*
X0124877Y0049744D01*
X0125340Y0049281D01*
X0125804Y0049744D01*
X0129877Y0049744D01*
X0130340Y0049281D01*
X0130804Y0049744D01*
X0134877Y0049744D01*
X0135697Y0048924D01*
X0135697Y0036741D01*
X0134877Y0035920D01*
X0135697Y0037219D02*
X0142815Y0037219D01*
X0142640Y0038818D02*
X0143040Y0038818D01*
X0143040Y0040416D02*
X0142640Y0040416D01*
X0142640Y0042015D02*
X0143040Y0042015D01*
X0143040Y0043613D02*
X0142640Y0043613D01*
X0142640Y0045212D02*
X0143040Y0045212D01*
X0143040Y0046810D02*
X0142640Y0046810D01*
X0139032Y0046810D02*
X0135697Y0046810D01*
X0135697Y0045212D02*
X0137876Y0045212D01*
X0137394Y0043613D02*
X0135697Y0043613D01*
X0135697Y0042015D02*
X0137402Y0042015D01*
X0137902Y0040416D02*
X0135697Y0040416D01*
X0135697Y0038818D02*
X0139084Y0038818D01*
X0141217Y0035621D02*
X0118308Y0035621D01*
X0116709Y0034022D02*
X0128618Y0034022D01*
X0139840Y0014840D02*
X0140323Y0014846D01*
X0140806Y0014863D01*
X0141289Y0014893D01*
X0141770Y0014933D01*
X0142251Y0014986D01*
X0142730Y0015050D01*
X0143207Y0015125D01*
X0143683Y0015213D01*
X0144156Y0015311D01*
X0144626Y0015421D01*
X0145094Y0015542D01*
X0145559Y0015675D01*
X0146020Y0015819D01*
X0146478Y0015974D01*
X0146932Y0016140D01*
X0147382Y0016317D01*
X0147827Y0016504D01*
X0148268Y0016703D01*
X0148704Y0016911D01*
X0149134Y0017131D01*
X0149560Y0017361D01*
X0149979Y0017601D01*
X0150393Y0017851D01*
X0150800Y0018111D01*
X0151201Y0018380D01*
X0151596Y0018660D01*
X0151983Y0018948D01*
X0152364Y0019247D01*
X0152737Y0019554D01*
X0153102Y0019870D01*
X0153460Y0020195D01*
X0153810Y0020528D01*
X0154152Y0020870D01*
X0154485Y0021220D01*
X0154810Y0021578D01*
X0155126Y0021943D01*
X0155433Y0022316D01*
X0155732Y0022697D01*
X0156020Y0023084D01*
X0156300Y0023479D01*
X0156569Y0023880D01*
X0156829Y0024287D01*
X0157079Y0024701D01*
X0157319Y0025120D01*
X0157549Y0025546D01*
X0157769Y0025976D01*
X0157977Y0026412D01*
X0158176Y0026853D01*
X0158363Y0027298D01*
X0158540Y0027748D01*
X0158706Y0028202D01*
X0158861Y0028660D01*
X0159005Y0029121D01*
X0159138Y0029586D01*
X0159259Y0030054D01*
X0159369Y0030524D01*
X0159467Y0030997D01*
X0159555Y0031473D01*
X0159630Y0031950D01*
X0159694Y0032429D01*
X0159747Y0032910D01*
X0159787Y0033391D01*
X0159817Y0033874D01*
X0159834Y0034357D01*
X0159840Y0034840D01*
X0159840Y0143840D01*
X0156740Y0134840D02*
X0151792Y0134840D01*
X0152034Y0134255D01*
X0152168Y0133584D01*
X0152168Y0133278D01*
X0144499Y0133278D01*
X0144499Y0133205D01*
X0152168Y0133205D01*
X0152168Y0132900D01*
X0152034Y0132229D01*
X0151772Y0131597D01*
X0151392Y0131028D01*
X0150909Y0130544D01*
X0150903Y0130540D01*
X0152544Y0130540D01*
X0153540Y0129544D01*
X0156740Y0126344D01*
X0156740Y0134840D01*
X0156740Y0134729D02*
X0151838Y0134729D01*
X0152168Y0133130D02*
X0156740Y0133130D01*
X0156740Y0131531D02*
X0151729Y0131531D01*
X0153152Y0129933D02*
X0156740Y0129933D01*
X0156740Y0128334D02*
X0154750Y0128334D01*
X0156349Y0126736D02*
X0156740Y0126736D01*
X0159840Y0143840D02*
X0159835Y0144227D01*
X0159821Y0144613D01*
X0159798Y0144999D01*
X0159765Y0145384D01*
X0159723Y0145769D01*
X0159672Y0146152D01*
X0159612Y0146534D01*
X0159542Y0146914D01*
X0159463Y0147293D01*
X0159375Y0147669D01*
X0159278Y0148043D01*
X0159172Y0148415D01*
X0159057Y0148784D01*
X0158933Y0149151D01*
X0158800Y0149514D01*
X0158659Y0149874D01*
X0158509Y0150230D01*
X0158350Y0150582D01*
X0158183Y0150931D01*
X0158007Y0151276D01*
X0157823Y0151616D01*
X0157632Y0151951D01*
X0157431Y0152282D01*
X0157224Y0152608D01*
X0157008Y0152929D01*
X0156784Y0153245D01*
X0156553Y0153555D01*
X0156315Y0153859D01*
X0156069Y0154157D01*
X0155816Y0154450D01*
X0155556Y0154736D01*
X0155290Y0155016D01*
X0155016Y0155290D01*
X0154736Y0155556D01*
X0154450Y0155816D01*
X0154157Y0156069D01*
X0153859Y0156315D01*
X0153555Y0156553D01*
X0153245Y0156784D01*
X0152929Y0157008D01*
X0152608Y0157224D01*
X0152282Y0157431D01*
X0151951Y0157632D01*
X0151616Y0157823D01*
X0151276Y0158007D01*
X0150931Y0158183D01*
X0150582Y0158350D01*
X0150230Y0158509D01*
X0149874Y0158659D01*
X0149514Y0158800D01*
X0149151Y0158933D01*
X0148784Y0159057D01*
X0148415Y0159172D01*
X0148043Y0159278D01*
X0147669Y0159375D01*
X0147293Y0159463D01*
X0146914Y0159542D01*
X0146534Y0159612D01*
X0146152Y0159672D01*
X0145769Y0159723D01*
X0145384Y0159765D01*
X0144999Y0159798D01*
X0144613Y0159821D01*
X0144227Y0159835D01*
X0143840Y0159840D01*
X0034840Y0159840D01*
X0031679Y0153911D02*
X0089443Y0153911D01*
X0089370Y0152312D02*
X0087994Y0152312D01*
X0088736Y0150714D02*
X0090091Y0150714D01*
X0090459Y0155509D02*
X0028672Y0155509D01*
X0033221Y0152312D02*
X0046603Y0152312D01*
X0046663Y0152535D02*
X0046540Y0152077D01*
X0046540Y0146140D01*
X0056040Y0146140D01*
X0056040Y0144540D01*
X0046540Y0144540D01*
X0046540Y0138603D01*
X0046663Y0138145D01*
X0046900Y0137735D01*
X0047235Y0137400D01*
X0047645Y0137163D01*
X0048103Y0137040D01*
X0056040Y0137040D01*
X0056040Y0144540D01*
X0057640Y0144540D01*
X0057640Y0137040D01*
X0065577Y0137040D01*
X0066035Y0137163D01*
X0066445Y0137400D01*
X0066781Y0137735D01*
X0067017Y0138145D01*
X0067140Y0138603D01*
X0067140Y0144540D01*
X0057640Y0144540D01*
X0057640Y0146140D01*
X0056040Y0146140D01*
X0056040Y0153640D01*
X0048103Y0153640D01*
X0047645Y0153517D01*
X0047235Y0153281D01*
X0046900Y0152945D01*
X0046663Y0152535D01*
X0046540Y0150714D02*
X0033883Y0150714D01*
X0034140Y0149115D02*
X0046540Y0149115D01*
X0046540Y0147517D02*
X0034111Y0147517D01*
X0033449Y0145918D02*
X0056040Y0145918D01*
X0056040Y0144320D02*
X0057640Y0144320D01*
X0057640Y0145918D02*
X0072544Y0145918D01*
X0072580Y0144320D02*
X0067140Y0144320D01*
X0067140Y0142721D02*
X0072544Y0142721D01*
X0072544Y0141123D02*
X0067140Y0141123D01*
X0067140Y0139524D02*
X0076424Y0139524D01*
X0076424Y0137926D02*
X0077383Y0137926D01*
X0077383Y0136327D02*
X0076424Y0136327D01*
X0077839Y0134729D02*
X0017940Y0134729D01*
X0017940Y0136327D02*
X0072578Y0136327D01*
X0072544Y0137926D02*
X0066891Y0137926D01*
X0067140Y0146140D02*
X0067140Y0152077D01*
X0067017Y0152535D01*
X0066781Y0152945D01*
X0066445Y0153281D01*
X0066035Y0153517D01*
X0065577Y0153640D01*
X0057640Y0153640D01*
X0057640Y0146140D01*
X0067140Y0146140D01*
X0067140Y0147517D02*
X0076424Y0147517D01*
X0076424Y0149115D02*
X0077383Y0149115D01*
X0077383Y0150714D02*
X0076424Y0150714D01*
X0076424Y0152312D02*
X0077383Y0152312D01*
X0080685Y0152312D02*
X0081561Y0152312D01*
X0077383Y0145918D02*
X0076424Y0145918D01*
X0076424Y0144320D02*
X0077383Y0144320D01*
X0077383Y0142721D02*
X0076424Y0142721D01*
X0076424Y0141123D02*
X0077383Y0141123D01*
X0077090Y0133130D02*
X0017940Y0133130D01*
X0017940Y0131531D02*
X0077406Y0131531D01*
X0078140Y0129933D02*
X0017940Y0129933D01*
X0017940Y0128334D02*
X0078140Y0128334D01*
X0078140Y0126736D02*
X0017940Y0126736D01*
X0017940Y0125137D02*
X0078140Y0125137D01*
X0078140Y0123539D02*
X0017940Y0123539D01*
X0017940Y0121940D02*
X0078140Y0121940D01*
X0078140Y0120342D02*
X0053766Y0120342D01*
X0053848Y0120287D02*
X0053332Y0120632D01*
X0052759Y0120869D01*
X0052150Y0120990D01*
X0051840Y0120990D01*
X0051530Y0120990D01*
X0050921Y0120869D01*
X0050348Y0120632D01*
X0049832Y0120287D01*
X0049393Y0119848D01*
X0049049Y0119332D01*
X0048811Y0118759D01*
X0048690Y0118150D01*
X0048690Y0117840D01*
X0048690Y0117530D01*
X0048811Y0116921D01*
X0049049Y0116348D01*
X0049393Y0115832D01*
X0049832Y0115393D01*
X0050348Y0115049D01*
X0050921Y0114811D01*
X0051530Y0114690D01*
X0051840Y0114690D01*
X0051840Y0117840D01*
X0048690Y0117840D01*
X0051840Y0117840D01*
X0051840Y0117840D01*
X0051840Y0117840D01*
X0051840Y0114690D01*
X0052150Y0114690D01*
X0052759Y0114811D01*
X0053332Y0115049D01*
X0053848Y0115393D01*
X0054287Y0115832D01*
X0054632Y0116348D01*
X0054869Y0116921D01*
X0054990Y0117530D01*
X0054990Y0117840D01*
X0051840Y0117840D01*
X0051840Y0120990D01*
X0051840Y0117840D01*
X0051840Y0117840D01*
X0051840Y0117840D01*
X0054990Y0117840D01*
X0054990Y0118150D01*
X0054869Y0118759D01*
X0054632Y0119332D01*
X0054287Y0119848D01*
X0053848Y0120287D01*
X0054872Y0118743D02*
X0078140Y0118743D01*
X0078140Y0117145D02*
X0054914Y0117145D01*
X0054001Y0115546D02*
X0078140Y0115546D01*
X0078140Y0113948D02*
X0017940Y0113948D01*
X0017940Y0115546D02*
X0049679Y0115546D01*
X0048767Y0117145D02*
X0017940Y0117145D01*
X0017940Y0118743D02*
X0048808Y0118743D01*
X0049914Y0120342D02*
X0017940Y0120342D01*
X0017940Y0112349D02*
X0078140Y0112349D01*
X0078140Y0110751D02*
X0017940Y0110751D01*
X0017940Y0109152D02*
X0078140Y0109152D01*
X0078140Y0107554D02*
X0017940Y0107554D01*
X0017940Y0105955D02*
X0078140Y0105955D01*
X0078140Y0104357D02*
X0017940Y0104357D01*
X0017940Y0102758D02*
X0078140Y0102758D01*
X0078140Y0101160D02*
X0017940Y0101160D01*
X0017940Y0099561D02*
X0078140Y0099561D01*
X0078140Y0097963D02*
X0017940Y0097963D01*
X0017940Y0096364D02*
X0078140Y0096364D01*
X0077362Y0094766D02*
X0017940Y0094766D01*
X0017940Y0093167D02*
X0075763Y0093167D01*
X0074165Y0091569D02*
X0017940Y0091569D01*
X0017940Y0089970D02*
X0072566Y0089970D01*
X0070968Y0088372D02*
X0017940Y0088372D01*
X0017940Y0086773D02*
X0069369Y0086773D01*
X0067771Y0085175D02*
X0017940Y0085175D01*
X0017940Y0083576D02*
X0065259Y0083576D01*
X0063335Y0081978D02*
X0017940Y0081978D01*
X0017940Y0080379D02*
X0063090Y0080379D01*
X0064011Y0078781D02*
X0017940Y0078781D01*
X0017940Y0077182D02*
X0080940Y0077182D01*
X0080940Y0075584D02*
X0017940Y0075584D01*
X0017940Y0073985D02*
X0080940Y0073985D01*
X0080940Y0072387D02*
X0017940Y0072387D01*
X0017940Y0070788D02*
X0080940Y0070788D01*
X0080940Y0069190D02*
X0017940Y0069190D01*
X0017940Y0067591D02*
X0080940Y0067591D01*
X0080940Y0065993D02*
X0017940Y0065993D01*
X0017940Y0064394D02*
X0080940Y0064394D01*
X0080940Y0062796D02*
X0017940Y0062796D01*
X0017940Y0061197D02*
X0080940Y0061197D01*
X0080940Y0059598D02*
X0017940Y0059598D01*
X0017940Y0058000D02*
X0080940Y0058000D01*
X0080940Y0056401D02*
X0017940Y0056401D01*
X0017940Y0054803D02*
X0055762Y0054803D01*
X0055921Y0054869D02*
X0055348Y0054632D01*
X0054832Y0054287D01*
X0054393Y0053848D01*
X0054049Y0053332D01*
X0053811Y0052759D01*
X0053690Y0052150D01*
X0053690Y0051840D01*
X0053690Y0051530D01*
X0053811Y0050921D01*
X0054049Y0050348D01*
X0054393Y0049832D01*
X0054832Y0049393D01*
X0055348Y0049049D01*
X0055921Y0048811D01*
X0056530Y0048690D01*
X0056840Y0048690D01*
X0056840Y0051840D01*
X0056840Y0051840D01*
X0053690Y0051840D01*
X0056840Y0051840D01*
X0056840Y0051840D01*
X0056840Y0048690D01*
X0057150Y0048690D01*
X0057759Y0048811D01*
X0058332Y0049049D01*
X0058848Y0049393D01*
X0059287Y0049832D01*
X0059632Y0050348D01*
X0059869Y0050921D01*
X0059990Y0051530D01*
X0059990Y0051840D01*
X0056840Y0051840D01*
X0056840Y0051840D01*
X0056840Y0054990D01*
X0056530Y0054990D01*
X0055921Y0054869D01*
X0056840Y0054803D02*
X0056840Y0054803D01*
X0056840Y0054990D02*
X0057150Y0054990D01*
X0057759Y0054869D01*
X0058332Y0054632D01*
X0058848Y0054287D01*
X0059287Y0053848D01*
X0059632Y0053332D01*
X0059869Y0052759D01*
X0059990Y0052150D01*
X0059990Y0051840D01*
X0056840Y0051840D01*
X0056840Y0051840D01*
X0056840Y0054990D01*
X0057919Y0054803D02*
X0080940Y0054803D01*
X0080940Y0053204D02*
X0059685Y0053204D01*
X0059990Y0051606D02*
X0080940Y0051606D01*
X0080940Y0050007D02*
X0059404Y0050007D01*
X0056840Y0050007D02*
X0056840Y0050007D01*
X0056840Y0051606D02*
X0056840Y0051606D01*
X0056840Y0053204D02*
X0056840Y0053204D01*
X0053996Y0053204D02*
X0017940Y0053204D01*
X0017940Y0051606D02*
X0053690Y0051606D01*
X0054276Y0050007D02*
X0017940Y0050007D01*
X0017940Y0048409D02*
X0018822Y0048409D01*
X0024859Y0048409D02*
X0080940Y0048409D01*
X0080940Y0046810D02*
X0026779Y0046810D01*
X0027677Y0045212D02*
X0080940Y0045212D01*
X0080940Y0043613D02*
X0028140Y0043613D01*
X0028140Y0042015D02*
X0080940Y0042015D01*
X0080940Y0040416D02*
X0027655Y0040416D01*
X0026727Y0038818D02*
X0080940Y0038818D01*
X0081774Y0037219D02*
X0066740Y0037219D01*
X0066740Y0035621D02*
X0083373Y0035621D01*
X0084971Y0034022D02*
X0066740Y0034022D01*
X0066740Y0032424D02*
X0077035Y0032424D01*
X0080646Y0032424D02*
X0086570Y0032424D01*
X0087553Y0028440D02*
X0098053Y0017940D01*
X0047850Y0017940D01*
X0048181Y0018272D01*
X0049140Y0020587D01*
X0049140Y0022440D01*
X0065920Y0022440D01*
X0066740Y0023260D01*
X0066740Y0028440D01*
X0076851Y0028440D01*
X0077282Y0028009D01*
X0078293Y0027590D01*
X0079387Y0027590D01*
X0080398Y0028009D01*
X0080829Y0028440D01*
X0087553Y0028440D01*
X0088365Y0027628D02*
X0079479Y0027628D01*
X0078201Y0027628D02*
X0066740Y0027628D01*
X0066740Y0026030D02*
X0089964Y0026030D01*
X0091562Y0024431D02*
X0066740Y0024431D01*
X0066313Y0022833D02*
X0093161Y0022833D01*
X0094759Y0021234D02*
X0049140Y0021234D01*
X0048746Y0019636D02*
X0096358Y0019636D01*
X0097956Y0018037D02*
X0047947Y0018037D01*
X0046940Y0027628D02*
X0045329Y0027628D01*
X0046940Y0029227D02*
X0018998Y0029227D01*
X0018583Y0030825D02*
X0046940Y0030825D01*
X0046940Y0032424D02*
X0018218Y0032424D01*
X0018000Y0034022D02*
X0046940Y0034022D01*
X0046940Y0035621D02*
X0017940Y0035621D01*
X0017940Y0037219D02*
X0018947Y0037219D01*
X0014840Y0035089D02*
X0014840Y0139840D01*
X0017940Y0139524D02*
X0046540Y0139524D01*
X0046540Y0141123D02*
X0018012Y0141123D01*
X0018272Y0142721D02*
X0026150Y0142721D01*
X0023451Y0144320D02*
X0018637Y0144320D01*
X0019127Y0145918D02*
X0022231Y0145918D01*
X0021569Y0147517D02*
X0019897Y0147517D01*
X0020757Y0149115D02*
X0021540Y0149115D01*
X0029530Y0142721D02*
X0046540Y0142721D01*
X0046540Y0144320D02*
X0032229Y0144320D01*
X0034840Y0159840D02*
X0034357Y0159834D01*
X0033874Y0159817D01*
X0033391Y0159787D01*
X0032910Y0159747D01*
X0032429Y0159694D01*
X0031950Y0159630D01*
X0031473Y0159555D01*
X0030997Y0159467D01*
X0030524Y0159369D01*
X0030054Y0159259D01*
X0029586Y0159138D01*
X0029121Y0159005D01*
X0028660Y0158861D01*
X0028202Y0158706D01*
X0027748Y0158540D01*
X0027298Y0158363D01*
X0026853Y0158176D01*
X0026412Y0157977D01*
X0025976Y0157769D01*
X0025546Y0157549D01*
X0025120Y0157319D01*
X0024701Y0157079D01*
X0024287Y0156829D01*
X0023880Y0156569D01*
X0023479Y0156300D01*
X0023084Y0156020D01*
X0022697Y0155732D01*
X0022316Y0155433D01*
X0021943Y0155126D01*
X0021578Y0154810D01*
X0021220Y0154485D01*
X0020870Y0154152D01*
X0020528Y0153810D01*
X0020195Y0153460D01*
X0019870Y0153102D01*
X0019554Y0152737D01*
X0019247Y0152364D01*
X0018948Y0151983D01*
X0018660Y0151596D01*
X0018380Y0151201D01*
X0018111Y0150800D01*
X0017851Y0150393D01*
X0017601Y0149979D01*
X0017361Y0149560D01*
X0017131Y0149134D01*
X0016911Y0148704D01*
X0016703Y0148268D01*
X0016504Y0147827D01*
X0016317Y0147382D01*
X0016140Y0146932D01*
X0015974Y0146478D01*
X0015819Y0146020D01*
X0015675Y0145559D01*
X0015542Y0145094D01*
X0015421Y0144626D01*
X0015311Y0144156D01*
X0015213Y0143683D01*
X0015125Y0143207D01*
X0015050Y0142730D01*
X0014986Y0142251D01*
X0014933Y0141770D01*
X0014893Y0141289D01*
X0014863Y0140806D01*
X0014846Y0140323D01*
X0014840Y0139840D01*
X0017940Y0137926D02*
X0046790Y0137926D01*
X0056040Y0137926D02*
X0057640Y0137926D01*
X0057640Y0139524D02*
X0056040Y0139524D01*
X0056040Y0141123D02*
X0057640Y0141123D01*
X0057640Y0142721D02*
X0056040Y0142721D01*
X0056040Y0147517D02*
X0057640Y0147517D01*
X0057640Y0149115D02*
X0056040Y0149115D01*
X0056040Y0150714D02*
X0057640Y0150714D01*
X0057640Y0152312D02*
X0056040Y0152312D01*
X0067077Y0152312D02*
X0073121Y0152312D01*
X0072544Y0150714D02*
X0067140Y0150714D01*
X0067140Y0149115D02*
X0072544Y0149115D01*
X0096985Y0153911D02*
X0097058Y0153911D01*
X0097058Y0155509D02*
X0096985Y0155509D01*
X0103583Y0155509D02*
X0120840Y0155509D01*
X0120840Y0153911D02*
X0104599Y0153911D01*
X0104673Y0152312D02*
X0120840Y0152312D01*
X0120840Y0150714D02*
X0103952Y0150714D01*
X0104120Y0149115D02*
X0120840Y0149115D01*
X0120840Y0147517D02*
X0104327Y0147517D01*
X0103512Y0145918D02*
X0120840Y0145918D01*
X0120840Y0144320D02*
X0104068Y0144320D01*
X0104646Y0142721D02*
X0120840Y0142721D01*
X0120840Y0141123D02*
X0106245Y0141123D01*
X0107843Y0139524D02*
X0120840Y0139524D01*
X0120840Y0137926D02*
X0108740Y0137926D01*
X0108740Y0136327D02*
X0120840Y0136327D01*
X0118759Y0125869D02*
X0118150Y0125990D01*
X0117840Y0125990D01*
X0117530Y0125990D01*
X0116921Y0125869D01*
X0116348Y0125632D01*
X0115832Y0125287D01*
X0115393Y0124848D01*
X0115049Y0124332D01*
X0114811Y0123759D01*
X0114690Y0123150D01*
X0114690Y0122840D01*
X0114690Y0122530D01*
X0114811Y0121921D01*
X0115049Y0121348D01*
X0115393Y0120832D01*
X0115832Y0120393D01*
X0116348Y0120049D01*
X0116921Y0119811D01*
X0117530Y0119690D01*
X0117840Y0119690D01*
X0117840Y0122840D01*
X0117840Y0122840D01*
X0114690Y0122840D01*
X0117840Y0122840D01*
X0117840Y0122840D01*
X0117840Y0119690D01*
X0118150Y0119690D01*
X0118759Y0119811D01*
X0119332Y0120049D01*
X0119848Y0120393D01*
X0120287Y0120832D01*
X0120632Y0121348D01*
X0120869Y0121921D01*
X0120990Y0122530D01*
X0120990Y0122840D01*
X0117840Y0122840D01*
X0117840Y0122840D01*
X0117840Y0125990D01*
X0117840Y0122840D01*
X0117840Y0122840D01*
X0120990Y0122840D01*
X0120990Y0123150D01*
X0120869Y0123759D01*
X0120632Y0124332D01*
X0120287Y0124848D01*
X0119848Y0125287D01*
X0119332Y0125632D01*
X0118759Y0125869D01*
X0117840Y0125137D02*
X0117840Y0125137D01*
X0117840Y0123539D02*
X0117840Y0123539D01*
X0117840Y0121940D02*
X0117840Y0121940D01*
X0117840Y0120342D02*
X0117840Y0120342D01*
X0115909Y0120342D02*
X0108740Y0120342D01*
X0108740Y0121940D02*
X0114807Y0121940D01*
X0114767Y0123539D02*
X0108740Y0123539D01*
X0108740Y0125137D02*
X0115683Y0125137D01*
X0119998Y0125137D02*
X0137623Y0125137D01*
X0137560Y0126736D02*
X0108740Y0126736D01*
X0108740Y0128334D02*
X0137157Y0128334D01*
X0137571Y0129933D02*
X0108740Y0129933D01*
X0108740Y0131531D02*
X0137195Y0131531D01*
X0136757Y0133130D02*
X0108740Y0133130D01*
X0108740Y0134729D02*
X0137086Y0134729D01*
X0137157Y0123539D02*
X0120913Y0123539D01*
X0120873Y0121940D02*
X0137508Y0121940D01*
X0137748Y0120342D02*
X0119771Y0120342D01*
X0112419Y0113948D02*
X0137157Y0113948D01*
X0137404Y0112349D02*
X0114018Y0112349D01*
X0115616Y0110751D02*
X0137999Y0110751D01*
X0137157Y0109152D02*
X0117215Y0109152D01*
X0118813Y0107554D02*
X0137352Y0107554D01*
X0138125Y0105955D02*
X0120412Y0105955D01*
X0122011Y0104357D02*
X0137170Y0104357D01*
X0137299Y0102758D02*
X0123609Y0102758D01*
X0125208Y0101160D02*
X0138251Y0101160D01*
X0137222Y0099561D02*
X0126806Y0099561D01*
X0128405Y0097963D02*
X0137247Y0097963D01*
X0138312Y0096364D02*
X0130003Y0096364D01*
X0131602Y0094766D02*
X0137274Y0094766D01*
X0137195Y0093167D02*
X0133200Y0093167D01*
X0128478Y0092516D02*
X0127512Y0092516D01*
X0126383Y0092048D01*
X0125663Y0091328D01*
X0124943Y0092048D01*
X0123814Y0092516D01*
X0122591Y0092516D01*
X0121462Y0092048D01*
X0120742Y0091328D01*
X0120022Y0092048D01*
X0118892Y0092516D01*
X0117670Y0092516D01*
X0116540Y0092048D01*
X0115820Y0091328D01*
X0115101Y0092048D01*
X0113971Y0092516D01*
X0112749Y0092516D01*
X0111619Y0092048D01*
X0110899Y0091328D01*
X0110179Y0092048D01*
X0109790Y0092209D01*
X0109790Y0092901D01*
X0110421Y0093532D01*
X0110840Y0094543D01*
X0110840Y0095637D01*
X0110421Y0096648D01*
X0109648Y0097421D01*
X0108637Y0097840D01*
X0107543Y0097840D01*
X0106532Y0097421D01*
X0105759Y0096648D01*
X0105340Y0095637D01*
X0105340Y0094543D01*
X0105759Y0093532D01*
X0106390Y0092901D01*
X0106390Y0091740D01*
X0105978Y0091328D01*
X0105258Y0092048D01*
X0104129Y0092516D01*
X0104018Y0092516D01*
X0104327Y0093260D01*
X0104327Y0094483D01*
X0103859Y0095612D01*
X0103139Y0096332D01*
X0103859Y0097052D01*
X0104327Y0098182D01*
X0104327Y0099404D01*
X0103859Y0100534D01*
X0103139Y0101254D01*
X0103859Y0101973D01*
X0104327Y0103103D01*
X0104327Y0104325D01*
X0103859Y0105455D01*
X0103413Y0105901D01*
X0103468Y0105938D01*
X0103951Y0106421D01*
X0104331Y0106990D01*
X0104593Y0107622D01*
X0104727Y0108293D01*
X0104727Y0108599D01*
X0097058Y0108599D01*
X0097058Y0108672D01*
X0104727Y0108672D01*
X0104727Y0108978D01*
X0104593Y0109649D01*
X0104331Y0110281D01*
X0103951Y0110849D01*
X0103468Y0111333D01*
X0103413Y0111370D01*
X0103700Y0111657D01*
X0104344Y0111657D01*
X0106840Y0114153D01*
X0128478Y0092516D01*
X0127826Y0093167D02*
X0110056Y0093167D01*
X0110659Y0091569D02*
X0111140Y0091569D01*
X0110840Y0094766D02*
X0126228Y0094766D01*
X0124629Y0096364D02*
X0110539Y0096364D01*
X0105641Y0096364D02*
X0103171Y0096364D01*
X0104210Y0094766D02*
X0105340Y0094766D01*
X0106124Y0093167D02*
X0104288Y0093167D01*
X0105737Y0091569D02*
X0106219Y0091569D01*
X0104236Y0097963D02*
X0123031Y0097963D01*
X0121432Y0099561D02*
X0104262Y0099561D01*
X0103233Y0101160D02*
X0119834Y0101160D01*
X0118235Y0102758D02*
X0104184Y0102758D01*
X0104314Y0104357D02*
X0116637Y0104357D01*
X0115038Y0105955D02*
X0103485Y0105955D01*
X0104565Y0107554D02*
X0113440Y0107554D01*
X0111841Y0109152D02*
X0104692Y0109152D01*
X0104017Y0110751D02*
X0110242Y0110751D01*
X0108644Y0112349D02*
X0105036Y0112349D01*
X0106635Y0113948D02*
X0107045Y0113948D01*
X0109222Y0117145D02*
X0137456Y0117145D01*
X0137157Y0118743D02*
X0108740Y0118743D01*
X0110821Y0115546D02*
X0137873Y0115546D01*
X0125904Y0091569D02*
X0125422Y0091569D01*
X0120982Y0091569D02*
X0120501Y0091569D01*
X0116061Y0091569D02*
X0115580Y0091569D01*
X0130540Y0079048D02*
X0130540Y0077136D01*
X0129544Y0076140D01*
X0126544Y0073140D01*
X0094029Y0073140D01*
X0093398Y0072509D01*
X0092387Y0072090D01*
X0091293Y0072090D01*
X0090540Y0072402D01*
X0090540Y0052544D01*
X0093494Y0049590D01*
X0094387Y0049590D01*
X0095398Y0049171D01*
X0096171Y0048398D01*
X0096590Y0047387D01*
X0096590Y0046293D01*
X0096171Y0045282D01*
X0095398Y0044509D01*
X0094387Y0044090D01*
X0093293Y0044090D01*
X0092282Y0044509D01*
X0091509Y0045282D01*
X0091090Y0046293D01*
X0091090Y0047186D01*
X0087140Y0051136D01*
X0087140Y0081544D01*
X0088136Y0082540D01*
X0095321Y0089725D01*
X0095321Y0090798D01*
X0092178Y0090798D01*
X0091048Y0091266D01*
X0090184Y0092131D01*
X0089716Y0093260D01*
X0089716Y0094483D01*
X0090184Y0095612D01*
X0090903Y0096332D01*
X0090184Y0097052D01*
X0089716Y0098182D01*
X0089716Y0099404D01*
X0090184Y0100534D01*
X0090903Y0101254D01*
X0090184Y0101973D01*
X0089716Y0103103D01*
X0089716Y0104325D01*
X0090184Y0105455D01*
X0090630Y0105901D01*
X0090575Y0105938D01*
X0090091Y0106421D01*
X0089711Y0106990D01*
X0089449Y0107622D01*
X0089316Y0108293D01*
X0089316Y0108599D01*
X0096985Y0108599D01*
X0096985Y0108672D01*
X0089316Y0108672D01*
X0089316Y0108978D01*
X0089449Y0109649D01*
X0089711Y0110281D01*
X0090091Y0110849D01*
X0090575Y0111333D01*
X0090630Y0111370D01*
X0090184Y0111816D01*
X0089716Y0112945D01*
X0089716Y0114168D01*
X0090184Y0115298D01*
X0090903Y0116017D01*
X0090590Y0116331D01*
X0090590Y0116293D01*
X0090171Y0115282D01*
X0089398Y0114509D01*
X0088387Y0114090D01*
X0087293Y0114090D01*
X0086740Y0114319D01*
X0086740Y0041627D01*
X0090101Y0038266D01*
X0090090Y0038293D01*
X0090090Y0039387D01*
X0090509Y0040398D01*
X0091282Y0041171D01*
X0092293Y0041590D01*
X0092903Y0041590D01*
X0094959Y0043646D01*
X0096503Y0043646D01*
X0096503Y0045278D01*
X0097323Y0046098D01*
X0106357Y0046098D01*
X0107177Y0045278D01*
X0107177Y0044864D01*
X0109983Y0047670D01*
X0109983Y0048924D01*
X0110804Y0049744D01*
X0110940Y0049744D01*
X0110940Y0056627D01*
X0130940Y0076627D01*
X0130940Y0078736D01*
X0130584Y0079092D01*
X0130540Y0079048D01*
X0130540Y0078781D02*
X0130896Y0078781D01*
X0130940Y0077182D02*
X0130540Y0077182D01*
X0129897Y0075584D02*
X0128988Y0075584D01*
X0128298Y0073985D02*
X0127389Y0073985D01*
X0126700Y0072387D02*
X0093103Y0072387D01*
X0090578Y0072387D02*
X0090540Y0072387D01*
X0090540Y0070788D02*
X0125101Y0070788D01*
X0123503Y0069190D02*
X0090540Y0069190D01*
X0090540Y0067591D02*
X0121904Y0067591D01*
X0120306Y0065993D02*
X0090540Y0065993D01*
X0090540Y0064394D02*
X0118707Y0064394D01*
X0117109Y0062796D02*
X0090540Y0062796D01*
X0090540Y0061197D02*
X0115510Y0061197D01*
X0113911Y0059598D02*
X0090540Y0059598D01*
X0090540Y0058000D02*
X0112313Y0058000D01*
X0110940Y0056401D02*
X0090540Y0056401D01*
X0090540Y0054803D02*
X0110940Y0054803D01*
X0110940Y0053204D02*
X0090540Y0053204D01*
X0091479Y0051606D02*
X0110940Y0051606D01*
X0110940Y0050007D02*
X0093077Y0050007D01*
X0096160Y0048409D02*
X0109983Y0048409D01*
X0109123Y0046810D02*
X0096590Y0046810D01*
X0096503Y0045212D02*
X0096101Y0045212D01*
X0094926Y0043613D02*
X0086740Y0043613D01*
X0086740Y0042015D02*
X0093328Y0042015D01*
X0091579Y0045212D02*
X0086740Y0045212D01*
X0086740Y0046810D02*
X0091090Y0046810D01*
X0089867Y0048409D02*
X0086740Y0048409D01*
X0086740Y0050007D02*
X0088269Y0050007D01*
X0087140Y0051606D02*
X0086740Y0051606D01*
X0086740Y0053204D02*
X0087140Y0053204D01*
X0087140Y0054803D02*
X0086740Y0054803D01*
X0086740Y0056401D02*
X0087140Y0056401D01*
X0087140Y0058000D02*
X0086740Y0058000D01*
X0086740Y0059598D02*
X0087140Y0059598D01*
X0087140Y0061197D02*
X0086740Y0061197D01*
X0086740Y0062796D02*
X0087140Y0062796D01*
X0087140Y0064394D02*
X0086740Y0064394D01*
X0086740Y0065993D02*
X0087140Y0065993D01*
X0087140Y0067591D02*
X0086740Y0067591D01*
X0086740Y0069190D02*
X0087140Y0069190D01*
X0087140Y0070788D02*
X0086740Y0070788D01*
X0086740Y0072387D02*
X0087140Y0072387D01*
X0087140Y0073985D02*
X0086740Y0073985D01*
X0086740Y0075584D02*
X0087140Y0075584D01*
X0087140Y0077182D02*
X0086740Y0077182D01*
X0086740Y0078781D02*
X0087140Y0078781D01*
X0087140Y0080379D02*
X0086740Y0080379D01*
X0086740Y0081978D02*
X0087573Y0081978D01*
X0086740Y0083576D02*
X0089172Y0083576D01*
X0090771Y0085175D02*
X0086740Y0085175D01*
X0086740Y0086773D02*
X0092369Y0086773D01*
X0093968Y0088372D02*
X0086740Y0088372D01*
X0086740Y0089970D02*
X0095321Y0089970D01*
X0090746Y0091569D02*
X0086740Y0091569D01*
X0086740Y0093167D02*
X0089754Y0093167D01*
X0089833Y0094766D02*
X0086740Y0094766D01*
X0086740Y0096364D02*
X0090871Y0096364D01*
X0089806Y0097963D02*
X0086740Y0097963D01*
X0086740Y0099561D02*
X0089781Y0099561D01*
X0090810Y0101160D02*
X0086740Y0101160D01*
X0086740Y0102758D02*
X0089858Y0102758D01*
X0089729Y0104357D02*
X0086740Y0104357D01*
X0086740Y0105955D02*
X0090557Y0105955D01*
X0089478Y0107554D02*
X0086740Y0107554D01*
X0086740Y0109152D02*
X0089351Y0109152D01*
X0090025Y0110751D02*
X0086740Y0110751D01*
X0086740Y0112349D02*
X0089963Y0112349D01*
X0089716Y0113948D02*
X0086740Y0113948D01*
X0090281Y0115546D02*
X0090432Y0115546D01*
X0080940Y0093167D02*
X0080571Y0093167D01*
X0080940Y0091569D02*
X0078973Y0091569D01*
X0077374Y0089970D02*
X0080940Y0089970D01*
X0080940Y0088372D02*
X0075776Y0088372D01*
X0074177Y0086773D02*
X0080940Y0086773D01*
X0080940Y0085175D02*
X0072579Y0085175D01*
X0070980Y0083576D02*
X0080940Y0083576D01*
X0080940Y0081978D02*
X0069382Y0081978D01*
X0068590Y0080379D02*
X0080940Y0080379D01*
X0080940Y0078781D02*
X0067670Y0078781D01*
X0051840Y0115546D02*
X0051840Y0115546D01*
X0051840Y0117145D02*
X0051840Y0117145D01*
X0051840Y0118743D02*
X0051840Y0118743D01*
X0051840Y0120342D02*
X0051840Y0120342D01*
X0116088Y0056401D02*
X0119716Y0056401D01*
X0119690Y0056530D02*
X0119811Y0055921D01*
X0120049Y0055348D01*
X0120393Y0054832D01*
X0120832Y0054393D01*
X0121348Y0054049D01*
X0121921Y0053811D01*
X0122530Y0053690D01*
X0122840Y0053690D01*
X0122840Y0056840D01*
X0119690Y0056840D01*
X0119690Y0056530D01*
X0119690Y0056840D02*
X0122840Y0056840D01*
X0122840Y0056840D01*
X0122840Y0056840D01*
X0122840Y0053690D01*
X0123150Y0053690D01*
X0123759Y0053811D01*
X0124332Y0054049D01*
X0124848Y0054393D01*
X0125287Y0054832D01*
X0125632Y0055348D01*
X0125869Y0055921D01*
X0125990Y0056530D01*
X0125990Y0056840D01*
X0122840Y0056840D01*
X0122840Y0059990D01*
X0122530Y0059990D01*
X0121921Y0059869D01*
X0121348Y0059632D01*
X0120832Y0059287D01*
X0120393Y0058848D01*
X0120049Y0058332D01*
X0119811Y0057759D01*
X0119690Y0057150D01*
X0119690Y0056840D01*
X0119911Y0058000D02*
X0117687Y0058000D01*
X0119285Y0059598D02*
X0121298Y0059598D01*
X0122840Y0059598D02*
X0122840Y0059598D01*
X0122840Y0059990D02*
X0122840Y0056840D01*
X0122840Y0056840D01*
X0122840Y0056840D01*
X0125990Y0056840D01*
X0125990Y0057150D01*
X0125869Y0057759D01*
X0125632Y0058332D01*
X0125287Y0058848D01*
X0124848Y0059287D01*
X0124332Y0059632D01*
X0123759Y0059869D01*
X0123150Y0059990D01*
X0122840Y0059990D01*
X0124382Y0059598D02*
X0155519Y0059598D01*
X0155519Y0058000D02*
X0125769Y0058000D01*
X0125965Y0056401D02*
X0155519Y0056401D01*
X0154399Y0054803D02*
X0125258Y0054803D01*
X0122840Y0054803D02*
X0122840Y0054803D01*
X0122840Y0056401D02*
X0122840Y0056401D01*
X0122840Y0058000D02*
X0122840Y0058000D01*
X0120884Y0061197D02*
X0155519Y0061197D01*
X0155519Y0062796D02*
X0122483Y0062796D01*
X0124081Y0064394D02*
X0155519Y0064394D01*
X0155519Y0065993D02*
X0125680Y0065993D01*
X0127278Y0067591D02*
X0155519Y0067591D01*
X0155519Y0069190D02*
X0128877Y0069190D01*
X0130475Y0070788D02*
X0155519Y0070788D01*
X0155519Y0072387D02*
X0132074Y0072387D01*
X0133672Y0073985D02*
X0145806Y0073985D01*
X0145090Y0075584D02*
X0134740Y0075584D01*
X0134740Y0077182D02*
X0145419Y0077182D01*
X0146302Y0078781D02*
X0140675Y0078781D01*
X0141388Y0080379D02*
X0146090Y0080379D01*
X0147089Y0081978D02*
X0141439Y0081978D01*
X0141439Y0083576D02*
X0150172Y0083576D01*
X0151089Y0085175D02*
X0145591Y0085175D01*
X0144089Y0085175D02*
X0138003Y0085175D01*
X0138003Y0083576D02*
X0137930Y0083576D01*
X0137930Y0081978D02*
X0138003Y0081978D01*
X0138003Y0080379D02*
X0137930Y0080379D01*
X0137930Y0078781D02*
X0138003Y0078781D01*
X0135257Y0078781D02*
X0135194Y0078781D01*
X0141439Y0086773D02*
X0142306Y0086773D01*
X0142090Y0088372D02*
X0141439Y0088372D01*
X0141402Y0089970D02*
X0142762Y0089970D01*
X0146599Y0089970D02*
X0150081Y0089970D01*
X0149090Y0088372D02*
X0147590Y0088372D01*
X0147375Y0086773D02*
X0149306Y0086773D01*
X0153988Y0075584D02*
X0155519Y0075584D01*
X0155519Y0073985D02*
X0149874Y0073985D01*
X0152800Y0053204D02*
X0114740Y0053204D01*
X0114740Y0051606D02*
X0151202Y0051606D01*
X0149603Y0050007D02*
X0114740Y0050007D01*
X0114740Y0054803D02*
X0120423Y0054803D01*
X0107525Y0045212D02*
X0107177Y0045212D01*
X0107248Y0033940D02*
X0110734Y0033940D01*
X0110391Y0033742D01*
X0110001Y0033353D01*
X0109726Y0032876D01*
X0109583Y0032344D01*
X0109583Y0026848D01*
X0109583Y0021740D01*
X0102627Y0021740D01*
X0099185Y0025182D01*
X0101164Y0025182D01*
X0101164Y0029258D01*
X0102517Y0029258D01*
X0102517Y0030611D01*
X0107577Y0030611D01*
X0107577Y0033124D01*
X0107455Y0033582D01*
X0107248Y0033940D01*
X0107577Y0032424D02*
X0109605Y0032424D01*
X0109583Y0030825D02*
X0107577Y0030825D01*
X0107577Y0029258D02*
X0102517Y0029258D01*
X0102517Y0025182D01*
X0106014Y0025182D01*
X0106472Y0025305D01*
X0106882Y0025542D01*
X0107218Y0025877D01*
X0107455Y0026287D01*
X0107577Y0026745D01*
X0107577Y0029258D01*
X0107577Y0029227D02*
X0109583Y0029227D01*
X0109583Y0027628D02*
X0107577Y0027628D01*
X0107306Y0026030D02*
X0109583Y0026030D01*
X0109583Y0026848D02*
X0112840Y0026848D01*
X0112840Y0026848D01*
X0109583Y0026848D01*
X0109583Y0024431D02*
X0099936Y0024431D01*
X0101164Y0026030D02*
X0102517Y0026030D01*
X0102517Y0027628D02*
X0101164Y0027628D01*
X0101164Y0029227D02*
X0102517Y0029227D01*
X0101164Y0029258D02*
X0101164Y0030611D01*
X0096103Y0030611D01*
X0096103Y0033124D01*
X0096226Y0033582D01*
X0096433Y0033940D01*
X0090427Y0033940D01*
X0096103Y0028264D01*
X0096103Y0029258D01*
X0101164Y0029258D01*
X0096103Y0029227D02*
X0095141Y0029227D01*
X0096103Y0030825D02*
X0093542Y0030825D01*
X0091944Y0032424D02*
X0096103Y0032424D01*
X0090090Y0038818D02*
X0089549Y0038818D01*
X0090527Y0040416D02*
X0087951Y0040416D01*
X0101535Y0022833D02*
X0109583Y0022833D01*
X0135697Y0048409D02*
X0148005Y0048409D01*
X0149222Y0038818D02*
X0149650Y0038818D01*
X0147623Y0037219D02*
X0156740Y0037219D01*
X0156740Y0035621D02*
X0146025Y0035621D01*
X0147302Y0034022D02*
X0144426Y0034022D01*
X0144514Y0032424D02*
X0142828Y0032424D01*
X0150378Y0034022D02*
X0156694Y0034022D01*
X0156514Y0032424D02*
X0153166Y0032424D01*
X0154423Y0030825D02*
X0156149Y0030825D01*
X0155777Y0029227D02*
X0155085Y0029227D01*
X0156030Y0038818D02*
X0156740Y0038818D01*
X0046940Y0037219D02*
X0024733Y0037219D01*
X0014841Y0035089D02*
X0014847Y0034600D01*
X0014865Y0034111D01*
X0014894Y0033622D01*
X0014936Y0033135D01*
X0014989Y0032648D01*
X0015053Y0032163D01*
X0015130Y0031680D01*
X0015218Y0031199D01*
X0015318Y0030720D01*
X0015429Y0030243D01*
X0015552Y0029770D01*
X0015686Y0029299D01*
X0015832Y0028832D01*
X0015989Y0028369D01*
X0016157Y0027909D01*
X0016336Y0027454D01*
X0016526Y0027003D01*
X0016727Y0026556D01*
X0016938Y0026115D01*
X0017160Y0025679D01*
X0017393Y0025249D01*
X0017636Y0024824D01*
X0017889Y0024405D01*
X0018152Y0023993D01*
X0018425Y0023587D01*
X0018708Y0023188D01*
X0019000Y0022795D01*
X0019302Y0022410D01*
X0019613Y0022032D01*
X0019933Y0021662D01*
X0020262Y0021300D01*
X0020600Y0020946D01*
X0020946Y0020600D01*
X0021300Y0020262D01*
X0021662Y0019933D01*
X0022032Y0019613D01*
X0022410Y0019302D01*
X0022795Y0019000D01*
X0023188Y0018708D01*
X0023587Y0018425D01*
X0023993Y0018152D01*
X0024405Y0017889D01*
X0024824Y0017636D01*
X0025249Y0017393D01*
X0025679Y0017160D01*
X0026115Y0016938D01*
X0026556Y0016727D01*
X0027003Y0016526D01*
X0027454Y0016336D01*
X0027909Y0016157D01*
X0028369Y0015989D01*
X0028832Y0015832D01*
X0029299Y0015686D01*
X0029770Y0015552D01*
X0030243Y0015429D01*
X0030720Y0015318D01*
X0031199Y0015218D01*
X0031680Y0015130D01*
X0032163Y0015053D01*
X0032648Y0014989D01*
X0033135Y0014936D01*
X0033622Y0014894D01*
X0034111Y0014865D01*
X0034600Y0014847D01*
X0035089Y0014841D01*
X0040351Y0027628D02*
X0019768Y0027628D01*
D12*
X0056840Y0030340D03*
X0056840Y0145340D03*
D13*
X0142840Y0042840D03*
X0152840Y0042840D03*
D14*
X0114005Y0032069D02*
X0114005Y0021627D01*
X0111675Y0021627D01*
X0111675Y0032069D01*
X0114005Y0032069D01*
X0114005Y0022209D02*
X0111675Y0022209D01*
X0111675Y0022791D02*
X0114005Y0022791D01*
X0114005Y0023373D02*
X0111675Y0023373D01*
X0111675Y0023955D02*
X0114005Y0023955D01*
X0114005Y0024537D02*
X0111675Y0024537D01*
X0111675Y0025119D02*
X0114005Y0025119D01*
X0114005Y0025701D02*
X0111675Y0025701D01*
X0111675Y0026283D02*
X0114005Y0026283D01*
X0114005Y0026865D02*
X0111675Y0026865D01*
X0111675Y0027447D02*
X0114005Y0027447D01*
X0114005Y0028029D02*
X0111675Y0028029D01*
X0111675Y0028611D02*
X0114005Y0028611D01*
X0114005Y0029193D02*
X0111675Y0029193D01*
X0111675Y0029775D02*
X0114005Y0029775D01*
X0114005Y0030357D02*
X0111675Y0030357D01*
X0111675Y0030939D02*
X0114005Y0030939D01*
X0114005Y0031521D02*
X0111675Y0031521D01*
D15*
X0117840Y0026848D03*
X0122840Y0026848D03*
X0127840Y0026848D03*
X0132840Y0026848D03*
X0132840Y0042832D03*
X0127840Y0042832D03*
X0122840Y0042832D03*
X0117840Y0042832D03*
X0112840Y0042832D03*
D16*
X0113360Y0080978D02*
X0113360Y0089442D01*
X0118281Y0089442D02*
X0118281Y0080978D01*
X0123202Y0080978D02*
X0123202Y0089442D01*
X0128124Y0089442D02*
X0128124Y0080978D01*
X0133045Y0080978D02*
X0133045Y0089442D01*
X0137966Y0089442D02*
X0137966Y0080978D01*
X0140230Y0093872D02*
X0148694Y0093872D01*
X0148694Y0098793D02*
X0140230Y0098793D01*
X0140230Y0103714D02*
X0148694Y0103714D01*
X0148694Y0108635D02*
X0140230Y0108635D01*
X0140230Y0113557D02*
X0148694Y0113557D01*
X0148694Y0118478D02*
X0140230Y0118478D01*
X0140230Y0123399D02*
X0148694Y0123399D01*
X0148694Y0128320D02*
X0140230Y0128320D01*
X0140230Y0133242D02*
X0148694Y0133242D01*
X0108439Y0089442D02*
X0108439Y0080978D01*
X0103517Y0080978D02*
X0103517Y0089442D01*
X0101253Y0093872D02*
X0092789Y0093872D01*
X0092789Y0098793D02*
X0101253Y0098793D01*
X0101253Y0103714D02*
X0092789Y0103714D01*
X0092789Y0108635D02*
X0101253Y0108635D01*
X0101253Y0113557D02*
X0092789Y0113557D01*
X0092789Y0118478D02*
X0101253Y0118478D01*
X0101253Y0123399D02*
X0092789Y0123399D01*
X0092789Y0128320D02*
X0101253Y0128320D01*
X0101253Y0133242D02*
X0092789Y0133242D01*
X0092789Y0138163D02*
X0101253Y0138163D01*
X0101253Y0143084D02*
X0092789Y0143084D01*
X0092789Y0148006D02*
X0101253Y0148006D01*
X0101253Y0152927D02*
X0092789Y0152927D01*
D17*
X0084777Y0147840D03*
X0076903Y0147840D03*
X0076903Y0139840D03*
X0084777Y0139840D03*
D18*
X0101840Y0041746D03*
X0101840Y0029935D03*
D19*
X0108840Y0028840D03*
X0092840Y0038840D03*
X0093840Y0046840D03*
X0078840Y0030340D03*
X0073840Y0022840D03*
X0056840Y0051840D03*
X0065840Y0080840D03*
X0091840Y0074840D03*
X0093840Y0078840D03*
X0091840Y0087840D03*
X0108090Y0095090D03*
X0087840Y0116840D03*
X0079840Y0132840D03*
X0068840Y0147840D03*
X0051840Y0117840D03*
X0115840Y0145840D03*
X0115840Y0148840D03*
X0115840Y0151840D03*
X0115840Y0154840D03*
X0117840Y0122840D03*
X0144840Y0087840D03*
X0151840Y0087840D03*
X0148840Y0079840D03*
X0147840Y0075840D03*
X0122840Y0056840D03*
X0139840Y0027840D03*
X0154840Y0130840D03*
D20*
X0152439Y0133242D01*
X0144462Y0133242D01*
X0139840Y0133242D01*
X0136840Y0130242D01*
X0136840Y0086336D01*
X0137966Y0085210D01*
X0142840Y0080336D01*
X0142840Y0042840D01*
X0128840Y0056840D01*
X0122840Y0056840D01*
X0112840Y0055840D02*
X0112840Y0047840D01*
X0106746Y0041746D01*
X0101840Y0041746D01*
X0095746Y0041746D01*
X0092840Y0038840D01*
X0093187Y0039187D01*
X0089840Y0035840D02*
X0115840Y0035840D01*
X0117840Y0037840D01*
X0117840Y0042832D01*
X0112840Y0042832D02*
X0112840Y0047840D01*
X0112840Y0055840D02*
X0132840Y0075840D01*
X0132840Y0081840D01*
X0131840Y0081840D01*
X0131840Y0084006D01*
X0133045Y0085210D01*
X0133045Y0090635D01*
X0106840Y0116840D01*
X0106840Y0137840D01*
X0101840Y0142840D01*
X0097265Y0142840D01*
X0097021Y0143084D01*
X0097021Y0148006D01*
X0096856Y0147840D01*
X0084777Y0147840D01*
X0084777Y0139840D01*
X0076903Y0139840D02*
X0076903Y0147840D01*
X0068840Y0147840D01*
X0056340Y0147840D01*
X0056840Y0148340D01*
X0056840Y0145340D01*
X0056840Y0122840D01*
X0051840Y0117840D01*
X0056840Y0112840D01*
X0056840Y0051840D01*
X0056840Y0030340D02*
X0078840Y0030340D01*
X0088340Y0030340D01*
X0100924Y0017757D01*
X0130757Y0017757D01*
X0133840Y0020840D01*
X0133840Y0025848D01*
X0132840Y0026848D01*
X0117840Y0026848D02*
X0117840Y0021840D01*
X0115840Y0019840D01*
X0101840Y0019840D01*
X0082840Y0038840D01*
X0082840Y0127840D01*
X0092840Y0137840D01*
X0098698Y0137840D01*
X0097021Y0138163D01*
X0097021Y0133242D02*
X0091242Y0133242D01*
X0084840Y0126840D01*
X0084840Y0040840D01*
X0089840Y0035840D01*
X0101840Y0029935D02*
X0107746Y0029935D01*
X0108840Y0028840D01*
X0110832Y0026848D01*
X0112840Y0026848D01*
X0105840Y0031840D02*
X0103840Y0029840D01*
X0101840Y0029840D01*
X0101840Y0029935D01*
X0105187Y0032494D02*
X0105840Y0031840D01*
X0074840Y0022840D02*
X0073840Y0022840D01*
X0091840Y0087840D02*
X0087840Y0091840D01*
X0087840Y0104840D01*
X0091635Y0108635D01*
X0097021Y0108635D01*
X0097021Y0113557D02*
X0103557Y0113557D01*
X0106840Y0116840D01*
X0117840Y0122840D02*
X0117840Y0126643D01*
X0124439Y0133242D01*
X0104840Y0152840D01*
X0113840Y0152840D01*
X0113840Y0147840D01*
X0115840Y0145840D01*
X0115840Y0148840D02*
X0115840Y0151840D01*
X0114340Y0153340D01*
X0115840Y0154840D01*
X0114340Y0153340D02*
X0113840Y0152840D01*
X0115840Y0149840D02*
X0115840Y0148840D01*
X0104840Y0152840D02*
X0099108Y0152840D01*
X0097021Y0152927D01*
X0098935Y0152840D01*
X0061340Y0152840D01*
X0056840Y0148340D01*
X0056340Y0147840D02*
X0056840Y0147340D01*
X0124439Y0133242D02*
X0139840Y0133242D01*
D21*
X0144462Y0128320D02*
X0146982Y0128840D01*
X0151840Y0128840D01*
X0157219Y0123461D01*
X0157219Y0055219D01*
X0147840Y0045840D01*
X0147840Y0039840D01*
X0141840Y0033840D01*
X0130840Y0033840D01*
X0127840Y0030840D01*
X0127840Y0026848D01*
X0093840Y0046840D02*
X0088840Y0051840D01*
X0088840Y0080840D01*
X0097021Y0089021D01*
X0097021Y0093872D01*
X0102210Y0085210D02*
X0103840Y0084840D01*
X0097840Y0078840D01*
X0093840Y0078840D01*
X0091840Y0074840D02*
X0125840Y0074840D01*
X0128840Y0077840D01*
X0128840Y0084494D01*
X0128124Y0085210D01*
X0144462Y0088218D02*
X0144840Y0087840D01*
X0144462Y0088218D02*
X0144462Y0093872D01*
X0151840Y0087840D02*
X0151840Y0101840D01*
X0149966Y0103714D01*
X0144462Y0103714D01*
X0154684Y0115997D02*
X0154684Y0085684D01*
X0148840Y0079840D01*
X0147840Y0075840D02*
X0151840Y0075840D01*
X0155895Y0079895D01*
X0155895Y0120417D01*
X0152913Y0123399D01*
X0144462Y0123399D01*
X0144462Y0118478D02*
X0152202Y0118478D01*
X0154684Y0115997D01*
X0108439Y0085210D02*
X0108090Y0085559D01*
X0108090Y0095090D01*
X0103517Y0085210D02*
X0102210Y0085210D01*
X0079840Y0094840D02*
X0065840Y0080840D01*
X0079840Y0094840D02*
X0079840Y0132840D01*
X0089478Y0118478D02*
X0087840Y0116840D01*
X0089478Y0118478D02*
X0097021Y0118478D01*
M02*
