%
M48
M72
T01C0.01300
T02C0.03937
T03C0.08000
%
T01
X81475Y139412
X71475Y125412
X57475Y123412
X36475Y143412
X42475Y154412
X62475Y57412
X83475Y81412
X78475Y85412
X68688Y90611
X64475Y100412
X57475Y100412
X79475Y107412
X87475Y108412
X102475Y81412
X90475Y72412
X128475Y62412
X155475Y84412
X152475Y90412
X123475Y128412
X145475Y152412
X148475Y149412
X142475Y155412
X160475Y131412
T02
X76475Y151412
X76475Y143412
X46475Y147412
T03
X31475Y32412
X33475Y154412
X155475Y155412
X154475Y33412
M30
