%
M48
M72
T01C0.01300
T02C0.04000
T03C0.08000
%
T01
X79475Y158412
X59475Y151412
X75475Y144412
X57475Y123412
X123475Y128412
X135475Y154412
X154975Y141912
X159475Y125412
X157475Y104412
X154475Y101412
X151475Y98412
X128475Y62412
X62475Y57412
T02
X86475Y148412
X86475Y156412
X66475Y152412
T03
X31475Y32412
X33475Y154412
X155475Y155412
X154475Y33412
M30
