%
M48
M72
T01C0.01300
T02C0.04000
T03C0.08000
%
T01
X79475Y158412
X146475Y157412
X142475Y157412
X139475Y151412
X141475Y147412
X138475Y145412
X143475Y138412
X59475Y151412
X73475Y144412
X78475Y140412
X86475Y125412
X92475Y116412
X123475Y128412
X127475Y88412
X135475Y82412
X150475Y70412
X128475Y62412
X62475Y57412
X57475Y123412
T02
X66475Y152412
X86475Y156412
X86475Y148412
T03
X31475Y32412
X33475Y154412
X155475Y155412
X154475Y33412
M30
