G75*
%MOIN*%
%OFA0B0*%
%FSLAX25Y25*%
%IPPOS*%
%LPD*%
%AMOC8*
5,1,8,0,0,1.08239X$1,22.5*
%
%ADD10C,0.00300*%
%ADD11C,0.00400*%
%ADD12C,0.00200*%
%ADD13C,0.00000*%
%ADD14C,0.01600*%
%ADD15R,0.00500X0.00500*%
%ADD16R,0.01500X0.00500*%
%ADD17R,0.02500X0.00500*%
%ADD18R,0.03500X0.00500*%
%ADD19R,0.04500X0.00500*%
%ADD20R,0.05500X0.00500*%
%ADD21R,0.06500X0.00500*%
%ADD22R,0.07500X0.00500*%
%ADD23R,0.04000X0.00500*%
%ADD24R,0.07000X0.00500*%
%ADD25R,0.06000X0.00500*%
%ADD26R,0.05000X0.00500*%
%ADD27R,0.03000X0.00500*%
%ADD28R,0.02000X0.00500*%
%ADD29R,0.01000X0.00500*%
%ADD30C,0.00500*%
%ADD31C,0.00800*%
%ADD32C,0.02200*%
%ADD33C,0.00100*%
D10*
X0103864Y0092447D02*
X0105799Y0092447D01*
X0104832Y0092447D02*
X0104832Y0095349D01*
X0103864Y0094382D01*
X0106811Y0094866D02*
X0107294Y0095349D01*
X0108262Y0095349D01*
X0108746Y0094866D01*
X0108746Y0094382D01*
X0108262Y0093898D01*
X0108746Y0093414D01*
X0108746Y0092931D01*
X0108262Y0092447D01*
X0107294Y0092447D01*
X0106811Y0092931D01*
X0107778Y0093898D02*
X0108262Y0093898D01*
X0132801Y0094866D02*
X0133285Y0095349D01*
X0134252Y0095349D01*
X0134736Y0094866D01*
X0134736Y0094382D01*
X0132801Y0092447D01*
X0134736Y0092447D01*
X0135748Y0092447D02*
X0137683Y0094382D01*
X0137683Y0094866D01*
X0137199Y0095349D01*
X0136231Y0095349D01*
X0135748Y0094866D01*
X0135748Y0092447D02*
X0137683Y0092447D01*
X0145770Y0059693D02*
X0145261Y0059185D01*
X0145770Y0059693D02*
X0146786Y0059693D01*
X0147294Y0059185D01*
X0147294Y0058676D01*
X0145261Y0056644D01*
X0147294Y0056644D01*
X0148343Y0057152D02*
X0150375Y0059185D01*
X0150375Y0057152D01*
X0149867Y0056644D01*
X0148851Y0056644D01*
X0148343Y0057152D01*
X0148343Y0059185D01*
X0148851Y0059693D01*
X0149867Y0059693D01*
X0150375Y0059185D01*
X0151424Y0058676D02*
X0152440Y0059693D01*
X0152440Y0056644D01*
X0151424Y0056644D02*
X0153457Y0056644D01*
X0154506Y0057152D02*
X0155014Y0056644D01*
X0156030Y0056644D01*
X0156538Y0057152D01*
X0156538Y0058168D01*
X0156030Y0058676D01*
X0155522Y0058676D01*
X0154506Y0058168D01*
X0154506Y0059693D01*
X0156538Y0059693D01*
X0143956Y0054673D02*
X0142940Y0054165D01*
X0141923Y0053149D01*
X0143448Y0053149D01*
X0143956Y0052640D01*
X0143956Y0052132D01*
X0143448Y0051624D01*
X0142431Y0051624D01*
X0141923Y0052132D01*
X0141923Y0053149D01*
X0140875Y0051624D02*
X0138842Y0051624D01*
X0139858Y0051624D02*
X0139858Y0054673D01*
X0138842Y0053657D01*
X0140115Y0055627D02*
X0140623Y0055627D01*
X0141131Y0056136D01*
X0141131Y0058676D01*
X0141131Y0056644D02*
X0139607Y0056644D01*
X0139099Y0057152D01*
X0139099Y0058676D01*
X0138055Y0058676D02*
X0137547Y0058676D01*
X0136531Y0057660D01*
X0136531Y0056644D02*
X0136531Y0058676D01*
X0135482Y0058168D02*
X0135482Y0056644D01*
X0133958Y0056644D01*
X0133449Y0057152D01*
X0133958Y0057660D01*
X0135482Y0057660D01*
X0135482Y0058168D02*
X0134974Y0058676D01*
X0133958Y0058676D01*
X0132401Y0058676D02*
X0132401Y0056644D01*
X0130876Y0056644D01*
X0130368Y0057152D01*
X0130368Y0058676D01*
X0129325Y0058676D02*
X0128817Y0058676D01*
X0127800Y0057660D01*
X0127800Y0056644D02*
X0127800Y0058676D01*
X0126752Y0058168D02*
X0126752Y0057152D01*
X0126243Y0056644D01*
X0124719Y0056644D01*
X0124719Y0059693D01*
X0124719Y0058676D02*
X0126243Y0058676D01*
X0126752Y0058168D01*
X0123670Y0058168D02*
X0123670Y0057660D01*
X0121638Y0057660D01*
X0121638Y0057152D02*
X0121638Y0058168D01*
X0122146Y0058676D01*
X0123162Y0058676D01*
X0123670Y0058168D01*
X0123162Y0056644D02*
X0122146Y0056644D01*
X0121638Y0057152D01*
X0119573Y0058168D02*
X0118556Y0058168D01*
X0118556Y0056644D02*
X0118556Y0059693D01*
X0120589Y0059693D01*
X0124976Y0054673D02*
X0126500Y0054673D01*
X0127008Y0054165D01*
X0127008Y0053149D01*
X0126500Y0052640D01*
X0124976Y0052640D01*
X0124976Y0051624D02*
X0124976Y0054673D01*
X0125992Y0052640D02*
X0127008Y0051624D01*
X0128057Y0052132D02*
X0128057Y0053149D01*
X0128565Y0053657D01*
X0129582Y0053657D01*
X0130090Y0053149D01*
X0130090Y0052640D01*
X0128057Y0052640D01*
X0128057Y0052132D02*
X0128565Y0051624D01*
X0129582Y0051624D01*
X0131138Y0053657D02*
X0132155Y0051624D01*
X0133171Y0053657D01*
X0134220Y0052132D02*
X0134728Y0052132D01*
X0134728Y0051624D01*
X0134220Y0051624D01*
X0134220Y0052132D01*
X0114426Y0058168D02*
X0112393Y0058168D01*
X0113918Y0059693D01*
X0113918Y0056644D01*
X0133285Y0131817D02*
X0132801Y0132301D01*
X0133285Y0131817D02*
X0134252Y0131817D01*
X0134736Y0132301D01*
X0134736Y0132784D01*
X0134252Y0133268D01*
X0133769Y0133268D01*
X0134252Y0133268D02*
X0134736Y0133752D01*
X0134736Y0134236D01*
X0134252Y0134719D01*
X0133285Y0134719D01*
X0132801Y0134236D01*
X0135748Y0134236D02*
X0135748Y0132301D01*
X0137683Y0134236D01*
X0137683Y0132301D01*
X0137199Y0131817D01*
X0136231Y0131817D01*
X0135748Y0132301D01*
X0135748Y0134236D02*
X0136231Y0134719D01*
X0137199Y0134719D01*
X0137683Y0134236D01*
X0105799Y0151699D02*
X0103864Y0151699D01*
X0104832Y0151699D02*
X0104832Y0154601D01*
X0103864Y0153634D01*
X0103520Y0157998D02*
X0101051Y0157998D01*
X0102286Y0157998D02*
X0102286Y0161701D01*
X0101051Y0160467D01*
X0099837Y0161701D02*
X0099837Y0158615D01*
X0099220Y0157998D01*
X0097985Y0157998D01*
X0097368Y0158615D01*
X0097368Y0161701D01*
D11*
X0070506Y0145342D02*
X0067436Y0145342D01*
X0114020Y0073644D02*
X0117090Y0073644D01*
X0118624Y0073644D02*
X0118624Y0069807D01*
X0119392Y0069040D01*
X0120926Y0069040D01*
X0121694Y0069807D01*
X0121694Y0073644D01*
X0123228Y0073644D02*
X0125530Y0073644D01*
X0126298Y0072877D01*
X0126298Y0071342D01*
X0125530Y0070575D01*
X0123228Y0070575D01*
X0123228Y0069040D02*
X0123228Y0073644D01*
X0124763Y0070575D02*
X0126298Y0069040D01*
X0127832Y0069040D02*
X0127832Y0073644D01*
X0130902Y0069040D01*
X0130902Y0073644D01*
X0137040Y0073644D02*
X0140109Y0073644D01*
X0138575Y0073644D02*
X0138575Y0069040D01*
X0141644Y0069807D02*
X0141644Y0072877D01*
X0142411Y0073644D01*
X0143946Y0073644D01*
X0144713Y0072877D01*
X0144713Y0069807D01*
X0143946Y0069040D01*
X0142411Y0069040D01*
X0141644Y0069807D01*
X0146248Y0069807D02*
X0147015Y0069040D01*
X0148550Y0069040D01*
X0149317Y0069807D01*
X0149317Y0073644D01*
X0150852Y0072877D02*
X0150852Y0069807D01*
X0151619Y0069040D01*
X0153154Y0069040D01*
X0153921Y0069807D01*
X0155456Y0069040D02*
X0155456Y0073644D01*
X0153921Y0072877D02*
X0153154Y0073644D01*
X0151619Y0073644D01*
X0150852Y0072877D01*
X0155456Y0071342D02*
X0158525Y0071342D01*
X0158525Y0073644D02*
X0158525Y0069040D01*
X0146248Y0069807D02*
X0146248Y0073644D01*
X0115555Y0073644D02*
X0115555Y0069040D01*
X0070506Y0030342D02*
X0067436Y0030342D01*
X0068971Y0031877D02*
X0068971Y0028807D01*
X0111540Y0020142D02*
X0111540Y0018040D01*
X0111540Y0018741D02*
X0112591Y0018741D01*
X0112941Y0019091D01*
X0112941Y0019792D01*
X0112591Y0020142D01*
X0111540Y0020142D01*
X0113842Y0020142D02*
X0113842Y0018040D01*
X0113842Y0018741D02*
X0114893Y0018741D01*
X0115243Y0019091D01*
X0115243Y0019792D01*
X0114893Y0020142D01*
X0113842Y0020142D01*
X0114543Y0018741D02*
X0115243Y0018040D01*
X0116144Y0018390D02*
X0116144Y0019792D01*
X0116494Y0020142D01*
X0117195Y0020142D01*
X0117545Y0019792D01*
X0117545Y0018390D01*
X0117195Y0018040D01*
X0116494Y0018040D01*
X0116144Y0018390D01*
X0118446Y0018390D02*
X0118446Y0019792D01*
X0118796Y0020142D01*
X0119497Y0020142D01*
X0119847Y0019792D01*
X0119847Y0019091D02*
X0119147Y0019091D01*
X0119847Y0019091D02*
X0119847Y0018390D01*
X0119497Y0018040D01*
X0118796Y0018040D01*
X0118446Y0018390D01*
D12*
X0139940Y0035240D02*
X0140240Y0034940D01*
X0140841Y0034940D01*
X0141141Y0035240D01*
X0141141Y0035841D01*
X0140541Y0035841D01*
X0141141Y0036441D02*
X0140841Y0036742D01*
X0140240Y0036742D01*
X0139940Y0036441D01*
X0139940Y0035240D01*
X0141782Y0034940D02*
X0141782Y0036742D01*
X0142983Y0034940D01*
X0142983Y0036742D01*
X0143623Y0036742D02*
X0143623Y0034940D01*
X0144524Y0034940D01*
X0144824Y0035240D01*
X0144824Y0036441D01*
X0144524Y0036742D01*
X0143623Y0036742D01*
X0147306Y0036441D02*
X0147306Y0036141D01*
X0147607Y0035841D01*
X0148207Y0035841D01*
X0148507Y0035541D01*
X0148507Y0035240D01*
X0148207Y0034940D01*
X0147607Y0034940D01*
X0147306Y0035240D01*
X0147306Y0036441D02*
X0147607Y0036742D01*
X0148207Y0036742D01*
X0148507Y0036441D01*
X0149148Y0035841D02*
X0149448Y0036141D01*
X0150049Y0036141D01*
X0150349Y0035841D01*
X0150349Y0035541D01*
X0149148Y0035541D01*
X0149148Y0035841D02*
X0149148Y0035240D01*
X0149448Y0034940D01*
X0150049Y0034940D01*
X0150990Y0034940D02*
X0150990Y0036141D01*
X0151590Y0036141D02*
X0151890Y0036141D01*
X0151590Y0036141D02*
X0150990Y0035541D01*
X0152524Y0036141D02*
X0152824Y0036141D01*
X0152824Y0034940D01*
X0152524Y0034940D02*
X0153125Y0034940D01*
X0153752Y0035240D02*
X0154052Y0035541D01*
X0154953Y0035541D01*
X0154953Y0035841D02*
X0154953Y0034940D01*
X0154052Y0034940D01*
X0153752Y0035240D01*
X0154052Y0036141D02*
X0154653Y0036141D01*
X0154953Y0035841D01*
X0155594Y0036742D02*
X0155894Y0036742D01*
X0155894Y0034940D01*
X0155594Y0034940D02*
X0156194Y0034940D01*
X0152824Y0036742D02*
X0152824Y0037042D01*
D13*
X0031840Y0035840D02*
X0031842Y0035966D01*
X0031848Y0036092D01*
X0031858Y0036218D01*
X0031872Y0036344D01*
X0031890Y0036469D01*
X0031912Y0036593D01*
X0031937Y0036717D01*
X0031967Y0036840D01*
X0032000Y0036961D01*
X0032038Y0037082D01*
X0032079Y0037201D01*
X0032124Y0037320D01*
X0032172Y0037436D01*
X0032224Y0037551D01*
X0032280Y0037664D01*
X0032340Y0037776D01*
X0032403Y0037885D01*
X0032469Y0037993D01*
X0032538Y0038098D01*
X0032611Y0038201D01*
X0032688Y0038302D01*
X0032767Y0038400D01*
X0032849Y0038496D01*
X0032935Y0038589D01*
X0033023Y0038680D01*
X0033114Y0038767D01*
X0033208Y0038852D01*
X0033304Y0038933D01*
X0033403Y0039012D01*
X0033504Y0039087D01*
X0033608Y0039159D01*
X0033714Y0039228D01*
X0033822Y0039294D01*
X0033932Y0039356D01*
X0034044Y0039414D01*
X0034157Y0039469D01*
X0034273Y0039520D01*
X0034390Y0039568D01*
X0034508Y0039612D01*
X0034628Y0039652D01*
X0034749Y0039688D01*
X0034871Y0039721D01*
X0034994Y0039750D01*
X0035118Y0039774D01*
X0035242Y0039795D01*
X0035367Y0039812D01*
X0035493Y0039825D01*
X0035619Y0039834D01*
X0035745Y0039839D01*
X0035872Y0039840D01*
X0035998Y0039837D01*
X0036124Y0039830D01*
X0036250Y0039819D01*
X0036375Y0039804D01*
X0036500Y0039785D01*
X0036624Y0039762D01*
X0036748Y0039736D01*
X0036870Y0039705D01*
X0036992Y0039671D01*
X0037112Y0039632D01*
X0037231Y0039590D01*
X0037349Y0039545D01*
X0037465Y0039495D01*
X0037580Y0039442D01*
X0037692Y0039385D01*
X0037803Y0039325D01*
X0037912Y0039261D01*
X0038019Y0039194D01*
X0038124Y0039124D01*
X0038227Y0039050D01*
X0038327Y0038973D01*
X0038425Y0038893D01*
X0038520Y0038810D01*
X0038612Y0038724D01*
X0038702Y0038635D01*
X0038789Y0038543D01*
X0038872Y0038449D01*
X0038953Y0038352D01*
X0039031Y0038252D01*
X0039106Y0038150D01*
X0039177Y0038046D01*
X0039245Y0037939D01*
X0039309Y0037831D01*
X0039370Y0037720D01*
X0039428Y0037608D01*
X0039482Y0037494D01*
X0039532Y0037378D01*
X0039579Y0037261D01*
X0039622Y0037142D01*
X0039661Y0037022D01*
X0039697Y0036901D01*
X0039728Y0036778D01*
X0039756Y0036655D01*
X0039780Y0036531D01*
X0039800Y0036406D01*
X0039816Y0036281D01*
X0039828Y0036155D01*
X0039836Y0036029D01*
X0039840Y0035903D01*
X0039840Y0035777D01*
X0039836Y0035651D01*
X0039828Y0035525D01*
X0039816Y0035399D01*
X0039800Y0035274D01*
X0039780Y0035149D01*
X0039756Y0035025D01*
X0039728Y0034902D01*
X0039697Y0034779D01*
X0039661Y0034658D01*
X0039622Y0034538D01*
X0039579Y0034419D01*
X0039532Y0034302D01*
X0039482Y0034186D01*
X0039428Y0034072D01*
X0039370Y0033960D01*
X0039309Y0033849D01*
X0039245Y0033741D01*
X0039177Y0033634D01*
X0039106Y0033530D01*
X0039031Y0033428D01*
X0038953Y0033328D01*
X0038872Y0033231D01*
X0038789Y0033137D01*
X0038702Y0033045D01*
X0038612Y0032956D01*
X0038520Y0032870D01*
X0038425Y0032787D01*
X0038327Y0032707D01*
X0038227Y0032630D01*
X0038124Y0032556D01*
X0038019Y0032486D01*
X0037912Y0032419D01*
X0037803Y0032355D01*
X0037692Y0032295D01*
X0037580Y0032238D01*
X0037465Y0032185D01*
X0037349Y0032135D01*
X0037231Y0032090D01*
X0037112Y0032048D01*
X0036992Y0032009D01*
X0036870Y0031975D01*
X0036748Y0031944D01*
X0036624Y0031918D01*
X0036500Y0031895D01*
X0036375Y0031876D01*
X0036250Y0031861D01*
X0036124Y0031850D01*
X0035998Y0031843D01*
X0035872Y0031840D01*
X0035745Y0031841D01*
X0035619Y0031846D01*
X0035493Y0031855D01*
X0035367Y0031868D01*
X0035242Y0031885D01*
X0035118Y0031906D01*
X0034994Y0031930D01*
X0034871Y0031959D01*
X0034749Y0031992D01*
X0034628Y0032028D01*
X0034508Y0032068D01*
X0034390Y0032112D01*
X0034273Y0032160D01*
X0034157Y0032211D01*
X0034044Y0032266D01*
X0033932Y0032324D01*
X0033822Y0032386D01*
X0033714Y0032452D01*
X0033608Y0032521D01*
X0033504Y0032593D01*
X0033403Y0032668D01*
X0033304Y0032747D01*
X0033208Y0032828D01*
X0033114Y0032913D01*
X0033023Y0033000D01*
X0032935Y0033091D01*
X0032849Y0033184D01*
X0032767Y0033280D01*
X0032688Y0033378D01*
X0032611Y0033479D01*
X0032538Y0033582D01*
X0032469Y0033687D01*
X0032403Y0033795D01*
X0032340Y0033904D01*
X0032280Y0034016D01*
X0032224Y0034129D01*
X0032172Y0034244D01*
X0032124Y0034360D01*
X0032079Y0034479D01*
X0032038Y0034598D01*
X0032000Y0034719D01*
X0031967Y0034840D01*
X0031937Y0034963D01*
X0031912Y0035087D01*
X0031890Y0035211D01*
X0031872Y0035336D01*
X0031858Y0035462D01*
X0031848Y0035588D01*
X0031842Y0035714D01*
X0031840Y0035840D01*
X0023840Y0148840D02*
X0023842Y0148966D01*
X0023848Y0149092D01*
X0023858Y0149218D01*
X0023872Y0149344D01*
X0023890Y0149469D01*
X0023912Y0149593D01*
X0023937Y0149717D01*
X0023967Y0149840D01*
X0024000Y0149961D01*
X0024038Y0150082D01*
X0024079Y0150201D01*
X0024124Y0150320D01*
X0024172Y0150436D01*
X0024224Y0150551D01*
X0024280Y0150664D01*
X0024340Y0150776D01*
X0024403Y0150885D01*
X0024469Y0150993D01*
X0024538Y0151098D01*
X0024611Y0151201D01*
X0024688Y0151302D01*
X0024767Y0151400D01*
X0024849Y0151496D01*
X0024935Y0151589D01*
X0025023Y0151680D01*
X0025114Y0151767D01*
X0025208Y0151852D01*
X0025304Y0151933D01*
X0025403Y0152012D01*
X0025504Y0152087D01*
X0025608Y0152159D01*
X0025714Y0152228D01*
X0025822Y0152294D01*
X0025932Y0152356D01*
X0026044Y0152414D01*
X0026157Y0152469D01*
X0026273Y0152520D01*
X0026390Y0152568D01*
X0026508Y0152612D01*
X0026628Y0152652D01*
X0026749Y0152688D01*
X0026871Y0152721D01*
X0026994Y0152750D01*
X0027118Y0152774D01*
X0027242Y0152795D01*
X0027367Y0152812D01*
X0027493Y0152825D01*
X0027619Y0152834D01*
X0027745Y0152839D01*
X0027872Y0152840D01*
X0027998Y0152837D01*
X0028124Y0152830D01*
X0028250Y0152819D01*
X0028375Y0152804D01*
X0028500Y0152785D01*
X0028624Y0152762D01*
X0028748Y0152736D01*
X0028870Y0152705D01*
X0028992Y0152671D01*
X0029112Y0152632D01*
X0029231Y0152590D01*
X0029349Y0152545D01*
X0029465Y0152495D01*
X0029580Y0152442D01*
X0029692Y0152385D01*
X0029803Y0152325D01*
X0029912Y0152261D01*
X0030019Y0152194D01*
X0030124Y0152124D01*
X0030227Y0152050D01*
X0030327Y0151973D01*
X0030425Y0151893D01*
X0030520Y0151810D01*
X0030612Y0151724D01*
X0030702Y0151635D01*
X0030789Y0151543D01*
X0030872Y0151449D01*
X0030953Y0151352D01*
X0031031Y0151252D01*
X0031106Y0151150D01*
X0031177Y0151046D01*
X0031245Y0150939D01*
X0031309Y0150831D01*
X0031370Y0150720D01*
X0031428Y0150608D01*
X0031482Y0150494D01*
X0031532Y0150378D01*
X0031579Y0150261D01*
X0031622Y0150142D01*
X0031661Y0150022D01*
X0031697Y0149901D01*
X0031728Y0149778D01*
X0031756Y0149655D01*
X0031780Y0149531D01*
X0031800Y0149406D01*
X0031816Y0149281D01*
X0031828Y0149155D01*
X0031836Y0149029D01*
X0031840Y0148903D01*
X0031840Y0148777D01*
X0031836Y0148651D01*
X0031828Y0148525D01*
X0031816Y0148399D01*
X0031800Y0148274D01*
X0031780Y0148149D01*
X0031756Y0148025D01*
X0031728Y0147902D01*
X0031697Y0147779D01*
X0031661Y0147658D01*
X0031622Y0147538D01*
X0031579Y0147419D01*
X0031532Y0147302D01*
X0031482Y0147186D01*
X0031428Y0147072D01*
X0031370Y0146960D01*
X0031309Y0146849D01*
X0031245Y0146741D01*
X0031177Y0146634D01*
X0031106Y0146530D01*
X0031031Y0146428D01*
X0030953Y0146328D01*
X0030872Y0146231D01*
X0030789Y0146137D01*
X0030702Y0146045D01*
X0030612Y0145956D01*
X0030520Y0145870D01*
X0030425Y0145787D01*
X0030327Y0145707D01*
X0030227Y0145630D01*
X0030124Y0145556D01*
X0030019Y0145486D01*
X0029912Y0145419D01*
X0029803Y0145355D01*
X0029692Y0145295D01*
X0029580Y0145238D01*
X0029465Y0145185D01*
X0029349Y0145135D01*
X0029231Y0145090D01*
X0029112Y0145048D01*
X0028992Y0145009D01*
X0028870Y0144975D01*
X0028748Y0144944D01*
X0028624Y0144918D01*
X0028500Y0144895D01*
X0028375Y0144876D01*
X0028250Y0144861D01*
X0028124Y0144850D01*
X0027998Y0144843D01*
X0027872Y0144840D01*
X0027745Y0144841D01*
X0027619Y0144846D01*
X0027493Y0144855D01*
X0027367Y0144868D01*
X0027242Y0144885D01*
X0027118Y0144906D01*
X0026994Y0144930D01*
X0026871Y0144959D01*
X0026749Y0144992D01*
X0026628Y0145028D01*
X0026508Y0145068D01*
X0026390Y0145112D01*
X0026273Y0145160D01*
X0026157Y0145211D01*
X0026044Y0145266D01*
X0025932Y0145324D01*
X0025822Y0145386D01*
X0025714Y0145452D01*
X0025608Y0145521D01*
X0025504Y0145593D01*
X0025403Y0145668D01*
X0025304Y0145747D01*
X0025208Y0145828D01*
X0025114Y0145913D01*
X0025023Y0146000D01*
X0024935Y0146091D01*
X0024849Y0146184D01*
X0024767Y0146280D01*
X0024688Y0146378D01*
X0024611Y0146479D01*
X0024538Y0146582D01*
X0024469Y0146687D01*
X0024403Y0146795D01*
X0024340Y0146904D01*
X0024280Y0147016D01*
X0024224Y0147129D01*
X0024172Y0147244D01*
X0024124Y0147360D01*
X0024079Y0147479D01*
X0024038Y0147598D01*
X0024000Y0147719D01*
X0023967Y0147840D01*
X0023937Y0147963D01*
X0023912Y0148087D01*
X0023890Y0148211D01*
X0023872Y0148336D01*
X0023858Y0148462D01*
X0023848Y0148588D01*
X0023842Y0148714D01*
X0023840Y0148840D01*
X0144840Y0027840D02*
X0144842Y0027966D01*
X0144848Y0028092D01*
X0144858Y0028218D01*
X0144872Y0028344D01*
X0144890Y0028469D01*
X0144912Y0028593D01*
X0144937Y0028717D01*
X0144967Y0028840D01*
X0145000Y0028961D01*
X0145038Y0029082D01*
X0145079Y0029201D01*
X0145124Y0029320D01*
X0145172Y0029436D01*
X0145224Y0029551D01*
X0145280Y0029664D01*
X0145340Y0029776D01*
X0145403Y0029885D01*
X0145469Y0029993D01*
X0145538Y0030098D01*
X0145611Y0030201D01*
X0145688Y0030302D01*
X0145767Y0030400D01*
X0145849Y0030496D01*
X0145935Y0030589D01*
X0146023Y0030680D01*
X0146114Y0030767D01*
X0146208Y0030852D01*
X0146304Y0030933D01*
X0146403Y0031012D01*
X0146504Y0031087D01*
X0146608Y0031159D01*
X0146714Y0031228D01*
X0146822Y0031294D01*
X0146932Y0031356D01*
X0147044Y0031414D01*
X0147157Y0031469D01*
X0147273Y0031520D01*
X0147390Y0031568D01*
X0147508Y0031612D01*
X0147628Y0031652D01*
X0147749Y0031688D01*
X0147871Y0031721D01*
X0147994Y0031750D01*
X0148118Y0031774D01*
X0148242Y0031795D01*
X0148367Y0031812D01*
X0148493Y0031825D01*
X0148619Y0031834D01*
X0148745Y0031839D01*
X0148872Y0031840D01*
X0148998Y0031837D01*
X0149124Y0031830D01*
X0149250Y0031819D01*
X0149375Y0031804D01*
X0149500Y0031785D01*
X0149624Y0031762D01*
X0149748Y0031736D01*
X0149870Y0031705D01*
X0149992Y0031671D01*
X0150112Y0031632D01*
X0150231Y0031590D01*
X0150349Y0031545D01*
X0150465Y0031495D01*
X0150580Y0031442D01*
X0150692Y0031385D01*
X0150803Y0031325D01*
X0150912Y0031261D01*
X0151019Y0031194D01*
X0151124Y0031124D01*
X0151227Y0031050D01*
X0151327Y0030973D01*
X0151425Y0030893D01*
X0151520Y0030810D01*
X0151612Y0030724D01*
X0151702Y0030635D01*
X0151789Y0030543D01*
X0151872Y0030449D01*
X0151953Y0030352D01*
X0152031Y0030252D01*
X0152106Y0030150D01*
X0152177Y0030046D01*
X0152245Y0029939D01*
X0152309Y0029831D01*
X0152370Y0029720D01*
X0152428Y0029608D01*
X0152482Y0029494D01*
X0152532Y0029378D01*
X0152579Y0029261D01*
X0152622Y0029142D01*
X0152661Y0029022D01*
X0152697Y0028901D01*
X0152728Y0028778D01*
X0152756Y0028655D01*
X0152780Y0028531D01*
X0152800Y0028406D01*
X0152816Y0028281D01*
X0152828Y0028155D01*
X0152836Y0028029D01*
X0152840Y0027903D01*
X0152840Y0027777D01*
X0152836Y0027651D01*
X0152828Y0027525D01*
X0152816Y0027399D01*
X0152800Y0027274D01*
X0152780Y0027149D01*
X0152756Y0027025D01*
X0152728Y0026902D01*
X0152697Y0026779D01*
X0152661Y0026658D01*
X0152622Y0026538D01*
X0152579Y0026419D01*
X0152532Y0026302D01*
X0152482Y0026186D01*
X0152428Y0026072D01*
X0152370Y0025960D01*
X0152309Y0025849D01*
X0152245Y0025741D01*
X0152177Y0025634D01*
X0152106Y0025530D01*
X0152031Y0025428D01*
X0151953Y0025328D01*
X0151872Y0025231D01*
X0151789Y0025137D01*
X0151702Y0025045D01*
X0151612Y0024956D01*
X0151520Y0024870D01*
X0151425Y0024787D01*
X0151327Y0024707D01*
X0151227Y0024630D01*
X0151124Y0024556D01*
X0151019Y0024486D01*
X0150912Y0024419D01*
X0150803Y0024355D01*
X0150692Y0024295D01*
X0150580Y0024238D01*
X0150465Y0024185D01*
X0150349Y0024135D01*
X0150231Y0024090D01*
X0150112Y0024048D01*
X0149992Y0024009D01*
X0149870Y0023975D01*
X0149748Y0023944D01*
X0149624Y0023918D01*
X0149500Y0023895D01*
X0149375Y0023876D01*
X0149250Y0023861D01*
X0149124Y0023850D01*
X0148998Y0023843D01*
X0148872Y0023840D01*
X0148745Y0023841D01*
X0148619Y0023846D01*
X0148493Y0023855D01*
X0148367Y0023868D01*
X0148242Y0023885D01*
X0148118Y0023906D01*
X0147994Y0023930D01*
X0147871Y0023959D01*
X0147749Y0023992D01*
X0147628Y0024028D01*
X0147508Y0024068D01*
X0147390Y0024112D01*
X0147273Y0024160D01*
X0147157Y0024211D01*
X0147044Y0024266D01*
X0146932Y0024324D01*
X0146822Y0024386D01*
X0146714Y0024452D01*
X0146608Y0024521D01*
X0146504Y0024593D01*
X0146403Y0024668D01*
X0146304Y0024747D01*
X0146208Y0024828D01*
X0146114Y0024913D01*
X0146023Y0025000D01*
X0145935Y0025091D01*
X0145849Y0025184D01*
X0145767Y0025280D01*
X0145688Y0025378D01*
X0145611Y0025479D01*
X0145538Y0025582D01*
X0145469Y0025687D01*
X0145403Y0025795D01*
X0145340Y0025904D01*
X0145280Y0026016D01*
X0145224Y0026129D01*
X0145172Y0026244D01*
X0145124Y0026360D01*
X0145079Y0026479D01*
X0145038Y0026598D01*
X0145000Y0026719D01*
X0144967Y0026840D01*
X0144937Y0026963D01*
X0144912Y0027087D01*
X0144890Y0027211D01*
X0144872Y0027336D01*
X0144858Y0027462D01*
X0144848Y0027588D01*
X0144842Y0027714D01*
X0144840Y0027840D01*
X0147840Y0149840D02*
X0147842Y0149966D01*
X0147848Y0150092D01*
X0147858Y0150218D01*
X0147872Y0150344D01*
X0147890Y0150469D01*
X0147912Y0150593D01*
X0147937Y0150717D01*
X0147967Y0150840D01*
X0148000Y0150961D01*
X0148038Y0151082D01*
X0148079Y0151201D01*
X0148124Y0151320D01*
X0148172Y0151436D01*
X0148224Y0151551D01*
X0148280Y0151664D01*
X0148340Y0151776D01*
X0148403Y0151885D01*
X0148469Y0151993D01*
X0148538Y0152098D01*
X0148611Y0152201D01*
X0148688Y0152302D01*
X0148767Y0152400D01*
X0148849Y0152496D01*
X0148935Y0152589D01*
X0149023Y0152680D01*
X0149114Y0152767D01*
X0149208Y0152852D01*
X0149304Y0152933D01*
X0149403Y0153012D01*
X0149504Y0153087D01*
X0149608Y0153159D01*
X0149714Y0153228D01*
X0149822Y0153294D01*
X0149932Y0153356D01*
X0150044Y0153414D01*
X0150157Y0153469D01*
X0150273Y0153520D01*
X0150390Y0153568D01*
X0150508Y0153612D01*
X0150628Y0153652D01*
X0150749Y0153688D01*
X0150871Y0153721D01*
X0150994Y0153750D01*
X0151118Y0153774D01*
X0151242Y0153795D01*
X0151367Y0153812D01*
X0151493Y0153825D01*
X0151619Y0153834D01*
X0151745Y0153839D01*
X0151872Y0153840D01*
X0151998Y0153837D01*
X0152124Y0153830D01*
X0152250Y0153819D01*
X0152375Y0153804D01*
X0152500Y0153785D01*
X0152624Y0153762D01*
X0152748Y0153736D01*
X0152870Y0153705D01*
X0152992Y0153671D01*
X0153112Y0153632D01*
X0153231Y0153590D01*
X0153349Y0153545D01*
X0153465Y0153495D01*
X0153580Y0153442D01*
X0153692Y0153385D01*
X0153803Y0153325D01*
X0153912Y0153261D01*
X0154019Y0153194D01*
X0154124Y0153124D01*
X0154227Y0153050D01*
X0154327Y0152973D01*
X0154425Y0152893D01*
X0154520Y0152810D01*
X0154612Y0152724D01*
X0154702Y0152635D01*
X0154789Y0152543D01*
X0154872Y0152449D01*
X0154953Y0152352D01*
X0155031Y0152252D01*
X0155106Y0152150D01*
X0155177Y0152046D01*
X0155245Y0151939D01*
X0155309Y0151831D01*
X0155370Y0151720D01*
X0155428Y0151608D01*
X0155482Y0151494D01*
X0155532Y0151378D01*
X0155579Y0151261D01*
X0155622Y0151142D01*
X0155661Y0151022D01*
X0155697Y0150901D01*
X0155728Y0150778D01*
X0155756Y0150655D01*
X0155780Y0150531D01*
X0155800Y0150406D01*
X0155816Y0150281D01*
X0155828Y0150155D01*
X0155836Y0150029D01*
X0155840Y0149903D01*
X0155840Y0149777D01*
X0155836Y0149651D01*
X0155828Y0149525D01*
X0155816Y0149399D01*
X0155800Y0149274D01*
X0155780Y0149149D01*
X0155756Y0149025D01*
X0155728Y0148902D01*
X0155697Y0148779D01*
X0155661Y0148658D01*
X0155622Y0148538D01*
X0155579Y0148419D01*
X0155532Y0148302D01*
X0155482Y0148186D01*
X0155428Y0148072D01*
X0155370Y0147960D01*
X0155309Y0147849D01*
X0155245Y0147741D01*
X0155177Y0147634D01*
X0155106Y0147530D01*
X0155031Y0147428D01*
X0154953Y0147328D01*
X0154872Y0147231D01*
X0154789Y0147137D01*
X0154702Y0147045D01*
X0154612Y0146956D01*
X0154520Y0146870D01*
X0154425Y0146787D01*
X0154327Y0146707D01*
X0154227Y0146630D01*
X0154124Y0146556D01*
X0154019Y0146486D01*
X0153912Y0146419D01*
X0153803Y0146355D01*
X0153692Y0146295D01*
X0153580Y0146238D01*
X0153465Y0146185D01*
X0153349Y0146135D01*
X0153231Y0146090D01*
X0153112Y0146048D01*
X0152992Y0146009D01*
X0152870Y0145975D01*
X0152748Y0145944D01*
X0152624Y0145918D01*
X0152500Y0145895D01*
X0152375Y0145876D01*
X0152250Y0145861D01*
X0152124Y0145850D01*
X0151998Y0145843D01*
X0151872Y0145840D01*
X0151745Y0145841D01*
X0151619Y0145846D01*
X0151493Y0145855D01*
X0151367Y0145868D01*
X0151242Y0145885D01*
X0151118Y0145906D01*
X0150994Y0145930D01*
X0150871Y0145959D01*
X0150749Y0145992D01*
X0150628Y0146028D01*
X0150508Y0146068D01*
X0150390Y0146112D01*
X0150273Y0146160D01*
X0150157Y0146211D01*
X0150044Y0146266D01*
X0149932Y0146324D01*
X0149822Y0146386D01*
X0149714Y0146452D01*
X0149608Y0146521D01*
X0149504Y0146593D01*
X0149403Y0146668D01*
X0149304Y0146747D01*
X0149208Y0146828D01*
X0149114Y0146913D01*
X0149023Y0147000D01*
X0148935Y0147091D01*
X0148849Y0147184D01*
X0148767Y0147280D01*
X0148688Y0147378D01*
X0148611Y0147479D01*
X0148538Y0147582D01*
X0148469Y0147687D01*
X0148403Y0147795D01*
X0148340Y0147904D01*
X0148280Y0148016D01*
X0148224Y0148129D01*
X0148172Y0148244D01*
X0148124Y0148360D01*
X0148079Y0148479D01*
X0148038Y0148598D01*
X0148000Y0148719D01*
X0147967Y0148840D01*
X0147937Y0148963D01*
X0147912Y0149087D01*
X0147890Y0149211D01*
X0147872Y0149336D01*
X0147858Y0149462D01*
X0147848Y0149588D01*
X0147842Y0149714D01*
X0147840Y0149840D01*
D14*
X0143840Y0159840D02*
X0144227Y0159835D01*
X0144613Y0159821D01*
X0144999Y0159798D01*
X0145384Y0159765D01*
X0145769Y0159723D01*
X0146152Y0159672D01*
X0146534Y0159612D01*
X0146914Y0159542D01*
X0147293Y0159463D01*
X0147669Y0159375D01*
X0148043Y0159278D01*
X0148415Y0159172D01*
X0148784Y0159057D01*
X0149151Y0158933D01*
X0149514Y0158800D01*
X0149874Y0158659D01*
X0150230Y0158509D01*
X0150582Y0158350D01*
X0150931Y0158183D01*
X0151276Y0158007D01*
X0151616Y0157823D01*
X0151951Y0157632D01*
X0152282Y0157431D01*
X0152608Y0157224D01*
X0152929Y0157008D01*
X0153245Y0156784D01*
X0153555Y0156553D01*
X0153859Y0156315D01*
X0154157Y0156069D01*
X0154450Y0155816D01*
X0154736Y0155556D01*
X0155016Y0155290D01*
X0155290Y0155016D01*
X0155556Y0154736D01*
X0155816Y0154450D01*
X0156069Y0154157D01*
X0156315Y0153859D01*
X0156553Y0153555D01*
X0156784Y0153245D01*
X0157008Y0152929D01*
X0157224Y0152608D01*
X0157431Y0152282D01*
X0157632Y0151951D01*
X0157823Y0151616D01*
X0158007Y0151276D01*
X0158183Y0150931D01*
X0158350Y0150582D01*
X0158509Y0150230D01*
X0158659Y0149874D01*
X0158800Y0149514D01*
X0158933Y0149151D01*
X0159057Y0148784D01*
X0159172Y0148415D01*
X0159278Y0148043D01*
X0159375Y0147669D01*
X0159463Y0147293D01*
X0159542Y0146914D01*
X0159612Y0146534D01*
X0159672Y0146152D01*
X0159723Y0145769D01*
X0159765Y0145384D01*
X0159798Y0144999D01*
X0159821Y0144613D01*
X0159835Y0144227D01*
X0159840Y0143840D01*
X0159840Y0034840D01*
X0159834Y0034357D01*
X0159817Y0033874D01*
X0159787Y0033391D01*
X0159747Y0032910D01*
X0159694Y0032429D01*
X0159630Y0031950D01*
X0159555Y0031473D01*
X0159467Y0030997D01*
X0159369Y0030524D01*
X0159259Y0030054D01*
X0159138Y0029586D01*
X0159005Y0029121D01*
X0158861Y0028660D01*
X0158706Y0028202D01*
X0158540Y0027748D01*
X0158363Y0027298D01*
X0158176Y0026853D01*
X0157977Y0026412D01*
X0157769Y0025976D01*
X0157549Y0025546D01*
X0157319Y0025120D01*
X0157079Y0024701D01*
X0156829Y0024287D01*
X0156569Y0023880D01*
X0156300Y0023479D01*
X0156020Y0023084D01*
X0155732Y0022697D01*
X0155433Y0022316D01*
X0155126Y0021943D01*
X0154810Y0021578D01*
X0154485Y0021220D01*
X0154152Y0020870D01*
X0153810Y0020528D01*
X0153460Y0020195D01*
X0153102Y0019870D01*
X0152737Y0019554D01*
X0152364Y0019247D01*
X0151983Y0018948D01*
X0151596Y0018660D01*
X0151201Y0018380D01*
X0150800Y0018111D01*
X0150393Y0017851D01*
X0149979Y0017601D01*
X0149560Y0017361D01*
X0149134Y0017131D01*
X0148704Y0016911D01*
X0148268Y0016703D01*
X0147827Y0016504D01*
X0147382Y0016317D01*
X0146932Y0016140D01*
X0146478Y0015974D01*
X0146020Y0015819D01*
X0145559Y0015675D01*
X0145094Y0015542D01*
X0144626Y0015421D01*
X0144156Y0015311D01*
X0143683Y0015213D01*
X0143207Y0015125D01*
X0142730Y0015050D01*
X0142251Y0014986D01*
X0141770Y0014933D01*
X0141289Y0014893D01*
X0140806Y0014863D01*
X0140323Y0014846D01*
X0139840Y0014840D01*
X0069658Y0014840D01*
X0068333Y0014856D01*
X0067010Y0014904D01*
X0065687Y0014984D01*
X0064367Y0015096D01*
X0063050Y0015240D01*
X0061737Y0015415D01*
X0060429Y0015622D01*
X0059126Y0015861D01*
X0057829Y0016131D01*
X0056539Y0016433D01*
X0055257Y0016765D01*
X0053983Y0017129D01*
X0052718Y0017523D01*
X0051463Y0017948D01*
X0050219Y0018402D01*
X0048986Y0018887D01*
X0047766Y0019401D01*
X0046558Y0019945D01*
X0045363Y0020518D01*
X0044183Y0021119D01*
X0043017Y0021749D01*
X0041867Y0022407D01*
X0040734Y0023092D01*
X0039617Y0023804D01*
X0038518Y0024544D01*
X0037437Y0025309D01*
X0036375Y0026101D01*
X0035332Y0026918D01*
X0034309Y0027760D01*
X0033307Y0028626D01*
X0032326Y0029516D01*
X0031367Y0030430D01*
X0030430Y0031367D01*
X0029516Y0032326D01*
X0028626Y0033307D01*
X0027760Y0034309D01*
X0026918Y0035332D01*
X0026101Y0036375D01*
X0025309Y0037437D01*
X0024544Y0038518D01*
X0023804Y0039617D01*
X0023092Y0040734D01*
X0022407Y0041867D01*
X0021749Y0043017D01*
X0021119Y0044183D01*
X0020518Y0045363D01*
X0019945Y0046558D01*
X0019401Y0047766D01*
X0018887Y0048986D01*
X0018402Y0050219D01*
X0017948Y0051463D01*
X0017523Y0052718D01*
X0017129Y0053983D01*
X0016765Y0055257D01*
X0016433Y0056539D01*
X0016131Y0057829D01*
X0015861Y0059126D01*
X0015622Y0060429D01*
X0015415Y0061737D01*
X0015240Y0063050D01*
X0015096Y0064367D01*
X0014984Y0065687D01*
X0014904Y0067010D01*
X0014856Y0068333D01*
X0014840Y0069658D01*
X0014840Y0139840D01*
X0014846Y0140323D01*
X0014863Y0140806D01*
X0014893Y0141289D01*
X0014933Y0141770D01*
X0014986Y0142251D01*
X0015050Y0142730D01*
X0015125Y0143207D01*
X0015213Y0143683D01*
X0015311Y0144156D01*
X0015421Y0144626D01*
X0015542Y0145094D01*
X0015675Y0145559D01*
X0015819Y0146020D01*
X0015974Y0146478D01*
X0016140Y0146932D01*
X0016317Y0147382D01*
X0016504Y0147827D01*
X0016703Y0148268D01*
X0016911Y0148704D01*
X0017131Y0149134D01*
X0017361Y0149560D01*
X0017601Y0149979D01*
X0017851Y0150393D01*
X0018111Y0150800D01*
X0018380Y0151201D01*
X0018660Y0151596D01*
X0018948Y0151983D01*
X0019247Y0152364D01*
X0019554Y0152737D01*
X0019870Y0153102D01*
X0020195Y0153460D01*
X0020528Y0153810D01*
X0020870Y0154152D01*
X0021220Y0154485D01*
X0021578Y0154810D01*
X0021943Y0155126D01*
X0022316Y0155433D01*
X0022697Y0155732D01*
X0023084Y0156020D01*
X0023479Y0156300D01*
X0023880Y0156569D01*
X0024287Y0156829D01*
X0024701Y0157079D01*
X0025120Y0157319D01*
X0025546Y0157549D01*
X0025976Y0157769D01*
X0026412Y0157977D01*
X0026853Y0158176D01*
X0027298Y0158363D01*
X0027748Y0158540D01*
X0028202Y0158706D01*
X0028660Y0158861D01*
X0029121Y0159005D01*
X0029586Y0159138D01*
X0030054Y0159259D01*
X0030524Y0159369D01*
X0030997Y0159467D01*
X0031473Y0159555D01*
X0031950Y0159630D01*
X0032429Y0159694D01*
X0032910Y0159747D01*
X0033391Y0159787D01*
X0033874Y0159817D01*
X0034357Y0159834D01*
X0034840Y0159840D01*
X0143840Y0159840D01*
D15*
X0099340Y0076840D03*
X0099340Y0068840D03*
X0095340Y0061840D03*
X0099340Y0057840D03*
X0099340Y0049840D03*
D16*
X0099340Y0050340D03*
X0099340Y0058340D03*
X0095340Y0062340D03*
X0099340Y0068340D03*
X0099340Y0076340D03*
D17*
X0099340Y0075840D03*
X0099340Y0067840D03*
X0095340Y0062840D03*
X0099340Y0058840D03*
X0099340Y0050840D03*
D18*
X0099340Y0051340D03*
X0099340Y0059340D03*
X0095340Y0063340D03*
X0095840Y0063840D03*
X0096340Y0064340D03*
X0096840Y0064840D03*
X0099340Y0067340D03*
X0099340Y0075340D03*
D19*
X0099340Y0074840D03*
X0093340Y0068840D03*
X0105340Y0057840D03*
X0099340Y0051840D03*
D20*
X0099340Y0052340D03*
X0105340Y0058340D03*
X0093340Y0068340D03*
X0099340Y0074340D03*
D21*
X0099340Y0073840D03*
X0093340Y0067840D03*
X0105340Y0058840D03*
X0099340Y0052840D03*
D22*
X0099340Y0053340D03*
X0105340Y0059340D03*
X0093340Y0067340D03*
X0099340Y0073340D03*
D23*
X0097090Y0072840D03*
X0096590Y0072340D03*
X0096090Y0071840D03*
X0095590Y0071340D03*
X0095090Y0070840D03*
X0094590Y0070340D03*
X0094090Y0069840D03*
X0093590Y0069340D03*
X0091090Y0066840D03*
X0090590Y0066340D03*
X0090090Y0065840D03*
X0089590Y0065340D03*
X0089090Y0064840D03*
X0088590Y0064340D03*
X0088090Y0063840D03*
X0087590Y0063340D03*
X0088090Y0062840D03*
X0088590Y0062340D03*
X0089090Y0061840D03*
X0089590Y0061340D03*
X0090090Y0060840D03*
X0090590Y0060340D03*
X0091090Y0059840D03*
X0091590Y0059340D03*
X0092090Y0058840D03*
X0092590Y0058340D03*
X0093090Y0057840D03*
X0093590Y0057340D03*
X0094090Y0056840D03*
X0094590Y0056340D03*
X0095090Y0055840D03*
X0095590Y0055340D03*
X0096090Y0054840D03*
X0096590Y0054340D03*
X0097090Y0053840D03*
X0101590Y0053840D03*
X0102090Y0054340D03*
X0102590Y0054840D03*
X0103090Y0055340D03*
X0103590Y0055840D03*
X0104090Y0056340D03*
X0104590Y0056840D03*
X0105090Y0057340D03*
X0107590Y0059840D03*
X0108090Y0060340D03*
X0108590Y0060840D03*
X0109090Y0061340D03*
X0109590Y0061840D03*
X0110090Y0062340D03*
X0110590Y0062840D03*
X0111090Y0063340D03*
X0110590Y0063840D03*
X0110090Y0064340D03*
X0109590Y0064840D03*
X0109090Y0065340D03*
X0108590Y0065840D03*
X0108090Y0066340D03*
X0107590Y0066840D03*
X0107090Y0067340D03*
X0106590Y0067840D03*
X0106090Y0068340D03*
X0105590Y0068840D03*
X0105090Y0069340D03*
X0104590Y0069840D03*
X0104090Y0070340D03*
X0103590Y0070840D03*
X0103090Y0071340D03*
X0102590Y0071840D03*
X0102090Y0072340D03*
X0101590Y0072840D03*
X0097090Y0065340D03*
X0101090Y0061340D03*
X0101590Y0061840D03*
X0102090Y0062340D03*
X0102590Y0062840D03*
X0103090Y0063340D03*
D24*
X0101090Y0059840D03*
X0097090Y0066840D03*
D25*
X0097090Y0066340D03*
X0101090Y0060340D03*
D26*
X0101090Y0060840D03*
X0097090Y0065840D03*
D27*
X0103090Y0063840D03*
D28*
X0103090Y0064340D03*
D29*
X0103090Y0064840D03*
D30*
X0088336Y0064218D02*
X0088336Y0119021D01*
X0084399Y0122958D02*
X0084275Y0122956D01*
X0084152Y0122950D01*
X0084028Y0122941D01*
X0083906Y0122927D01*
X0083783Y0122910D01*
X0083661Y0122888D01*
X0083540Y0122863D01*
X0083420Y0122834D01*
X0083301Y0122802D01*
X0083182Y0122765D01*
X0083065Y0122725D01*
X0082950Y0122682D01*
X0082835Y0122634D01*
X0082723Y0122583D01*
X0082612Y0122529D01*
X0082502Y0122471D01*
X0082395Y0122410D01*
X0082289Y0122345D01*
X0082186Y0122277D01*
X0082085Y0122206D01*
X0081986Y0122132D01*
X0081889Y0122055D01*
X0081795Y0121974D01*
X0081704Y0121891D01*
X0081615Y0121805D01*
X0081529Y0121716D01*
X0081446Y0121625D01*
X0081365Y0121531D01*
X0081288Y0121434D01*
X0081214Y0121335D01*
X0081143Y0121234D01*
X0081075Y0121131D01*
X0081010Y0121025D01*
X0080949Y0120918D01*
X0080891Y0120808D01*
X0080837Y0120697D01*
X0080786Y0120585D01*
X0080738Y0120470D01*
X0080695Y0120355D01*
X0080655Y0120238D01*
X0080618Y0120119D01*
X0080586Y0120000D01*
X0080557Y0119880D01*
X0080532Y0119759D01*
X0080510Y0119637D01*
X0080493Y0119514D01*
X0080479Y0119392D01*
X0080470Y0119268D01*
X0080464Y0119145D01*
X0080462Y0119021D01*
X0080462Y0123273D01*
X0033218Y0123273D01*
X0033218Y0119021D01*
X0029281Y0122958D02*
X0029157Y0122956D01*
X0029034Y0122950D01*
X0028910Y0122941D01*
X0028788Y0122927D01*
X0028665Y0122910D01*
X0028543Y0122888D01*
X0028422Y0122863D01*
X0028302Y0122834D01*
X0028183Y0122802D01*
X0028064Y0122765D01*
X0027947Y0122725D01*
X0027832Y0122682D01*
X0027717Y0122634D01*
X0027605Y0122583D01*
X0027494Y0122529D01*
X0027384Y0122471D01*
X0027277Y0122410D01*
X0027171Y0122345D01*
X0027068Y0122277D01*
X0026967Y0122206D01*
X0026868Y0122132D01*
X0026771Y0122055D01*
X0026677Y0121974D01*
X0026586Y0121891D01*
X0026497Y0121805D01*
X0026411Y0121716D01*
X0026328Y0121625D01*
X0026247Y0121531D01*
X0026170Y0121434D01*
X0026096Y0121335D01*
X0026025Y0121234D01*
X0025957Y0121131D01*
X0025892Y0121025D01*
X0025831Y0120918D01*
X0025773Y0120808D01*
X0025719Y0120697D01*
X0025668Y0120585D01*
X0025620Y0120470D01*
X0025577Y0120355D01*
X0025537Y0120238D01*
X0025500Y0120119D01*
X0025468Y0120000D01*
X0025439Y0119880D01*
X0025414Y0119759D01*
X0025392Y0119637D01*
X0025375Y0119514D01*
X0025361Y0119392D01*
X0025352Y0119268D01*
X0025346Y0119145D01*
X0025344Y0119021D01*
X0025344Y0064218D01*
X0025350Y0063742D01*
X0025367Y0063267D01*
X0025396Y0062792D01*
X0025436Y0062318D01*
X0025488Y0061845D01*
X0025551Y0061374D01*
X0025625Y0060904D01*
X0025711Y0060436D01*
X0025808Y0059970D01*
X0025916Y0059507D01*
X0026035Y0059047D01*
X0026166Y0058589D01*
X0026307Y0058135D01*
X0026460Y0057684D01*
X0026623Y0057238D01*
X0026797Y0056795D01*
X0026982Y0056357D01*
X0027177Y0055923D01*
X0027383Y0055494D01*
X0027599Y0055070D01*
X0027825Y0054651D01*
X0028061Y0054238D01*
X0028307Y0053831D01*
X0028563Y0053430D01*
X0028829Y0053036D01*
X0029104Y0052647D01*
X0029388Y0052266D01*
X0029681Y0051892D01*
X0029983Y0051524D01*
X0030295Y0051164D01*
X0030614Y0050812D01*
X0030942Y0050468D01*
X0031279Y0050131D01*
X0031623Y0049803D01*
X0031975Y0049484D01*
X0032335Y0049172D01*
X0032703Y0048870D01*
X0033077Y0048577D01*
X0033458Y0048293D01*
X0033847Y0048018D01*
X0034241Y0047752D01*
X0034642Y0047496D01*
X0035049Y0047250D01*
X0035462Y0047014D01*
X0035881Y0046788D01*
X0036305Y0046572D01*
X0036734Y0046366D01*
X0037168Y0046171D01*
X0037606Y0045986D01*
X0038049Y0045812D01*
X0038495Y0045649D01*
X0038946Y0045496D01*
X0039400Y0045355D01*
X0039858Y0045224D01*
X0040318Y0045105D01*
X0040781Y0044997D01*
X0041247Y0044900D01*
X0041715Y0044814D01*
X0042185Y0044740D01*
X0042656Y0044677D01*
X0043129Y0044625D01*
X0043603Y0044585D01*
X0044078Y0044556D01*
X0044553Y0044539D01*
X0045029Y0044533D01*
X0068651Y0044533D01*
X0065304Y0030340D02*
X0065306Y0030459D01*
X0065312Y0030577D01*
X0065322Y0030696D01*
X0065336Y0030814D01*
X0065354Y0030931D01*
X0065376Y0031048D01*
X0065401Y0031164D01*
X0065431Y0031279D01*
X0065464Y0031393D01*
X0065502Y0031506D01*
X0065543Y0031617D01*
X0065588Y0031727D01*
X0065636Y0031836D01*
X0065688Y0031943D01*
X0065744Y0032048D01*
X0065803Y0032151D01*
X0065865Y0032252D01*
X0065931Y0032351D01*
X0066000Y0032447D01*
X0066073Y0032541D01*
X0066148Y0032633D01*
X0066227Y0032722D01*
X0066308Y0032809D01*
X0066393Y0032892D01*
X0066480Y0032973D01*
X0066570Y0033051D01*
X0066662Y0033126D01*
X0066757Y0033197D01*
X0066854Y0033266D01*
X0066953Y0033331D01*
X0067055Y0033392D01*
X0067158Y0033451D01*
X0067264Y0033505D01*
X0067371Y0033556D01*
X0067480Y0033604D01*
X0067590Y0033648D01*
X0067702Y0033688D01*
X0067815Y0033724D01*
X0067930Y0033757D01*
X0068045Y0033785D01*
X0068161Y0033810D01*
X0068278Y0033831D01*
X0068396Y0033848D01*
X0068514Y0033861D01*
X0068632Y0033870D01*
X0068751Y0033875D01*
X0068870Y0033876D01*
X0068988Y0033873D01*
X0069107Y0033866D01*
X0069225Y0033855D01*
X0069343Y0033840D01*
X0069461Y0033821D01*
X0069577Y0033798D01*
X0069693Y0033772D01*
X0069808Y0033741D01*
X0069921Y0033707D01*
X0070034Y0033668D01*
X0070145Y0033626D01*
X0070255Y0033581D01*
X0070363Y0033531D01*
X0070469Y0033478D01*
X0070574Y0033422D01*
X0070676Y0033362D01*
X0070777Y0033299D01*
X0070875Y0033232D01*
X0070971Y0033162D01*
X0071065Y0033089D01*
X0071156Y0033012D01*
X0071244Y0032933D01*
X0071330Y0032851D01*
X0071413Y0032766D01*
X0071493Y0032678D01*
X0071570Y0032588D01*
X0071644Y0032495D01*
X0071715Y0032399D01*
X0071782Y0032301D01*
X0071846Y0032201D01*
X0071907Y0032099D01*
X0071965Y0031995D01*
X0072018Y0031889D01*
X0072069Y0031782D01*
X0072115Y0031673D01*
X0072158Y0031562D01*
X0072197Y0031450D01*
X0072233Y0031336D01*
X0072264Y0031222D01*
X0072292Y0031106D01*
X0072316Y0030990D01*
X0072336Y0030873D01*
X0072352Y0030755D01*
X0072364Y0030637D01*
X0072372Y0030518D01*
X0072376Y0030399D01*
X0072376Y0030281D01*
X0072372Y0030162D01*
X0072364Y0030043D01*
X0072352Y0029925D01*
X0072336Y0029807D01*
X0072316Y0029690D01*
X0072292Y0029574D01*
X0072264Y0029458D01*
X0072233Y0029344D01*
X0072197Y0029230D01*
X0072158Y0029118D01*
X0072115Y0029007D01*
X0072069Y0028898D01*
X0072018Y0028791D01*
X0071965Y0028685D01*
X0071907Y0028581D01*
X0071846Y0028479D01*
X0071782Y0028379D01*
X0071715Y0028281D01*
X0071644Y0028185D01*
X0071570Y0028092D01*
X0071493Y0028002D01*
X0071413Y0027914D01*
X0071330Y0027829D01*
X0071244Y0027747D01*
X0071156Y0027668D01*
X0071065Y0027591D01*
X0070971Y0027518D01*
X0070875Y0027448D01*
X0070777Y0027381D01*
X0070676Y0027318D01*
X0070574Y0027258D01*
X0070469Y0027202D01*
X0070363Y0027149D01*
X0070255Y0027099D01*
X0070145Y0027054D01*
X0070034Y0027012D01*
X0069921Y0026973D01*
X0069808Y0026939D01*
X0069693Y0026908D01*
X0069577Y0026882D01*
X0069461Y0026859D01*
X0069343Y0026840D01*
X0069225Y0026825D01*
X0069107Y0026814D01*
X0068988Y0026807D01*
X0068870Y0026804D01*
X0068751Y0026805D01*
X0068632Y0026810D01*
X0068514Y0026819D01*
X0068396Y0026832D01*
X0068278Y0026849D01*
X0068161Y0026870D01*
X0068045Y0026895D01*
X0067930Y0026923D01*
X0067815Y0026956D01*
X0067702Y0026992D01*
X0067590Y0027032D01*
X0067480Y0027076D01*
X0067371Y0027124D01*
X0067264Y0027175D01*
X0067158Y0027229D01*
X0067055Y0027288D01*
X0066953Y0027349D01*
X0066854Y0027414D01*
X0066757Y0027483D01*
X0066662Y0027554D01*
X0066570Y0027629D01*
X0066480Y0027707D01*
X0066393Y0027788D01*
X0066308Y0027871D01*
X0066227Y0027958D01*
X0066148Y0028047D01*
X0066073Y0028139D01*
X0066000Y0028233D01*
X0065931Y0028329D01*
X0065865Y0028428D01*
X0065803Y0028529D01*
X0065744Y0028632D01*
X0065688Y0028737D01*
X0065636Y0028844D01*
X0065588Y0028953D01*
X0065543Y0029063D01*
X0065502Y0029174D01*
X0065464Y0029287D01*
X0065431Y0029401D01*
X0065401Y0029516D01*
X0065376Y0029632D01*
X0065354Y0029749D01*
X0065336Y0029866D01*
X0065322Y0029984D01*
X0065312Y0030103D01*
X0065306Y0030221D01*
X0065304Y0030340D01*
X0068651Y0044533D02*
X0069127Y0044539D01*
X0069602Y0044556D01*
X0070077Y0044585D01*
X0070551Y0044625D01*
X0071024Y0044677D01*
X0071495Y0044740D01*
X0071965Y0044814D01*
X0072433Y0044900D01*
X0072899Y0044997D01*
X0073362Y0045105D01*
X0073822Y0045224D01*
X0074280Y0045355D01*
X0074734Y0045496D01*
X0075185Y0045649D01*
X0075631Y0045812D01*
X0076074Y0045986D01*
X0076512Y0046171D01*
X0076946Y0046366D01*
X0077375Y0046572D01*
X0077799Y0046788D01*
X0078218Y0047014D01*
X0078631Y0047250D01*
X0079038Y0047496D01*
X0079439Y0047752D01*
X0079833Y0048018D01*
X0080222Y0048293D01*
X0080603Y0048577D01*
X0080977Y0048870D01*
X0081345Y0049172D01*
X0081705Y0049484D01*
X0082057Y0049803D01*
X0082401Y0050131D01*
X0082738Y0050468D01*
X0083066Y0050812D01*
X0083385Y0051164D01*
X0083697Y0051524D01*
X0083999Y0051892D01*
X0084292Y0052266D01*
X0084576Y0052647D01*
X0084851Y0053036D01*
X0085117Y0053430D01*
X0085373Y0053831D01*
X0085619Y0054238D01*
X0085855Y0054651D01*
X0086081Y0055070D01*
X0086297Y0055494D01*
X0086503Y0055923D01*
X0086698Y0056357D01*
X0086883Y0056795D01*
X0087057Y0057238D01*
X0087220Y0057684D01*
X0087373Y0058135D01*
X0087514Y0058589D01*
X0087645Y0059047D01*
X0087764Y0059507D01*
X0087872Y0059970D01*
X0087969Y0060436D01*
X0088055Y0060904D01*
X0088129Y0061374D01*
X0088192Y0061845D01*
X0088244Y0062318D01*
X0088284Y0062792D01*
X0088313Y0063267D01*
X0088330Y0063742D01*
X0088336Y0064218D01*
X0097021Y0085210D02*
X0144462Y0085210D01*
X0144462Y0156470D01*
X0097021Y0156470D01*
X0097021Y0085210D01*
X0088336Y0119021D02*
X0088334Y0119145D01*
X0088328Y0119268D01*
X0088319Y0119392D01*
X0088305Y0119514D01*
X0088288Y0119637D01*
X0088266Y0119759D01*
X0088241Y0119880D01*
X0088212Y0120000D01*
X0088180Y0120119D01*
X0088143Y0120238D01*
X0088103Y0120355D01*
X0088060Y0120470D01*
X0088012Y0120585D01*
X0087961Y0120697D01*
X0087907Y0120808D01*
X0087849Y0120918D01*
X0087788Y0121025D01*
X0087723Y0121131D01*
X0087655Y0121234D01*
X0087584Y0121335D01*
X0087510Y0121434D01*
X0087433Y0121531D01*
X0087352Y0121625D01*
X0087269Y0121716D01*
X0087183Y0121805D01*
X0087094Y0121891D01*
X0087003Y0121974D01*
X0086909Y0122055D01*
X0086812Y0122132D01*
X0086713Y0122206D01*
X0086612Y0122277D01*
X0086509Y0122345D01*
X0086403Y0122410D01*
X0086296Y0122471D01*
X0086186Y0122529D01*
X0086075Y0122583D01*
X0085963Y0122634D01*
X0085848Y0122682D01*
X0085733Y0122725D01*
X0085616Y0122765D01*
X0085497Y0122802D01*
X0085378Y0122834D01*
X0085258Y0122863D01*
X0085137Y0122888D01*
X0085015Y0122910D01*
X0084892Y0122927D01*
X0084770Y0122941D01*
X0084646Y0122950D01*
X0084523Y0122956D01*
X0084399Y0122958D01*
X0065304Y0145340D02*
X0065306Y0145459D01*
X0065312Y0145577D01*
X0065322Y0145696D01*
X0065336Y0145814D01*
X0065354Y0145931D01*
X0065376Y0146048D01*
X0065401Y0146164D01*
X0065431Y0146279D01*
X0065464Y0146393D01*
X0065502Y0146506D01*
X0065543Y0146617D01*
X0065588Y0146727D01*
X0065636Y0146836D01*
X0065688Y0146943D01*
X0065744Y0147048D01*
X0065803Y0147151D01*
X0065865Y0147252D01*
X0065931Y0147351D01*
X0066000Y0147447D01*
X0066073Y0147541D01*
X0066148Y0147633D01*
X0066227Y0147722D01*
X0066308Y0147809D01*
X0066393Y0147892D01*
X0066480Y0147973D01*
X0066570Y0148051D01*
X0066662Y0148126D01*
X0066757Y0148197D01*
X0066854Y0148266D01*
X0066953Y0148331D01*
X0067055Y0148392D01*
X0067158Y0148451D01*
X0067264Y0148505D01*
X0067371Y0148556D01*
X0067480Y0148604D01*
X0067590Y0148648D01*
X0067702Y0148688D01*
X0067815Y0148724D01*
X0067930Y0148757D01*
X0068045Y0148785D01*
X0068161Y0148810D01*
X0068278Y0148831D01*
X0068396Y0148848D01*
X0068514Y0148861D01*
X0068632Y0148870D01*
X0068751Y0148875D01*
X0068870Y0148876D01*
X0068988Y0148873D01*
X0069107Y0148866D01*
X0069225Y0148855D01*
X0069343Y0148840D01*
X0069461Y0148821D01*
X0069577Y0148798D01*
X0069693Y0148772D01*
X0069808Y0148741D01*
X0069921Y0148707D01*
X0070034Y0148668D01*
X0070145Y0148626D01*
X0070255Y0148581D01*
X0070363Y0148531D01*
X0070469Y0148478D01*
X0070574Y0148422D01*
X0070676Y0148362D01*
X0070777Y0148299D01*
X0070875Y0148232D01*
X0070971Y0148162D01*
X0071065Y0148089D01*
X0071156Y0148012D01*
X0071244Y0147933D01*
X0071330Y0147851D01*
X0071413Y0147766D01*
X0071493Y0147678D01*
X0071570Y0147588D01*
X0071644Y0147495D01*
X0071715Y0147399D01*
X0071782Y0147301D01*
X0071846Y0147201D01*
X0071907Y0147099D01*
X0071965Y0146995D01*
X0072018Y0146889D01*
X0072069Y0146782D01*
X0072115Y0146673D01*
X0072158Y0146562D01*
X0072197Y0146450D01*
X0072233Y0146336D01*
X0072264Y0146222D01*
X0072292Y0146106D01*
X0072316Y0145990D01*
X0072336Y0145873D01*
X0072352Y0145755D01*
X0072364Y0145637D01*
X0072372Y0145518D01*
X0072376Y0145399D01*
X0072376Y0145281D01*
X0072372Y0145162D01*
X0072364Y0145043D01*
X0072352Y0144925D01*
X0072336Y0144807D01*
X0072316Y0144690D01*
X0072292Y0144574D01*
X0072264Y0144458D01*
X0072233Y0144344D01*
X0072197Y0144230D01*
X0072158Y0144118D01*
X0072115Y0144007D01*
X0072069Y0143898D01*
X0072018Y0143791D01*
X0071965Y0143685D01*
X0071907Y0143581D01*
X0071846Y0143479D01*
X0071782Y0143379D01*
X0071715Y0143281D01*
X0071644Y0143185D01*
X0071570Y0143092D01*
X0071493Y0143002D01*
X0071413Y0142914D01*
X0071330Y0142829D01*
X0071244Y0142747D01*
X0071156Y0142668D01*
X0071065Y0142591D01*
X0070971Y0142518D01*
X0070875Y0142448D01*
X0070777Y0142381D01*
X0070676Y0142318D01*
X0070574Y0142258D01*
X0070469Y0142202D01*
X0070363Y0142149D01*
X0070255Y0142099D01*
X0070145Y0142054D01*
X0070034Y0142012D01*
X0069921Y0141973D01*
X0069808Y0141939D01*
X0069693Y0141908D01*
X0069577Y0141882D01*
X0069461Y0141859D01*
X0069343Y0141840D01*
X0069225Y0141825D01*
X0069107Y0141814D01*
X0068988Y0141807D01*
X0068870Y0141804D01*
X0068751Y0141805D01*
X0068632Y0141810D01*
X0068514Y0141819D01*
X0068396Y0141832D01*
X0068278Y0141849D01*
X0068161Y0141870D01*
X0068045Y0141895D01*
X0067930Y0141923D01*
X0067815Y0141956D01*
X0067702Y0141992D01*
X0067590Y0142032D01*
X0067480Y0142076D01*
X0067371Y0142124D01*
X0067264Y0142175D01*
X0067158Y0142229D01*
X0067055Y0142288D01*
X0066953Y0142349D01*
X0066854Y0142414D01*
X0066757Y0142483D01*
X0066662Y0142554D01*
X0066570Y0142629D01*
X0066480Y0142707D01*
X0066393Y0142788D01*
X0066308Y0142871D01*
X0066227Y0142958D01*
X0066148Y0143047D01*
X0066073Y0143139D01*
X0066000Y0143233D01*
X0065931Y0143329D01*
X0065865Y0143428D01*
X0065803Y0143529D01*
X0065744Y0143632D01*
X0065688Y0143737D01*
X0065636Y0143844D01*
X0065588Y0143953D01*
X0065543Y0144063D01*
X0065502Y0144174D01*
X0065464Y0144287D01*
X0065431Y0144401D01*
X0065401Y0144516D01*
X0065376Y0144632D01*
X0065354Y0144749D01*
X0065336Y0144866D01*
X0065322Y0144984D01*
X0065312Y0145103D01*
X0065306Y0145221D01*
X0065304Y0145340D01*
X0033218Y0119021D02*
X0033216Y0119145D01*
X0033210Y0119268D01*
X0033201Y0119392D01*
X0033187Y0119514D01*
X0033170Y0119637D01*
X0033148Y0119759D01*
X0033123Y0119880D01*
X0033094Y0120000D01*
X0033062Y0120119D01*
X0033025Y0120238D01*
X0032985Y0120355D01*
X0032942Y0120470D01*
X0032894Y0120585D01*
X0032843Y0120697D01*
X0032789Y0120808D01*
X0032731Y0120918D01*
X0032670Y0121025D01*
X0032605Y0121131D01*
X0032537Y0121234D01*
X0032466Y0121335D01*
X0032392Y0121434D01*
X0032315Y0121531D01*
X0032234Y0121625D01*
X0032151Y0121716D01*
X0032065Y0121805D01*
X0031976Y0121891D01*
X0031885Y0121974D01*
X0031791Y0122055D01*
X0031694Y0122132D01*
X0031595Y0122206D01*
X0031494Y0122277D01*
X0031391Y0122345D01*
X0031285Y0122410D01*
X0031178Y0122471D01*
X0031068Y0122529D01*
X0030957Y0122583D01*
X0030845Y0122634D01*
X0030730Y0122682D01*
X0030615Y0122725D01*
X0030498Y0122765D01*
X0030379Y0122802D01*
X0030260Y0122834D01*
X0030140Y0122863D01*
X0030019Y0122888D01*
X0029897Y0122910D01*
X0029774Y0122927D01*
X0029652Y0122941D01*
X0029528Y0122950D01*
X0029405Y0122956D01*
X0029281Y0122958D01*
X0017470Y0087840D02*
X0017482Y0088806D01*
X0017517Y0089772D01*
X0017577Y0090736D01*
X0017660Y0091699D01*
X0017766Y0092659D01*
X0017896Y0093617D01*
X0018050Y0094571D01*
X0018226Y0095521D01*
X0018427Y0096466D01*
X0018650Y0097406D01*
X0018896Y0098340D01*
X0019165Y0099269D01*
X0019457Y0100190D01*
X0019771Y0101103D01*
X0020108Y0102009D01*
X0020467Y0102906D01*
X0020848Y0103794D01*
X0021250Y0104673D01*
X0021674Y0105541D01*
X0022119Y0106399D01*
X0022585Y0107245D01*
X0023071Y0108080D01*
X0023578Y0108903D01*
X0024105Y0109713D01*
X0024652Y0110510D01*
X0025218Y0111293D01*
X0025803Y0112062D01*
X0026407Y0112816D01*
X0027029Y0113555D01*
X0027669Y0114279D01*
X0028326Y0114987D01*
X0029001Y0115679D01*
X0029693Y0116354D01*
X0030401Y0117011D01*
X0031125Y0117651D01*
X0031864Y0118273D01*
X0032618Y0118877D01*
X0033387Y0119462D01*
X0034170Y0120028D01*
X0034967Y0120575D01*
X0035777Y0121102D01*
X0036600Y0121609D01*
X0037435Y0122095D01*
X0038281Y0122561D01*
X0039139Y0123006D01*
X0040007Y0123430D01*
X0040886Y0123832D01*
X0041774Y0124213D01*
X0042671Y0124572D01*
X0043577Y0124909D01*
X0044490Y0125223D01*
X0045411Y0125515D01*
X0046340Y0125784D01*
X0047274Y0126030D01*
X0048214Y0126253D01*
X0049159Y0126454D01*
X0050109Y0126630D01*
X0051063Y0126784D01*
X0052021Y0126914D01*
X0052981Y0127020D01*
X0053944Y0127103D01*
X0054908Y0127163D01*
X0055874Y0127198D01*
X0056840Y0127210D01*
X0057806Y0127198D01*
X0058772Y0127163D01*
X0059736Y0127103D01*
X0060699Y0127020D01*
X0061659Y0126914D01*
X0062617Y0126784D01*
X0063571Y0126630D01*
X0064521Y0126454D01*
X0065466Y0126253D01*
X0066406Y0126030D01*
X0067340Y0125784D01*
X0068269Y0125515D01*
X0069190Y0125223D01*
X0070103Y0124909D01*
X0071009Y0124572D01*
X0071906Y0124213D01*
X0072794Y0123832D01*
X0073673Y0123430D01*
X0074541Y0123006D01*
X0075399Y0122561D01*
X0076245Y0122095D01*
X0077080Y0121609D01*
X0077903Y0121102D01*
X0078713Y0120575D01*
X0079510Y0120028D01*
X0080293Y0119462D01*
X0081062Y0118877D01*
X0081816Y0118273D01*
X0082555Y0117651D01*
X0083279Y0117011D01*
X0083987Y0116354D01*
X0084679Y0115679D01*
X0085354Y0114987D01*
X0086011Y0114279D01*
X0086651Y0113555D01*
X0087273Y0112816D01*
X0087877Y0112062D01*
X0088462Y0111293D01*
X0089028Y0110510D01*
X0089575Y0109713D01*
X0090102Y0108903D01*
X0090609Y0108080D01*
X0091095Y0107245D01*
X0091561Y0106399D01*
X0092006Y0105541D01*
X0092430Y0104673D01*
X0092832Y0103794D01*
X0093213Y0102906D01*
X0093572Y0102009D01*
X0093909Y0101103D01*
X0094223Y0100190D01*
X0094515Y0099269D01*
X0094784Y0098340D01*
X0095030Y0097406D01*
X0095253Y0096466D01*
X0095454Y0095521D01*
X0095630Y0094571D01*
X0095784Y0093617D01*
X0095914Y0092659D01*
X0096020Y0091699D01*
X0096103Y0090736D01*
X0096163Y0089772D01*
X0096198Y0088806D01*
X0096210Y0087840D01*
X0096198Y0086874D01*
X0096163Y0085908D01*
X0096103Y0084944D01*
X0096020Y0083981D01*
X0095914Y0083021D01*
X0095784Y0082063D01*
X0095630Y0081109D01*
X0095454Y0080159D01*
X0095253Y0079214D01*
X0095030Y0078274D01*
X0094784Y0077340D01*
X0094515Y0076411D01*
X0094223Y0075490D01*
X0093909Y0074577D01*
X0093572Y0073671D01*
X0093213Y0072774D01*
X0092832Y0071886D01*
X0092430Y0071007D01*
X0092006Y0070139D01*
X0091561Y0069281D01*
X0091095Y0068435D01*
X0090609Y0067600D01*
X0090102Y0066777D01*
X0089575Y0065967D01*
X0089028Y0065170D01*
X0088462Y0064387D01*
X0087877Y0063618D01*
X0087273Y0062864D01*
X0086651Y0062125D01*
X0086011Y0061401D01*
X0085354Y0060693D01*
X0084679Y0060001D01*
X0083987Y0059326D01*
X0083279Y0058669D01*
X0082555Y0058029D01*
X0081816Y0057407D01*
X0081062Y0056803D01*
X0080293Y0056218D01*
X0079510Y0055652D01*
X0078713Y0055105D01*
X0077903Y0054578D01*
X0077080Y0054071D01*
X0076245Y0053585D01*
X0075399Y0053119D01*
X0074541Y0052674D01*
X0073673Y0052250D01*
X0072794Y0051848D01*
X0071906Y0051467D01*
X0071009Y0051108D01*
X0070103Y0050771D01*
X0069190Y0050457D01*
X0068269Y0050165D01*
X0067340Y0049896D01*
X0066406Y0049650D01*
X0065466Y0049427D01*
X0064521Y0049226D01*
X0063571Y0049050D01*
X0062617Y0048896D01*
X0061659Y0048766D01*
X0060699Y0048660D01*
X0059736Y0048577D01*
X0058772Y0048517D01*
X0057806Y0048482D01*
X0056840Y0048470D01*
X0055874Y0048482D01*
X0054908Y0048517D01*
X0053944Y0048577D01*
X0052981Y0048660D01*
X0052021Y0048766D01*
X0051063Y0048896D01*
X0050109Y0049050D01*
X0049159Y0049226D01*
X0048214Y0049427D01*
X0047274Y0049650D01*
X0046340Y0049896D01*
X0045411Y0050165D01*
X0044490Y0050457D01*
X0043577Y0050771D01*
X0042671Y0051108D01*
X0041774Y0051467D01*
X0040886Y0051848D01*
X0040007Y0052250D01*
X0039139Y0052674D01*
X0038281Y0053119D01*
X0037435Y0053585D01*
X0036600Y0054071D01*
X0035777Y0054578D01*
X0034967Y0055105D01*
X0034170Y0055652D01*
X0033387Y0056218D01*
X0032618Y0056803D01*
X0031864Y0057407D01*
X0031125Y0058029D01*
X0030401Y0058669D01*
X0029693Y0059326D01*
X0029001Y0060001D01*
X0028326Y0060693D01*
X0027669Y0061401D01*
X0027029Y0062125D01*
X0026407Y0062864D01*
X0025803Y0063618D01*
X0025218Y0064387D01*
X0024652Y0065170D01*
X0024105Y0065967D01*
X0023578Y0066777D01*
X0023071Y0067600D01*
X0022585Y0068435D01*
X0022119Y0069281D01*
X0021674Y0070139D01*
X0021250Y0071007D01*
X0020848Y0071886D01*
X0020467Y0072774D01*
X0020108Y0073671D01*
X0019771Y0074577D01*
X0019457Y0075490D01*
X0019165Y0076411D01*
X0018896Y0077340D01*
X0018650Y0078274D01*
X0018427Y0079214D01*
X0018226Y0080159D01*
X0018050Y0081109D01*
X0017896Y0082063D01*
X0017766Y0083021D01*
X0017660Y0083981D01*
X0017577Y0084944D01*
X0017517Y0085908D01*
X0017482Y0086874D01*
X0017470Y0087840D01*
X0110340Y0044683D02*
X0110340Y0024998D01*
X0110635Y0024998D01*
X0114946Y0024998D02*
X0115734Y0024998D01*
X0119946Y0024998D02*
X0120340Y0024998D01*
X0120340Y0033462D01*
X0125340Y0033462D01*
X0125340Y0024998D01*
X0125734Y0024998D01*
X0125340Y0024998D02*
X0124946Y0024998D01*
X0120734Y0024998D02*
X0120340Y0024998D01*
X0129946Y0024998D02*
X0130734Y0024998D01*
X0135045Y0024998D02*
X0135340Y0024998D01*
X0135340Y0044683D01*
X0135045Y0044683D01*
X0130734Y0044683D02*
X0129946Y0044683D01*
X0125734Y0044683D02*
X0124946Y0044683D01*
X0120734Y0044683D02*
X0119946Y0044683D01*
X0115734Y0044683D02*
X0114946Y0044683D01*
X0110635Y0044683D02*
X0110340Y0044683D01*
D31*
X0137840Y0045340D02*
X0137840Y0040340D01*
X0140340Y0037840D01*
X0145340Y0037840D01*
X0147840Y0040340D01*
X0150340Y0037840D01*
X0155340Y0037840D01*
X0157840Y0040340D01*
X0157840Y0045340D01*
X0155340Y0047840D01*
X0150340Y0047840D01*
X0147840Y0045340D01*
X0145340Y0047840D01*
X0140340Y0047840D01*
X0137840Y0045340D01*
D32*
X0102960Y0035840D02*
X0102720Y0035840D01*
X0080840Y0139720D02*
X0080840Y0139960D01*
X0080840Y0147720D02*
X0080840Y0147960D01*
D33*
X0081694Y0144791D02*
X0081444Y0144541D01*
X0081444Y0143540D01*
X0081694Y0143290D01*
X0082194Y0143290D01*
X0082445Y0143540D01*
X0082917Y0143540D02*
X0083167Y0143290D01*
X0083668Y0143290D01*
X0083918Y0143540D01*
X0083918Y0144041D01*
X0083668Y0144291D01*
X0083417Y0144291D01*
X0082917Y0144041D01*
X0082917Y0144791D01*
X0083918Y0144791D01*
X0082445Y0144541D02*
X0082194Y0144791D01*
X0081694Y0144791D01*
X0081694Y0136791D02*
X0081444Y0136541D01*
X0081444Y0135540D01*
X0081694Y0135290D01*
X0082194Y0135290D01*
X0082445Y0135540D01*
X0082917Y0136041D02*
X0083918Y0136041D01*
X0083668Y0136791D02*
X0082917Y0136041D01*
X0082445Y0136541D02*
X0082194Y0136791D01*
X0081694Y0136791D01*
X0083668Y0136791D02*
X0083668Y0135290D01*
X0098289Y0034864D02*
X0098539Y0034364D01*
X0099040Y0033863D01*
X0099040Y0034614D01*
X0099290Y0034864D01*
X0099540Y0034864D01*
X0099790Y0034614D01*
X0099790Y0034114D01*
X0099540Y0033863D01*
X0099040Y0033863D01*
X0099540Y0033391D02*
X0099790Y0033141D01*
X0099790Y0032640D01*
X0099540Y0032390D01*
X0098539Y0032390D01*
X0098289Y0032640D01*
X0098289Y0033141D01*
X0098539Y0033391D01*
M02*
