%
M48
M72
T01C0.01300
T02C0.04000
T03C0.08000
%
T01
X44475Y156412
X41475Y141412
X57475Y123412
X88475Y115412
X118475Y148412
X79475Y159412
X123475Y128412
X142475Y105412
X146475Y102412
X150475Y102412
X147475Y106412
X159475Y120912
X136475Y84412
X128475Y62412
X135475Y35412
X62475Y57412
T02
X70475Y154412
X70475Y146412
X50475Y150412
T03
X31475Y32412
X33475Y154412
X154475Y33412
X108475Y159412
X154475Y79412
M30
