G75*
%MOIN*%
%OFA0B0*%
%FSLAX25Y25*%
%IPPOS*%
%LPD*%
%AMOC8*
5,1,8,0,0,1.08239X$1,22.5*
%
%ADD10C,0.00000*%
%ADD11C,0.01600*%
%ADD12C,0.00500*%
D10*
X0031840Y0035840D02*
X0031842Y0035966D01*
X0031848Y0036092D01*
X0031858Y0036218D01*
X0031872Y0036344D01*
X0031890Y0036469D01*
X0031912Y0036593D01*
X0031937Y0036717D01*
X0031967Y0036840D01*
X0032000Y0036961D01*
X0032038Y0037082D01*
X0032079Y0037201D01*
X0032124Y0037320D01*
X0032172Y0037436D01*
X0032224Y0037551D01*
X0032280Y0037664D01*
X0032340Y0037776D01*
X0032403Y0037885D01*
X0032469Y0037993D01*
X0032538Y0038098D01*
X0032611Y0038201D01*
X0032688Y0038302D01*
X0032767Y0038400D01*
X0032849Y0038496D01*
X0032935Y0038589D01*
X0033023Y0038680D01*
X0033114Y0038767D01*
X0033208Y0038852D01*
X0033304Y0038933D01*
X0033403Y0039012D01*
X0033504Y0039087D01*
X0033608Y0039159D01*
X0033714Y0039228D01*
X0033822Y0039294D01*
X0033932Y0039356D01*
X0034044Y0039414D01*
X0034157Y0039469D01*
X0034273Y0039520D01*
X0034390Y0039568D01*
X0034508Y0039612D01*
X0034628Y0039652D01*
X0034749Y0039688D01*
X0034871Y0039721D01*
X0034994Y0039750D01*
X0035118Y0039774D01*
X0035242Y0039795D01*
X0035367Y0039812D01*
X0035493Y0039825D01*
X0035619Y0039834D01*
X0035745Y0039839D01*
X0035872Y0039840D01*
X0035998Y0039837D01*
X0036124Y0039830D01*
X0036250Y0039819D01*
X0036375Y0039804D01*
X0036500Y0039785D01*
X0036624Y0039762D01*
X0036748Y0039736D01*
X0036870Y0039705D01*
X0036992Y0039671D01*
X0037112Y0039632D01*
X0037231Y0039590D01*
X0037349Y0039545D01*
X0037465Y0039495D01*
X0037580Y0039442D01*
X0037692Y0039385D01*
X0037803Y0039325D01*
X0037912Y0039261D01*
X0038019Y0039194D01*
X0038124Y0039124D01*
X0038227Y0039050D01*
X0038327Y0038973D01*
X0038425Y0038893D01*
X0038520Y0038810D01*
X0038612Y0038724D01*
X0038702Y0038635D01*
X0038789Y0038543D01*
X0038872Y0038449D01*
X0038953Y0038352D01*
X0039031Y0038252D01*
X0039106Y0038150D01*
X0039177Y0038046D01*
X0039245Y0037939D01*
X0039309Y0037831D01*
X0039370Y0037720D01*
X0039428Y0037608D01*
X0039482Y0037494D01*
X0039532Y0037378D01*
X0039579Y0037261D01*
X0039622Y0037142D01*
X0039661Y0037022D01*
X0039697Y0036901D01*
X0039728Y0036778D01*
X0039756Y0036655D01*
X0039780Y0036531D01*
X0039800Y0036406D01*
X0039816Y0036281D01*
X0039828Y0036155D01*
X0039836Y0036029D01*
X0039840Y0035903D01*
X0039840Y0035777D01*
X0039836Y0035651D01*
X0039828Y0035525D01*
X0039816Y0035399D01*
X0039800Y0035274D01*
X0039780Y0035149D01*
X0039756Y0035025D01*
X0039728Y0034902D01*
X0039697Y0034779D01*
X0039661Y0034658D01*
X0039622Y0034538D01*
X0039579Y0034419D01*
X0039532Y0034302D01*
X0039482Y0034186D01*
X0039428Y0034072D01*
X0039370Y0033960D01*
X0039309Y0033849D01*
X0039245Y0033741D01*
X0039177Y0033634D01*
X0039106Y0033530D01*
X0039031Y0033428D01*
X0038953Y0033328D01*
X0038872Y0033231D01*
X0038789Y0033137D01*
X0038702Y0033045D01*
X0038612Y0032956D01*
X0038520Y0032870D01*
X0038425Y0032787D01*
X0038327Y0032707D01*
X0038227Y0032630D01*
X0038124Y0032556D01*
X0038019Y0032486D01*
X0037912Y0032419D01*
X0037803Y0032355D01*
X0037692Y0032295D01*
X0037580Y0032238D01*
X0037465Y0032185D01*
X0037349Y0032135D01*
X0037231Y0032090D01*
X0037112Y0032048D01*
X0036992Y0032009D01*
X0036870Y0031975D01*
X0036748Y0031944D01*
X0036624Y0031918D01*
X0036500Y0031895D01*
X0036375Y0031876D01*
X0036250Y0031861D01*
X0036124Y0031850D01*
X0035998Y0031843D01*
X0035872Y0031840D01*
X0035745Y0031841D01*
X0035619Y0031846D01*
X0035493Y0031855D01*
X0035367Y0031868D01*
X0035242Y0031885D01*
X0035118Y0031906D01*
X0034994Y0031930D01*
X0034871Y0031959D01*
X0034749Y0031992D01*
X0034628Y0032028D01*
X0034508Y0032068D01*
X0034390Y0032112D01*
X0034273Y0032160D01*
X0034157Y0032211D01*
X0034044Y0032266D01*
X0033932Y0032324D01*
X0033822Y0032386D01*
X0033714Y0032452D01*
X0033608Y0032521D01*
X0033504Y0032593D01*
X0033403Y0032668D01*
X0033304Y0032747D01*
X0033208Y0032828D01*
X0033114Y0032913D01*
X0033023Y0033000D01*
X0032935Y0033091D01*
X0032849Y0033184D01*
X0032767Y0033280D01*
X0032688Y0033378D01*
X0032611Y0033479D01*
X0032538Y0033582D01*
X0032469Y0033687D01*
X0032403Y0033795D01*
X0032340Y0033904D01*
X0032280Y0034016D01*
X0032224Y0034129D01*
X0032172Y0034244D01*
X0032124Y0034360D01*
X0032079Y0034479D01*
X0032038Y0034598D01*
X0032000Y0034719D01*
X0031967Y0034840D01*
X0031937Y0034963D01*
X0031912Y0035087D01*
X0031890Y0035211D01*
X0031872Y0035336D01*
X0031858Y0035462D01*
X0031848Y0035588D01*
X0031842Y0035714D01*
X0031840Y0035840D01*
X0023840Y0148840D02*
X0023842Y0148966D01*
X0023848Y0149092D01*
X0023858Y0149218D01*
X0023872Y0149344D01*
X0023890Y0149469D01*
X0023912Y0149593D01*
X0023937Y0149717D01*
X0023967Y0149840D01*
X0024000Y0149961D01*
X0024038Y0150082D01*
X0024079Y0150201D01*
X0024124Y0150320D01*
X0024172Y0150436D01*
X0024224Y0150551D01*
X0024280Y0150664D01*
X0024340Y0150776D01*
X0024403Y0150885D01*
X0024469Y0150993D01*
X0024538Y0151098D01*
X0024611Y0151201D01*
X0024688Y0151302D01*
X0024767Y0151400D01*
X0024849Y0151496D01*
X0024935Y0151589D01*
X0025023Y0151680D01*
X0025114Y0151767D01*
X0025208Y0151852D01*
X0025304Y0151933D01*
X0025403Y0152012D01*
X0025504Y0152087D01*
X0025608Y0152159D01*
X0025714Y0152228D01*
X0025822Y0152294D01*
X0025932Y0152356D01*
X0026044Y0152414D01*
X0026157Y0152469D01*
X0026273Y0152520D01*
X0026390Y0152568D01*
X0026508Y0152612D01*
X0026628Y0152652D01*
X0026749Y0152688D01*
X0026871Y0152721D01*
X0026994Y0152750D01*
X0027118Y0152774D01*
X0027242Y0152795D01*
X0027367Y0152812D01*
X0027493Y0152825D01*
X0027619Y0152834D01*
X0027745Y0152839D01*
X0027872Y0152840D01*
X0027998Y0152837D01*
X0028124Y0152830D01*
X0028250Y0152819D01*
X0028375Y0152804D01*
X0028500Y0152785D01*
X0028624Y0152762D01*
X0028748Y0152736D01*
X0028870Y0152705D01*
X0028992Y0152671D01*
X0029112Y0152632D01*
X0029231Y0152590D01*
X0029349Y0152545D01*
X0029465Y0152495D01*
X0029580Y0152442D01*
X0029692Y0152385D01*
X0029803Y0152325D01*
X0029912Y0152261D01*
X0030019Y0152194D01*
X0030124Y0152124D01*
X0030227Y0152050D01*
X0030327Y0151973D01*
X0030425Y0151893D01*
X0030520Y0151810D01*
X0030612Y0151724D01*
X0030702Y0151635D01*
X0030789Y0151543D01*
X0030872Y0151449D01*
X0030953Y0151352D01*
X0031031Y0151252D01*
X0031106Y0151150D01*
X0031177Y0151046D01*
X0031245Y0150939D01*
X0031309Y0150831D01*
X0031370Y0150720D01*
X0031428Y0150608D01*
X0031482Y0150494D01*
X0031532Y0150378D01*
X0031579Y0150261D01*
X0031622Y0150142D01*
X0031661Y0150022D01*
X0031697Y0149901D01*
X0031728Y0149778D01*
X0031756Y0149655D01*
X0031780Y0149531D01*
X0031800Y0149406D01*
X0031816Y0149281D01*
X0031828Y0149155D01*
X0031836Y0149029D01*
X0031840Y0148903D01*
X0031840Y0148777D01*
X0031836Y0148651D01*
X0031828Y0148525D01*
X0031816Y0148399D01*
X0031800Y0148274D01*
X0031780Y0148149D01*
X0031756Y0148025D01*
X0031728Y0147902D01*
X0031697Y0147779D01*
X0031661Y0147658D01*
X0031622Y0147538D01*
X0031579Y0147419D01*
X0031532Y0147302D01*
X0031482Y0147186D01*
X0031428Y0147072D01*
X0031370Y0146960D01*
X0031309Y0146849D01*
X0031245Y0146741D01*
X0031177Y0146634D01*
X0031106Y0146530D01*
X0031031Y0146428D01*
X0030953Y0146328D01*
X0030872Y0146231D01*
X0030789Y0146137D01*
X0030702Y0146045D01*
X0030612Y0145956D01*
X0030520Y0145870D01*
X0030425Y0145787D01*
X0030327Y0145707D01*
X0030227Y0145630D01*
X0030124Y0145556D01*
X0030019Y0145486D01*
X0029912Y0145419D01*
X0029803Y0145355D01*
X0029692Y0145295D01*
X0029580Y0145238D01*
X0029465Y0145185D01*
X0029349Y0145135D01*
X0029231Y0145090D01*
X0029112Y0145048D01*
X0028992Y0145009D01*
X0028870Y0144975D01*
X0028748Y0144944D01*
X0028624Y0144918D01*
X0028500Y0144895D01*
X0028375Y0144876D01*
X0028250Y0144861D01*
X0028124Y0144850D01*
X0027998Y0144843D01*
X0027872Y0144840D01*
X0027745Y0144841D01*
X0027619Y0144846D01*
X0027493Y0144855D01*
X0027367Y0144868D01*
X0027242Y0144885D01*
X0027118Y0144906D01*
X0026994Y0144930D01*
X0026871Y0144959D01*
X0026749Y0144992D01*
X0026628Y0145028D01*
X0026508Y0145068D01*
X0026390Y0145112D01*
X0026273Y0145160D01*
X0026157Y0145211D01*
X0026044Y0145266D01*
X0025932Y0145324D01*
X0025822Y0145386D01*
X0025714Y0145452D01*
X0025608Y0145521D01*
X0025504Y0145593D01*
X0025403Y0145668D01*
X0025304Y0145747D01*
X0025208Y0145828D01*
X0025114Y0145913D01*
X0025023Y0146000D01*
X0024935Y0146091D01*
X0024849Y0146184D01*
X0024767Y0146280D01*
X0024688Y0146378D01*
X0024611Y0146479D01*
X0024538Y0146582D01*
X0024469Y0146687D01*
X0024403Y0146795D01*
X0024340Y0146904D01*
X0024280Y0147016D01*
X0024224Y0147129D01*
X0024172Y0147244D01*
X0024124Y0147360D01*
X0024079Y0147479D01*
X0024038Y0147598D01*
X0024000Y0147719D01*
X0023967Y0147840D01*
X0023937Y0147963D01*
X0023912Y0148087D01*
X0023890Y0148211D01*
X0023872Y0148336D01*
X0023858Y0148462D01*
X0023848Y0148588D01*
X0023842Y0148714D01*
X0023840Y0148840D01*
X0144840Y0148840D02*
X0144842Y0148966D01*
X0144848Y0149092D01*
X0144858Y0149218D01*
X0144872Y0149344D01*
X0144890Y0149469D01*
X0144912Y0149593D01*
X0144937Y0149717D01*
X0144967Y0149840D01*
X0145000Y0149961D01*
X0145038Y0150082D01*
X0145079Y0150201D01*
X0145124Y0150320D01*
X0145172Y0150436D01*
X0145224Y0150551D01*
X0145280Y0150664D01*
X0145340Y0150776D01*
X0145403Y0150885D01*
X0145469Y0150993D01*
X0145538Y0151098D01*
X0145611Y0151201D01*
X0145688Y0151302D01*
X0145767Y0151400D01*
X0145849Y0151496D01*
X0145935Y0151589D01*
X0146023Y0151680D01*
X0146114Y0151767D01*
X0146208Y0151852D01*
X0146304Y0151933D01*
X0146403Y0152012D01*
X0146504Y0152087D01*
X0146608Y0152159D01*
X0146714Y0152228D01*
X0146822Y0152294D01*
X0146932Y0152356D01*
X0147044Y0152414D01*
X0147157Y0152469D01*
X0147273Y0152520D01*
X0147390Y0152568D01*
X0147508Y0152612D01*
X0147628Y0152652D01*
X0147749Y0152688D01*
X0147871Y0152721D01*
X0147994Y0152750D01*
X0148118Y0152774D01*
X0148242Y0152795D01*
X0148367Y0152812D01*
X0148493Y0152825D01*
X0148619Y0152834D01*
X0148745Y0152839D01*
X0148872Y0152840D01*
X0148998Y0152837D01*
X0149124Y0152830D01*
X0149250Y0152819D01*
X0149375Y0152804D01*
X0149500Y0152785D01*
X0149624Y0152762D01*
X0149748Y0152736D01*
X0149870Y0152705D01*
X0149992Y0152671D01*
X0150112Y0152632D01*
X0150231Y0152590D01*
X0150349Y0152545D01*
X0150465Y0152495D01*
X0150580Y0152442D01*
X0150692Y0152385D01*
X0150803Y0152325D01*
X0150912Y0152261D01*
X0151019Y0152194D01*
X0151124Y0152124D01*
X0151227Y0152050D01*
X0151327Y0151973D01*
X0151425Y0151893D01*
X0151520Y0151810D01*
X0151612Y0151724D01*
X0151702Y0151635D01*
X0151789Y0151543D01*
X0151872Y0151449D01*
X0151953Y0151352D01*
X0152031Y0151252D01*
X0152106Y0151150D01*
X0152177Y0151046D01*
X0152245Y0150939D01*
X0152309Y0150831D01*
X0152370Y0150720D01*
X0152428Y0150608D01*
X0152482Y0150494D01*
X0152532Y0150378D01*
X0152579Y0150261D01*
X0152622Y0150142D01*
X0152661Y0150022D01*
X0152697Y0149901D01*
X0152728Y0149778D01*
X0152756Y0149655D01*
X0152780Y0149531D01*
X0152800Y0149406D01*
X0152816Y0149281D01*
X0152828Y0149155D01*
X0152836Y0149029D01*
X0152840Y0148903D01*
X0152840Y0148777D01*
X0152836Y0148651D01*
X0152828Y0148525D01*
X0152816Y0148399D01*
X0152800Y0148274D01*
X0152780Y0148149D01*
X0152756Y0148025D01*
X0152728Y0147902D01*
X0152697Y0147779D01*
X0152661Y0147658D01*
X0152622Y0147538D01*
X0152579Y0147419D01*
X0152532Y0147302D01*
X0152482Y0147186D01*
X0152428Y0147072D01*
X0152370Y0146960D01*
X0152309Y0146849D01*
X0152245Y0146741D01*
X0152177Y0146634D01*
X0152106Y0146530D01*
X0152031Y0146428D01*
X0151953Y0146328D01*
X0151872Y0146231D01*
X0151789Y0146137D01*
X0151702Y0146045D01*
X0151612Y0145956D01*
X0151520Y0145870D01*
X0151425Y0145787D01*
X0151327Y0145707D01*
X0151227Y0145630D01*
X0151124Y0145556D01*
X0151019Y0145486D01*
X0150912Y0145419D01*
X0150803Y0145355D01*
X0150692Y0145295D01*
X0150580Y0145238D01*
X0150465Y0145185D01*
X0150349Y0145135D01*
X0150231Y0145090D01*
X0150112Y0145048D01*
X0149992Y0145009D01*
X0149870Y0144975D01*
X0149748Y0144944D01*
X0149624Y0144918D01*
X0149500Y0144895D01*
X0149375Y0144876D01*
X0149250Y0144861D01*
X0149124Y0144850D01*
X0148998Y0144843D01*
X0148872Y0144840D01*
X0148745Y0144841D01*
X0148619Y0144846D01*
X0148493Y0144855D01*
X0148367Y0144868D01*
X0148242Y0144885D01*
X0148118Y0144906D01*
X0147994Y0144930D01*
X0147871Y0144959D01*
X0147749Y0144992D01*
X0147628Y0145028D01*
X0147508Y0145068D01*
X0147390Y0145112D01*
X0147273Y0145160D01*
X0147157Y0145211D01*
X0147044Y0145266D01*
X0146932Y0145324D01*
X0146822Y0145386D01*
X0146714Y0145452D01*
X0146608Y0145521D01*
X0146504Y0145593D01*
X0146403Y0145668D01*
X0146304Y0145747D01*
X0146208Y0145828D01*
X0146114Y0145913D01*
X0146023Y0146000D01*
X0145935Y0146091D01*
X0145849Y0146184D01*
X0145767Y0146280D01*
X0145688Y0146378D01*
X0145611Y0146479D01*
X0145538Y0146582D01*
X0145469Y0146687D01*
X0145403Y0146795D01*
X0145340Y0146904D01*
X0145280Y0147016D01*
X0145224Y0147129D01*
X0145172Y0147244D01*
X0145124Y0147360D01*
X0145079Y0147479D01*
X0145038Y0147598D01*
X0145000Y0147719D01*
X0144967Y0147840D01*
X0144937Y0147963D01*
X0144912Y0148087D01*
X0144890Y0148211D01*
X0144872Y0148336D01*
X0144858Y0148462D01*
X0144848Y0148588D01*
X0144842Y0148714D01*
X0144840Y0148840D01*
X0144840Y0027840D02*
X0144842Y0027966D01*
X0144848Y0028092D01*
X0144858Y0028218D01*
X0144872Y0028344D01*
X0144890Y0028469D01*
X0144912Y0028593D01*
X0144937Y0028717D01*
X0144967Y0028840D01*
X0145000Y0028961D01*
X0145038Y0029082D01*
X0145079Y0029201D01*
X0145124Y0029320D01*
X0145172Y0029436D01*
X0145224Y0029551D01*
X0145280Y0029664D01*
X0145340Y0029776D01*
X0145403Y0029885D01*
X0145469Y0029993D01*
X0145538Y0030098D01*
X0145611Y0030201D01*
X0145688Y0030302D01*
X0145767Y0030400D01*
X0145849Y0030496D01*
X0145935Y0030589D01*
X0146023Y0030680D01*
X0146114Y0030767D01*
X0146208Y0030852D01*
X0146304Y0030933D01*
X0146403Y0031012D01*
X0146504Y0031087D01*
X0146608Y0031159D01*
X0146714Y0031228D01*
X0146822Y0031294D01*
X0146932Y0031356D01*
X0147044Y0031414D01*
X0147157Y0031469D01*
X0147273Y0031520D01*
X0147390Y0031568D01*
X0147508Y0031612D01*
X0147628Y0031652D01*
X0147749Y0031688D01*
X0147871Y0031721D01*
X0147994Y0031750D01*
X0148118Y0031774D01*
X0148242Y0031795D01*
X0148367Y0031812D01*
X0148493Y0031825D01*
X0148619Y0031834D01*
X0148745Y0031839D01*
X0148872Y0031840D01*
X0148998Y0031837D01*
X0149124Y0031830D01*
X0149250Y0031819D01*
X0149375Y0031804D01*
X0149500Y0031785D01*
X0149624Y0031762D01*
X0149748Y0031736D01*
X0149870Y0031705D01*
X0149992Y0031671D01*
X0150112Y0031632D01*
X0150231Y0031590D01*
X0150349Y0031545D01*
X0150465Y0031495D01*
X0150580Y0031442D01*
X0150692Y0031385D01*
X0150803Y0031325D01*
X0150912Y0031261D01*
X0151019Y0031194D01*
X0151124Y0031124D01*
X0151227Y0031050D01*
X0151327Y0030973D01*
X0151425Y0030893D01*
X0151520Y0030810D01*
X0151612Y0030724D01*
X0151702Y0030635D01*
X0151789Y0030543D01*
X0151872Y0030449D01*
X0151953Y0030352D01*
X0152031Y0030252D01*
X0152106Y0030150D01*
X0152177Y0030046D01*
X0152245Y0029939D01*
X0152309Y0029831D01*
X0152370Y0029720D01*
X0152428Y0029608D01*
X0152482Y0029494D01*
X0152532Y0029378D01*
X0152579Y0029261D01*
X0152622Y0029142D01*
X0152661Y0029022D01*
X0152697Y0028901D01*
X0152728Y0028778D01*
X0152756Y0028655D01*
X0152780Y0028531D01*
X0152800Y0028406D01*
X0152816Y0028281D01*
X0152828Y0028155D01*
X0152836Y0028029D01*
X0152840Y0027903D01*
X0152840Y0027777D01*
X0152836Y0027651D01*
X0152828Y0027525D01*
X0152816Y0027399D01*
X0152800Y0027274D01*
X0152780Y0027149D01*
X0152756Y0027025D01*
X0152728Y0026902D01*
X0152697Y0026779D01*
X0152661Y0026658D01*
X0152622Y0026538D01*
X0152579Y0026419D01*
X0152532Y0026302D01*
X0152482Y0026186D01*
X0152428Y0026072D01*
X0152370Y0025960D01*
X0152309Y0025849D01*
X0152245Y0025741D01*
X0152177Y0025634D01*
X0152106Y0025530D01*
X0152031Y0025428D01*
X0151953Y0025328D01*
X0151872Y0025231D01*
X0151789Y0025137D01*
X0151702Y0025045D01*
X0151612Y0024956D01*
X0151520Y0024870D01*
X0151425Y0024787D01*
X0151327Y0024707D01*
X0151227Y0024630D01*
X0151124Y0024556D01*
X0151019Y0024486D01*
X0150912Y0024419D01*
X0150803Y0024355D01*
X0150692Y0024295D01*
X0150580Y0024238D01*
X0150465Y0024185D01*
X0150349Y0024135D01*
X0150231Y0024090D01*
X0150112Y0024048D01*
X0149992Y0024009D01*
X0149870Y0023975D01*
X0149748Y0023944D01*
X0149624Y0023918D01*
X0149500Y0023895D01*
X0149375Y0023876D01*
X0149250Y0023861D01*
X0149124Y0023850D01*
X0148998Y0023843D01*
X0148872Y0023840D01*
X0148745Y0023841D01*
X0148619Y0023846D01*
X0148493Y0023855D01*
X0148367Y0023868D01*
X0148242Y0023885D01*
X0148118Y0023906D01*
X0147994Y0023930D01*
X0147871Y0023959D01*
X0147749Y0023992D01*
X0147628Y0024028D01*
X0147508Y0024068D01*
X0147390Y0024112D01*
X0147273Y0024160D01*
X0147157Y0024211D01*
X0147044Y0024266D01*
X0146932Y0024324D01*
X0146822Y0024386D01*
X0146714Y0024452D01*
X0146608Y0024521D01*
X0146504Y0024593D01*
X0146403Y0024668D01*
X0146304Y0024747D01*
X0146208Y0024828D01*
X0146114Y0024913D01*
X0146023Y0025000D01*
X0145935Y0025091D01*
X0145849Y0025184D01*
X0145767Y0025280D01*
X0145688Y0025378D01*
X0145611Y0025479D01*
X0145538Y0025582D01*
X0145469Y0025687D01*
X0145403Y0025795D01*
X0145340Y0025904D01*
X0145280Y0026016D01*
X0145224Y0026129D01*
X0145172Y0026244D01*
X0145124Y0026360D01*
X0145079Y0026479D01*
X0145038Y0026598D01*
X0145000Y0026719D01*
X0144967Y0026840D01*
X0144937Y0026963D01*
X0144912Y0027087D01*
X0144890Y0027211D01*
X0144872Y0027336D01*
X0144858Y0027462D01*
X0144848Y0027588D01*
X0144842Y0027714D01*
X0144840Y0027840D01*
D11*
X0139840Y0014840D02*
X0140323Y0014846D01*
X0140806Y0014863D01*
X0141289Y0014893D01*
X0141770Y0014933D01*
X0142251Y0014986D01*
X0142730Y0015050D01*
X0143207Y0015125D01*
X0143683Y0015213D01*
X0144156Y0015311D01*
X0144626Y0015421D01*
X0145094Y0015542D01*
X0145559Y0015675D01*
X0146020Y0015819D01*
X0146478Y0015974D01*
X0146932Y0016140D01*
X0147382Y0016317D01*
X0147827Y0016504D01*
X0148268Y0016703D01*
X0148704Y0016911D01*
X0149134Y0017131D01*
X0149560Y0017361D01*
X0149979Y0017601D01*
X0150393Y0017851D01*
X0150800Y0018111D01*
X0151201Y0018380D01*
X0151596Y0018660D01*
X0151983Y0018948D01*
X0152364Y0019247D01*
X0152737Y0019554D01*
X0153102Y0019870D01*
X0153460Y0020195D01*
X0153810Y0020528D01*
X0154152Y0020870D01*
X0154485Y0021220D01*
X0154810Y0021578D01*
X0155126Y0021943D01*
X0155433Y0022316D01*
X0155732Y0022697D01*
X0156020Y0023084D01*
X0156300Y0023479D01*
X0156569Y0023880D01*
X0156829Y0024287D01*
X0157079Y0024701D01*
X0157319Y0025120D01*
X0157549Y0025546D01*
X0157769Y0025976D01*
X0157977Y0026412D01*
X0158176Y0026853D01*
X0158363Y0027298D01*
X0158540Y0027748D01*
X0158706Y0028202D01*
X0158861Y0028660D01*
X0159005Y0029121D01*
X0159138Y0029586D01*
X0159259Y0030054D01*
X0159369Y0030524D01*
X0159467Y0030997D01*
X0159555Y0031473D01*
X0159630Y0031950D01*
X0159694Y0032429D01*
X0159747Y0032910D01*
X0159787Y0033391D01*
X0159817Y0033874D01*
X0159834Y0034357D01*
X0159840Y0034840D01*
X0159840Y0143840D01*
X0159835Y0144227D01*
X0159821Y0144613D01*
X0159798Y0144999D01*
X0159765Y0145384D01*
X0159723Y0145769D01*
X0159672Y0146152D01*
X0159612Y0146534D01*
X0159542Y0146914D01*
X0159463Y0147293D01*
X0159375Y0147669D01*
X0159278Y0148043D01*
X0159172Y0148415D01*
X0159057Y0148784D01*
X0158933Y0149151D01*
X0158800Y0149514D01*
X0158659Y0149874D01*
X0158509Y0150230D01*
X0158350Y0150582D01*
X0158183Y0150931D01*
X0158007Y0151276D01*
X0157823Y0151616D01*
X0157632Y0151951D01*
X0157431Y0152282D01*
X0157224Y0152608D01*
X0157008Y0152929D01*
X0156784Y0153245D01*
X0156553Y0153555D01*
X0156315Y0153859D01*
X0156069Y0154157D01*
X0155816Y0154450D01*
X0155556Y0154736D01*
X0155290Y0155016D01*
X0155016Y0155290D01*
X0154736Y0155556D01*
X0154450Y0155816D01*
X0154157Y0156069D01*
X0153859Y0156315D01*
X0153555Y0156553D01*
X0153245Y0156784D01*
X0152929Y0157008D01*
X0152608Y0157224D01*
X0152282Y0157431D01*
X0151951Y0157632D01*
X0151616Y0157823D01*
X0151276Y0158007D01*
X0150931Y0158183D01*
X0150582Y0158350D01*
X0150230Y0158509D01*
X0149874Y0158659D01*
X0149514Y0158800D01*
X0149151Y0158933D01*
X0148784Y0159057D01*
X0148415Y0159172D01*
X0148043Y0159278D01*
X0147669Y0159375D01*
X0147293Y0159463D01*
X0146914Y0159542D01*
X0146534Y0159612D01*
X0146152Y0159672D01*
X0145769Y0159723D01*
X0145384Y0159765D01*
X0144999Y0159798D01*
X0144613Y0159821D01*
X0144227Y0159835D01*
X0143840Y0159840D01*
X0034840Y0159840D01*
X0034357Y0159834D01*
X0033874Y0159817D01*
X0033391Y0159787D01*
X0032910Y0159747D01*
X0032429Y0159694D01*
X0031950Y0159630D01*
X0031473Y0159555D01*
X0030997Y0159467D01*
X0030524Y0159369D01*
X0030054Y0159259D01*
X0029586Y0159138D01*
X0029121Y0159005D01*
X0028660Y0158861D01*
X0028202Y0158706D01*
X0027748Y0158540D01*
X0027298Y0158363D01*
X0026853Y0158176D01*
X0026412Y0157977D01*
X0025976Y0157769D01*
X0025546Y0157549D01*
X0025120Y0157319D01*
X0024701Y0157079D01*
X0024287Y0156829D01*
X0023880Y0156569D01*
X0023479Y0156300D01*
X0023084Y0156020D01*
X0022697Y0155732D01*
X0022316Y0155433D01*
X0021943Y0155126D01*
X0021578Y0154810D01*
X0021220Y0154485D01*
X0020870Y0154152D01*
X0020528Y0153810D01*
X0020195Y0153460D01*
X0019870Y0153102D01*
X0019554Y0152737D01*
X0019247Y0152364D01*
X0018948Y0151983D01*
X0018660Y0151596D01*
X0018380Y0151201D01*
X0018111Y0150800D01*
X0017851Y0150393D01*
X0017601Y0149979D01*
X0017361Y0149560D01*
X0017131Y0149134D01*
X0016911Y0148704D01*
X0016703Y0148268D01*
X0016504Y0147827D01*
X0016317Y0147382D01*
X0016140Y0146932D01*
X0015974Y0146478D01*
X0015819Y0146020D01*
X0015675Y0145559D01*
X0015542Y0145094D01*
X0015421Y0144626D01*
X0015311Y0144156D01*
X0015213Y0143683D01*
X0015125Y0143207D01*
X0015050Y0142730D01*
X0014986Y0142251D01*
X0014933Y0141770D01*
X0014893Y0141289D01*
X0014863Y0140806D01*
X0014846Y0140323D01*
X0014840Y0139840D01*
X0014840Y0069658D01*
X0014856Y0068333D01*
X0014904Y0067010D01*
X0014984Y0065687D01*
X0015096Y0064367D01*
X0015240Y0063050D01*
X0015415Y0061737D01*
X0015622Y0060429D01*
X0015861Y0059126D01*
X0016131Y0057829D01*
X0016433Y0056539D01*
X0016765Y0055257D01*
X0017129Y0053983D01*
X0017523Y0052718D01*
X0017948Y0051463D01*
X0018402Y0050219D01*
X0018887Y0048986D01*
X0019401Y0047766D01*
X0019945Y0046558D01*
X0020518Y0045363D01*
X0021119Y0044183D01*
X0021749Y0043017D01*
X0022407Y0041867D01*
X0023092Y0040734D01*
X0023804Y0039617D01*
X0024544Y0038518D01*
X0025309Y0037437D01*
X0026101Y0036375D01*
X0026918Y0035332D01*
X0027760Y0034309D01*
X0028626Y0033307D01*
X0029516Y0032326D01*
X0030430Y0031367D01*
X0031367Y0030430D01*
X0032326Y0029516D01*
X0033307Y0028626D01*
X0034309Y0027760D01*
X0035332Y0026918D01*
X0036375Y0026101D01*
X0037437Y0025309D01*
X0038518Y0024544D01*
X0039617Y0023804D01*
X0040734Y0023092D01*
X0041867Y0022407D01*
X0043017Y0021749D01*
X0044183Y0021119D01*
X0045363Y0020518D01*
X0046558Y0019945D01*
X0047766Y0019401D01*
X0048986Y0018887D01*
X0050219Y0018402D01*
X0051463Y0017948D01*
X0052718Y0017523D01*
X0053983Y0017129D01*
X0055257Y0016765D01*
X0056539Y0016433D01*
X0057829Y0016131D01*
X0059126Y0015861D01*
X0060429Y0015622D01*
X0061737Y0015415D01*
X0063050Y0015240D01*
X0064367Y0015096D01*
X0065687Y0014984D01*
X0067010Y0014904D01*
X0068333Y0014856D01*
X0069658Y0014840D01*
X0139840Y0014840D01*
D12*
X0135769Y0026840D02*
X0092840Y0026840D01*
X0092840Y0016840D01*
X0097840Y0011840D01*
X0092840Y0006840D01*
X0087840Y0011840D01*
X0087840Y0026840D01*
X0087840Y0086840D01*
X0147840Y0086840D01*
X0162840Y0086840D01*
X0167840Y0081840D01*
X0162840Y0076840D01*
X0157840Y0081840D01*
X0147840Y0081840D01*
X0147840Y0086840D01*
X0147840Y0087840D02*
X0162840Y0087840D01*
X0167840Y0092840D01*
X0162840Y0097840D01*
X0157840Y0092840D01*
X0147840Y0092840D01*
X0147840Y0135769D01*
X0147836Y0136061D01*
X0147826Y0136352D01*
X0147808Y0136643D01*
X0147784Y0136934D01*
X0147752Y0137224D01*
X0147713Y0137513D01*
X0147668Y0137801D01*
X0147615Y0138088D01*
X0147556Y0138374D01*
X0147489Y0138658D01*
X0147416Y0138940D01*
X0147336Y0139221D01*
X0147249Y0139499D01*
X0147156Y0139775D01*
X0147056Y0140049D01*
X0146949Y0140321D01*
X0146836Y0140590D01*
X0146716Y0140856D01*
X0146590Y0141119D01*
X0146457Y0141379D01*
X0146319Y0141635D01*
X0146174Y0141889D01*
X0146023Y0142138D01*
X0145866Y0142384D01*
X0145703Y0142626D01*
X0145535Y0142864D01*
X0145360Y0143098D01*
X0145180Y0143328D01*
X0144995Y0143553D01*
X0144804Y0143774D01*
X0144608Y0143990D01*
X0144407Y0144201D01*
X0144201Y0144407D01*
X0143990Y0144608D01*
X0143774Y0144804D01*
X0143553Y0144995D01*
X0143328Y0145180D01*
X0143098Y0145360D01*
X0142864Y0145535D01*
X0142626Y0145703D01*
X0142384Y0145866D01*
X0142138Y0146023D01*
X0141889Y0146174D01*
X0141635Y0146319D01*
X0141379Y0146457D01*
X0141119Y0146590D01*
X0140856Y0146716D01*
X0140590Y0146836D01*
X0140321Y0146949D01*
X0140049Y0147056D01*
X0139775Y0147156D01*
X0139499Y0147249D01*
X0139221Y0147336D01*
X0138940Y0147416D01*
X0138658Y0147489D01*
X0138374Y0147556D01*
X0138088Y0147615D01*
X0137801Y0147668D01*
X0137513Y0147713D01*
X0137224Y0147752D01*
X0136934Y0147784D01*
X0136643Y0147808D01*
X0136352Y0147826D01*
X0136061Y0147836D01*
X0135769Y0147840D01*
X0092840Y0147840D01*
X0092840Y0157840D01*
X0097840Y0162840D01*
X0092840Y0167840D01*
X0087840Y0162840D01*
X0087840Y0147840D01*
X0087840Y0087840D01*
X0147840Y0087840D01*
X0147840Y0092840D01*
X0147840Y0081840D02*
X0147840Y0038911D01*
X0147836Y0038619D01*
X0147826Y0038328D01*
X0147808Y0038037D01*
X0147784Y0037746D01*
X0147752Y0037456D01*
X0147713Y0037167D01*
X0147668Y0036879D01*
X0147615Y0036592D01*
X0147556Y0036306D01*
X0147489Y0036022D01*
X0147416Y0035740D01*
X0147336Y0035459D01*
X0147249Y0035181D01*
X0147156Y0034905D01*
X0147056Y0034631D01*
X0146949Y0034359D01*
X0146836Y0034090D01*
X0146716Y0033824D01*
X0146590Y0033561D01*
X0146457Y0033301D01*
X0146319Y0033045D01*
X0146174Y0032791D01*
X0146023Y0032542D01*
X0145866Y0032296D01*
X0145703Y0032054D01*
X0145535Y0031816D01*
X0145360Y0031582D01*
X0145180Y0031352D01*
X0144995Y0031127D01*
X0144804Y0030906D01*
X0144608Y0030690D01*
X0144407Y0030479D01*
X0144201Y0030273D01*
X0143990Y0030072D01*
X0143774Y0029876D01*
X0143553Y0029685D01*
X0143328Y0029500D01*
X0143098Y0029320D01*
X0142864Y0029145D01*
X0142626Y0028977D01*
X0142384Y0028814D01*
X0142138Y0028657D01*
X0141889Y0028506D01*
X0141635Y0028361D01*
X0141379Y0028223D01*
X0141119Y0028090D01*
X0140856Y0027964D01*
X0140590Y0027844D01*
X0140321Y0027731D01*
X0140049Y0027624D01*
X0139775Y0027524D01*
X0139499Y0027431D01*
X0139221Y0027344D01*
X0138940Y0027264D01*
X0138658Y0027191D01*
X0138374Y0027124D01*
X0138088Y0027065D01*
X0137801Y0027012D01*
X0137513Y0026967D01*
X0137224Y0026928D01*
X0136934Y0026896D01*
X0136643Y0026872D01*
X0136352Y0026854D01*
X0136061Y0026844D01*
X0135769Y0026840D01*
X0089750Y0006840D02*
X0089752Y0006989D01*
X0089758Y0007139D01*
X0089768Y0007288D01*
X0089782Y0007437D01*
X0089800Y0007585D01*
X0089822Y0007733D01*
X0089848Y0007880D01*
X0089877Y0008027D01*
X0089911Y0008172D01*
X0089949Y0008317D01*
X0089990Y0008460D01*
X0090035Y0008603D01*
X0090084Y0008744D01*
X0090137Y0008884D01*
X0090194Y0009022D01*
X0090254Y0009159D01*
X0090318Y0009294D01*
X0090385Y0009428D01*
X0090456Y0009559D01*
X0090530Y0009689D01*
X0090608Y0009816D01*
X0090689Y0009942D01*
X0090774Y0010065D01*
X0090862Y0010186D01*
X0090953Y0010304D01*
X0091047Y0010420D01*
X0091144Y0010534D01*
X0091245Y0010645D01*
X0091348Y0010753D01*
X0091454Y0010858D01*
X0091563Y0010961D01*
X0091674Y0011060D01*
X0091788Y0011157D01*
X0091905Y0011250D01*
X0092024Y0011340D01*
X0092146Y0011427D01*
X0092269Y0011511D01*
X0092395Y0011592D01*
X0092523Y0011669D01*
X0092654Y0011742D01*
X0092786Y0011812D01*
X0092919Y0011879D01*
X0093055Y0011942D01*
X0093192Y0012001D01*
X0093331Y0012056D01*
X0093471Y0012108D01*
X0093613Y0012156D01*
X0093755Y0012201D01*
X0093899Y0012241D01*
X0094044Y0012278D01*
X0094190Y0012310D01*
X0094337Y0012339D01*
X0094484Y0012364D01*
X0094632Y0012385D01*
X0094780Y0012402D01*
X0094929Y0012415D01*
X0095079Y0012424D01*
X0095228Y0012429D01*
X0095377Y0012430D01*
X0095527Y0012427D01*
X0095676Y0012420D01*
X0095825Y0012409D01*
X0095974Y0012394D01*
X0096122Y0012375D01*
X0096270Y0012352D01*
X0096417Y0012325D01*
X0096563Y0012295D01*
X0096708Y0012260D01*
X0096853Y0012221D01*
X0096996Y0012179D01*
X0097138Y0012133D01*
X0097279Y0012083D01*
X0097419Y0012029D01*
X0097557Y0011972D01*
X0097693Y0011911D01*
X0097828Y0011846D01*
X0097961Y0011778D01*
X0098092Y0011706D01*
X0098221Y0011630D01*
X0098348Y0011552D01*
X0098473Y0011470D01*
X0098595Y0011384D01*
X0098716Y0011296D01*
X0098834Y0011204D01*
X0098949Y0011109D01*
X0099062Y0011011D01*
X0099172Y0010910D01*
X0099279Y0010806D01*
X0099384Y0010699D01*
X0099486Y0010590D01*
X0099585Y0010478D01*
X0099680Y0010363D01*
X0099773Y0010245D01*
X0099862Y0010126D01*
X0099949Y0010004D01*
X0100032Y0009879D01*
X0100111Y0009753D01*
X0100187Y0009624D01*
X0100260Y0009494D01*
X0100329Y0009361D01*
X0100395Y0009227D01*
X0100457Y0009091D01*
X0100515Y0008953D01*
X0100570Y0008814D01*
X0100621Y0008674D01*
X0100668Y0008532D01*
X0100711Y0008389D01*
X0100751Y0008245D01*
X0100786Y0008099D01*
X0100818Y0007953D01*
X0100846Y0007807D01*
X0100870Y0007659D01*
X0100890Y0007511D01*
X0100906Y0007362D01*
X0100918Y0007213D01*
X0100926Y0007064D01*
X0100930Y0006915D01*
X0100930Y0006765D01*
X0100926Y0006616D01*
X0100918Y0006467D01*
X0100906Y0006318D01*
X0100890Y0006169D01*
X0100870Y0006021D01*
X0100846Y0005873D01*
X0100818Y0005727D01*
X0100786Y0005581D01*
X0100751Y0005435D01*
X0100711Y0005291D01*
X0100668Y0005148D01*
X0100621Y0005006D01*
X0100570Y0004866D01*
X0100515Y0004727D01*
X0100457Y0004589D01*
X0100395Y0004453D01*
X0100329Y0004319D01*
X0100260Y0004186D01*
X0100187Y0004056D01*
X0100111Y0003927D01*
X0100032Y0003801D01*
X0099949Y0003676D01*
X0099862Y0003554D01*
X0099773Y0003435D01*
X0099680Y0003317D01*
X0099585Y0003202D01*
X0099486Y0003090D01*
X0099384Y0002981D01*
X0099279Y0002874D01*
X0099172Y0002770D01*
X0099062Y0002669D01*
X0098949Y0002571D01*
X0098834Y0002476D01*
X0098716Y0002384D01*
X0098595Y0002296D01*
X0098473Y0002210D01*
X0098348Y0002128D01*
X0098221Y0002050D01*
X0098092Y0001974D01*
X0097961Y0001902D01*
X0097828Y0001834D01*
X0097693Y0001769D01*
X0097557Y0001708D01*
X0097419Y0001651D01*
X0097279Y0001597D01*
X0097138Y0001547D01*
X0096996Y0001501D01*
X0096853Y0001459D01*
X0096708Y0001420D01*
X0096563Y0001385D01*
X0096417Y0001355D01*
X0096270Y0001328D01*
X0096122Y0001305D01*
X0095974Y0001286D01*
X0095825Y0001271D01*
X0095676Y0001260D01*
X0095527Y0001253D01*
X0095377Y0001250D01*
X0095228Y0001251D01*
X0095079Y0001256D01*
X0094929Y0001265D01*
X0094780Y0001278D01*
X0094632Y0001295D01*
X0094484Y0001316D01*
X0094337Y0001341D01*
X0094190Y0001370D01*
X0094044Y0001402D01*
X0093899Y0001439D01*
X0093755Y0001479D01*
X0093613Y0001524D01*
X0093471Y0001572D01*
X0093331Y0001624D01*
X0093192Y0001679D01*
X0093055Y0001738D01*
X0092919Y0001801D01*
X0092786Y0001868D01*
X0092654Y0001938D01*
X0092523Y0002011D01*
X0092395Y0002088D01*
X0092269Y0002169D01*
X0092146Y0002253D01*
X0092024Y0002340D01*
X0091905Y0002430D01*
X0091788Y0002523D01*
X0091674Y0002620D01*
X0091563Y0002719D01*
X0091454Y0002822D01*
X0091348Y0002927D01*
X0091245Y0003035D01*
X0091144Y0003146D01*
X0091047Y0003260D01*
X0090953Y0003376D01*
X0090862Y0003494D01*
X0090774Y0003615D01*
X0090689Y0003738D01*
X0090608Y0003864D01*
X0090530Y0003991D01*
X0090456Y0004121D01*
X0090385Y0004252D01*
X0090318Y0004386D01*
X0090254Y0004521D01*
X0090194Y0004658D01*
X0090137Y0004796D01*
X0090084Y0004936D01*
X0090035Y0005077D01*
X0089990Y0005220D01*
X0089949Y0005363D01*
X0089911Y0005508D01*
X0089877Y0005653D01*
X0089848Y0005800D01*
X0089822Y0005947D01*
X0089800Y0006095D01*
X0089782Y0006243D01*
X0089768Y0006392D01*
X0089758Y0006541D01*
X0089752Y0006691D01*
X0089750Y0006840D01*
X0086840Y0011840D02*
X0081840Y0006840D01*
X0076840Y0011840D01*
X0081840Y0016840D01*
X0081840Y0026840D01*
X0086840Y0026840D01*
X0086840Y0011840D01*
X0073750Y0006840D02*
X0073752Y0006989D01*
X0073758Y0007139D01*
X0073768Y0007288D01*
X0073782Y0007437D01*
X0073800Y0007585D01*
X0073822Y0007733D01*
X0073848Y0007880D01*
X0073877Y0008027D01*
X0073911Y0008172D01*
X0073949Y0008317D01*
X0073990Y0008460D01*
X0074035Y0008603D01*
X0074084Y0008744D01*
X0074137Y0008884D01*
X0074194Y0009022D01*
X0074254Y0009159D01*
X0074318Y0009294D01*
X0074385Y0009428D01*
X0074456Y0009559D01*
X0074530Y0009689D01*
X0074608Y0009816D01*
X0074689Y0009942D01*
X0074774Y0010065D01*
X0074862Y0010186D01*
X0074953Y0010304D01*
X0075047Y0010420D01*
X0075144Y0010534D01*
X0075245Y0010645D01*
X0075348Y0010753D01*
X0075454Y0010858D01*
X0075563Y0010961D01*
X0075674Y0011060D01*
X0075788Y0011157D01*
X0075905Y0011250D01*
X0076024Y0011340D01*
X0076146Y0011427D01*
X0076269Y0011511D01*
X0076395Y0011592D01*
X0076523Y0011669D01*
X0076654Y0011742D01*
X0076786Y0011812D01*
X0076919Y0011879D01*
X0077055Y0011942D01*
X0077192Y0012001D01*
X0077331Y0012056D01*
X0077471Y0012108D01*
X0077613Y0012156D01*
X0077755Y0012201D01*
X0077899Y0012241D01*
X0078044Y0012278D01*
X0078190Y0012310D01*
X0078337Y0012339D01*
X0078484Y0012364D01*
X0078632Y0012385D01*
X0078780Y0012402D01*
X0078929Y0012415D01*
X0079079Y0012424D01*
X0079228Y0012429D01*
X0079377Y0012430D01*
X0079527Y0012427D01*
X0079676Y0012420D01*
X0079825Y0012409D01*
X0079974Y0012394D01*
X0080122Y0012375D01*
X0080270Y0012352D01*
X0080417Y0012325D01*
X0080563Y0012295D01*
X0080708Y0012260D01*
X0080853Y0012221D01*
X0080996Y0012179D01*
X0081138Y0012133D01*
X0081279Y0012083D01*
X0081419Y0012029D01*
X0081557Y0011972D01*
X0081693Y0011911D01*
X0081828Y0011846D01*
X0081961Y0011778D01*
X0082092Y0011706D01*
X0082221Y0011630D01*
X0082348Y0011552D01*
X0082473Y0011470D01*
X0082595Y0011384D01*
X0082716Y0011296D01*
X0082834Y0011204D01*
X0082949Y0011109D01*
X0083062Y0011011D01*
X0083172Y0010910D01*
X0083279Y0010806D01*
X0083384Y0010699D01*
X0083486Y0010590D01*
X0083585Y0010478D01*
X0083680Y0010363D01*
X0083773Y0010245D01*
X0083862Y0010126D01*
X0083949Y0010004D01*
X0084032Y0009879D01*
X0084111Y0009753D01*
X0084187Y0009624D01*
X0084260Y0009494D01*
X0084329Y0009361D01*
X0084395Y0009227D01*
X0084457Y0009091D01*
X0084515Y0008953D01*
X0084570Y0008814D01*
X0084621Y0008674D01*
X0084668Y0008532D01*
X0084711Y0008389D01*
X0084751Y0008245D01*
X0084786Y0008099D01*
X0084818Y0007953D01*
X0084846Y0007807D01*
X0084870Y0007659D01*
X0084890Y0007511D01*
X0084906Y0007362D01*
X0084918Y0007213D01*
X0084926Y0007064D01*
X0084930Y0006915D01*
X0084930Y0006765D01*
X0084926Y0006616D01*
X0084918Y0006467D01*
X0084906Y0006318D01*
X0084890Y0006169D01*
X0084870Y0006021D01*
X0084846Y0005873D01*
X0084818Y0005727D01*
X0084786Y0005581D01*
X0084751Y0005435D01*
X0084711Y0005291D01*
X0084668Y0005148D01*
X0084621Y0005006D01*
X0084570Y0004866D01*
X0084515Y0004727D01*
X0084457Y0004589D01*
X0084395Y0004453D01*
X0084329Y0004319D01*
X0084260Y0004186D01*
X0084187Y0004056D01*
X0084111Y0003927D01*
X0084032Y0003801D01*
X0083949Y0003676D01*
X0083862Y0003554D01*
X0083773Y0003435D01*
X0083680Y0003317D01*
X0083585Y0003202D01*
X0083486Y0003090D01*
X0083384Y0002981D01*
X0083279Y0002874D01*
X0083172Y0002770D01*
X0083062Y0002669D01*
X0082949Y0002571D01*
X0082834Y0002476D01*
X0082716Y0002384D01*
X0082595Y0002296D01*
X0082473Y0002210D01*
X0082348Y0002128D01*
X0082221Y0002050D01*
X0082092Y0001974D01*
X0081961Y0001902D01*
X0081828Y0001834D01*
X0081693Y0001769D01*
X0081557Y0001708D01*
X0081419Y0001651D01*
X0081279Y0001597D01*
X0081138Y0001547D01*
X0080996Y0001501D01*
X0080853Y0001459D01*
X0080708Y0001420D01*
X0080563Y0001385D01*
X0080417Y0001355D01*
X0080270Y0001328D01*
X0080122Y0001305D01*
X0079974Y0001286D01*
X0079825Y0001271D01*
X0079676Y0001260D01*
X0079527Y0001253D01*
X0079377Y0001250D01*
X0079228Y0001251D01*
X0079079Y0001256D01*
X0078929Y0001265D01*
X0078780Y0001278D01*
X0078632Y0001295D01*
X0078484Y0001316D01*
X0078337Y0001341D01*
X0078190Y0001370D01*
X0078044Y0001402D01*
X0077899Y0001439D01*
X0077755Y0001479D01*
X0077613Y0001524D01*
X0077471Y0001572D01*
X0077331Y0001624D01*
X0077192Y0001679D01*
X0077055Y0001738D01*
X0076919Y0001801D01*
X0076786Y0001868D01*
X0076654Y0001938D01*
X0076523Y0002011D01*
X0076395Y0002088D01*
X0076269Y0002169D01*
X0076146Y0002253D01*
X0076024Y0002340D01*
X0075905Y0002430D01*
X0075788Y0002523D01*
X0075674Y0002620D01*
X0075563Y0002719D01*
X0075454Y0002822D01*
X0075348Y0002927D01*
X0075245Y0003035D01*
X0075144Y0003146D01*
X0075047Y0003260D01*
X0074953Y0003376D01*
X0074862Y0003494D01*
X0074774Y0003615D01*
X0074689Y0003738D01*
X0074608Y0003864D01*
X0074530Y0003991D01*
X0074456Y0004121D01*
X0074385Y0004252D01*
X0074318Y0004386D01*
X0074254Y0004521D01*
X0074194Y0004658D01*
X0074137Y0004796D01*
X0074084Y0004936D01*
X0074035Y0005077D01*
X0073990Y0005220D01*
X0073949Y0005363D01*
X0073911Y0005508D01*
X0073877Y0005653D01*
X0073848Y0005800D01*
X0073822Y0005947D01*
X0073800Y0006095D01*
X0073782Y0006243D01*
X0073768Y0006392D01*
X0073758Y0006541D01*
X0073752Y0006691D01*
X0073750Y0006840D01*
X0081840Y0026840D02*
X0038911Y0026840D01*
X0038619Y0026844D01*
X0038328Y0026854D01*
X0038037Y0026872D01*
X0037746Y0026896D01*
X0037456Y0026928D01*
X0037167Y0026967D01*
X0036879Y0027012D01*
X0036592Y0027065D01*
X0036306Y0027124D01*
X0036022Y0027191D01*
X0035740Y0027264D01*
X0035459Y0027344D01*
X0035181Y0027431D01*
X0034905Y0027524D01*
X0034631Y0027624D01*
X0034359Y0027731D01*
X0034090Y0027844D01*
X0033824Y0027964D01*
X0033561Y0028090D01*
X0033301Y0028223D01*
X0033045Y0028361D01*
X0032791Y0028506D01*
X0032542Y0028657D01*
X0032296Y0028814D01*
X0032054Y0028977D01*
X0031816Y0029145D01*
X0031582Y0029320D01*
X0031352Y0029500D01*
X0031127Y0029685D01*
X0030906Y0029876D01*
X0030690Y0030072D01*
X0030479Y0030273D01*
X0030273Y0030479D01*
X0030072Y0030690D01*
X0029876Y0030906D01*
X0029685Y0031127D01*
X0029500Y0031352D01*
X0029320Y0031582D01*
X0029145Y0031816D01*
X0028977Y0032054D01*
X0028814Y0032296D01*
X0028657Y0032542D01*
X0028506Y0032791D01*
X0028361Y0033045D01*
X0028223Y0033301D01*
X0028090Y0033561D01*
X0027964Y0033824D01*
X0027844Y0034090D01*
X0027731Y0034359D01*
X0027624Y0034631D01*
X0027524Y0034905D01*
X0027431Y0035181D01*
X0027344Y0035459D01*
X0027264Y0035740D01*
X0027191Y0036022D01*
X0027124Y0036306D01*
X0027065Y0036592D01*
X0027012Y0036879D01*
X0026967Y0037167D01*
X0026928Y0037456D01*
X0026896Y0037746D01*
X0026872Y0038037D01*
X0026854Y0038328D01*
X0026844Y0038619D01*
X0026840Y0038911D01*
X0026840Y0081840D01*
X0016840Y0081840D01*
X0011840Y0076840D01*
X0006840Y0081840D01*
X0011840Y0086840D01*
X0026840Y0086840D01*
X0086840Y0086840D01*
X0086840Y0026840D01*
X0087840Y0026840D02*
X0092840Y0026840D01*
X0086840Y0087840D02*
X0086840Y0147840D01*
X0086840Y0162840D01*
X0081840Y0167840D01*
X0076840Y0162840D01*
X0081840Y0157840D01*
X0081840Y0147840D01*
X0038911Y0147840D01*
X0038619Y0147836D01*
X0038328Y0147826D01*
X0038037Y0147808D01*
X0037746Y0147784D01*
X0037456Y0147752D01*
X0037167Y0147713D01*
X0036879Y0147668D01*
X0036592Y0147615D01*
X0036306Y0147556D01*
X0036022Y0147489D01*
X0035740Y0147416D01*
X0035459Y0147336D01*
X0035181Y0147249D01*
X0034905Y0147156D01*
X0034631Y0147056D01*
X0034359Y0146949D01*
X0034090Y0146836D01*
X0033824Y0146716D01*
X0033561Y0146590D01*
X0033301Y0146457D01*
X0033045Y0146319D01*
X0032791Y0146174D01*
X0032542Y0146023D01*
X0032296Y0145866D01*
X0032054Y0145703D01*
X0031816Y0145535D01*
X0031582Y0145360D01*
X0031352Y0145180D01*
X0031127Y0144995D01*
X0030906Y0144804D01*
X0030690Y0144608D01*
X0030479Y0144407D01*
X0030273Y0144201D01*
X0030072Y0143990D01*
X0029876Y0143774D01*
X0029685Y0143553D01*
X0029500Y0143328D01*
X0029320Y0143098D01*
X0029145Y0142864D01*
X0028977Y0142626D01*
X0028814Y0142384D01*
X0028657Y0142138D01*
X0028506Y0141889D01*
X0028361Y0141635D01*
X0028223Y0141379D01*
X0028090Y0141119D01*
X0027964Y0140856D01*
X0027844Y0140590D01*
X0027731Y0140321D01*
X0027624Y0140049D01*
X0027524Y0139775D01*
X0027431Y0139499D01*
X0027344Y0139221D01*
X0027264Y0138940D01*
X0027191Y0138658D01*
X0027124Y0138374D01*
X0027065Y0138088D01*
X0027012Y0137801D01*
X0026967Y0137513D01*
X0026928Y0137224D01*
X0026896Y0136934D01*
X0026872Y0136643D01*
X0026854Y0136352D01*
X0026844Y0136061D01*
X0026840Y0135769D01*
X0026840Y0092840D01*
X0016840Y0092840D01*
X0011840Y0097840D01*
X0006840Y0092840D01*
X0011840Y0087840D01*
X0026840Y0087840D01*
X0086840Y0087840D01*
X0026840Y0087840D02*
X0026840Y0092840D01*
X0026840Y0086840D02*
X0026840Y0081840D01*
X0001250Y0079340D02*
X0001252Y0079489D01*
X0001258Y0079639D01*
X0001268Y0079788D01*
X0001282Y0079937D01*
X0001300Y0080085D01*
X0001322Y0080233D01*
X0001348Y0080380D01*
X0001377Y0080527D01*
X0001411Y0080672D01*
X0001449Y0080817D01*
X0001490Y0080960D01*
X0001535Y0081103D01*
X0001584Y0081244D01*
X0001637Y0081384D01*
X0001694Y0081522D01*
X0001754Y0081659D01*
X0001818Y0081794D01*
X0001885Y0081928D01*
X0001956Y0082059D01*
X0002030Y0082189D01*
X0002108Y0082316D01*
X0002189Y0082442D01*
X0002274Y0082565D01*
X0002362Y0082686D01*
X0002453Y0082804D01*
X0002547Y0082920D01*
X0002644Y0083034D01*
X0002745Y0083145D01*
X0002848Y0083253D01*
X0002954Y0083358D01*
X0003063Y0083461D01*
X0003174Y0083560D01*
X0003288Y0083657D01*
X0003405Y0083750D01*
X0003524Y0083840D01*
X0003646Y0083927D01*
X0003769Y0084011D01*
X0003895Y0084092D01*
X0004023Y0084169D01*
X0004154Y0084242D01*
X0004286Y0084312D01*
X0004419Y0084379D01*
X0004555Y0084442D01*
X0004692Y0084501D01*
X0004831Y0084556D01*
X0004971Y0084608D01*
X0005113Y0084656D01*
X0005255Y0084701D01*
X0005399Y0084741D01*
X0005544Y0084778D01*
X0005690Y0084810D01*
X0005837Y0084839D01*
X0005984Y0084864D01*
X0006132Y0084885D01*
X0006280Y0084902D01*
X0006429Y0084915D01*
X0006579Y0084924D01*
X0006728Y0084929D01*
X0006877Y0084930D01*
X0007027Y0084927D01*
X0007176Y0084920D01*
X0007325Y0084909D01*
X0007474Y0084894D01*
X0007622Y0084875D01*
X0007770Y0084852D01*
X0007917Y0084825D01*
X0008063Y0084795D01*
X0008208Y0084760D01*
X0008353Y0084721D01*
X0008496Y0084679D01*
X0008638Y0084633D01*
X0008779Y0084583D01*
X0008919Y0084529D01*
X0009057Y0084472D01*
X0009193Y0084411D01*
X0009328Y0084346D01*
X0009461Y0084278D01*
X0009592Y0084206D01*
X0009721Y0084130D01*
X0009848Y0084052D01*
X0009973Y0083970D01*
X0010095Y0083884D01*
X0010216Y0083796D01*
X0010334Y0083704D01*
X0010449Y0083609D01*
X0010562Y0083511D01*
X0010672Y0083410D01*
X0010779Y0083306D01*
X0010884Y0083199D01*
X0010986Y0083090D01*
X0011085Y0082978D01*
X0011180Y0082863D01*
X0011273Y0082745D01*
X0011362Y0082626D01*
X0011449Y0082504D01*
X0011532Y0082379D01*
X0011611Y0082253D01*
X0011687Y0082124D01*
X0011760Y0081994D01*
X0011829Y0081861D01*
X0011895Y0081727D01*
X0011957Y0081591D01*
X0012015Y0081453D01*
X0012070Y0081314D01*
X0012121Y0081174D01*
X0012168Y0081032D01*
X0012211Y0080889D01*
X0012251Y0080745D01*
X0012286Y0080599D01*
X0012318Y0080453D01*
X0012346Y0080307D01*
X0012370Y0080159D01*
X0012390Y0080011D01*
X0012406Y0079862D01*
X0012418Y0079713D01*
X0012426Y0079564D01*
X0012430Y0079415D01*
X0012430Y0079265D01*
X0012426Y0079116D01*
X0012418Y0078967D01*
X0012406Y0078818D01*
X0012390Y0078669D01*
X0012370Y0078521D01*
X0012346Y0078373D01*
X0012318Y0078227D01*
X0012286Y0078081D01*
X0012251Y0077935D01*
X0012211Y0077791D01*
X0012168Y0077648D01*
X0012121Y0077506D01*
X0012070Y0077366D01*
X0012015Y0077227D01*
X0011957Y0077089D01*
X0011895Y0076953D01*
X0011829Y0076819D01*
X0011760Y0076686D01*
X0011687Y0076556D01*
X0011611Y0076427D01*
X0011532Y0076301D01*
X0011449Y0076176D01*
X0011362Y0076054D01*
X0011273Y0075935D01*
X0011180Y0075817D01*
X0011085Y0075702D01*
X0010986Y0075590D01*
X0010884Y0075481D01*
X0010779Y0075374D01*
X0010672Y0075270D01*
X0010562Y0075169D01*
X0010449Y0075071D01*
X0010334Y0074976D01*
X0010216Y0074884D01*
X0010095Y0074796D01*
X0009973Y0074710D01*
X0009848Y0074628D01*
X0009721Y0074550D01*
X0009592Y0074474D01*
X0009461Y0074402D01*
X0009328Y0074334D01*
X0009193Y0074269D01*
X0009057Y0074208D01*
X0008919Y0074151D01*
X0008779Y0074097D01*
X0008638Y0074047D01*
X0008496Y0074001D01*
X0008353Y0073959D01*
X0008208Y0073920D01*
X0008063Y0073885D01*
X0007917Y0073855D01*
X0007770Y0073828D01*
X0007622Y0073805D01*
X0007474Y0073786D01*
X0007325Y0073771D01*
X0007176Y0073760D01*
X0007027Y0073753D01*
X0006877Y0073750D01*
X0006728Y0073751D01*
X0006579Y0073756D01*
X0006429Y0073765D01*
X0006280Y0073778D01*
X0006132Y0073795D01*
X0005984Y0073816D01*
X0005837Y0073841D01*
X0005690Y0073870D01*
X0005544Y0073902D01*
X0005399Y0073939D01*
X0005255Y0073979D01*
X0005113Y0074024D01*
X0004971Y0074072D01*
X0004831Y0074124D01*
X0004692Y0074179D01*
X0004555Y0074238D01*
X0004419Y0074301D01*
X0004286Y0074368D01*
X0004154Y0074438D01*
X0004023Y0074511D01*
X0003895Y0074588D01*
X0003769Y0074669D01*
X0003646Y0074753D01*
X0003524Y0074840D01*
X0003405Y0074930D01*
X0003288Y0075023D01*
X0003174Y0075120D01*
X0003063Y0075219D01*
X0002954Y0075322D01*
X0002848Y0075427D01*
X0002745Y0075535D01*
X0002644Y0075646D01*
X0002547Y0075760D01*
X0002453Y0075876D01*
X0002362Y0075994D01*
X0002274Y0076115D01*
X0002189Y0076238D01*
X0002108Y0076364D01*
X0002030Y0076491D01*
X0001956Y0076621D01*
X0001885Y0076752D01*
X0001818Y0076886D01*
X0001754Y0077021D01*
X0001694Y0077158D01*
X0001637Y0077296D01*
X0001584Y0077436D01*
X0001535Y0077577D01*
X0001490Y0077720D01*
X0001449Y0077863D01*
X0001411Y0078008D01*
X0001377Y0078153D01*
X0001348Y0078300D01*
X0001322Y0078447D01*
X0001300Y0078595D01*
X0001282Y0078743D01*
X0001268Y0078892D01*
X0001258Y0079041D01*
X0001252Y0079191D01*
X0001250Y0079340D01*
X0001250Y0095340D02*
X0001252Y0095489D01*
X0001258Y0095639D01*
X0001268Y0095788D01*
X0001282Y0095937D01*
X0001300Y0096085D01*
X0001322Y0096233D01*
X0001348Y0096380D01*
X0001377Y0096527D01*
X0001411Y0096672D01*
X0001449Y0096817D01*
X0001490Y0096960D01*
X0001535Y0097103D01*
X0001584Y0097244D01*
X0001637Y0097384D01*
X0001694Y0097522D01*
X0001754Y0097659D01*
X0001818Y0097794D01*
X0001885Y0097928D01*
X0001956Y0098059D01*
X0002030Y0098189D01*
X0002108Y0098316D01*
X0002189Y0098442D01*
X0002274Y0098565D01*
X0002362Y0098686D01*
X0002453Y0098804D01*
X0002547Y0098920D01*
X0002644Y0099034D01*
X0002745Y0099145D01*
X0002848Y0099253D01*
X0002954Y0099358D01*
X0003063Y0099461D01*
X0003174Y0099560D01*
X0003288Y0099657D01*
X0003405Y0099750D01*
X0003524Y0099840D01*
X0003646Y0099927D01*
X0003769Y0100011D01*
X0003895Y0100092D01*
X0004023Y0100169D01*
X0004154Y0100242D01*
X0004286Y0100312D01*
X0004419Y0100379D01*
X0004555Y0100442D01*
X0004692Y0100501D01*
X0004831Y0100556D01*
X0004971Y0100608D01*
X0005113Y0100656D01*
X0005255Y0100701D01*
X0005399Y0100741D01*
X0005544Y0100778D01*
X0005690Y0100810D01*
X0005837Y0100839D01*
X0005984Y0100864D01*
X0006132Y0100885D01*
X0006280Y0100902D01*
X0006429Y0100915D01*
X0006579Y0100924D01*
X0006728Y0100929D01*
X0006877Y0100930D01*
X0007027Y0100927D01*
X0007176Y0100920D01*
X0007325Y0100909D01*
X0007474Y0100894D01*
X0007622Y0100875D01*
X0007770Y0100852D01*
X0007917Y0100825D01*
X0008063Y0100795D01*
X0008208Y0100760D01*
X0008353Y0100721D01*
X0008496Y0100679D01*
X0008638Y0100633D01*
X0008779Y0100583D01*
X0008919Y0100529D01*
X0009057Y0100472D01*
X0009193Y0100411D01*
X0009328Y0100346D01*
X0009461Y0100278D01*
X0009592Y0100206D01*
X0009721Y0100130D01*
X0009848Y0100052D01*
X0009973Y0099970D01*
X0010095Y0099884D01*
X0010216Y0099796D01*
X0010334Y0099704D01*
X0010449Y0099609D01*
X0010562Y0099511D01*
X0010672Y0099410D01*
X0010779Y0099306D01*
X0010884Y0099199D01*
X0010986Y0099090D01*
X0011085Y0098978D01*
X0011180Y0098863D01*
X0011273Y0098745D01*
X0011362Y0098626D01*
X0011449Y0098504D01*
X0011532Y0098379D01*
X0011611Y0098253D01*
X0011687Y0098124D01*
X0011760Y0097994D01*
X0011829Y0097861D01*
X0011895Y0097727D01*
X0011957Y0097591D01*
X0012015Y0097453D01*
X0012070Y0097314D01*
X0012121Y0097174D01*
X0012168Y0097032D01*
X0012211Y0096889D01*
X0012251Y0096745D01*
X0012286Y0096599D01*
X0012318Y0096453D01*
X0012346Y0096307D01*
X0012370Y0096159D01*
X0012390Y0096011D01*
X0012406Y0095862D01*
X0012418Y0095713D01*
X0012426Y0095564D01*
X0012430Y0095415D01*
X0012430Y0095265D01*
X0012426Y0095116D01*
X0012418Y0094967D01*
X0012406Y0094818D01*
X0012390Y0094669D01*
X0012370Y0094521D01*
X0012346Y0094373D01*
X0012318Y0094227D01*
X0012286Y0094081D01*
X0012251Y0093935D01*
X0012211Y0093791D01*
X0012168Y0093648D01*
X0012121Y0093506D01*
X0012070Y0093366D01*
X0012015Y0093227D01*
X0011957Y0093089D01*
X0011895Y0092953D01*
X0011829Y0092819D01*
X0011760Y0092686D01*
X0011687Y0092556D01*
X0011611Y0092427D01*
X0011532Y0092301D01*
X0011449Y0092176D01*
X0011362Y0092054D01*
X0011273Y0091935D01*
X0011180Y0091817D01*
X0011085Y0091702D01*
X0010986Y0091590D01*
X0010884Y0091481D01*
X0010779Y0091374D01*
X0010672Y0091270D01*
X0010562Y0091169D01*
X0010449Y0091071D01*
X0010334Y0090976D01*
X0010216Y0090884D01*
X0010095Y0090796D01*
X0009973Y0090710D01*
X0009848Y0090628D01*
X0009721Y0090550D01*
X0009592Y0090474D01*
X0009461Y0090402D01*
X0009328Y0090334D01*
X0009193Y0090269D01*
X0009057Y0090208D01*
X0008919Y0090151D01*
X0008779Y0090097D01*
X0008638Y0090047D01*
X0008496Y0090001D01*
X0008353Y0089959D01*
X0008208Y0089920D01*
X0008063Y0089885D01*
X0007917Y0089855D01*
X0007770Y0089828D01*
X0007622Y0089805D01*
X0007474Y0089786D01*
X0007325Y0089771D01*
X0007176Y0089760D01*
X0007027Y0089753D01*
X0006877Y0089750D01*
X0006728Y0089751D01*
X0006579Y0089756D01*
X0006429Y0089765D01*
X0006280Y0089778D01*
X0006132Y0089795D01*
X0005984Y0089816D01*
X0005837Y0089841D01*
X0005690Y0089870D01*
X0005544Y0089902D01*
X0005399Y0089939D01*
X0005255Y0089979D01*
X0005113Y0090024D01*
X0004971Y0090072D01*
X0004831Y0090124D01*
X0004692Y0090179D01*
X0004555Y0090238D01*
X0004419Y0090301D01*
X0004286Y0090368D01*
X0004154Y0090438D01*
X0004023Y0090511D01*
X0003895Y0090588D01*
X0003769Y0090669D01*
X0003646Y0090753D01*
X0003524Y0090840D01*
X0003405Y0090930D01*
X0003288Y0091023D01*
X0003174Y0091120D01*
X0003063Y0091219D01*
X0002954Y0091322D01*
X0002848Y0091427D01*
X0002745Y0091535D01*
X0002644Y0091646D01*
X0002547Y0091760D01*
X0002453Y0091876D01*
X0002362Y0091994D01*
X0002274Y0092115D01*
X0002189Y0092238D01*
X0002108Y0092364D01*
X0002030Y0092491D01*
X0001956Y0092621D01*
X0001885Y0092752D01*
X0001818Y0092886D01*
X0001754Y0093021D01*
X0001694Y0093158D01*
X0001637Y0093296D01*
X0001584Y0093436D01*
X0001535Y0093577D01*
X0001490Y0093720D01*
X0001449Y0093863D01*
X0001411Y0094008D01*
X0001377Y0094153D01*
X0001348Y0094300D01*
X0001322Y0094447D01*
X0001300Y0094595D01*
X0001282Y0094743D01*
X0001268Y0094892D01*
X0001258Y0095041D01*
X0001252Y0095191D01*
X0001250Y0095340D01*
X0073750Y0167840D02*
X0073752Y0167989D01*
X0073758Y0168139D01*
X0073768Y0168288D01*
X0073782Y0168437D01*
X0073800Y0168585D01*
X0073822Y0168733D01*
X0073848Y0168880D01*
X0073877Y0169027D01*
X0073911Y0169172D01*
X0073949Y0169317D01*
X0073990Y0169460D01*
X0074035Y0169603D01*
X0074084Y0169744D01*
X0074137Y0169884D01*
X0074194Y0170022D01*
X0074254Y0170159D01*
X0074318Y0170294D01*
X0074385Y0170428D01*
X0074456Y0170559D01*
X0074530Y0170689D01*
X0074608Y0170816D01*
X0074689Y0170942D01*
X0074774Y0171065D01*
X0074862Y0171186D01*
X0074953Y0171304D01*
X0075047Y0171420D01*
X0075144Y0171534D01*
X0075245Y0171645D01*
X0075348Y0171753D01*
X0075454Y0171858D01*
X0075563Y0171961D01*
X0075674Y0172060D01*
X0075788Y0172157D01*
X0075905Y0172250D01*
X0076024Y0172340D01*
X0076146Y0172427D01*
X0076269Y0172511D01*
X0076395Y0172592D01*
X0076523Y0172669D01*
X0076654Y0172742D01*
X0076786Y0172812D01*
X0076919Y0172879D01*
X0077055Y0172942D01*
X0077192Y0173001D01*
X0077331Y0173056D01*
X0077471Y0173108D01*
X0077613Y0173156D01*
X0077755Y0173201D01*
X0077899Y0173241D01*
X0078044Y0173278D01*
X0078190Y0173310D01*
X0078337Y0173339D01*
X0078484Y0173364D01*
X0078632Y0173385D01*
X0078780Y0173402D01*
X0078929Y0173415D01*
X0079079Y0173424D01*
X0079228Y0173429D01*
X0079377Y0173430D01*
X0079527Y0173427D01*
X0079676Y0173420D01*
X0079825Y0173409D01*
X0079974Y0173394D01*
X0080122Y0173375D01*
X0080270Y0173352D01*
X0080417Y0173325D01*
X0080563Y0173295D01*
X0080708Y0173260D01*
X0080853Y0173221D01*
X0080996Y0173179D01*
X0081138Y0173133D01*
X0081279Y0173083D01*
X0081419Y0173029D01*
X0081557Y0172972D01*
X0081693Y0172911D01*
X0081828Y0172846D01*
X0081961Y0172778D01*
X0082092Y0172706D01*
X0082221Y0172630D01*
X0082348Y0172552D01*
X0082473Y0172470D01*
X0082595Y0172384D01*
X0082716Y0172296D01*
X0082834Y0172204D01*
X0082949Y0172109D01*
X0083062Y0172011D01*
X0083172Y0171910D01*
X0083279Y0171806D01*
X0083384Y0171699D01*
X0083486Y0171590D01*
X0083585Y0171478D01*
X0083680Y0171363D01*
X0083773Y0171245D01*
X0083862Y0171126D01*
X0083949Y0171004D01*
X0084032Y0170879D01*
X0084111Y0170753D01*
X0084187Y0170624D01*
X0084260Y0170494D01*
X0084329Y0170361D01*
X0084395Y0170227D01*
X0084457Y0170091D01*
X0084515Y0169953D01*
X0084570Y0169814D01*
X0084621Y0169674D01*
X0084668Y0169532D01*
X0084711Y0169389D01*
X0084751Y0169245D01*
X0084786Y0169099D01*
X0084818Y0168953D01*
X0084846Y0168807D01*
X0084870Y0168659D01*
X0084890Y0168511D01*
X0084906Y0168362D01*
X0084918Y0168213D01*
X0084926Y0168064D01*
X0084930Y0167915D01*
X0084930Y0167765D01*
X0084926Y0167616D01*
X0084918Y0167467D01*
X0084906Y0167318D01*
X0084890Y0167169D01*
X0084870Y0167021D01*
X0084846Y0166873D01*
X0084818Y0166727D01*
X0084786Y0166581D01*
X0084751Y0166435D01*
X0084711Y0166291D01*
X0084668Y0166148D01*
X0084621Y0166006D01*
X0084570Y0165866D01*
X0084515Y0165727D01*
X0084457Y0165589D01*
X0084395Y0165453D01*
X0084329Y0165319D01*
X0084260Y0165186D01*
X0084187Y0165056D01*
X0084111Y0164927D01*
X0084032Y0164801D01*
X0083949Y0164676D01*
X0083862Y0164554D01*
X0083773Y0164435D01*
X0083680Y0164317D01*
X0083585Y0164202D01*
X0083486Y0164090D01*
X0083384Y0163981D01*
X0083279Y0163874D01*
X0083172Y0163770D01*
X0083062Y0163669D01*
X0082949Y0163571D01*
X0082834Y0163476D01*
X0082716Y0163384D01*
X0082595Y0163296D01*
X0082473Y0163210D01*
X0082348Y0163128D01*
X0082221Y0163050D01*
X0082092Y0162974D01*
X0081961Y0162902D01*
X0081828Y0162834D01*
X0081693Y0162769D01*
X0081557Y0162708D01*
X0081419Y0162651D01*
X0081279Y0162597D01*
X0081138Y0162547D01*
X0080996Y0162501D01*
X0080853Y0162459D01*
X0080708Y0162420D01*
X0080563Y0162385D01*
X0080417Y0162355D01*
X0080270Y0162328D01*
X0080122Y0162305D01*
X0079974Y0162286D01*
X0079825Y0162271D01*
X0079676Y0162260D01*
X0079527Y0162253D01*
X0079377Y0162250D01*
X0079228Y0162251D01*
X0079079Y0162256D01*
X0078929Y0162265D01*
X0078780Y0162278D01*
X0078632Y0162295D01*
X0078484Y0162316D01*
X0078337Y0162341D01*
X0078190Y0162370D01*
X0078044Y0162402D01*
X0077899Y0162439D01*
X0077755Y0162479D01*
X0077613Y0162524D01*
X0077471Y0162572D01*
X0077331Y0162624D01*
X0077192Y0162679D01*
X0077055Y0162738D01*
X0076919Y0162801D01*
X0076786Y0162868D01*
X0076654Y0162938D01*
X0076523Y0163011D01*
X0076395Y0163088D01*
X0076269Y0163169D01*
X0076146Y0163253D01*
X0076024Y0163340D01*
X0075905Y0163430D01*
X0075788Y0163523D01*
X0075674Y0163620D01*
X0075563Y0163719D01*
X0075454Y0163822D01*
X0075348Y0163927D01*
X0075245Y0164035D01*
X0075144Y0164146D01*
X0075047Y0164260D01*
X0074953Y0164376D01*
X0074862Y0164494D01*
X0074774Y0164615D01*
X0074689Y0164738D01*
X0074608Y0164864D01*
X0074530Y0164991D01*
X0074456Y0165121D01*
X0074385Y0165252D01*
X0074318Y0165386D01*
X0074254Y0165521D01*
X0074194Y0165658D01*
X0074137Y0165796D01*
X0074084Y0165936D01*
X0074035Y0166077D01*
X0073990Y0166220D01*
X0073949Y0166363D01*
X0073911Y0166508D01*
X0073877Y0166653D01*
X0073848Y0166800D01*
X0073822Y0166947D01*
X0073800Y0167095D01*
X0073782Y0167243D01*
X0073768Y0167392D01*
X0073758Y0167541D01*
X0073752Y0167691D01*
X0073750Y0167840D01*
X0081840Y0147840D02*
X0086840Y0147840D01*
X0087840Y0147840D02*
X0092840Y0147840D01*
X0089750Y0167840D02*
X0089752Y0167989D01*
X0089758Y0168139D01*
X0089768Y0168288D01*
X0089782Y0168437D01*
X0089800Y0168585D01*
X0089822Y0168733D01*
X0089848Y0168880D01*
X0089877Y0169027D01*
X0089911Y0169172D01*
X0089949Y0169317D01*
X0089990Y0169460D01*
X0090035Y0169603D01*
X0090084Y0169744D01*
X0090137Y0169884D01*
X0090194Y0170022D01*
X0090254Y0170159D01*
X0090318Y0170294D01*
X0090385Y0170428D01*
X0090456Y0170559D01*
X0090530Y0170689D01*
X0090608Y0170816D01*
X0090689Y0170942D01*
X0090774Y0171065D01*
X0090862Y0171186D01*
X0090953Y0171304D01*
X0091047Y0171420D01*
X0091144Y0171534D01*
X0091245Y0171645D01*
X0091348Y0171753D01*
X0091454Y0171858D01*
X0091563Y0171961D01*
X0091674Y0172060D01*
X0091788Y0172157D01*
X0091905Y0172250D01*
X0092024Y0172340D01*
X0092146Y0172427D01*
X0092269Y0172511D01*
X0092395Y0172592D01*
X0092523Y0172669D01*
X0092654Y0172742D01*
X0092786Y0172812D01*
X0092919Y0172879D01*
X0093055Y0172942D01*
X0093192Y0173001D01*
X0093331Y0173056D01*
X0093471Y0173108D01*
X0093613Y0173156D01*
X0093755Y0173201D01*
X0093899Y0173241D01*
X0094044Y0173278D01*
X0094190Y0173310D01*
X0094337Y0173339D01*
X0094484Y0173364D01*
X0094632Y0173385D01*
X0094780Y0173402D01*
X0094929Y0173415D01*
X0095079Y0173424D01*
X0095228Y0173429D01*
X0095377Y0173430D01*
X0095527Y0173427D01*
X0095676Y0173420D01*
X0095825Y0173409D01*
X0095974Y0173394D01*
X0096122Y0173375D01*
X0096270Y0173352D01*
X0096417Y0173325D01*
X0096563Y0173295D01*
X0096708Y0173260D01*
X0096853Y0173221D01*
X0096996Y0173179D01*
X0097138Y0173133D01*
X0097279Y0173083D01*
X0097419Y0173029D01*
X0097557Y0172972D01*
X0097693Y0172911D01*
X0097828Y0172846D01*
X0097961Y0172778D01*
X0098092Y0172706D01*
X0098221Y0172630D01*
X0098348Y0172552D01*
X0098473Y0172470D01*
X0098595Y0172384D01*
X0098716Y0172296D01*
X0098834Y0172204D01*
X0098949Y0172109D01*
X0099062Y0172011D01*
X0099172Y0171910D01*
X0099279Y0171806D01*
X0099384Y0171699D01*
X0099486Y0171590D01*
X0099585Y0171478D01*
X0099680Y0171363D01*
X0099773Y0171245D01*
X0099862Y0171126D01*
X0099949Y0171004D01*
X0100032Y0170879D01*
X0100111Y0170753D01*
X0100187Y0170624D01*
X0100260Y0170494D01*
X0100329Y0170361D01*
X0100395Y0170227D01*
X0100457Y0170091D01*
X0100515Y0169953D01*
X0100570Y0169814D01*
X0100621Y0169674D01*
X0100668Y0169532D01*
X0100711Y0169389D01*
X0100751Y0169245D01*
X0100786Y0169099D01*
X0100818Y0168953D01*
X0100846Y0168807D01*
X0100870Y0168659D01*
X0100890Y0168511D01*
X0100906Y0168362D01*
X0100918Y0168213D01*
X0100926Y0168064D01*
X0100930Y0167915D01*
X0100930Y0167765D01*
X0100926Y0167616D01*
X0100918Y0167467D01*
X0100906Y0167318D01*
X0100890Y0167169D01*
X0100870Y0167021D01*
X0100846Y0166873D01*
X0100818Y0166727D01*
X0100786Y0166581D01*
X0100751Y0166435D01*
X0100711Y0166291D01*
X0100668Y0166148D01*
X0100621Y0166006D01*
X0100570Y0165866D01*
X0100515Y0165727D01*
X0100457Y0165589D01*
X0100395Y0165453D01*
X0100329Y0165319D01*
X0100260Y0165186D01*
X0100187Y0165056D01*
X0100111Y0164927D01*
X0100032Y0164801D01*
X0099949Y0164676D01*
X0099862Y0164554D01*
X0099773Y0164435D01*
X0099680Y0164317D01*
X0099585Y0164202D01*
X0099486Y0164090D01*
X0099384Y0163981D01*
X0099279Y0163874D01*
X0099172Y0163770D01*
X0099062Y0163669D01*
X0098949Y0163571D01*
X0098834Y0163476D01*
X0098716Y0163384D01*
X0098595Y0163296D01*
X0098473Y0163210D01*
X0098348Y0163128D01*
X0098221Y0163050D01*
X0098092Y0162974D01*
X0097961Y0162902D01*
X0097828Y0162834D01*
X0097693Y0162769D01*
X0097557Y0162708D01*
X0097419Y0162651D01*
X0097279Y0162597D01*
X0097138Y0162547D01*
X0096996Y0162501D01*
X0096853Y0162459D01*
X0096708Y0162420D01*
X0096563Y0162385D01*
X0096417Y0162355D01*
X0096270Y0162328D01*
X0096122Y0162305D01*
X0095974Y0162286D01*
X0095825Y0162271D01*
X0095676Y0162260D01*
X0095527Y0162253D01*
X0095377Y0162250D01*
X0095228Y0162251D01*
X0095079Y0162256D01*
X0094929Y0162265D01*
X0094780Y0162278D01*
X0094632Y0162295D01*
X0094484Y0162316D01*
X0094337Y0162341D01*
X0094190Y0162370D01*
X0094044Y0162402D01*
X0093899Y0162439D01*
X0093755Y0162479D01*
X0093613Y0162524D01*
X0093471Y0162572D01*
X0093331Y0162624D01*
X0093192Y0162679D01*
X0093055Y0162738D01*
X0092919Y0162801D01*
X0092786Y0162868D01*
X0092654Y0162938D01*
X0092523Y0163011D01*
X0092395Y0163088D01*
X0092269Y0163169D01*
X0092146Y0163253D01*
X0092024Y0163340D01*
X0091905Y0163430D01*
X0091788Y0163523D01*
X0091674Y0163620D01*
X0091563Y0163719D01*
X0091454Y0163822D01*
X0091348Y0163927D01*
X0091245Y0164035D01*
X0091144Y0164146D01*
X0091047Y0164260D01*
X0090953Y0164376D01*
X0090862Y0164494D01*
X0090774Y0164615D01*
X0090689Y0164738D01*
X0090608Y0164864D01*
X0090530Y0164991D01*
X0090456Y0165121D01*
X0090385Y0165252D01*
X0090318Y0165386D01*
X0090254Y0165521D01*
X0090194Y0165658D01*
X0090137Y0165796D01*
X0090084Y0165936D01*
X0090035Y0166077D01*
X0089990Y0166220D01*
X0089949Y0166363D01*
X0089911Y0166508D01*
X0089877Y0166653D01*
X0089848Y0166800D01*
X0089822Y0166947D01*
X0089800Y0167095D01*
X0089782Y0167243D01*
X0089768Y0167392D01*
X0089758Y0167541D01*
X0089752Y0167691D01*
X0089750Y0167840D01*
X0162250Y0095340D02*
X0162252Y0095489D01*
X0162258Y0095639D01*
X0162268Y0095788D01*
X0162282Y0095937D01*
X0162300Y0096085D01*
X0162322Y0096233D01*
X0162348Y0096380D01*
X0162377Y0096527D01*
X0162411Y0096672D01*
X0162449Y0096817D01*
X0162490Y0096960D01*
X0162535Y0097103D01*
X0162584Y0097244D01*
X0162637Y0097384D01*
X0162694Y0097522D01*
X0162754Y0097659D01*
X0162818Y0097794D01*
X0162885Y0097928D01*
X0162956Y0098059D01*
X0163030Y0098189D01*
X0163108Y0098316D01*
X0163189Y0098442D01*
X0163274Y0098565D01*
X0163362Y0098686D01*
X0163453Y0098804D01*
X0163547Y0098920D01*
X0163644Y0099034D01*
X0163745Y0099145D01*
X0163848Y0099253D01*
X0163954Y0099358D01*
X0164063Y0099461D01*
X0164174Y0099560D01*
X0164288Y0099657D01*
X0164405Y0099750D01*
X0164524Y0099840D01*
X0164646Y0099927D01*
X0164769Y0100011D01*
X0164895Y0100092D01*
X0165023Y0100169D01*
X0165154Y0100242D01*
X0165286Y0100312D01*
X0165419Y0100379D01*
X0165555Y0100442D01*
X0165692Y0100501D01*
X0165831Y0100556D01*
X0165971Y0100608D01*
X0166113Y0100656D01*
X0166255Y0100701D01*
X0166399Y0100741D01*
X0166544Y0100778D01*
X0166690Y0100810D01*
X0166837Y0100839D01*
X0166984Y0100864D01*
X0167132Y0100885D01*
X0167280Y0100902D01*
X0167429Y0100915D01*
X0167579Y0100924D01*
X0167728Y0100929D01*
X0167877Y0100930D01*
X0168027Y0100927D01*
X0168176Y0100920D01*
X0168325Y0100909D01*
X0168474Y0100894D01*
X0168622Y0100875D01*
X0168770Y0100852D01*
X0168917Y0100825D01*
X0169063Y0100795D01*
X0169208Y0100760D01*
X0169353Y0100721D01*
X0169496Y0100679D01*
X0169638Y0100633D01*
X0169779Y0100583D01*
X0169919Y0100529D01*
X0170057Y0100472D01*
X0170193Y0100411D01*
X0170328Y0100346D01*
X0170461Y0100278D01*
X0170592Y0100206D01*
X0170721Y0100130D01*
X0170848Y0100052D01*
X0170973Y0099970D01*
X0171095Y0099884D01*
X0171216Y0099796D01*
X0171334Y0099704D01*
X0171449Y0099609D01*
X0171562Y0099511D01*
X0171672Y0099410D01*
X0171779Y0099306D01*
X0171884Y0099199D01*
X0171986Y0099090D01*
X0172085Y0098978D01*
X0172180Y0098863D01*
X0172273Y0098745D01*
X0172362Y0098626D01*
X0172449Y0098504D01*
X0172532Y0098379D01*
X0172611Y0098253D01*
X0172687Y0098124D01*
X0172760Y0097994D01*
X0172829Y0097861D01*
X0172895Y0097727D01*
X0172957Y0097591D01*
X0173015Y0097453D01*
X0173070Y0097314D01*
X0173121Y0097174D01*
X0173168Y0097032D01*
X0173211Y0096889D01*
X0173251Y0096745D01*
X0173286Y0096599D01*
X0173318Y0096453D01*
X0173346Y0096307D01*
X0173370Y0096159D01*
X0173390Y0096011D01*
X0173406Y0095862D01*
X0173418Y0095713D01*
X0173426Y0095564D01*
X0173430Y0095415D01*
X0173430Y0095265D01*
X0173426Y0095116D01*
X0173418Y0094967D01*
X0173406Y0094818D01*
X0173390Y0094669D01*
X0173370Y0094521D01*
X0173346Y0094373D01*
X0173318Y0094227D01*
X0173286Y0094081D01*
X0173251Y0093935D01*
X0173211Y0093791D01*
X0173168Y0093648D01*
X0173121Y0093506D01*
X0173070Y0093366D01*
X0173015Y0093227D01*
X0172957Y0093089D01*
X0172895Y0092953D01*
X0172829Y0092819D01*
X0172760Y0092686D01*
X0172687Y0092556D01*
X0172611Y0092427D01*
X0172532Y0092301D01*
X0172449Y0092176D01*
X0172362Y0092054D01*
X0172273Y0091935D01*
X0172180Y0091817D01*
X0172085Y0091702D01*
X0171986Y0091590D01*
X0171884Y0091481D01*
X0171779Y0091374D01*
X0171672Y0091270D01*
X0171562Y0091169D01*
X0171449Y0091071D01*
X0171334Y0090976D01*
X0171216Y0090884D01*
X0171095Y0090796D01*
X0170973Y0090710D01*
X0170848Y0090628D01*
X0170721Y0090550D01*
X0170592Y0090474D01*
X0170461Y0090402D01*
X0170328Y0090334D01*
X0170193Y0090269D01*
X0170057Y0090208D01*
X0169919Y0090151D01*
X0169779Y0090097D01*
X0169638Y0090047D01*
X0169496Y0090001D01*
X0169353Y0089959D01*
X0169208Y0089920D01*
X0169063Y0089885D01*
X0168917Y0089855D01*
X0168770Y0089828D01*
X0168622Y0089805D01*
X0168474Y0089786D01*
X0168325Y0089771D01*
X0168176Y0089760D01*
X0168027Y0089753D01*
X0167877Y0089750D01*
X0167728Y0089751D01*
X0167579Y0089756D01*
X0167429Y0089765D01*
X0167280Y0089778D01*
X0167132Y0089795D01*
X0166984Y0089816D01*
X0166837Y0089841D01*
X0166690Y0089870D01*
X0166544Y0089902D01*
X0166399Y0089939D01*
X0166255Y0089979D01*
X0166113Y0090024D01*
X0165971Y0090072D01*
X0165831Y0090124D01*
X0165692Y0090179D01*
X0165555Y0090238D01*
X0165419Y0090301D01*
X0165286Y0090368D01*
X0165154Y0090438D01*
X0165023Y0090511D01*
X0164895Y0090588D01*
X0164769Y0090669D01*
X0164646Y0090753D01*
X0164524Y0090840D01*
X0164405Y0090930D01*
X0164288Y0091023D01*
X0164174Y0091120D01*
X0164063Y0091219D01*
X0163954Y0091322D01*
X0163848Y0091427D01*
X0163745Y0091535D01*
X0163644Y0091646D01*
X0163547Y0091760D01*
X0163453Y0091876D01*
X0163362Y0091994D01*
X0163274Y0092115D01*
X0163189Y0092238D01*
X0163108Y0092364D01*
X0163030Y0092491D01*
X0162956Y0092621D01*
X0162885Y0092752D01*
X0162818Y0092886D01*
X0162754Y0093021D01*
X0162694Y0093158D01*
X0162637Y0093296D01*
X0162584Y0093436D01*
X0162535Y0093577D01*
X0162490Y0093720D01*
X0162449Y0093863D01*
X0162411Y0094008D01*
X0162377Y0094153D01*
X0162348Y0094300D01*
X0162322Y0094447D01*
X0162300Y0094595D01*
X0162282Y0094743D01*
X0162268Y0094892D01*
X0162258Y0095041D01*
X0162252Y0095191D01*
X0162250Y0095340D01*
X0162250Y0079340D02*
X0162252Y0079489D01*
X0162258Y0079639D01*
X0162268Y0079788D01*
X0162282Y0079937D01*
X0162300Y0080085D01*
X0162322Y0080233D01*
X0162348Y0080380D01*
X0162377Y0080527D01*
X0162411Y0080672D01*
X0162449Y0080817D01*
X0162490Y0080960D01*
X0162535Y0081103D01*
X0162584Y0081244D01*
X0162637Y0081384D01*
X0162694Y0081522D01*
X0162754Y0081659D01*
X0162818Y0081794D01*
X0162885Y0081928D01*
X0162956Y0082059D01*
X0163030Y0082189D01*
X0163108Y0082316D01*
X0163189Y0082442D01*
X0163274Y0082565D01*
X0163362Y0082686D01*
X0163453Y0082804D01*
X0163547Y0082920D01*
X0163644Y0083034D01*
X0163745Y0083145D01*
X0163848Y0083253D01*
X0163954Y0083358D01*
X0164063Y0083461D01*
X0164174Y0083560D01*
X0164288Y0083657D01*
X0164405Y0083750D01*
X0164524Y0083840D01*
X0164646Y0083927D01*
X0164769Y0084011D01*
X0164895Y0084092D01*
X0165023Y0084169D01*
X0165154Y0084242D01*
X0165286Y0084312D01*
X0165419Y0084379D01*
X0165555Y0084442D01*
X0165692Y0084501D01*
X0165831Y0084556D01*
X0165971Y0084608D01*
X0166113Y0084656D01*
X0166255Y0084701D01*
X0166399Y0084741D01*
X0166544Y0084778D01*
X0166690Y0084810D01*
X0166837Y0084839D01*
X0166984Y0084864D01*
X0167132Y0084885D01*
X0167280Y0084902D01*
X0167429Y0084915D01*
X0167579Y0084924D01*
X0167728Y0084929D01*
X0167877Y0084930D01*
X0168027Y0084927D01*
X0168176Y0084920D01*
X0168325Y0084909D01*
X0168474Y0084894D01*
X0168622Y0084875D01*
X0168770Y0084852D01*
X0168917Y0084825D01*
X0169063Y0084795D01*
X0169208Y0084760D01*
X0169353Y0084721D01*
X0169496Y0084679D01*
X0169638Y0084633D01*
X0169779Y0084583D01*
X0169919Y0084529D01*
X0170057Y0084472D01*
X0170193Y0084411D01*
X0170328Y0084346D01*
X0170461Y0084278D01*
X0170592Y0084206D01*
X0170721Y0084130D01*
X0170848Y0084052D01*
X0170973Y0083970D01*
X0171095Y0083884D01*
X0171216Y0083796D01*
X0171334Y0083704D01*
X0171449Y0083609D01*
X0171562Y0083511D01*
X0171672Y0083410D01*
X0171779Y0083306D01*
X0171884Y0083199D01*
X0171986Y0083090D01*
X0172085Y0082978D01*
X0172180Y0082863D01*
X0172273Y0082745D01*
X0172362Y0082626D01*
X0172449Y0082504D01*
X0172532Y0082379D01*
X0172611Y0082253D01*
X0172687Y0082124D01*
X0172760Y0081994D01*
X0172829Y0081861D01*
X0172895Y0081727D01*
X0172957Y0081591D01*
X0173015Y0081453D01*
X0173070Y0081314D01*
X0173121Y0081174D01*
X0173168Y0081032D01*
X0173211Y0080889D01*
X0173251Y0080745D01*
X0173286Y0080599D01*
X0173318Y0080453D01*
X0173346Y0080307D01*
X0173370Y0080159D01*
X0173390Y0080011D01*
X0173406Y0079862D01*
X0173418Y0079713D01*
X0173426Y0079564D01*
X0173430Y0079415D01*
X0173430Y0079265D01*
X0173426Y0079116D01*
X0173418Y0078967D01*
X0173406Y0078818D01*
X0173390Y0078669D01*
X0173370Y0078521D01*
X0173346Y0078373D01*
X0173318Y0078227D01*
X0173286Y0078081D01*
X0173251Y0077935D01*
X0173211Y0077791D01*
X0173168Y0077648D01*
X0173121Y0077506D01*
X0173070Y0077366D01*
X0173015Y0077227D01*
X0172957Y0077089D01*
X0172895Y0076953D01*
X0172829Y0076819D01*
X0172760Y0076686D01*
X0172687Y0076556D01*
X0172611Y0076427D01*
X0172532Y0076301D01*
X0172449Y0076176D01*
X0172362Y0076054D01*
X0172273Y0075935D01*
X0172180Y0075817D01*
X0172085Y0075702D01*
X0171986Y0075590D01*
X0171884Y0075481D01*
X0171779Y0075374D01*
X0171672Y0075270D01*
X0171562Y0075169D01*
X0171449Y0075071D01*
X0171334Y0074976D01*
X0171216Y0074884D01*
X0171095Y0074796D01*
X0170973Y0074710D01*
X0170848Y0074628D01*
X0170721Y0074550D01*
X0170592Y0074474D01*
X0170461Y0074402D01*
X0170328Y0074334D01*
X0170193Y0074269D01*
X0170057Y0074208D01*
X0169919Y0074151D01*
X0169779Y0074097D01*
X0169638Y0074047D01*
X0169496Y0074001D01*
X0169353Y0073959D01*
X0169208Y0073920D01*
X0169063Y0073885D01*
X0168917Y0073855D01*
X0168770Y0073828D01*
X0168622Y0073805D01*
X0168474Y0073786D01*
X0168325Y0073771D01*
X0168176Y0073760D01*
X0168027Y0073753D01*
X0167877Y0073750D01*
X0167728Y0073751D01*
X0167579Y0073756D01*
X0167429Y0073765D01*
X0167280Y0073778D01*
X0167132Y0073795D01*
X0166984Y0073816D01*
X0166837Y0073841D01*
X0166690Y0073870D01*
X0166544Y0073902D01*
X0166399Y0073939D01*
X0166255Y0073979D01*
X0166113Y0074024D01*
X0165971Y0074072D01*
X0165831Y0074124D01*
X0165692Y0074179D01*
X0165555Y0074238D01*
X0165419Y0074301D01*
X0165286Y0074368D01*
X0165154Y0074438D01*
X0165023Y0074511D01*
X0164895Y0074588D01*
X0164769Y0074669D01*
X0164646Y0074753D01*
X0164524Y0074840D01*
X0164405Y0074930D01*
X0164288Y0075023D01*
X0164174Y0075120D01*
X0164063Y0075219D01*
X0163954Y0075322D01*
X0163848Y0075427D01*
X0163745Y0075535D01*
X0163644Y0075646D01*
X0163547Y0075760D01*
X0163453Y0075876D01*
X0163362Y0075994D01*
X0163274Y0076115D01*
X0163189Y0076238D01*
X0163108Y0076364D01*
X0163030Y0076491D01*
X0162956Y0076621D01*
X0162885Y0076752D01*
X0162818Y0076886D01*
X0162754Y0077021D01*
X0162694Y0077158D01*
X0162637Y0077296D01*
X0162584Y0077436D01*
X0162535Y0077577D01*
X0162490Y0077720D01*
X0162449Y0077863D01*
X0162411Y0078008D01*
X0162377Y0078153D01*
X0162348Y0078300D01*
X0162322Y0078447D01*
X0162300Y0078595D01*
X0162282Y0078743D01*
X0162268Y0078892D01*
X0162258Y0079041D01*
X0162252Y0079191D01*
X0162250Y0079340D01*
M02*
