G75*
%MOIN*%
%OFA0B0*%
%FSLAX25Y25*%
%IPPOS*%
%LPD*%
%AMOC8*
5,1,8,0,0,1.08239X$1,22.5*
%
%ADD10C,0.00000*%
%ADD11C,0.01600*%
%ADD12R,0.17000X0.13000*%
%ADD13R,0.03300X0.03300*%
%ADD14C,0.03100*%
%ADD15R,0.07283X0.01969*%
%ADD16R,0.01969X0.07283*%
%ADD17R,0.04331X0.03937*%
%ADD18R,0.04331X0.07480*%
%ADD19C,0.01000*%
%ADD20C,0.02500*%
%ADD21C,0.00600*%
D10*
X0027475Y0032412D02*
X0027477Y0032538D01*
X0027483Y0032664D01*
X0027493Y0032790D01*
X0027507Y0032916D01*
X0027525Y0033041D01*
X0027547Y0033165D01*
X0027572Y0033289D01*
X0027602Y0033412D01*
X0027635Y0033533D01*
X0027673Y0033654D01*
X0027714Y0033773D01*
X0027759Y0033892D01*
X0027807Y0034008D01*
X0027859Y0034123D01*
X0027915Y0034236D01*
X0027975Y0034348D01*
X0028038Y0034457D01*
X0028104Y0034565D01*
X0028173Y0034670D01*
X0028246Y0034773D01*
X0028323Y0034874D01*
X0028402Y0034972D01*
X0028484Y0035068D01*
X0028570Y0035161D01*
X0028658Y0035252D01*
X0028749Y0035339D01*
X0028843Y0035424D01*
X0028939Y0035505D01*
X0029038Y0035584D01*
X0029139Y0035659D01*
X0029243Y0035731D01*
X0029349Y0035800D01*
X0029457Y0035866D01*
X0029567Y0035928D01*
X0029679Y0035986D01*
X0029792Y0036041D01*
X0029908Y0036092D01*
X0030025Y0036140D01*
X0030143Y0036184D01*
X0030263Y0036224D01*
X0030384Y0036260D01*
X0030506Y0036293D01*
X0030629Y0036322D01*
X0030753Y0036346D01*
X0030877Y0036367D01*
X0031002Y0036384D01*
X0031128Y0036397D01*
X0031254Y0036406D01*
X0031380Y0036411D01*
X0031507Y0036412D01*
X0031633Y0036409D01*
X0031759Y0036402D01*
X0031885Y0036391D01*
X0032010Y0036376D01*
X0032135Y0036357D01*
X0032259Y0036334D01*
X0032383Y0036308D01*
X0032505Y0036277D01*
X0032627Y0036243D01*
X0032747Y0036204D01*
X0032866Y0036162D01*
X0032984Y0036117D01*
X0033100Y0036067D01*
X0033215Y0036014D01*
X0033327Y0035957D01*
X0033438Y0035897D01*
X0033547Y0035833D01*
X0033654Y0035766D01*
X0033759Y0035696D01*
X0033862Y0035622D01*
X0033962Y0035545D01*
X0034060Y0035465D01*
X0034155Y0035382D01*
X0034247Y0035296D01*
X0034337Y0035207D01*
X0034424Y0035115D01*
X0034507Y0035021D01*
X0034588Y0034924D01*
X0034666Y0034824D01*
X0034741Y0034722D01*
X0034812Y0034618D01*
X0034880Y0034511D01*
X0034944Y0034403D01*
X0035005Y0034292D01*
X0035063Y0034180D01*
X0035117Y0034066D01*
X0035167Y0033950D01*
X0035214Y0033833D01*
X0035257Y0033714D01*
X0035296Y0033594D01*
X0035332Y0033473D01*
X0035363Y0033350D01*
X0035391Y0033227D01*
X0035415Y0033103D01*
X0035435Y0032978D01*
X0035451Y0032853D01*
X0035463Y0032727D01*
X0035471Y0032601D01*
X0035475Y0032475D01*
X0035475Y0032349D01*
X0035471Y0032223D01*
X0035463Y0032097D01*
X0035451Y0031971D01*
X0035435Y0031846D01*
X0035415Y0031721D01*
X0035391Y0031597D01*
X0035363Y0031474D01*
X0035332Y0031351D01*
X0035296Y0031230D01*
X0035257Y0031110D01*
X0035214Y0030991D01*
X0035167Y0030874D01*
X0035117Y0030758D01*
X0035063Y0030644D01*
X0035005Y0030532D01*
X0034944Y0030421D01*
X0034880Y0030313D01*
X0034812Y0030206D01*
X0034741Y0030102D01*
X0034666Y0030000D01*
X0034588Y0029900D01*
X0034507Y0029803D01*
X0034424Y0029709D01*
X0034337Y0029617D01*
X0034247Y0029528D01*
X0034155Y0029442D01*
X0034060Y0029359D01*
X0033962Y0029279D01*
X0033862Y0029202D01*
X0033759Y0029128D01*
X0033654Y0029058D01*
X0033547Y0028991D01*
X0033438Y0028927D01*
X0033327Y0028867D01*
X0033215Y0028810D01*
X0033100Y0028757D01*
X0032984Y0028707D01*
X0032866Y0028662D01*
X0032747Y0028620D01*
X0032627Y0028581D01*
X0032505Y0028547D01*
X0032383Y0028516D01*
X0032259Y0028490D01*
X0032135Y0028467D01*
X0032010Y0028448D01*
X0031885Y0028433D01*
X0031759Y0028422D01*
X0031633Y0028415D01*
X0031507Y0028412D01*
X0031380Y0028413D01*
X0031254Y0028418D01*
X0031128Y0028427D01*
X0031002Y0028440D01*
X0030877Y0028457D01*
X0030753Y0028478D01*
X0030629Y0028502D01*
X0030506Y0028531D01*
X0030384Y0028564D01*
X0030263Y0028600D01*
X0030143Y0028640D01*
X0030025Y0028684D01*
X0029908Y0028732D01*
X0029792Y0028783D01*
X0029679Y0028838D01*
X0029567Y0028896D01*
X0029457Y0028958D01*
X0029349Y0029024D01*
X0029243Y0029093D01*
X0029139Y0029165D01*
X0029038Y0029240D01*
X0028939Y0029319D01*
X0028843Y0029400D01*
X0028749Y0029485D01*
X0028658Y0029572D01*
X0028570Y0029663D01*
X0028484Y0029756D01*
X0028402Y0029852D01*
X0028323Y0029950D01*
X0028246Y0030051D01*
X0028173Y0030154D01*
X0028104Y0030259D01*
X0028038Y0030367D01*
X0027975Y0030476D01*
X0027915Y0030588D01*
X0027859Y0030701D01*
X0027807Y0030816D01*
X0027759Y0030932D01*
X0027714Y0031051D01*
X0027673Y0031170D01*
X0027635Y0031291D01*
X0027602Y0031412D01*
X0027572Y0031535D01*
X0027547Y0031659D01*
X0027525Y0031783D01*
X0027507Y0031908D01*
X0027493Y0032034D01*
X0027483Y0032160D01*
X0027477Y0032286D01*
X0027475Y0032412D01*
X0068475Y0146412D02*
X0068477Y0146501D01*
X0068483Y0146590D01*
X0068493Y0146679D01*
X0068507Y0146767D01*
X0068524Y0146854D01*
X0068546Y0146940D01*
X0068572Y0147026D01*
X0068601Y0147110D01*
X0068634Y0147193D01*
X0068670Y0147274D01*
X0068711Y0147354D01*
X0068754Y0147431D01*
X0068801Y0147507D01*
X0068852Y0147580D01*
X0068905Y0147651D01*
X0068962Y0147720D01*
X0069022Y0147786D01*
X0069085Y0147850D01*
X0069150Y0147910D01*
X0069218Y0147968D01*
X0069289Y0148022D01*
X0069362Y0148073D01*
X0069437Y0148121D01*
X0069514Y0148166D01*
X0069593Y0148207D01*
X0069674Y0148244D01*
X0069756Y0148278D01*
X0069840Y0148309D01*
X0069925Y0148335D01*
X0070011Y0148358D01*
X0070098Y0148376D01*
X0070186Y0148391D01*
X0070275Y0148402D01*
X0070364Y0148409D01*
X0070453Y0148412D01*
X0070542Y0148411D01*
X0070631Y0148406D01*
X0070719Y0148397D01*
X0070808Y0148384D01*
X0070895Y0148367D01*
X0070982Y0148347D01*
X0071068Y0148322D01*
X0071152Y0148294D01*
X0071235Y0148262D01*
X0071317Y0148226D01*
X0071397Y0148187D01*
X0071475Y0148144D01*
X0071551Y0148098D01*
X0071625Y0148048D01*
X0071697Y0147995D01*
X0071766Y0147939D01*
X0071833Y0147880D01*
X0071897Y0147818D01*
X0071958Y0147754D01*
X0072017Y0147686D01*
X0072072Y0147616D01*
X0072124Y0147544D01*
X0072173Y0147469D01*
X0072218Y0147393D01*
X0072260Y0147314D01*
X0072298Y0147234D01*
X0072333Y0147152D01*
X0072364Y0147068D01*
X0072392Y0146983D01*
X0072415Y0146897D01*
X0072435Y0146810D01*
X0072451Y0146723D01*
X0072463Y0146634D01*
X0072471Y0146546D01*
X0072475Y0146457D01*
X0072475Y0146367D01*
X0072471Y0146278D01*
X0072463Y0146190D01*
X0072451Y0146101D01*
X0072435Y0146014D01*
X0072415Y0145927D01*
X0072392Y0145841D01*
X0072364Y0145756D01*
X0072333Y0145672D01*
X0072298Y0145590D01*
X0072260Y0145510D01*
X0072218Y0145431D01*
X0072173Y0145355D01*
X0072124Y0145280D01*
X0072072Y0145208D01*
X0072017Y0145138D01*
X0071958Y0145070D01*
X0071897Y0145006D01*
X0071833Y0144944D01*
X0071766Y0144885D01*
X0071697Y0144829D01*
X0071625Y0144776D01*
X0071551Y0144726D01*
X0071475Y0144680D01*
X0071397Y0144637D01*
X0071317Y0144598D01*
X0071235Y0144562D01*
X0071152Y0144530D01*
X0071068Y0144502D01*
X0070982Y0144477D01*
X0070895Y0144457D01*
X0070808Y0144440D01*
X0070719Y0144427D01*
X0070631Y0144418D01*
X0070542Y0144413D01*
X0070453Y0144412D01*
X0070364Y0144415D01*
X0070275Y0144422D01*
X0070186Y0144433D01*
X0070098Y0144448D01*
X0070011Y0144466D01*
X0069925Y0144489D01*
X0069840Y0144515D01*
X0069756Y0144546D01*
X0069674Y0144580D01*
X0069593Y0144617D01*
X0069514Y0144658D01*
X0069437Y0144703D01*
X0069362Y0144751D01*
X0069289Y0144802D01*
X0069218Y0144856D01*
X0069150Y0144914D01*
X0069085Y0144974D01*
X0069022Y0145038D01*
X0068962Y0145104D01*
X0068905Y0145173D01*
X0068852Y0145244D01*
X0068801Y0145317D01*
X0068754Y0145393D01*
X0068711Y0145470D01*
X0068670Y0145550D01*
X0068634Y0145631D01*
X0068601Y0145714D01*
X0068572Y0145798D01*
X0068546Y0145884D01*
X0068524Y0145970D01*
X0068507Y0146057D01*
X0068493Y0146145D01*
X0068483Y0146234D01*
X0068477Y0146323D01*
X0068475Y0146412D01*
X0068475Y0154412D02*
X0068477Y0154501D01*
X0068483Y0154590D01*
X0068493Y0154679D01*
X0068507Y0154767D01*
X0068524Y0154854D01*
X0068546Y0154940D01*
X0068572Y0155026D01*
X0068601Y0155110D01*
X0068634Y0155193D01*
X0068670Y0155274D01*
X0068711Y0155354D01*
X0068754Y0155431D01*
X0068801Y0155507D01*
X0068852Y0155580D01*
X0068905Y0155651D01*
X0068962Y0155720D01*
X0069022Y0155786D01*
X0069085Y0155850D01*
X0069150Y0155910D01*
X0069218Y0155968D01*
X0069289Y0156022D01*
X0069362Y0156073D01*
X0069437Y0156121D01*
X0069514Y0156166D01*
X0069593Y0156207D01*
X0069674Y0156244D01*
X0069756Y0156278D01*
X0069840Y0156309D01*
X0069925Y0156335D01*
X0070011Y0156358D01*
X0070098Y0156376D01*
X0070186Y0156391D01*
X0070275Y0156402D01*
X0070364Y0156409D01*
X0070453Y0156412D01*
X0070542Y0156411D01*
X0070631Y0156406D01*
X0070719Y0156397D01*
X0070808Y0156384D01*
X0070895Y0156367D01*
X0070982Y0156347D01*
X0071068Y0156322D01*
X0071152Y0156294D01*
X0071235Y0156262D01*
X0071317Y0156226D01*
X0071397Y0156187D01*
X0071475Y0156144D01*
X0071551Y0156098D01*
X0071625Y0156048D01*
X0071697Y0155995D01*
X0071766Y0155939D01*
X0071833Y0155880D01*
X0071897Y0155818D01*
X0071958Y0155754D01*
X0072017Y0155686D01*
X0072072Y0155616D01*
X0072124Y0155544D01*
X0072173Y0155469D01*
X0072218Y0155393D01*
X0072260Y0155314D01*
X0072298Y0155234D01*
X0072333Y0155152D01*
X0072364Y0155068D01*
X0072392Y0154983D01*
X0072415Y0154897D01*
X0072435Y0154810D01*
X0072451Y0154723D01*
X0072463Y0154634D01*
X0072471Y0154546D01*
X0072475Y0154457D01*
X0072475Y0154367D01*
X0072471Y0154278D01*
X0072463Y0154190D01*
X0072451Y0154101D01*
X0072435Y0154014D01*
X0072415Y0153927D01*
X0072392Y0153841D01*
X0072364Y0153756D01*
X0072333Y0153672D01*
X0072298Y0153590D01*
X0072260Y0153510D01*
X0072218Y0153431D01*
X0072173Y0153355D01*
X0072124Y0153280D01*
X0072072Y0153208D01*
X0072017Y0153138D01*
X0071958Y0153070D01*
X0071897Y0153006D01*
X0071833Y0152944D01*
X0071766Y0152885D01*
X0071697Y0152829D01*
X0071625Y0152776D01*
X0071551Y0152726D01*
X0071475Y0152680D01*
X0071397Y0152637D01*
X0071317Y0152598D01*
X0071235Y0152562D01*
X0071152Y0152530D01*
X0071068Y0152502D01*
X0070982Y0152477D01*
X0070895Y0152457D01*
X0070808Y0152440D01*
X0070719Y0152427D01*
X0070631Y0152418D01*
X0070542Y0152413D01*
X0070453Y0152412D01*
X0070364Y0152415D01*
X0070275Y0152422D01*
X0070186Y0152433D01*
X0070098Y0152448D01*
X0070011Y0152466D01*
X0069925Y0152489D01*
X0069840Y0152515D01*
X0069756Y0152546D01*
X0069674Y0152580D01*
X0069593Y0152617D01*
X0069514Y0152658D01*
X0069437Y0152703D01*
X0069362Y0152751D01*
X0069289Y0152802D01*
X0069218Y0152856D01*
X0069150Y0152914D01*
X0069085Y0152974D01*
X0069022Y0153038D01*
X0068962Y0153104D01*
X0068905Y0153173D01*
X0068852Y0153244D01*
X0068801Y0153317D01*
X0068754Y0153393D01*
X0068711Y0153470D01*
X0068670Y0153550D01*
X0068634Y0153631D01*
X0068601Y0153714D01*
X0068572Y0153798D01*
X0068546Y0153884D01*
X0068524Y0153970D01*
X0068507Y0154057D01*
X0068493Y0154145D01*
X0068483Y0154234D01*
X0068477Y0154323D01*
X0068475Y0154412D01*
X0048475Y0150412D02*
X0048477Y0150501D01*
X0048483Y0150590D01*
X0048493Y0150679D01*
X0048507Y0150767D01*
X0048524Y0150854D01*
X0048546Y0150940D01*
X0048572Y0151026D01*
X0048601Y0151110D01*
X0048634Y0151193D01*
X0048670Y0151274D01*
X0048711Y0151354D01*
X0048754Y0151431D01*
X0048801Y0151507D01*
X0048852Y0151580D01*
X0048905Y0151651D01*
X0048962Y0151720D01*
X0049022Y0151786D01*
X0049085Y0151850D01*
X0049150Y0151910D01*
X0049218Y0151968D01*
X0049289Y0152022D01*
X0049362Y0152073D01*
X0049437Y0152121D01*
X0049514Y0152166D01*
X0049593Y0152207D01*
X0049674Y0152244D01*
X0049756Y0152278D01*
X0049840Y0152309D01*
X0049925Y0152335D01*
X0050011Y0152358D01*
X0050098Y0152376D01*
X0050186Y0152391D01*
X0050275Y0152402D01*
X0050364Y0152409D01*
X0050453Y0152412D01*
X0050542Y0152411D01*
X0050631Y0152406D01*
X0050719Y0152397D01*
X0050808Y0152384D01*
X0050895Y0152367D01*
X0050982Y0152347D01*
X0051068Y0152322D01*
X0051152Y0152294D01*
X0051235Y0152262D01*
X0051317Y0152226D01*
X0051397Y0152187D01*
X0051475Y0152144D01*
X0051551Y0152098D01*
X0051625Y0152048D01*
X0051697Y0151995D01*
X0051766Y0151939D01*
X0051833Y0151880D01*
X0051897Y0151818D01*
X0051958Y0151754D01*
X0052017Y0151686D01*
X0052072Y0151616D01*
X0052124Y0151544D01*
X0052173Y0151469D01*
X0052218Y0151393D01*
X0052260Y0151314D01*
X0052298Y0151234D01*
X0052333Y0151152D01*
X0052364Y0151068D01*
X0052392Y0150983D01*
X0052415Y0150897D01*
X0052435Y0150810D01*
X0052451Y0150723D01*
X0052463Y0150634D01*
X0052471Y0150546D01*
X0052475Y0150457D01*
X0052475Y0150367D01*
X0052471Y0150278D01*
X0052463Y0150190D01*
X0052451Y0150101D01*
X0052435Y0150014D01*
X0052415Y0149927D01*
X0052392Y0149841D01*
X0052364Y0149756D01*
X0052333Y0149672D01*
X0052298Y0149590D01*
X0052260Y0149510D01*
X0052218Y0149431D01*
X0052173Y0149355D01*
X0052124Y0149280D01*
X0052072Y0149208D01*
X0052017Y0149138D01*
X0051958Y0149070D01*
X0051897Y0149006D01*
X0051833Y0148944D01*
X0051766Y0148885D01*
X0051697Y0148829D01*
X0051625Y0148776D01*
X0051551Y0148726D01*
X0051475Y0148680D01*
X0051397Y0148637D01*
X0051317Y0148598D01*
X0051235Y0148562D01*
X0051152Y0148530D01*
X0051068Y0148502D01*
X0050982Y0148477D01*
X0050895Y0148457D01*
X0050808Y0148440D01*
X0050719Y0148427D01*
X0050631Y0148418D01*
X0050542Y0148413D01*
X0050453Y0148412D01*
X0050364Y0148415D01*
X0050275Y0148422D01*
X0050186Y0148433D01*
X0050098Y0148448D01*
X0050011Y0148466D01*
X0049925Y0148489D01*
X0049840Y0148515D01*
X0049756Y0148546D01*
X0049674Y0148580D01*
X0049593Y0148617D01*
X0049514Y0148658D01*
X0049437Y0148703D01*
X0049362Y0148751D01*
X0049289Y0148802D01*
X0049218Y0148856D01*
X0049150Y0148914D01*
X0049085Y0148974D01*
X0049022Y0149038D01*
X0048962Y0149104D01*
X0048905Y0149173D01*
X0048852Y0149244D01*
X0048801Y0149317D01*
X0048754Y0149393D01*
X0048711Y0149470D01*
X0048670Y0149550D01*
X0048634Y0149631D01*
X0048601Y0149714D01*
X0048572Y0149798D01*
X0048546Y0149884D01*
X0048524Y0149970D01*
X0048507Y0150057D01*
X0048493Y0150145D01*
X0048483Y0150234D01*
X0048477Y0150323D01*
X0048475Y0150412D01*
X0029475Y0154412D02*
X0029477Y0154538D01*
X0029483Y0154664D01*
X0029493Y0154790D01*
X0029507Y0154916D01*
X0029525Y0155041D01*
X0029547Y0155165D01*
X0029572Y0155289D01*
X0029602Y0155412D01*
X0029635Y0155533D01*
X0029673Y0155654D01*
X0029714Y0155773D01*
X0029759Y0155892D01*
X0029807Y0156008D01*
X0029859Y0156123D01*
X0029915Y0156236D01*
X0029975Y0156348D01*
X0030038Y0156457D01*
X0030104Y0156565D01*
X0030173Y0156670D01*
X0030246Y0156773D01*
X0030323Y0156874D01*
X0030402Y0156972D01*
X0030484Y0157068D01*
X0030570Y0157161D01*
X0030658Y0157252D01*
X0030749Y0157339D01*
X0030843Y0157424D01*
X0030939Y0157505D01*
X0031038Y0157584D01*
X0031139Y0157659D01*
X0031243Y0157731D01*
X0031349Y0157800D01*
X0031457Y0157866D01*
X0031567Y0157928D01*
X0031679Y0157986D01*
X0031792Y0158041D01*
X0031908Y0158092D01*
X0032025Y0158140D01*
X0032143Y0158184D01*
X0032263Y0158224D01*
X0032384Y0158260D01*
X0032506Y0158293D01*
X0032629Y0158322D01*
X0032753Y0158346D01*
X0032877Y0158367D01*
X0033002Y0158384D01*
X0033128Y0158397D01*
X0033254Y0158406D01*
X0033380Y0158411D01*
X0033507Y0158412D01*
X0033633Y0158409D01*
X0033759Y0158402D01*
X0033885Y0158391D01*
X0034010Y0158376D01*
X0034135Y0158357D01*
X0034259Y0158334D01*
X0034383Y0158308D01*
X0034505Y0158277D01*
X0034627Y0158243D01*
X0034747Y0158204D01*
X0034866Y0158162D01*
X0034984Y0158117D01*
X0035100Y0158067D01*
X0035215Y0158014D01*
X0035327Y0157957D01*
X0035438Y0157897D01*
X0035547Y0157833D01*
X0035654Y0157766D01*
X0035759Y0157696D01*
X0035862Y0157622D01*
X0035962Y0157545D01*
X0036060Y0157465D01*
X0036155Y0157382D01*
X0036247Y0157296D01*
X0036337Y0157207D01*
X0036424Y0157115D01*
X0036507Y0157021D01*
X0036588Y0156924D01*
X0036666Y0156824D01*
X0036741Y0156722D01*
X0036812Y0156618D01*
X0036880Y0156511D01*
X0036944Y0156403D01*
X0037005Y0156292D01*
X0037063Y0156180D01*
X0037117Y0156066D01*
X0037167Y0155950D01*
X0037214Y0155833D01*
X0037257Y0155714D01*
X0037296Y0155594D01*
X0037332Y0155473D01*
X0037363Y0155350D01*
X0037391Y0155227D01*
X0037415Y0155103D01*
X0037435Y0154978D01*
X0037451Y0154853D01*
X0037463Y0154727D01*
X0037471Y0154601D01*
X0037475Y0154475D01*
X0037475Y0154349D01*
X0037471Y0154223D01*
X0037463Y0154097D01*
X0037451Y0153971D01*
X0037435Y0153846D01*
X0037415Y0153721D01*
X0037391Y0153597D01*
X0037363Y0153474D01*
X0037332Y0153351D01*
X0037296Y0153230D01*
X0037257Y0153110D01*
X0037214Y0152991D01*
X0037167Y0152874D01*
X0037117Y0152758D01*
X0037063Y0152644D01*
X0037005Y0152532D01*
X0036944Y0152421D01*
X0036880Y0152313D01*
X0036812Y0152206D01*
X0036741Y0152102D01*
X0036666Y0152000D01*
X0036588Y0151900D01*
X0036507Y0151803D01*
X0036424Y0151709D01*
X0036337Y0151617D01*
X0036247Y0151528D01*
X0036155Y0151442D01*
X0036060Y0151359D01*
X0035962Y0151279D01*
X0035862Y0151202D01*
X0035759Y0151128D01*
X0035654Y0151058D01*
X0035547Y0150991D01*
X0035438Y0150927D01*
X0035327Y0150867D01*
X0035215Y0150810D01*
X0035100Y0150757D01*
X0034984Y0150707D01*
X0034866Y0150662D01*
X0034747Y0150620D01*
X0034627Y0150581D01*
X0034505Y0150547D01*
X0034383Y0150516D01*
X0034259Y0150490D01*
X0034135Y0150467D01*
X0034010Y0150448D01*
X0033885Y0150433D01*
X0033759Y0150422D01*
X0033633Y0150415D01*
X0033507Y0150412D01*
X0033380Y0150413D01*
X0033254Y0150418D01*
X0033128Y0150427D01*
X0033002Y0150440D01*
X0032877Y0150457D01*
X0032753Y0150478D01*
X0032629Y0150502D01*
X0032506Y0150531D01*
X0032384Y0150564D01*
X0032263Y0150600D01*
X0032143Y0150640D01*
X0032025Y0150684D01*
X0031908Y0150732D01*
X0031792Y0150783D01*
X0031679Y0150838D01*
X0031567Y0150896D01*
X0031457Y0150958D01*
X0031349Y0151024D01*
X0031243Y0151093D01*
X0031139Y0151165D01*
X0031038Y0151240D01*
X0030939Y0151319D01*
X0030843Y0151400D01*
X0030749Y0151485D01*
X0030658Y0151572D01*
X0030570Y0151663D01*
X0030484Y0151756D01*
X0030402Y0151852D01*
X0030323Y0151950D01*
X0030246Y0152051D01*
X0030173Y0152154D01*
X0030104Y0152259D01*
X0030038Y0152367D01*
X0029975Y0152476D01*
X0029915Y0152588D01*
X0029859Y0152701D01*
X0029807Y0152816D01*
X0029759Y0152932D01*
X0029714Y0153051D01*
X0029673Y0153170D01*
X0029635Y0153291D01*
X0029602Y0153412D01*
X0029572Y0153535D01*
X0029547Y0153659D01*
X0029525Y0153783D01*
X0029507Y0153908D01*
X0029493Y0154034D01*
X0029483Y0154160D01*
X0029477Y0154286D01*
X0029475Y0154412D01*
X0104475Y0159412D02*
X0104477Y0159538D01*
X0104483Y0159664D01*
X0104493Y0159790D01*
X0104507Y0159916D01*
X0104525Y0160041D01*
X0104547Y0160165D01*
X0104572Y0160289D01*
X0104602Y0160412D01*
X0104635Y0160533D01*
X0104673Y0160654D01*
X0104714Y0160773D01*
X0104759Y0160892D01*
X0104807Y0161008D01*
X0104859Y0161123D01*
X0104915Y0161236D01*
X0104975Y0161348D01*
X0105038Y0161457D01*
X0105104Y0161565D01*
X0105173Y0161670D01*
X0105246Y0161773D01*
X0105323Y0161874D01*
X0105402Y0161972D01*
X0105484Y0162068D01*
X0105570Y0162161D01*
X0105658Y0162252D01*
X0105749Y0162339D01*
X0105843Y0162424D01*
X0105939Y0162505D01*
X0106038Y0162584D01*
X0106139Y0162659D01*
X0106243Y0162731D01*
X0106349Y0162800D01*
X0106457Y0162866D01*
X0106567Y0162928D01*
X0106679Y0162986D01*
X0106792Y0163041D01*
X0106908Y0163092D01*
X0107025Y0163140D01*
X0107143Y0163184D01*
X0107263Y0163224D01*
X0107384Y0163260D01*
X0107506Y0163293D01*
X0107629Y0163322D01*
X0107753Y0163346D01*
X0107877Y0163367D01*
X0108002Y0163384D01*
X0108128Y0163397D01*
X0108254Y0163406D01*
X0108380Y0163411D01*
X0108507Y0163412D01*
X0108633Y0163409D01*
X0108759Y0163402D01*
X0108885Y0163391D01*
X0109010Y0163376D01*
X0109135Y0163357D01*
X0109259Y0163334D01*
X0109383Y0163308D01*
X0109505Y0163277D01*
X0109627Y0163243D01*
X0109747Y0163204D01*
X0109866Y0163162D01*
X0109984Y0163117D01*
X0110100Y0163067D01*
X0110215Y0163014D01*
X0110327Y0162957D01*
X0110438Y0162897D01*
X0110547Y0162833D01*
X0110654Y0162766D01*
X0110759Y0162696D01*
X0110862Y0162622D01*
X0110962Y0162545D01*
X0111060Y0162465D01*
X0111155Y0162382D01*
X0111247Y0162296D01*
X0111337Y0162207D01*
X0111424Y0162115D01*
X0111507Y0162021D01*
X0111588Y0161924D01*
X0111666Y0161824D01*
X0111741Y0161722D01*
X0111812Y0161618D01*
X0111880Y0161511D01*
X0111944Y0161403D01*
X0112005Y0161292D01*
X0112063Y0161180D01*
X0112117Y0161066D01*
X0112167Y0160950D01*
X0112214Y0160833D01*
X0112257Y0160714D01*
X0112296Y0160594D01*
X0112332Y0160473D01*
X0112363Y0160350D01*
X0112391Y0160227D01*
X0112415Y0160103D01*
X0112435Y0159978D01*
X0112451Y0159853D01*
X0112463Y0159727D01*
X0112471Y0159601D01*
X0112475Y0159475D01*
X0112475Y0159349D01*
X0112471Y0159223D01*
X0112463Y0159097D01*
X0112451Y0158971D01*
X0112435Y0158846D01*
X0112415Y0158721D01*
X0112391Y0158597D01*
X0112363Y0158474D01*
X0112332Y0158351D01*
X0112296Y0158230D01*
X0112257Y0158110D01*
X0112214Y0157991D01*
X0112167Y0157874D01*
X0112117Y0157758D01*
X0112063Y0157644D01*
X0112005Y0157532D01*
X0111944Y0157421D01*
X0111880Y0157313D01*
X0111812Y0157206D01*
X0111741Y0157102D01*
X0111666Y0157000D01*
X0111588Y0156900D01*
X0111507Y0156803D01*
X0111424Y0156709D01*
X0111337Y0156617D01*
X0111247Y0156528D01*
X0111155Y0156442D01*
X0111060Y0156359D01*
X0110962Y0156279D01*
X0110862Y0156202D01*
X0110759Y0156128D01*
X0110654Y0156058D01*
X0110547Y0155991D01*
X0110438Y0155927D01*
X0110327Y0155867D01*
X0110215Y0155810D01*
X0110100Y0155757D01*
X0109984Y0155707D01*
X0109866Y0155662D01*
X0109747Y0155620D01*
X0109627Y0155581D01*
X0109505Y0155547D01*
X0109383Y0155516D01*
X0109259Y0155490D01*
X0109135Y0155467D01*
X0109010Y0155448D01*
X0108885Y0155433D01*
X0108759Y0155422D01*
X0108633Y0155415D01*
X0108507Y0155412D01*
X0108380Y0155413D01*
X0108254Y0155418D01*
X0108128Y0155427D01*
X0108002Y0155440D01*
X0107877Y0155457D01*
X0107753Y0155478D01*
X0107629Y0155502D01*
X0107506Y0155531D01*
X0107384Y0155564D01*
X0107263Y0155600D01*
X0107143Y0155640D01*
X0107025Y0155684D01*
X0106908Y0155732D01*
X0106792Y0155783D01*
X0106679Y0155838D01*
X0106567Y0155896D01*
X0106457Y0155958D01*
X0106349Y0156024D01*
X0106243Y0156093D01*
X0106139Y0156165D01*
X0106038Y0156240D01*
X0105939Y0156319D01*
X0105843Y0156400D01*
X0105749Y0156485D01*
X0105658Y0156572D01*
X0105570Y0156663D01*
X0105484Y0156756D01*
X0105402Y0156852D01*
X0105323Y0156950D01*
X0105246Y0157051D01*
X0105173Y0157154D01*
X0105104Y0157259D01*
X0105038Y0157367D01*
X0104975Y0157476D01*
X0104915Y0157588D01*
X0104859Y0157701D01*
X0104807Y0157816D01*
X0104759Y0157932D01*
X0104714Y0158051D01*
X0104673Y0158170D01*
X0104635Y0158291D01*
X0104602Y0158412D01*
X0104572Y0158535D01*
X0104547Y0158659D01*
X0104525Y0158783D01*
X0104507Y0158908D01*
X0104493Y0159034D01*
X0104483Y0159160D01*
X0104477Y0159286D01*
X0104475Y0159412D01*
X0150475Y0079412D02*
X0150477Y0079538D01*
X0150483Y0079664D01*
X0150493Y0079790D01*
X0150507Y0079916D01*
X0150525Y0080041D01*
X0150547Y0080165D01*
X0150572Y0080289D01*
X0150602Y0080412D01*
X0150635Y0080533D01*
X0150673Y0080654D01*
X0150714Y0080773D01*
X0150759Y0080892D01*
X0150807Y0081008D01*
X0150859Y0081123D01*
X0150915Y0081236D01*
X0150975Y0081348D01*
X0151038Y0081457D01*
X0151104Y0081565D01*
X0151173Y0081670D01*
X0151246Y0081773D01*
X0151323Y0081874D01*
X0151402Y0081972D01*
X0151484Y0082068D01*
X0151570Y0082161D01*
X0151658Y0082252D01*
X0151749Y0082339D01*
X0151843Y0082424D01*
X0151939Y0082505D01*
X0152038Y0082584D01*
X0152139Y0082659D01*
X0152243Y0082731D01*
X0152349Y0082800D01*
X0152457Y0082866D01*
X0152567Y0082928D01*
X0152679Y0082986D01*
X0152792Y0083041D01*
X0152908Y0083092D01*
X0153025Y0083140D01*
X0153143Y0083184D01*
X0153263Y0083224D01*
X0153384Y0083260D01*
X0153506Y0083293D01*
X0153629Y0083322D01*
X0153753Y0083346D01*
X0153877Y0083367D01*
X0154002Y0083384D01*
X0154128Y0083397D01*
X0154254Y0083406D01*
X0154380Y0083411D01*
X0154507Y0083412D01*
X0154633Y0083409D01*
X0154759Y0083402D01*
X0154885Y0083391D01*
X0155010Y0083376D01*
X0155135Y0083357D01*
X0155259Y0083334D01*
X0155383Y0083308D01*
X0155505Y0083277D01*
X0155627Y0083243D01*
X0155747Y0083204D01*
X0155866Y0083162D01*
X0155984Y0083117D01*
X0156100Y0083067D01*
X0156215Y0083014D01*
X0156327Y0082957D01*
X0156438Y0082897D01*
X0156547Y0082833D01*
X0156654Y0082766D01*
X0156759Y0082696D01*
X0156862Y0082622D01*
X0156962Y0082545D01*
X0157060Y0082465D01*
X0157155Y0082382D01*
X0157247Y0082296D01*
X0157337Y0082207D01*
X0157424Y0082115D01*
X0157507Y0082021D01*
X0157588Y0081924D01*
X0157666Y0081824D01*
X0157741Y0081722D01*
X0157812Y0081618D01*
X0157880Y0081511D01*
X0157944Y0081403D01*
X0158005Y0081292D01*
X0158063Y0081180D01*
X0158117Y0081066D01*
X0158167Y0080950D01*
X0158214Y0080833D01*
X0158257Y0080714D01*
X0158296Y0080594D01*
X0158332Y0080473D01*
X0158363Y0080350D01*
X0158391Y0080227D01*
X0158415Y0080103D01*
X0158435Y0079978D01*
X0158451Y0079853D01*
X0158463Y0079727D01*
X0158471Y0079601D01*
X0158475Y0079475D01*
X0158475Y0079349D01*
X0158471Y0079223D01*
X0158463Y0079097D01*
X0158451Y0078971D01*
X0158435Y0078846D01*
X0158415Y0078721D01*
X0158391Y0078597D01*
X0158363Y0078474D01*
X0158332Y0078351D01*
X0158296Y0078230D01*
X0158257Y0078110D01*
X0158214Y0077991D01*
X0158167Y0077874D01*
X0158117Y0077758D01*
X0158063Y0077644D01*
X0158005Y0077532D01*
X0157944Y0077421D01*
X0157880Y0077313D01*
X0157812Y0077206D01*
X0157741Y0077102D01*
X0157666Y0077000D01*
X0157588Y0076900D01*
X0157507Y0076803D01*
X0157424Y0076709D01*
X0157337Y0076617D01*
X0157247Y0076528D01*
X0157155Y0076442D01*
X0157060Y0076359D01*
X0156962Y0076279D01*
X0156862Y0076202D01*
X0156759Y0076128D01*
X0156654Y0076058D01*
X0156547Y0075991D01*
X0156438Y0075927D01*
X0156327Y0075867D01*
X0156215Y0075810D01*
X0156100Y0075757D01*
X0155984Y0075707D01*
X0155866Y0075662D01*
X0155747Y0075620D01*
X0155627Y0075581D01*
X0155505Y0075547D01*
X0155383Y0075516D01*
X0155259Y0075490D01*
X0155135Y0075467D01*
X0155010Y0075448D01*
X0154885Y0075433D01*
X0154759Y0075422D01*
X0154633Y0075415D01*
X0154507Y0075412D01*
X0154380Y0075413D01*
X0154254Y0075418D01*
X0154128Y0075427D01*
X0154002Y0075440D01*
X0153877Y0075457D01*
X0153753Y0075478D01*
X0153629Y0075502D01*
X0153506Y0075531D01*
X0153384Y0075564D01*
X0153263Y0075600D01*
X0153143Y0075640D01*
X0153025Y0075684D01*
X0152908Y0075732D01*
X0152792Y0075783D01*
X0152679Y0075838D01*
X0152567Y0075896D01*
X0152457Y0075958D01*
X0152349Y0076024D01*
X0152243Y0076093D01*
X0152139Y0076165D01*
X0152038Y0076240D01*
X0151939Y0076319D01*
X0151843Y0076400D01*
X0151749Y0076485D01*
X0151658Y0076572D01*
X0151570Y0076663D01*
X0151484Y0076756D01*
X0151402Y0076852D01*
X0151323Y0076950D01*
X0151246Y0077051D01*
X0151173Y0077154D01*
X0151104Y0077259D01*
X0151038Y0077367D01*
X0150975Y0077476D01*
X0150915Y0077588D01*
X0150859Y0077701D01*
X0150807Y0077816D01*
X0150759Y0077932D01*
X0150714Y0078051D01*
X0150673Y0078170D01*
X0150635Y0078291D01*
X0150602Y0078412D01*
X0150572Y0078535D01*
X0150547Y0078659D01*
X0150525Y0078783D01*
X0150507Y0078908D01*
X0150493Y0079034D01*
X0150483Y0079160D01*
X0150477Y0079286D01*
X0150475Y0079412D01*
X0150475Y0033412D02*
X0150477Y0033538D01*
X0150483Y0033664D01*
X0150493Y0033790D01*
X0150507Y0033916D01*
X0150525Y0034041D01*
X0150547Y0034165D01*
X0150572Y0034289D01*
X0150602Y0034412D01*
X0150635Y0034533D01*
X0150673Y0034654D01*
X0150714Y0034773D01*
X0150759Y0034892D01*
X0150807Y0035008D01*
X0150859Y0035123D01*
X0150915Y0035236D01*
X0150975Y0035348D01*
X0151038Y0035457D01*
X0151104Y0035565D01*
X0151173Y0035670D01*
X0151246Y0035773D01*
X0151323Y0035874D01*
X0151402Y0035972D01*
X0151484Y0036068D01*
X0151570Y0036161D01*
X0151658Y0036252D01*
X0151749Y0036339D01*
X0151843Y0036424D01*
X0151939Y0036505D01*
X0152038Y0036584D01*
X0152139Y0036659D01*
X0152243Y0036731D01*
X0152349Y0036800D01*
X0152457Y0036866D01*
X0152567Y0036928D01*
X0152679Y0036986D01*
X0152792Y0037041D01*
X0152908Y0037092D01*
X0153025Y0037140D01*
X0153143Y0037184D01*
X0153263Y0037224D01*
X0153384Y0037260D01*
X0153506Y0037293D01*
X0153629Y0037322D01*
X0153753Y0037346D01*
X0153877Y0037367D01*
X0154002Y0037384D01*
X0154128Y0037397D01*
X0154254Y0037406D01*
X0154380Y0037411D01*
X0154507Y0037412D01*
X0154633Y0037409D01*
X0154759Y0037402D01*
X0154885Y0037391D01*
X0155010Y0037376D01*
X0155135Y0037357D01*
X0155259Y0037334D01*
X0155383Y0037308D01*
X0155505Y0037277D01*
X0155627Y0037243D01*
X0155747Y0037204D01*
X0155866Y0037162D01*
X0155984Y0037117D01*
X0156100Y0037067D01*
X0156215Y0037014D01*
X0156327Y0036957D01*
X0156438Y0036897D01*
X0156547Y0036833D01*
X0156654Y0036766D01*
X0156759Y0036696D01*
X0156862Y0036622D01*
X0156962Y0036545D01*
X0157060Y0036465D01*
X0157155Y0036382D01*
X0157247Y0036296D01*
X0157337Y0036207D01*
X0157424Y0036115D01*
X0157507Y0036021D01*
X0157588Y0035924D01*
X0157666Y0035824D01*
X0157741Y0035722D01*
X0157812Y0035618D01*
X0157880Y0035511D01*
X0157944Y0035403D01*
X0158005Y0035292D01*
X0158063Y0035180D01*
X0158117Y0035066D01*
X0158167Y0034950D01*
X0158214Y0034833D01*
X0158257Y0034714D01*
X0158296Y0034594D01*
X0158332Y0034473D01*
X0158363Y0034350D01*
X0158391Y0034227D01*
X0158415Y0034103D01*
X0158435Y0033978D01*
X0158451Y0033853D01*
X0158463Y0033727D01*
X0158471Y0033601D01*
X0158475Y0033475D01*
X0158475Y0033349D01*
X0158471Y0033223D01*
X0158463Y0033097D01*
X0158451Y0032971D01*
X0158435Y0032846D01*
X0158415Y0032721D01*
X0158391Y0032597D01*
X0158363Y0032474D01*
X0158332Y0032351D01*
X0158296Y0032230D01*
X0158257Y0032110D01*
X0158214Y0031991D01*
X0158167Y0031874D01*
X0158117Y0031758D01*
X0158063Y0031644D01*
X0158005Y0031532D01*
X0157944Y0031421D01*
X0157880Y0031313D01*
X0157812Y0031206D01*
X0157741Y0031102D01*
X0157666Y0031000D01*
X0157588Y0030900D01*
X0157507Y0030803D01*
X0157424Y0030709D01*
X0157337Y0030617D01*
X0157247Y0030528D01*
X0157155Y0030442D01*
X0157060Y0030359D01*
X0156962Y0030279D01*
X0156862Y0030202D01*
X0156759Y0030128D01*
X0156654Y0030058D01*
X0156547Y0029991D01*
X0156438Y0029927D01*
X0156327Y0029867D01*
X0156215Y0029810D01*
X0156100Y0029757D01*
X0155984Y0029707D01*
X0155866Y0029662D01*
X0155747Y0029620D01*
X0155627Y0029581D01*
X0155505Y0029547D01*
X0155383Y0029516D01*
X0155259Y0029490D01*
X0155135Y0029467D01*
X0155010Y0029448D01*
X0154885Y0029433D01*
X0154759Y0029422D01*
X0154633Y0029415D01*
X0154507Y0029412D01*
X0154380Y0029413D01*
X0154254Y0029418D01*
X0154128Y0029427D01*
X0154002Y0029440D01*
X0153877Y0029457D01*
X0153753Y0029478D01*
X0153629Y0029502D01*
X0153506Y0029531D01*
X0153384Y0029564D01*
X0153263Y0029600D01*
X0153143Y0029640D01*
X0153025Y0029684D01*
X0152908Y0029732D01*
X0152792Y0029783D01*
X0152679Y0029838D01*
X0152567Y0029896D01*
X0152457Y0029958D01*
X0152349Y0030024D01*
X0152243Y0030093D01*
X0152139Y0030165D01*
X0152038Y0030240D01*
X0151939Y0030319D01*
X0151843Y0030400D01*
X0151749Y0030485D01*
X0151658Y0030572D01*
X0151570Y0030663D01*
X0151484Y0030756D01*
X0151402Y0030852D01*
X0151323Y0030950D01*
X0151246Y0031051D01*
X0151173Y0031154D01*
X0151104Y0031259D01*
X0151038Y0031367D01*
X0150975Y0031476D01*
X0150915Y0031588D01*
X0150859Y0031701D01*
X0150807Y0031816D01*
X0150759Y0031932D01*
X0150714Y0032051D01*
X0150673Y0032170D01*
X0150635Y0032291D01*
X0150602Y0032412D01*
X0150572Y0032535D01*
X0150547Y0032659D01*
X0150525Y0032783D01*
X0150507Y0032908D01*
X0150493Y0033034D01*
X0150483Y0033160D01*
X0150477Y0033286D01*
X0150475Y0033412D01*
D11*
X0027341Y0027763D02*
X0024909Y0031080D01*
X0023417Y0034914D01*
X0023075Y0036856D01*
X0023075Y0042295D01*
X0023739Y0042583D01*
X0027558Y0045591D01*
X0027559Y0045591D01*
X0030483Y0049475D01*
X0032319Y0053976D01*
X0032945Y0058798D01*
X0032319Y0063619D01*
X0030483Y0068121D01*
X0027559Y0072004D01*
X0027558Y0072004D01*
X0023739Y0075012D01*
X0023075Y0075300D01*
X0023075Y0111182D01*
X0025904Y0108353D01*
X0032622Y0115070D01*
X0033753Y0113939D01*
X0027036Y0107222D01*
X0031234Y0103024D01*
X0031644Y0102787D01*
X0032102Y0102664D01*
X0032576Y0102664D01*
X0033034Y0102787D01*
X0033444Y0103024D01*
X0039057Y0108636D01*
X0033753Y0113939D01*
X0034885Y0115070D01*
X0040188Y0109767D01*
X0045800Y0115379D01*
X0046037Y0115790D01*
X0046160Y0116248D01*
X0046160Y0116722D01*
X0046037Y0117179D01*
X0045800Y0117590D01*
X0041602Y0121788D01*
X0034885Y0115071D01*
X0033753Y0116202D01*
X0032622Y0115071D01*
X0027319Y0120374D01*
X0023075Y0116130D01*
X0023075Y0145412D01*
X0023184Y0147360D01*
X0024051Y0151159D01*
X0025742Y0154669D01*
X0028171Y0157716D01*
X0030170Y0159310D01*
X0028558Y0157697D01*
X0027675Y0155566D01*
X0027675Y0153258D01*
X0028558Y0151126D01*
X0030189Y0149495D01*
X0032321Y0148612D01*
X0034629Y0148612D01*
X0036760Y0149495D01*
X0038392Y0151126D01*
X0039275Y0153258D01*
X0039275Y0155566D01*
X0038392Y0157697D01*
X0036760Y0159329D01*
X0034629Y0160212D01*
X0032321Y0160212D01*
X0030199Y0159333D01*
X0031217Y0160145D01*
X0034728Y0161835D01*
X0038527Y0162702D01*
X0040475Y0162812D01*
X0044358Y0162812D01*
X0044642Y0162158D01*
X0044642Y0162158D01*
X0047758Y0158454D01*
X0048279Y0158112D01*
X0046523Y0158112D01*
X0045976Y0158658D01*
X0045002Y0159062D01*
X0043948Y0159062D01*
X0042974Y0158658D01*
X0042228Y0157913D01*
X0041825Y0156939D01*
X0041825Y0155885D01*
X0042228Y0154911D01*
X0042974Y0154165D01*
X0043948Y0153762D01*
X0045002Y0153762D01*
X0045976Y0154165D01*
X0046523Y0154712D01*
X0051271Y0154712D01*
X0052153Y0153830D01*
X0051231Y0154212D01*
X0049719Y0154212D01*
X0048322Y0153633D01*
X0047253Y0152564D01*
X0046675Y0151168D01*
X0046675Y0149656D01*
X0047253Y0148259D01*
X0048322Y0147190D01*
X0049719Y0146612D01*
X0051231Y0146612D01*
X0051670Y0146794D01*
X0048188Y0143312D01*
X0043323Y0143312D01*
X0042976Y0143658D01*
X0042002Y0144062D01*
X0040948Y0144062D01*
X0039974Y0143658D01*
X0039228Y0142913D01*
X0038825Y0141939D01*
X0038825Y0140885D01*
X0039228Y0139911D01*
X0039974Y0139165D01*
X0040948Y0138762D01*
X0042002Y0138762D01*
X0042976Y0139165D01*
X0043323Y0139512D01*
X0049762Y0139512D01*
X0050875Y0140625D01*
X0055212Y0144962D01*
X0056062Y0144962D01*
X0057146Y0145411D01*
X0057975Y0146240D01*
X0058804Y0145411D01*
X0059888Y0144962D01*
X0061062Y0144962D01*
X0062146Y0145411D01*
X0062728Y0145993D01*
X0062873Y0145776D01*
X0063339Y0145310D01*
X0063888Y0144943D01*
X0064498Y0144691D01*
X0065145Y0144562D01*
X0065475Y0144562D01*
X0065805Y0144562D01*
X0066452Y0144691D01*
X0066984Y0144911D01*
X0067253Y0144259D01*
X0068322Y0143190D01*
X0069719Y0142612D01*
X0071231Y0142612D01*
X0072627Y0143190D01*
X0073696Y0144259D01*
X0074275Y0145656D01*
X0074275Y0147168D01*
X0073696Y0148564D01*
X0072627Y0149633D01*
X0071231Y0150212D01*
X0069719Y0150212D01*
X0068347Y0149643D01*
X0068077Y0150047D01*
X0067610Y0150514D01*
X0067394Y0150659D01*
X0067976Y0151241D01*
X0068062Y0151450D01*
X0068322Y0151190D01*
X0069719Y0150612D01*
X0071231Y0150612D01*
X0072627Y0151190D01*
X0073696Y0152259D01*
X0074275Y0153656D01*
X0074275Y0155168D01*
X0073696Y0156564D01*
X0072627Y0157633D01*
X0072438Y0157712D01*
X0077427Y0157712D01*
X0077974Y0157165D01*
X0078948Y0156762D01*
X0080002Y0156762D01*
X0080976Y0157165D01*
X0081721Y0157911D01*
X0082125Y0158885D01*
X0082125Y0159939D01*
X0081721Y0160913D01*
X0080976Y0161658D01*
X0080002Y0162062D01*
X0078948Y0162062D01*
X0077974Y0161658D01*
X0077427Y0161112D01*
X0072200Y0161112D01*
X0073079Y0162158D01*
X0073363Y0162812D01*
X0103672Y0162812D01*
X0103558Y0162697D01*
X0102675Y0160566D01*
X0102675Y0158258D01*
X0103558Y0156126D01*
X0105189Y0154495D01*
X0107029Y0153733D01*
X0106751Y0153456D01*
X0106734Y0153486D01*
X0106399Y0153821D01*
X0105989Y0154058D01*
X0105531Y0154180D01*
X0103313Y0154180D01*
X0103313Y0150596D01*
X0102944Y0150596D01*
X0102944Y0150228D01*
X0099163Y0150228D01*
X0099163Y0148487D01*
X0095282Y0152369D01*
X0094823Y0152369D01*
X0094832Y0152402D01*
X0094832Y0152876D01*
X0094709Y0153334D01*
X0094472Y0153744D01*
X0092904Y0155313D01*
X0090369Y0152778D01*
X0090109Y0153039D01*
X0092643Y0155573D01*
X0091075Y0157142D01*
X0090664Y0157379D01*
X0090206Y0157501D01*
X0089732Y0157501D01*
X0089275Y0157379D01*
X0088864Y0157142D01*
X0087435Y0155712D01*
X0090109Y0153039D01*
X0089848Y0152778D01*
X0087174Y0155452D01*
X0085745Y0154023D01*
X0085508Y0153612D01*
X0085385Y0153154D01*
X0085385Y0152680D01*
X0085508Y0152223D01*
X0085745Y0151812D01*
X0086090Y0151468D01*
X0085261Y0151468D01*
X0081379Y0147585D01*
X0081379Y0146425D01*
X0087488Y0140316D01*
X0088648Y0140316D01*
X0089766Y0141434D01*
X0093688Y0137512D01*
X0097292Y0137512D01*
X0098492Y0136312D01*
X0085302Y0136312D01*
X0084973Y0136641D01*
X0085571Y0137239D01*
X0085571Y0138398D01*
X0079461Y0144508D01*
X0078302Y0144508D01*
X0074419Y0140625D01*
X0074419Y0139797D01*
X0073075Y0141142D01*
X0072664Y0141379D01*
X0072206Y0141501D01*
X0071732Y0141501D01*
X0071275Y0141379D01*
X0070864Y0141142D01*
X0069435Y0139712D01*
X0072109Y0137039D01*
X0071848Y0136778D01*
X0072109Y0136518D01*
X0069574Y0133983D01*
X0071143Y0132415D01*
X0071553Y0132178D01*
X0072011Y0132055D01*
X0072485Y0132055D01*
X0072518Y0132064D01*
X0072518Y0131605D01*
X0076400Y0127722D01*
X0077560Y0127722D01*
X0081164Y0131326D01*
X0081164Y0132486D01*
X0080567Y0133084D01*
X0080782Y0133299D01*
X0080839Y0133356D01*
X0081688Y0133356D01*
X0082286Y0133954D01*
X0082615Y0133625D01*
X0082615Y0133625D01*
X0083728Y0132512D01*
X0097606Y0132512D01*
X0096289Y0131195D01*
X0094340Y0129246D01*
X0094340Y0128087D01*
X0097820Y0124607D01*
X0097412Y0124498D01*
X0097001Y0124261D01*
X0094259Y0121518D01*
X0096228Y0119549D01*
X0096228Y0119549D01*
X0099553Y0122874D01*
X0099553Y0122874D01*
X0096228Y0119549D01*
X0096227Y0119549D01*
X0094259Y0121518D01*
X0091516Y0118775D01*
X0091279Y0118365D01*
X0091157Y0117907D01*
X0091157Y0117433D01*
X0091279Y0116975D01*
X0091516Y0116565D01*
X0091769Y0116312D01*
X0090970Y0116312D01*
X0090721Y0116913D01*
X0089976Y0117658D01*
X0089002Y0118062D01*
X0088721Y0118062D01*
X0088721Y0120043D01*
X0089567Y0120043D01*
X0090387Y0120863D01*
X0090387Y0125960D01*
X0089567Y0126780D01*
X0084076Y0126780D01*
X0083751Y0126456D01*
X0083734Y0126486D01*
X0083399Y0126821D01*
X0082989Y0127058D01*
X0082531Y0127180D01*
X0080313Y0127180D01*
X0080313Y0123596D01*
X0079944Y0123596D01*
X0079944Y0123228D01*
X0076163Y0123228D01*
X0076163Y0121206D01*
X0076286Y0120749D01*
X0076523Y0120338D01*
X0076858Y0120003D01*
X0077268Y0119766D01*
X0077726Y0119643D01*
X0079944Y0119643D01*
X0079944Y0123228D01*
X0080313Y0123228D01*
X0080313Y0119643D01*
X0082531Y0119643D01*
X0082989Y0119766D01*
X0083399Y0120003D01*
X0083734Y0120338D01*
X0083751Y0120368D01*
X0084076Y0120043D01*
X0084921Y0120043D01*
X0084921Y0116278D01*
X0085825Y0115375D01*
X0085825Y0114885D01*
X0086228Y0113911D01*
X0086974Y0113165D01*
X0087948Y0112762D01*
X0088438Y0112762D01*
X0088688Y0112512D01*
X0093331Y0112512D01*
X0093331Y0052805D01*
X0094444Y0051692D01*
X0108141Y0037996D01*
X0103064Y0032919D01*
X0103064Y0031759D01*
X0111811Y0023012D01*
X0075363Y0023012D01*
X0075075Y0023676D01*
X0075075Y0023676D01*
X0072067Y0027495D01*
X0072067Y0027496D01*
X0068184Y0030420D01*
X0068184Y0030420D01*
X0063682Y0032256D01*
X0058861Y0032882D01*
X0054039Y0032256D01*
X0049538Y0030420D01*
X0049538Y0030420D01*
X0045654Y0027496D01*
X0045654Y0027495D01*
X0042646Y0023676D01*
X0042358Y0023012D01*
X0041094Y0023012D01*
X0040954Y0023053D01*
X0040581Y0023012D01*
X0040206Y0023012D01*
X0040137Y0022983D01*
X0038381Y0022906D01*
X0034315Y0023532D01*
X0030550Y0025188D01*
X0027341Y0027763D01*
X0027280Y0028404D02*
X0026871Y0028404D01*
X0026558Y0029126D02*
X0028189Y0027495D01*
X0030321Y0026612D01*
X0032629Y0026612D01*
X0034760Y0027495D01*
X0036392Y0029126D01*
X0037275Y0031258D01*
X0037275Y0033566D01*
X0036392Y0035697D01*
X0034760Y0037329D01*
X0032629Y0038212D01*
X0030321Y0038212D01*
X0028189Y0037329D01*
X0026558Y0035697D01*
X0025675Y0033566D01*
X0025675Y0031258D01*
X0026558Y0029126D01*
X0026195Y0030003D02*
X0025699Y0030003D01*
X0025675Y0031601D02*
X0024706Y0031601D01*
X0024084Y0033200D02*
X0025675Y0033200D01*
X0026186Y0034798D02*
X0023462Y0034798D01*
X0023156Y0036397D02*
X0027258Y0036397D01*
X0029799Y0037995D02*
X0023075Y0037995D01*
X0023075Y0039594D02*
X0106543Y0039594D01*
X0108141Y0037995D02*
X0033151Y0037995D01*
X0035692Y0036397D02*
X0106542Y0036397D01*
X0104943Y0034798D02*
X0036764Y0034798D01*
X0037275Y0033200D02*
X0103345Y0033200D01*
X0103222Y0031601D02*
X0065288Y0031601D01*
X0063682Y0032256D02*
X0063682Y0032256D01*
X0058861Y0032882D02*
X0058861Y0032882D01*
X0054039Y0032256D02*
X0054039Y0032256D01*
X0052434Y0031601D02*
X0037275Y0031601D01*
X0036755Y0030003D02*
X0048984Y0030003D01*
X0046861Y0028404D02*
X0035670Y0028404D01*
X0033097Y0026806D02*
X0045111Y0026806D01*
X0045654Y0027496D02*
X0045654Y0027496D01*
X0043852Y0025207D02*
X0030526Y0025207D01*
X0029853Y0026806D02*
X0028534Y0026806D01*
X0034140Y0023609D02*
X0042617Y0023609D01*
X0042646Y0023676D02*
X0042646Y0023676D01*
X0044065Y0020412D02*
X0040723Y0020412D01*
X0040723Y0020411D02*
X0040275Y0020368D01*
X0039825Y0020335D01*
X0039375Y0020314D01*
X0038925Y0020303D01*
X0038474Y0020304D01*
X0038024Y0020315D01*
X0037574Y0020338D01*
X0037124Y0020372D01*
X0036676Y0020416D01*
X0036229Y0020472D01*
X0035783Y0020539D01*
X0035340Y0020616D01*
X0034898Y0020705D01*
X0034458Y0020804D01*
X0034021Y0020914D01*
X0033587Y0021035D01*
X0033156Y0021166D01*
X0032729Y0021308D01*
X0032305Y0021461D01*
X0031884Y0021623D01*
X0031468Y0021796D01*
X0031057Y0021979D01*
X0030650Y0022172D01*
X0030248Y0022376D01*
X0029850Y0022588D01*
X0029459Y0022811D01*
X0029073Y0023043D01*
X0028692Y0023285D01*
X0028318Y0023536D01*
X0027950Y0023795D01*
X0027588Y0024064D01*
X0027233Y0024342D01*
X0026886Y0024628D01*
X0026545Y0024923D01*
X0026211Y0025226D01*
X0025885Y0025537D01*
X0025567Y0025856D01*
X0025257Y0026183D01*
X0024955Y0026517D01*
X0024661Y0026859D01*
X0024376Y0027207D01*
X0024099Y0027563D01*
X0023831Y0027925D01*
X0023572Y0028294D01*
X0023322Y0028669D01*
X0023081Y0029050D01*
X0022850Y0029436D01*
X0022629Y0029829D01*
X0022417Y0030226D01*
X0022215Y0030629D01*
X0022023Y0031037D01*
X0021841Y0031449D01*
X0021669Y0031865D01*
X0021507Y0032286D01*
X0021356Y0032710D01*
X0021215Y0033138D01*
X0021085Y0033570D01*
X0020965Y0034004D01*
X0020856Y0034441D01*
X0020758Y0034881D01*
X0020671Y0035323D01*
X0020594Y0035767D01*
X0020529Y0036213D01*
X0020474Y0036660D01*
X0020475Y0036660D02*
X0020475Y0044002D01*
X0023739Y0042583D02*
X0023739Y0042583D01*
X0024003Y0042791D02*
X0103346Y0042791D01*
X0104944Y0041193D02*
X0023075Y0041193D01*
X0026033Y0044390D02*
X0101747Y0044390D01*
X0100149Y0045988D02*
X0027857Y0045988D01*
X0027559Y0045591D02*
X0027559Y0045591D01*
X0029061Y0047587D02*
X0098550Y0047587D01*
X0096952Y0049185D02*
X0030265Y0049185D01*
X0030483Y0049475D02*
X0030483Y0049475D01*
X0031017Y0050784D02*
X0095353Y0050784D01*
X0093755Y0052382D02*
X0031669Y0052382D01*
X0032319Y0053976D02*
X0032319Y0053976D01*
X0032320Y0053981D02*
X0060518Y0053981D01*
X0060588Y0053962D02*
X0062475Y0053962D01*
X0064362Y0053962D01*
X0064820Y0054085D01*
X0065230Y0054322D01*
X0065565Y0054657D01*
X0065802Y0055067D01*
X0065925Y0055525D01*
X0065925Y0057412D01*
X0065925Y0059299D01*
X0065802Y0059757D01*
X0065565Y0060167D01*
X0065230Y0060502D01*
X0064820Y0060739D01*
X0064362Y0060862D01*
X0062475Y0060862D01*
X0062475Y0057412D01*
X0065925Y0057412D01*
X0062475Y0057412D01*
X0062475Y0057412D01*
X0062475Y0057412D01*
X0062475Y0060862D01*
X0060588Y0060862D01*
X0060130Y0060739D01*
X0059720Y0060502D01*
X0059384Y0060167D01*
X0059148Y0059757D01*
X0059025Y0059299D01*
X0059025Y0057412D01*
X0062475Y0057412D01*
X0062475Y0053962D01*
X0062475Y0057412D01*
X0062475Y0057412D01*
X0062475Y0057412D01*
X0059025Y0057412D01*
X0059025Y0055525D01*
X0059148Y0055067D01*
X0059384Y0054657D01*
X0059720Y0054322D01*
X0060130Y0054085D01*
X0060588Y0053962D01*
X0062475Y0053981D02*
X0062475Y0053981D01*
X0062475Y0055579D02*
X0062475Y0055579D01*
X0062475Y0057178D02*
X0062475Y0057178D01*
X0062475Y0058776D02*
X0062475Y0058776D01*
X0062475Y0060375D02*
X0062475Y0060375D01*
X0059592Y0060375D02*
X0032741Y0060375D01*
X0032945Y0058798D02*
X0032945Y0058798D01*
X0032943Y0058776D02*
X0059025Y0058776D01*
X0059025Y0057178D02*
X0032735Y0057178D01*
X0032528Y0055579D02*
X0059025Y0055579D01*
X0064432Y0053981D02*
X0093331Y0053981D01*
X0093331Y0055579D02*
X0065925Y0055579D01*
X0065925Y0057178D02*
X0093331Y0057178D01*
X0093331Y0058776D02*
X0065925Y0058776D01*
X0065358Y0060375D02*
X0093331Y0060375D01*
X0093331Y0061973D02*
X0032533Y0061973D01*
X0032326Y0063572D02*
X0093331Y0063572D01*
X0093331Y0065170D02*
X0031687Y0065170D01*
X0032319Y0063619D02*
X0032319Y0063619D01*
X0031035Y0066769D02*
X0093331Y0066769D01*
X0093331Y0068367D02*
X0030298Y0068367D01*
X0030483Y0068121D02*
X0030483Y0068121D01*
X0029094Y0069966D02*
X0093331Y0069966D01*
X0093331Y0071564D02*
X0027890Y0071564D01*
X0027559Y0072004D02*
X0027559Y0072004D01*
X0026087Y0073163D02*
X0093331Y0073163D01*
X0093331Y0074761D02*
X0024058Y0074761D01*
X0023739Y0075012D02*
X0023739Y0075012D01*
X0023075Y0076360D02*
X0093331Y0076360D01*
X0093331Y0077958D02*
X0023075Y0077958D01*
X0023075Y0079557D02*
X0093331Y0079557D01*
X0093331Y0081155D02*
X0023075Y0081155D01*
X0023075Y0082754D02*
X0093331Y0082754D01*
X0093331Y0084352D02*
X0023075Y0084352D01*
X0023075Y0085951D02*
X0093331Y0085951D01*
X0093331Y0087549D02*
X0023075Y0087549D01*
X0023075Y0089148D02*
X0093331Y0089148D01*
X0093331Y0090746D02*
X0023075Y0090746D01*
X0023075Y0092345D02*
X0093331Y0092345D01*
X0093331Y0093943D02*
X0023075Y0093943D01*
X0023075Y0095542D02*
X0093331Y0095542D01*
X0093331Y0097140D02*
X0023075Y0097140D01*
X0023075Y0098739D02*
X0093331Y0098739D01*
X0093331Y0100337D02*
X0023075Y0100337D01*
X0023075Y0101936D02*
X0093331Y0101936D01*
X0093331Y0103534D02*
X0033955Y0103534D01*
X0035554Y0105133D02*
X0093331Y0105133D01*
X0093331Y0106731D02*
X0037152Y0106731D01*
X0038751Y0108330D02*
X0093331Y0108330D01*
X0093331Y0109929D02*
X0040349Y0109929D01*
X0040027Y0109929D02*
X0037764Y0109929D01*
X0038428Y0111527D02*
X0036165Y0111527D01*
X0036830Y0113126D02*
X0034567Y0113126D01*
X0034538Y0114724D02*
X0035231Y0114724D01*
X0036137Y0116323D02*
X0033874Y0116323D01*
X0033753Y0116202D02*
X0040471Y0122919D01*
X0036273Y0127117D01*
X0035862Y0127354D01*
X0035404Y0127477D01*
X0034930Y0127477D01*
X0034473Y0127354D01*
X0034062Y0127117D01*
X0028450Y0121505D01*
X0033753Y0116202D01*
X0033632Y0116323D02*
X0031370Y0116323D01*
X0032034Y0117921D02*
X0029771Y0117921D01*
X0030435Y0119520D02*
X0028173Y0119520D01*
X0026464Y0119520D02*
X0023075Y0119520D01*
X0023075Y0121118D02*
X0028837Y0121118D01*
X0029661Y0122717D02*
X0023075Y0122717D01*
X0023075Y0124315D02*
X0031260Y0124315D01*
X0032858Y0125914D02*
X0023075Y0125914D01*
X0023075Y0127512D02*
X0094915Y0127512D01*
X0094340Y0129111D02*
X0078948Y0129111D01*
X0079944Y0127180D02*
X0077726Y0127180D01*
X0077268Y0127058D01*
X0076858Y0126821D01*
X0076523Y0126486D01*
X0076286Y0126075D01*
X0076163Y0125617D01*
X0076163Y0123596D01*
X0079944Y0123596D01*
X0079944Y0127180D01*
X0079944Y0125914D02*
X0080313Y0125914D01*
X0080313Y0124315D02*
X0079944Y0124315D01*
X0079944Y0122717D02*
X0080313Y0122717D01*
X0080313Y0121118D02*
X0079944Y0121118D01*
X0076187Y0121118D02*
X0060816Y0121118D01*
X0060802Y0121067D02*
X0060925Y0121525D01*
X0060925Y0123412D01*
X0060925Y0125299D01*
X0060802Y0125757D01*
X0060565Y0126167D01*
X0060230Y0126502D01*
X0059820Y0126739D01*
X0059362Y0126862D01*
X0057475Y0126862D01*
X0057475Y0123412D01*
X0060925Y0123412D01*
X0057475Y0123412D01*
X0057475Y0123412D01*
X0057475Y0123412D01*
X0057475Y0126862D01*
X0055588Y0126862D01*
X0055130Y0126739D01*
X0054720Y0126502D01*
X0054384Y0126167D01*
X0054148Y0125757D01*
X0054025Y0125299D01*
X0054025Y0123412D01*
X0057475Y0123412D01*
X0057475Y0119962D01*
X0059362Y0119962D01*
X0059820Y0120085D01*
X0060230Y0120322D01*
X0060565Y0120657D01*
X0060802Y0121067D01*
X0060925Y0122717D02*
X0076163Y0122717D01*
X0076163Y0124315D02*
X0060925Y0124315D01*
X0060712Y0125914D02*
X0076242Y0125914D01*
X0075012Y0129111D02*
X0023075Y0129111D01*
X0023075Y0130709D02*
X0073414Y0130709D01*
X0071328Y0132308D02*
X0023075Y0132308D01*
X0023075Y0133906D02*
X0069651Y0133906D01*
X0069314Y0134244D02*
X0067745Y0135812D01*
X0067508Y0136223D01*
X0067385Y0136680D01*
X0067385Y0137154D01*
X0067508Y0137612D01*
X0067745Y0138023D01*
X0069174Y0139452D01*
X0071848Y0136778D01*
X0069314Y0134244D01*
X0070574Y0135505D02*
X0071096Y0135505D01*
X0071523Y0137103D02*
X0072044Y0137103D01*
X0070446Y0138702D02*
X0069924Y0138702D01*
X0068424Y0138702D02*
X0023075Y0138702D01*
X0023075Y0140300D02*
X0039067Y0140300D01*
X0038825Y0141899D02*
X0023075Y0141899D01*
X0023075Y0143497D02*
X0039813Y0143497D01*
X0020475Y0145412D02*
X0020481Y0145895D01*
X0020498Y0146378D01*
X0020528Y0146861D01*
X0020568Y0147342D01*
X0020621Y0147823D01*
X0020685Y0148302D01*
X0020760Y0148779D01*
X0020848Y0149255D01*
X0020946Y0149728D01*
X0021056Y0150198D01*
X0021177Y0150666D01*
X0021310Y0151131D01*
X0021454Y0151592D01*
X0021609Y0152050D01*
X0021775Y0152504D01*
X0021952Y0152954D01*
X0022139Y0153399D01*
X0022338Y0153840D01*
X0022546Y0154276D01*
X0022766Y0154706D01*
X0022996Y0155132D01*
X0023236Y0155551D01*
X0023486Y0155965D01*
X0023746Y0156372D01*
X0024015Y0156773D01*
X0024295Y0157168D01*
X0024583Y0157555D01*
X0024882Y0157936D01*
X0025189Y0158309D01*
X0025505Y0158674D01*
X0025830Y0159032D01*
X0026163Y0159382D01*
X0026505Y0159724D01*
X0026855Y0160057D01*
X0027213Y0160382D01*
X0027578Y0160698D01*
X0027951Y0161005D01*
X0028332Y0161304D01*
X0028719Y0161592D01*
X0029114Y0161872D01*
X0029515Y0162141D01*
X0029922Y0162401D01*
X0030336Y0162651D01*
X0030755Y0162891D01*
X0031181Y0163121D01*
X0031611Y0163341D01*
X0032047Y0163549D01*
X0032488Y0163748D01*
X0032933Y0163935D01*
X0033383Y0164112D01*
X0033837Y0164278D01*
X0034295Y0164433D01*
X0034756Y0164577D01*
X0035221Y0164710D01*
X0035689Y0164831D01*
X0036159Y0164941D01*
X0036632Y0165039D01*
X0037108Y0165127D01*
X0037585Y0165202D01*
X0038064Y0165266D01*
X0038545Y0165319D01*
X0039026Y0165359D01*
X0039509Y0165389D01*
X0039992Y0165406D01*
X0040475Y0165412D01*
X0046065Y0165412D01*
X0044416Y0162679D02*
X0038426Y0162679D01*
X0036390Y0159482D02*
X0046892Y0159482D01*
X0047758Y0158454D02*
X0047758Y0158454D01*
X0047758Y0158454D01*
X0045548Y0161081D02*
X0033161Y0161081D01*
X0030560Y0159482D02*
X0030387Y0159482D01*
X0028744Y0157884D02*
X0028382Y0157884D01*
X0027973Y0156285D02*
X0027031Y0156285D01*
X0027675Y0154687D02*
X0025756Y0154687D01*
X0024981Y0153088D02*
X0027745Y0153088D01*
X0028407Y0151490D02*
X0024211Y0151490D01*
X0023762Y0149891D02*
X0029793Y0149891D01*
X0023397Y0148293D02*
X0047240Y0148293D01*
X0046675Y0149891D02*
X0037157Y0149891D01*
X0038542Y0151490D02*
X0046808Y0151490D01*
X0047777Y0153088D02*
X0039204Y0153088D01*
X0039275Y0154687D02*
X0042452Y0154687D01*
X0041825Y0156285D02*
X0038977Y0156285D01*
X0038205Y0157884D02*
X0042216Y0157884D01*
X0046497Y0154687D02*
X0051296Y0154687D01*
X0051430Y0146694D02*
X0051570Y0146694D01*
X0049520Y0146694D02*
X0023147Y0146694D01*
X0023075Y0145096D02*
X0049972Y0145096D01*
X0048373Y0143497D02*
X0043137Y0143497D01*
X0050550Y0140300D02*
X0070023Y0140300D01*
X0067385Y0137103D02*
X0023075Y0137103D01*
X0023075Y0135505D02*
X0068053Y0135505D01*
X0073916Y0140300D02*
X0074419Y0140300D01*
X0075692Y0141899D02*
X0052149Y0141899D01*
X0053747Y0143497D02*
X0068015Y0143497D01*
X0065475Y0144562D02*
X0065475Y0147912D01*
X0065475Y0147912D01*
X0065475Y0144562D01*
X0065475Y0145096D02*
X0065475Y0145096D01*
X0065475Y0146694D02*
X0065475Y0146694D01*
X0063660Y0145096D02*
X0061385Y0145096D01*
X0059565Y0145096D02*
X0056385Y0145096D01*
X0068181Y0149891D02*
X0068945Y0149891D01*
X0072005Y0149891D02*
X0083685Y0149891D01*
X0082087Y0148293D02*
X0073809Y0148293D01*
X0074275Y0146694D02*
X0081379Y0146694D01*
X0082708Y0145096D02*
X0074043Y0145096D01*
X0072934Y0143497D02*
X0077291Y0143497D01*
X0080472Y0143497D02*
X0084307Y0143497D01*
X0085906Y0141899D02*
X0082070Y0141899D01*
X0083669Y0140300D02*
X0090900Y0140300D01*
X0092498Y0138702D02*
X0085267Y0138702D01*
X0085435Y0137103D02*
X0097701Y0137103D01*
X0099979Y0140199D02*
X0098866Y0141312D01*
X0095262Y0141312D01*
X0092453Y0144121D01*
X0092531Y0144198D01*
X0092531Y0145358D01*
X0091743Y0146146D01*
X0091977Y0146146D01*
X0094400Y0143722D01*
X0095560Y0143722D01*
X0099164Y0147326D01*
X0099164Y0148202D01*
X0099286Y0147749D01*
X0099523Y0147338D01*
X0099858Y0147003D01*
X0100268Y0146766D01*
X0100726Y0146643D01*
X0102944Y0146643D01*
X0102944Y0150228D01*
X0103313Y0150228D01*
X0103313Y0146643D01*
X0105531Y0146643D01*
X0105989Y0146766D01*
X0106399Y0147003D01*
X0106734Y0147338D01*
X0106751Y0147368D01*
X0107076Y0147043D01*
X0111145Y0147043D01*
X0111641Y0146547D01*
X0109930Y0144836D01*
X0107981Y0142887D01*
X0106033Y0140939D01*
X0104084Y0138990D01*
X0102636Y0137542D01*
X0099979Y0140199D01*
X0099878Y0140300D02*
X0105394Y0140300D01*
X0103796Y0138702D02*
X0101476Y0138702D01*
X0106993Y0141899D02*
X0094675Y0141899D01*
X0093076Y0143497D02*
X0108591Y0143497D01*
X0110190Y0145096D02*
X0096934Y0145096D01*
X0098532Y0146694D02*
X0100536Y0146694D01*
X0102944Y0146694D02*
X0103313Y0146694D01*
X0103313Y0148293D02*
X0102944Y0148293D01*
X0102944Y0149891D02*
X0103313Y0149891D01*
X0102944Y0150596D02*
X0099163Y0150596D01*
X0099163Y0152617D01*
X0099286Y0153075D01*
X0099523Y0153486D01*
X0099858Y0153821D01*
X0100268Y0154058D01*
X0100726Y0154180D01*
X0102944Y0154180D01*
X0102944Y0150596D01*
X0102944Y0151490D02*
X0103313Y0151490D01*
X0103313Y0153088D02*
X0102944Y0153088D01*
X0104997Y0154687D02*
X0093529Y0154687D01*
X0092278Y0154687D02*
X0091757Y0154687D01*
X0091931Y0156285D02*
X0103492Y0156285D01*
X0102830Y0157884D02*
X0081695Y0157884D01*
X0082125Y0159482D02*
X0102675Y0159482D01*
X0102888Y0161081D02*
X0081554Y0161081D01*
X0088008Y0156285D02*
X0073812Y0156285D01*
X0074275Y0154687D02*
X0086409Y0154687D01*
X0087939Y0154687D02*
X0088460Y0154687D01*
X0089538Y0153088D02*
X0090059Y0153088D01*
X0090158Y0153088D02*
X0090679Y0153088D01*
X0094775Y0153088D02*
X0099293Y0153088D01*
X0099163Y0151490D02*
X0096161Y0151490D01*
X0097759Y0149891D02*
X0099163Y0149891D01*
X0093027Y0145096D02*
X0092531Y0145096D01*
X0086067Y0151490D02*
X0072927Y0151490D01*
X0074040Y0153088D02*
X0085385Y0153088D01*
X0073079Y0162158D02*
X0073079Y0162158D01*
X0073305Y0162679D02*
X0103550Y0162679D01*
X0113277Y0162812D02*
X0126256Y0162812D01*
X0126803Y0162275D01*
X0126343Y0161815D01*
X0127374Y0160784D01*
X0127373Y0160784D01*
X0126343Y0161815D01*
X0125480Y0160951D01*
X0125398Y0160811D01*
X0125258Y0160730D01*
X0124394Y0159866D01*
X0123531Y0159002D01*
X0123294Y0158592D01*
X0123171Y0158134D01*
X0123171Y0157660D01*
X0123294Y0157202D01*
X0123531Y0156792D01*
X0126273Y0154049D01*
X0128242Y0156018D01*
X0128242Y0156018D01*
X0126274Y0154049D01*
X0129016Y0151307D01*
X0129427Y0151070D01*
X0129884Y0150947D01*
X0130358Y0150947D01*
X0130816Y0151070D01*
X0131227Y0151307D01*
X0132090Y0152170D01*
X0131059Y0153201D01*
X0131060Y0153201D01*
X0132090Y0152170D01*
X0132954Y0153034D01*
X0133035Y0153174D01*
X0133175Y0153255D01*
X0134039Y0154119D01*
X0134571Y0154651D01*
X0154902Y0134696D01*
X0154182Y0133976D01*
X0158030Y0130128D01*
X0161878Y0126280D01*
X0162670Y0127072D01*
X0162875Y0126871D01*
X0162875Y0073300D01*
X0162221Y0073016D01*
X0158517Y0069901D01*
X0158517Y0069901D01*
X0158517Y0069901D01*
X0155861Y0065855D01*
X0154475Y0061218D01*
X0154475Y0056378D01*
X0155861Y0051741D01*
X0155861Y0051741D01*
X0158517Y0047695D01*
X0158517Y0047695D01*
X0162221Y0044579D01*
X0162875Y0044295D01*
X0162875Y0040412D01*
X0162765Y0038464D01*
X0161898Y0034665D01*
X0160208Y0031155D01*
X0159396Y0030136D01*
X0160275Y0032258D01*
X0160275Y0034566D01*
X0159392Y0036697D01*
X0157760Y0038329D01*
X0155629Y0039212D01*
X0153321Y0039212D01*
X0151189Y0038329D01*
X0149558Y0036697D01*
X0148675Y0034566D01*
X0148675Y0032258D01*
X0149558Y0030126D01*
X0151189Y0028495D01*
X0153321Y0027612D01*
X0155629Y0027612D01*
X0157760Y0028495D01*
X0159373Y0030107D01*
X0157779Y0028108D01*
X0154732Y0025679D01*
X0151222Y0023988D01*
X0147423Y0023121D01*
X0145475Y0023012D01*
X0115501Y0023012D01*
X0124343Y0031853D01*
X0134603Y0031853D01*
X0135512Y0032762D01*
X0136002Y0032762D01*
X0136976Y0033165D01*
X0137721Y0033911D01*
X0138125Y0034885D01*
X0138125Y0035939D01*
X0137721Y0036913D01*
X0136976Y0037658D01*
X0136002Y0038062D01*
X0134948Y0038062D01*
X0133974Y0037658D01*
X0133228Y0036913D01*
X0132825Y0035939D01*
X0132825Y0035653D01*
X0127077Y0035653D01*
X0127077Y0035747D01*
X0117065Y0045760D01*
X0115905Y0045760D01*
X0110828Y0040683D01*
X0097131Y0054379D01*
X0097131Y0111515D01*
X0097403Y0111244D01*
X0099351Y0109295D01*
X0101300Y0107347D01*
X0103249Y0105398D01*
X0105198Y0103449D01*
X0107146Y0101500D01*
X0109095Y0099552D01*
X0111044Y0097603D01*
X0112992Y0095654D01*
X0114541Y0094106D01*
X0114541Y0094048D01*
X0114664Y0093591D01*
X0114901Y0093180D01*
X0115764Y0092317D01*
X0119612Y0096165D01*
X0119612Y0096164D01*
X0115764Y0092317D01*
X0116628Y0091453D01*
X0117038Y0091216D01*
X0117496Y0091094D01*
X0117970Y0091094D01*
X0118428Y0091216D01*
X0118838Y0091453D01*
X0121581Y0094196D01*
X0124324Y0096938D01*
X0124561Y0097349D01*
X0124670Y0097757D01*
X0128150Y0094277D01*
X0129309Y0094277D01*
X0131258Y0096226D01*
X0133207Y0098175D01*
X0135155Y0100124D01*
X0137104Y0102072D01*
X0139053Y0104021D01*
X0139852Y0104820D01*
X0140228Y0103911D01*
X0140974Y0103165D01*
X0141948Y0102762D01*
X0143002Y0102762D01*
X0143907Y0103137D01*
X0143825Y0102939D01*
X0143825Y0101885D01*
X0144228Y0100911D01*
X0144974Y0100165D01*
X0145948Y0099762D01*
X0147002Y0099762D01*
X0147976Y0100165D01*
X0148475Y0100664D01*
X0148974Y0100165D01*
X0149575Y0099916D01*
X0136721Y0087062D01*
X0135948Y0087062D01*
X0134974Y0086658D01*
X0134228Y0085913D01*
X0133825Y0084939D01*
X0133825Y0083885D01*
X0134228Y0082911D01*
X0134974Y0082165D01*
X0135948Y0081762D01*
X0137002Y0081762D01*
X0137976Y0082165D01*
X0138721Y0082911D01*
X0139125Y0083885D01*
X0139125Y0084658D01*
X0155175Y0100708D01*
X0155175Y0110708D01*
X0157175Y0112708D01*
X0157175Y0119540D01*
X0157228Y0119411D01*
X0157974Y0118665D01*
X0158948Y0118262D01*
X0160002Y0118262D01*
X0160976Y0118665D01*
X0161721Y0119411D01*
X0162125Y0120385D01*
X0162125Y0121439D01*
X0161721Y0122413D01*
X0160976Y0123158D01*
X0160002Y0123562D01*
X0159217Y0123562D01*
X0158904Y0123872D01*
X0160089Y0125057D01*
X0160146Y0125057D01*
X0160604Y0125180D01*
X0161014Y0125417D01*
X0161878Y0126280D01*
X0158030Y0130128D01*
X0158030Y0130128D01*
X0158030Y0130128D01*
X0154182Y0133976D01*
X0153318Y0133112D01*
X0153081Y0132702D01*
X0152959Y0132244D01*
X0152959Y0132187D01*
X0151410Y0130638D01*
X0149725Y0128953D01*
X0149725Y0128953D01*
X0147513Y0126741D01*
X0145564Y0124792D01*
X0143615Y0122843D01*
X0141666Y0120895D01*
X0139718Y0118946D01*
X0137769Y0116997D01*
X0135820Y0115049D01*
X0133872Y0113100D01*
X0131923Y0111151D01*
X0129974Y0109202D01*
X0128025Y0107254D01*
X0126340Y0105568D01*
X0124128Y0103356D01*
X0122179Y0101407D01*
X0122179Y0101115D01*
X0121728Y0101236D01*
X0121671Y0101236D01*
X0120123Y0102784D01*
X0118174Y0104733D01*
X0116225Y0106682D01*
X0114276Y0108631D01*
X0112328Y0110579D01*
X0110379Y0112528D01*
X0108430Y0114477D01*
X0106481Y0116425D01*
X0104533Y0118374D01*
X0102584Y0120323D01*
X0101299Y0121608D01*
X0101299Y0121665D01*
X0101178Y0122116D01*
X0101470Y0122116D01*
X0103419Y0124065D01*
X0105631Y0126277D01*
X0107317Y0127962D01*
X0109265Y0129911D01*
X0111214Y0131860D01*
X0113163Y0133809D01*
X0115112Y0135757D01*
X0117060Y0137706D01*
X0119272Y0139918D01*
X0121221Y0141867D01*
X0121221Y0143027D01*
X0119579Y0144668D01*
X0120375Y0145464D01*
X0120375Y0146564D01*
X0120721Y0146911D01*
X0121125Y0147885D01*
X0121125Y0148939D01*
X0120721Y0149913D01*
X0119976Y0150658D01*
X0119002Y0151062D01*
X0117948Y0151062D01*
X0116974Y0150658D01*
X0116228Y0149913D01*
X0115825Y0148939D01*
X0115825Y0148423D01*
X0115251Y0148997D01*
X0114566Y0148997D01*
X0113387Y0150176D01*
X0113387Y0152960D01*
X0112567Y0153780D01*
X0110035Y0153780D01*
X0111760Y0154495D01*
X0113392Y0156126D01*
X0114275Y0158258D01*
X0114275Y0160566D01*
X0113392Y0162697D01*
X0113277Y0162812D01*
X0113399Y0162679D02*
X0126391Y0162679D01*
X0127077Y0161081D02*
X0127077Y0161081D01*
X0125609Y0161081D02*
X0114061Y0161081D01*
X0114275Y0159482D02*
X0124011Y0159482D01*
X0124394Y0159866D02*
X0125425Y0158835D01*
X0125425Y0158836D01*
X0124394Y0159866D01*
X0124778Y0159482D02*
X0124778Y0159482D01*
X0123171Y0157884D02*
X0114120Y0157884D01*
X0113458Y0156285D02*
X0124037Y0156285D01*
X0125636Y0154687D02*
X0111952Y0154687D01*
X0113259Y0153088D02*
X0127234Y0153088D01*
X0126911Y0154687D02*
X0126911Y0154687D01*
X0128242Y0156018D02*
X0129173Y0156949D01*
X0130191Y0157967D01*
X0130191Y0157967D01*
X0129173Y0156949D01*
X0128242Y0156018D01*
X0128242Y0156018D01*
X0128509Y0156285D02*
X0128510Y0156285D01*
X0130108Y0157884D02*
X0130108Y0157884D01*
X0133008Y0155150D02*
X0134039Y0154119D01*
X0133009Y0155149D01*
X0133008Y0155150D01*
X0133471Y0154687D02*
X0133471Y0154687D01*
X0132985Y0153088D02*
X0136163Y0153088D01*
X0137792Y0151490D02*
X0131410Y0151490D01*
X0131172Y0153088D02*
X0131172Y0153088D01*
X0128833Y0151490D02*
X0113387Y0151490D01*
X0113671Y0149891D02*
X0116219Y0149891D01*
X0120730Y0149891D02*
X0139420Y0149891D01*
X0141049Y0148293D02*
X0121125Y0148293D01*
X0120505Y0146694D02*
X0142678Y0146694D01*
X0144306Y0145096D02*
X0120007Y0145096D01*
X0120750Y0143497D02*
X0145935Y0143497D01*
X0147564Y0141899D02*
X0121221Y0141899D01*
X0119654Y0140300D02*
X0149192Y0140300D01*
X0150821Y0138702D02*
X0118056Y0138702D01*
X0119272Y0139918D02*
X0119272Y0139918D01*
X0116457Y0137103D02*
X0152450Y0137103D01*
X0154078Y0135505D02*
X0114859Y0135505D01*
X0113260Y0133906D02*
X0154112Y0133906D01*
X0154252Y0133906D02*
X0154252Y0133906D01*
X0152976Y0132308D02*
X0111662Y0132308D01*
X0110063Y0130709D02*
X0120135Y0130709D01*
X0120148Y0130757D02*
X0120025Y0130299D01*
X0120025Y0128412D01*
X0123475Y0128412D01*
X0126925Y0128412D01*
X0126925Y0130299D01*
X0126802Y0130757D01*
X0126565Y0131167D01*
X0126230Y0131502D01*
X0125820Y0131739D01*
X0125362Y0131862D01*
X0123475Y0131862D01*
X0123475Y0128412D01*
X0123475Y0128412D01*
X0123475Y0128412D01*
X0126925Y0128412D01*
X0126925Y0126525D01*
X0126802Y0126067D01*
X0126565Y0125657D01*
X0126230Y0125322D01*
X0125820Y0125085D01*
X0125362Y0124962D01*
X0123475Y0124962D01*
X0123475Y0128412D01*
X0123475Y0131862D01*
X0121588Y0131862D01*
X0121130Y0131739D01*
X0120720Y0131502D01*
X0120384Y0131167D01*
X0120148Y0130757D01*
X0120025Y0129111D02*
X0108465Y0129111D01*
X0106866Y0127512D02*
X0120025Y0127512D01*
X0120025Y0128412D02*
X0120025Y0126525D01*
X0120148Y0126067D01*
X0120384Y0125657D01*
X0120720Y0125322D01*
X0121130Y0125085D01*
X0121588Y0124962D01*
X0123475Y0124962D01*
X0123475Y0128412D01*
X0123475Y0128412D01*
X0123475Y0128412D01*
X0120025Y0128412D01*
X0120236Y0125914D02*
X0105268Y0125914D01*
X0105631Y0126277D02*
X0105631Y0126277D01*
X0103669Y0124315D02*
X0145087Y0124315D01*
X0143615Y0122843D02*
X0143615Y0122843D01*
X0143488Y0122717D02*
X0102071Y0122717D01*
X0101789Y0121118D02*
X0141890Y0121118D01*
X0140291Y0119520D02*
X0103387Y0119520D01*
X0102584Y0120323D02*
X0102584Y0120323D01*
X0104986Y0117921D02*
X0138693Y0117921D01*
X0137094Y0116323D02*
X0106584Y0116323D01*
X0108183Y0114724D02*
X0135496Y0114724D01*
X0133897Y0113126D02*
X0109781Y0113126D01*
X0111380Y0111527D02*
X0132299Y0111527D01*
X0130700Y0109929D02*
X0112978Y0109929D01*
X0114577Y0108330D02*
X0129102Y0108330D01*
X0127503Y0106731D02*
X0116175Y0106731D01*
X0117774Y0105133D02*
X0125905Y0105133D01*
X0126340Y0105568D02*
X0126340Y0105568D01*
X0124306Y0103534D02*
X0119372Y0103534D01*
X0120971Y0101936D02*
X0122708Y0101936D01*
X0124440Y0097140D02*
X0125287Y0097140D01*
X0126885Y0095542D02*
X0122927Y0095542D01*
X0121581Y0094196D02*
X0119612Y0096165D01*
X0119612Y0096164D01*
X0121581Y0094196D01*
X0121329Y0093943D02*
X0143602Y0093943D01*
X0142004Y0092345D02*
X0119730Y0092345D01*
X0117391Y0093943D02*
X0117391Y0093943D01*
X0115793Y0092345D02*
X0115792Y0092345D01*
X0115736Y0092345D02*
X0097131Y0092345D01*
X0097131Y0093943D02*
X0114569Y0093943D01*
X0113105Y0095542D02*
X0097131Y0095542D01*
X0097131Y0097140D02*
X0111506Y0097140D01*
X0109908Y0098739D02*
X0097131Y0098739D01*
X0097131Y0100337D02*
X0108309Y0100337D01*
X0106711Y0101936D02*
X0097131Y0101936D01*
X0097131Y0103534D02*
X0105112Y0103534D01*
X0103514Y0105133D02*
X0097131Y0105133D01*
X0097131Y0106731D02*
X0101915Y0106731D01*
X0100317Y0108330D02*
X0097131Y0108330D01*
X0097131Y0109929D02*
X0098718Y0109929D01*
X0093331Y0111527D02*
X0041948Y0111527D01*
X0043546Y0113126D02*
X0087070Y0113126D01*
X0085891Y0114724D02*
X0045145Y0114724D01*
X0046160Y0116323D02*
X0084921Y0116323D01*
X0084921Y0117921D02*
X0045469Y0117921D01*
X0043871Y0119520D02*
X0084921Y0119520D01*
X0088721Y0119520D02*
X0092260Y0119520D01*
X0091160Y0117921D02*
X0089342Y0117921D01*
X0090966Y0116323D02*
X0091758Y0116323D01*
X0090387Y0121118D02*
X0093859Y0121118D01*
X0094659Y0121118D02*
X0094659Y0121118D01*
X0095457Y0122717D02*
X0090387Y0122717D01*
X0090387Y0124315D02*
X0097096Y0124315D01*
X0096513Y0125914D02*
X0090387Y0125914D01*
X0095803Y0130709D02*
X0080547Y0130709D01*
X0081164Y0132308D02*
X0097402Y0132308D01*
X0099395Y0122717D02*
X0099395Y0122717D01*
X0097797Y0121118D02*
X0097796Y0121118D01*
X0082334Y0133906D02*
X0082238Y0133906D01*
X0105721Y0146694D02*
X0111494Y0146694D01*
X0123475Y0130709D02*
X0123475Y0130709D01*
X0123475Y0129111D02*
X0123475Y0129111D01*
X0123475Y0127512D02*
X0123475Y0127512D01*
X0123475Y0125914D02*
X0123475Y0125914D01*
X0126714Y0125914D02*
X0146685Y0125914D01*
X0148284Y0127512D02*
X0126925Y0127512D01*
X0126925Y0129111D02*
X0149882Y0129111D01*
X0151481Y0130709D02*
X0126815Y0130709D01*
X0149475Y0165412D02*
X0149862Y0165407D01*
X0150248Y0165393D01*
X0150634Y0165370D01*
X0151019Y0165337D01*
X0151404Y0165295D01*
X0151787Y0165244D01*
X0152169Y0165184D01*
X0152549Y0165114D01*
X0152928Y0165035D01*
X0153304Y0164947D01*
X0153678Y0164850D01*
X0154050Y0164744D01*
X0154419Y0164629D01*
X0154786Y0164505D01*
X0155149Y0164372D01*
X0155509Y0164231D01*
X0155865Y0164081D01*
X0156217Y0163922D01*
X0156566Y0163755D01*
X0156911Y0163579D01*
X0157251Y0163395D01*
X0157586Y0163204D01*
X0157917Y0163003D01*
X0158243Y0162796D01*
X0158564Y0162580D01*
X0158880Y0162356D01*
X0159190Y0162125D01*
X0159494Y0161887D01*
X0159792Y0161641D01*
X0160085Y0161388D01*
X0160371Y0161128D01*
X0160651Y0160862D01*
X0160925Y0160588D01*
X0161191Y0160308D01*
X0161451Y0160022D01*
X0161704Y0159729D01*
X0161950Y0159431D01*
X0162188Y0159127D01*
X0162419Y0158817D01*
X0162643Y0158501D01*
X0162859Y0158180D01*
X0163066Y0157854D01*
X0163267Y0157523D01*
X0163458Y0157188D01*
X0163642Y0156848D01*
X0163818Y0156503D01*
X0163985Y0156154D01*
X0164144Y0155802D01*
X0164294Y0155446D01*
X0164435Y0155086D01*
X0164568Y0154723D01*
X0164692Y0154356D01*
X0164807Y0153987D01*
X0164913Y0153615D01*
X0165010Y0153241D01*
X0165098Y0152865D01*
X0165177Y0152486D01*
X0165247Y0152106D01*
X0165307Y0151724D01*
X0165358Y0151341D01*
X0165400Y0150956D01*
X0165433Y0150571D01*
X0165456Y0150185D01*
X0165470Y0149799D01*
X0165475Y0149412D01*
X0165475Y0071593D01*
X0162558Y0073163D02*
X0097131Y0073163D01*
X0097131Y0074761D02*
X0150923Y0074761D01*
X0151189Y0074495D02*
X0153321Y0073612D01*
X0155629Y0073612D01*
X0157760Y0074495D01*
X0159392Y0076126D01*
X0160275Y0078258D01*
X0160275Y0080566D01*
X0159392Y0082697D01*
X0157760Y0084329D01*
X0155629Y0085212D01*
X0153321Y0085212D01*
X0151189Y0084329D01*
X0149558Y0082697D01*
X0148675Y0080566D01*
X0148675Y0078258D01*
X0149558Y0076126D01*
X0151189Y0074495D01*
X0149461Y0076360D02*
X0097131Y0076360D01*
X0097131Y0077958D02*
X0148799Y0077958D01*
X0148675Y0079557D02*
X0097131Y0079557D01*
X0097131Y0081155D02*
X0148919Y0081155D01*
X0149614Y0082754D02*
X0138564Y0082754D01*
X0139125Y0084352D02*
X0151246Y0084352D01*
X0157704Y0084352D02*
X0162875Y0084352D01*
X0162875Y0082754D02*
X0159335Y0082754D01*
X0160031Y0081155D02*
X0162875Y0081155D01*
X0162875Y0079557D02*
X0160275Y0079557D01*
X0160151Y0077958D02*
X0162875Y0077958D01*
X0162875Y0076360D02*
X0159488Y0076360D01*
X0158027Y0074761D02*
X0162875Y0074761D01*
X0160494Y0071564D02*
X0097131Y0071564D01*
X0097131Y0069966D02*
X0158594Y0069966D01*
X0157510Y0068367D02*
X0097131Y0068367D01*
X0097131Y0066769D02*
X0156461Y0066769D01*
X0155861Y0065855D02*
X0155861Y0065855D01*
X0155656Y0065170D02*
X0131562Y0065170D01*
X0131565Y0065167D02*
X0131230Y0065502D01*
X0130820Y0065739D01*
X0130362Y0065862D01*
X0128475Y0065862D01*
X0128475Y0062412D01*
X0131925Y0062412D01*
X0131925Y0064299D01*
X0131802Y0064757D01*
X0131565Y0065167D01*
X0131925Y0063572D02*
X0155178Y0063572D01*
X0154700Y0061973D02*
X0131925Y0061973D01*
X0131925Y0062412D02*
X0128475Y0062412D01*
X0128475Y0062412D01*
X0128475Y0062412D01*
X0128475Y0065862D01*
X0126588Y0065862D01*
X0126130Y0065739D01*
X0125720Y0065502D01*
X0125384Y0065167D01*
X0125148Y0064757D01*
X0125025Y0064299D01*
X0125025Y0062412D01*
X0128475Y0062412D01*
X0128475Y0058962D01*
X0130362Y0058962D01*
X0130820Y0059085D01*
X0131230Y0059322D01*
X0131565Y0059657D01*
X0131802Y0060067D01*
X0131925Y0060525D01*
X0131925Y0062412D01*
X0131885Y0060375D02*
X0154475Y0060375D01*
X0154475Y0058776D02*
X0097131Y0058776D01*
X0097131Y0057178D02*
X0154475Y0057178D01*
X0154713Y0055579D02*
X0097131Y0055579D01*
X0097530Y0053981D02*
X0155191Y0053981D01*
X0155669Y0052382D02*
X0099129Y0052382D01*
X0100727Y0050784D02*
X0156489Y0050784D01*
X0157538Y0049185D02*
X0102326Y0049185D01*
X0103924Y0047587D02*
X0158645Y0047587D01*
X0160546Y0045988D02*
X0105523Y0045988D01*
X0107121Y0044390D02*
X0114535Y0044390D01*
X0112936Y0042791D02*
X0108720Y0042791D01*
X0110318Y0041193D02*
X0111338Y0041193D01*
X0118435Y0044390D02*
X0162658Y0044390D01*
X0162221Y0044579D02*
X0162221Y0044579D01*
X0162875Y0042791D02*
X0120033Y0042791D01*
X0121632Y0041193D02*
X0162875Y0041193D01*
X0162829Y0039594D02*
X0123230Y0039594D01*
X0124829Y0037995D02*
X0134788Y0037995D01*
X0136162Y0037995D02*
X0150856Y0037995D01*
X0149433Y0036397D02*
X0137935Y0036397D01*
X0138089Y0034798D02*
X0148771Y0034798D01*
X0148675Y0033200D02*
X0137011Y0033200D01*
X0133015Y0036397D02*
X0126427Y0036397D01*
X0124091Y0031601D02*
X0148947Y0031601D01*
X0149681Y0030003D02*
X0122492Y0030003D01*
X0120894Y0028404D02*
X0151408Y0028404D01*
X0153753Y0025207D02*
X0117697Y0025207D01*
X0116098Y0023609D02*
X0149559Y0023609D01*
X0145475Y0020412D02*
X0073656Y0020412D01*
X0075104Y0023609D02*
X0111214Y0023609D01*
X0109616Y0025207D02*
X0073869Y0025207D01*
X0072610Y0026806D02*
X0108017Y0026806D01*
X0106419Y0028404D02*
X0070860Y0028404D01*
X0072067Y0027496D02*
X0072067Y0027496D01*
X0068738Y0030003D02*
X0104820Y0030003D01*
X0119295Y0026806D02*
X0156146Y0026806D01*
X0157542Y0028404D02*
X0158015Y0028404D01*
X0159268Y0030003D02*
X0159290Y0030003D01*
X0160003Y0031601D02*
X0160423Y0031601D01*
X0160275Y0033200D02*
X0161193Y0033200D01*
X0161929Y0034798D02*
X0160178Y0034798D01*
X0159516Y0036397D02*
X0162294Y0036397D01*
X0162659Y0037995D02*
X0158094Y0037995D01*
X0165475Y0040412D02*
X0165475Y0046002D01*
X0165474Y0046003D02*
X0165163Y0046142D01*
X0164855Y0046289D01*
X0164551Y0046444D01*
X0164251Y0046606D01*
X0163955Y0046775D01*
X0163663Y0046951D01*
X0163375Y0047135D01*
X0163092Y0047325D01*
X0162814Y0047522D01*
X0162541Y0047726D01*
X0162272Y0047937D01*
X0162009Y0048154D01*
X0161752Y0048378D01*
X0161500Y0048608D01*
X0161253Y0048843D01*
X0161013Y0049085D01*
X0160778Y0049333D01*
X0160550Y0049586D01*
X0160328Y0049845D01*
X0160112Y0050109D01*
X0159903Y0050379D01*
X0159700Y0050653D01*
X0159504Y0050932D01*
X0159315Y0051216D01*
X0159133Y0051505D01*
X0158958Y0051798D01*
X0158791Y0052095D01*
X0158631Y0052396D01*
X0158478Y0052701D01*
X0158332Y0053009D01*
X0158194Y0053321D01*
X0158064Y0053637D01*
X0157942Y0053955D01*
X0157827Y0054276D01*
X0157721Y0054600D01*
X0157622Y0054927D01*
X0157531Y0055256D01*
X0157449Y0055587D01*
X0157374Y0055919D01*
X0157308Y0056254D01*
X0157250Y0056590D01*
X0157200Y0056928D01*
X0157158Y0057266D01*
X0157125Y0057606D01*
X0157100Y0057946D01*
X0157083Y0058286D01*
X0157075Y0058627D01*
X0157075Y0058969D01*
X0157083Y0059310D01*
X0157100Y0059650D01*
X0157125Y0059990D01*
X0157158Y0060330D01*
X0157200Y0060668D01*
X0157250Y0061006D01*
X0157308Y0061342D01*
X0157374Y0061677D01*
X0157449Y0062009D01*
X0157531Y0062340D01*
X0157622Y0062669D01*
X0157721Y0062996D01*
X0157827Y0063320D01*
X0157942Y0063641D01*
X0158064Y0063959D01*
X0158194Y0064275D01*
X0158332Y0064587D01*
X0158478Y0064895D01*
X0158631Y0065200D01*
X0158791Y0065501D01*
X0158958Y0065798D01*
X0159133Y0066091D01*
X0159315Y0066380D01*
X0159504Y0066664D01*
X0159700Y0066943D01*
X0159903Y0067217D01*
X0160112Y0067487D01*
X0160328Y0067751D01*
X0160550Y0068010D01*
X0160778Y0068263D01*
X0161013Y0068511D01*
X0161253Y0068753D01*
X0161500Y0068988D01*
X0161752Y0069218D01*
X0162009Y0069442D01*
X0162272Y0069659D01*
X0162541Y0069870D01*
X0162814Y0070074D01*
X0163092Y0070271D01*
X0163375Y0070461D01*
X0163663Y0070645D01*
X0163955Y0070821D01*
X0164251Y0070990D01*
X0164551Y0071152D01*
X0164855Y0071307D01*
X0165163Y0071454D01*
X0165474Y0071593D01*
X0162875Y0085951D02*
X0140418Y0085951D01*
X0142016Y0087549D02*
X0162875Y0087549D01*
X0162875Y0089148D02*
X0143615Y0089148D01*
X0145214Y0090746D02*
X0162875Y0090746D01*
X0162875Y0092345D02*
X0146812Y0092345D01*
X0148411Y0093943D02*
X0162875Y0093943D01*
X0162875Y0095542D02*
X0150009Y0095542D01*
X0151608Y0097140D02*
X0162875Y0097140D01*
X0162875Y0098739D02*
X0153206Y0098739D01*
X0154805Y0100337D02*
X0162875Y0100337D01*
X0162875Y0101936D02*
X0155175Y0101936D01*
X0155175Y0103534D02*
X0162875Y0103534D01*
X0162875Y0105133D02*
X0155175Y0105133D01*
X0155175Y0106731D02*
X0162875Y0106731D01*
X0162875Y0108330D02*
X0155175Y0108330D01*
X0155175Y0109929D02*
X0162875Y0109929D01*
X0162875Y0111527D02*
X0155994Y0111527D01*
X0157175Y0113126D02*
X0162875Y0113126D01*
X0162875Y0114724D02*
X0157175Y0114724D01*
X0157175Y0116323D02*
X0162875Y0116323D01*
X0162875Y0117921D02*
X0157175Y0117921D01*
X0157175Y0119520D02*
X0157183Y0119520D01*
X0161766Y0119520D02*
X0162875Y0119520D01*
X0162875Y0121118D02*
X0162125Y0121118D01*
X0161418Y0122717D02*
X0162875Y0122717D01*
X0162875Y0124315D02*
X0159347Y0124315D01*
X0161511Y0125914D02*
X0162875Y0125914D01*
X0160646Y0127512D02*
X0160646Y0127512D01*
X0159047Y0129111D02*
X0159047Y0129111D01*
X0157449Y0130709D02*
X0157449Y0130709D01*
X0155850Y0132308D02*
X0155850Y0132308D01*
X0140605Y0103534D02*
X0138566Y0103534D01*
X0136968Y0101936D02*
X0143825Y0101936D01*
X0144802Y0100337D02*
X0135369Y0100337D01*
X0133771Y0098739D02*
X0148398Y0098739D01*
X0148148Y0100337D02*
X0148802Y0100337D01*
X0146799Y0097140D02*
X0132172Y0097140D01*
X0133207Y0098175D02*
X0133207Y0098175D01*
X0130574Y0095542D02*
X0145201Y0095542D01*
X0140405Y0090746D02*
X0097131Y0090746D01*
X0097131Y0089148D02*
X0138807Y0089148D01*
X0137208Y0087549D02*
X0097131Y0087549D01*
X0097131Y0085951D02*
X0134266Y0085951D01*
X0133825Y0084352D02*
X0097131Y0084352D01*
X0097131Y0082754D02*
X0134385Y0082754D01*
X0120235Y0095542D02*
X0120235Y0095542D01*
X0118990Y0095542D02*
X0118989Y0095542D01*
X0125388Y0065170D02*
X0097131Y0065170D01*
X0097131Y0063572D02*
X0125025Y0063572D01*
X0125025Y0062412D02*
X0125025Y0060525D01*
X0125148Y0060067D01*
X0125384Y0059657D01*
X0125720Y0059322D01*
X0126130Y0059085D01*
X0126588Y0058962D01*
X0128475Y0058962D01*
X0128475Y0062412D01*
X0128475Y0062412D01*
X0128475Y0062412D01*
X0125025Y0062412D01*
X0125025Y0061973D02*
X0097131Y0061973D01*
X0097131Y0060375D02*
X0125065Y0060375D01*
X0128475Y0060375D02*
X0128475Y0060375D01*
X0128475Y0061973D02*
X0128475Y0061973D01*
X0128475Y0063572D02*
X0128475Y0063572D01*
X0128475Y0065170D02*
X0128475Y0065170D01*
X0165475Y0040412D02*
X0165469Y0039929D01*
X0165452Y0039446D01*
X0165422Y0038963D01*
X0165382Y0038482D01*
X0165329Y0038001D01*
X0165265Y0037522D01*
X0165190Y0037045D01*
X0165102Y0036569D01*
X0165004Y0036096D01*
X0164894Y0035626D01*
X0164773Y0035158D01*
X0164640Y0034693D01*
X0164496Y0034232D01*
X0164341Y0033774D01*
X0164175Y0033320D01*
X0163998Y0032870D01*
X0163811Y0032425D01*
X0163612Y0031984D01*
X0163404Y0031548D01*
X0163184Y0031118D01*
X0162954Y0030692D01*
X0162714Y0030273D01*
X0162464Y0029859D01*
X0162204Y0029452D01*
X0161935Y0029051D01*
X0161655Y0028656D01*
X0161367Y0028269D01*
X0161068Y0027888D01*
X0160761Y0027515D01*
X0160445Y0027150D01*
X0160120Y0026792D01*
X0159787Y0026442D01*
X0159445Y0026100D01*
X0159095Y0025767D01*
X0158737Y0025442D01*
X0158372Y0025126D01*
X0157999Y0024819D01*
X0157618Y0024520D01*
X0157231Y0024232D01*
X0156836Y0023952D01*
X0156435Y0023683D01*
X0156028Y0023423D01*
X0155614Y0023173D01*
X0155195Y0022933D01*
X0154769Y0022703D01*
X0154339Y0022483D01*
X0153903Y0022275D01*
X0153462Y0022076D01*
X0153017Y0021889D01*
X0152567Y0021712D01*
X0152113Y0021546D01*
X0151655Y0021391D01*
X0151194Y0021247D01*
X0150729Y0021114D01*
X0150261Y0020993D01*
X0149791Y0020883D01*
X0149318Y0020785D01*
X0148842Y0020697D01*
X0148365Y0020622D01*
X0147886Y0020558D01*
X0147405Y0020505D01*
X0146924Y0020465D01*
X0146441Y0020435D01*
X0145958Y0020418D01*
X0145475Y0020412D01*
X0073657Y0020412D02*
X0073495Y0020772D01*
X0073325Y0021128D01*
X0073147Y0021480D01*
X0072960Y0021827D01*
X0072764Y0022170D01*
X0072560Y0022507D01*
X0072348Y0022840D01*
X0072128Y0023167D01*
X0071899Y0023489D01*
X0071663Y0023805D01*
X0071420Y0024115D01*
X0071169Y0024419D01*
X0070910Y0024717D01*
X0070645Y0025008D01*
X0070372Y0025293D01*
X0070092Y0025572D01*
X0069806Y0025843D01*
X0069513Y0026107D01*
X0069214Y0026364D01*
X0068908Y0026613D01*
X0068597Y0026855D01*
X0068279Y0027090D01*
X0067956Y0027316D01*
X0067628Y0027534D01*
X0067294Y0027745D01*
X0066956Y0027947D01*
X0066612Y0028141D01*
X0066264Y0028326D01*
X0065911Y0028503D01*
X0065555Y0028671D01*
X0065194Y0028830D01*
X0064829Y0028981D01*
X0064461Y0029122D01*
X0064090Y0029255D01*
X0063715Y0029378D01*
X0063337Y0029492D01*
X0062957Y0029597D01*
X0062574Y0029693D01*
X0062190Y0029779D01*
X0061803Y0029855D01*
X0061414Y0029923D01*
X0061024Y0029980D01*
X0060632Y0030028D01*
X0060240Y0030067D01*
X0059846Y0030096D01*
X0059453Y0030115D01*
X0059058Y0030125D01*
X0058664Y0030125D01*
X0058269Y0030115D01*
X0057876Y0030096D01*
X0057482Y0030067D01*
X0057090Y0030028D01*
X0056698Y0029980D01*
X0056308Y0029923D01*
X0055919Y0029855D01*
X0055532Y0029779D01*
X0055148Y0029693D01*
X0054765Y0029597D01*
X0054385Y0029492D01*
X0054007Y0029378D01*
X0053632Y0029255D01*
X0053261Y0029122D01*
X0052893Y0028981D01*
X0052528Y0028830D01*
X0052167Y0028671D01*
X0051811Y0028503D01*
X0051458Y0028326D01*
X0051110Y0028141D01*
X0050766Y0027947D01*
X0050428Y0027745D01*
X0050094Y0027534D01*
X0049766Y0027316D01*
X0049443Y0027090D01*
X0049125Y0026855D01*
X0048814Y0026613D01*
X0048508Y0026364D01*
X0048209Y0026107D01*
X0047916Y0025843D01*
X0047630Y0025572D01*
X0047350Y0025293D01*
X0047077Y0025008D01*
X0046812Y0024717D01*
X0046553Y0024419D01*
X0046302Y0024115D01*
X0046059Y0023805D01*
X0045823Y0023489D01*
X0045594Y0023167D01*
X0045374Y0022840D01*
X0045162Y0022507D01*
X0044958Y0022170D01*
X0044762Y0021827D01*
X0044575Y0021480D01*
X0044397Y0021128D01*
X0044227Y0020772D01*
X0044065Y0020412D01*
X0020475Y0044002D02*
X0020835Y0044164D01*
X0021191Y0044334D01*
X0021543Y0044512D01*
X0021890Y0044699D01*
X0022233Y0044895D01*
X0022570Y0045099D01*
X0022903Y0045311D01*
X0023230Y0045531D01*
X0023552Y0045760D01*
X0023868Y0045996D01*
X0024178Y0046239D01*
X0024482Y0046490D01*
X0024780Y0046749D01*
X0025071Y0047014D01*
X0025356Y0047287D01*
X0025635Y0047567D01*
X0025906Y0047853D01*
X0026170Y0048146D01*
X0026427Y0048445D01*
X0026676Y0048751D01*
X0026918Y0049062D01*
X0027153Y0049380D01*
X0027379Y0049703D01*
X0027597Y0050031D01*
X0027808Y0050365D01*
X0028010Y0050703D01*
X0028204Y0051047D01*
X0028389Y0051395D01*
X0028566Y0051748D01*
X0028734Y0052104D01*
X0028893Y0052465D01*
X0029044Y0052830D01*
X0029185Y0053198D01*
X0029318Y0053569D01*
X0029441Y0053944D01*
X0029555Y0054322D01*
X0029660Y0054702D01*
X0029756Y0055085D01*
X0029842Y0055469D01*
X0029918Y0055856D01*
X0029986Y0056245D01*
X0030043Y0056635D01*
X0030091Y0057027D01*
X0030130Y0057419D01*
X0030159Y0057813D01*
X0030178Y0058206D01*
X0030188Y0058601D01*
X0030188Y0058995D01*
X0030178Y0059390D01*
X0030159Y0059783D01*
X0030130Y0060177D01*
X0030091Y0060569D01*
X0030043Y0060961D01*
X0029986Y0061351D01*
X0029918Y0061740D01*
X0029842Y0062127D01*
X0029756Y0062511D01*
X0029660Y0062894D01*
X0029555Y0063274D01*
X0029441Y0063652D01*
X0029318Y0064027D01*
X0029185Y0064398D01*
X0029044Y0064766D01*
X0028893Y0065131D01*
X0028734Y0065492D01*
X0028566Y0065848D01*
X0028389Y0066201D01*
X0028204Y0066549D01*
X0028010Y0066893D01*
X0027808Y0067231D01*
X0027597Y0067565D01*
X0027379Y0067893D01*
X0027153Y0068216D01*
X0026918Y0068534D01*
X0026676Y0068845D01*
X0026427Y0069151D01*
X0026170Y0069450D01*
X0025906Y0069743D01*
X0025635Y0070029D01*
X0025356Y0070309D01*
X0025071Y0070582D01*
X0024780Y0070847D01*
X0024482Y0071106D01*
X0024178Y0071357D01*
X0023868Y0071600D01*
X0023552Y0071836D01*
X0023230Y0072065D01*
X0022903Y0072285D01*
X0022570Y0072497D01*
X0022233Y0072701D01*
X0021890Y0072897D01*
X0021543Y0073084D01*
X0021191Y0073262D01*
X0020835Y0073432D01*
X0020475Y0073594D01*
X0020475Y0073593D02*
X0020475Y0145412D01*
X0037476Y0125914D02*
X0054238Y0125914D01*
X0054025Y0124315D02*
X0039075Y0124315D01*
X0040268Y0122717D02*
X0054025Y0122717D01*
X0054025Y0123412D02*
X0054025Y0121525D01*
X0054148Y0121067D01*
X0054384Y0120657D01*
X0054720Y0120322D01*
X0055130Y0120085D01*
X0055588Y0119962D01*
X0057475Y0119962D01*
X0057475Y0123412D01*
X0057475Y0123412D01*
X0057475Y0123412D01*
X0054025Y0123412D01*
X0054134Y0121118D02*
X0042272Y0121118D01*
X0040932Y0121118D02*
X0038669Y0121118D01*
X0039334Y0119520D02*
X0037071Y0119520D01*
X0037735Y0117921D02*
X0035472Y0117921D01*
X0032968Y0114724D02*
X0032275Y0114724D01*
X0032940Y0113126D02*
X0030677Y0113126D01*
X0031341Y0111527D02*
X0029078Y0111527D01*
X0029743Y0109929D02*
X0027480Y0109929D01*
X0028144Y0108330D02*
X0023075Y0108330D01*
X0023075Y0109929D02*
X0024329Y0109929D01*
X0023075Y0106731D02*
X0027526Y0106731D01*
X0029124Y0105133D02*
X0023075Y0105133D01*
X0023075Y0103534D02*
X0030723Y0103534D01*
X0023267Y0116323D02*
X0023075Y0116323D01*
X0023075Y0117921D02*
X0024866Y0117921D01*
X0057475Y0121118D02*
X0057475Y0121118D01*
X0057475Y0122717D02*
X0057475Y0122717D01*
X0057475Y0124315D02*
X0057475Y0124315D01*
X0057475Y0125914D02*
X0057475Y0125914D01*
X0071656Y0165412D02*
X0149475Y0165412D01*
X0071656Y0165411D02*
X0071517Y0165100D01*
X0071370Y0164792D01*
X0071215Y0164488D01*
X0071053Y0164188D01*
X0070884Y0163892D01*
X0070708Y0163600D01*
X0070524Y0163312D01*
X0070334Y0163029D01*
X0070137Y0162751D01*
X0069933Y0162478D01*
X0069722Y0162209D01*
X0069505Y0161946D01*
X0069281Y0161689D01*
X0069051Y0161437D01*
X0068816Y0161190D01*
X0068574Y0160950D01*
X0068326Y0160715D01*
X0068073Y0160487D01*
X0067814Y0160265D01*
X0067550Y0160049D01*
X0067280Y0159840D01*
X0067006Y0159637D01*
X0066727Y0159441D01*
X0066443Y0159252D01*
X0066154Y0159070D01*
X0065861Y0158895D01*
X0065564Y0158728D01*
X0065263Y0158568D01*
X0064958Y0158415D01*
X0064650Y0158269D01*
X0064338Y0158131D01*
X0064022Y0158001D01*
X0063704Y0157879D01*
X0063383Y0157764D01*
X0063059Y0157658D01*
X0062732Y0157559D01*
X0062403Y0157468D01*
X0062072Y0157386D01*
X0061740Y0157311D01*
X0061405Y0157245D01*
X0061069Y0157187D01*
X0060731Y0157137D01*
X0060393Y0157095D01*
X0060053Y0157062D01*
X0059713Y0157037D01*
X0059373Y0157020D01*
X0059032Y0157012D01*
X0058690Y0157012D01*
X0058349Y0157020D01*
X0058009Y0157037D01*
X0057669Y0157062D01*
X0057329Y0157095D01*
X0056991Y0157137D01*
X0056653Y0157187D01*
X0056317Y0157245D01*
X0055982Y0157311D01*
X0055650Y0157386D01*
X0055319Y0157468D01*
X0054990Y0157559D01*
X0054663Y0157658D01*
X0054339Y0157764D01*
X0054018Y0157879D01*
X0053700Y0158001D01*
X0053384Y0158131D01*
X0053072Y0158269D01*
X0052764Y0158415D01*
X0052459Y0158568D01*
X0052158Y0158728D01*
X0051861Y0158895D01*
X0051568Y0159070D01*
X0051279Y0159252D01*
X0050995Y0159441D01*
X0050716Y0159637D01*
X0050442Y0159840D01*
X0050172Y0160049D01*
X0049908Y0160265D01*
X0049649Y0160487D01*
X0049396Y0160715D01*
X0049148Y0160950D01*
X0048906Y0161190D01*
X0048671Y0161437D01*
X0048441Y0161689D01*
X0048217Y0161946D01*
X0048000Y0162209D01*
X0047789Y0162478D01*
X0047585Y0162751D01*
X0047388Y0163029D01*
X0047198Y0163312D01*
X0047014Y0163600D01*
X0046838Y0163892D01*
X0046669Y0164188D01*
X0046507Y0164488D01*
X0046352Y0164792D01*
X0046205Y0165100D01*
X0046066Y0165411D01*
D12*
G36*
X0023147Y0113657D02*
X0035167Y0125677D01*
X0044359Y0116485D01*
X0032339Y0104465D01*
X0023147Y0113657D01*
G37*
G36*
X0104465Y0032339D02*
X0116485Y0044359D01*
X0125677Y0035167D01*
X0113657Y0023147D01*
X0104465Y0032339D01*
G37*
D13*
X0128475Y0062412D03*
X0123475Y0128412D03*
X0057475Y0123412D03*
X0062475Y0057412D03*
D14*
X0060475Y0147912D03*
X0060475Y0152912D03*
X0065475Y0152912D03*
X0065475Y0147912D03*
X0055475Y0147912D03*
X0055475Y0152912D03*
D15*
G36*
X0100889Y0123517D02*
X0095741Y0128665D01*
X0097133Y0130057D01*
X0102281Y0124909D01*
X0100889Y0123517D01*
G37*
G36*
X0102838Y0125466D02*
X0097690Y0130614D01*
X0099082Y0132006D01*
X0104230Y0126858D01*
X0102838Y0125466D01*
G37*
G36*
X0104787Y0127415D02*
X0099639Y0132563D01*
X0101031Y0133955D01*
X0106179Y0128807D01*
X0104787Y0127415D01*
G37*
G36*
X0106736Y0129363D02*
X0101588Y0134511D01*
X0102980Y0135903D01*
X0108128Y0130755D01*
X0106736Y0129363D01*
G37*
G36*
X0108684Y0131312D02*
X0103536Y0136460D01*
X0104928Y0137852D01*
X0110076Y0132704D01*
X0108684Y0131312D01*
G37*
G36*
X0110633Y0133261D02*
X0105485Y0138409D01*
X0106877Y0139801D01*
X0112025Y0134653D01*
X0110633Y0133261D01*
G37*
G36*
X0112582Y0135210D02*
X0107434Y0140358D01*
X0108826Y0141750D01*
X0113974Y0136602D01*
X0112582Y0135210D01*
G37*
G36*
X0114530Y0137158D02*
X0109382Y0142306D01*
X0110774Y0143698D01*
X0115922Y0138550D01*
X0114530Y0137158D01*
G37*
G36*
X0116479Y0139107D02*
X0111331Y0144255D01*
X0112723Y0145647D01*
X0117871Y0140499D01*
X0116479Y0139107D01*
G37*
G36*
X0118428Y0141056D02*
X0113280Y0146204D01*
X0114672Y0147596D01*
X0119820Y0142448D01*
X0118428Y0141056D01*
G37*
G36*
X0130120Y0152748D02*
X0124972Y0157896D01*
X0126364Y0159288D01*
X0131512Y0154140D01*
X0130120Y0152748D01*
G37*
G36*
X0132069Y0154697D02*
X0126921Y0159845D01*
X0128313Y0161237D01*
X0133461Y0156089D01*
X0132069Y0154697D01*
G37*
G36*
X0159908Y0126858D02*
X0154760Y0132006D01*
X0156152Y0133398D01*
X0161300Y0128250D01*
X0159908Y0126858D01*
G37*
G36*
X0157959Y0124909D02*
X0152811Y0130057D01*
X0154203Y0131449D01*
X0159351Y0126301D01*
X0157959Y0124909D01*
G37*
G36*
X0156010Y0122961D02*
X0150862Y0128109D01*
X0152254Y0129501D01*
X0157402Y0124353D01*
X0156010Y0122961D01*
G37*
G36*
X0154062Y0121012D02*
X0148914Y0126160D01*
X0150306Y0127552D01*
X0155454Y0122404D01*
X0154062Y0121012D01*
G37*
G36*
X0152113Y0119063D02*
X0146965Y0124211D01*
X0148357Y0125603D01*
X0153505Y0120455D01*
X0152113Y0119063D01*
G37*
G36*
X0150164Y0117114D02*
X0145016Y0122262D01*
X0146408Y0123654D01*
X0151556Y0118506D01*
X0150164Y0117114D01*
G37*
G36*
X0148216Y0115166D02*
X0143068Y0120314D01*
X0144460Y0121706D01*
X0149608Y0116558D01*
X0148216Y0115166D01*
G37*
G36*
X0146267Y0113217D02*
X0141119Y0118365D01*
X0142511Y0119757D01*
X0147659Y0114609D01*
X0146267Y0113217D01*
G37*
G36*
X0144318Y0111268D02*
X0139170Y0116416D01*
X0140562Y0117808D01*
X0145710Y0112660D01*
X0144318Y0111268D01*
G37*
G36*
X0142369Y0109320D02*
X0137221Y0114468D01*
X0138613Y0115860D01*
X0143761Y0110712D01*
X0142369Y0109320D01*
G37*
G36*
X0140421Y0107371D02*
X0135273Y0112519D01*
X0136665Y0113911D01*
X0141813Y0108763D01*
X0140421Y0107371D01*
G37*
G36*
X0138472Y0105422D02*
X0133324Y0110570D01*
X0134716Y0111962D01*
X0139864Y0106814D01*
X0138472Y0105422D01*
G37*
G36*
X0136523Y0103473D02*
X0131375Y0108621D01*
X0132767Y0110013D01*
X0137915Y0104865D01*
X0136523Y0103473D01*
G37*
G36*
X0134574Y0101525D02*
X0129426Y0106673D01*
X0130818Y0108065D01*
X0135966Y0102917D01*
X0134574Y0101525D01*
G37*
G36*
X0132626Y0099576D02*
X0127478Y0104724D01*
X0128870Y0106116D01*
X0134018Y0100968D01*
X0132626Y0099576D01*
G37*
G36*
X0130677Y0097627D02*
X0125529Y0102775D01*
X0126921Y0104167D01*
X0132069Y0099019D01*
X0130677Y0097627D01*
G37*
G36*
X0128728Y0095678D02*
X0123580Y0100826D01*
X0124972Y0102218D01*
X0130120Y0097070D01*
X0128728Y0095678D01*
G37*
D16*
G36*
X0117734Y0092895D02*
X0116342Y0094287D01*
X0121490Y0099435D01*
X0122882Y0098043D01*
X0117734Y0092895D01*
G37*
G36*
X0115785Y0094843D02*
X0114393Y0096235D01*
X0119541Y0101383D01*
X0120933Y0099991D01*
X0115785Y0094843D01*
G37*
G36*
X0113837Y0096792D02*
X0112445Y0098184D01*
X0117593Y0103332D01*
X0118985Y0101940D01*
X0113837Y0096792D01*
G37*
G36*
X0111888Y0098741D02*
X0110496Y0100133D01*
X0115644Y0105281D01*
X0117036Y0103889D01*
X0111888Y0098741D01*
G37*
G36*
X0109939Y0100689D02*
X0108547Y0102081D01*
X0113695Y0107229D01*
X0115087Y0105837D01*
X0109939Y0100689D01*
G37*
G36*
X0107991Y0102638D02*
X0106599Y0104030D01*
X0111747Y0109178D01*
X0113139Y0107786D01*
X0107991Y0102638D01*
G37*
G36*
X0106042Y0104587D02*
X0104650Y0105979D01*
X0109798Y0111127D01*
X0111190Y0109735D01*
X0106042Y0104587D01*
G37*
G36*
X0104093Y0106536D02*
X0102701Y0107928D01*
X0107849Y0113076D01*
X0109241Y0111684D01*
X0104093Y0106536D01*
G37*
G36*
X0102144Y0108484D02*
X0100752Y0109876D01*
X0105900Y0115024D01*
X0107292Y0113632D01*
X0102144Y0108484D01*
G37*
G36*
X0100196Y0110433D02*
X0098804Y0111825D01*
X0103952Y0116973D01*
X0105344Y0115581D01*
X0100196Y0110433D01*
G37*
G36*
X0098247Y0112382D02*
X0096855Y0113774D01*
X0102003Y0118922D01*
X0103395Y0117530D01*
X0098247Y0112382D01*
G37*
G36*
X0096298Y0114331D02*
X0094906Y0115723D01*
X0100054Y0120871D01*
X0101446Y0119479D01*
X0096298Y0114331D01*
G37*
G36*
X0094350Y0116279D02*
X0092958Y0117671D01*
X0098106Y0122819D01*
X0099498Y0121427D01*
X0094350Y0116279D01*
G37*
D17*
X0086821Y0123412D03*
X0080128Y0123412D03*
G36*
X0076702Y0134968D02*
X0079763Y0131907D01*
X0076980Y0129124D01*
X0073919Y0132185D01*
X0076702Y0134968D01*
G37*
G36*
X0071970Y0139700D02*
X0075031Y0136639D01*
X0072248Y0133856D01*
X0069187Y0136917D01*
X0071970Y0139700D01*
G37*
G36*
X0089970Y0155700D02*
X0093031Y0152639D01*
X0090248Y0149856D01*
X0087187Y0152917D01*
X0089970Y0155700D01*
G37*
G36*
X0094702Y0150968D02*
X0097763Y0147907D01*
X0094980Y0145124D01*
X0091919Y0148185D01*
X0094702Y0150968D01*
G37*
X0103128Y0150412D03*
X0109821Y0150412D03*
D18*
G36*
X0082780Y0147005D02*
X0085842Y0150067D01*
X0091130Y0144779D01*
X0088068Y0141717D01*
X0082780Y0147005D01*
G37*
G36*
X0075820Y0140045D02*
X0078882Y0143107D01*
X0084170Y0137819D01*
X0081108Y0134757D01*
X0075820Y0140045D01*
G37*
D19*
X0079995Y0138932D02*
X0079995Y0135199D01*
X0076841Y0132046D01*
X0071475Y0128412D02*
X0076475Y0123412D01*
X0080128Y0123412D01*
X0086128Y0129412D01*
X0089475Y0129412D01*
X0096228Y0122659D01*
X0096228Y0119549D01*
X0099090Y0122412D01*
X0102975Y0122412D01*
X0108975Y0128412D01*
X0123475Y0128412D01*
X0128475Y0133412D01*
X0154475Y0133412D01*
X0157759Y0130128D01*
X0158030Y0130128D01*
X0154132Y0126231D02*
X0156475Y0123888D01*
X0123475Y0128412D02*
X0123475Y0151412D01*
X0128242Y0156179D01*
X0128242Y0156018D01*
X0127869Y0156018D01*
X0124475Y0159412D01*
X0119475Y0159412D01*
X0113975Y0153912D01*
X0106628Y0153912D01*
X0103128Y0150412D01*
X0102128Y0152758D01*
X0100475Y0154412D01*
X0091742Y0154412D01*
X0090109Y0152778D01*
X0089109Y0148046D02*
X0094841Y0148046D01*
X0089109Y0148046D02*
X0086955Y0145892D01*
X0087995Y0145892D01*
X0094475Y0139412D01*
X0098079Y0139412D01*
X0104858Y0132633D01*
X0102909Y0130978D02*
X0102909Y0130685D01*
X0102909Y0130978D02*
X0099475Y0134412D01*
X0084515Y0134412D01*
X0079995Y0138932D01*
X0072109Y0136778D02*
X0071475Y0136144D01*
X0071475Y0128412D01*
X0072109Y0136778D02*
X0070128Y0139758D01*
X0066475Y0143412D01*
X0066475Y0146912D01*
X0065475Y0147912D01*
X0055475Y0147912D02*
X0048975Y0141412D01*
X0041475Y0141412D01*
X0057475Y0123758D02*
X0072109Y0136778D01*
X0057475Y0123758D02*
X0057475Y0123412D01*
X0049134Y0115071D01*
X0062475Y0101729D01*
X0062475Y0057412D01*
X0095231Y0053592D02*
X0095231Y0114655D01*
X0098176Y0117601D01*
X0098176Y0117113D01*
X0095475Y0114412D01*
X0094988Y0114412D01*
X0095231Y0114655D01*
X0094988Y0114412D02*
X0089475Y0114412D01*
X0088475Y0115412D01*
X0086821Y0117065D01*
X0086821Y0123412D01*
X0109821Y0150412D02*
X0111464Y0149412D01*
X0116550Y0144326D01*
X0118475Y0146251D01*
X0118475Y0148412D01*
X0128242Y0156179D02*
X0128475Y0156412D01*
X0128636Y0156412D01*
X0130191Y0157967D01*
X0123475Y0128412D02*
X0122475Y0127412D01*
X0122475Y0099412D01*
X0119612Y0096549D01*
X0119612Y0096165D01*
X0128475Y0087302D01*
X0128475Y0062412D01*
X0135475Y0035412D02*
X0133816Y0033753D01*
X0115071Y0033753D01*
X0095231Y0053592D01*
X0049134Y0115071D02*
X0033753Y0115071D01*
D20*
X0041475Y0141412D03*
X0044475Y0156412D03*
X0079475Y0159412D03*
X0118475Y0148412D03*
X0088475Y0115412D03*
X0136475Y0084412D03*
X0146475Y0102412D03*
X0150475Y0102412D03*
X0147475Y0106412D03*
X0142475Y0105412D03*
X0159475Y0120912D03*
X0135475Y0035412D03*
D21*
X0136475Y0084412D02*
X0153475Y0101412D01*
X0153475Y0111412D01*
X0155475Y0113412D01*
X0155475Y0120991D01*
X0152184Y0124282D01*
X0150235Y0122333D02*
X0150235Y0121652D01*
X0153475Y0118412D01*
X0153475Y0113412D01*
X0151475Y0111412D01*
X0151475Y0103412D01*
X0150475Y0102412D01*
X0149975Y0105412D02*
X0146475Y0102412D01*
X0149975Y0105412D02*
X0149975Y0111912D01*
X0151475Y0113412D01*
X0151475Y0117412D01*
X0148502Y0120384D01*
X0148286Y0120384D01*
X0146451Y0118436D02*
X0146338Y0118436D01*
X0146451Y0118436D02*
X0149475Y0115412D01*
X0149475Y0113412D01*
X0148475Y0112412D01*
X0148475Y0107412D01*
X0147475Y0106412D01*
X0146975Y0109912D02*
X0146975Y0113912D01*
X0144400Y0116487D01*
X0144389Y0116487D01*
X0146975Y0109912D02*
X0142475Y0105412D01*
X0159475Y0120912D02*
X0156475Y0123888D01*
X0079475Y0159412D02*
X0070475Y0159412D01*
X0066475Y0155412D01*
X0062975Y0155412D01*
X0060475Y0152912D01*
X0055475Y0152912D02*
X0051975Y0156412D01*
X0044475Y0156412D01*
M02*
