G75*
%MOIN*%
%OFA0B0*%
%FSLAX25Y25*%
%IPPOS*%
%LPD*%
%AMOC8*
5,1,8,0,0,1.08239X$1,22.5*
%
%ADD10C,0.00000*%
%ADD11C,0.01600*%
%ADD12C,0.07400*%
%ADD13C,0.15000*%
%ADD14C,0.02500*%
%ADD15C,0.00600*%
%ADD16C,0.02700*%
%ADD17C,0.01000*%
D10*
X0017840Y0042840D02*
X0017842Y0042966D01*
X0017848Y0043092D01*
X0017858Y0043218D01*
X0017872Y0043344D01*
X0017890Y0043469D01*
X0017912Y0043593D01*
X0017937Y0043717D01*
X0017967Y0043840D01*
X0018000Y0043961D01*
X0018038Y0044082D01*
X0018079Y0044201D01*
X0018124Y0044320D01*
X0018172Y0044436D01*
X0018224Y0044551D01*
X0018280Y0044664D01*
X0018340Y0044776D01*
X0018403Y0044885D01*
X0018469Y0044993D01*
X0018538Y0045098D01*
X0018611Y0045201D01*
X0018688Y0045302D01*
X0018767Y0045400D01*
X0018849Y0045496D01*
X0018935Y0045589D01*
X0019023Y0045680D01*
X0019114Y0045767D01*
X0019208Y0045852D01*
X0019304Y0045933D01*
X0019403Y0046012D01*
X0019504Y0046087D01*
X0019608Y0046159D01*
X0019714Y0046228D01*
X0019822Y0046294D01*
X0019932Y0046356D01*
X0020044Y0046414D01*
X0020157Y0046469D01*
X0020273Y0046520D01*
X0020390Y0046568D01*
X0020508Y0046612D01*
X0020628Y0046652D01*
X0020749Y0046688D01*
X0020871Y0046721D01*
X0020994Y0046750D01*
X0021118Y0046774D01*
X0021242Y0046795D01*
X0021367Y0046812D01*
X0021493Y0046825D01*
X0021619Y0046834D01*
X0021745Y0046839D01*
X0021872Y0046840D01*
X0021998Y0046837D01*
X0022124Y0046830D01*
X0022250Y0046819D01*
X0022375Y0046804D01*
X0022500Y0046785D01*
X0022624Y0046762D01*
X0022748Y0046736D01*
X0022870Y0046705D01*
X0022992Y0046671D01*
X0023112Y0046632D01*
X0023231Y0046590D01*
X0023349Y0046545D01*
X0023465Y0046495D01*
X0023580Y0046442D01*
X0023692Y0046385D01*
X0023803Y0046325D01*
X0023912Y0046261D01*
X0024019Y0046194D01*
X0024124Y0046124D01*
X0024227Y0046050D01*
X0024327Y0045973D01*
X0024425Y0045893D01*
X0024520Y0045810D01*
X0024612Y0045724D01*
X0024702Y0045635D01*
X0024789Y0045543D01*
X0024872Y0045449D01*
X0024953Y0045352D01*
X0025031Y0045252D01*
X0025106Y0045150D01*
X0025177Y0045046D01*
X0025245Y0044939D01*
X0025309Y0044831D01*
X0025370Y0044720D01*
X0025428Y0044608D01*
X0025482Y0044494D01*
X0025532Y0044378D01*
X0025579Y0044261D01*
X0025622Y0044142D01*
X0025661Y0044022D01*
X0025697Y0043901D01*
X0025728Y0043778D01*
X0025756Y0043655D01*
X0025780Y0043531D01*
X0025800Y0043406D01*
X0025816Y0043281D01*
X0025828Y0043155D01*
X0025836Y0043029D01*
X0025840Y0042903D01*
X0025840Y0042777D01*
X0025836Y0042651D01*
X0025828Y0042525D01*
X0025816Y0042399D01*
X0025800Y0042274D01*
X0025780Y0042149D01*
X0025756Y0042025D01*
X0025728Y0041902D01*
X0025697Y0041779D01*
X0025661Y0041658D01*
X0025622Y0041538D01*
X0025579Y0041419D01*
X0025532Y0041302D01*
X0025482Y0041186D01*
X0025428Y0041072D01*
X0025370Y0040960D01*
X0025309Y0040849D01*
X0025245Y0040741D01*
X0025177Y0040634D01*
X0025106Y0040530D01*
X0025031Y0040428D01*
X0024953Y0040328D01*
X0024872Y0040231D01*
X0024789Y0040137D01*
X0024702Y0040045D01*
X0024612Y0039956D01*
X0024520Y0039870D01*
X0024425Y0039787D01*
X0024327Y0039707D01*
X0024227Y0039630D01*
X0024124Y0039556D01*
X0024019Y0039486D01*
X0023912Y0039419D01*
X0023803Y0039355D01*
X0023692Y0039295D01*
X0023580Y0039238D01*
X0023465Y0039185D01*
X0023349Y0039135D01*
X0023231Y0039090D01*
X0023112Y0039048D01*
X0022992Y0039009D01*
X0022870Y0038975D01*
X0022748Y0038944D01*
X0022624Y0038918D01*
X0022500Y0038895D01*
X0022375Y0038876D01*
X0022250Y0038861D01*
X0022124Y0038850D01*
X0021998Y0038843D01*
X0021872Y0038840D01*
X0021745Y0038841D01*
X0021619Y0038846D01*
X0021493Y0038855D01*
X0021367Y0038868D01*
X0021242Y0038885D01*
X0021118Y0038906D01*
X0020994Y0038930D01*
X0020871Y0038959D01*
X0020749Y0038992D01*
X0020628Y0039028D01*
X0020508Y0039068D01*
X0020390Y0039112D01*
X0020273Y0039160D01*
X0020157Y0039211D01*
X0020044Y0039266D01*
X0019932Y0039324D01*
X0019822Y0039386D01*
X0019714Y0039452D01*
X0019608Y0039521D01*
X0019504Y0039593D01*
X0019403Y0039668D01*
X0019304Y0039747D01*
X0019208Y0039828D01*
X0019114Y0039913D01*
X0019023Y0040000D01*
X0018935Y0040091D01*
X0018849Y0040184D01*
X0018767Y0040280D01*
X0018688Y0040378D01*
X0018611Y0040479D01*
X0018538Y0040582D01*
X0018469Y0040687D01*
X0018403Y0040795D01*
X0018340Y0040904D01*
X0018280Y0041016D01*
X0018224Y0041129D01*
X0018172Y0041244D01*
X0018124Y0041360D01*
X0018079Y0041479D01*
X0018038Y0041598D01*
X0018000Y0041719D01*
X0017967Y0041840D01*
X0017937Y0041963D01*
X0017912Y0042087D01*
X0017890Y0042211D01*
X0017872Y0042336D01*
X0017858Y0042462D01*
X0017848Y0042588D01*
X0017842Y0042714D01*
X0017840Y0042840D01*
X0038840Y0021840D02*
X0038842Y0021966D01*
X0038848Y0022092D01*
X0038858Y0022218D01*
X0038872Y0022344D01*
X0038890Y0022469D01*
X0038912Y0022593D01*
X0038937Y0022717D01*
X0038967Y0022840D01*
X0039000Y0022961D01*
X0039038Y0023082D01*
X0039079Y0023201D01*
X0039124Y0023320D01*
X0039172Y0023436D01*
X0039224Y0023551D01*
X0039280Y0023664D01*
X0039340Y0023776D01*
X0039403Y0023885D01*
X0039469Y0023993D01*
X0039538Y0024098D01*
X0039611Y0024201D01*
X0039688Y0024302D01*
X0039767Y0024400D01*
X0039849Y0024496D01*
X0039935Y0024589D01*
X0040023Y0024680D01*
X0040114Y0024767D01*
X0040208Y0024852D01*
X0040304Y0024933D01*
X0040403Y0025012D01*
X0040504Y0025087D01*
X0040608Y0025159D01*
X0040714Y0025228D01*
X0040822Y0025294D01*
X0040932Y0025356D01*
X0041044Y0025414D01*
X0041157Y0025469D01*
X0041273Y0025520D01*
X0041390Y0025568D01*
X0041508Y0025612D01*
X0041628Y0025652D01*
X0041749Y0025688D01*
X0041871Y0025721D01*
X0041994Y0025750D01*
X0042118Y0025774D01*
X0042242Y0025795D01*
X0042367Y0025812D01*
X0042493Y0025825D01*
X0042619Y0025834D01*
X0042745Y0025839D01*
X0042872Y0025840D01*
X0042998Y0025837D01*
X0043124Y0025830D01*
X0043250Y0025819D01*
X0043375Y0025804D01*
X0043500Y0025785D01*
X0043624Y0025762D01*
X0043748Y0025736D01*
X0043870Y0025705D01*
X0043992Y0025671D01*
X0044112Y0025632D01*
X0044231Y0025590D01*
X0044349Y0025545D01*
X0044465Y0025495D01*
X0044580Y0025442D01*
X0044692Y0025385D01*
X0044803Y0025325D01*
X0044912Y0025261D01*
X0045019Y0025194D01*
X0045124Y0025124D01*
X0045227Y0025050D01*
X0045327Y0024973D01*
X0045425Y0024893D01*
X0045520Y0024810D01*
X0045612Y0024724D01*
X0045702Y0024635D01*
X0045789Y0024543D01*
X0045872Y0024449D01*
X0045953Y0024352D01*
X0046031Y0024252D01*
X0046106Y0024150D01*
X0046177Y0024046D01*
X0046245Y0023939D01*
X0046309Y0023831D01*
X0046370Y0023720D01*
X0046428Y0023608D01*
X0046482Y0023494D01*
X0046532Y0023378D01*
X0046579Y0023261D01*
X0046622Y0023142D01*
X0046661Y0023022D01*
X0046697Y0022901D01*
X0046728Y0022778D01*
X0046756Y0022655D01*
X0046780Y0022531D01*
X0046800Y0022406D01*
X0046816Y0022281D01*
X0046828Y0022155D01*
X0046836Y0022029D01*
X0046840Y0021903D01*
X0046840Y0021777D01*
X0046836Y0021651D01*
X0046828Y0021525D01*
X0046816Y0021399D01*
X0046800Y0021274D01*
X0046780Y0021149D01*
X0046756Y0021025D01*
X0046728Y0020902D01*
X0046697Y0020779D01*
X0046661Y0020658D01*
X0046622Y0020538D01*
X0046579Y0020419D01*
X0046532Y0020302D01*
X0046482Y0020186D01*
X0046428Y0020072D01*
X0046370Y0019960D01*
X0046309Y0019849D01*
X0046245Y0019741D01*
X0046177Y0019634D01*
X0046106Y0019530D01*
X0046031Y0019428D01*
X0045953Y0019328D01*
X0045872Y0019231D01*
X0045789Y0019137D01*
X0045702Y0019045D01*
X0045612Y0018956D01*
X0045520Y0018870D01*
X0045425Y0018787D01*
X0045327Y0018707D01*
X0045227Y0018630D01*
X0045124Y0018556D01*
X0045019Y0018486D01*
X0044912Y0018419D01*
X0044803Y0018355D01*
X0044692Y0018295D01*
X0044580Y0018238D01*
X0044465Y0018185D01*
X0044349Y0018135D01*
X0044231Y0018090D01*
X0044112Y0018048D01*
X0043992Y0018009D01*
X0043870Y0017975D01*
X0043748Y0017944D01*
X0043624Y0017918D01*
X0043500Y0017895D01*
X0043375Y0017876D01*
X0043250Y0017861D01*
X0043124Y0017850D01*
X0042998Y0017843D01*
X0042872Y0017840D01*
X0042745Y0017841D01*
X0042619Y0017846D01*
X0042493Y0017855D01*
X0042367Y0017868D01*
X0042242Y0017885D01*
X0042118Y0017906D01*
X0041994Y0017930D01*
X0041871Y0017959D01*
X0041749Y0017992D01*
X0041628Y0018028D01*
X0041508Y0018068D01*
X0041390Y0018112D01*
X0041273Y0018160D01*
X0041157Y0018211D01*
X0041044Y0018266D01*
X0040932Y0018324D01*
X0040822Y0018386D01*
X0040714Y0018452D01*
X0040608Y0018521D01*
X0040504Y0018593D01*
X0040403Y0018668D01*
X0040304Y0018747D01*
X0040208Y0018828D01*
X0040114Y0018913D01*
X0040023Y0019000D01*
X0039935Y0019091D01*
X0039849Y0019184D01*
X0039767Y0019280D01*
X0039688Y0019378D01*
X0039611Y0019479D01*
X0039538Y0019582D01*
X0039469Y0019687D01*
X0039403Y0019795D01*
X0039340Y0019904D01*
X0039280Y0020016D01*
X0039224Y0020129D01*
X0039172Y0020244D01*
X0039124Y0020360D01*
X0039079Y0020479D01*
X0039038Y0020598D01*
X0039000Y0020719D01*
X0038967Y0020840D01*
X0038937Y0020963D01*
X0038912Y0021087D01*
X0038890Y0021211D01*
X0038872Y0021336D01*
X0038858Y0021462D01*
X0038848Y0021588D01*
X0038842Y0021714D01*
X0038840Y0021840D01*
X0144840Y0027840D02*
X0144842Y0027966D01*
X0144848Y0028092D01*
X0144858Y0028218D01*
X0144872Y0028344D01*
X0144890Y0028469D01*
X0144912Y0028593D01*
X0144937Y0028717D01*
X0144967Y0028840D01*
X0145000Y0028961D01*
X0145038Y0029082D01*
X0145079Y0029201D01*
X0145124Y0029320D01*
X0145172Y0029436D01*
X0145224Y0029551D01*
X0145280Y0029664D01*
X0145340Y0029776D01*
X0145403Y0029885D01*
X0145469Y0029993D01*
X0145538Y0030098D01*
X0145611Y0030201D01*
X0145688Y0030302D01*
X0145767Y0030400D01*
X0145849Y0030496D01*
X0145935Y0030589D01*
X0146023Y0030680D01*
X0146114Y0030767D01*
X0146208Y0030852D01*
X0146304Y0030933D01*
X0146403Y0031012D01*
X0146504Y0031087D01*
X0146608Y0031159D01*
X0146714Y0031228D01*
X0146822Y0031294D01*
X0146932Y0031356D01*
X0147044Y0031414D01*
X0147157Y0031469D01*
X0147273Y0031520D01*
X0147390Y0031568D01*
X0147508Y0031612D01*
X0147628Y0031652D01*
X0147749Y0031688D01*
X0147871Y0031721D01*
X0147994Y0031750D01*
X0148118Y0031774D01*
X0148242Y0031795D01*
X0148367Y0031812D01*
X0148493Y0031825D01*
X0148619Y0031834D01*
X0148745Y0031839D01*
X0148872Y0031840D01*
X0148998Y0031837D01*
X0149124Y0031830D01*
X0149250Y0031819D01*
X0149375Y0031804D01*
X0149500Y0031785D01*
X0149624Y0031762D01*
X0149748Y0031736D01*
X0149870Y0031705D01*
X0149992Y0031671D01*
X0150112Y0031632D01*
X0150231Y0031590D01*
X0150349Y0031545D01*
X0150465Y0031495D01*
X0150580Y0031442D01*
X0150692Y0031385D01*
X0150803Y0031325D01*
X0150912Y0031261D01*
X0151019Y0031194D01*
X0151124Y0031124D01*
X0151227Y0031050D01*
X0151327Y0030973D01*
X0151425Y0030893D01*
X0151520Y0030810D01*
X0151612Y0030724D01*
X0151702Y0030635D01*
X0151789Y0030543D01*
X0151872Y0030449D01*
X0151953Y0030352D01*
X0152031Y0030252D01*
X0152106Y0030150D01*
X0152177Y0030046D01*
X0152245Y0029939D01*
X0152309Y0029831D01*
X0152370Y0029720D01*
X0152428Y0029608D01*
X0152482Y0029494D01*
X0152532Y0029378D01*
X0152579Y0029261D01*
X0152622Y0029142D01*
X0152661Y0029022D01*
X0152697Y0028901D01*
X0152728Y0028778D01*
X0152756Y0028655D01*
X0152780Y0028531D01*
X0152800Y0028406D01*
X0152816Y0028281D01*
X0152828Y0028155D01*
X0152836Y0028029D01*
X0152840Y0027903D01*
X0152840Y0027777D01*
X0152836Y0027651D01*
X0152828Y0027525D01*
X0152816Y0027399D01*
X0152800Y0027274D01*
X0152780Y0027149D01*
X0152756Y0027025D01*
X0152728Y0026902D01*
X0152697Y0026779D01*
X0152661Y0026658D01*
X0152622Y0026538D01*
X0152579Y0026419D01*
X0152532Y0026302D01*
X0152482Y0026186D01*
X0152428Y0026072D01*
X0152370Y0025960D01*
X0152309Y0025849D01*
X0152245Y0025741D01*
X0152177Y0025634D01*
X0152106Y0025530D01*
X0152031Y0025428D01*
X0151953Y0025328D01*
X0151872Y0025231D01*
X0151789Y0025137D01*
X0151702Y0025045D01*
X0151612Y0024956D01*
X0151520Y0024870D01*
X0151425Y0024787D01*
X0151327Y0024707D01*
X0151227Y0024630D01*
X0151124Y0024556D01*
X0151019Y0024486D01*
X0150912Y0024419D01*
X0150803Y0024355D01*
X0150692Y0024295D01*
X0150580Y0024238D01*
X0150465Y0024185D01*
X0150349Y0024135D01*
X0150231Y0024090D01*
X0150112Y0024048D01*
X0149992Y0024009D01*
X0149870Y0023975D01*
X0149748Y0023944D01*
X0149624Y0023918D01*
X0149500Y0023895D01*
X0149375Y0023876D01*
X0149250Y0023861D01*
X0149124Y0023850D01*
X0148998Y0023843D01*
X0148872Y0023840D01*
X0148745Y0023841D01*
X0148619Y0023846D01*
X0148493Y0023855D01*
X0148367Y0023868D01*
X0148242Y0023885D01*
X0148118Y0023906D01*
X0147994Y0023930D01*
X0147871Y0023959D01*
X0147749Y0023992D01*
X0147628Y0024028D01*
X0147508Y0024068D01*
X0147390Y0024112D01*
X0147273Y0024160D01*
X0147157Y0024211D01*
X0147044Y0024266D01*
X0146932Y0024324D01*
X0146822Y0024386D01*
X0146714Y0024452D01*
X0146608Y0024521D01*
X0146504Y0024593D01*
X0146403Y0024668D01*
X0146304Y0024747D01*
X0146208Y0024828D01*
X0146114Y0024913D01*
X0146023Y0025000D01*
X0145935Y0025091D01*
X0145849Y0025184D01*
X0145767Y0025280D01*
X0145688Y0025378D01*
X0145611Y0025479D01*
X0145538Y0025582D01*
X0145469Y0025687D01*
X0145403Y0025795D01*
X0145340Y0025904D01*
X0145280Y0026016D01*
X0145224Y0026129D01*
X0145172Y0026244D01*
X0145124Y0026360D01*
X0145079Y0026479D01*
X0145038Y0026598D01*
X0145000Y0026719D01*
X0144967Y0026840D01*
X0144937Y0026963D01*
X0144912Y0027087D01*
X0144890Y0027211D01*
X0144872Y0027336D01*
X0144858Y0027462D01*
X0144848Y0027588D01*
X0144842Y0027714D01*
X0144840Y0027840D01*
X0147840Y0144840D02*
X0147842Y0144966D01*
X0147848Y0145092D01*
X0147858Y0145218D01*
X0147872Y0145344D01*
X0147890Y0145469D01*
X0147912Y0145593D01*
X0147937Y0145717D01*
X0147967Y0145840D01*
X0148000Y0145961D01*
X0148038Y0146082D01*
X0148079Y0146201D01*
X0148124Y0146320D01*
X0148172Y0146436D01*
X0148224Y0146551D01*
X0148280Y0146664D01*
X0148340Y0146776D01*
X0148403Y0146885D01*
X0148469Y0146993D01*
X0148538Y0147098D01*
X0148611Y0147201D01*
X0148688Y0147302D01*
X0148767Y0147400D01*
X0148849Y0147496D01*
X0148935Y0147589D01*
X0149023Y0147680D01*
X0149114Y0147767D01*
X0149208Y0147852D01*
X0149304Y0147933D01*
X0149403Y0148012D01*
X0149504Y0148087D01*
X0149608Y0148159D01*
X0149714Y0148228D01*
X0149822Y0148294D01*
X0149932Y0148356D01*
X0150044Y0148414D01*
X0150157Y0148469D01*
X0150273Y0148520D01*
X0150390Y0148568D01*
X0150508Y0148612D01*
X0150628Y0148652D01*
X0150749Y0148688D01*
X0150871Y0148721D01*
X0150994Y0148750D01*
X0151118Y0148774D01*
X0151242Y0148795D01*
X0151367Y0148812D01*
X0151493Y0148825D01*
X0151619Y0148834D01*
X0151745Y0148839D01*
X0151872Y0148840D01*
X0151998Y0148837D01*
X0152124Y0148830D01*
X0152250Y0148819D01*
X0152375Y0148804D01*
X0152500Y0148785D01*
X0152624Y0148762D01*
X0152748Y0148736D01*
X0152870Y0148705D01*
X0152992Y0148671D01*
X0153112Y0148632D01*
X0153231Y0148590D01*
X0153349Y0148545D01*
X0153465Y0148495D01*
X0153580Y0148442D01*
X0153692Y0148385D01*
X0153803Y0148325D01*
X0153912Y0148261D01*
X0154019Y0148194D01*
X0154124Y0148124D01*
X0154227Y0148050D01*
X0154327Y0147973D01*
X0154425Y0147893D01*
X0154520Y0147810D01*
X0154612Y0147724D01*
X0154702Y0147635D01*
X0154789Y0147543D01*
X0154872Y0147449D01*
X0154953Y0147352D01*
X0155031Y0147252D01*
X0155106Y0147150D01*
X0155177Y0147046D01*
X0155245Y0146939D01*
X0155309Y0146831D01*
X0155370Y0146720D01*
X0155428Y0146608D01*
X0155482Y0146494D01*
X0155532Y0146378D01*
X0155579Y0146261D01*
X0155622Y0146142D01*
X0155661Y0146022D01*
X0155697Y0145901D01*
X0155728Y0145778D01*
X0155756Y0145655D01*
X0155780Y0145531D01*
X0155800Y0145406D01*
X0155816Y0145281D01*
X0155828Y0145155D01*
X0155836Y0145029D01*
X0155840Y0144903D01*
X0155840Y0144777D01*
X0155836Y0144651D01*
X0155828Y0144525D01*
X0155816Y0144399D01*
X0155800Y0144274D01*
X0155780Y0144149D01*
X0155756Y0144025D01*
X0155728Y0143902D01*
X0155697Y0143779D01*
X0155661Y0143658D01*
X0155622Y0143538D01*
X0155579Y0143419D01*
X0155532Y0143302D01*
X0155482Y0143186D01*
X0155428Y0143072D01*
X0155370Y0142960D01*
X0155309Y0142849D01*
X0155245Y0142741D01*
X0155177Y0142634D01*
X0155106Y0142530D01*
X0155031Y0142428D01*
X0154953Y0142328D01*
X0154872Y0142231D01*
X0154789Y0142137D01*
X0154702Y0142045D01*
X0154612Y0141956D01*
X0154520Y0141870D01*
X0154425Y0141787D01*
X0154327Y0141707D01*
X0154227Y0141630D01*
X0154124Y0141556D01*
X0154019Y0141486D01*
X0153912Y0141419D01*
X0153803Y0141355D01*
X0153692Y0141295D01*
X0153580Y0141238D01*
X0153465Y0141185D01*
X0153349Y0141135D01*
X0153231Y0141090D01*
X0153112Y0141048D01*
X0152992Y0141009D01*
X0152870Y0140975D01*
X0152748Y0140944D01*
X0152624Y0140918D01*
X0152500Y0140895D01*
X0152375Y0140876D01*
X0152250Y0140861D01*
X0152124Y0140850D01*
X0151998Y0140843D01*
X0151872Y0140840D01*
X0151745Y0140841D01*
X0151619Y0140846D01*
X0151493Y0140855D01*
X0151367Y0140868D01*
X0151242Y0140885D01*
X0151118Y0140906D01*
X0150994Y0140930D01*
X0150871Y0140959D01*
X0150749Y0140992D01*
X0150628Y0141028D01*
X0150508Y0141068D01*
X0150390Y0141112D01*
X0150273Y0141160D01*
X0150157Y0141211D01*
X0150044Y0141266D01*
X0149932Y0141324D01*
X0149822Y0141386D01*
X0149714Y0141452D01*
X0149608Y0141521D01*
X0149504Y0141593D01*
X0149403Y0141668D01*
X0149304Y0141747D01*
X0149208Y0141828D01*
X0149114Y0141913D01*
X0149023Y0142000D01*
X0148935Y0142091D01*
X0148849Y0142184D01*
X0148767Y0142280D01*
X0148688Y0142378D01*
X0148611Y0142479D01*
X0148538Y0142582D01*
X0148469Y0142687D01*
X0148403Y0142795D01*
X0148340Y0142904D01*
X0148280Y0143016D01*
X0148224Y0143129D01*
X0148172Y0143244D01*
X0148124Y0143360D01*
X0148079Y0143479D01*
X0148038Y0143598D01*
X0148000Y0143719D01*
X0147967Y0143840D01*
X0147937Y0143963D01*
X0147912Y0144087D01*
X0147890Y0144211D01*
X0147872Y0144336D01*
X0147858Y0144462D01*
X0147848Y0144588D01*
X0147842Y0144714D01*
X0147840Y0144840D01*
X0023840Y0148840D02*
X0023842Y0148966D01*
X0023848Y0149092D01*
X0023858Y0149218D01*
X0023872Y0149344D01*
X0023890Y0149469D01*
X0023912Y0149593D01*
X0023937Y0149717D01*
X0023967Y0149840D01*
X0024000Y0149961D01*
X0024038Y0150082D01*
X0024079Y0150201D01*
X0024124Y0150320D01*
X0024172Y0150436D01*
X0024224Y0150551D01*
X0024280Y0150664D01*
X0024340Y0150776D01*
X0024403Y0150885D01*
X0024469Y0150993D01*
X0024538Y0151098D01*
X0024611Y0151201D01*
X0024688Y0151302D01*
X0024767Y0151400D01*
X0024849Y0151496D01*
X0024935Y0151589D01*
X0025023Y0151680D01*
X0025114Y0151767D01*
X0025208Y0151852D01*
X0025304Y0151933D01*
X0025403Y0152012D01*
X0025504Y0152087D01*
X0025608Y0152159D01*
X0025714Y0152228D01*
X0025822Y0152294D01*
X0025932Y0152356D01*
X0026044Y0152414D01*
X0026157Y0152469D01*
X0026273Y0152520D01*
X0026390Y0152568D01*
X0026508Y0152612D01*
X0026628Y0152652D01*
X0026749Y0152688D01*
X0026871Y0152721D01*
X0026994Y0152750D01*
X0027118Y0152774D01*
X0027242Y0152795D01*
X0027367Y0152812D01*
X0027493Y0152825D01*
X0027619Y0152834D01*
X0027745Y0152839D01*
X0027872Y0152840D01*
X0027998Y0152837D01*
X0028124Y0152830D01*
X0028250Y0152819D01*
X0028375Y0152804D01*
X0028500Y0152785D01*
X0028624Y0152762D01*
X0028748Y0152736D01*
X0028870Y0152705D01*
X0028992Y0152671D01*
X0029112Y0152632D01*
X0029231Y0152590D01*
X0029349Y0152545D01*
X0029465Y0152495D01*
X0029580Y0152442D01*
X0029692Y0152385D01*
X0029803Y0152325D01*
X0029912Y0152261D01*
X0030019Y0152194D01*
X0030124Y0152124D01*
X0030227Y0152050D01*
X0030327Y0151973D01*
X0030425Y0151893D01*
X0030520Y0151810D01*
X0030612Y0151724D01*
X0030702Y0151635D01*
X0030789Y0151543D01*
X0030872Y0151449D01*
X0030953Y0151352D01*
X0031031Y0151252D01*
X0031106Y0151150D01*
X0031177Y0151046D01*
X0031245Y0150939D01*
X0031309Y0150831D01*
X0031370Y0150720D01*
X0031428Y0150608D01*
X0031482Y0150494D01*
X0031532Y0150378D01*
X0031579Y0150261D01*
X0031622Y0150142D01*
X0031661Y0150022D01*
X0031697Y0149901D01*
X0031728Y0149778D01*
X0031756Y0149655D01*
X0031780Y0149531D01*
X0031800Y0149406D01*
X0031816Y0149281D01*
X0031828Y0149155D01*
X0031836Y0149029D01*
X0031840Y0148903D01*
X0031840Y0148777D01*
X0031836Y0148651D01*
X0031828Y0148525D01*
X0031816Y0148399D01*
X0031800Y0148274D01*
X0031780Y0148149D01*
X0031756Y0148025D01*
X0031728Y0147902D01*
X0031697Y0147779D01*
X0031661Y0147658D01*
X0031622Y0147538D01*
X0031579Y0147419D01*
X0031532Y0147302D01*
X0031482Y0147186D01*
X0031428Y0147072D01*
X0031370Y0146960D01*
X0031309Y0146849D01*
X0031245Y0146741D01*
X0031177Y0146634D01*
X0031106Y0146530D01*
X0031031Y0146428D01*
X0030953Y0146328D01*
X0030872Y0146231D01*
X0030789Y0146137D01*
X0030702Y0146045D01*
X0030612Y0145956D01*
X0030520Y0145870D01*
X0030425Y0145787D01*
X0030327Y0145707D01*
X0030227Y0145630D01*
X0030124Y0145556D01*
X0030019Y0145486D01*
X0029912Y0145419D01*
X0029803Y0145355D01*
X0029692Y0145295D01*
X0029580Y0145238D01*
X0029465Y0145185D01*
X0029349Y0145135D01*
X0029231Y0145090D01*
X0029112Y0145048D01*
X0028992Y0145009D01*
X0028870Y0144975D01*
X0028748Y0144944D01*
X0028624Y0144918D01*
X0028500Y0144895D01*
X0028375Y0144876D01*
X0028250Y0144861D01*
X0028124Y0144850D01*
X0027998Y0144843D01*
X0027872Y0144840D01*
X0027745Y0144841D01*
X0027619Y0144846D01*
X0027493Y0144855D01*
X0027367Y0144868D01*
X0027242Y0144885D01*
X0027118Y0144906D01*
X0026994Y0144930D01*
X0026871Y0144959D01*
X0026749Y0144992D01*
X0026628Y0145028D01*
X0026508Y0145068D01*
X0026390Y0145112D01*
X0026273Y0145160D01*
X0026157Y0145211D01*
X0026044Y0145266D01*
X0025932Y0145324D01*
X0025822Y0145386D01*
X0025714Y0145452D01*
X0025608Y0145521D01*
X0025504Y0145593D01*
X0025403Y0145668D01*
X0025304Y0145747D01*
X0025208Y0145828D01*
X0025114Y0145913D01*
X0025023Y0146000D01*
X0024935Y0146091D01*
X0024849Y0146184D01*
X0024767Y0146280D01*
X0024688Y0146378D01*
X0024611Y0146479D01*
X0024538Y0146582D01*
X0024469Y0146687D01*
X0024403Y0146795D01*
X0024340Y0146904D01*
X0024280Y0147016D01*
X0024224Y0147129D01*
X0024172Y0147244D01*
X0024124Y0147360D01*
X0024079Y0147479D01*
X0024038Y0147598D01*
X0024000Y0147719D01*
X0023967Y0147840D01*
X0023937Y0147963D01*
X0023912Y0148087D01*
X0023890Y0148211D01*
X0023872Y0148336D01*
X0023858Y0148462D01*
X0023848Y0148588D01*
X0023842Y0148714D01*
X0023840Y0148840D01*
D11*
X0020569Y0025965D02*
X0022963Y0022963D01*
X0025965Y0020569D01*
X0029425Y0018902D01*
X0033169Y0018048D01*
X0035089Y0017940D01*
X0037831Y0017940D01*
X0037499Y0018272D01*
X0036540Y0020587D01*
X0036540Y0023093D01*
X0037499Y0025409D01*
X0039272Y0027181D01*
X0041587Y0028140D01*
X0044093Y0028140D01*
X0046409Y0027181D01*
X0048181Y0025409D01*
X0049140Y0023093D01*
X0049140Y0020587D01*
X0048181Y0018272D01*
X0047850Y0017940D01*
X0139840Y0017940D01*
X0141732Y0018046D01*
X0145422Y0018889D01*
X0148832Y0020531D01*
X0150102Y0021544D01*
X0150093Y0021540D01*
X0147587Y0021540D01*
X0145272Y0022499D01*
X0143499Y0024272D01*
X0142540Y0026587D01*
X0142540Y0029093D01*
X0143499Y0031409D01*
X0145272Y0033181D01*
X0147587Y0034140D01*
X0150093Y0034140D01*
X0152409Y0033181D01*
X0154181Y0031409D01*
X0155140Y0029093D01*
X0155140Y0027905D01*
X0155792Y0029258D01*
X0156634Y0032948D01*
X0156740Y0034840D01*
X0156740Y0039528D01*
X0155729Y0038517D01*
X0153855Y0037740D01*
X0151826Y0037740D01*
X0149951Y0038517D01*
X0148517Y0039951D01*
X0148050Y0041077D01*
X0147937Y0040729D01*
X0147544Y0039958D01*
X0147035Y0039257D01*
X0146423Y0038645D01*
X0145723Y0038136D01*
X0144951Y0037743D01*
X0144128Y0037476D01*
X0143273Y0037340D01*
X0143040Y0037340D01*
X0143040Y0042640D01*
X0142640Y0042640D01*
X0142640Y0037340D01*
X0142407Y0037340D01*
X0141552Y0037476D01*
X0140729Y0037743D01*
X0139958Y0038136D01*
X0139257Y0038645D01*
X0138645Y0039257D01*
X0138136Y0039958D01*
X0137743Y0040729D01*
X0137476Y0041552D01*
X0137340Y0042407D01*
X0137340Y0042640D01*
X0142640Y0042640D01*
X0142640Y0043040D01*
X0137340Y0043040D01*
X0137340Y0043273D01*
X0137476Y0044128D01*
X0137743Y0044951D01*
X0138136Y0045723D01*
X0138645Y0046423D01*
X0139257Y0047035D01*
X0139958Y0047544D01*
X0140729Y0047937D01*
X0141552Y0048205D01*
X0142407Y0048340D01*
X0142640Y0048340D01*
X0142640Y0043040D01*
X0143040Y0043040D01*
X0143040Y0048340D01*
X0143273Y0048340D01*
X0144128Y0048205D01*
X0144951Y0047937D01*
X0145723Y0047544D01*
X0146423Y0047035D01*
X0147035Y0046423D01*
X0147544Y0045723D01*
X0147937Y0044951D01*
X0148050Y0044603D01*
X0148517Y0045729D01*
X0149951Y0047164D01*
X0151826Y0047940D01*
X0153855Y0047940D01*
X0155044Y0047448D01*
X0155140Y0047544D01*
X0155140Y0068736D01*
X0151544Y0065140D01*
X0137728Y0065140D01*
X0137747Y0065086D01*
X0138016Y0064554D01*
X0137978Y0064437D01*
X0138460Y0063084D01*
X0138564Y0063018D01*
X0138691Y0062435D01*
X0138891Y0061873D01*
X0138838Y0061762D01*
X0139146Y0060360D01*
X0139240Y0060281D01*
X0139293Y0059687D01*
X0139421Y0059104D01*
X0139354Y0059000D01*
X0139479Y0057606D01*
X0139540Y0057544D01*
X0139540Y0056916D01*
X0139555Y0056745D01*
X0139593Y0056701D01*
X0139577Y0056507D01*
X0139596Y0056290D01*
X0139554Y0056240D01*
X0139540Y0056069D01*
X0139540Y0055436D01*
X0139482Y0055378D01*
X0139368Y0054012D01*
X0139437Y0053905D01*
X0139311Y0053326D01*
X0139262Y0052735D01*
X0139165Y0052653D01*
X0138864Y0051269D01*
X0138918Y0051154D01*
X0138717Y0050596D01*
X0138592Y0050017D01*
X0138485Y0049948D01*
X0138005Y0048615D01*
X0138044Y0048494D01*
X0137773Y0047967D01*
X0137572Y0047409D01*
X0137457Y0047355D01*
X0136808Y0046096D01*
X0136831Y0045971D01*
X0136493Y0045484D01*
X0136221Y0044957D01*
X0136100Y0044919D01*
X0135292Y0043755D01*
X0135298Y0043628D01*
X0134899Y0043189D01*
X0134561Y0042702D01*
X0134436Y0042680D01*
X0133483Y0041632D01*
X0133473Y0041505D01*
X0133020Y0041122D01*
X0132622Y0040683D01*
X0132495Y0040677D01*
X0131413Y0039763D01*
X0131386Y0039638D01*
X0130888Y0039318D01*
X0130435Y0038935D01*
X0130308Y0038946D01*
X0129117Y0038180D01*
X0129074Y0038060D01*
X0128537Y0037807D01*
X0128039Y0037487D01*
X0127915Y0037514D01*
X0126633Y0036910D01*
X0126575Y0036797D01*
X0126010Y0036617D01*
X0125474Y0036364D01*
X0125355Y0036407D01*
X0124005Y0035976D01*
X0123933Y0035871D01*
X0123349Y0035766D01*
X0122785Y0035585D01*
X0122672Y0035644D01*
X0121278Y0035392D01*
X0121192Y0035298D01*
X0120600Y0035270D01*
X0120017Y0035165D01*
X0119913Y0035237D01*
X0118519Y0035171D01*
X0118440Y0035101D01*
X0117829Y0035138D01*
X0117218Y0035109D01*
X0117140Y0035179D01*
X0115912Y0035254D01*
X0115816Y0035187D01*
X0115224Y0035295D01*
X0114624Y0035332D01*
X0114546Y0035420D01*
X0113324Y0035643D01*
X0113220Y0035589D01*
X0112646Y0035768D01*
X0112055Y0035876D01*
X0111988Y0035973D01*
X0110802Y0036342D01*
X0110692Y0036301D01*
X0110144Y0036547D01*
X0109570Y0036726D01*
X0109515Y0036830D01*
X0108383Y0037340D01*
X0108269Y0037312D01*
X0107754Y0037623D01*
X0107206Y0037870D01*
X0107164Y0037980D01*
X0106101Y0038622D01*
X0105985Y0038608D01*
X0105511Y0038979D01*
X0104997Y0039290D01*
X0104969Y0039404D01*
X0103991Y0040170D01*
X0103874Y0040170D01*
X0103448Y0040595D01*
X0102975Y0040966D01*
X0102961Y0041083D01*
X0102083Y0041961D01*
X0101966Y0041975D01*
X0101595Y0042448D01*
X0101170Y0042874D01*
X0101170Y0042991D01*
X0100404Y0043969D01*
X0100290Y0043997D01*
X0099979Y0044511D01*
X0099608Y0044985D01*
X0099622Y0045101D01*
X0098980Y0046164D01*
X0098870Y0046206D01*
X0098623Y0046754D01*
X0098312Y0047269D01*
X0098340Y0047383D01*
X0097830Y0048515D01*
X0097726Y0048570D01*
X0097547Y0049144D01*
X0097301Y0049692D01*
X0097342Y0049802D01*
X0096973Y0050988D01*
X0096925Y0051021D01*
X0095540Y0049636D01*
X0095540Y0049029D01*
X0096171Y0048398D01*
X0096590Y0047387D01*
X0096590Y0046293D01*
X0096171Y0045282D01*
X0095398Y0044509D01*
X0094387Y0044090D01*
X0093293Y0044090D01*
X0092282Y0044509D01*
X0091509Y0045282D01*
X0091090Y0046293D01*
X0091090Y0047387D01*
X0091509Y0048398D01*
X0092140Y0049029D01*
X0092140Y0051044D01*
X0096240Y0055144D01*
X0096179Y0056152D01*
X0096101Y0056240D01*
X0096137Y0056840D01*
X0096101Y0057440D01*
X0096179Y0057528D01*
X0096254Y0058768D01*
X0096187Y0058865D01*
X0096295Y0059456D01*
X0096332Y0060056D01*
X0096420Y0060134D01*
X0096643Y0061356D01*
X0096589Y0061460D01*
X0096768Y0062034D01*
X0096876Y0062626D01*
X0096973Y0062692D01*
X0097342Y0063878D01*
X0097301Y0063988D01*
X0097547Y0064536D01*
X0097726Y0065110D01*
X0097830Y0065165D01*
X0098340Y0066297D01*
X0098312Y0066411D01*
X0098623Y0066926D01*
X0098870Y0067474D01*
X0098980Y0067516D01*
X0099622Y0068579D01*
X0099608Y0068696D01*
X0099979Y0069169D01*
X0100290Y0069684D01*
X0100404Y0069712D01*
X0101170Y0070689D01*
X0101170Y0070807D01*
X0101595Y0071232D01*
X0101966Y0071705D01*
X0102083Y0071720D01*
X0102961Y0072598D01*
X0102975Y0072714D01*
X0103448Y0073085D01*
X0103874Y0073510D01*
X0103991Y0073510D01*
X0104969Y0074276D01*
X0104997Y0074390D01*
X0105511Y0074702D01*
X0105985Y0075072D01*
X0106101Y0075058D01*
X0107164Y0075701D01*
X0107206Y0075811D01*
X0107754Y0076057D01*
X0108269Y0076368D01*
X0108383Y0076340D01*
X0109515Y0076850D01*
X0109570Y0076954D01*
X0110144Y0077133D01*
X0110160Y0077140D01*
X0096029Y0077140D01*
X0095398Y0076509D01*
X0094387Y0076090D01*
X0094299Y0076090D01*
X0094590Y0075387D01*
X0094590Y0074293D01*
X0094171Y0073282D01*
X0093398Y0072509D01*
X0092387Y0072090D01*
X0091293Y0072090D01*
X0090282Y0072509D01*
X0090151Y0072640D01*
X0071714Y0072640D01*
X0071720Y0072598D01*
X0072598Y0071720D01*
X0072714Y0071705D01*
X0073085Y0071232D01*
X0073510Y0070807D01*
X0073510Y0070689D01*
X0074276Y0069712D01*
X0074390Y0069684D01*
X0074702Y0069169D01*
X0075072Y0068696D01*
X0075058Y0068579D01*
X0075701Y0067516D01*
X0075811Y0067474D01*
X0076057Y0066926D01*
X0076368Y0066411D01*
X0076340Y0066297D01*
X0076850Y0065165D01*
X0076954Y0065110D01*
X0077133Y0064536D01*
X0077380Y0063988D01*
X0077338Y0063878D01*
X0077707Y0062692D01*
X0077804Y0062626D01*
X0077913Y0062034D01*
X0078092Y0061460D01*
X0078037Y0061356D01*
X0078261Y0060134D01*
X0078349Y0060056D01*
X0078385Y0059456D01*
X0078493Y0058865D01*
X0078427Y0058768D01*
X0078503Y0057501D01*
X0078596Y0057391D01*
X0078545Y0056816D01*
X0078580Y0056240D01*
X0078484Y0056132D01*
X0078354Y0054680D01*
X0078421Y0054576D01*
X0078293Y0053994D01*
X0078240Y0053400D01*
X0078146Y0053321D01*
X0077839Y0051918D01*
X0077891Y0051807D01*
X0077691Y0051245D01*
X0077564Y0050662D01*
X0077460Y0050596D01*
X0076978Y0049243D01*
X0077016Y0049126D01*
X0076747Y0048594D01*
X0076547Y0048033D01*
X0076436Y0047980D01*
X0075787Y0046699D01*
X0075810Y0046578D01*
X0075475Y0046084D01*
X0075206Y0045552D01*
X0075089Y0045514D01*
X0074284Y0044325D01*
X0074291Y0044202D01*
X0073897Y0043755D01*
X0073563Y0043261D01*
X0073442Y0043238D01*
X0072493Y0042160D01*
X0072485Y0042037D01*
X0072037Y0041643D01*
X0071643Y0041195D01*
X0071520Y0041188D01*
X0070443Y0040238D01*
X0070420Y0040118D01*
X0069926Y0039783D01*
X0069478Y0039389D01*
X0069355Y0039397D01*
X0068167Y0038591D01*
X0068128Y0038474D01*
X0067596Y0038205D01*
X0067102Y0037870D01*
X0066982Y0037894D01*
X0065701Y0037245D01*
X0065648Y0037134D01*
X0065086Y0036933D01*
X0064554Y0036664D01*
X0064437Y0036702D01*
X0063084Y0036220D01*
X0063018Y0036117D01*
X0062435Y0035989D01*
X0061873Y0035789D01*
X0061762Y0035842D01*
X0060360Y0035535D01*
X0060281Y0035440D01*
X0059687Y0035387D01*
X0059104Y0035260D01*
X0059000Y0035326D01*
X0057606Y0035202D01*
X0057544Y0035140D01*
X0056916Y0035140D01*
X0056745Y0035125D01*
X0056701Y0035088D01*
X0056507Y0035104D01*
X0056290Y0035084D01*
X0056240Y0035126D01*
X0056069Y0035140D01*
X0055436Y0035140D01*
X0055378Y0035198D01*
X0054012Y0035312D01*
X0053905Y0035243D01*
X0053326Y0035369D01*
X0052735Y0035418D01*
X0052653Y0035515D01*
X0051269Y0035817D01*
X0051154Y0035762D01*
X0050596Y0035963D01*
X0050017Y0036089D01*
X0049948Y0036196D01*
X0048615Y0036675D01*
X0048494Y0036636D01*
X0047967Y0036908D01*
X0047409Y0037108D01*
X0047355Y0037223D01*
X0046096Y0037872D01*
X0045971Y0037850D01*
X0045484Y0038188D01*
X0044957Y0038459D01*
X0044919Y0038580D01*
X0043755Y0039388D01*
X0043628Y0039382D01*
X0043189Y0039781D01*
X0042702Y0040119D01*
X0042680Y0040244D01*
X0041632Y0041197D01*
X0041505Y0041207D01*
X0041122Y0041660D01*
X0040683Y0042059D01*
X0040677Y0042186D01*
X0039763Y0043267D01*
X0039638Y0043294D01*
X0039318Y0043793D01*
X0038935Y0044245D01*
X0038946Y0044372D01*
X0038180Y0045564D01*
X0038060Y0045607D01*
X0037807Y0046143D01*
X0037487Y0046641D01*
X0037514Y0046766D01*
X0036910Y0048047D01*
X0036797Y0048105D01*
X0036617Y0048670D01*
X0036364Y0049206D01*
X0036407Y0049326D01*
X0035976Y0050675D01*
X0035871Y0050748D01*
X0035766Y0051331D01*
X0035585Y0051895D01*
X0035644Y0052008D01*
X0035392Y0053403D01*
X0035298Y0053488D01*
X0035270Y0054080D01*
X0035165Y0054663D01*
X0035237Y0054768D01*
X0035171Y0056161D01*
X0035101Y0056240D01*
X0035138Y0056851D01*
X0035109Y0057463D01*
X0035179Y0057541D01*
X0035254Y0058768D01*
X0035187Y0058865D01*
X0035295Y0059456D01*
X0035332Y0060056D01*
X0035420Y0060134D01*
X0035643Y0061356D01*
X0035589Y0061460D01*
X0035768Y0062034D01*
X0035876Y0062626D01*
X0035973Y0062692D01*
X0036342Y0063878D01*
X0036301Y0063988D01*
X0036547Y0064536D01*
X0036726Y0065110D01*
X0036830Y0065165D01*
X0037340Y0066297D01*
X0037312Y0066411D01*
X0037623Y0066926D01*
X0037870Y0067474D01*
X0037980Y0067516D01*
X0038622Y0068579D01*
X0038608Y0068696D01*
X0038979Y0069169D01*
X0039290Y0069684D01*
X0039404Y0069712D01*
X0040170Y0070689D01*
X0040170Y0070807D01*
X0040595Y0071232D01*
X0040966Y0071705D01*
X0041083Y0071720D01*
X0041961Y0072598D01*
X0041975Y0072714D01*
X0042448Y0073085D01*
X0042874Y0073510D01*
X0042991Y0073510D01*
X0043969Y0074276D01*
X0043997Y0074390D01*
X0044511Y0074702D01*
X0044985Y0075072D01*
X0045101Y0075058D01*
X0046164Y0075701D01*
X0046206Y0075811D01*
X0046754Y0076057D01*
X0047269Y0076368D01*
X0047383Y0076340D01*
X0048515Y0076850D01*
X0048570Y0076954D01*
X0049144Y0077133D01*
X0049692Y0077380D01*
X0049802Y0077338D01*
X0050988Y0077707D01*
X0051055Y0077804D01*
X0051646Y0077913D01*
X0052220Y0078092D01*
X0052324Y0078037D01*
X0053546Y0078261D01*
X0053624Y0078349D01*
X0054224Y0078385D01*
X0054816Y0078493D01*
X0054912Y0078427D01*
X0056152Y0078502D01*
X0056240Y0078580D01*
X0056840Y0078543D01*
X0057440Y0078580D01*
X0057528Y0078502D01*
X0058768Y0078427D01*
X0058865Y0078493D01*
X0059456Y0078385D01*
X0060056Y0078349D01*
X0060134Y0078261D01*
X0061021Y0078098D01*
X0063090Y0080356D01*
X0063090Y0081387D01*
X0063509Y0082398D01*
X0064282Y0083171D01*
X0065293Y0083590D01*
X0066387Y0083590D01*
X0067398Y0083171D01*
X0068171Y0082398D01*
X0068590Y0081387D01*
X0068590Y0080293D01*
X0068171Y0079282D01*
X0067398Y0078509D01*
X0066387Y0078090D01*
X0065625Y0078090D01*
X0064701Y0077082D01*
X0065110Y0076954D01*
X0065165Y0076850D01*
X0066297Y0076340D01*
X0066411Y0076368D01*
X0066926Y0076057D01*
X0066964Y0076040D01*
X0089361Y0076040D01*
X0089509Y0076398D01*
X0090282Y0077171D01*
X0091293Y0077590D01*
X0091381Y0077590D01*
X0091166Y0078110D01*
X0091140Y0078136D01*
X0073136Y0096140D01*
X0072140Y0097136D01*
X0072140Y0102503D01*
X0071720Y0102083D01*
X0071705Y0101966D01*
X0071232Y0101595D01*
X0070807Y0101170D01*
X0070689Y0101170D01*
X0069712Y0100404D01*
X0069684Y0100290D01*
X0069169Y0099979D01*
X0068696Y0099608D01*
X0068579Y0099622D01*
X0067516Y0098980D01*
X0067474Y0098870D01*
X0066926Y0098623D01*
X0066411Y0098312D01*
X0066297Y0098340D01*
X0065165Y0097830D01*
X0065110Y0097726D01*
X0064536Y0097547D01*
X0063988Y0097301D01*
X0063878Y0097342D01*
X0062692Y0096973D01*
X0062626Y0096876D01*
X0062034Y0096768D01*
X0061460Y0096589D01*
X0061356Y0096643D01*
X0060134Y0096420D01*
X0060056Y0096332D01*
X0059456Y0096295D01*
X0058865Y0096187D01*
X0058768Y0096254D01*
X0057501Y0096177D01*
X0057391Y0096084D01*
X0056816Y0096136D01*
X0056240Y0096101D01*
X0056132Y0096197D01*
X0054680Y0096326D01*
X0054576Y0096260D01*
X0053994Y0096387D01*
X0053400Y0096440D01*
X0053321Y0096535D01*
X0051918Y0096842D01*
X0051807Y0096789D01*
X0051245Y0096989D01*
X0050662Y0097117D01*
X0050596Y0097220D01*
X0049243Y0097702D01*
X0049126Y0097664D01*
X0048594Y0097933D01*
X0048033Y0098134D01*
X0047980Y0098245D01*
X0046699Y0098894D01*
X0046578Y0098870D01*
X0046084Y0099205D01*
X0045552Y0099474D01*
X0045514Y0099591D01*
X0044325Y0100397D01*
X0044202Y0100389D01*
X0043755Y0100783D01*
X0043261Y0101118D01*
X0043238Y0101238D01*
X0042160Y0102188D01*
X0042037Y0102195D01*
X0041643Y0102643D01*
X0041195Y0103037D01*
X0041188Y0103160D01*
X0040238Y0104238D01*
X0040118Y0104261D01*
X0039783Y0104755D01*
X0039389Y0105202D01*
X0039397Y0105325D01*
X0038591Y0106514D01*
X0038474Y0106552D01*
X0038205Y0107084D01*
X0037870Y0107578D01*
X0037894Y0107699D01*
X0037245Y0108980D01*
X0037134Y0109033D01*
X0036933Y0109594D01*
X0036664Y0110126D01*
X0036702Y0110243D01*
X0036220Y0111596D01*
X0036117Y0111662D01*
X0035989Y0112245D01*
X0035789Y0112807D01*
X0035842Y0112918D01*
X0035535Y0114321D01*
X0035440Y0114400D01*
X0035387Y0114994D01*
X0035260Y0115576D01*
X0035326Y0115680D01*
X0035202Y0117074D01*
X0035140Y0117136D01*
X0035140Y0117764D01*
X0035125Y0117936D01*
X0035088Y0117980D01*
X0035104Y0118174D01*
X0035084Y0118391D01*
X0035126Y0118440D01*
X0035140Y0118611D01*
X0035140Y0119244D01*
X0035198Y0119302D01*
X0035312Y0120668D01*
X0035243Y0120775D01*
X0035369Y0121354D01*
X0035418Y0121945D01*
X0035515Y0122027D01*
X0035817Y0123411D01*
X0035762Y0123526D01*
X0035963Y0124084D01*
X0036089Y0124663D01*
X0036196Y0124732D01*
X0036675Y0126065D01*
X0036636Y0126186D01*
X0036908Y0126713D01*
X0037108Y0127271D01*
X0037223Y0127325D01*
X0037872Y0128584D01*
X0037850Y0128709D01*
X0038188Y0129196D01*
X0038459Y0129723D01*
X0038580Y0129762D01*
X0039388Y0130925D01*
X0039382Y0131052D01*
X0039781Y0131491D01*
X0040119Y0131978D01*
X0040244Y0132000D01*
X0041197Y0133049D01*
X0041207Y0133175D01*
X0041660Y0133558D01*
X0042059Y0133997D01*
X0042186Y0134003D01*
X0043267Y0134918D01*
X0043294Y0135042D01*
X0043793Y0135362D01*
X0044245Y0135745D01*
X0044372Y0135735D01*
X0045564Y0136501D01*
X0045607Y0136620D01*
X0046143Y0136873D01*
X0046641Y0137193D01*
X0046766Y0137166D01*
X0048047Y0137770D01*
X0048105Y0137883D01*
X0048670Y0138064D01*
X0049206Y0138316D01*
X0049326Y0138273D01*
X0050675Y0138705D01*
X0050748Y0138809D01*
X0051331Y0138914D01*
X0051895Y0139095D01*
X0052008Y0139037D01*
X0053403Y0139288D01*
X0053488Y0139382D01*
X0054080Y0139410D01*
X0054663Y0139516D01*
X0054768Y0139443D01*
X0056161Y0139510D01*
X0056240Y0139580D01*
X0056851Y0139543D01*
X0057463Y0139572D01*
X0057541Y0139501D01*
X0058768Y0139427D01*
X0058865Y0139493D01*
X0059456Y0139385D01*
X0060056Y0139349D01*
X0060134Y0139261D01*
X0061356Y0139037D01*
X0061460Y0139092D01*
X0062034Y0138913D01*
X0062626Y0138804D01*
X0062692Y0138707D01*
X0063878Y0138338D01*
X0063988Y0138380D01*
X0064536Y0138133D01*
X0065110Y0137954D01*
X0065165Y0137850D01*
X0066297Y0137340D01*
X0066411Y0137368D01*
X0066926Y0137057D01*
X0067474Y0136811D01*
X0067516Y0136701D01*
X0068579Y0136058D01*
X0068696Y0136072D01*
X0069169Y0135702D01*
X0069684Y0135390D01*
X0069712Y0135276D01*
X0070689Y0134510D01*
X0070807Y0134510D01*
X0071232Y0134085D01*
X0071705Y0133714D01*
X0071720Y0133598D01*
X0072598Y0132720D01*
X0072714Y0132705D01*
X0073085Y0132232D01*
X0073510Y0131807D01*
X0073510Y0131689D01*
X0074276Y0130712D01*
X0074390Y0130684D01*
X0074702Y0130169D01*
X0075072Y0129696D01*
X0075058Y0129579D01*
X0075701Y0128516D01*
X0075811Y0128474D01*
X0076057Y0127926D01*
X0076368Y0127411D01*
X0076340Y0127297D01*
X0076850Y0126165D01*
X0076954Y0126110D01*
X0077133Y0125536D01*
X0077380Y0124988D01*
X0077338Y0124878D01*
X0077707Y0123692D01*
X0077804Y0123626D01*
X0077913Y0123034D01*
X0078092Y0122460D01*
X0078037Y0122356D01*
X0078261Y0121134D01*
X0078349Y0121056D01*
X0078385Y0120456D01*
X0078493Y0119865D01*
X0078427Y0119768D01*
X0078502Y0118528D01*
X0078580Y0118440D01*
X0078543Y0117840D01*
X0078580Y0117240D01*
X0078502Y0117152D01*
X0078427Y0115912D01*
X0078493Y0115816D01*
X0078385Y0115224D01*
X0078349Y0114624D01*
X0078261Y0114546D01*
X0078037Y0113324D01*
X0078092Y0113220D01*
X0077913Y0112646D01*
X0077804Y0112055D01*
X0077707Y0111988D01*
X0077338Y0110802D01*
X0077380Y0110692D01*
X0077133Y0110144D01*
X0076954Y0109570D01*
X0076850Y0109515D01*
X0076340Y0108383D01*
X0076368Y0108269D01*
X0076057Y0107754D01*
X0075811Y0107206D01*
X0075701Y0107164D01*
X0075540Y0106899D01*
X0075540Y0098544D01*
X0092728Y0081356D01*
X0093293Y0081590D01*
X0094387Y0081590D01*
X0095398Y0081171D01*
X0096029Y0080540D01*
X0131544Y0080540D01*
X0138544Y0073540D01*
X0146251Y0073540D01*
X0145651Y0074140D01*
X0145044Y0074140D01*
X0143636Y0074140D01*
X0121322Y0096454D01*
X0121134Y0096420D01*
X0121056Y0096332D01*
X0120456Y0096295D01*
X0119865Y0096187D01*
X0119768Y0096254D01*
X0118528Y0096179D01*
X0118440Y0096101D01*
X0117840Y0096137D01*
X0117240Y0096101D01*
X0117152Y0096179D01*
X0115912Y0096254D01*
X0115816Y0096187D01*
X0115224Y0096295D01*
X0114624Y0096332D01*
X0114546Y0096420D01*
X0113324Y0096643D01*
X0113220Y0096589D01*
X0112646Y0096768D01*
X0112245Y0096841D01*
X0110840Y0095436D01*
X0110840Y0094543D01*
X0110421Y0093532D01*
X0109648Y0092759D01*
X0108637Y0092340D01*
X0107543Y0092340D01*
X0106532Y0092759D01*
X0105759Y0093532D01*
X0105340Y0094543D01*
X0105340Y0095637D01*
X0105759Y0096648D01*
X0106532Y0097421D01*
X0107543Y0097840D01*
X0108436Y0097840D01*
X0108764Y0098168D01*
X0108383Y0098340D01*
X0108269Y0098312D01*
X0107754Y0098623D01*
X0107206Y0098870D01*
X0107164Y0098980D01*
X0106101Y0099622D01*
X0105985Y0099608D01*
X0105511Y0099979D01*
X0104997Y0100290D01*
X0104969Y0100404D01*
X0103991Y0101170D01*
X0103874Y0101170D01*
X0103448Y0101595D01*
X0102975Y0101966D01*
X0102961Y0102083D01*
X0102083Y0102961D01*
X0101966Y0102975D01*
X0101595Y0103448D01*
X0101170Y0103874D01*
X0101170Y0103991D01*
X0100404Y0104969D01*
X0100290Y0104997D01*
X0099979Y0105511D01*
X0099608Y0105985D01*
X0099622Y0106101D01*
X0098980Y0107164D01*
X0098870Y0107206D01*
X0098623Y0107754D01*
X0098312Y0108269D01*
X0098340Y0108383D01*
X0097830Y0109515D01*
X0097726Y0109570D01*
X0097547Y0110144D01*
X0097301Y0110692D01*
X0097342Y0110802D01*
X0096973Y0111988D01*
X0096876Y0112055D01*
X0096768Y0112646D01*
X0096589Y0113220D01*
X0096643Y0113324D01*
X0096420Y0114546D01*
X0096332Y0114624D01*
X0096295Y0115224D01*
X0096187Y0115816D01*
X0096254Y0115912D01*
X0096177Y0117179D01*
X0096084Y0117290D01*
X0096136Y0117864D01*
X0096101Y0118440D01*
X0096197Y0118549D01*
X0096326Y0120000D01*
X0096260Y0120104D01*
X0096387Y0120687D01*
X0096440Y0121281D01*
X0096535Y0121360D01*
X0096842Y0122762D01*
X0096789Y0122873D01*
X0096989Y0123435D01*
X0097117Y0124018D01*
X0097220Y0124084D01*
X0097702Y0125437D01*
X0097664Y0125554D01*
X0097933Y0126086D01*
X0098134Y0126648D01*
X0098245Y0126701D01*
X0098894Y0127982D01*
X0098870Y0128102D01*
X0099205Y0128596D01*
X0099474Y0129128D01*
X0099591Y0129167D01*
X0100397Y0130355D01*
X0100389Y0130478D01*
X0100783Y0130926D01*
X0101118Y0131420D01*
X0101238Y0131443D01*
X0102188Y0132520D01*
X0102195Y0132643D01*
X0102643Y0133037D01*
X0103037Y0133485D01*
X0103160Y0133493D01*
X0104238Y0134442D01*
X0104261Y0134563D01*
X0104755Y0134897D01*
X0105202Y0135291D01*
X0105325Y0135284D01*
X0106514Y0136089D01*
X0106552Y0136206D01*
X0107084Y0136475D01*
X0107578Y0136810D01*
X0107699Y0136787D01*
X0108980Y0137436D01*
X0109033Y0137547D01*
X0109594Y0137747D01*
X0110126Y0138016D01*
X0110243Y0137978D01*
X0111596Y0138460D01*
X0111662Y0138564D01*
X0112245Y0138691D01*
X0112807Y0138891D01*
X0112918Y0138839D01*
X0114321Y0139146D01*
X0114400Y0139240D01*
X0114994Y0139293D01*
X0115576Y0139421D01*
X0115680Y0139354D01*
X0117074Y0139479D01*
X0117136Y0139540D01*
X0117764Y0139540D01*
X0117936Y0139555D01*
X0117980Y0139593D01*
X0118174Y0139577D01*
X0118391Y0139596D01*
X0118440Y0139554D01*
X0118611Y0139540D01*
X0119244Y0139540D01*
X0119302Y0139482D01*
X0119840Y0139438D01*
X0119840Y0156740D01*
X0034840Y0156740D01*
X0032948Y0156634D01*
X0029258Y0155792D01*
X0027905Y0155140D01*
X0029093Y0155140D01*
X0031409Y0154181D01*
X0033181Y0152409D01*
X0034140Y0150093D01*
X0034140Y0147587D01*
X0033181Y0145272D01*
X0031409Y0143499D01*
X0029093Y0142540D01*
X0026587Y0142540D01*
X0024272Y0143499D01*
X0022499Y0145272D01*
X0021540Y0147587D01*
X0021540Y0150093D01*
X0021544Y0150102D01*
X0020531Y0148832D01*
X0018889Y0145422D01*
X0018046Y0141732D01*
X0017940Y0139840D01*
X0017940Y0047850D01*
X0018272Y0048181D01*
X0020587Y0049140D01*
X0023093Y0049140D01*
X0025409Y0048181D01*
X0027181Y0046409D01*
X0028140Y0044093D01*
X0028140Y0041587D01*
X0027181Y0039272D01*
X0025409Y0037499D01*
X0023093Y0036540D01*
X0020587Y0036540D01*
X0018272Y0037499D01*
X0017940Y0037831D01*
X0017940Y0035089D01*
X0018048Y0033169D01*
X0018902Y0029425D01*
X0020569Y0025965D01*
X0020537Y0026030D02*
X0038120Y0026030D01*
X0037094Y0024431D02*
X0021792Y0024431D01*
X0023126Y0022833D02*
X0036540Y0022833D01*
X0036540Y0021234D02*
X0025130Y0021234D01*
X0027902Y0019636D02*
X0036934Y0019636D01*
X0037734Y0018037D02*
X0033361Y0018037D01*
X0035089Y0014840D02*
X0139840Y0014840D01*
X0141568Y0018037D02*
X0047947Y0018037D01*
X0048746Y0019636D02*
X0146973Y0019636D01*
X0149714Y0021234D02*
X0049140Y0021234D01*
X0049140Y0022833D02*
X0144938Y0022833D01*
X0143433Y0024431D02*
X0048586Y0024431D01*
X0047560Y0026030D02*
X0142771Y0026030D01*
X0142540Y0027628D02*
X0079479Y0027628D01*
X0079387Y0027590D02*
X0080398Y0028009D01*
X0081171Y0028782D01*
X0081590Y0029793D01*
X0081590Y0030403D01*
X0088127Y0036940D01*
X0090851Y0036940D01*
X0091282Y0036509D01*
X0092293Y0036090D01*
X0093387Y0036090D01*
X0094398Y0036509D01*
X0095171Y0037282D01*
X0095590Y0038293D01*
X0095590Y0039387D01*
X0095171Y0040398D01*
X0094398Y0041171D01*
X0093387Y0041590D01*
X0092293Y0041590D01*
X0091282Y0041171D01*
X0090851Y0040740D01*
X0086553Y0040740D01*
X0078903Y0033090D01*
X0078293Y0033090D01*
X0077282Y0032671D01*
X0076509Y0031898D01*
X0076090Y0030887D01*
X0076090Y0029793D01*
X0076509Y0028782D01*
X0077282Y0028009D01*
X0078293Y0027590D01*
X0079387Y0027590D01*
X0078201Y0027628D02*
X0045329Y0027628D01*
X0040351Y0027628D02*
X0019768Y0027628D01*
X0018998Y0029227D02*
X0076325Y0029227D01*
X0076090Y0030825D02*
X0018583Y0030825D01*
X0018218Y0032424D02*
X0077035Y0032424D01*
X0079835Y0034022D02*
X0018000Y0034022D01*
X0017940Y0035621D02*
X0052169Y0035621D01*
X0047357Y0037219D02*
X0024733Y0037219D01*
X0026727Y0038818D02*
X0044577Y0038818D01*
X0042490Y0040416D02*
X0027655Y0040416D01*
X0028140Y0042015D02*
X0040732Y0042015D01*
X0039433Y0043613D02*
X0028140Y0043613D01*
X0027677Y0045212D02*
X0038406Y0045212D01*
X0037493Y0046810D02*
X0026779Y0046810D01*
X0024859Y0048409D02*
X0036700Y0048409D01*
X0036189Y0050007D02*
X0017940Y0050007D01*
X0017940Y0048409D02*
X0018822Y0048409D01*
X0017940Y0051606D02*
X0035678Y0051606D01*
X0035428Y0053204D02*
X0017940Y0053204D01*
X0017940Y0054803D02*
X0035235Y0054803D01*
X0035111Y0056401D02*
X0017940Y0056401D01*
X0017940Y0058000D02*
X0035207Y0058000D01*
X0035304Y0059598D02*
X0017940Y0059598D01*
X0017940Y0061197D02*
X0035614Y0061197D01*
X0036005Y0062796D02*
X0017940Y0062796D01*
X0017940Y0064394D02*
X0036483Y0064394D01*
X0037203Y0065993D02*
X0017940Y0065993D01*
X0017940Y0067591D02*
X0038025Y0067591D01*
X0038991Y0069190D02*
X0017940Y0069190D01*
X0017940Y0070788D02*
X0040170Y0070788D01*
X0041750Y0072387D02*
X0017940Y0072387D01*
X0017940Y0073985D02*
X0043597Y0073985D01*
X0045971Y0075584D02*
X0017940Y0075584D01*
X0017940Y0077182D02*
X0049253Y0077182D01*
X0053094Y0069597D02*
X0054948Y0070000D01*
X0056840Y0070136D01*
X0058732Y0070000D01*
X0060586Y0069597D01*
X0062363Y0068934D01*
X0064028Y0068025D01*
X0065547Y0066888D01*
X0066888Y0065547D01*
X0068025Y0064028D01*
X0068934Y0062363D01*
X0069597Y0060586D01*
X0070001Y0058732D01*
X0070140Y0056779D01*
X0070140Y0055930D01*
X0069944Y0054082D01*
X0069494Y0052312D01*
X0068797Y0050623D01*
X0067867Y0049051D01*
X0066722Y0047627D01*
X0065387Y0046380D01*
X0063887Y0045336D01*
X0062255Y0044517D01*
X0060522Y0043938D01*
X0058725Y0043611D01*
X0056809Y0043540D01*
X0056216Y0043540D01*
X0054494Y0043694D01*
X0052841Y0044065D01*
X0051250Y0044647D01*
X0049749Y0045433D01*
X0048363Y0046407D01*
X0047117Y0047554D01*
X0046030Y0048854D01*
X0045123Y0050285D01*
X0044410Y0051821D01*
X0043904Y0053438D01*
X0043614Y0055107D01*
X0043543Y0056815D01*
X0043680Y0058732D01*
X0044083Y0060586D01*
X0044746Y0062363D01*
X0045655Y0064028D01*
X0046792Y0065547D01*
X0048133Y0066888D01*
X0049652Y0068025D01*
X0051317Y0068934D01*
X0053094Y0069597D01*
X0052001Y0069190D02*
X0061679Y0069190D01*
X0064608Y0067591D02*
X0049072Y0067591D01*
X0047238Y0065993D02*
X0055146Y0065993D01*
X0055280Y0066023D02*
X0054262Y0065791D01*
X0053276Y0065446D01*
X0052334Y0064993D01*
X0051450Y0064437D01*
X0050633Y0063786D01*
X0049895Y0063047D01*
X0049244Y0062230D01*
X0048688Y0061346D01*
X0048235Y0060405D01*
X0047890Y0059419D01*
X0047657Y0058400D01*
X0047571Y0057640D01*
X0056040Y0057640D01*
X0056040Y0056040D01*
X0047571Y0056040D01*
X0047657Y0055280D01*
X0047890Y0054262D01*
X0048235Y0053276D01*
X0048688Y0052334D01*
X0049244Y0051450D01*
X0049895Y0050633D01*
X0050633Y0049895D01*
X0051450Y0049244D01*
X0052334Y0048688D01*
X0053276Y0048235D01*
X0054262Y0047890D01*
X0055280Y0047657D01*
X0056040Y0047571D01*
X0056040Y0048788D01*
X0056530Y0048690D01*
X0056840Y0048690D01*
X0056840Y0051840D01*
X0056840Y0051840D01*
X0056840Y0048690D01*
X0057150Y0048690D01*
X0057640Y0048788D01*
X0057640Y0047571D01*
X0058400Y0047657D01*
X0059419Y0047890D01*
X0060405Y0048235D01*
X0061346Y0048688D01*
X0062230Y0049244D01*
X0063047Y0049895D01*
X0063786Y0050633D01*
X0064437Y0051450D01*
X0064993Y0052334D01*
X0065446Y0053276D01*
X0065791Y0054262D01*
X0066023Y0055280D01*
X0066109Y0056040D01*
X0057640Y0056040D01*
X0057640Y0054893D01*
X0057150Y0054990D01*
X0056840Y0054990D01*
X0056840Y0051840D01*
X0056840Y0051840D01*
X0056840Y0054990D01*
X0056530Y0054990D01*
X0056040Y0054893D01*
X0056040Y0056040D01*
X0057640Y0056040D01*
X0057640Y0057640D01*
X0066109Y0057640D01*
X0066023Y0058400D01*
X0065791Y0059419D01*
X0065446Y0060405D01*
X0064993Y0061346D01*
X0064437Y0062230D01*
X0063786Y0063047D01*
X0063047Y0063786D01*
X0062230Y0064437D01*
X0061346Y0064993D01*
X0060405Y0065446D01*
X0059419Y0065791D01*
X0058400Y0066023D01*
X0057640Y0066109D01*
X0057640Y0057640D01*
X0056040Y0057640D01*
X0056040Y0066109D01*
X0055280Y0066023D01*
X0056040Y0065993D02*
X0057640Y0065993D01*
X0058535Y0065993D02*
X0066443Y0065993D01*
X0067751Y0064394D02*
X0062284Y0064394D01*
X0063986Y0062796D02*
X0068698Y0062796D01*
X0069369Y0061197D02*
X0065064Y0061197D01*
X0065728Y0059598D02*
X0069812Y0059598D01*
X0070053Y0058000D02*
X0066068Y0058000D01*
X0065914Y0054803D02*
X0070020Y0054803D01*
X0070140Y0056401D02*
X0057640Y0056401D01*
X0057640Y0058000D02*
X0056040Y0058000D01*
X0056040Y0059598D02*
X0057640Y0059598D01*
X0057640Y0061197D02*
X0056040Y0061197D01*
X0056040Y0062796D02*
X0057640Y0062796D01*
X0057640Y0064394D02*
X0056040Y0064394D01*
X0051396Y0064394D02*
X0045929Y0064394D01*
X0044982Y0062796D02*
X0049694Y0062796D01*
X0048616Y0061197D02*
X0044311Y0061197D01*
X0043868Y0059598D02*
X0047952Y0059598D01*
X0047612Y0058000D02*
X0043627Y0058000D01*
X0043560Y0056401D02*
X0056040Y0056401D01*
X0056840Y0054803D02*
X0056840Y0054803D01*
X0056840Y0053204D02*
X0056840Y0053204D01*
X0056840Y0051606D02*
X0056840Y0051606D01*
X0056840Y0050007D02*
X0056840Y0050007D01*
X0056040Y0048409D02*
X0057640Y0048409D01*
X0060767Y0048409D02*
X0067351Y0048409D01*
X0068433Y0050007D02*
X0063160Y0050007D01*
X0064535Y0051606D02*
X0069203Y0051606D01*
X0069721Y0053204D02*
X0065412Y0053204D01*
X0065848Y0046810D02*
X0047925Y0046810D01*
X0046402Y0048409D02*
X0052914Y0048409D01*
X0050521Y0050007D02*
X0045299Y0050007D01*
X0044510Y0051606D02*
X0049146Y0051606D01*
X0048269Y0053204D02*
X0043978Y0053204D01*
X0043667Y0054803D02*
X0047766Y0054803D01*
X0050171Y0045212D02*
X0063639Y0045212D01*
X0058738Y0043613D02*
X0055399Y0043613D01*
X0060753Y0035621D02*
X0081434Y0035621D01*
X0083032Y0037219D02*
X0065689Y0037219D01*
X0068501Y0038818D02*
X0084631Y0038818D01*
X0086229Y0040416D02*
X0070645Y0040416D01*
X0072460Y0042015D02*
X0101935Y0042015D01*
X0100682Y0043613D02*
X0073802Y0043613D01*
X0074885Y0045212D02*
X0091579Y0045212D01*
X0091090Y0046810D02*
X0075843Y0046810D01*
X0076681Y0048409D02*
X0091520Y0048409D01*
X0092140Y0050007D02*
X0077250Y0050007D01*
X0077820Y0051606D02*
X0092702Y0051606D01*
X0094300Y0053204D02*
X0078120Y0053204D01*
X0078365Y0054803D02*
X0095899Y0054803D01*
X0096111Y0056401D02*
X0078570Y0056401D01*
X0078473Y0058000D02*
X0096207Y0058000D01*
X0096304Y0059598D02*
X0078376Y0059598D01*
X0078066Y0061197D02*
X0096614Y0061197D01*
X0097005Y0062796D02*
X0077675Y0062796D01*
X0077197Y0064394D02*
X0097483Y0064394D01*
X0098203Y0065993D02*
X0076477Y0065993D01*
X0075655Y0067591D02*
X0099025Y0067591D01*
X0099991Y0069190D02*
X0074689Y0069190D01*
X0073510Y0070788D02*
X0101170Y0070788D01*
X0102750Y0072387D02*
X0093103Y0072387D01*
X0094463Y0073985D02*
X0104597Y0073985D01*
X0106971Y0075584D02*
X0094509Y0075584D01*
X0090308Y0077182D02*
X0064793Y0077182D01*
X0067670Y0078781D02*
X0090496Y0078781D01*
X0088897Y0080379D02*
X0068590Y0080379D01*
X0068346Y0081978D02*
X0087299Y0081978D01*
X0085700Y0083576D02*
X0066421Y0083576D01*
X0065259Y0083576D02*
X0017940Y0083576D01*
X0017940Y0081978D02*
X0063335Y0081978D01*
X0063090Y0080379D02*
X0017940Y0080379D01*
X0017940Y0078781D02*
X0061646Y0078781D01*
X0071931Y0072387D02*
X0090578Y0072387D01*
X0092107Y0081978D02*
X0135799Y0081978D01*
X0137397Y0080379D02*
X0131705Y0080379D01*
X0133304Y0078781D02*
X0138996Y0078781D01*
X0140594Y0077182D02*
X0134902Y0077182D01*
X0136501Y0075584D02*
X0142193Y0075584D01*
X0145044Y0077540D02*
X0125192Y0097393D01*
X0125536Y0097547D01*
X0126110Y0097726D01*
X0126165Y0097830D01*
X0127297Y0098340D01*
X0127411Y0098312D01*
X0127926Y0098623D01*
X0128474Y0098870D01*
X0128516Y0098980D01*
X0129579Y0099622D01*
X0129696Y0099608D01*
X0130169Y0099979D01*
X0130684Y0100290D01*
X0130712Y0100404D01*
X0131689Y0101170D01*
X0131807Y0101170D01*
X0132232Y0101595D01*
X0132705Y0101966D01*
X0132720Y0102083D01*
X0133598Y0102961D01*
X0133714Y0102975D01*
X0134085Y0103448D01*
X0134510Y0103874D01*
X0134510Y0103991D01*
X0135276Y0104969D01*
X0135390Y0104997D01*
X0135702Y0105511D01*
X0136072Y0105985D01*
X0136058Y0106101D01*
X0136701Y0107164D01*
X0136811Y0107206D01*
X0137057Y0107754D01*
X0137368Y0108269D01*
X0137340Y0108383D01*
X0137850Y0109515D01*
X0137954Y0109570D01*
X0138133Y0110144D01*
X0138380Y0110692D01*
X0138338Y0110802D01*
X0138707Y0111988D01*
X0138804Y0112055D01*
X0138913Y0112646D01*
X0139092Y0113220D01*
X0139037Y0113324D01*
X0139261Y0114546D01*
X0139349Y0114624D01*
X0139385Y0115224D01*
X0139493Y0115816D01*
X0139427Y0115912D01*
X0139501Y0117140D01*
X0139572Y0117218D01*
X0139543Y0117829D01*
X0139580Y0118440D01*
X0139510Y0118519D01*
X0139443Y0119913D01*
X0139516Y0120017D01*
X0139410Y0120600D01*
X0139382Y0121192D01*
X0139288Y0121278D01*
X0139037Y0122672D01*
X0139095Y0122785D01*
X0138914Y0123349D01*
X0138809Y0123933D01*
X0138705Y0124005D01*
X0138273Y0125355D01*
X0138316Y0125474D01*
X0138064Y0126010D01*
X0137883Y0126575D01*
X0137770Y0126633D01*
X0137166Y0127915D01*
X0137193Y0128039D01*
X0136873Y0128537D01*
X0136620Y0129074D01*
X0136501Y0129117D01*
X0135735Y0130308D01*
X0135745Y0130435D01*
X0135362Y0130888D01*
X0135042Y0131386D01*
X0134918Y0131413D01*
X0134003Y0132495D01*
X0133997Y0132622D01*
X0133558Y0133020D01*
X0133175Y0133473D01*
X0133049Y0133483D01*
X0132993Y0133534D01*
X0156740Y0132982D01*
X0156740Y0085344D01*
X0154590Y0087494D01*
X0154590Y0088387D01*
X0154171Y0089398D01*
X0153398Y0090171D01*
X0152387Y0090590D01*
X0151293Y0090590D01*
X0150282Y0090171D01*
X0149509Y0089398D01*
X0149090Y0088387D01*
X0149090Y0087994D01*
X0147544Y0089540D01*
X0147029Y0089540D01*
X0146398Y0090171D01*
X0145387Y0090590D01*
X0144293Y0090590D01*
X0143282Y0090171D01*
X0142509Y0089398D01*
X0142090Y0088387D01*
X0142090Y0087293D01*
X0142509Y0086282D01*
X0143282Y0085509D01*
X0144293Y0085090D01*
X0145387Y0085090D01*
X0146398Y0085509D01*
X0146583Y0085694D01*
X0149897Y0082379D01*
X0149387Y0082590D01*
X0148293Y0082590D01*
X0147282Y0082171D01*
X0146509Y0081398D01*
X0146090Y0080387D01*
X0146090Y0079293D01*
X0146509Y0078282D01*
X0146521Y0078270D01*
X0146282Y0078171D01*
X0145651Y0077540D01*
X0145044Y0077540D01*
X0143804Y0078781D02*
X0146302Y0078781D01*
X0146090Y0080379D02*
X0142205Y0080379D01*
X0140607Y0081978D02*
X0147089Y0081978D01*
X0148700Y0083576D02*
X0139008Y0083576D01*
X0137410Y0085175D02*
X0144089Y0085175D01*
X0145591Y0085175D02*
X0147102Y0085175D01*
X0148713Y0088372D02*
X0149090Y0088372D01*
X0150081Y0089970D02*
X0146599Y0089970D01*
X0143081Y0089970D02*
X0132614Y0089970D01*
X0131016Y0091569D02*
X0156740Y0091569D01*
X0156740Y0093167D02*
X0129417Y0093167D01*
X0127819Y0094766D02*
X0156740Y0094766D01*
X0156740Y0096364D02*
X0126220Y0096364D01*
X0126459Y0097963D02*
X0156740Y0097963D01*
X0156740Y0099561D02*
X0129478Y0099561D01*
X0131676Y0101160D02*
X0156740Y0101160D01*
X0156740Y0102758D02*
X0133395Y0102758D01*
X0134797Y0104357D02*
X0156740Y0104357D01*
X0156740Y0105955D02*
X0136049Y0105955D01*
X0136967Y0107554D02*
X0156740Y0107554D01*
X0156740Y0109152D02*
X0137687Y0109152D01*
X0138358Y0110751D02*
X0156740Y0110751D01*
X0156740Y0112349D02*
X0138858Y0112349D01*
X0139151Y0113948D02*
X0156740Y0113948D01*
X0156740Y0115546D02*
X0139444Y0115546D01*
X0139506Y0117145D02*
X0156740Y0117145D01*
X0156740Y0118743D02*
X0139499Y0118743D01*
X0139457Y0120342D02*
X0156740Y0120342D01*
X0156740Y0121940D02*
X0139169Y0121940D01*
X0138880Y0123539D02*
X0156740Y0123539D01*
X0156740Y0125137D02*
X0138343Y0125137D01*
X0137722Y0126736D02*
X0156740Y0126736D01*
X0156740Y0128334D02*
X0137003Y0128334D01*
X0135976Y0129933D02*
X0156740Y0129933D01*
X0156740Y0131531D02*
X0134818Y0131531D01*
X0133465Y0133130D02*
X0150377Y0133130D01*
X0159840Y0143840D02*
X0159835Y0144227D01*
X0159821Y0144613D01*
X0159798Y0144999D01*
X0159765Y0145384D01*
X0159723Y0145769D01*
X0159672Y0146152D01*
X0159612Y0146534D01*
X0159542Y0146914D01*
X0159463Y0147293D01*
X0159375Y0147669D01*
X0159278Y0148043D01*
X0159172Y0148415D01*
X0159057Y0148784D01*
X0158933Y0149151D01*
X0158800Y0149514D01*
X0158659Y0149874D01*
X0158509Y0150230D01*
X0158350Y0150582D01*
X0158183Y0150931D01*
X0158007Y0151276D01*
X0157823Y0151616D01*
X0157632Y0151951D01*
X0157431Y0152282D01*
X0157224Y0152608D01*
X0157008Y0152929D01*
X0156784Y0153245D01*
X0156553Y0153555D01*
X0156315Y0153859D01*
X0156069Y0154157D01*
X0155816Y0154450D01*
X0155556Y0154736D01*
X0155290Y0155016D01*
X0155016Y0155290D01*
X0154736Y0155556D01*
X0154450Y0155816D01*
X0154157Y0156069D01*
X0153859Y0156315D01*
X0153555Y0156553D01*
X0153245Y0156784D01*
X0152929Y0157008D01*
X0152608Y0157224D01*
X0152282Y0157431D01*
X0151951Y0157632D01*
X0151616Y0157823D01*
X0151276Y0158007D01*
X0150931Y0158183D01*
X0150582Y0158350D01*
X0150230Y0158509D01*
X0149874Y0158659D01*
X0149514Y0158800D01*
X0149151Y0158933D01*
X0148784Y0159057D01*
X0148415Y0159172D01*
X0148043Y0159278D01*
X0147669Y0159375D01*
X0147293Y0159463D01*
X0146914Y0159542D01*
X0146534Y0159612D01*
X0146152Y0159672D01*
X0145769Y0159723D01*
X0145384Y0159765D01*
X0144999Y0159798D01*
X0144613Y0159821D01*
X0144227Y0159835D01*
X0143840Y0159840D01*
X0034840Y0159840D01*
X0031679Y0153911D02*
X0119840Y0153911D01*
X0119840Y0155509D02*
X0028672Y0155509D01*
X0033221Y0152312D02*
X0119840Y0152312D01*
X0119840Y0150714D02*
X0033883Y0150714D01*
X0034140Y0149115D02*
X0119840Y0149115D01*
X0119840Y0147517D02*
X0034111Y0147517D01*
X0033449Y0145918D02*
X0119840Y0145918D01*
X0119840Y0144320D02*
X0032229Y0144320D01*
X0029530Y0142721D02*
X0119840Y0142721D01*
X0119840Y0141123D02*
X0018012Y0141123D01*
X0017940Y0139524D02*
X0056177Y0139524D01*
X0057515Y0139524D02*
X0117120Y0139524D01*
X0119260Y0139524D02*
X0119840Y0139524D01*
X0118464Y0131140D02*
X0120187Y0130986D01*
X0121840Y0130616D01*
X0123430Y0130033D01*
X0124931Y0129248D01*
X0126317Y0128273D01*
X0127564Y0127126D01*
X0128650Y0125826D01*
X0129557Y0124396D01*
X0130270Y0122859D01*
X0130776Y0121242D01*
X0131067Y0119573D01*
X0131138Y0117866D01*
X0131000Y0115948D01*
X0130597Y0114094D01*
X0129934Y0112317D01*
X0129025Y0110652D01*
X0127888Y0109133D01*
X0126547Y0107792D01*
X0125028Y0106655D01*
X0123363Y0105746D01*
X0121586Y0105083D01*
X0119732Y0104680D01*
X0117840Y0104545D01*
X0115948Y0104680D01*
X0114094Y0105083D01*
X0112317Y0105746D01*
X0110652Y0106655D01*
X0109133Y0107792D01*
X0107792Y0109133D01*
X0106655Y0110652D01*
X0105746Y0112317D01*
X0105083Y0114094D01*
X0104680Y0115948D01*
X0104540Y0117901D01*
X0104540Y0118750D01*
X0104737Y0120598D01*
X0105186Y0122369D01*
X0105883Y0124057D01*
X0106813Y0125630D01*
X0107958Y0127054D01*
X0109294Y0128300D01*
X0110793Y0129344D01*
X0112426Y0130164D01*
X0114158Y0130743D01*
X0115956Y0131069D01*
X0117872Y0131140D01*
X0118464Y0131140D01*
X0118640Y0127109D02*
X0118640Y0125893D01*
X0118150Y0125990D01*
X0117840Y0125990D01*
X0117530Y0125990D01*
X0117040Y0125893D01*
X0117040Y0127109D01*
X0116280Y0127023D01*
X0115262Y0126791D01*
X0114276Y0126446D01*
X0113334Y0125993D01*
X0112450Y0125437D01*
X0111633Y0124786D01*
X0110895Y0124047D01*
X0110244Y0123230D01*
X0109688Y0122346D01*
X0109235Y0121405D01*
X0108890Y0120419D01*
X0108657Y0119400D01*
X0108571Y0118640D01*
X0117040Y0118640D01*
X0117040Y0117040D01*
X0108571Y0117040D01*
X0108657Y0116280D01*
X0108890Y0115262D01*
X0109235Y0114276D01*
X0109688Y0113334D01*
X0110244Y0112450D01*
X0110895Y0111633D01*
X0111633Y0110895D01*
X0112450Y0110244D01*
X0113334Y0109688D01*
X0114276Y0109235D01*
X0115262Y0108890D01*
X0116280Y0108657D01*
X0117040Y0108571D01*
X0117040Y0117040D01*
X0118640Y0117040D01*
X0118640Y0108571D01*
X0119400Y0108657D01*
X0120419Y0108890D01*
X0121405Y0109235D01*
X0122346Y0109688D01*
X0123230Y0110244D01*
X0124047Y0110895D01*
X0124786Y0111633D01*
X0125437Y0112450D01*
X0125993Y0113334D01*
X0126446Y0114276D01*
X0126791Y0115262D01*
X0127023Y0116280D01*
X0127109Y0117040D01*
X0118640Y0117040D01*
X0118640Y0118640D01*
X0127109Y0118640D01*
X0127023Y0119400D01*
X0126791Y0120419D01*
X0126446Y0121405D01*
X0125993Y0122346D01*
X0125437Y0123230D01*
X0124786Y0124047D01*
X0124047Y0124786D01*
X0123230Y0125437D01*
X0122346Y0125993D01*
X0121405Y0126446D01*
X0120419Y0126791D01*
X0119400Y0127023D01*
X0118640Y0127109D01*
X0118640Y0126736D02*
X0117040Y0126736D01*
X0117840Y0125990D02*
X0117840Y0122840D01*
X0117840Y0122840D01*
X0117840Y0119690D01*
X0117530Y0119690D01*
X0117040Y0119788D01*
X0117040Y0118640D01*
X0118640Y0118640D01*
X0118640Y0119788D01*
X0118150Y0119690D01*
X0117840Y0119690D01*
X0117840Y0122840D01*
X0117840Y0122840D01*
X0117840Y0125990D01*
X0117840Y0125137D02*
X0117840Y0125137D01*
X0117840Y0123539D02*
X0117840Y0123539D01*
X0117840Y0121940D02*
X0117840Y0121940D01*
X0117840Y0120342D02*
X0117840Y0120342D01*
X0117040Y0118743D02*
X0118640Y0118743D01*
X0118640Y0117145D02*
X0131086Y0117145D01*
X0131101Y0118743D02*
X0127097Y0118743D01*
X0126808Y0120342D02*
X0130933Y0120342D01*
X0130557Y0121940D02*
X0126188Y0121940D01*
X0125191Y0123539D02*
X0129954Y0123539D01*
X0129087Y0125137D02*
X0123606Y0125137D01*
X0120575Y0126736D02*
X0127890Y0126736D01*
X0126230Y0128334D02*
X0109343Y0128334D01*
X0107703Y0126736D02*
X0115105Y0126736D01*
X0112075Y0125137D02*
X0106522Y0125137D01*
X0105669Y0123539D02*
X0110490Y0123539D01*
X0109493Y0121940D02*
X0105077Y0121940D01*
X0104709Y0120342D02*
X0108872Y0120342D01*
X0108583Y0118743D02*
X0104540Y0118743D01*
X0104594Y0117145D02*
X0117040Y0117145D01*
X0117040Y0115546D02*
X0118640Y0115546D01*
X0118640Y0113948D02*
X0117040Y0113948D01*
X0117040Y0112349D02*
X0118640Y0112349D01*
X0118640Y0110751D02*
X0117040Y0110751D01*
X0117040Y0109152D02*
X0118640Y0109152D01*
X0121170Y0109152D02*
X0127903Y0109152D01*
X0129079Y0110751D02*
X0123866Y0110751D01*
X0125357Y0112349D02*
X0129946Y0112349D01*
X0130543Y0113948D02*
X0126288Y0113948D01*
X0126856Y0115546D02*
X0130913Y0115546D01*
X0126229Y0107554D02*
X0109451Y0107554D01*
X0107778Y0109152D02*
X0114511Y0109152D01*
X0111814Y0110751D02*
X0106601Y0110751D01*
X0105734Y0112349D02*
X0110324Y0112349D01*
X0109392Y0113948D02*
X0105138Y0113948D01*
X0104767Y0115546D02*
X0108825Y0115546D01*
X0111934Y0105955D02*
X0123747Y0105955D01*
X0121412Y0096364D02*
X0121085Y0096364D01*
X0123010Y0094766D02*
X0110840Y0094766D01*
X0110056Y0093167D02*
X0124609Y0093167D01*
X0126207Y0091569D02*
X0082516Y0091569D01*
X0080917Y0093167D02*
X0106124Y0093167D01*
X0105340Y0094766D02*
X0079319Y0094766D01*
X0077720Y0096364D02*
X0105641Y0096364D01*
X0106202Y0099561D02*
X0075540Y0099561D01*
X0075540Y0101160D02*
X0104004Y0101160D01*
X0102285Y0102758D02*
X0075540Y0102758D01*
X0075540Y0104357D02*
X0100883Y0104357D01*
X0099631Y0105955D02*
X0075540Y0105955D01*
X0075967Y0107554D02*
X0098713Y0107554D01*
X0097994Y0109152D02*
X0076687Y0109152D01*
X0077358Y0110751D02*
X0097323Y0110751D01*
X0096822Y0112349D02*
X0077858Y0112349D01*
X0078151Y0113948D02*
X0096529Y0113948D01*
X0096236Y0115546D02*
X0090281Y0115546D01*
X0090171Y0115282D02*
X0090590Y0116293D01*
X0090590Y0117387D01*
X0090171Y0118398D01*
X0089540Y0119029D01*
X0089540Y0125544D01*
X0082590Y0132494D01*
X0082590Y0133387D01*
X0082171Y0134398D01*
X0081398Y0135171D01*
X0080387Y0135590D01*
X0079293Y0135590D01*
X0078282Y0135171D01*
X0077509Y0134398D01*
X0077090Y0133387D01*
X0077090Y0132293D01*
X0077509Y0131282D01*
X0078282Y0130509D01*
X0079293Y0130090D01*
X0080186Y0130090D01*
X0086140Y0124136D01*
X0086140Y0119029D01*
X0085509Y0118398D01*
X0085090Y0117387D01*
X0085090Y0116293D01*
X0085509Y0115282D01*
X0086282Y0114509D01*
X0087293Y0114090D01*
X0088387Y0114090D01*
X0089398Y0114509D01*
X0090171Y0115282D01*
X0090590Y0117145D02*
X0096179Y0117145D01*
X0096214Y0118743D02*
X0089826Y0118743D01*
X0089540Y0120342D02*
X0096312Y0120342D01*
X0096662Y0121940D02*
X0089540Y0121940D01*
X0089540Y0123539D02*
X0097012Y0123539D01*
X0097596Y0125137D02*
X0089540Y0125137D01*
X0088349Y0126736D02*
X0098263Y0126736D01*
X0099028Y0128334D02*
X0086750Y0128334D01*
X0085152Y0129933D02*
X0100110Y0129933D01*
X0101317Y0131531D02*
X0083553Y0131531D01*
X0082590Y0133130D02*
X0102724Y0133130D01*
X0104506Y0134729D02*
X0081841Y0134729D01*
X0077839Y0134729D02*
X0070411Y0134729D01*
X0072187Y0133130D02*
X0077090Y0133130D01*
X0077406Y0131531D02*
X0073634Y0131531D01*
X0074886Y0129933D02*
X0080343Y0129933D01*
X0081942Y0128334D02*
X0075874Y0128334D01*
X0076593Y0126736D02*
X0083540Y0126736D01*
X0085139Y0125137D02*
X0077312Y0125137D01*
X0077820Y0123539D02*
X0086140Y0123539D01*
X0086140Y0121940D02*
X0078113Y0121940D01*
X0078406Y0120342D02*
X0086140Y0120342D01*
X0085854Y0118743D02*
X0078489Y0118743D01*
X0078501Y0117145D02*
X0085090Y0117145D01*
X0085399Y0115546D02*
X0078444Y0115546D01*
X0070001Y0115948D02*
X0069597Y0114094D01*
X0068934Y0112317D01*
X0068025Y0110652D01*
X0066888Y0109133D01*
X0065547Y0107792D01*
X0064028Y0106655D01*
X0062363Y0105746D01*
X0060586Y0105083D01*
X0058732Y0104680D01*
X0056779Y0104540D01*
X0055930Y0104540D01*
X0054082Y0104737D01*
X0052312Y0105186D01*
X0050623Y0105883D01*
X0049051Y0106813D01*
X0047627Y0107958D01*
X0046380Y0109294D01*
X0045336Y0110793D01*
X0044517Y0112426D01*
X0043938Y0114158D01*
X0043611Y0115956D01*
X0043540Y0117872D01*
X0043540Y0118464D01*
X0043694Y0120187D01*
X0044065Y0121840D01*
X0044647Y0123430D01*
X0045433Y0124931D01*
X0046407Y0126317D01*
X0047554Y0127564D01*
X0048854Y0128650D01*
X0050285Y0129557D01*
X0051821Y0130270D01*
X0053438Y0130776D01*
X0055107Y0131067D01*
X0056815Y0131138D01*
X0058732Y0131000D01*
X0060586Y0130597D01*
X0062363Y0129934D01*
X0064028Y0129025D01*
X0065547Y0127888D01*
X0066888Y0126547D01*
X0068025Y0125028D01*
X0068934Y0123363D01*
X0069597Y0121586D01*
X0070001Y0119732D01*
X0070136Y0117840D01*
X0070001Y0115948D01*
X0069913Y0115546D02*
X0065856Y0115546D01*
X0065791Y0115262D02*
X0066023Y0116280D01*
X0066109Y0117040D01*
X0057640Y0117040D01*
X0057640Y0108571D01*
X0058400Y0108657D01*
X0059419Y0108890D01*
X0060405Y0109235D01*
X0061346Y0109688D01*
X0062230Y0110244D01*
X0063047Y0110895D01*
X0063786Y0111633D01*
X0064437Y0112450D01*
X0064993Y0113334D01*
X0065446Y0114276D01*
X0065791Y0115262D01*
X0065288Y0113948D02*
X0069543Y0113948D01*
X0068946Y0112349D02*
X0064357Y0112349D01*
X0062866Y0110751D02*
X0068079Y0110751D01*
X0066903Y0109152D02*
X0060170Y0109152D01*
X0057640Y0109152D02*
X0056040Y0109152D01*
X0056040Y0108571D02*
X0056040Y0117040D01*
X0057640Y0117040D01*
X0057640Y0118640D01*
X0056040Y0118640D01*
X0056040Y0117040D01*
X0054893Y0117040D01*
X0054990Y0117530D01*
X0054990Y0117840D01*
X0051840Y0117840D01*
X0048690Y0117840D01*
X0048690Y0117530D01*
X0048788Y0117040D01*
X0047571Y0117040D01*
X0047657Y0116280D01*
X0047890Y0115262D01*
X0048235Y0114276D01*
X0048688Y0113334D01*
X0049244Y0112450D01*
X0049895Y0111633D01*
X0050633Y0110895D01*
X0051450Y0110244D01*
X0052334Y0109688D01*
X0053276Y0109235D01*
X0054262Y0108890D01*
X0055280Y0108657D01*
X0056040Y0108571D01*
X0056040Y0110751D02*
X0057640Y0110751D01*
X0057640Y0112349D02*
X0056040Y0112349D01*
X0056040Y0113948D02*
X0057640Y0113948D01*
X0057640Y0115546D02*
X0056040Y0115546D01*
X0056040Y0117145D02*
X0054914Y0117145D01*
X0054990Y0117840D02*
X0051840Y0117840D01*
X0051840Y0117840D01*
X0048690Y0117840D01*
X0048690Y0118150D01*
X0048788Y0118640D01*
X0047571Y0118640D01*
X0047657Y0119400D01*
X0047890Y0120419D01*
X0048235Y0121405D01*
X0048688Y0122346D01*
X0049244Y0123230D01*
X0049895Y0124047D01*
X0050633Y0124786D01*
X0051450Y0125437D01*
X0052334Y0125993D01*
X0053276Y0126446D01*
X0054262Y0126791D01*
X0055280Y0127023D01*
X0056040Y0127109D01*
X0056040Y0118640D01*
X0054893Y0118640D01*
X0054990Y0118150D01*
X0054990Y0117840D01*
X0056040Y0118743D02*
X0057640Y0118743D01*
X0057640Y0118640D02*
X0057640Y0127109D01*
X0058400Y0127023D01*
X0059419Y0126791D01*
X0060405Y0126446D01*
X0061346Y0125993D01*
X0062230Y0125437D01*
X0063047Y0124786D01*
X0063786Y0124047D01*
X0064437Y0123230D01*
X0064993Y0122346D01*
X0065446Y0121405D01*
X0065791Y0120419D01*
X0066023Y0119400D01*
X0066109Y0118640D01*
X0057640Y0118640D01*
X0057640Y0117145D02*
X0070086Y0117145D01*
X0070071Y0118743D02*
X0066097Y0118743D01*
X0065808Y0120342D02*
X0069868Y0120342D01*
X0069465Y0121940D02*
X0065188Y0121940D01*
X0064191Y0123539D02*
X0068838Y0123539D01*
X0067944Y0125137D02*
X0062606Y0125137D01*
X0059575Y0126736D02*
X0066699Y0126736D01*
X0064951Y0128334D02*
X0048477Y0128334D01*
X0046792Y0126736D02*
X0054105Y0126736D01*
X0051075Y0125137D02*
X0045577Y0125137D01*
X0044704Y0123539D02*
X0049490Y0123539D01*
X0048493Y0121940D02*
X0044101Y0121940D01*
X0043729Y0120342D02*
X0047872Y0120342D01*
X0047583Y0118743D02*
X0043565Y0118743D01*
X0043567Y0117145D02*
X0048767Y0117145D01*
X0047825Y0115546D02*
X0043685Y0115546D01*
X0044008Y0113948D02*
X0048392Y0113948D01*
X0049324Y0112349D02*
X0044555Y0112349D01*
X0045366Y0110751D02*
X0050814Y0110751D01*
X0053511Y0109152D02*
X0046512Y0109152D01*
X0048130Y0107554D02*
X0065229Y0107554D01*
X0062747Y0105955D02*
X0050501Y0105955D01*
X0045524Y0099561D02*
X0017940Y0099561D01*
X0017940Y0097963D02*
X0048512Y0097963D01*
X0054099Y0096364D02*
X0017940Y0096364D01*
X0017940Y0094766D02*
X0074510Y0094766D01*
X0072912Y0096364D02*
X0060085Y0096364D01*
X0065459Y0097963D02*
X0072140Y0097963D01*
X0072140Y0099561D02*
X0068478Y0099561D01*
X0070676Y0101160D02*
X0072140Y0101160D01*
X0076122Y0097963D02*
X0108559Y0097963D01*
X0111768Y0096364D02*
X0114595Y0096364D01*
X0127806Y0089970D02*
X0084114Y0089970D01*
X0085713Y0088372D02*
X0129404Y0088372D01*
X0131003Y0086773D02*
X0087311Y0086773D01*
X0088910Y0085175D02*
X0132602Y0085175D01*
X0134200Y0083576D02*
X0090508Y0083576D01*
X0084102Y0085175D02*
X0017940Y0085175D01*
X0017940Y0086773D02*
X0082503Y0086773D01*
X0080904Y0088372D02*
X0017940Y0088372D01*
X0017940Y0089970D02*
X0079306Y0089970D01*
X0077707Y0091569D02*
X0017940Y0091569D01*
X0017940Y0093167D02*
X0076109Y0093167D01*
X0051840Y0117840D02*
X0051840Y0117840D01*
X0056040Y0120342D02*
X0057640Y0120342D01*
X0057640Y0121940D02*
X0056040Y0121940D01*
X0056040Y0123539D02*
X0057640Y0123539D01*
X0057640Y0125137D02*
X0056040Y0125137D01*
X0056040Y0126736D02*
X0057640Y0126736D01*
X0062366Y0129933D02*
X0051095Y0129933D01*
X0048238Y0137926D02*
X0017940Y0137926D01*
X0017940Y0136327D02*
X0045294Y0136327D01*
X0043043Y0134729D02*
X0017940Y0134729D01*
X0017940Y0133130D02*
X0041204Y0133130D01*
X0039809Y0131531D02*
X0017940Y0131531D01*
X0017940Y0129933D02*
X0038699Y0129933D01*
X0037744Y0128334D02*
X0017940Y0128334D01*
X0017940Y0126736D02*
X0036916Y0126736D01*
X0036341Y0125137D02*
X0017940Y0125137D01*
X0017940Y0123539D02*
X0035767Y0123539D01*
X0035418Y0121940D02*
X0017940Y0121940D01*
X0017940Y0120342D02*
X0035285Y0120342D01*
X0035140Y0118743D02*
X0017940Y0118743D01*
X0017940Y0117145D02*
X0035140Y0117145D01*
X0035266Y0115546D02*
X0017940Y0115546D01*
X0017940Y0113948D02*
X0035616Y0113948D01*
X0035952Y0112349D02*
X0017940Y0112349D01*
X0017940Y0110751D02*
X0036521Y0110751D01*
X0037091Y0109152D02*
X0017940Y0109152D01*
X0017940Y0107554D02*
X0037887Y0107554D01*
X0038970Y0105955D02*
X0017940Y0105955D01*
X0017940Y0104357D02*
X0040053Y0104357D01*
X0041512Y0102758D02*
X0017940Y0102758D01*
X0017940Y0101160D02*
X0043253Y0101160D01*
X0065125Y0137926D02*
X0109947Y0137926D01*
X0106791Y0136327D02*
X0068134Y0136327D01*
X0034840Y0159840D02*
X0034357Y0159834D01*
X0033874Y0159817D01*
X0033391Y0159787D01*
X0032910Y0159747D01*
X0032429Y0159694D01*
X0031950Y0159630D01*
X0031473Y0159555D01*
X0030997Y0159467D01*
X0030524Y0159369D01*
X0030054Y0159259D01*
X0029586Y0159138D01*
X0029121Y0159005D01*
X0028660Y0158861D01*
X0028202Y0158706D01*
X0027748Y0158540D01*
X0027298Y0158363D01*
X0026853Y0158176D01*
X0026412Y0157977D01*
X0025976Y0157769D01*
X0025546Y0157549D01*
X0025120Y0157319D01*
X0024701Y0157079D01*
X0024287Y0156829D01*
X0023880Y0156569D01*
X0023479Y0156300D01*
X0023084Y0156020D01*
X0022697Y0155732D01*
X0022316Y0155433D01*
X0021943Y0155126D01*
X0021578Y0154810D01*
X0021220Y0154485D01*
X0020870Y0154152D01*
X0020528Y0153810D01*
X0020195Y0153460D01*
X0019870Y0153102D01*
X0019554Y0152737D01*
X0019247Y0152364D01*
X0018948Y0151983D01*
X0018660Y0151596D01*
X0018380Y0151201D01*
X0018111Y0150800D01*
X0017851Y0150393D01*
X0017601Y0149979D01*
X0017361Y0149560D01*
X0017131Y0149134D01*
X0016911Y0148704D01*
X0016703Y0148268D01*
X0016504Y0147827D01*
X0016317Y0147382D01*
X0016140Y0146932D01*
X0015974Y0146478D01*
X0015819Y0146020D01*
X0015675Y0145559D01*
X0015542Y0145094D01*
X0015421Y0144626D01*
X0015311Y0144156D01*
X0015213Y0143683D01*
X0015125Y0143207D01*
X0015050Y0142730D01*
X0014986Y0142251D01*
X0014933Y0141770D01*
X0014893Y0141289D01*
X0014863Y0140806D01*
X0014846Y0140323D01*
X0014840Y0139840D01*
X0014840Y0035089D01*
X0017940Y0037219D02*
X0018947Y0037219D01*
X0014841Y0035089D02*
X0014847Y0034600D01*
X0014865Y0034111D01*
X0014894Y0033622D01*
X0014936Y0033135D01*
X0014989Y0032648D01*
X0015053Y0032163D01*
X0015130Y0031680D01*
X0015218Y0031199D01*
X0015318Y0030720D01*
X0015429Y0030243D01*
X0015552Y0029770D01*
X0015686Y0029299D01*
X0015832Y0028832D01*
X0015989Y0028369D01*
X0016157Y0027909D01*
X0016336Y0027454D01*
X0016526Y0027003D01*
X0016727Y0026556D01*
X0016938Y0026115D01*
X0017160Y0025679D01*
X0017393Y0025249D01*
X0017636Y0024824D01*
X0017889Y0024405D01*
X0018152Y0023993D01*
X0018425Y0023587D01*
X0018708Y0023188D01*
X0019000Y0022795D01*
X0019302Y0022410D01*
X0019613Y0022032D01*
X0019933Y0021662D01*
X0020262Y0021300D01*
X0020600Y0020946D01*
X0020946Y0020600D01*
X0021300Y0020262D01*
X0021662Y0019933D01*
X0022032Y0019613D01*
X0022410Y0019302D01*
X0022795Y0019000D01*
X0023188Y0018708D01*
X0023587Y0018425D01*
X0023993Y0018152D01*
X0024405Y0017889D01*
X0024824Y0017636D01*
X0025249Y0017393D01*
X0025679Y0017160D01*
X0026115Y0016938D01*
X0026556Y0016727D01*
X0027003Y0016526D01*
X0027454Y0016336D01*
X0027909Y0016157D01*
X0028369Y0015989D01*
X0028832Y0015832D01*
X0029299Y0015686D01*
X0029770Y0015552D01*
X0030243Y0015429D01*
X0030720Y0015318D01*
X0031199Y0015218D01*
X0031680Y0015130D01*
X0032163Y0015053D01*
X0032648Y0014989D01*
X0033135Y0014936D01*
X0033622Y0014894D01*
X0034111Y0014865D01*
X0034600Y0014847D01*
X0035089Y0014841D01*
X0081356Y0029227D02*
X0142595Y0029227D01*
X0143258Y0030825D02*
X0082012Y0030825D01*
X0083611Y0032424D02*
X0144514Y0032424D01*
X0147302Y0034022D02*
X0085209Y0034022D01*
X0086808Y0035621D02*
X0113118Y0035621D01*
X0113281Y0035621D02*
X0113448Y0035621D01*
X0108651Y0037219D02*
X0095108Y0037219D01*
X0095590Y0038818D02*
X0105717Y0038818D01*
X0103627Y0040416D02*
X0095153Y0040416D01*
X0096101Y0045212D02*
X0099555Y0045212D01*
X0098589Y0046810D02*
X0096590Y0046810D01*
X0096160Y0048409D02*
X0097878Y0048409D01*
X0097278Y0050007D02*
X0095912Y0050007D01*
X0105083Y0053094D02*
X0104680Y0054948D01*
X0104545Y0056840D01*
X0104680Y0058732D01*
X0105083Y0060586D01*
X0105746Y0062363D01*
X0106655Y0064028D01*
X0107792Y0065547D01*
X0109133Y0066888D01*
X0110652Y0068025D01*
X0112317Y0068934D01*
X0114094Y0069597D01*
X0115948Y0070000D01*
X0117901Y0070140D01*
X0118750Y0070140D01*
X0120598Y0069944D01*
X0122369Y0069494D01*
X0124057Y0068797D01*
X0125630Y0067867D01*
X0127054Y0066722D01*
X0128300Y0065387D01*
X0129344Y0063887D01*
X0130164Y0062255D01*
X0130743Y0060522D01*
X0131069Y0058725D01*
X0131140Y0056809D01*
X0131140Y0056216D01*
X0130986Y0054494D01*
X0130616Y0052841D01*
X0130033Y0051250D01*
X0129248Y0049749D01*
X0128273Y0048363D01*
X0127126Y0047117D01*
X0125826Y0046030D01*
X0124396Y0045123D01*
X0122859Y0044410D01*
X0121242Y0043904D01*
X0119573Y0043614D01*
X0117866Y0043543D01*
X0115948Y0043680D01*
X0114094Y0044083D01*
X0112317Y0044746D01*
X0110652Y0045655D01*
X0109133Y0046792D01*
X0107792Y0048133D01*
X0106655Y0049652D01*
X0105746Y0051317D01*
X0105083Y0053094D01*
X0105059Y0053204D02*
X0109269Y0053204D01*
X0109235Y0053276D02*
X0109688Y0052334D01*
X0110244Y0051450D01*
X0110895Y0050633D01*
X0111633Y0049895D01*
X0112450Y0049244D01*
X0113334Y0048688D01*
X0114276Y0048235D01*
X0115262Y0047890D01*
X0116280Y0047657D01*
X0117040Y0047571D01*
X0117040Y0056040D01*
X0118640Y0056040D01*
X0118640Y0047571D01*
X0119400Y0047657D01*
X0120419Y0047890D01*
X0121405Y0048235D01*
X0122346Y0048688D01*
X0123230Y0049244D01*
X0124047Y0049895D01*
X0124786Y0050633D01*
X0125437Y0051450D01*
X0125993Y0052334D01*
X0126446Y0053276D01*
X0126791Y0054262D01*
X0127023Y0055280D01*
X0127109Y0056040D01*
X0125893Y0056040D01*
X0125990Y0056530D01*
X0125990Y0056840D01*
X0122840Y0056840D01*
X0119690Y0056840D01*
X0119690Y0056530D01*
X0119788Y0056040D01*
X0118640Y0056040D01*
X0118640Y0057640D01*
X0117040Y0057640D01*
X0117040Y0056040D01*
X0108571Y0056040D01*
X0108657Y0055280D01*
X0108890Y0054262D01*
X0109235Y0053276D01*
X0108766Y0054803D02*
X0104711Y0054803D01*
X0104576Y0056401D02*
X0117040Y0056401D01*
X0117040Y0057640D02*
X0108571Y0057640D01*
X0108657Y0058400D01*
X0108890Y0059419D01*
X0109235Y0060405D01*
X0109688Y0061346D01*
X0110244Y0062230D01*
X0110895Y0063047D01*
X0111633Y0063786D01*
X0112450Y0064437D01*
X0113334Y0064993D01*
X0114276Y0065446D01*
X0115262Y0065791D01*
X0116280Y0066023D01*
X0117040Y0066109D01*
X0117040Y0057640D01*
X0117040Y0058000D02*
X0118640Y0058000D01*
X0118640Y0057640D02*
X0118640Y0066109D01*
X0119400Y0066023D01*
X0120419Y0065791D01*
X0121405Y0065446D01*
X0122346Y0064993D01*
X0123230Y0064437D01*
X0124047Y0063786D01*
X0124786Y0063047D01*
X0125437Y0062230D01*
X0125993Y0061346D01*
X0126446Y0060405D01*
X0126791Y0059419D01*
X0127023Y0058400D01*
X0127109Y0057640D01*
X0125893Y0057640D01*
X0125990Y0057150D01*
X0125990Y0056840D01*
X0122840Y0056840D01*
X0122840Y0056840D01*
X0119690Y0056840D01*
X0119690Y0057150D01*
X0119788Y0057640D01*
X0118640Y0057640D01*
X0118640Y0056401D02*
X0119716Y0056401D01*
X0118640Y0054803D02*
X0117040Y0054803D01*
X0117040Y0053204D02*
X0118640Y0053204D01*
X0118640Y0051606D02*
X0117040Y0051606D01*
X0117040Y0050007D02*
X0118640Y0050007D01*
X0118640Y0048409D02*
X0117040Y0048409D01*
X0113914Y0048409D02*
X0107586Y0048409D01*
X0106461Y0050007D02*
X0111521Y0050007D01*
X0110146Y0051606D02*
X0105638Y0051606D01*
X0109115Y0046810D02*
X0126760Y0046810D01*
X0128305Y0048409D02*
X0121767Y0048409D01*
X0124160Y0050007D02*
X0129383Y0050007D01*
X0130164Y0051606D02*
X0125535Y0051606D01*
X0126412Y0053204D02*
X0130697Y0053204D01*
X0131014Y0054803D02*
X0126914Y0054803D01*
X0125965Y0056401D02*
X0131140Y0056401D01*
X0131096Y0058000D02*
X0127068Y0058000D01*
X0126728Y0059598D02*
X0130911Y0059598D01*
X0130517Y0061197D02*
X0126064Y0061197D01*
X0124986Y0062796D02*
X0129892Y0062796D01*
X0128991Y0064394D02*
X0123284Y0064394D01*
X0119535Y0065993D02*
X0127735Y0065993D01*
X0125973Y0067591D02*
X0110072Y0067591D01*
X0113001Y0069190D02*
X0123107Y0069190D01*
X0118640Y0065993D02*
X0117040Y0065993D01*
X0116146Y0065993D02*
X0108238Y0065993D01*
X0106929Y0064394D02*
X0112396Y0064394D01*
X0110694Y0062796D02*
X0105982Y0062796D01*
X0105311Y0061197D02*
X0109616Y0061197D01*
X0108952Y0059598D02*
X0104868Y0059598D01*
X0104627Y0058000D02*
X0108612Y0058000D01*
X0117040Y0059598D02*
X0118640Y0059598D01*
X0118640Y0061197D02*
X0117040Y0061197D01*
X0117040Y0062796D02*
X0118640Y0062796D01*
X0118640Y0064394D02*
X0117040Y0064394D01*
X0122840Y0056840D02*
X0122840Y0056840D01*
X0124536Y0045212D02*
X0111464Y0045212D01*
X0116877Y0043613D02*
X0119565Y0043613D01*
X0122545Y0035621D02*
X0122716Y0035621D01*
X0122895Y0035621D02*
X0156740Y0035621D01*
X0156740Y0037219D02*
X0127289Y0037219D01*
X0130110Y0038818D02*
X0139084Y0038818D01*
X0137902Y0040416D02*
X0132186Y0040416D01*
X0133832Y0042015D02*
X0137402Y0042015D01*
X0137394Y0043613D02*
X0135285Y0043613D01*
X0136352Y0045212D02*
X0137876Y0045212D01*
X0137176Y0046810D02*
X0139032Y0046810D01*
X0138000Y0048409D02*
X0155140Y0048409D01*
X0155140Y0050007D02*
X0138577Y0050007D01*
X0138937Y0051606D02*
X0155140Y0051606D01*
X0155140Y0053204D02*
X0139301Y0053204D01*
X0139434Y0054803D02*
X0155140Y0054803D01*
X0155140Y0056401D02*
X0139586Y0056401D01*
X0139443Y0058000D02*
X0155140Y0058000D01*
X0155140Y0059598D02*
X0139312Y0059598D01*
X0138962Y0061197D02*
X0155140Y0061197D01*
X0155140Y0062796D02*
X0138612Y0062796D01*
X0137993Y0064394D02*
X0155140Y0064394D01*
X0155140Y0065993D02*
X0152397Y0065993D01*
X0153995Y0067591D02*
X0155140Y0067591D01*
X0145806Y0073985D02*
X0138099Y0073985D01*
X0135811Y0086773D02*
X0142306Y0086773D01*
X0142090Y0088372D02*
X0134213Y0088372D01*
X0153599Y0089970D02*
X0156740Y0089970D01*
X0156740Y0088372D02*
X0154590Y0088372D01*
X0155311Y0086773D02*
X0156740Y0086773D01*
X0149598Y0046810D02*
X0146648Y0046810D01*
X0147805Y0045212D02*
X0148302Y0045212D01*
X0148324Y0040416D02*
X0147778Y0040416D01*
X0146596Y0038818D02*
X0149650Y0038818D01*
X0150378Y0034022D02*
X0156694Y0034022D01*
X0156514Y0032424D02*
X0153166Y0032424D01*
X0154423Y0030825D02*
X0156149Y0030825D01*
X0155777Y0029227D02*
X0155085Y0029227D01*
X0159840Y0034840D02*
X0159840Y0143840D01*
X0123622Y0129933D02*
X0111966Y0129933D01*
X0142640Y0046810D02*
X0143040Y0046810D01*
X0143040Y0045212D02*
X0142640Y0045212D01*
X0142640Y0043613D02*
X0143040Y0043613D01*
X0143040Y0042015D02*
X0142640Y0042015D01*
X0142640Y0040416D02*
X0143040Y0040416D01*
X0143040Y0038818D02*
X0142640Y0038818D01*
X0159840Y0034840D02*
X0159834Y0034357D01*
X0159817Y0033874D01*
X0159787Y0033391D01*
X0159747Y0032910D01*
X0159694Y0032429D01*
X0159630Y0031950D01*
X0159555Y0031473D01*
X0159467Y0030997D01*
X0159369Y0030524D01*
X0159259Y0030054D01*
X0159138Y0029586D01*
X0159005Y0029121D01*
X0158861Y0028660D01*
X0158706Y0028202D01*
X0158540Y0027748D01*
X0158363Y0027298D01*
X0158176Y0026853D01*
X0157977Y0026412D01*
X0157769Y0025976D01*
X0157549Y0025546D01*
X0157319Y0025120D01*
X0157079Y0024701D01*
X0156829Y0024287D01*
X0156569Y0023880D01*
X0156300Y0023479D01*
X0156020Y0023084D01*
X0155732Y0022697D01*
X0155433Y0022316D01*
X0155126Y0021943D01*
X0154810Y0021578D01*
X0154485Y0021220D01*
X0154152Y0020870D01*
X0153810Y0020528D01*
X0153460Y0020195D01*
X0153102Y0019870D01*
X0152737Y0019554D01*
X0152364Y0019247D01*
X0151983Y0018948D01*
X0151596Y0018660D01*
X0151201Y0018380D01*
X0150800Y0018111D01*
X0150393Y0017851D01*
X0149979Y0017601D01*
X0149560Y0017361D01*
X0149134Y0017131D01*
X0148704Y0016911D01*
X0148268Y0016703D01*
X0147827Y0016504D01*
X0147382Y0016317D01*
X0146932Y0016140D01*
X0146478Y0015974D01*
X0146020Y0015819D01*
X0145559Y0015675D01*
X0145094Y0015542D01*
X0144626Y0015421D01*
X0144156Y0015311D01*
X0143683Y0015213D01*
X0143207Y0015125D01*
X0142730Y0015050D01*
X0142251Y0014986D01*
X0141770Y0014933D01*
X0141289Y0014893D01*
X0140806Y0014863D01*
X0140323Y0014846D01*
X0139840Y0014840D01*
X0156030Y0038818D02*
X0156740Y0038818D01*
X0026150Y0142721D02*
X0018272Y0142721D01*
X0018637Y0144320D02*
X0023451Y0144320D01*
X0022231Y0145918D02*
X0019127Y0145918D01*
X0019897Y0147517D02*
X0021569Y0147517D01*
X0021540Y0149115D02*
X0020757Y0149115D01*
D12*
X0142840Y0042840D03*
X0152840Y0042840D03*
D13*
X0117840Y0056840D03*
X0056840Y0056840D03*
X0056840Y0117840D03*
X0117840Y0117840D03*
D14*
X0117840Y0100340D03*
X0100340Y0056840D03*
X0056840Y0074340D03*
X0074340Y0117840D03*
D15*
X0073840Y0117340D01*
X0073840Y0097840D01*
X0092840Y0078840D01*
X0093840Y0078840D01*
X0130840Y0078840D01*
X0137840Y0071840D01*
X0148840Y0071840D01*
X0150840Y0073840D01*
X0150840Y0077840D01*
X0148840Y0079840D01*
X0147840Y0075840D02*
X0144340Y0075840D01*
X0121590Y0098590D01*
X0111590Y0098590D01*
X0108090Y0095090D01*
X0110547Y0099230D02*
X0125133Y0099230D01*
X0110547Y0099230D01*
X0110748Y0099140D02*
X0108546Y0100131D01*
X0106479Y0101380D01*
X0104578Y0102870D01*
X0102870Y0104578D01*
X0101380Y0106479D01*
X0100131Y0108546D01*
X0099140Y0110748D01*
X0098421Y0113054D01*
X0097986Y0115429D01*
X0097840Y0117840D01*
X0098071Y0120428D01*
X0098627Y0122966D01*
X0099499Y0125414D01*
X0100673Y0127732D01*
X0102130Y0129883D01*
X0103847Y0131833D01*
X0105797Y0133550D01*
X0107948Y0135008D01*
X0110266Y0136182D01*
X0112714Y0137054D01*
X0115252Y0137609D01*
X0117840Y0137840D01*
X0117840Y0132840D01*
X0115772Y0132764D01*
X0113735Y0132394D01*
X0111771Y0131738D01*
X0109922Y0130809D01*
X0108223Y0129626D01*
X0106709Y0128214D01*
X0105412Y0126600D01*
X0104358Y0124819D01*
X0103568Y0122905D01*
X0103059Y0120899D01*
X0102840Y0118840D01*
X0102840Y0117840D01*
X0102993Y0115705D01*
X0103448Y0113614D01*
X0104196Y0111609D01*
X0105221Y0109731D01*
X0106504Y0108017D01*
X0108017Y0106504D01*
X0109731Y0105221D01*
X0111609Y0104196D01*
X0113614Y0103448D01*
X0115705Y0102993D01*
X0117840Y0102840D01*
X0119975Y0102993D01*
X0122066Y0103448D01*
X0124071Y0104196D01*
X0125950Y0105221D01*
X0127663Y0106504D01*
X0129176Y0108017D01*
X0130459Y0109731D01*
X0131485Y0111609D01*
X0132233Y0113614D01*
X0132687Y0115705D01*
X0132840Y0117840D01*
X0132761Y0119755D01*
X0132432Y0121644D01*
X0131859Y0123473D01*
X0131052Y0125212D01*
X0130026Y0126831D01*
X0128797Y0128302D01*
X0127386Y0129600D01*
X0125818Y0130702D01*
X0124120Y0131591D01*
X0122320Y0132250D01*
X0120449Y0132669D01*
X0118540Y0132840D01*
X0118540Y0137840D01*
X0121102Y0137626D01*
X0123614Y0137080D01*
X0126033Y0136210D01*
X0128318Y0135033D01*
X0130430Y0133566D01*
X0132332Y0131837D01*
X0133993Y0129875D01*
X0135383Y0127712D01*
X0136478Y0125387D01*
X0137261Y0122938D01*
X0137718Y0120408D01*
X0137840Y0117840D01*
X0137694Y0115429D01*
X0137259Y0113054D01*
X0136540Y0110748D01*
X0135549Y0108546D01*
X0134300Y0106479D01*
X0132810Y0104578D01*
X0131103Y0102870D01*
X0129201Y0101380D01*
X0127135Y0100131D01*
X0124932Y0099140D01*
X0122626Y0098421D01*
X0120251Y0097986D01*
X0117840Y0097840D01*
X0115429Y0097986D01*
X0113054Y0098421D01*
X0110748Y0099140D01*
X0108546Y0100131D01*
X0106479Y0101380D01*
X0104578Y0102870D01*
X0102870Y0104578D01*
X0101380Y0106479D01*
X0100131Y0108546D01*
X0099140Y0110748D01*
X0098421Y0113054D01*
X0097986Y0115429D01*
X0097840Y0117840D01*
X0098071Y0120428D01*
X0098627Y0122966D01*
X0099499Y0125414D01*
X0100673Y0127732D01*
X0102130Y0129883D01*
X0103847Y0131833D01*
X0105797Y0133550D01*
X0107948Y0135008D01*
X0110266Y0136182D01*
X0112714Y0137054D01*
X0115252Y0137609D01*
X0117840Y0137840D01*
X0117840Y0132840D01*
X0115772Y0132764D01*
X0113735Y0132394D01*
X0111771Y0131738D01*
X0109922Y0130809D01*
X0108223Y0129626D01*
X0106709Y0128214D01*
X0105412Y0126600D01*
X0104358Y0124819D01*
X0103568Y0122905D01*
X0103059Y0120899D01*
X0102840Y0118840D01*
X0102840Y0117840D01*
X0102993Y0115705D01*
X0103448Y0113614D01*
X0104196Y0111609D01*
X0105221Y0109731D01*
X0106504Y0108017D01*
X0108017Y0106504D01*
X0109731Y0105221D01*
X0111609Y0104196D01*
X0113614Y0103448D01*
X0115705Y0102993D01*
X0117840Y0102840D01*
X0119975Y0102993D01*
X0122066Y0103448D01*
X0124071Y0104196D01*
X0125950Y0105221D01*
X0127663Y0106504D01*
X0129176Y0108017D01*
X0130459Y0109731D01*
X0131485Y0111609D01*
X0132233Y0113614D01*
X0132687Y0115705D01*
X0132840Y0117840D01*
X0132761Y0119755D01*
X0132432Y0121644D01*
X0131859Y0123473D01*
X0131052Y0125212D01*
X0130026Y0126831D01*
X0128797Y0128302D01*
X0127386Y0129600D01*
X0125818Y0130702D01*
X0124120Y0131591D01*
X0122320Y0132250D01*
X0120449Y0132669D01*
X0118540Y0132840D01*
X0118540Y0137840D01*
X0121102Y0137626D01*
X0123614Y0137080D01*
X0126033Y0136210D01*
X0128318Y0135033D01*
X0130430Y0133566D01*
X0132332Y0131837D01*
X0133993Y0129875D01*
X0135383Y0127712D01*
X0136478Y0125387D01*
X0137261Y0122938D01*
X0137718Y0120408D01*
X0137840Y0117840D01*
X0137694Y0115429D01*
X0137259Y0113054D01*
X0136540Y0110748D01*
X0135549Y0108546D01*
X0134300Y0106479D01*
X0132810Y0104578D01*
X0131103Y0102870D01*
X0129201Y0101380D01*
X0127135Y0100131D01*
X0124932Y0099140D01*
X0122626Y0098421D01*
X0120251Y0097986D01*
X0117840Y0097840D01*
X0115429Y0097986D01*
X0113054Y0098421D01*
X0110748Y0099140D01*
X0109217Y0099829D02*
X0126463Y0099829D01*
X0109217Y0099829D01*
X0108056Y0100427D02*
X0127625Y0100427D01*
X0108056Y0100427D01*
X0107066Y0101026D02*
X0128615Y0101026D01*
X0107066Y0101026D01*
X0106168Y0101624D02*
X0129513Y0101624D01*
X0106168Y0101624D01*
X0105404Y0102223D02*
X0130277Y0102223D01*
X0105404Y0102223D01*
X0104640Y0102821D02*
X0131041Y0102821D01*
X0104640Y0102821D01*
X0104028Y0103420D02*
X0113743Y0103420D01*
X0104028Y0103420D01*
X0103429Y0104018D02*
X0112084Y0104018D01*
X0103429Y0104018D01*
X0102839Y0104617D02*
X0110838Y0104617D01*
X0102839Y0104617D01*
X0102370Y0105215D02*
X0109742Y0105215D01*
X0102370Y0105215D01*
X0101901Y0105814D02*
X0108939Y0105814D01*
X0101901Y0105814D01*
X0101433Y0106412D02*
X0108140Y0106412D01*
X0101433Y0106412D01*
X0101059Y0107011D02*
X0107510Y0107011D01*
X0101059Y0107011D01*
X0100697Y0107609D02*
X0106912Y0107609D01*
X0100697Y0107609D01*
X0100335Y0108208D02*
X0106361Y0108208D01*
X0100335Y0108208D01*
X0100014Y0108806D02*
X0105913Y0108806D01*
X0100014Y0108806D01*
X0099744Y0109405D02*
X0105465Y0109405D01*
X0099744Y0109405D01*
X0099475Y0110003D02*
X0105072Y0110003D01*
X0099475Y0110003D01*
X0099206Y0110602D02*
X0104746Y0110602D01*
X0099206Y0110602D01*
X0098999Y0111200D02*
X0104419Y0111200D01*
X0098999Y0111200D01*
X0098812Y0111799D02*
X0104125Y0111799D01*
X0098812Y0111799D01*
X0098626Y0112398D02*
X0103902Y0112398D01*
X0098626Y0112398D01*
X0098439Y0112996D02*
X0103678Y0112996D01*
X0098439Y0112996D01*
X0098322Y0113595D02*
X0103455Y0113595D01*
X0098322Y0113595D01*
X0098213Y0114193D02*
X0103322Y0114193D01*
X0098213Y0114193D01*
X0098103Y0114792D02*
X0103192Y0114792D01*
X0098103Y0114792D01*
X0097993Y0115390D02*
X0103061Y0115390D01*
X0097993Y0115390D01*
X0097952Y0115989D02*
X0102973Y0115989D01*
X0097952Y0115989D01*
X0097916Y0116587D02*
X0102930Y0116587D01*
X0097916Y0116587D01*
X0097880Y0117186D02*
X0102887Y0117186D01*
X0097880Y0117186D01*
X0097844Y0117784D02*
X0102844Y0117784D01*
X0097844Y0117784D01*
X0097889Y0118383D02*
X0102840Y0118383D01*
X0097889Y0118383D01*
X0097942Y0118981D02*
X0102855Y0118981D01*
X0097942Y0118981D01*
X0097995Y0119580D02*
X0102919Y0119580D01*
X0097995Y0119580D01*
X0098049Y0120178D02*
X0102982Y0120178D01*
X0098049Y0120178D01*
X0098147Y0120777D02*
X0103046Y0120777D01*
X0098147Y0120777D01*
X0098278Y0121375D02*
X0103180Y0121375D01*
X0098278Y0121375D01*
X0098409Y0121974D02*
X0103332Y0121974D01*
X0098409Y0121974D01*
X0098540Y0122572D02*
X0103484Y0122572D01*
X0098540Y0122572D01*
X0098700Y0123171D02*
X0103678Y0123171D01*
X0098700Y0123171D01*
X0098913Y0123769D02*
X0103925Y0123769D01*
X0098913Y0123769D01*
X0099126Y0124368D02*
X0104172Y0124368D01*
X0099126Y0124368D01*
X0099339Y0124966D02*
X0104446Y0124966D01*
X0099339Y0124966D01*
X0099575Y0125565D02*
X0104800Y0125565D01*
X0099575Y0125565D01*
X0099878Y0126163D02*
X0105154Y0126163D01*
X0099878Y0126163D01*
X0100181Y0126762D02*
X0105542Y0126762D01*
X0100181Y0126762D01*
X0100484Y0127360D02*
X0106023Y0127360D01*
X0100484Y0127360D01*
X0100826Y0127959D02*
X0106504Y0127959D01*
X0100826Y0127959D01*
X0101232Y0128557D02*
X0107078Y0128557D01*
X0101232Y0128557D01*
X0101637Y0129156D02*
X0107719Y0129156D01*
X0101637Y0129156D01*
X0102043Y0129754D02*
X0108407Y0129754D01*
X0102043Y0129754D01*
X0102544Y0130353D02*
X0109267Y0130353D01*
X0102544Y0130353D01*
X0103071Y0130951D02*
X0110206Y0130951D01*
X0103071Y0130951D01*
X0103598Y0131550D02*
X0111398Y0131550D01*
X0103598Y0131550D01*
X0104206Y0132148D02*
X0113001Y0132148D01*
X0104206Y0132148D01*
X0104885Y0132747D02*
X0115679Y0132747D01*
X0104885Y0132747D01*
X0105565Y0133345D02*
X0117840Y0133345D01*
X0105565Y0133345D01*
X0106378Y0133944D02*
X0117840Y0133944D01*
X0106378Y0133944D01*
X0107262Y0134542D02*
X0117840Y0134542D01*
X0107262Y0134542D01*
X0108212Y0135141D02*
X0117840Y0135141D01*
X0108212Y0135141D01*
X0109393Y0135739D02*
X0117840Y0135739D01*
X0109393Y0135739D01*
X0110705Y0136338D02*
X0117840Y0136338D01*
X0110705Y0136338D01*
X0112385Y0136936D02*
X0117840Y0136936D01*
X0112385Y0136936D01*
X0114912Y0137535D02*
X0117840Y0137535D01*
X0114912Y0137535D01*
X0118540Y0137535D02*
X0121522Y0137535D01*
X0118540Y0137535D01*
X0118540Y0136936D02*
X0124013Y0136936D01*
X0118540Y0136936D01*
X0118540Y0136338D02*
X0125679Y0136338D01*
X0118540Y0136338D01*
X0118540Y0135739D02*
X0126947Y0135739D01*
X0118540Y0135739D01*
X0118540Y0135141D02*
X0128108Y0135141D01*
X0118540Y0135141D01*
X0118540Y0134542D02*
X0129024Y0134542D01*
X0118540Y0134542D01*
X0118540Y0133944D02*
X0129886Y0133944D01*
X0118540Y0133944D01*
X0118540Y0133345D02*
X0130673Y0133345D01*
X0118540Y0133345D01*
X0119581Y0132747D02*
X0131332Y0132747D01*
X0119581Y0132747D01*
X0122598Y0132148D02*
X0131990Y0132148D01*
X0122598Y0132148D01*
X0124199Y0131550D02*
X0132575Y0131550D01*
X0124199Y0131550D01*
X0125343Y0130951D02*
X0133082Y0130951D01*
X0125343Y0130951D01*
X0126315Y0130353D02*
X0133588Y0130353D01*
X0126315Y0130353D01*
X0127166Y0129754D02*
X0134070Y0129754D01*
X0127166Y0129754D01*
X0127869Y0129156D02*
X0134455Y0129156D01*
X0127869Y0129156D01*
X0128519Y0128557D02*
X0134839Y0128557D01*
X0128519Y0128557D01*
X0129083Y0127959D02*
X0135224Y0127959D01*
X0129083Y0127959D01*
X0129583Y0127360D02*
X0135548Y0127360D01*
X0129583Y0127360D01*
X0130070Y0126762D02*
X0135830Y0126762D01*
X0130070Y0126762D01*
X0130449Y0126163D02*
X0136112Y0126163D01*
X0130449Y0126163D01*
X0130829Y0125565D02*
X0136394Y0125565D01*
X0130829Y0125565D01*
X0131166Y0124966D02*
X0136613Y0124966D01*
X0131166Y0124966D01*
X0131444Y0124368D02*
X0136804Y0124368D01*
X0131444Y0124368D01*
X0131722Y0123769D02*
X0136995Y0123769D01*
X0131722Y0123769D01*
X0131954Y0123171D02*
X0137187Y0123171D01*
X0131954Y0123171D01*
X0132141Y0122572D02*
X0137327Y0122572D01*
X0132141Y0122572D01*
X0132328Y0121974D02*
X0137435Y0121974D01*
X0132328Y0121974D01*
X0132478Y0121375D02*
X0137543Y0121375D01*
X0132478Y0121375D01*
X0132583Y0120777D02*
X0137651Y0120777D01*
X0132583Y0120777D01*
X0132687Y0120178D02*
X0137729Y0120178D01*
X0132687Y0120178D01*
X0132768Y0119580D02*
X0137757Y0119580D01*
X0132768Y0119580D01*
X0132793Y0118981D02*
X0137786Y0118981D01*
X0132793Y0118981D01*
X0132818Y0118383D02*
X0137814Y0118383D01*
X0132818Y0118383D01*
X0132836Y0117784D02*
X0137837Y0117784D01*
X0132836Y0117784D01*
X0132793Y0117186D02*
X0137801Y0117186D01*
X0132793Y0117186D01*
X0132751Y0116587D02*
X0137764Y0116587D01*
X0132751Y0116587D01*
X0132708Y0115989D02*
X0137728Y0115989D01*
X0132708Y0115989D01*
X0132619Y0115390D02*
X0137687Y0115390D01*
X0132619Y0115390D01*
X0132489Y0114792D02*
X0137577Y0114792D01*
X0132489Y0114792D01*
X0132358Y0114193D02*
X0137468Y0114193D01*
X0132358Y0114193D01*
X0132225Y0113595D02*
X0137358Y0113595D01*
X0132225Y0113595D01*
X0132002Y0112996D02*
X0137241Y0112996D01*
X0132002Y0112996D01*
X0131779Y0112398D02*
X0137054Y0112398D01*
X0131779Y0112398D01*
X0131556Y0111799D02*
X0136868Y0111799D01*
X0131556Y0111799D01*
X0131262Y0111200D02*
X0136681Y0111200D01*
X0131262Y0111200D01*
X0130935Y0110602D02*
X0136475Y0110602D01*
X0130935Y0110602D01*
X0130608Y0110003D02*
X0136205Y0110003D01*
X0130608Y0110003D01*
X0130215Y0109405D02*
X0135936Y0109405D01*
X0130215Y0109405D01*
X0129767Y0108806D02*
X0135667Y0108806D01*
X0129767Y0108806D01*
X0129319Y0108208D02*
X0135345Y0108208D01*
X0129319Y0108208D01*
X0128769Y0107609D02*
X0134983Y0107609D01*
X0128769Y0107609D01*
X0128170Y0107011D02*
X0134621Y0107011D01*
X0128170Y0107011D01*
X0127541Y0106412D02*
X0134248Y0106412D01*
X0127541Y0106412D01*
X0126741Y0105814D02*
X0133779Y0105814D01*
X0126741Y0105814D01*
X0125939Y0105215D02*
X0133310Y0105215D01*
X0125939Y0105215D01*
X0124843Y0104617D02*
X0132841Y0104617D01*
X0124843Y0104617D01*
X0123596Y0104018D02*
X0132251Y0104018D01*
X0123596Y0104018D01*
X0121938Y0103420D02*
X0131653Y0103420D01*
X0121938Y0103420D01*
X0121590Y0098590D02*
X0117840Y0100340D01*
X0115172Y0098033D02*
X0120509Y0098033D01*
X0115172Y0098033D01*
X0112379Y0098632D02*
X0123302Y0098632D01*
X0112379Y0098632D01*
X0115429Y0076694D02*
X0113054Y0076259D01*
X0110748Y0075540D01*
X0108546Y0074549D01*
X0106479Y0073300D01*
X0104578Y0071810D01*
X0102870Y0070103D01*
X0101380Y0068201D01*
X0100131Y0066135D01*
X0099140Y0063932D01*
X0098421Y0061626D01*
X0097986Y0059251D01*
X0097840Y0056840D01*
X0097986Y0054429D01*
X0098421Y0052054D01*
X0099140Y0049748D01*
X0100131Y0047546D01*
X0101380Y0045479D01*
X0102870Y0043578D01*
X0104578Y0041870D01*
X0106479Y0040380D01*
X0108546Y0039131D01*
X0110748Y0038140D01*
X0113054Y0037421D01*
X0115429Y0036986D01*
X0117840Y0036840D01*
X0120408Y0036963D01*
X0122938Y0037419D01*
X0125387Y0038202D01*
X0127712Y0039298D01*
X0129875Y0040688D01*
X0131837Y0042348D01*
X0133566Y0044250D01*
X0135033Y0046362D01*
X0136210Y0048647D01*
X0137080Y0051066D01*
X0137626Y0053578D01*
X0137840Y0056140D01*
X0132840Y0056140D01*
X0132669Y0054231D01*
X0132250Y0052360D01*
X0131591Y0050560D01*
X0130702Y0048862D01*
X0129600Y0047294D01*
X0128302Y0045884D01*
X0126831Y0044654D01*
X0125212Y0043628D01*
X0123473Y0042821D01*
X0121644Y0042249D01*
X0119755Y0041920D01*
X0117840Y0041840D01*
X0115705Y0041993D01*
X0113614Y0042448D01*
X0111609Y0043196D01*
X0109731Y0044221D01*
X0108017Y0045504D01*
X0106504Y0047017D01*
X0105221Y0048731D01*
X0104196Y0050609D01*
X0103448Y0052614D01*
X0102993Y0054705D01*
X0102840Y0056840D01*
X0102993Y0058975D01*
X0103448Y0061066D01*
X0104196Y0063071D01*
X0105221Y0064950D01*
X0106504Y0066663D01*
X0108017Y0068176D01*
X0109731Y0069459D01*
X0111609Y0070485D01*
X0113614Y0071233D01*
X0115705Y0071687D01*
X0117840Y0071840D01*
X0118840Y0071840D01*
X0120899Y0071621D01*
X0122905Y0071112D01*
X0124819Y0070322D01*
X0126600Y0069268D01*
X0128214Y0067971D01*
X0129626Y0066458D01*
X0130809Y0064759D01*
X0131738Y0062909D01*
X0132394Y0060946D01*
X0132764Y0058909D01*
X0132840Y0056840D01*
X0137840Y0056840D01*
X0137609Y0059428D01*
X0137054Y0061966D01*
X0136182Y0064414D01*
X0135008Y0066732D01*
X0133550Y0068883D01*
X0131833Y0070833D01*
X0129883Y0072550D01*
X0127732Y0074008D01*
X0125414Y0075182D01*
X0122966Y0076054D01*
X0120428Y0076609D01*
X0117840Y0076840D01*
X0115429Y0076694D01*
X0117840Y0076840D01*
X0120428Y0076609D01*
X0122966Y0076054D01*
X0125414Y0075182D01*
X0127732Y0074008D01*
X0129883Y0072550D01*
X0131833Y0070833D01*
X0133550Y0068883D01*
X0135008Y0066732D01*
X0136182Y0064414D01*
X0137054Y0061966D01*
X0137609Y0059428D01*
X0137840Y0056840D01*
X0132840Y0056840D01*
X0132764Y0058909D01*
X0132394Y0060946D01*
X0131738Y0062909D01*
X0130809Y0064759D01*
X0129626Y0066458D01*
X0128214Y0067971D01*
X0126600Y0069268D01*
X0124819Y0070322D01*
X0122905Y0071112D01*
X0120899Y0071621D01*
X0118840Y0071840D01*
X0117840Y0071840D01*
X0115705Y0071687D01*
X0113614Y0071233D01*
X0111609Y0070485D01*
X0109731Y0069459D01*
X0108017Y0068176D01*
X0106504Y0066663D01*
X0105221Y0064950D01*
X0104196Y0063071D01*
X0103448Y0061066D01*
X0102993Y0058975D01*
X0102840Y0056840D01*
X0102993Y0054705D01*
X0103448Y0052614D01*
X0104196Y0050609D01*
X0105221Y0048731D01*
X0106504Y0047017D01*
X0108017Y0045504D01*
X0109731Y0044221D01*
X0111609Y0043196D01*
X0113614Y0042448D01*
X0115705Y0041993D01*
X0117840Y0041840D01*
X0119755Y0041920D01*
X0121644Y0042249D01*
X0123473Y0042821D01*
X0125212Y0043628D01*
X0126831Y0044654D01*
X0128302Y0045884D01*
X0129600Y0047294D01*
X0130702Y0048862D01*
X0131591Y0050560D01*
X0132250Y0052360D01*
X0132669Y0054231D01*
X0132840Y0056140D01*
X0137840Y0056140D01*
X0137626Y0053578D01*
X0137080Y0051066D01*
X0136210Y0048647D01*
X0135033Y0046362D01*
X0133566Y0044250D01*
X0131837Y0042348D01*
X0129875Y0040688D01*
X0127712Y0039298D01*
X0125387Y0038202D01*
X0122938Y0037419D01*
X0120408Y0036963D01*
X0117840Y0036840D01*
X0115429Y0036986D01*
X0113054Y0037421D01*
X0110748Y0038140D01*
X0108546Y0039131D01*
X0106479Y0040380D01*
X0104578Y0041870D01*
X0102870Y0043578D01*
X0101380Y0045479D01*
X0100131Y0047546D01*
X0099140Y0049748D01*
X0098421Y0052054D01*
X0097986Y0054429D01*
X0097840Y0056840D01*
X0097986Y0059251D01*
X0098421Y0061626D01*
X0099140Y0063932D01*
X0100131Y0066135D01*
X0101380Y0068201D01*
X0102870Y0070103D01*
X0104578Y0071810D01*
X0106479Y0073300D01*
X0108546Y0074549D01*
X0110748Y0075540D01*
X0113054Y0076259D01*
X0115429Y0076694D01*
X0114297Y0076487D02*
X0120988Y0076487D01*
X0114297Y0076487D01*
X0111864Y0075888D02*
X0123430Y0075888D01*
X0111864Y0075888D01*
X0110191Y0075290D02*
X0125110Y0075290D01*
X0110191Y0075290D01*
X0108861Y0074691D02*
X0126382Y0074691D01*
X0108861Y0074691D01*
X0107791Y0074093D02*
X0127564Y0074093D01*
X0107791Y0074093D01*
X0106800Y0073494D02*
X0128490Y0073494D01*
X0106800Y0073494D01*
X0105963Y0072896D02*
X0129373Y0072896D01*
X0105963Y0072896D01*
X0105199Y0072297D02*
X0130170Y0072297D01*
X0105199Y0072297D01*
X0104466Y0071699D02*
X0115863Y0071699D01*
X0104466Y0071699D01*
X0103868Y0071100D02*
X0113259Y0071100D01*
X0103868Y0071100D01*
X0103269Y0070502D02*
X0111655Y0070502D01*
X0103269Y0070502D01*
X0102714Y0069903D02*
X0110544Y0069903D01*
X0102714Y0069903D01*
X0102245Y0069305D02*
X0109524Y0069305D01*
X0102245Y0069305D01*
X0101776Y0068706D02*
X0108725Y0068706D01*
X0101776Y0068706D01*
X0101324Y0068108D02*
X0107949Y0068108D01*
X0101324Y0068108D01*
X0100962Y0067509D02*
X0107350Y0067509D01*
X0100962Y0067509D01*
X0100600Y0066911D02*
X0106752Y0066911D01*
X0100600Y0066911D01*
X0100238Y0066312D02*
X0106241Y0066312D01*
X0100238Y0066312D01*
X0099942Y0065714D02*
X0105793Y0065714D01*
X0099942Y0065714D01*
X0099672Y0065115D02*
X0105345Y0065115D01*
X0099672Y0065115D01*
X0099403Y0064517D02*
X0104985Y0064517D01*
X0099403Y0064517D01*
X0099135Y0063918D02*
X0104658Y0063918D01*
X0099135Y0063918D01*
X0098949Y0063320D02*
X0104331Y0063320D01*
X0098949Y0063320D01*
X0098762Y0062721D02*
X0104065Y0062721D01*
X0098762Y0062721D01*
X0098576Y0062123D02*
X0103842Y0062123D01*
X0098576Y0062123D01*
X0098403Y0061524D02*
X0103619Y0061524D01*
X0098403Y0061524D01*
X0098293Y0060926D02*
X0103417Y0060926D01*
X0098293Y0060926D01*
X0098183Y0060327D02*
X0103287Y0060327D01*
X0098183Y0060327D01*
X0098074Y0059729D02*
X0103157Y0059729D01*
X0098074Y0059729D01*
X0097979Y0059130D02*
X0103027Y0059130D01*
X0097979Y0059130D01*
X0097942Y0058531D02*
X0102961Y0058531D01*
X0097942Y0058531D01*
X0097906Y0057933D02*
X0102918Y0057933D01*
X0097906Y0057933D01*
X0097870Y0057334D02*
X0102876Y0057334D01*
X0097870Y0057334D01*
X0097846Y0056736D02*
X0102848Y0056736D01*
X0097846Y0056736D01*
X0097883Y0056137D02*
X0102890Y0056137D01*
X0097883Y0056137D01*
X0097919Y0055539D02*
X0102933Y0055539D01*
X0097919Y0055539D01*
X0097955Y0054940D02*
X0102976Y0054940D01*
X0097955Y0054940D01*
X0098002Y0054342D02*
X0103072Y0054342D01*
X0098002Y0054342D01*
X0098112Y0053743D02*
X0103202Y0053743D01*
X0098112Y0053743D01*
X0098221Y0053145D02*
X0103332Y0053145D01*
X0098221Y0053145D01*
X0098331Y0052546D02*
X0103473Y0052546D01*
X0098331Y0052546D01*
X0098454Y0051948D02*
X0103696Y0051948D01*
X0098454Y0051948D01*
X0098641Y0051349D02*
X0103920Y0051349D01*
X0098641Y0051349D01*
X0098827Y0050751D02*
X0104143Y0050751D01*
X0098827Y0050751D01*
X0099014Y0050152D02*
X0104445Y0050152D01*
X0099014Y0050152D01*
X0099227Y0049554D02*
X0104772Y0049554D01*
X0099227Y0049554D01*
X0099497Y0048955D02*
X0105099Y0048955D01*
X0099497Y0048955D01*
X0099766Y0048357D02*
X0105501Y0048357D01*
X0099766Y0048357D01*
X0100035Y0047758D02*
X0105949Y0047758D01*
X0100035Y0047758D01*
X0100364Y0047160D02*
X0106397Y0047160D01*
X0100364Y0047160D01*
X0100726Y0046561D02*
X0106960Y0046561D01*
X0100726Y0046561D01*
X0101088Y0045963D02*
X0107558Y0045963D01*
X0101088Y0045963D01*
X0101470Y0045364D02*
X0108204Y0045364D01*
X0101470Y0045364D01*
X0101939Y0044766D02*
X0109003Y0044766D01*
X0101939Y0044766D01*
X0102408Y0044167D02*
X0109830Y0044167D01*
X0102408Y0044167D01*
X0102879Y0043569D02*
X0110926Y0043569D01*
X0102879Y0043569D01*
X0103477Y0042970D02*
X0112213Y0042970D01*
X0103477Y0042970D01*
X0104076Y0042372D02*
X0113964Y0042372D01*
X0104076Y0042372D01*
X0104701Y0041773D02*
X0131158Y0041773D01*
X0104701Y0041773D01*
X0105465Y0041175D02*
X0130450Y0041175D01*
X0105465Y0041175D01*
X0106229Y0040576D02*
X0129701Y0040576D01*
X0106229Y0040576D01*
X0107145Y0039978D02*
X0128770Y0039978D01*
X0107145Y0039978D01*
X0108135Y0039379D02*
X0127839Y0039379D01*
X0108135Y0039379D01*
X0109324Y0038781D02*
X0126615Y0038781D01*
X0109324Y0038781D01*
X0110654Y0038182D02*
X0125324Y0038182D01*
X0110654Y0038182D01*
X0112533Y0037584D02*
X0123452Y0037584D01*
X0112533Y0037584D01*
X0115444Y0036985D02*
X0120533Y0036985D01*
X0115444Y0036985D01*
X0122036Y0042372D02*
X0131859Y0042372D01*
X0122036Y0042372D01*
X0123794Y0042970D02*
X0132403Y0042970D01*
X0123794Y0042970D01*
X0125084Y0043569D02*
X0132947Y0043569D01*
X0125084Y0043569D01*
X0126062Y0044167D02*
X0133491Y0044167D01*
X0126062Y0044167D01*
X0126964Y0044766D02*
X0133924Y0044766D01*
X0126964Y0044766D01*
X0127680Y0045364D02*
X0134340Y0045364D01*
X0127680Y0045364D01*
X0128375Y0045963D02*
X0134755Y0045963D01*
X0128375Y0045963D01*
X0128925Y0046561D02*
X0135135Y0046561D01*
X0128925Y0046561D01*
X0129476Y0047160D02*
X0135444Y0047160D01*
X0129476Y0047160D01*
X0129926Y0047758D02*
X0135752Y0047758D01*
X0129926Y0047758D01*
X0130347Y0048357D02*
X0136061Y0048357D01*
X0130347Y0048357D01*
X0130751Y0048955D02*
X0136321Y0048955D01*
X0130751Y0048955D01*
X0131064Y0049554D02*
X0136536Y0049554D01*
X0131064Y0049554D01*
X0131378Y0050152D02*
X0136752Y0050152D01*
X0131378Y0050152D01*
X0131661Y0050751D02*
X0136967Y0050751D01*
X0131661Y0050751D01*
X0131880Y0051349D02*
X0137142Y0051349D01*
X0131880Y0051349D01*
X0132099Y0051948D02*
X0137272Y0051948D01*
X0132099Y0051948D01*
X0132292Y0052546D02*
X0137402Y0052546D01*
X0132292Y0052546D01*
X0132426Y0053145D02*
X0137532Y0053145D01*
X0132426Y0053145D01*
X0132560Y0053743D02*
X0137640Y0053743D01*
X0132560Y0053743D01*
X0132679Y0054342D02*
X0137690Y0054342D01*
X0132679Y0054342D01*
X0132733Y0054940D02*
X0137740Y0054940D01*
X0132733Y0054940D01*
X0132786Y0055539D02*
X0137790Y0055539D01*
X0132786Y0055539D01*
X0132840Y0056137D02*
X0137840Y0056137D01*
X0132840Y0056137D01*
X0132822Y0057334D02*
X0137796Y0057334D01*
X0132822Y0057334D01*
X0132800Y0057933D02*
X0137743Y0057933D01*
X0132800Y0057933D01*
X0132778Y0058531D02*
X0137689Y0058531D01*
X0132778Y0058531D01*
X0132724Y0059130D02*
X0137636Y0059130D01*
X0132724Y0059130D01*
X0132615Y0059729D02*
X0137544Y0059729D01*
X0132615Y0059729D01*
X0132506Y0060327D02*
X0137413Y0060327D01*
X0132506Y0060327D01*
X0132397Y0060926D02*
X0137281Y0060926D01*
X0132397Y0060926D01*
X0132200Y0061524D02*
X0137150Y0061524D01*
X0132200Y0061524D01*
X0132000Y0062123D02*
X0136998Y0062123D01*
X0132000Y0062123D01*
X0131800Y0062721D02*
X0136785Y0062721D01*
X0131800Y0062721D01*
X0131531Y0063320D02*
X0136572Y0063320D01*
X0131531Y0063320D01*
X0131231Y0063918D02*
X0136358Y0063918D01*
X0131231Y0063918D01*
X0130930Y0064517D02*
X0136130Y0064517D01*
X0130930Y0064517D01*
X0130561Y0065115D02*
X0135827Y0065115D01*
X0130561Y0065115D01*
X0130144Y0065714D02*
X0135523Y0065714D01*
X0130144Y0065714D01*
X0129727Y0066312D02*
X0135220Y0066312D01*
X0129727Y0066312D01*
X0129203Y0066911D02*
X0134887Y0066911D01*
X0129203Y0066911D01*
X0128645Y0067509D02*
X0134481Y0067509D01*
X0128645Y0067509D01*
X0128044Y0068108D02*
X0134076Y0068108D01*
X0128044Y0068108D01*
X0127299Y0068706D02*
X0133670Y0068706D01*
X0127299Y0068706D01*
X0126538Y0069305D02*
X0133179Y0069305D01*
X0126538Y0069305D01*
X0125527Y0069903D02*
X0132652Y0069903D01*
X0125527Y0069903D01*
X0124383Y0070502D02*
X0132125Y0070502D01*
X0124383Y0070502D01*
X0122933Y0071100D02*
X0131529Y0071100D01*
X0122933Y0071100D01*
X0120171Y0071699D02*
X0130850Y0071699D01*
X0120171Y0071699D01*
X0125840Y0072840D02*
X0110840Y0072840D01*
X0100840Y0062840D01*
X0100840Y0057340D01*
X0100340Y0056840D01*
X0093840Y0050340D01*
X0093840Y0046840D01*
X0076054Y0051714D02*
X0075182Y0049266D01*
X0074008Y0046948D01*
X0072550Y0044797D01*
X0070833Y0042847D01*
X0068883Y0041130D01*
X0066732Y0039673D01*
X0064414Y0038499D01*
X0061966Y0037627D01*
X0059428Y0037071D01*
X0056840Y0036840D01*
X0056840Y0041840D01*
X0058909Y0041917D01*
X0060946Y0042287D01*
X0062909Y0042943D01*
X0064759Y0043872D01*
X0066458Y0045054D01*
X0067971Y0046467D01*
X0069268Y0048080D01*
X0070322Y0049862D01*
X0071112Y0051775D01*
X0071621Y0053782D01*
X0071840Y0055840D01*
X0071840Y0056840D01*
X0071687Y0058975D01*
X0071233Y0061066D01*
X0070485Y0063071D01*
X0069459Y0064950D01*
X0068176Y0066663D01*
X0066663Y0068176D01*
X0064950Y0069459D01*
X0063071Y0070485D01*
X0061066Y0071233D01*
X0058975Y0071687D01*
X0056840Y0071840D01*
X0054705Y0071687D01*
X0052614Y0071233D01*
X0050609Y0070485D01*
X0048731Y0069459D01*
X0047017Y0068176D01*
X0045504Y0066663D01*
X0044221Y0064950D01*
X0043196Y0063071D01*
X0042448Y0061066D01*
X0041993Y0058975D01*
X0041840Y0056840D01*
X0041920Y0054925D01*
X0042249Y0053037D01*
X0042821Y0051207D01*
X0043628Y0049468D01*
X0044654Y0047849D01*
X0045884Y0046379D01*
X0047294Y0045081D01*
X0048862Y0043978D01*
X0050560Y0043089D01*
X0052360Y0042430D01*
X0054231Y0042011D01*
X0056140Y0041840D01*
X0056140Y0036840D01*
X0053578Y0037054D01*
X0051066Y0037600D01*
X0048647Y0038470D01*
X0046362Y0039648D01*
X0044250Y0041114D01*
X0042348Y0042843D01*
X0040688Y0044806D01*
X0039298Y0046968D01*
X0038202Y0049294D01*
X0037419Y0051742D01*
X0036963Y0054272D01*
X0036840Y0056840D01*
X0036986Y0059251D01*
X0037421Y0061626D01*
X0038140Y0063932D01*
X0039131Y0066135D01*
X0040380Y0068201D01*
X0041870Y0070103D01*
X0043578Y0071810D01*
X0045479Y0073300D01*
X0047546Y0074549D01*
X0049748Y0075540D01*
X0052054Y0076259D01*
X0054429Y0076694D01*
X0056840Y0076840D01*
X0059251Y0076694D01*
X0061626Y0076259D01*
X0063932Y0075540D01*
X0066135Y0074549D01*
X0068201Y0073300D01*
X0070103Y0071810D01*
X0071810Y0070103D01*
X0073300Y0068201D01*
X0074549Y0066135D01*
X0075540Y0063932D01*
X0076259Y0061626D01*
X0076694Y0059251D01*
X0076840Y0056840D01*
X0076609Y0054252D01*
X0076054Y0051714D01*
X0075182Y0049266D01*
X0074008Y0046948D01*
X0072550Y0044797D01*
X0070833Y0042847D01*
X0068883Y0041130D01*
X0066732Y0039673D01*
X0064414Y0038499D01*
X0061966Y0037627D01*
X0059428Y0037071D01*
X0056840Y0036840D01*
X0056840Y0041840D01*
X0058909Y0041917D01*
X0060946Y0042287D01*
X0062909Y0042943D01*
X0064759Y0043872D01*
X0066458Y0045054D01*
X0067971Y0046467D01*
X0069268Y0048080D01*
X0070322Y0049862D01*
X0071112Y0051775D01*
X0071621Y0053782D01*
X0071840Y0055840D01*
X0071840Y0056840D01*
X0071687Y0058975D01*
X0071233Y0061066D01*
X0070485Y0063071D01*
X0069459Y0064950D01*
X0068176Y0066663D01*
X0066663Y0068176D01*
X0064950Y0069459D01*
X0063071Y0070485D01*
X0061066Y0071233D01*
X0058975Y0071687D01*
X0056840Y0071840D01*
X0054705Y0071687D01*
X0052614Y0071233D01*
X0050609Y0070485D01*
X0048731Y0069459D01*
X0047017Y0068176D01*
X0045504Y0066663D01*
X0044221Y0064950D01*
X0043196Y0063071D01*
X0042448Y0061066D01*
X0041993Y0058975D01*
X0041840Y0056840D01*
X0041920Y0054925D01*
X0042249Y0053037D01*
X0042821Y0051207D01*
X0043628Y0049468D01*
X0044654Y0047849D01*
X0045884Y0046379D01*
X0047294Y0045081D01*
X0048862Y0043978D01*
X0050560Y0043089D01*
X0052360Y0042430D01*
X0054231Y0042011D01*
X0056140Y0041840D01*
X0056140Y0036840D01*
X0053578Y0037054D01*
X0051066Y0037600D01*
X0048647Y0038470D01*
X0046362Y0039648D01*
X0044250Y0041114D01*
X0042348Y0042843D01*
X0040688Y0044806D01*
X0039298Y0046968D01*
X0038202Y0049294D01*
X0037419Y0051742D01*
X0036963Y0054272D01*
X0036840Y0056840D01*
X0036986Y0059251D01*
X0037421Y0061626D01*
X0038140Y0063932D01*
X0039131Y0066135D01*
X0040380Y0068201D01*
X0041870Y0070103D01*
X0043578Y0071810D01*
X0045479Y0073300D01*
X0047546Y0074549D01*
X0049748Y0075540D01*
X0052054Y0076259D01*
X0054429Y0076694D01*
X0056840Y0076840D01*
X0059251Y0076694D01*
X0061626Y0076259D01*
X0063932Y0075540D01*
X0066135Y0074549D01*
X0068201Y0073300D01*
X0070103Y0071810D01*
X0071810Y0070103D01*
X0073300Y0068201D01*
X0074549Y0066135D01*
X0075540Y0063932D01*
X0076259Y0061626D01*
X0076694Y0059251D01*
X0076840Y0056840D01*
X0076609Y0054252D01*
X0076054Y0051714D01*
X0076105Y0051948D02*
X0071156Y0051948D01*
X0076105Y0051948D01*
X0076236Y0052546D02*
X0071308Y0052546D01*
X0076236Y0052546D01*
X0076367Y0053145D02*
X0071460Y0053145D01*
X0076367Y0053145D01*
X0076498Y0053743D02*
X0071612Y0053743D01*
X0076498Y0053743D01*
X0076617Y0054342D02*
X0071681Y0054342D01*
X0076617Y0054342D01*
X0076671Y0054940D02*
X0071745Y0054940D01*
X0076671Y0054940D01*
X0076724Y0055539D02*
X0071808Y0055539D01*
X0076724Y0055539D01*
X0076778Y0056137D02*
X0071840Y0056137D01*
X0076778Y0056137D01*
X0076831Y0056736D02*
X0071840Y0056736D01*
X0076831Y0056736D01*
X0076810Y0057334D02*
X0071805Y0057334D01*
X0076810Y0057334D01*
X0076774Y0057933D02*
X0071762Y0057933D01*
X0076774Y0057933D01*
X0076738Y0058531D02*
X0071719Y0058531D01*
X0076738Y0058531D01*
X0076702Y0059130D02*
X0071654Y0059130D01*
X0076702Y0059130D01*
X0076607Y0059729D02*
X0071524Y0059729D01*
X0076607Y0059729D01*
X0076497Y0060327D02*
X0071393Y0060327D01*
X0076497Y0060327D01*
X0076387Y0060926D02*
X0071263Y0060926D01*
X0076387Y0060926D01*
X0076278Y0061524D02*
X0071062Y0061524D01*
X0076278Y0061524D01*
X0076104Y0062123D02*
X0070839Y0062123D01*
X0076104Y0062123D01*
X0075918Y0062721D02*
X0070615Y0062721D01*
X0075918Y0062721D01*
X0075731Y0063320D02*
X0070349Y0063320D01*
X0075731Y0063320D01*
X0075545Y0063918D02*
X0070022Y0063918D01*
X0075545Y0063918D01*
X0075277Y0064517D02*
X0069696Y0064517D01*
X0075277Y0064517D01*
X0075008Y0065115D02*
X0069335Y0065115D01*
X0075008Y0065115D01*
X0074739Y0065714D02*
X0068887Y0065714D01*
X0074739Y0065714D01*
X0074442Y0066312D02*
X0068439Y0066312D01*
X0074442Y0066312D01*
X0074080Y0066911D02*
X0067929Y0066911D01*
X0074080Y0066911D01*
X0073718Y0067509D02*
X0067330Y0067509D01*
X0073718Y0067509D01*
X0073357Y0068108D02*
X0066732Y0068108D01*
X0073357Y0068108D01*
X0072904Y0068706D02*
X0065955Y0068706D01*
X0072904Y0068706D01*
X0072436Y0069305D02*
X0065156Y0069305D01*
X0072436Y0069305D01*
X0071967Y0069903D02*
X0064136Y0069903D01*
X0071967Y0069903D01*
X0071411Y0070502D02*
X0063026Y0070502D01*
X0071411Y0070502D01*
X0070813Y0071100D02*
X0061421Y0071100D01*
X0070813Y0071100D01*
X0070214Y0071699D02*
X0058817Y0071699D01*
X0070214Y0071699D01*
X0069481Y0072297D02*
X0044199Y0072297D01*
X0069481Y0072297D01*
X0068717Y0072896D02*
X0044963Y0072896D01*
X0068717Y0072896D01*
X0067880Y0073494D02*
X0045800Y0073494D01*
X0067880Y0073494D01*
X0066890Y0074093D02*
X0046791Y0074093D01*
X0066890Y0074093D01*
X0065819Y0074691D02*
X0047861Y0074691D01*
X0065819Y0074691D01*
X0064489Y0075290D02*
X0049191Y0075290D01*
X0064489Y0075290D01*
X0062816Y0075888D02*
X0050864Y0075888D01*
X0062816Y0075888D01*
X0060383Y0076487D02*
X0053297Y0076487D01*
X0060383Y0076487D01*
X0060340Y0074840D02*
X0056840Y0074340D01*
X0091340Y0074340D01*
X0091840Y0074840D01*
X0075924Y0051349D02*
X0070936Y0051349D01*
X0075924Y0051349D01*
X0075710Y0050751D02*
X0070689Y0050751D01*
X0075710Y0050751D01*
X0075497Y0050152D02*
X0070442Y0050152D01*
X0075497Y0050152D01*
X0075284Y0049554D02*
X0070140Y0049554D01*
X0075284Y0049554D01*
X0075024Y0048955D02*
X0069786Y0048955D01*
X0075024Y0048955D01*
X0074721Y0048357D02*
X0069432Y0048357D01*
X0074721Y0048357D01*
X0074418Y0047758D02*
X0069009Y0047758D01*
X0074418Y0047758D01*
X0074115Y0047160D02*
X0068528Y0047160D01*
X0074115Y0047160D01*
X0073745Y0046561D02*
X0068047Y0046561D01*
X0073745Y0046561D01*
X0073340Y0045963D02*
X0067431Y0045963D01*
X0073340Y0045963D01*
X0072934Y0045364D02*
X0066790Y0045364D01*
X0072934Y0045364D01*
X0072523Y0044766D02*
X0066043Y0044766D01*
X0072523Y0044766D01*
X0071995Y0044167D02*
X0065183Y0044167D01*
X0071995Y0044167D01*
X0071468Y0043569D02*
X0064155Y0043569D01*
X0071468Y0043569D01*
X0070941Y0042970D02*
X0062963Y0042970D01*
X0070941Y0042970D01*
X0070293Y0042372D02*
X0061200Y0042372D01*
X0070293Y0042372D01*
X0069613Y0041773D02*
X0056840Y0041773D01*
X0069613Y0041773D01*
X0068934Y0041175D02*
X0056840Y0041175D01*
X0068934Y0041175D01*
X0068065Y0040576D02*
X0056840Y0040576D01*
X0068065Y0040576D01*
X0067182Y0039978D02*
X0056840Y0039978D01*
X0067182Y0039978D01*
X0066152Y0039379D02*
X0056840Y0039379D01*
X0066152Y0039379D01*
X0064971Y0038781D02*
X0056840Y0038781D01*
X0064971Y0038781D01*
X0063525Y0038182D02*
X0056840Y0038182D01*
X0063525Y0038182D01*
X0061769Y0037584D02*
X0056840Y0037584D01*
X0061769Y0037584D01*
X0058465Y0036985D02*
X0056840Y0036985D01*
X0058465Y0036985D01*
X0056140Y0036985D02*
X0054404Y0036985D01*
X0056140Y0036985D01*
X0056140Y0037584D02*
X0051143Y0037584D01*
X0056140Y0037584D01*
X0056140Y0038182D02*
X0049448Y0038182D01*
X0056140Y0038182D01*
X0056140Y0038781D02*
X0048044Y0038781D01*
X0056140Y0038781D01*
X0056140Y0039379D02*
X0046883Y0039379D01*
X0056140Y0039379D01*
X0056140Y0039978D02*
X0045887Y0039978D01*
X0056140Y0039978D01*
X0056140Y0040576D02*
X0045025Y0040576D01*
X0056140Y0040576D01*
X0056140Y0041175D02*
X0044183Y0041175D01*
X0056140Y0041175D01*
X0056140Y0041773D02*
X0043525Y0041773D01*
X0056140Y0041773D01*
X0052621Y0042372D02*
X0042867Y0042372D01*
X0052621Y0042372D01*
X0050886Y0042970D02*
X0042240Y0042970D01*
X0050886Y0042970D01*
X0049644Y0043569D02*
X0041734Y0043569D01*
X0049644Y0043569D01*
X0048593Y0044167D02*
X0041228Y0044167D01*
X0048593Y0044167D01*
X0047742Y0044766D02*
X0040722Y0044766D01*
X0047742Y0044766D01*
X0046986Y0045364D02*
X0040329Y0045364D01*
X0046986Y0045364D01*
X0046335Y0045963D02*
X0039944Y0045963D01*
X0046335Y0045963D01*
X0045731Y0046561D02*
X0039559Y0046561D01*
X0045731Y0046561D01*
X0045231Y0047160D02*
X0039208Y0047160D01*
X0045231Y0047160D01*
X0044731Y0047758D02*
X0038926Y0047758D01*
X0044731Y0047758D01*
X0044333Y0048357D02*
X0038644Y0048357D01*
X0044333Y0048357D01*
X0043953Y0048955D02*
X0038361Y0048955D01*
X0043953Y0048955D01*
X0043588Y0049554D02*
X0038119Y0049554D01*
X0043588Y0049554D01*
X0043311Y0050152D02*
X0037928Y0050152D01*
X0043311Y0050152D01*
X0043033Y0050751D02*
X0037736Y0050751D01*
X0043033Y0050751D01*
X0042777Y0051349D02*
X0037545Y0051349D01*
X0042777Y0051349D01*
X0042590Y0051948D02*
X0037382Y0051948D01*
X0042590Y0051948D01*
X0042402Y0052546D02*
X0037274Y0052546D01*
X0042402Y0052546D01*
X0042230Y0053145D02*
X0037166Y0053145D01*
X0042230Y0053145D01*
X0042126Y0053743D02*
X0037058Y0053743D01*
X0042126Y0053743D01*
X0042021Y0054342D02*
X0036959Y0054342D01*
X0042021Y0054342D01*
X0041919Y0054940D02*
X0036931Y0054940D01*
X0041919Y0054940D01*
X0041894Y0055539D02*
X0036902Y0055539D01*
X0041894Y0055539D01*
X0041869Y0056137D02*
X0036874Y0056137D01*
X0041869Y0056137D01*
X0041845Y0056736D02*
X0036845Y0056736D01*
X0041845Y0056736D01*
X0041876Y0057334D02*
X0036870Y0057334D01*
X0041876Y0057334D01*
X0041918Y0057933D02*
X0036906Y0057933D01*
X0041918Y0057933D01*
X0041961Y0058531D02*
X0036942Y0058531D01*
X0041961Y0058531D01*
X0042027Y0059130D02*
X0036979Y0059130D01*
X0042027Y0059130D01*
X0042157Y0059729D02*
X0037074Y0059729D01*
X0042157Y0059729D01*
X0042287Y0060327D02*
X0037183Y0060327D01*
X0042287Y0060327D01*
X0042417Y0060926D02*
X0037293Y0060926D01*
X0042417Y0060926D01*
X0042619Y0061524D02*
X0037403Y0061524D01*
X0042619Y0061524D01*
X0042842Y0062123D02*
X0037576Y0062123D01*
X0042842Y0062123D01*
X0043065Y0062721D02*
X0037762Y0062721D01*
X0043065Y0062721D01*
X0043331Y0063320D02*
X0037949Y0063320D01*
X0043331Y0063320D01*
X0043658Y0063918D02*
X0038135Y0063918D01*
X0043658Y0063918D01*
X0043985Y0064517D02*
X0038403Y0064517D01*
X0043985Y0064517D01*
X0044345Y0065115D02*
X0038672Y0065115D01*
X0044345Y0065115D01*
X0044793Y0065714D02*
X0038942Y0065714D01*
X0044793Y0065714D01*
X0045241Y0066312D02*
X0039238Y0066312D01*
X0045241Y0066312D01*
X0045752Y0066911D02*
X0039600Y0066911D01*
X0045752Y0066911D01*
X0046350Y0067509D02*
X0039962Y0067509D01*
X0046350Y0067509D01*
X0046949Y0068108D02*
X0040324Y0068108D01*
X0046949Y0068108D01*
X0047725Y0068706D02*
X0040776Y0068706D01*
X0047725Y0068706D01*
X0048524Y0069305D02*
X0041245Y0069305D01*
X0048524Y0069305D01*
X0049544Y0069903D02*
X0041714Y0069903D01*
X0049544Y0069903D01*
X0050655Y0070502D02*
X0042269Y0070502D01*
X0050655Y0070502D01*
X0052259Y0071100D02*
X0042868Y0071100D01*
X0052259Y0071100D01*
X0054863Y0071699D02*
X0043466Y0071699D01*
X0054863Y0071699D01*
X0060340Y0074840D02*
X0065840Y0080840D01*
X0061626Y0098421D02*
X0059251Y0097986D01*
X0056840Y0097840D01*
X0054252Y0098071D01*
X0051714Y0098627D01*
X0049266Y0099499D01*
X0046948Y0100673D01*
X0044797Y0102130D01*
X0042847Y0103847D01*
X0041130Y0105797D01*
X0039673Y0107948D01*
X0038499Y0110266D01*
X0037627Y0112714D01*
X0037071Y0115252D01*
X0036840Y0117840D01*
X0041840Y0117840D01*
X0041917Y0115772D01*
X0042287Y0113735D01*
X0042943Y0111771D01*
X0043872Y0109922D01*
X0045054Y0108223D01*
X0046467Y0106709D01*
X0048080Y0105412D01*
X0049862Y0104358D01*
X0051775Y0103568D01*
X0053782Y0103059D01*
X0055840Y0102840D01*
X0056840Y0102840D01*
X0058975Y0102993D01*
X0061066Y0103448D01*
X0063071Y0104196D01*
X0064950Y0105221D01*
X0066663Y0106504D01*
X0068176Y0108017D01*
X0069459Y0109731D01*
X0070485Y0111609D01*
X0071233Y0113614D01*
X0071687Y0115705D01*
X0071840Y0117840D01*
X0071687Y0119975D01*
X0071233Y0122066D01*
X0070485Y0124071D01*
X0069459Y0125950D01*
X0068176Y0127663D01*
X0066663Y0129176D01*
X0064950Y0130459D01*
X0063071Y0131485D01*
X0061066Y0132233D01*
X0058975Y0132687D01*
X0056840Y0132840D01*
X0054925Y0132761D01*
X0053037Y0132432D01*
X0051207Y0131859D01*
X0049468Y0131052D01*
X0047849Y0130026D01*
X0046379Y0128797D01*
X0045081Y0127386D01*
X0043978Y0125818D01*
X0043089Y0124120D01*
X0042430Y0122320D01*
X0042011Y0120449D01*
X0041840Y0118540D01*
X0036840Y0118540D01*
X0037054Y0121102D01*
X0037600Y0123614D01*
X0038470Y0126033D01*
X0039648Y0128318D01*
X0041114Y0130430D01*
X0042843Y0132332D01*
X0044806Y0133993D01*
X0046968Y0135383D01*
X0049294Y0136478D01*
X0051742Y0137261D01*
X0054272Y0137718D01*
X0056840Y0137840D01*
X0059251Y0137694D01*
X0061626Y0137259D01*
X0063932Y0136540D01*
X0066135Y0135549D01*
X0068201Y0134300D01*
X0070103Y0132810D01*
X0071810Y0131103D01*
X0073300Y0129201D01*
X0074549Y0127135D01*
X0075540Y0124932D01*
X0076259Y0122626D01*
X0076694Y0120251D01*
X0076840Y0117840D01*
X0076694Y0115429D01*
X0076259Y0113054D01*
X0075540Y0110748D01*
X0074549Y0108546D01*
X0073300Y0106479D01*
X0071810Y0104578D01*
X0070103Y0102870D01*
X0068201Y0101380D01*
X0066135Y0100131D01*
X0063932Y0099140D01*
X0061626Y0098421D01*
X0059251Y0097986D01*
X0056840Y0097840D01*
X0054252Y0098071D01*
X0051714Y0098627D01*
X0049266Y0099499D01*
X0046948Y0100673D01*
X0044797Y0102130D01*
X0042847Y0103847D01*
X0041130Y0105797D01*
X0039673Y0107948D01*
X0038499Y0110266D01*
X0037627Y0112714D01*
X0037071Y0115252D01*
X0036840Y0117840D01*
X0041840Y0117840D01*
X0041917Y0115772D01*
X0042287Y0113735D01*
X0042943Y0111771D01*
X0043872Y0109922D01*
X0045054Y0108223D01*
X0046467Y0106709D01*
X0048080Y0105412D01*
X0049862Y0104358D01*
X0051775Y0103568D01*
X0053782Y0103059D01*
X0055840Y0102840D01*
X0056840Y0102840D01*
X0058975Y0102993D01*
X0061066Y0103448D01*
X0063071Y0104196D01*
X0064950Y0105221D01*
X0066663Y0106504D01*
X0068176Y0108017D01*
X0069459Y0109731D01*
X0070485Y0111609D01*
X0071233Y0113614D01*
X0071687Y0115705D01*
X0071840Y0117840D01*
X0071687Y0119975D01*
X0071233Y0122066D01*
X0070485Y0124071D01*
X0069459Y0125950D01*
X0068176Y0127663D01*
X0066663Y0129176D01*
X0064950Y0130459D01*
X0063071Y0131485D01*
X0061066Y0132233D01*
X0058975Y0132687D01*
X0056840Y0132840D01*
X0054925Y0132761D01*
X0053037Y0132432D01*
X0051207Y0131859D01*
X0049468Y0131052D01*
X0047849Y0130026D01*
X0046379Y0128797D01*
X0045081Y0127386D01*
X0043978Y0125818D01*
X0043089Y0124120D01*
X0042430Y0122320D01*
X0042011Y0120449D01*
X0041840Y0118540D01*
X0036840Y0118540D01*
X0037054Y0121102D01*
X0037600Y0123614D01*
X0038470Y0126033D01*
X0039648Y0128318D01*
X0041114Y0130430D01*
X0042843Y0132332D01*
X0044806Y0133993D01*
X0046968Y0135383D01*
X0049294Y0136478D01*
X0051742Y0137261D01*
X0054272Y0137718D01*
X0056840Y0137840D01*
X0059251Y0137694D01*
X0061626Y0137259D01*
X0063932Y0136540D01*
X0066135Y0135549D01*
X0068201Y0134300D01*
X0070103Y0132810D01*
X0071810Y0131103D01*
X0073300Y0129201D01*
X0074549Y0127135D01*
X0075540Y0124932D01*
X0076259Y0122626D01*
X0076694Y0120251D01*
X0076840Y0117840D01*
X0076694Y0115429D01*
X0076259Y0113054D01*
X0075540Y0110748D01*
X0074549Y0108546D01*
X0073300Y0106479D01*
X0071810Y0104578D01*
X0070103Y0102870D01*
X0068201Y0101380D01*
X0066135Y0100131D01*
X0063932Y0099140D01*
X0061626Y0098421D01*
X0062302Y0098632D02*
X0051700Y0098632D01*
X0062302Y0098632D01*
X0064133Y0099230D02*
X0050020Y0099230D01*
X0064133Y0099230D01*
X0065463Y0099829D02*
X0048615Y0099829D01*
X0065463Y0099829D01*
X0066625Y0100427D02*
X0047433Y0100427D01*
X0066625Y0100427D01*
X0067615Y0101026D02*
X0046427Y0101026D01*
X0067615Y0101026D01*
X0068513Y0101624D02*
X0045544Y0101624D01*
X0068513Y0101624D01*
X0069277Y0102223D02*
X0044692Y0102223D01*
X0069277Y0102223D01*
X0070041Y0102821D02*
X0044012Y0102821D01*
X0070041Y0102821D01*
X0070653Y0103420D02*
X0060938Y0103420D01*
X0070653Y0103420D01*
X0071251Y0104018D02*
X0062596Y0104018D01*
X0071251Y0104018D01*
X0071841Y0104617D02*
X0063843Y0104617D01*
X0071841Y0104617D01*
X0072310Y0105215D02*
X0064939Y0105215D01*
X0072310Y0105215D01*
X0072779Y0105814D02*
X0065741Y0105814D01*
X0072779Y0105814D01*
X0073248Y0106412D02*
X0066541Y0106412D01*
X0073248Y0106412D01*
X0073621Y0107011D02*
X0067170Y0107011D01*
X0073621Y0107011D01*
X0073983Y0107609D02*
X0067769Y0107609D01*
X0073983Y0107609D01*
X0074345Y0108208D02*
X0068319Y0108208D01*
X0074345Y0108208D01*
X0074667Y0108806D02*
X0068767Y0108806D01*
X0074667Y0108806D01*
X0074936Y0109405D02*
X0069215Y0109405D01*
X0074936Y0109405D01*
X0075205Y0110003D02*
X0069608Y0110003D01*
X0075205Y0110003D01*
X0075475Y0110602D02*
X0069935Y0110602D01*
X0075475Y0110602D01*
X0075681Y0111200D02*
X0070262Y0111200D01*
X0075681Y0111200D01*
X0075868Y0111799D02*
X0070556Y0111799D01*
X0075868Y0111799D01*
X0076054Y0112398D02*
X0070779Y0112398D01*
X0076054Y0112398D01*
X0076241Y0112996D02*
X0071002Y0112996D01*
X0076241Y0112996D01*
X0076358Y0113595D02*
X0071225Y0113595D01*
X0076358Y0113595D01*
X0076468Y0114193D02*
X0071358Y0114193D01*
X0076468Y0114193D01*
X0076577Y0114792D02*
X0071489Y0114792D01*
X0076577Y0114792D01*
X0076687Y0115390D02*
X0071619Y0115390D01*
X0076687Y0115390D01*
X0076728Y0115989D02*
X0071708Y0115989D01*
X0076728Y0115989D01*
X0076764Y0116587D02*
X0071751Y0116587D01*
X0076764Y0116587D01*
X0076801Y0117186D02*
X0071793Y0117186D01*
X0076801Y0117186D01*
X0076837Y0117784D02*
X0071836Y0117784D01*
X0076837Y0117784D01*
X0076807Y0118383D02*
X0071801Y0118383D01*
X0076807Y0118383D01*
X0076771Y0118981D02*
X0071759Y0118981D01*
X0076771Y0118981D01*
X0076735Y0119580D02*
X0071716Y0119580D01*
X0076735Y0119580D01*
X0076699Y0120178D02*
X0071643Y0120178D01*
X0076699Y0120178D01*
X0076598Y0120777D02*
X0071513Y0120777D01*
X0076598Y0120777D01*
X0076488Y0121375D02*
X0071383Y0121375D01*
X0076488Y0121375D01*
X0076379Y0121974D02*
X0071253Y0121974D01*
X0076379Y0121974D01*
X0076269Y0122572D02*
X0071044Y0122572D01*
X0076269Y0122572D01*
X0076089Y0123171D02*
X0070821Y0123171D01*
X0076089Y0123171D01*
X0075903Y0123769D02*
X0070597Y0123769D01*
X0075903Y0123769D01*
X0075716Y0124368D02*
X0070323Y0124368D01*
X0075716Y0124368D01*
X0075525Y0124966D02*
X0069996Y0124966D01*
X0075525Y0124966D01*
X0075256Y0125565D02*
X0069669Y0125565D01*
X0075256Y0125565D01*
X0074986Y0126163D02*
X0069299Y0126163D01*
X0074986Y0126163D01*
X0074717Y0126762D02*
X0068851Y0126762D01*
X0074717Y0126762D01*
X0074413Y0127360D02*
X0068403Y0127360D01*
X0074413Y0127360D01*
X0074051Y0127959D02*
X0067881Y0127959D01*
X0074051Y0127959D01*
X0073689Y0128557D02*
X0067282Y0128557D01*
X0073689Y0128557D01*
X0073327Y0129156D02*
X0066684Y0129156D01*
X0073327Y0129156D01*
X0072867Y0129754D02*
X0065891Y0129754D01*
X0072867Y0129754D01*
X0072398Y0130353D02*
X0065092Y0130353D01*
X0072398Y0130353D01*
X0071929Y0130951D02*
X0064048Y0130951D01*
X0071929Y0130951D01*
X0071363Y0131550D02*
X0062897Y0131550D01*
X0071363Y0131550D01*
X0070765Y0132148D02*
X0061292Y0132148D01*
X0070765Y0132148D01*
X0070166Y0132747D02*
X0058144Y0132747D01*
X0070166Y0132747D01*
X0069420Y0133345D02*
X0044041Y0133345D01*
X0069420Y0133345D01*
X0068656Y0133944D02*
X0044748Y0133944D01*
X0068656Y0133944D01*
X0067800Y0134542D02*
X0045661Y0134542D01*
X0067800Y0134542D01*
X0066810Y0135141D02*
X0046592Y0135141D01*
X0066810Y0135141D01*
X0065712Y0135739D02*
X0047726Y0135739D01*
X0065712Y0135739D01*
X0064382Y0136338D02*
X0048996Y0136338D01*
X0064382Y0136338D01*
X0062662Y0136936D02*
X0050727Y0136936D01*
X0062662Y0136936D01*
X0060120Y0137535D02*
X0053260Y0137535D01*
X0060120Y0137535D01*
X0054847Y0132747D02*
X0043333Y0132747D01*
X0054847Y0132747D01*
X0052132Y0132148D02*
X0042676Y0132148D01*
X0052132Y0132148D01*
X0050541Y0131550D02*
X0042132Y0131550D01*
X0050541Y0131550D01*
X0049309Y0130951D02*
X0041588Y0130951D01*
X0049309Y0130951D01*
X0048365Y0130353D02*
X0041060Y0130353D01*
X0048365Y0130353D01*
X0047525Y0129754D02*
X0040645Y0129754D01*
X0047525Y0129754D01*
X0046808Y0129156D02*
X0040229Y0129156D01*
X0046808Y0129156D01*
X0046158Y0128557D02*
X0039814Y0128557D01*
X0046158Y0128557D01*
X0045608Y0127959D02*
X0039462Y0127959D01*
X0045608Y0127959D01*
X0045062Y0127360D02*
X0039154Y0127360D01*
X0045062Y0127360D01*
X0044641Y0126762D02*
X0038845Y0126762D01*
X0044641Y0126762D01*
X0044221Y0126163D02*
X0038537Y0126163D01*
X0044221Y0126163D01*
X0043845Y0125565D02*
X0038301Y0125565D01*
X0043845Y0125565D01*
X0043532Y0124966D02*
X0038086Y0124966D01*
X0043532Y0124966D01*
X0043219Y0124368D02*
X0037871Y0124368D01*
X0043219Y0124368D01*
X0042961Y0123769D02*
X0037656Y0123769D01*
X0042961Y0123769D01*
X0042742Y0123171D02*
X0037504Y0123171D01*
X0042742Y0123171D01*
X0042522Y0122572D02*
X0037374Y0122572D01*
X0042522Y0122572D01*
X0042352Y0121974D02*
X0037244Y0121974D01*
X0042352Y0121974D01*
X0042218Y0121375D02*
X0037113Y0121375D01*
X0042218Y0121375D01*
X0042084Y0120777D02*
X0037027Y0120777D01*
X0042084Y0120777D01*
X0041987Y0120178D02*
X0036977Y0120178D01*
X0041987Y0120178D01*
X0041933Y0119580D02*
X0036927Y0119580D01*
X0041933Y0119580D01*
X0041880Y0118981D02*
X0036877Y0118981D01*
X0041880Y0118981D01*
X0041842Y0117784D02*
X0036845Y0117784D01*
X0041842Y0117784D01*
X0041864Y0117186D02*
X0036899Y0117186D01*
X0041864Y0117186D01*
X0041886Y0116587D02*
X0036952Y0116587D01*
X0041886Y0116587D01*
X0041909Y0115989D02*
X0037005Y0115989D01*
X0041909Y0115989D01*
X0041986Y0115390D02*
X0037059Y0115390D01*
X0041986Y0115390D01*
X0042095Y0114792D02*
X0037172Y0114792D01*
X0042095Y0114792D01*
X0042203Y0114193D02*
X0037303Y0114193D01*
X0042203Y0114193D01*
X0042334Y0113595D02*
X0037434Y0113595D01*
X0042334Y0113595D01*
X0042534Y0112996D02*
X0037565Y0112996D01*
X0042534Y0112996D01*
X0042734Y0112398D02*
X0037740Y0112398D01*
X0042734Y0112398D01*
X0042934Y0111799D02*
X0037953Y0111799D01*
X0042934Y0111799D01*
X0043229Y0111200D02*
X0038166Y0111200D01*
X0043229Y0111200D01*
X0043530Y0110602D02*
X0038379Y0110602D01*
X0043530Y0110602D01*
X0043831Y0110003D02*
X0038632Y0110003D01*
X0043831Y0110003D01*
X0044231Y0109405D02*
X0038935Y0109405D01*
X0044231Y0109405D01*
X0044648Y0108806D02*
X0039238Y0108806D01*
X0044648Y0108806D01*
X0045068Y0108208D02*
X0039541Y0108208D01*
X0045068Y0108208D01*
X0045627Y0107609D02*
X0039902Y0107609D01*
X0045627Y0107609D01*
X0046185Y0107011D02*
X0040308Y0107011D01*
X0046185Y0107011D01*
X0046836Y0106412D02*
X0040713Y0106412D01*
X0046836Y0106412D01*
X0047581Y0105814D02*
X0041119Y0105814D01*
X0047581Y0105814D01*
X0048413Y0105215D02*
X0041643Y0105215D01*
X0048413Y0105215D01*
X0049425Y0104617D02*
X0042170Y0104617D01*
X0049425Y0104617D01*
X0050685Y0104018D02*
X0042697Y0104018D01*
X0050685Y0104018D01*
X0052360Y0103420D02*
X0043333Y0103420D01*
X0052360Y0103420D01*
X0054675Y0098033D02*
X0059509Y0098033D01*
X0054675Y0098033D01*
X0087840Y0116840D02*
X0087840Y0124840D01*
X0079840Y0132840D01*
X0125840Y0072840D02*
X0131840Y0066840D01*
X0150840Y0066840D01*
X0154840Y0070840D01*
X0154840Y0079840D01*
X0146840Y0087840D01*
X0144840Y0087840D01*
X0151840Y0087840D02*
X0156840Y0082840D01*
X0156840Y0046840D01*
X0152840Y0042840D01*
D16*
X0139840Y0027840D03*
X0122840Y0056840D03*
X0147840Y0075840D03*
X0148840Y0079840D03*
X0151840Y0087840D03*
X0144840Y0087840D03*
X0117840Y0122840D03*
X0115840Y0145840D03*
X0115840Y0148840D03*
X0115840Y0151840D03*
X0115840Y0154840D03*
X0079840Y0132840D03*
X0068840Y0147840D03*
X0051840Y0117840D03*
X0087840Y0116840D03*
X0108090Y0095090D03*
X0091840Y0087840D03*
X0093840Y0078840D03*
X0091840Y0074840D03*
X0065840Y0080840D03*
X0056840Y0051840D03*
X0078840Y0030340D03*
X0073840Y0022840D03*
X0092840Y0038840D03*
X0093840Y0046840D03*
X0108840Y0028840D03*
X0154840Y0130840D03*
D17*
X0117840Y0122840D02*
X0117840Y0117840D01*
X0091840Y0126840D02*
X0068840Y0147840D01*
X0069840Y0147840D01*
X0091840Y0126840D02*
X0091840Y0087840D01*
X0117840Y0056840D02*
X0122840Y0056840D01*
X0142840Y0042840D02*
X0142840Y0030840D01*
X0139840Y0027840D01*
X0129840Y0027840D01*
X0128840Y0028840D01*
X0108840Y0028840D01*
X0086840Y0028840D01*
X0080840Y0022840D01*
X0073840Y0022840D01*
X0078840Y0030340D02*
X0087340Y0038840D01*
X0092840Y0038840D01*
X0056840Y0051840D02*
X0056840Y0056840D01*
X0056840Y0117840D02*
X0051840Y0117840D01*
M02*
