G75*
%MOIN*%
%OFA0B0*%
%FSLAX25Y25*%
%IPPOS*%
%LPD*%
%AMOC8*
5,1,8,0,0,1.08239X$1,22.5*
%
%ADD10C,0.00300*%
%ADD11C,0.00400*%
%ADD12C,0.00000*%
%ADD13C,0.01600*%
%ADD14C,0.04000*%
%ADD15R,0.00500X0.00500*%
%ADD16R,0.01500X0.00500*%
%ADD17R,0.02500X0.00500*%
%ADD18R,0.03500X0.00500*%
%ADD19R,0.04500X0.00500*%
%ADD20R,0.05500X0.00500*%
%ADD21R,0.06500X0.00500*%
%ADD22R,0.07500X0.00500*%
%ADD23R,0.04000X0.00500*%
%ADD24R,0.07000X0.00500*%
%ADD25R,0.06000X0.00500*%
%ADD26R,0.05000X0.00500*%
%ADD27R,0.03000X0.00500*%
%ADD28R,0.02000X0.00500*%
%ADD29R,0.01000X0.00500*%
%ADD30C,0.00500*%
D10*
X0048867Y0083196D02*
X0048867Y0086245D01*
X0050392Y0084720D01*
X0048359Y0084720D01*
X0048097Y0088215D02*
X0049113Y0088215D01*
X0049621Y0088724D01*
X0047589Y0090756D01*
X0047589Y0088724D01*
X0048097Y0088215D01*
X0046540Y0088215D02*
X0044507Y0088215D01*
X0045524Y0088215D02*
X0045524Y0091264D01*
X0046540Y0090248D01*
X0047589Y0090756D02*
X0048097Y0091264D01*
X0049113Y0091264D01*
X0049621Y0090756D01*
X0049621Y0088724D01*
X0050670Y0088215D02*
X0052703Y0088215D01*
X0050670Y0090248D01*
X0050670Y0090756D01*
X0051178Y0091264D01*
X0052195Y0091264D01*
X0052703Y0090756D01*
X0056833Y0090248D02*
X0056833Y0087707D01*
X0057341Y0087199D01*
X0057849Y0087199D01*
X0058357Y0088215D02*
X0056833Y0088215D01*
X0058357Y0088215D02*
X0058866Y0088724D01*
X0058866Y0089740D01*
X0058357Y0090248D01*
X0056833Y0090248D01*
X0059914Y0090248D02*
X0059914Y0088215D01*
X0061439Y0088215D01*
X0061947Y0088724D01*
X0061947Y0090248D01*
X0062996Y0090248D02*
X0062996Y0088215D01*
X0062996Y0089740D02*
X0065028Y0089740D01*
X0065028Y0090248D02*
X0064012Y0091264D01*
X0062996Y0090248D01*
X0065028Y0090248D02*
X0065028Y0088215D01*
X0065815Y0086245D02*
X0065307Y0085737D01*
X0065307Y0084720D01*
X0065815Y0084212D01*
X0067339Y0084212D01*
X0066323Y0084212D02*
X0065307Y0083196D01*
X0064258Y0083704D02*
X0064258Y0084720D01*
X0063750Y0085228D01*
X0062733Y0085228D01*
X0062225Y0084720D01*
X0062225Y0084212D01*
X0064258Y0084212D01*
X0064258Y0083704D02*
X0063750Y0083196D01*
X0062733Y0083196D01*
X0061177Y0085228D02*
X0060160Y0083196D01*
X0059144Y0085228D01*
X0058095Y0083704D02*
X0057587Y0083704D01*
X0057587Y0083196D01*
X0058095Y0083196D01*
X0058095Y0083704D01*
X0053473Y0083196D02*
X0051440Y0085228D01*
X0051440Y0085737D01*
X0051949Y0086245D01*
X0052965Y0086245D01*
X0053473Y0085737D01*
X0053473Y0083196D02*
X0051440Y0083196D01*
X0043459Y0088724D02*
X0042951Y0088215D01*
X0041934Y0088215D01*
X0041426Y0088724D01*
X0041426Y0089740D01*
X0041934Y0090248D01*
X0042442Y0090248D01*
X0043459Y0089740D01*
X0043459Y0091264D01*
X0041426Y0091264D01*
X0065815Y0086245D02*
X0067339Y0086245D01*
X0067339Y0083196D01*
X0069667Y0088215D02*
X0070683Y0088215D01*
X0071191Y0088724D01*
X0072240Y0088215D02*
X0074272Y0088215D01*
X0072240Y0090248D01*
X0072240Y0090756D01*
X0072748Y0091264D01*
X0073764Y0091264D01*
X0074272Y0090756D01*
X0071191Y0090756D02*
X0070683Y0091264D01*
X0069667Y0091264D01*
X0069158Y0090756D01*
X0069158Y0090248D01*
X0069667Y0089740D01*
X0069158Y0089232D01*
X0069158Y0088724D01*
X0069667Y0088215D01*
X0069667Y0089740D02*
X0070175Y0089740D01*
D11*
X0071087Y0096612D02*
X0071087Y0101216D01*
X0068785Y0101216D01*
X0068017Y0100448D01*
X0068017Y0098914D01*
X0068785Y0098147D01*
X0071087Y0098147D01*
X0069552Y0098147D02*
X0068017Y0096612D01*
X0066483Y0096612D02*
X0066483Y0101216D01*
X0063413Y0096612D01*
X0063413Y0101216D01*
X0057275Y0101216D02*
X0054206Y0101216D01*
X0055740Y0101216D02*
X0055740Y0096612D01*
X0052671Y0097379D02*
X0051904Y0096612D01*
X0050369Y0096612D01*
X0049602Y0097379D01*
X0049602Y0100448D01*
X0050369Y0101216D01*
X0051904Y0101216D01*
X0052671Y0100448D01*
X0052671Y0097379D01*
X0048067Y0097379D02*
X0047300Y0096612D01*
X0045765Y0096612D01*
X0044998Y0097379D01*
X0044998Y0101216D01*
X0043463Y0100448D02*
X0043463Y0097379D01*
X0042696Y0096612D01*
X0041161Y0096612D01*
X0040394Y0097379D01*
X0038859Y0096612D02*
X0038859Y0101216D01*
X0040394Y0100448D02*
X0041161Y0101216D01*
X0042696Y0101216D01*
X0043463Y0100448D01*
X0048067Y0101216D02*
X0048067Y0097379D01*
X0038859Y0098914D02*
X0035790Y0098914D01*
X0035790Y0101216D02*
X0035790Y0096612D01*
X0072621Y0097379D02*
X0073389Y0096612D01*
X0074923Y0096612D01*
X0075691Y0097379D01*
X0075691Y0101216D01*
X0077225Y0101216D02*
X0080295Y0101216D01*
X0078760Y0101216D02*
X0078760Y0096612D01*
X0072621Y0097379D02*
X0072621Y0101216D01*
D12*
X0027475Y0032412D02*
X0027477Y0032538D01*
X0027483Y0032664D01*
X0027493Y0032790D01*
X0027507Y0032916D01*
X0027525Y0033041D01*
X0027547Y0033165D01*
X0027572Y0033289D01*
X0027602Y0033412D01*
X0027635Y0033533D01*
X0027673Y0033654D01*
X0027714Y0033773D01*
X0027759Y0033892D01*
X0027807Y0034008D01*
X0027859Y0034123D01*
X0027915Y0034236D01*
X0027975Y0034348D01*
X0028038Y0034457D01*
X0028104Y0034565D01*
X0028173Y0034670D01*
X0028246Y0034773D01*
X0028323Y0034874D01*
X0028402Y0034972D01*
X0028484Y0035068D01*
X0028570Y0035161D01*
X0028658Y0035252D01*
X0028749Y0035339D01*
X0028843Y0035424D01*
X0028939Y0035505D01*
X0029038Y0035584D01*
X0029139Y0035659D01*
X0029243Y0035731D01*
X0029349Y0035800D01*
X0029457Y0035866D01*
X0029567Y0035928D01*
X0029679Y0035986D01*
X0029792Y0036041D01*
X0029908Y0036092D01*
X0030025Y0036140D01*
X0030143Y0036184D01*
X0030263Y0036224D01*
X0030384Y0036260D01*
X0030506Y0036293D01*
X0030629Y0036322D01*
X0030753Y0036346D01*
X0030877Y0036367D01*
X0031002Y0036384D01*
X0031128Y0036397D01*
X0031254Y0036406D01*
X0031380Y0036411D01*
X0031507Y0036412D01*
X0031633Y0036409D01*
X0031759Y0036402D01*
X0031885Y0036391D01*
X0032010Y0036376D01*
X0032135Y0036357D01*
X0032259Y0036334D01*
X0032383Y0036308D01*
X0032505Y0036277D01*
X0032627Y0036243D01*
X0032747Y0036204D01*
X0032866Y0036162D01*
X0032984Y0036117D01*
X0033100Y0036067D01*
X0033215Y0036014D01*
X0033327Y0035957D01*
X0033438Y0035897D01*
X0033547Y0035833D01*
X0033654Y0035766D01*
X0033759Y0035696D01*
X0033862Y0035622D01*
X0033962Y0035545D01*
X0034060Y0035465D01*
X0034155Y0035382D01*
X0034247Y0035296D01*
X0034337Y0035207D01*
X0034424Y0035115D01*
X0034507Y0035021D01*
X0034588Y0034924D01*
X0034666Y0034824D01*
X0034741Y0034722D01*
X0034812Y0034618D01*
X0034880Y0034511D01*
X0034944Y0034403D01*
X0035005Y0034292D01*
X0035063Y0034180D01*
X0035117Y0034066D01*
X0035167Y0033950D01*
X0035214Y0033833D01*
X0035257Y0033714D01*
X0035296Y0033594D01*
X0035332Y0033473D01*
X0035363Y0033350D01*
X0035391Y0033227D01*
X0035415Y0033103D01*
X0035435Y0032978D01*
X0035451Y0032853D01*
X0035463Y0032727D01*
X0035471Y0032601D01*
X0035475Y0032475D01*
X0035475Y0032349D01*
X0035471Y0032223D01*
X0035463Y0032097D01*
X0035451Y0031971D01*
X0035435Y0031846D01*
X0035415Y0031721D01*
X0035391Y0031597D01*
X0035363Y0031474D01*
X0035332Y0031351D01*
X0035296Y0031230D01*
X0035257Y0031110D01*
X0035214Y0030991D01*
X0035167Y0030874D01*
X0035117Y0030758D01*
X0035063Y0030644D01*
X0035005Y0030532D01*
X0034944Y0030421D01*
X0034880Y0030313D01*
X0034812Y0030206D01*
X0034741Y0030102D01*
X0034666Y0030000D01*
X0034588Y0029900D01*
X0034507Y0029803D01*
X0034424Y0029709D01*
X0034337Y0029617D01*
X0034247Y0029528D01*
X0034155Y0029442D01*
X0034060Y0029359D01*
X0033962Y0029279D01*
X0033862Y0029202D01*
X0033759Y0029128D01*
X0033654Y0029058D01*
X0033547Y0028991D01*
X0033438Y0028927D01*
X0033327Y0028867D01*
X0033215Y0028810D01*
X0033100Y0028757D01*
X0032984Y0028707D01*
X0032866Y0028662D01*
X0032747Y0028620D01*
X0032627Y0028581D01*
X0032505Y0028547D01*
X0032383Y0028516D01*
X0032259Y0028490D01*
X0032135Y0028467D01*
X0032010Y0028448D01*
X0031885Y0028433D01*
X0031759Y0028422D01*
X0031633Y0028415D01*
X0031507Y0028412D01*
X0031380Y0028413D01*
X0031254Y0028418D01*
X0031128Y0028427D01*
X0031002Y0028440D01*
X0030877Y0028457D01*
X0030753Y0028478D01*
X0030629Y0028502D01*
X0030506Y0028531D01*
X0030384Y0028564D01*
X0030263Y0028600D01*
X0030143Y0028640D01*
X0030025Y0028684D01*
X0029908Y0028732D01*
X0029792Y0028783D01*
X0029679Y0028838D01*
X0029567Y0028896D01*
X0029457Y0028958D01*
X0029349Y0029024D01*
X0029243Y0029093D01*
X0029139Y0029165D01*
X0029038Y0029240D01*
X0028939Y0029319D01*
X0028843Y0029400D01*
X0028749Y0029485D01*
X0028658Y0029572D01*
X0028570Y0029663D01*
X0028484Y0029756D01*
X0028402Y0029852D01*
X0028323Y0029950D01*
X0028246Y0030051D01*
X0028173Y0030154D01*
X0028104Y0030259D01*
X0028038Y0030367D01*
X0027975Y0030476D01*
X0027915Y0030588D01*
X0027859Y0030701D01*
X0027807Y0030816D01*
X0027759Y0030932D01*
X0027714Y0031051D01*
X0027673Y0031170D01*
X0027635Y0031291D01*
X0027602Y0031412D01*
X0027572Y0031535D01*
X0027547Y0031659D01*
X0027525Y0031783D01*
X0027507Y0031908D01*
X0027493Y0032034D01*
X0027483Y0032160D01*
X0027477Y0032286D01*
X0027475Y0032412D01*
X0084475Y0148412D02*
X0084477Y0148501D01*
X0084483Y0148590D01*
X0084493Y0148679D01*
X0084507Y0148767D01*
X0084524Y0148854D01*
X0084546Y0148940D01*
X0084572Y0149026D01*
X0084601Y0149110D01*
X0084634Y0149193D01*
X0084670Y0149274D01*
X0084711Y0149354D01*
X0084754Y0149431D01*
X0084801Y0149507D01*
X0084852Y0149580D01*
X0084905Y0149651D01*
X0084962Y0149720D01*
X0085022Y0149786D01*
X0085085Y0149850D01*
X0085150Y0149910D01*
X0085218Y0149968D01*
X0085289Y0150022D01*
X0085362Y0150073D01*
X0085437Y0150121D01*
X0085514Y0150166D01*
X0085593Y0150207D01*
X0085674Y0150244D01*
X0085756Y0150278D01*
X0085840Y0150309D01*
X0085925Y0150335D01*
X0086011Y0150358D01*
X0086098Y0150376D01*
X0086186Y0150391D01*
X0086275Y0150402D01*
X0086364Y0150409D01*
X0086453Y0150412D01*
X0086542Y0150411D01*
X0086631Y0150406D01*
X0086719Y0150397D01*
X0086808Y0150384D01*
X0086895Y0150367D01*
X0086982Y0150347D01*
X0087068Y0150322D01*
X0087152Y0150294D01*
X0087235Y0150262D01*
X0087317Y0150226D01*
X0087397Y0150187D01*
X0087475Y0150144D01*
X0087551Y0150098D01*
X0087625Y0150048D01*
X0087697Y0149995D01*
X0087766Y0149939D01*
X0087833Y0149880D01*
X0087897Y0149818D01*
X0087958Y0149754D01*
X0088017Y0149686D01*
X0088072Y0149616D01*
X0088124Y0149544D01*
X0088173Y0149469D01*
X0088218Y0149393D01*
X0088260Y0149314D01*
X0088298Y0149234D01*
X0088333Y0149152D01*
X0088364Y0149068D01*
X0088392Y0148983D01*
X0088415Y0148897D01*
X0088435Y0148810D01*
X0088451Y0148723D01*
X0088463Y0148634D01*
X0088471Y0148546D01*
X0088475Y0148457D01*
X0088475Y0148367D01*
X0088471Y0148278D01*
X0088463Y0148190D01*
X0088451Y0148101D01*
X0088435Y0148014D01*
X0088415Y0147927D01*
X0088392Y0147841D01*
X0088364Y0147756D01*
X0088333Y0147672D01*
X0088298Y0147590D01*
X0088260Y0147510D01*
X0088218Y0147431D01*
X0088173Y0147355D01*
X0088124Y0147280D01*
X0088072Y0147208D01*
X0088017Y0147138D01*
X0087958Y0147070D01*
X0087897Y0147006D01*
X0087833Y0146944D01*
X0087766Y0146885D01*
X0087697Y0146829D01*
X0087625Y0146776D01*
X0087551Y0146726D01*
X0087475Y0146680D01*
X0087397Y0146637D01*
X0087317Y0146598D01*
X0087235Y0146562D01*
X0087152Y0146530D01*
X0087068Y0146502D01*
X0086982Y0146477D01*
X0086895Y0146457D01*
X0086808Y0146440D01*
X0086719Y0146427D01*
X0086631Y0146418D01*
X0086542Y0146413D01*
X0086453Y0146412D01*
X0086364Y0146415D01*
X0086275Y0146422D01*
X0086186Y0146433D01*
X0086098Y0146448D01*
X0086011Y0146466D01*
X0085925Y0146489D01*
X0085840Y0146515D01*
X0085756Y0146546D01*
X0085674Y0146580D01*
X0085593Y0146617D01*
X0085514Y0146658D01*
X0085437Y0146703D01*
X0085362Y0146751D01*
X0085289Y0146802D01*
X0085218Y0146856D01*
X0085150Y0146914D01*
X0085085Y0146974D01*
X0085022Y0147038D01*
X0084962Y0147104D01*
X0084905Y0147173D01*
X0084852Y0147244D01*
X0084801Y0147317D01*
X0084754Y0147393D01*
X0084711Y0147470D01*
X0084670Y0147550D01*
X0084634Y0147631D01*
X0084601Y0147714D01*
X0084572Y0147798D01*
X0084546Y0147884D01*
X0084524Y0147970D01*
X0084507Y0148057D01*
X0084493Y0148145D01*
X0084483Y0148234D01*
X0084477Y0148323D01*
X0084475Y0148412D01*
X0084475Y0156412D02*
X0084477Y0156501D01*
X0084483Y0156590D01*
X0084493Y0156679D01*
X0084507Y0156767D01*
X0084524Y0156854D01*
X0084546Y0156940D01*
X0084572Y0157026D01*
X0084601Y0157110D01*
X0084634Y0157193D01*
X0084670Y0157274D01*
X0084711Y0157354D01*
X0084754Y0157431D01*
X0084801Y0157507D01*
X0084852Y0157580D01*
X0084905Y0157651D01*
X0084962Y0157720D01*
X0085022Y0157786D01*
X0085085Y0157850D01*
X0085150Y0157910D01*
X0085218Y0157968D01*
X0085289Y0158022D01*
X0085362Y0158073D01*
X0085437Y0158121D01*
X0085514Y0158166D01*
X0085593Y0158207D01*
X0085674Y0158244D01*
X0085756Y0158278D01*
X0085840Y0158309D01*
X0085925Y0158335D01*
X0086011Y0158358D01*
X0086098Y0158376D01*
X0086186Y0158391D01*
X0086275Y0158402D01*
X0086364Y0158409D01*
X0086453Y0158412D01*
X0086542Y0158411D01*
X0086631Y0158406D01*
X0086719Y0158397D01*
X0086808Y0158384D01*
X0086895Y0158367D01*
X0086982Y0158347D01*
X0087068Y0158322D01*
X0087152Y0158294D01*
X0087235Y0158262D01*
X0087317Y0158226D01*
X0087397Y0158187D01*
X0087475Y0158144D01*
X0087551Y0158098D01*
X0087625Y0158048D01*
X0087697Y0157995D01*
X0087766Y0157939D01*
X0087833Y0157880D01*
X0087897Y0157818D01*
X0087958Y0157754D01*
X0088017Y0157686D01*
X0088072Y0157616D01*
X0088124Y0157544D01*
X0088173Y0157469D01*
X0088218Y0157393D01*
X0088260Y0157314D01*
X0088298Y0157234D01*
X0088333Y0157152D01*
X0088364Y0157068D01*
X0088392Y0156983D01*
X0088415Y0156897D01*
X0088435Y0156810D01*
X0088451Y0156723D01*
X0088463Y0156634D01*
X0088471Y0156546D01*
X0088475Y0156457D01*
X0088475Y0156367D01*
X0088471Y0156278D01*
X0088463Y0156190D01*
X0088451Y0156101D01*
X0088435Y0156014D01*
X0088415Y0155927D01*
X0088392Y0155841D01*
X0088364Y0155756D01*
X0088333Y0155672D01*
X0088298Y0155590D01*
X0088260Y0155510D01*
X0088218Y0155431D01*
X0088173Y0155355D01*
X0088124Y0155280D01*
X0088072Y0155208D01*
X0088017Y0155138D01*
X0087958Y0155070D01*
X0087897Y0155006D01*
X0087833Y0154944D01*
X0087766Y0154885D01*
X0087697Y0154829D01*
X0087625Y0154776D01*
X0087551Y0154726D01*
X0087475Y0154680D01*
X0087397Y0154637D01*
X0087317Y0154598D01*
X0087235Y0154562D01*
X0087152Y0154530D01*
X0087068Y0154502D01*
X0086982Y0154477D01*
X0086895Y0154457D01*
X0086808Y0154440D01*
X0086719Y0154427D01*
X0086631Y0154418D01*
X0086542Y0154413D01*
X0086453Y0154412D01*
X0086364Y0154415D01*
X0086275Y0154422D01*
X0086186Y0154433D01*
X0086098Y0154448D01*
X0086011Y0154466D01*
X0085925Y0154489D01*
X0085840Y0154515D01*
X0085756Y0154546D01*
X0085674Y0154580D01*
X0085593Y0154617D01*
X0085514Y0154658D01*
X0085437Y0154703D01*
X0085362Y0154751D01*
X0085289Y0154802D01*
X0085218Y0154856D01*
X0085150Y0154914D01*
X0085085Y0154974D01*
X0085022Y0155038D01*
X0084962Y0155104D01*
X0084905Y0155173D01*
X0084852Y0155244D01*
X0084801Y0155317D01*
X0084754Y0155393D01*
X0084711Y0155470D01*
X0084670Y0155550D01*
X0084634Y0155631D01*
X0084601Y0155714D01*
X0084572Y0155798D01*
X0084546Y0155884D01*
X0084524Y0155970D01*
X0084507Y0156057D01*
X0084493Y0156145D01*
X0084483Y0156234D01*
X0084477Y0156323D01*
X0084475Y0156412D01*
X0064475Y0152412D02*
X0064477Y0152501D01*
X0064483Y0152590D01*
X0064493Y0152679D01*
X0064507Y0152767D01*
X0064524Y0152854D01*
X0064546Y0152940D01*
X0064572Y0153026D01*
X0064601Y0153110D01*
X0064634Y0153193D01*
X0064670Y0153274D01*
X0064711Y0153354D01*
X0064754Y0153431D01*
X0064801Y0153507D01*
X0064852Y0153580D01*
X0064905Y0153651D01*
X0064962Y0153720D01*
X0065022Y0153786D01*
X0065085Y0153850D01*
X0065150Y0153910D01*
X0065218Y0153968D01*
X0065289Y0154022D01*
X0065362Y0154073D01*
X0065437Y0154121D01*
X0065514Y0154166D01*
X0065593Y0154207D01*
X0065674Y0154244D01*
X0065756Y0154278D01*
X0065840Y0154309D01*
X0065925Y0154335D01*
X0066011Y0154358D01*
X0066098Y0154376D01*
X0066186Y0154391D01*
X0066275Y0154402D01*
X0066364Y0154409D01*
X0066453Y0154412D01*
X0066542Y0154411D01*
X0066631Y0154406D01*
X0066719Y0154397D01*
X0066808Y0154384D01*
X0066895Y0154367D01*
X0066982Y0154347D01*
X0067068Y0154322D01*
X0067152Y0154294D01*
X0067235Y0154262D01*
X0067317Y0154226D01*
X0067397Y0154187D01*
X0067475Y0154144D01*
X0067551Y0154098D01*
X0067625Y0154048D01*
X0067697Y0153995D01*
X0067766Y0153939D01*
X0067833Y0153880D01*
X0067897Y0153818D01*
X0067958Y0153754D01*
X0068017Y0153686D01*
X0068072Y0153616D01*
X0068124Y0153544D01*
X0068173Y0153469D01*
X0068218Y0153393D01*
X0068260Y0153314D01*
X0068298Y0153234D01*
X0068333Y0153152D01*
X0068364Y0153068D01*
X0068392Y0152983D01*
X0068415Y0152897D01*
X0068435Y0152810D01*
X0068451Y0152723D01*
X0068463Y0152634D01*
X0068471Y0152546D01*
X0068475Y0152457D01*
X0068475Y0152367D01*
X0068471Y0152278D01*
X0068463Y0152190D01*
X0068451Y0152101D01*
X0068435Y0152014D01*
X0068415Y0151927D01*
X0068392Y0151841D01*
X0068364Y0151756D01*
X0068333Y0151672D01*
X0068298Y0151590D01*
X0068260Y0151510D01*
X0068218Y0151431D01*
X0068173Y0151355D01*
X0068124Y0151280D01*
X0068072Y0151208D01*
X0068017Y0151138D01*
X0067958Y0151070D01*
X0067897Y0151006D01*
X0067833Y0150944D01*
X0067766Y0150885D01*
X0067697Y0150829D01*
X0067625Y0150776D01*
X0067551Y0150726D01*
X0067475Y0150680D01*
X0067397Y0150637D01*
X0067317Y0150598D01*
X0067235Y0150562D01*
X0067152Y0150530D01*
X0067068Y0150502D01*
X0066982Y0150477D01*
X0066895Y0150457D01*
X0066808Y0150440D01*
X0066719Y0150427D01*
X0066631Y0150418D01*
X0066542Y0150413D01*
X0066453Y0150412D01*
X0066364Y0150415D01*
X0066275Y0150422D01*
X0066186Y0150433D01*
X0066098Y0150448D01*
X0066011Y0150466D01*
X0065925Y0150489D01*
X0065840Y0150515D01*
X0065756Y0150546D01*
X0065674Y0150580D01*
X0065593Y0150617D01*
X0065514Y0150658D01*
X0065437Y0150703D01*
X0065362Y0150751D01*
X0065289Y0150802D01*
X0065218Y0150856D01*
X0065150Y0150914D01*
X0065085Y0150974D01*
X0065022Y0151038D01*
X0064962Y0151104D01*
X0064905Y0151173D01*
X0064852Y0151244D01*
X0064801Y0151317D01*
X0064754Y0151393D01*
X0064711Y0151470D01*
X0064670Y0151550D01*
X0064634Y0151631D01*
X0064601Y0151714D01*
X0064572Y0151798D01*
X0064546Y0151884D01*
X0064524Y0151970D01*
X0064507Y0152057D01*
X0064493Y0152145D01*
X0064483Y0152234D01*
X0064477Y0152323D01*
X0064475Y0152412D01*
X0029475Y0154412D02*
X0029477Y0154538D01*
X0029483Y0154664D01*
X0029493Y0154790D01*
X0029507Y0154916D01*
X0029525Y0155041D01*
X0029547Y0155165D01*
X0029572Y0155289D01*
X0029602Y0155412D01*
X0029635Y0155533D01*
X0029673Y0155654D01*
X0029714Y0155773D01*
X0029759Y0155892D01*
X0029807Y0156008D01*
X0029859Y0156123D01*
X0029915Y0156236D01*
X0029975Y0156348D01*
X0030038Y0156457D01*
X0030104Y0156565D01*
X0030173Y0156670D01*
X0030246Y0156773D01*
X0030323Y0156874D01*
X0030402Y0156972D01*
X0030484Y0157068D01*
X0030570Y0157161D01*
X0030658Y0157252D01*
X0030749Y0157339D01*
X0030843Y0157424D01*
X0030939Y0157505D01*
X0031038Y0157584D01*
X0031139Y0157659D01*
X0031243Y0157731D01*
X0031349Y0157800D01*
X0031457Y0157866D01*
X0031567Y0157928D01*
X0031679Y0157986D01*
X0031792Y0158041D01*
X0031908Y0158092D01*
X0032025Y0158140D01*
X0032143Y0158184D01*
X0032263Y0158224D01*
X0032384Y0158260D01*
X0032506Y0158293D01*
X0032629Y0158322D01*
X0032753Y0158346D01*
X0032877Y0158367D01*
X0033002Y0158384D01*
X0033128Y0158397D01*
X0033254Y0158406D01*
X0033380Y0158411D01*
X0033507Y0158412D01*
X0033633Y0158409D01*
X0033759Y0158402D01*
X0033885Y0158391D01*
X0034010Y0158376D01*
X0034135Y0158357D01*
X0034259Y0158334D01*
X0034383Y0158308D01*
X0034505Y0158277D01*
X0034627Y0158243D01*
X0034747Y0158204D01*
X0034866Y0158162D01*
X0034984Y0158117D01*
X0035100Y0158067D01*
X0035215Y0158014D01*
X0035327Y0157957D01*
X0035438Y0157897D01*
X0035547Y0157833D01*
X0035654Y0157766D01*
X0035759Y0157696D01*
X0035862Y0157622D01*
X0035962Y0157545D01*
X0036060Y0157465D01*
X0036155Y0157382D01*
X0036247Y0157296D01*
X0036337Y0157207D01*
X0036424Y0157115D01*
X0036507Y0157021D01*
X0036588Y0156924D01*
X0036666Y0156824D01*
X0036741Y0156722D01*
X0036812Y0156618D01*
X0036880Y0156511D01*
X0036944Y0156403D01*
X0037005Y0156292D01*
X0037063Y0156180D01*
X0037117Y0156066D01*
X0037167Y0155950D01*
X0037214Y0155833D01*
X0037257Y0155714D01*
X0037296Y0155594D01*
X0037332Y0155473D01*
X0037363Y0155350D01*
X0037391Y0155227D01*
X0037415Y0155103D01*
X0037435Y0154978D01*
X0037451Y0154853D01*
X0037463Y0154727D01*
X0037471Y0154601D01*
X0037475Y0154475D01*
X0037475Y0154349D01*
X0037471Y0154223D01*
X0037463Y0154097D01*
X0037451Y0153971D01*
X0037435Y0153846D01*
X0037415Y0153721D01*
X0037391Y0153597D01*
X0037363Y0153474D01*
X0037332Y0153351D01*
X0037296Y0153230D01*
X0037257Y0153110D01*
X0037214Y0152991D01*
X0037167Y0152874D01*
X0037117Y0152758D01*
X0037063Y0152644D01*
X0037005Y0152532D01*
X0036944Y0152421D01*
X0036880Y0152313D01*
X0036812Y0152206D01*
X0036741Y0152102D01*
X0036666Y0152000D01*
X0036588Y0151900D01*
X0036507Y0151803D01*
X0036424Y0151709D01*
X0036337Y0151617D01*
X0036247Y0151528D01*
X0036155Y0151442D01*
X0036060Y0151359D01*
X0035962Y0151279D01*
X0035862Y0151202D01*
X0035759Y0151128D01*
X0035654Y0151058D01*
X0035547Y0150991D01*
X0035438Y0150927D01*
X0035327Y0150867D01*
X0035215Y0150810D01*
X0035100Y0150757D01*
X0034984Y0150707D01*
X0034866Y0150662D01*
X0034747Y0150620D01*
X0034627Y0150581D01*
X0034505Y0150547D01*
X0034383Y0150516D01*
X0034259Y0150490D01*
X0034135Y0150467D01*
X0034010Y0150448D01*
X0033885Y0150433D01*
X0033759Y0150422D01*
X0033633Y0150415D01*
X0033507Y0150412D01*
X0033380Y0150413D01*
X0033254Y0150418D01*
X0033128Y0150427D01*
X0033002Y0150440D01*
X0032877Y0150457D01*
X0032753Y0150478D01*
X0032629Y0150502D01*
X0032506Y0150531D01*
X0032384Y0150564D01*
X0032263Y0150600D01*
X0032143Y0150640D01*
X0032025Y0150684D01*
X0031908Y0150732D01*
X0031792Y0150783D01*
X0031679Y0150838D01*
X0031567Y0150896D01*
X0031457Y0150958D01*
X0031349Y0151024D01*
X0031243Y0151093D01*
X0031139Y0151165D01*
X0031038Y0151240D01*
X0030939Y0151319D01*
X0030843Y0151400D01*
X0030749Y0151485D01*
X0030658Y0151572D01*
X0030570Y0151663D01*
X0030484Y0151756D01*
X0030402Y0151852D01*
X0030323Y0151950D01*
X0030246Y0152051D01*
X0030173Y0152154D01*
X0030104Y0152259D01*
X0030038Y0152367D01*
X0029975Y0152476D01*
X0029915Y0152588D01*
X0029859Y0152701D01*
X0029807Y0152816D01*
X0029759Y0152932D01*
X0029714Y0153051D01*
X0029673Y0153170D01*
X0029635Y0153291D01*
X0029602Y0153412D01*
X0029572Y0153535D01*
X0029547Y0153659D01*
X0029525Y0153783D01*
X0029507Y0153908D01*
X0029493Y0154034D01*
X0029483Y0154160D01*
X0029477Y0154286D01*
X0029475Y0154412D01*
X0150475Y0033412D02*
X0150477Y0033538D01*
X0150483Y0033664D01*
X0150493Y0033790D01*
X0150507Y0033916D01*
X0150525Y0034041D01*
X0150547Y0034165D01*
X0150572Y0034289D01*
X0150602Y0034412D01*
X0150635Y0034533D01*
X0150673Y0034654D01*
X0150714Y0034773D01*
X0150759Y0034892D01*
X0150807Y0035008D01*
X0150859Y0035123D01*
X0150915Y0035236D01*
X0150975Y0035348D01*
X0151038Y0035457D01*
X0151104Y0035565D01*
X0151173Y0035670D01*
X0151246Y0035773D01*
X0151323Y0035874D01*
X0151402Y0035972D01*
X0151484Y0036068D01*
X0151570Y0036161D01*
X0151658Y0036252D01*
X0151749Y0036339D01*
X0151843Y0036424D01*
X0151939Y0036505D01*
X0152038Y0036584D01*
X0152139Y0036659D01*
X0152243Y0036731D01*
X0152349Y0036800D01*
X0152457Y0036866D01*
X0152567Y0036928D01*
X0152679Y0036986D01*
X0152792Y0037041D01*
X0152908Y0037092D01*
X0153025Y0037140D01*
X0153143Y0037184D01*
X0153263Y0037224D01*
X0153384Y0037260D01*
X0153506Y0037293D01*
X0153629Y0037322D01*
X0153753Y0037346D01*
X0153877Y0037367D01*
X0154002Y0037384D01*
X0154128Y0037397D01*
X0154254Y0037406D01*
X0154380Y0037411D01*
X0154507Y0037412D01*
X0154633Y0037409D01*
X0154759Y0037402D01*
X0154885Y0037391D01*
X0155010Y0037376D01*
X0155135Y0037357D01*
X0155259Y0037334D01*
X0155383Y0037308D01*
X0155505Y0037277D01*
X0155627Y0037243D01*
X0155747Y0037204D01*
X0155866Y0037162D01*
X0155984Y0037117D01*
X0156100Y0037067D01*
X0156215Y0037014D01*
X0156327Y0036957D01*
X0156438Y0036897D01*
X0156547Y0036833D01*
X0156654Y0036766D01*
X0156759Y0036696D01*
X0156862Y0036622D01*
X0156962Y0036545D01*
X0157060Y0036465D01*
X0157155Y0036382D01*
X0157247Y0036296D01*
X0157337Y0036207D01*
X0157424Y0036115D01*
X0157507Y0036021D01*
X0157588Y0035924D01*
X0157666Y0035824D01*
X0157741Y0035722D01*
X0157812Y0035618D01*
X0157880Y0035511D01*
X0157944Y0035403D01*
X0158005Y0035292D01*
X0158063Y0035180D01*
X0158117Y0035066D01*
X0158167Y0034950D01*
X0158214Y0034833D01*
X0158257Y0034714D01*
X0158296Y0034594D01*
X0158332Y0034473D01*
X0158363Y0034350D01*
X0158391Y0034227D01*
X0158415Y0034103D01*
X0158435Y0033978D01*
X0158451Y0033853D01*
X0158463Y0033727D01*
X0158471Y0033601D01*
X0158475Y0033475D01*
X0158475Y0033349D01*
X0158471Y0033223D01*
X0158463Y0033097D01*
X0158451Y0032971D01*
X0158435Y0032846D01*
X0158415Y0032721D01*
X0158391Y0032597D01*
X0158363Y0032474D01*
X0158332Y0032351D01*
X0158296Y0032230D01*
X0158257Y0032110D01*
X0158214Y0031991D01*
X0158167Y0031874D01*
X0158117Y0031758D01*
X0158063Y0031644D01*
X0158005Y0031532D01*
X0157944Y0031421D01*
X0157880Y0031313D01*
X0157812Y0031206D01*
X0157741Y0031102D01*
X0157666Y0031000D01*
X0157588Y0030900D01*
X0157507Y0030803D01*
X0157424Y0030709D01*
X0157337Y0030617D01*
X0157247Y0030528D01*
X0157155Y0030442D01*
X0157060Y0030359D01*
X0156962Y0030279D01*
X0156862Y0030202D01*
X0156759Y0030128D01*
X0156654Y0030058D01*
X0156547Y0029991D01*
X0156438Y0029927D01*
X0156327Y0029867D01*
X0156215Y0029810D01*
X0156100Y0029757D01*
X0155984Y0029707D01*
X0155866Y0029662D01*
X0155747Y0029620D01*
X0155627Y0029581D01*
X0155505Y0029547D01*
X0155383Y0029516D01*
X0155259Y0029490D01*
X0155135Y0029467D01*
X0155010Y0029448D01*
X0154885Y0029433D01*
X0154759Y0029422D01*
X0154633Y0029415D01*
X0154507Y0029412D01*
X0154380Y0029413D01*
X0154254Y0029418D01*
X0154128Y0029427D01*
X0154002Y0029440D01*
X0153877Y0029457D01*
X0153753Y0029478D01*
X0153629Y0029502D01*
X0153506Y0029531D01*
X0153384Y0029564D01*
X0153263Y0029600D01*
X0153143Y0029640D01*
X0153025Y0029684D01*
X0152908Y0029732D01*
X0152792Y0029783D01*
X0152679Y0029838D01*
X0152567Y0029896D01*
X0152457Y0029958D01*
X0152349Y0030024D01*
X0152243Y0030093D01*
X0152139Y0030165D01*
X0152038Y0030240D01*
X0151939Y0030319D01*
X0151843Y0030400D01*
X0151749Y0030485D01*
X0151658Y0030572D01*
X0151570Y0030663D01*
X0151484Y0030756D01*
X0151402Y0030852D01*
X0151323Y0030950D01*
X0151246Y0031051D01*
X0151173Y0031154D01*
X0151104Y0031259D01*
X0151038Y0031367D01*
X0150975Y0031476D01*
X0150915Y0031588D01*
X0150859Y0031701D01*
X0150807Y0031816D01*
X0150759Y0031932D01*
X0150714Y0032051D01*
X0150673Y0032170D01*
X0150635Y0032291D01*
X0150602Y0032412D01*
X0150572Y0032535D01*
X0150547Y0032659D01*
X0150525Y0032783D01*
X0150507Y0032908D01*
X0150493Y0033034D01*
X0150483Y0033160D01*
X0150477Y0033286D01*
X0150475Y0033412D01*
X0151475Y0155412D02*
X0151477Y0155538D01*
X0151483Y0155664D01*
X0151493Y0155790D01*
X0151507Y0155916D01*
X0151525Y0156041D01*
X0151547Y0156165D01*
X0151572Y0156289D01*
X0151602Y0156412D01*
X0151635Y0156533D01*
X0151673Y0156654D01*
X0151714Y0156773D01*
X0151759Y0156892D01*
X0151807Y0157008D01*
X0151859Y0157123D01*
X0151915Y0157236D01*
X0151975Y0157348D01*
X0152038Y0157457D01*
X0152104Y0157565D01*
X0152173Y0157670D01*
X0152246Y0157773D01*
X0152323Y0157874D01*
X0152402Y0157972D01*
X0152484Y0158068D01*
X0152570Y0158161D01*
X0152658Y0158252D01*
X0152749Y0158339D01*
X0152843Y0158424D01*
X0152939Y0158505D01*
X0153038Y0158584D01*
X0153139Y0158659D01*
X0153243Y0158731D01*
X0153349Y0158800D01*
X0153457Y0158866D01*
X0153567Y0158928D01*
X0153679Y0158986D01*
X0153792Y0159041D01*
X0153908Y0159092D01*
X0154025Y0159140D01*
X0154143Y0159184D01*
X0154263Y0159224D01*
X0154384Y0159260D01*
X0154506Y0159293D01*
X0154629Y0159322D01*
X0154753Y0159346D01*
X0154877Y0159367D01*
X0155002Y0159384D01*
X0155128Y0159397D01*
X0155254Y0159406D01*
X0155380Y0159411D01*
X0155507Y0159412D01*
X0155633Y0159409D01*
X0155759Y0159402D01*
X0155885Y0159391D01*
X0156010Y0159376D01*
X0156135Y0159357D01*
X0156259Y0159334D01*
X0156383Y0159308D01*
X0156505Y0159277D01*
X0156627Y0159243D01*
X0156747Y0159204D01*
X0156866Y0159162D01*
X0156984Y0159117D01*
X0157100Y0159067D01*
X0157215Y0159014D01*
X0157327Y0158957D01*
X0157438Y0158897D01*
X0157547Y0158833D01*
X0157654Y0158766D01*
X0157759Y0158696D01*
X0157862Y0158622D01*
X0157962Y0158545D01*
X0158060Y0158465D01*
X0158155Y0158382D01*
X0158247Y0158296D01*
X0158337Y0158207D01*
X0158424Y0158115D01*
X0158507Y0158021D01*
X0158588Y0157924D01*
X0158666Y0157824D01*
X0158741Y0157722D01*
X0158812Y0157618D01*
X0158880Y0157511D01*
X0158944Y0157403D01*
X0159005Y0157292D01*
X0159063Y0157180D01*
X0159117Y0157066D01*
X0159167Y0156950D01*
X0159214Y0156833D01*
X0159257Y0156714D01*
X0159296Y0156594D01*
X0159332Y0156473D01*
X0159363Y0156350D01*
X0159391Y0156227D01*
X0159415Y0156103D01*
X0159435Y0155978D01*
X0159451Y0155853D01*
X0159463Y0155727D01*
X0159471Y0155601D01*
X0159475Y0155475D01*
X0159475Y0155349D01*
X0159471Y0155223D01*
X0159463Y0155097D01*
X0159451Y0154971D01*
X0159435Y0154846D01*
X0159415Y0154721D01*
X0159391Y0154597D01*
X0159363Y0154474D01*
X0159332Y0154351D01*
X0159296Y0154230D01*
X0159257Y0154110D01*
X0159214Y0153991D01*
X0159167Y0153874D01*
X0159117Y0153758D01*
X0159063Y0153644D01*
X0159005Y0153532D01*
X0158944Y0153421D01*
X0158880Y0153313D01*
X0158812Y0153206D01*
X0158741Y0153102D01*
X0158666Y0153000D01*
X0158588Y0152900D01*
X0158507Y0152803D01*
X0158424Y0152709D01*
X0158337Y0152617D01*
X0158247Y0152528D01*
X0158155Y0152442D01*
X0158060Y0152359D01*
X0157962Y0152279D01*
X0157862Y0152202D01*
X0157759Y0152128D01*
X0157654Y0152058D01*
X0157547Y0151991D01*
X0157438Y0151927D01*
X0157327Y0151867D01*
X0157215Y0151810D01*
X0157100Y0151757D01*
X0156984Y0151707D01*
X0156866Y0151662D01*
X0156747Y0151620D01*
X0156627Y0151581D01*
X0156505Y0151547D01*
X0156383Y0151516D01*
X0156259Y0151490D01*
X0156135Y0151467D01*
X0156010Y0151448D01*
X0155885Y0151433D01*
X0155759Y0151422D01*
X0155633Y0151415D01*
X0155507Y0151412D01*
X0155380Y0151413D01*
X0155254Y0151418D01*
X0155128Y0151427D01*
X0155002Y0151440D01*
X0154877Y0151457D01*
X0154753Y0151478D01*
X0154629Y0151502D01*
X0154506Y0151531D01*
X0154384Y0151564D01*
X0154263Y0151600D01*
X0154143Y0151640D01*
X0154025Y0151684D01*
X0153908Y0151732D01*
X0153792Y0151783D01*
X0153679Y0151838D01*
X0153567Y0151896D01*
X0153457Y0151958D01*
X0153349Y0152024D01*
X0153243Y0152093D01*
X0153139Y0152165D01*
X0153038Y0152240D01*
X0152939Y0152319D01*
X0152843Y0152400D01*
X0152749Y0152485D01*
X0152658Y0152572D01*
X0152570Y0152663D01*
X0152484Y0152756D01*
X0152402Y0152852D01*
X0152323Y0152950D01*
X0152246Y0153051D01*
X0152173Y0153154D01*
X0152104Y0153259D01*
X0152038Y0153367D01*
X0151975Y0153476D01*
X0151915Y0153588D01*
X0151859Y0153701D01*
X0151807Y0153816D01*
X0151759Y0153932D01*
X0151714Y0154051D01*
X0151673Y0154170D01*
X0151635Y0154291D01*
X0151602Y0154412D01*
X0151572Y0154535D01*
X0151547Y0154659D01*
X0151525Y0154783D01*
X0151507Y0154908D01*
X0151493Y0155034D01*
X0151483Y0155160D01*
X0151477Y0155286D01*
X0151475Y0155412D01*
D13*
X0149475Y0165412D02*
X0149862Y0165407D01*
X0150248Y0165393D01*
X0150634Y0165370D01*
X0151019Y0165337D01*
X0151404Y0165295D01*
X0151787Y0165244D01*
X0152169Y0165184D01*
X0152549Y0165114D01*
X0152928Y0165035D01*
X0153304Y0164947D01*
X0153678Y0164850D01*
X0154050Y0164744D01*
X0154419Y0164629D01*
X0154786Y0164505D01*
X0155149Y0164372D01*
X0155509Y0164231D01*
X0155865Y0164081D01*
X0156217Y0163922D01*
X0156566Y0163755D01*
X0156911Y0163579D01*
X0157251Y0163395D01*
X0157586Y0163204D01*
X0157917Y0163003D01*
X0158243Y0162796D01*
X0158564Y0162580D01*
X0158880Y0162356D01*
X0159190Y0162125D01*
X0159494Y0161887D01*
X0159792Y0161641D01*
X0160085Y0161388D01*
X0160371Y0161128D01*
X0160651Y0160862D01*
X0160925Y0160588D01*
X0161191Y0160308D01*
X0161451Y0160022D01*
X0161704Y0159729D01*
X0161950Y0159431D01*
X0162188Y0159127D01*
X0162419Y0158817D01*
X0162643Y0158501D01*
X0162859Y0158180D01*
X0163066Y0157854D01*
X0163267Y0157523D01*
X0163458Y0157188D01*
X0163642Y0156848D01*
X0163818Y0156503D01*
X0163985Y0156154D01*
X0164144Y0155802D01*
X0164294Y0155446D01*
X0164435Y0155086D01*
X0164568Y0154723D01*
X0164692Y0154356D01*
X0164807Y0153987D01*
X0164913Y0153615D01*
X0165010Y0153241D01*
X0165098Y0152865D01*
X0165177Y0152486D01*
X0165247Y0152106D01*
X0165307Y0151724D01*
X0165358Y0151341D01*
X0165400Y0150956D01*
X0165433Y0150571D01*
X0165456Y0150185D01*
X0165470Y0149799D01*
X0165475Y0149412D01*
X0165475Y0140593D01*
X0165474Y0140593D02*
X0165163Y0140454D01*
X0164855Y0140307D01*
X0164551Y0140152D01*
X0164251Y0139990D01*
X0163955Y0139821D01*
X0163663Y0139645D01*
X0163375Y0139461D01*
X0163092Y0139271D01*
X0162814Y0139074D01*
X0162541Y0138870D01*
X0162272Y0138659D01*
X0162009Y0138442D01*
X0161752Y0138218D01*
X0161500Y0137988D01*
X0161253Y0137753D01*
X0161013Y0137511D01*
X0160778Y0137263D01*
X0160550Y0137010D01*
X0160328Y0136751D01*
X0160112Y0136487D01*
X0159903Y0136217D01*
X0159700Y0135943D01*
X0159504Y0135664D01*
X0159315Y0135380D01*
X0159133Y0135091D01*
X0158958Y0134798D01*
X0158791Y0134501D01*
X0158631Y0134200D01*
X0158478Y0133895D01*
X0158332Y0133587D01*
X0158194Y0133275D01*
X0158064Y0132959D01*
X0157942Y0132641D01*
X0157827Y0132320D01*
X0157721Y0131996D01*
X0157622Y0131669D01*
X0157531Y0131340D01*
X0157449Y0131009D01*
X0157374Y0130677D01*
X0157308Y0130342D01*
X0157250Y0130006D01*
X0157200Y0129668D01*
X0157158Y0129330D01*
X0157125Y0128990D01*
X0157100Y0128650D01*
X0157083Y0128310D01*
X0157075Y0127969D01*
X0157075Y0127627D01*
X0157083Y0127286D01*
X0157100Y0126946D01*
X0157125Y0126606D01*
X0157158Y0126266D01*
X0157200Y0125928D01*
X0157250Y0125590D01*
X0157308Y0125254D01*
X0157374Y0124919D01*
X0157449Y0124587D01*
X0157531Y0124256D01*
X0157622Y0123927D01*
X0157721Y0123600D01*
X0157827Y0123276D01*
X0157942Y0122955D01*
X0158064Y0122637D01*
X0158194Y0122321D01*
X0158332Y0122009D01*
X0158478Y0121701D01*
X0158631Y0121396D01*
X0158791Y0121095D01*
X0158958Y0120798D01*
X0159133Y0120505D01*
X0159315Y0120216D01*
X0159504Y0119932D01*
X0159700Y0119653D01*
X0159903Y0119379D01*
X0160112Y0119109D01*
X0160328Y0118845D01*
X0160550Y0118586D01*
X0160778Y0118333D01*
X0161013Y0118085D01*
X0161253Y0117843D01*
X0161500Y0117608D01*
X0161752Y0117378D01*
X0162009Y0117154D01*
X0162272Y0116937D01*
X0162541Y0116726D01*
X0162814Y0116522D01*
X0163092Y0116325D01*
X0163375Y0116135D01*
X0163663Y0115951D01*
X0163955Y0115775D01*
X0164251Y0115606D01*
X0164551Y0115444D01*
X0164855Y0115289D01*
X0165163Y0115142D01*
X0165474Y0115003D01*
X0165475Y0115002D02*
X0165475Y0071593D01*
X0165474Y0071593D02*
X0165163Y0071454D01*
X0164855Y0071307D01*
X0164551Y0071152D01*
X0164251Y0070990D01*
X0163955Y0070821D01*
X0163663Y0070645D01*
X0163375Y0070461D01*
X0163092Y0070271D01*
X0162814Y0070074D01*
X0162541Y0069870D01*
X0162272Y0069659D01*
X0162009Y0069442D01*
X0161752Y0069218D01*
X0161500Y0068988D01*
X0161253Y0068753D01*
X0161013Y0068511D01*
X0160778Y0068263D01*
X0160550Y0068010D01*
X0160328Y0067751D01*
X0160112Y0067487D01*
X0159903Y0067217D01*
X0159700Y0066943D01*
X0159504Y0066664D01*
X0159315Y0066380D01*
X0159133Y0066091D01*
X0158958Y0065798D01*
X0158791Y0065501D01*
X0158631Y0065200D01*
X0158478Y0064895D01*
X0158332Y0064587D01*
X0158194Y0064275D01*
X0158064Y0063959D01*
X0157942Y0063641D01*
X0157827Y0063320D01*
X0157721Y0062996D01*
X0157622Y0062669D01*
X0157531Y0062340D01*
X0157449Y0062009D01*
X0157374Y0061677D01*
X0157308Y0061342D01*
X0157250Y0061006D01*
X0157200Y0060668D01*
X0157158Y0060330D01*
X0157125Y0059990D01*
X0157100Y0059650D01*
X0157083Y0059310D01*
X0157075Y0058969D01*
X0157075Y0058627D01*
X0157083Y0058286D01*
X0157100Y0057946D01*
X0157125Y0057606D01*
X0157158Y0057266D01*
X0157200Y0056928D01*
X0157250Y0056590D01*
X0157308Y0056254D01*
X0157374Y0055919D01*
X0157449Y0055587D01*
X0157531Y0055256D01*
X0157622Y0054927D01*
X0157721Y0054600D01*
X0157827Y0054276D01*
X0157942Y0053955D01*
X0158064Y0053637D01*
X0158194Y0053321D01*
X0158332Y0053009D01*
X0158478Y0052701D01*
X0158631Y0052396D01*
X0158791Y0052095D01*
X0158958Y0051798D01*
X0159133Y0051505D01*
X0159315Y0051216D01*
X0159504Y0050932D01*
X0159700Y0050653D01*
X0159903Y0050379D01*
X0160112Y0050109D01*
X0160328Y0049845D01*
X0160550Y0049586D01*
X0160778Y0049333D01*
X0161013Y0049085D01*
X0161253Y0048843D01*
X0161500Y0048608D01*
X0161752Y0048378D01*
X0162009Y0048154D01*
X0162272Y0047937D01*
X0162541Y0047726D01*
X0162814Y0047522D01*
X0163092Y0047325D01*
X0163375Y0047135D01*
X0163663Y0046951D01*
X0163955Y0046775D01*
X0164251Y0046606D01*
X0164551Y0046444D01*
X0164855Y0046289D01*
X0165163Y0046142D01*
X0165474Y0046003D01*
X0165475Y0046002D02*
X0165475Y0040412D01*
X0165469Y0039929D01*
X0165452Y0039446D01*
X0165422Y0038963D01*
X0165382Y0038482D01*
X0165329Y0038001D01*
X0165265Y0037522D01*
X0165190Y0037045D01*
X0165102Y0036569D01*
X0165004Y0036096D01*
X0164894Y0035626D01*
X0164773Y0035158D01*
X0164640Y0034693D01*
X0164496Y0034232D01*
X0164341Y0033774D01*
X0164175Y0033320D01*
X0163998Y0032870D01*
X0163811Y0032425D01*
X0163612Y0031984D01*
X0163404Y0031548D01*
X0163184Y0031118D01*
X0162954Y0030692D01*
X0162714Y0030273D01*
X0162464Y0029859D01*
X0162204Y0029452D01*
X0161935Y0029051D01*
X0161655Y0028656D01*
X0161367Y0028269D01*
X0161068Y0027888D01*
X0160761Y0027515D01*
X0160445Y0027150D01*
X0160120Y0026792D01*
X0159787Y0026442D01*
X0159445Y0026100D01*
X0159095Y0025767D01*
X0158737Y0025442D01*
X0158372Y0025126D01*
X0157999Y0024819D01*
X0157618Y0024520D01*
X0157231Y0024232D01*
X0156836Y0023952D01*
X0156435Y0023683D01*
X0156028Y0023423D01*
X0155614Y0023173D01*
X0155195Y0022933D01*
X0154769Y0022703D01*
X0154339Y0022483D01*
X0153903Y0022275D01*
X0153462Y0022076D01*
X0153017Y0021889D01*
X0152567Y0021712D01*
X0152113Y0021546D01*
X0151655Y0021391D01*
X0151194Y0021247D01*
X0150729Y0021114D01*
X0150261Y0020993D01*
X0149791Y0020883D01*
X0149318Y0020785D01*
X0148842Y0020697D01*
X0148365Y0020622D01*
X0147886Y0020558D01*
X0147405Y0020505D01*
X0146924Y0020465D01*
X0146441Y0020435D01*
X0145958Y0020418D01*
X0145475Y0020412D01*
X0073656Y0020412D01*
X0073657Y0020412D02*
X0073495Y0020772D01*
X0073325Y0021128D01*
X0073147Y0021480D01*
X0072960Y0021827D01*
X0072764Y0022170D01*
X0072560Y0022507D01*
X0072348Y0022840D01*
X0072128Y0023167D01*
X0071899Y0023489D01*
X0071663Y0023805D01*
X0071420Y0024115D01*
X0071169Y0024419D01*
X0070910Y0024717D01*
X0070645Y0025008D01*
X0070372Y0025293D01*
X0070092Y0025572D01*
X0069806Y0025843D01*
X0069513Y0026107D01*
X0069214Y0026364D01*
X0068908Y0026613D01*
X0068597Y0026855D01*
X0068279Y0027090D01*
X0067956Y0027316D01*
X0067628Y0027534D01*
X0067294Y0027745D01*
X0066956Y0027947D01*
X0066612Y0028141D01*
X0066264Y0028326D01*
X0065911Y0028503D01*
X0065555Y0028671D01*
X0065194Y0028830D01*
X0064829Y0028981D01*
X0064461Y0029122D01*
X0064090Y0029255D01*
X0063715Y0029378D01*
X0063337Y0029492D01*
X0062957Y0029597D01*
X0062574Y0029693D01*
X0062190Y0029779D01*
X0061803Y0029855D01*
X0061414Y0029923D01*
X0061024Y0029980D01*
X0060632Y0030028D01*
X0060240Y0030067D01*
X0059846Y0030096D01*
X0059453Y0030115D01*
X0059058Y0030125D01*
X0058664Y0030125D01*
X0058269Y0030115D01*
X0057876Y0030096D01*
X0057482Y0030067D01*
X0057090Y0030028D01*
X0056698Y0029980D01*
X0056308Y0029923D01*
X0055919Y0029855D01*
X0055532Y0029779D01*
X0055148Y0029693D01*
X0054765Y0029597D01*
X0054385Y0029492D01*
X0054007Y0029378D01*
X0053632Y0029255D01*
X0053261Y0029122D01*
X0052893Y0028981D01*
X0052528Y0028830D01*
X0052167Y0028671D01*
X0051811Y0028503D01*
X0051458Y0028326D01*
X0051110Y0028141D01*
X0050766Y0027947D01*
X0050428Y0027745D01*
X0050094Y0027534D01*
X0049766Y0027316D01*
X0049443Y0027090D01*
X0049125Y0026855D01*
X0048814Y0026613D01*
X0048508Y0026364D01*
X0048209Y0026107D01*
X0047916Y0025843D01*
X0047630Y0025572D01*
X0047350Y0025293D01*
X0047077Y0025008D01*
X0046812Y0024717D01*
X0046553Y0024419D01*
X0046302Y0024115D01*
X0046059Y0023805D01*
X0045823Y0023489D01*
X0045594Y0023167D01*
X0045374Y0022840D01*
X0045162Y0022507D01*
X0044958Y0022170D01*
X0044762Y0021827D01*
X0044575Y0021480D01*
X0044397Y0021128D01*
X0044227Y0020772D01*
X0044065Y0020412D01*
X0040723Y0020412D01*
X0040723Y0020411D02*
X0040275Y0020368D01*
X0039825Y0020335D01*
X0039375Y0020314D01*
X0038925Y0020303D01*
X0038474Y0020304D01*
X0038024Y0020315D01*
X0037574Y0020338D01*
X0037124Y0020372D01*
X0036676Y0020416D01*
X0036229Y0020472D01*
X0035783Y0020539D01*
X0035340Y0020616D01*
X0034898Y0020705D01*
X0034458Y0020804D01*
X0034021Y0020914D01*
X0033587Y0021035D01*
X0033156Y0021166D01*
X0032729Y0021308D01*
X0032305Y0021461D01*
X0031884Y0021623D01*
X0031468Y0021796D01*
X0031057Y0021979D01*
X0030650Y0022172D01*
X0030248Y0022376D01*
X0029850Y0022588D01*
X0029459Y0022811D01*
X0029073Y0023043D01*
X0028692Y0023285D01*
X0028318Y0023536D01*
X0027950Y0023795D01*
X0027588Y0024064D01*
X0027233Y0024342D01*
X0026886Y0024628D01*
X0026545Y0024923D01*
X0026211Y0025226D01*
X0025885Y0025537D01*
X0025567Y0025856D01*
X0025257Y0026183D01*
X0024955Y0026517D01*
X0024661Y0026859D01*
X0024376Y0027207D01*
X0024099Y0027563D01*
X0023831Y0027925D01*
X0023572Y0028294D01*
X0023322Y0028669D01*
X0023081Y0029050D01*
X0022850Y0029436D01*
X0022629Y0029829D01*
X0022417Y0030226D01*
X0022215Y0030629D01*
X0022023Y0031037D01*
X0021841Y0031449D01*
X0021669Y0031865D01*
X0021507Y0032286D01*
X0021356Y0032710D01*
X0021215Y0033138D01*
X0021085Y0033570D01*
X0020965Y0034004D01*
X0020856Y0034441D01*
X0020758Y0034881D01*
X0020671Y0035323D01*
X0020594Y0035767D01*
X0020529Y0036213D01*
X0020474Y0036660D01*
X0020475Y0036660D02*
X0020475Y0044002D01*
X0020835Y0044164D01*
X0021191Y0044334D01*
X0021543Y0044512D01*
X0021890Y0044699D01*
X0022233Y0044895D01*
X0022570Y0045099D01*
X0022903Y0045311D01*
X0023230Y0045531D01*
X0023552Y0045760D01*
X0023868Y0045996D01*
X0024178Y0046239D01*
X0024482Y0046490D01*
X0024780Y0046749D01*
X0025071Y0047014D01*
X0025356Y0047287D01*
X0025635Y0047567D01*
X0025906Y0047853D01*
X0026170Y0048146D01*
X0026427Y0048445D01*
X0026676Y0048751D01*
X0026918Y0049062D01*
X0027153Y0049380D01*
X0027379Y0049703D01*
X0027597Y0050031D01*
X0027808Y0050365D01*
X0028010Y0050703D01*
X0028204Y0051047D01*
X0028389Y0051395D01*
X0028566Y0051748D01*
X0028734Y0052104D01*
X0028893Y0052465D01*
X0029044Y0052830D01*
X0029185Y0053198D01*
X0029318Y0053569D01*
X0029441Y0053944D01*
X0029555Y0054322D01*
X0029660Y0054702D01*
X0029756Y0055085D01*
X0029842Y0055469D01*
X0029918Y0055856D01*
X0029986Y0056245D01*
X0030043Y0056635D01*
X0030091Y0057027D01*
X0030130Y0057419D01*
X0030159Y0057813D01*
X0030178Y0058206D01*
X0030188Y0058601D01*
X0030188Y0058995D01*
X0030178Y0059390D01*
X0030159Y0059783D01*
X0030130Y0060177D01*
X0030091Y0060569D01*
X0030043Y0060961D01*
X0029986Y0061351D01*
X0029918Y0061740D01*
X0029842Y0062127D01*
X0029756Y0062511D01*
X0029660Y0062894D01*
X0029555Y0063274D01*
X0029441Y0063652D01*
X0029318Y0064027D01*
X0029185Y0064398D01*
X0029044Y0064766D01*
X0028893Y0065131D01*
X0028734Y0065492D01*
X0028566Y0065848D01*
X0028389Y0066201D01*
X0028204Y0066549D01*
X0028010Y0066893D01*
X0027808Y0067231D01*
X0027597Y0067565D01*
X0027379Y0067893D01*
X0027153Y0068216D01*
X0026918Y0068534D01*
X0026676Y0068845D01*
X0026427Y0069151D01*
X0026170Y0069450D01*
X0025906Y0069743D01*
X0025635Y0070029D01*
X0025356Y0070309D01*
X0025071Y0070582D01*
X0024780Y0070847D01*
X0024482Y0071106D01*
X0024178Y0071357D01*
X0023868Y0071600D01*
X0023552Y0071836D01*
X0023230Y0072065D01*
X0022903Y0072285D01*
X0022570Y0072497D01*
X0022233Y0072701D01*
X0021890Y0072897D01*
X0021543Y0073084D01*
X0021191Y0073262D01*
X0020835Y0073432D01*
X0020475Y0073594D01*
X0020475Y0073593D02*
X0020475Y0145412D01*
X0020481Y0145895D01*
X0020498Y0146378D01*
X0020528Y0146861D01*
X0020568Y0147342D01*
X0020621Y0147823D01*
X0020685Y0148302D01*
X0020760Y0148779D01*
X0020848Y0149255D01*
X0020946Y0149728D01*
X0021056Y0150198D01*
X0021177Y0150666D01*
X0021310Y0151131D01*
X0021454Y0151592D01*
X0021609Y0152050D01*
X0021775Y0152504D01*
X0021952Y0152954D01*
X0022139Y0153399D01*
X0022338Y0153840D01*
X0022546Y0154276D01*
X0022766Y0154706D01*
X0022996Y0155132D01*
X0023236Y0155551D01*
X0023486Y0155965D01*
X0023746Y0156372D01*
X0024015Y0156773D01*
X0024295Y0157168D01*
X0024583Y0157555D01*
X0024882Y0157936D01*
X0025189Y0158309D01*
X0025505Y0158674D01*
X0025830Y0159032D01*
X0026163Y0159382D01*
X0026505Y0159724D01*
X0026855Y0160057D01*
X0027213Y0160382D01*
X0027578Y0160698D01*
X0027951Y0161005D01*
X0028332Y0161304D01*
X0028719Y0161592D01*
X0029114Y0161872D01*
X0029515Y0162141D01*
X0029922Y0162401D01*
X0030336Y0162651D01*
X0030755Y0162891D01*
X0031181Y0163121D01*
X0031611Y0163341D01*
X0032047Y0163549D01*
X0032488Y0163748D01*
X0032933Y0163935D01*
X0033383Y0164112D01*
X0033837Y0164278D01*
X0034295Y0164433D01*
X0034756Y0164577D01*
X0035221Y0164710D01*
X0035689Y0164831D01*
X0036159Y0164941D01*
X0036632Y0165039D01*
X0037108Y0165127D01*
X0037585Y0165202D01*
X0038064Y0165266D01*
X0038545Y0165319D01*
X0039026Y0165359D01*
X0039509Y0165389D01*
X0039992Y0165406D01*
X0040475Y0165412D01*
X0046065Y0165412D01*
X0046066Y0165411D02*
X0046205Y0165100D01*
X0046352Y0164792D01*
X0046507Y0164488D01*
X0046669Y0164188D01*
X0046838Y0163892D01*
X0047014Y0163600D01*
X0047198Y0163312D01*
X0047388Y0163029D01*
X0047585Y0162751D01*
X0047789Y0162478D01*
X0048000Y0162209D01*
X0048217Y0161946D01*
X0048441Y0161689D01*
X0048671Y0161437D01*
X0048906Y0161190D01*
X0049148Y0160950D01*
X0049396Y0160715D01*
X0049649Y0160487D01*
X0049908Y0160265D01*
X0050172Y0160049D01*
X0050442Y0159840D01*
X0050716Y0159637D01*
X0050995Y0159441D01*
X0051279Y0159252D01*
X0051568Y0159070D01*
X0051861Y0158895D01*
X0052158Y0158728D01*
X0052459Y0158568D01*
X0052764Y0158415D01*
X0053072Y0158269D01*
X0053384Y0158131D01*
X0053700Y0158001D01*
X0054018Y0157879D01*
X0054339Y0157764D01*
X0054663Y0157658D01*
X0054990Y0157559D01*
X0055319Y0157468D01*
X0055650Y0157386D01*
X0055982Y0157311D01*
X0056317Y0157245D01*
X0056653Y0157187D01*
X0056991Y0157137D01*
X0057329Y0157095D01*
X0057669Y0157062D01*
X0058009Y0157037D01*
X0058349Y0157020D01*
X0058690Y0157012D01*
X0059032Y0157012D01*
X0059373Y0157020D01*
X0059713Y0157037D01*
X0060053Y0157062D01*
X0060393Y0157095D01*
X0060731Y0157137D01*
X0061069Y0157187D01*
X0061405Y0157245D01*
X0061740Y0157311D01*
X0062072Y0157386D01*
X0062403Y0157468D01*
X0062732Y0157559D01*
X0063059Y0157658D01*
X0063383Y0157764D01*
X0063704Y0157879D01*
X0064022Y0158001D01*
X0064338Y0158131D01*
X0064650Y0158269D01*
X0064958Y0158415D01*
X0065263Y0158568D01*
X0065564Y0158728D01*
X0065861Y0158895D01*
X0066154Y0159070D01*
X0066443Y0159252D01*
X0066727Y0159441D01*
X0067006Y0159637D01*
X0067280Y0159840D01*
X0067550Y0160049D01*
X0067814Y0160265D01*
X0068073Y0160487D01*
X0068326Y0160715D01*
X0068574Y0160950D01*
X0068816Y0161190D01*
X0069051Y0161437D01*
X0069281Y0161689D01*
X0069505Y0161946D01*
X0069722Y0162209D01*
X0069933Y0162478D01*
X0070137Y0162751D01*
X0070334Y0163029D01*
X0070524Y0163312D01*
X0070708Y0163600D01*
X0070884Y0163892D01*
X0071053Y0164188D01*
X0071215Y0164488D01*
X0071370Y0164792D01*
X0071517Y0165100D01*
X0071656Y0165411D01*
X0071656Y0165412D02*
X0115065Y0165412D01*
X0115066Y0165411D02*
X0115205Y0165100D01*
X0115352Y0164792D01*
X0115507Y0164488D01*
X0115669Y0164188D01*
X0115838Y0163892D01*
X0116014Y0163600D01*
X0116198Y0163312D01*
X0116388Y0163029D01*
X0116585Y0162751D01*
X0116789Y0162478D01*
X0117000Y0162209D01*
X0117217Y0161946D01*
X0117441Y0161689D01*
X0117671Y0161437D01*
X0117906Y0161190D01*
X0118148Y0160950D01*
X0118396Y0160715D01*
X0118649Y0160487D01*
X0118908Y0160265D01*
X0119172Y0160049D01*
X0119442Y0159840D01*
X0119716Y0159637D01*
X0119995Y0159441D01*
X0120279Y0159252D01*
X0120568Y0159070D01*
X0120861Y0158895D01*
X0121158Y0158728D01*
X0121459Y0158568D01*
X0121764Y0158415D01*
X0122072Y0158269D01*
X0122384Y0158131D01*
X0122700Y0158001D01*
X0123018Y0157879D01*
X0123339Y0157764D01*
X0123663Y0157658D01*
X0123990Y0157559D01*
X0124319Y0157468D01*
X0124650Y0157386D01*
X0124982Y0157311D01*
X0125317Y0157245D01*
X0125653Y0157187D01*
X0125991Y0157137D01*
X0126329Y0157095D01*
X0126669Y0157062D01*
X0127009Y0157037D01*
X0127349Y0157020D01*
X0127690Y0157012D01*
X0128032Y0157012D01*
X0128373Y0157020D01*
X0128713Y0157037D01*
X0129053Y0157062D01*
X0129393Y0157095D01*
X0129731Y0157137D01*
X0130069Y0157187D01*
X0130405Y0157245D01*
X0130740Y0157311D01*
X0131072Y0157386D01*
X0131403Y0157468D01*
X0131732Y0157559D01*
X0132059Y0157658D01*
X0132383Y0157764D01*
X0132704Y0157879D01*
X0133022Y0158001D01*
X0133338Y0158131D01*
X0133650Y0158269D01*
X0133958Y0158415D01*
X0134263Y0158568D01*
X0134564Y0158728D01*
X0134861Y0158895D01*
X0135154Y0159070D01*
X0135443Y0159252D01*
X0135727Y0159441D01*
X0136006Y0159637D01*
X0136280Y0159840D01*
X0136550Y0160049D01*
X0136814Y0160265D01*
X0137073Y0160487D01*
X0137326Y0160715D01*
X0137574Y0160950D01*
X0137816Y0161190D01*
X0138051Y0161437D01*
X0138281Y0161689D01*
X0138505Y0161946D01*
X0138722Y0162209D01*
X0138933Y0162478D01*
X0139137Y0162751D01*
X0139334Y0163029D01*
X0139524Y0163312D01*
X0139708Y0163600D01*
X0139884Y0163892D01*
X0140053Y0164188D01*
X0140215Y0164488D01*
X0140370Y0164792D01*
X0140517Y0165100D01*
X0140656Y0165411D01*
X0140656Y0165412D02*
X0149475Y0165412D01*
D14*
X0150475Y0150412D02*
X0143475Y0150412D01*
X0150475Y0150412D02*
X0150475Y0143412D01*
X0150475Y0150412D02*
X0141475Y0141412D01*
D15*
X0092975Y0106412D03*
X0092975Y0098412D03*
X0096975Y0091412D03*
X0092975Y0087412D03*
X0092975Y0079412D03*
D16*
X0092975Y0079912D03*
X0092975Y0087912D03*
X0096975Y0091912D03*
X0092975Y0097912D03*
X0092975Y0105912D03*
D17*
X0092975Y0105412D03*
X0092975Y0097412D03*
X0096975Y0092412D03*
X0092975Y0088412D03*
X0092975Y0080412D03*
D18*
X0092975Y0080912D03*
X0092975Y0088912D03*
X0096975Y0092912D03*
X0096475Y0093412D03*
X0095975Y0093912D03*
X0095475Y0094412D03*
X0092975Y0096912D03*
X0092975Y0104912D03*
D19*
X0092975Y0104412D03*
X0098975Y0098412D03*
X0086975Y0087412D03*
X0092975Y0081412D03*
D20*
X0092975Y0081912D03*
X0086975Y0087912D03*
X0098975Y0097912D03*
X0092975Y0103912D03*
D21*
X0092975Y0103412D03*
X0098975Y0097412D03*
X0086975Y0088412D03*
X0092975Y0082412D03*
D22*
X0092975Y0082912D03*
X0086975Y0088912D03*
X0098975Y0096912D03*
X0092975Y0102912D03*
D23*
X0095225Y0102412D03*
X0095725Y0101912D03*
X0096225Y0101412D03*
X0096725Y0100912D03*
X0097225Y0100412D03*
X0097725Y0099912D03*
X0098225Y0099412D03*
X0098725Y0098912D03*
X0101225Y0096412D03*
X0101725Y0095912D03*
X0102225Y0095412D03*
X0102725Y0094912D03*
X0103225Y0094412D03*
X0103725Y0093912D03*
X0104225Y0093412D03*
X0104725Y0092912D03*
X0104225Y0092412D03*
X0103725Y0091912D03*
X0103225Y0091412D03*
X0102725Y0090912D03*
X0102225Y0090412D03*
X0101725Y0089912D03*
X0101225Y0089412D03*
X0100725Y0088912D03*
X0100225Y0088412D03*
X0099725Y0087912D03*
X0099225Y0087412D03*
X0098725Y0086912D03*
X0098225Y0086412D03*
X0097725Y0085912D03*
X0097225Y0085412D03*
X0096725Y0084912D03*
X0096225Y0084412D03*
X0095725Y0083912D03*
X0095225Y0083412D03*
X0090725Y0083412D03*
X0090225Y0083912D03*
X0089725Y0084412D03*
X0089225Y0084912D03*
X0088725Y0085412D03*
X0088225Y0085912D03*
X0087725Y0086412D03*
X0087225Y0086912D03*
X0084725Y0089412D03*
X0084225Y0089912D03*
X0083725Y0090412D03*
X0083225Y0090912D03*
X0082725Y0091412D03*
X0082225Y0091912D03*
X0081725Y0092412D03*
X0081225Y0092912D03*
X0081725Y0093412D03*
X0082225Y0093912D03*
X0082725Y0094412D03*
X0083225Y0094912D03*
X0083725Y0095412D03*
X0084225Y0095912D03*
X0084725Y0096412D03*
X0085225Y0096912D03*
X0085725Y0097412D03*
X0086225Y0097912D03*
X0086725Y0098412D03*
X0087225Y0098912D03*
X0087725Y0099412D03*
X0088225Y0099912D03*
X0088725Y0100412D03*
X0089225Y0100912D03*
X0089725Y0101412D03*
X0090225Y0101912D03*
X0090725Y0102412D03*
X0095225Y0094912D03*
X0091225Y0090912D03*
X0090725Y0091412D03*
X0090225Y0091912D03*
X0089725Y0092412D03*
X0089225Y0092912D03*
D24*
X0091225Y0089412D03*
X0095225Y0096412D03*
D25*
X0095225Y0095912D03*
X0091225Y0089912D03*
D26*
X0091225Y0090412D03*
X0095225Y0095412D03*
D27*
X0089225Y0093412D03*
D28*
X0089225Y0093912D03*
D29*
X0089225Y0094412D03*
D30*
X0092475Y0093412D02*
X0092475Y0153412D01*
X0092475Y0168412D01*
X0087475Y0173412D01*
X0082475Y0168412D01*
X0087475Y0163412D01*
X0087475Y0153412D01*
X0044546Y0153412D01*
X0044254Y0153408D01*
X0043963Y0153398D01*
X0043672Y0153380D01*
X0043381Y0153356D01*
X0043091Y0153324D01*
X0042802Y0153285D01*
X0042514Y0153240D01*
X0042227Y0153187D01*
X0041941Y0153128D01*
X0041657Y0153061D01*
X0041375Y0152988D01*
X0041094Y0152908D01*
X0040816Y0152821D01*
X0040540Y0152728D01*
X0040266Y0152628D01*
X0039994Y0152521D01*
X0039725Y0152408D01*
X0039459Y0152288D01*
X0039196Y0152162D01*
X0038936Y0152029D01*
X0038680Y0151891D01*
X0038426Y0151746D01*
X0038177Y0151595D01*
X0037931Y0151438D01*
X0037689Y0151275D01*
X0037451Y0151107D01*
X0037217Y0150932D01*
X0036987Y0150752D01*
X0036762Y0150567D01*
X0036541Y0150376D01*
X0036325Y0150180D01*
X0036114Y0149979D01*
X0035908Y0149773D01*
X0035707Y0149562D01*
X0035511Y0149346D01*
X0035320Y0149125D01*
X0035135Y0148900D01*
X0034955Y0148670D01*
X0034780Y0148436D01*
X0034612Y0148198D01*
X0034449Y0147956D01*
X0034292Y0147710D01*
X0034141Y0147461D01*
X0033996Y0147207D01*
X0033858Y0146951D01*
X0033725Y0146691D01*
X0033599Y0146428D01*
X0033479Y0146162D01*
X0033366Y0145893D01*
X0033259Y0145621D01*
X0033159Y0145347D01*
X0033066Y0145071D01*
X0032979Y0144793D01*
X0032899Y0144512D01*
X0032826Y0144230D01*
X0032759Y0143946D01*
X0032700Y0143660D01*
X0032647Y0143373D01*
X0032602Y0143085D01*
X0032563Y0142796D01*
X0032531Y0142506D01*
X0032507Y0142215D01*
X0032489Y0141924D01*
X0032479Y0141633D01*
X0032475Y0141341D01*
X0032475Y0098412D01*
X0022475Y0098412D01*
X0017475Y0103412D01*
X0012475Y0098412D01*
X0017475Y0093412D01*
X0032475Y0093412D01*
X0092475Y0093412D01*
X0093475Y0093412D02*
X0153475Y0093412D01*
X0168475Y0093412D01*
X0173475Y0098412D01*
X0168475Y0103412D01*
X0163475Y0098412D01*
X0153475Y0098412D01*
X0153475Y0141341D01*
X0153471Y0141633D01*
X0153461Y0141924D01*
X0153443Y0142215D01*
X0153419Y0142506D01*
X0153387Y0142796D01*
X0153348Y0143085D01*
X0153303Y0143373D01*
X0153250Y0143660D01*
X0153191Y0143946D01*
X0153124Y0144230D01*
X0153051Y0144512D01*
X0152971Y0144793D01*
X0152884Y0145071D01*
X0152791Y0145347D01*
X0152691Y0145621D01*
X0152584Y0145893D01*
X0152471Y0146162D01*
X0152351Y0146428D01*
X0152225Y0146691D01*
X0152092Y0146951D01*
X0151954Y0147207D01*
X0151809Y0147461D01*
X0151658Y0147710D01*
X0151501Y0147956D01*
X0151338Y0148198D01*
X0151170Y0148436D01*
X0150995Y0148670D01*
X0150815Y0148900D01*
X0150630Y0149125D01*
X0150439Y0149346D01*
X0150243Y0149562D01*
X0150042Y0149773D01*
X0149836Y0149979D01*
X0149625Y0150180D01*
X0149409Y0150376D01*
X0149188Y0150567D01*
X0148963Y0150752D01*
X0148733Y0150932D01*
X0148499Y0151107D01*
X0148261Y0151275D01*
X0148019Y0151438D01*
X0147773Y0151595D01*
X0147524Y0151746D01*
X0147270Y0151891D01*
X0147014Y0152029D01*
X0146754Y0152162D01*
X0146491Y0152288D01*
X0146225Y0152408D01*
X0145956Y0152521D01*
X0145684Y0152628D01*
X0145410Y0152728D01*
X0145134Y0152821D01*
X0144856Y0152908D01*
X0144575Y0152988D01*
X0144293Y0153061D01*
X0144009Y0153128D01*
X0143723Y0153187D01*
X0143436Y0153240D01*
X0143148Y0153285D01*
X0142859Y0153324D01*
X0142569Y0153356D01*
X0142278Y0153380D01*
X0141987Y0153398D01*
X0141696Y0153408D01*
X0141404Y0153412D01*
X0098475Y0153412D01*
X0098475Y0163412D01*
X0103475Y0168412D01*
X0098475Y0173412D01*
X0093475Y0168412D01*
X0093475Y0153412D01*
X0093475Y0093412D01*
X0093475Y0092412D02*
X0093475Y0032412D01*
X0093475Y0017412D01*
X0098475Y0012412D01*
X0103475Y0017412D01*
X0098475Y0022412D01*
X0098475Y0032412D01*
X0141404Y0032412D01*
X0141696Y0032416D01*
X0141987Y0032426D01*
X0142278Y0032444D01*
X0142569Y0032468D01*
X0142859Y0032500D01*
X0143148Y0032539D01*
X0143436Y0032584D01*
X0143723Y0032637D01*
X0144009Y0032696D01*
X0144293Y0032763D01*
X0144575Y0032836D01*
X0144856Y0032916D01*
X0145134Y0033003D01*
X0145410Y0033096D01*
X0145684Y0033196D01*
X0145956Y0033303D01*
X0146225Y0033416D01*
X0146491Y0033536D01*
X0146754Y0033662D01*
X0147014Y0033795D01*
X0147270Y0033933D01*
X0147524Y0034078D01*
X0147773Y0034229D01*
X0148019Y0034386D01*
X0148261Y0034549D01*
X0148499Y0034717D01*
X0148733Y0034892D01*
X0148963Y0035072D01*
X0149188Y0035257D01*
X0149409Y0035448D01*
X0149625Y0035644D01*
X0149836Y0035845D01*
X0150042Y0036051D01*
X0150243Y0036262D01*
X0150439Y0036478D01*
X0150630Y0036699D01*
X0150815Y0036924D01*
X0150995Y0037154D01*
X0151170Y0037388D01*
X0151338Y0037626D01*
X0151501Y0037868D01*
X0151658Y0038114D01*
X0151809Y0038363D01*
X0151954Y0038617D01*
X0152092Y0038873D01*
X0152225Y0039133D01*
X0152351Y0039396D01*
X0152471Y0039662D01*
X0152584Y0039931D01*
X0152691Y0040203D01*
X0152791Y0040477D01*
X0152884Y0040753D01*
X0152971Y0041031D01*
X0153051Y0041312D01*
X0153124Y0041594D01*
X0153191Y0041878D01*
X0153250Y0042164D01*
X0153303Y0042451D01*
X0153348Y0042739D01*
X0153387Y0043028D01*
X0153419Y0043318D01*
X0153443Y0043609D01*
X0153461Y0043900D01*
X0153471Y0044191D01*
X0153475Y0044483D01*
X0153475Y0087412D01*
X0163475Y0087412D01*
X0168475Y0082412D01*
X0173475Y0087412D01*
X0168475Y0092412D01*
X0153475Y0092412D01*
X0093475Y0092412D01*
X0092475Y0092412D02*
X0032475Y0092412D01*
X0017475Y0092412D01*
X0012475Y0087412D01*
X0017475Y0082412D01*
X0022475Y0087412D01*
X0032475Y0087412D01*
X0032475Y0044483D01*
X0032479Y0044191D01*
X0032489Y0043900D01*
X0032507Y0043609D01*
X0032531Y0043318D01*
X0032563Y0043028D01*
X0032602Y0042739D01*
X0032647Y0042451D01*
X0032700Y0042164D01*
X0032759Y0041878D01*
X0032826Y0041594D01*
X0032899Y0041312D01*
X0032979Y0041031D01*
X0033066Y0040753D01*
X0033159Y0040477D01*
X0033259Y0040203D01*
X0033366Y0039931D01*
X0033479Y0039662D01*
X0033599Y0039396D01*
X0033725Y0039133D01*
X0033858Y0038873D01*
X0033996Y0038617D01*
X0034141Y0038363D01*
X0034292Y0038114D01*
X0034449Y0037868D01*
X0034612Y0037626D01*
X0034780Y0037388D01*
X0034955Y0037154D01*
X0035135Y0036924D01*
X0035320Y0036699D01*
X0035511Y0036478D01*
X0035707Y0036262D01*
X0035908Y0036051D01*
X0036114Y0035845D01*
X0036325Y0035644D01*
X0036541Y0035448D01*
X0036762Y0035257D01*
X0036987Y0035072D01*
X0037217Y0034892D01*
X0037451Y0034717D01*
X0037689Y0034549D01*
X0037931Y0034386D01*
X0038177Y0034229D01*
X0038426Y0034078D01*
X0038680Y0033933D01*
X0038936Y0033795D01*
X0039196Y0033662D01*
X0039459Y0033536D01*
X0039725Y0033416D01*
X0039994Y0033303D01*
X0040266Y0033196D01*
X0040540Y0033096D01*
X0040816Y0033003D01*
X0041094Y0032916D01*
X0041375Y0032836D01*
X0041657Y0032763D01*
X0041941Y0032696D01*
X0042227Y0032637D01*
X0042514Y0032584D01*
X0042802Y0032539D01*
X0043091Y0032500D01*
X0043381Y0032468D01*
X0043672Y0032444D01*
X0043963Y0032426D01*
X0044254Y0032416D01*
X0044546Y0032412D01*
X0087475Y0032412D01*
X0087475Y0022412D01*
X0082475Y0017412D01*
X0087475Y0012412D01*
X0092475Y0017412D01*
X0092475Y0032412D01*
X0092475Y0092412D01*
X0032475Y0092412D02*
X0032475Y0087412D01*
X0032475Y0093412D02*
X0032475Y0098412D01*
X0006885Y0100912D02*
X0006887Y0101061D01*
X0006893Y0101211D01*
X0006903Y0101360D01*
X0006917Y0101509D01*
X0006935Y0101657D01*
X0006957Y0101805D01*
X0006983Y0101952D01*
X0007012Y0102099D01*
X0007046Y0102244D01*
X0007084Y0102389D01*
X0007125Y0102532D01*
X0007170Y0102675D01*
X0007219Y0102816D01*
X0007272Y0102956D01*
X0007329Y0103094D01*
X0007389Y0103231D01*
X0007453Y0103366D01*
X0007520Y0103500D01*
X0007591Y0103631D01*
X0007665Y0103761D01*
X0007743Y0103888D01*
X0007824Y0104014D01*
X0007909Y0104137D01*
X0007997Y0104258D01*
X0008088Y0104376D01*
X0008182Y0104492D01*
X0008279Y0104606D01*
X0008380Y0104717D01*
X0008483Y0104825D01*
X0008589Y0104930D01*
X0008698Y0105033D01*
X0008809Y0105132D01*
X0008923Y0105229D01*
X0009040Y0105322D01*
X0009159Y0105412D01*
X0009281Y0105499D01*
X0009404Y0105583D01*
X0009530Y0105664D01*
X0009658Y0105741D01*
X0009789Y0105814D01*
X0009921Y0105884D01*
X0010054Y0105951D01*
X0010190Y0106014D01*
X0010327Y0106073D01*
X0010466Y0106128D01*
X0010606Y0106180D01*
X0010748Y0106228D01*
X0010890Y0106273D01*
X0011034Y0106313D01*
X0011179Y0106350D01*
X0011325Y0106382D01*
X0011472Y0106411D01*
X0011619Y0106436D01*
X0011767Y0106457D01*
X0011915Y0106474D01*
X0012064Y0106487D01*
X0012214Y0106496D01*
X0012363Y0106501D01*
X0012512Y0106502D01*
X0012662Y0106499D01*
X0012811Y0106492D01*
X0012960Y0106481D01*
X0013109Y0106466D01*
X0013257Y0106447D01*
X0013405Y0106424D01*
X0013552Y0106397D01*
X0013698Y0106367D01*
X0013843Y0106332D01*
X0013988Y0106293D01*
X0014131Y0106251D01*
X0014273Y0106205D01*
X0014414Y0106155D01*
X0014554Y0106101D01*
X0014692Y0106044D01*
X0014828Y0105983D01*
X0014963Y0105918D01*
X0015096Y0105850D01*
X0015227Y0105778D01*
X0015356Y0105702D01*
X0015483Y0105624D01*
X0015608Y0105542D01*
X0015730Y0105456D01*
X0015851Y0105368D01*
X0015969Y0105276D01*
X0016084Y0105181D01*
X0016197Y0105083D01*
X0016307Y0104982D01*
X0016414Y0104878D01*
X0016519Y0104771D01*
X0016621Y0104662D01*
X0016720Y0104550D01*
X0016815Y0104435D01*
X0016908Y0104317D01*
X0016997Y0104198D01*
X0017084Y0104076D01*
X0017167Y0103951D01*
X0017246Y0103825D01*
X0017322Y0103696D01*
X0017395Y0103566D01*
X0017464Y0103433D01*
X0017530Y0103299D01*
X0017592Y0103163D01*
X0017650Y0103025D01*
X0017705Y0102886D01*
X0017756Y0102746D01*
X0017803Y0102604D01*
X0017846Y0102461D01*
X0017886Y0102317D01*
X0017921Y0102171D01*
X0017953Y0102025D01*
X0017981Y0101879D01*
X0018005Y0101731D01*
X0018025Y0101583D01*
X0018041Y0101434D01*
X0018053Y0101285D01*
X0018061Y0101136D01*
X0018065Y0100987D01*
X0018065Y0100837D01*
X0018061Y0100688D01*
X0018053Y0100539D01*
X0018041Y0100390D01*
X0018025Y0100241D01*
X0018005Y0100093D01*
X0017981Y0099945D01*
X0017953Y0099799D01*
X0017921Y0099653D01*
X0017886Y0099507D01*
X0017846Y0099363D01*
X0017803Y0099220D01*
X0017756Y0099078D01*
X0017705Y0098938D01*
X0017650Y0098799D01*
X0017592Y0098661D01*
X0017530Y0098525D01*
X0017464Y0098391D01*
X0017395Y0098258D01*
X0017322Y0098128D01*
X0017246Y0097999D01*
X0017167Y0097873D01*
X0017084Y0097748D01*
X0016997Y0097626D01*
X0016908Y0097507D01*
X0016815Y0097389D01*
X0016720Y0097274D01*
X0016621Y0097162D01*
X0016519Y0097053D01*
X0016414Y0096946D01*
X0016307Y0096842D01*
X0016197Y0096741D01*
X0016084Y0096643D01*
X0015969Y0096548D01*
X0015851Y0096456D01*
X0015730Y0096368D01*
X0015608Y0096282D01*
X0015483Y0096200D01*
X0015356Y0096122D01*
X0015227Y0096046D01*
X0015096Y0095974D01*
X0014963Y0095906D01*
X0014828Y0095841D01*
X0014692Y0095780D01*
X0014554Y0095723D01*
X0014414Y0095669D01*
X0014273Y0095619D01*
X0014131Y0095573D01*
X0013988Y0095531D01*
X0013843Y0095492D01*
X0013698Y0095457D01*
X0013552Y0095427D01*
X0013405Y0095400D01*
X0013257Y0095377D01*
X0013109Y0095358D01*
X0012960Y0095343D01*
X0012811Y0095332D01*
X0012662Y0095325D01*
X0012512Y0095322D01*
X0012363Y0095323D01*
X0012214Y0095328D01*
X0012064Y0095337D01*
X0011915Y0095350D01*
X0011767Y0095367D01*
X0011619Y0095388D01*
X0011472Y0095413D01*
X0011325Y0095442D01*
X0011179Y0095474D01*
X0011034Y0095511D01*
X0010890Y0095551D01*
X0010748Y0095596D01*
X0010606Y0095644D01*
X0010466Y0095696D01*
X0010327Y0095751D01*
X0010190Y0095810D01*
X0010054Y0095873D01*
X0009921Y0095940D01*
X0009789Y0096010D01*
X0009658Y0096083D01*
X0009530Y0096160D01*
X0009404Y0096241D01*
X0009281Y0096325D01*
X0009159Y0096412D01*
X0009040Y0096502D01*
X0008923Y0096595D01*
X0008809Y0096692D01*
X0008698Y0096791D01*
X0008589Y0096894D01*
X0008483Y0096999D01*
X0008380Y0097107D01*
X0008279Y0097218D01*
X0008182Y0097332D01*
X0008088Y0097448D01*
X0007997Y0097566D01*
X0007909Y0097687D01*
X0007824Y0097810D01*
X0007743Y0097936D01*
X0007665Y0098063D01*
X0007591Y0098193D01*
X0007520Y0098324D01*
X0007453Y0098458D01*
X0007389Y0098593D01*
X0007329Y0098730D01*
X0007272Y0098868D01*
X0007219Y0099008D01*
X0007170Y0099149D01*
X0007125Y0099292D01*
X0007084Y0099435D01*
X0007046Y0099580D01*
X0007012Y0099725D01*
X0006983Y0099872D01*
X0006957Y0100019D01*
X0006935Y0100167D01*
X0006917Y0100315D01*
X0006903Y0100464D01*
X0006893Y0100613D01*
X0006887Y0100763D01*
X0006885Y0100912D01*
X0006885Y0084912D02*
X0006887Y0085061D01*
X0006893Y0085211D01*
X0006903Y0085360D01*
X0006917Y0085509D01*
X0006935Y0085657D01*
X0006957Y0085805D01*
X0006983Y0085952D01*
X0007012Y0086099D01*
X0007046Y0086244D01*
X0007084Y0086389D01*
X0007125Y0086532D01*
X0007170Y0086675D01*
X0007219Y0086816D01*
X0007272Y0086956D01*
X0007329Y0087094D01*
X0007389Y0087231D01*
X0007453Y0087366D01*
X0007520Y0087500D01*
X0007591Y0087631D01*
X0007665Y0087761D01*
X0007743Y0087888D01*
X0007824Y0088014D01*
X0007909Y0088137D01*
X0007997Y0088258D01*
X0008088Y0088376D01*
X0008182Y0088492D01*
X0008279Y0088606D01*
X0008380Y0088717D01*
X0008483Y0088825D01*
X0008589Y0088930D01*
X0008698Y0089033D01*
X0008809Y0089132D01*
X0008923Y0089229D01*
X0009040Y0089322D01*
X0009159Y0089412D01*
X0009281Y0089499D01*
X0009404Y0089583D01*
X0009530Y0089664D01*
X0009658Y0089741D01*
X0009789Y0089814D01*
X0009921Y0089884D01*
X0010054Y0089951D01*
X0010190Y0090014D01*
X0010327Y0090073D01*
X0010466Y0090128D01*
X0010606Y0090180D01*
X0010748Y0090228D01*
X0010890Y0090273D01*
X0011034Y0090313D01*
X0011179Y0090350D01*
X0011325Y0090382D01*
X0011472Y0090411D01*
X0011619Y0090436D01*
X0011767Y0090457D01*
X0011915Y0090474D01*
X0012064Y0090487D01*
X0012214Y0090496D01*
X0012363Y0090501D01*
X0012512Y0090502D01*
X0012662Y0090499D01*
X0012811Y0090492D01*
X0012960Y0090481D01*
X0013109Y0090466D01*
X0013257Y0090447D01*
X0013405Y0090424D01*
X0013552Y0090397D01*
X0013698Y0090367D01*
X0013843Y0090332D01*
X0013988Y0090293D01*
X0014131Y0090251D01*
X0014273Y0090205D01*
X0014414Y0090155D01*
X0014554Y0090101D01*
X0014692Y0090044D01*
X0014828Y0089983D01*
X0014963Y0089918D01*
X0015096Y0089850D01*
X0015227Y0089778D01*
X0015356Y0089702D01*
X0015483Y0089624D01*
X0015608Y0089542D01*
X0015730Y0089456D01*
X0015851Y0089368D01*
X0015969Y0089276D01*
X0016084Y0089181D01*
X0016197Y0089083D01*
X0016307Y0088982D01*
X0016414Y0088878D01*
X0016519Y0088771D01*
X0016621Y0088662D01*
X0016720Y0088550D01*
X0016815Y0088435D01*
X0016908Y0088317D01*
X0016997Y0088198D01*
X0017084Y0088076D01*
X0017167Y0087951D01*
X0017246Y0087825D01*
X0017322Y0087696D01*
X0017395Y0087566D01*
X0017464Y0087433D01*
X0017530Y0087299D01*
X0017592Y0087163D01*
X0017650Y0087025D01*
X0017705Y0086886D01*
X0017756Y0086746D01*
X0017803Y0086604D01*
X0017846Y0086461D01*
X0017886Y0086317D01*
X0017921Y0086171D01*
X0017953Y0086025D01*
X0017981Y0085879D01*
X0018005Y0085731D01*
X0018025Y0085583D01*
X0018041Y0085434D01*
X0018053Y0085285D01*
X0018061Y0085136D01*
X0018065Y0084987D01*
X0018065Y0084837D01*
X0018061Y0084688D01*
X0018053Y0084539D01*
X0018041Y0084390D01*
X0018025Y0084241D01*
X0018005Y0084093D01*
X0017981Y0083945D01*
X0017953Y0083799D01*
X0017921Y0083653D01*
X0017886Y0083507D01*
X0017846Y0083363D01*
X0017803Y0083220D01*
X0017756Y0083078D01*
X0017705Y0082938D01*
X0017650Y0082799D01*
X0017592Y0082661D01*
X0017530Y0082525D01*
X0017464Y0082391D01*
X0017395Y0082258D01*
X0017322Y0082128D01*
X0017246Y0081999D01*
X0017167Y0081873D01*
X0017084Y0081748D01*
X0016997Y0081626D01*
X0016908Y0081507D01*
X0016815Y0081389D01*
X0016720Y0081274D01*
X0016621Y0081162D01*
X0016519Y0081053D01*
X0016414Y0080946D01*
X0016307Y0080842D01*
X0016197Y0080741D01*
X0016084Y0080643D01*
X0015969Y0080548D01*
X0015851Y0080456D01*
X0015730Y0080368D01*
X0015608Y0080282D01*
X0015483Y0080200D01*
X0015356Y0080122D01*
X0015227Y0080046D01*
X0015096Y0079974D01*
X0014963Y0079906D01*
X0014828Y0079841D01*
X0014692Y0079780D01*
X0014554Y0079723D01*
X0014414Y0079669D01*
X0014273Y0079619D01*
X0014131Y0079573D01*
X0013988Y0079531D01*
X0013843Y0079492D01*
X0013698Y0079457D01*
X0013552Y0079427D01*
X0013405Y0079400D01*
X0013257Y0079377D01*
X0013109Y0079358D01*
X0012960Y0079343D01*
X0012811Y0079332D01*
X0012662Y0079325D01*
X0012512Y0079322D01*
X0012363Y0079323D01*
X0012214Y0079328D01*
X0012064Y0079337D01*
X0011915Y0079350D01*
X0011767Y0079367D01*
X0011619Y0079388D01*
X0011472Y0079413D01*
X0011325Y0079442D01*
X0011179Y0079474D01*
X0011034Y0079511D01*
X0010890Y0079551D01*
X0010748Y0079596D01*
X0010606Y0079644D01*
X0010466Y0079696D01*
X0010327Y0079751D01*
X0010190Y0079810D01*
X0010054Y0079873D01*
X0009921Y0079940D01*
X0009789Y0080010D01*
X0009658Y0080083D01*
X0009530Y0080160D01*
X0009404Y0080241D01*
X0009281Y0080325D01*
X0009159Y0080412D01*
X0009040Y0080502D01*
X0008923Y0080595D01*
X0008809Y0080692D01*
X0008698Y0080791D01*
X0008589Y0080894D01*
X0008483Y0080999D01*
X0008380Y0081107D01*
X0008279Y0081218D01*
X0008182Y0081332D01*
X0008088Y0081448D01*
X0007997Y0081566D01*
X0007909Y0081687D01*
X0007824Y0081810D01*
X0007743Y0081936D01*
X0007665Y0082063D01*
X0007591Y0082193D01*
X0007520Y0082324D01*
X0007453Y0082458D01*
X0007389Y0082593D01*
X0007329Y0082730D01*
X0007272Y0082868D01*
X0007219Y0083008D01*
X0007170Y0083149D01*
X0007125Y0083292D01*
X0007084Y0083435D01*
X0007046Y0083580D01*
X0007012Y0083725D01*
X0006983Y0083872D01*
X0006957Y0084019D01*
X0006935Y0084167D01*
X0006917Y0084315D01*
X0006903Y0084464D01*
X0006893Y0084613D01*
X0006887Y0084763D01*
X0006885Y0084912D01*
X0079385Y0012412D02*
X0079387Y0012561D01*
X0079393Y0012711D01*
X0079403Y0012860D01*
X0079417Y0013009D01*
X0079435Y0013157D01*
X0079457Y0013305D01*
X0079483Y0013452D01*
X0079512Y0013599D01*
X0079546Y0013744D01*
X0079584Y0013889D01*
X0079625Y0014032D01*
X0079670Y0014175D01*
X0079719Y0014316D01*
X0079772Y0014456D01*
X0079829Y0014594D01*
X0079889Y0014731D01*
X0079953Y0014866D01*
X0080020Y0015000D01*
X0080091Y0015131D01*
X0080165Y0015261D01*
X0080243Y0015388D01*
X0080324Y0015514D01*
X0080409Y0015637D01*
X0080497Y0015758D01*
X0080588Y0015876D01*
X0080682Y0015992D01*
X0080779Y0016106D01*
X0080880Y0016217D01*
X0080983Y0016325D01*
X0081089Y0016430D01*
X0081198Y0016533D01*
X0081309Y0016632D01*
X0081423Y0016729D01*
X0081540Y0016822D01*
X0081659Y0016912D01*
X0081781Y0016999D01*
X0081904Y0017083D01*
X0082030Y0017164D01*
X0082158Y0017241D01*
X0082289Y0017314D01*
X0082421Y0017384D01*
X0082554Y0017451D01*
X0082690Y0017514D01*
X0082827Y0017573D01*
X0082966Y0017628D01*
X0083106Y0017680D01*
X0083248Y0017728D01*
X0083390Y0017773D01*
X0083534Y0017813D01*
X0083679Y0017850D01*
X0083825Y0017882D01*
X0083972Y0017911D01*
X0084119Y0017936D01*
X0084267Y0017957D01*
X0084415Y0017974D01*
X0084564Y0017987D01*
X0084714Y0017996D01*
X0084863Y0018001D01*
X0085012Y0018002D01*
X0085162Y0017999D01*
X0085311Y0017992D01*
X0085460Y0017981D01*
X0085609Y0017966D01*
X0085757Y0017947D01*
X0085905Y0017924D01*
X0086052Y0017897D01*
X0086198Y0017867D01*
X0086343Y0017832D01*
X0086488Y0017793D01*
X0086631Y0017751D01*
X0086773Y0017705D01*
X0086914Y0017655D01*
X0087054Y0017601D01*
X0087192Y0017544D01*
X0087328Y0017483D01*
X0087463Y0017418D01*
X0087596Y0017350D01*
X0087727Y0017278D01*
X0087856Y0017202D01*
X0087983Y0017124D01*
X0088108Y0017042D01*
X0088230Y0016956D01*
X0088351Y0016868D01*
X0088469Y0016776D01*
X0088584Y0016681D01*
X0088697Y0016583D01*
X0088807Y0016482D01*
X0088914Y0016378D01*
X0089019Y0016271D01*
X0089121Y0016162D01*
X0089220Y0016050D01*
X0089315Y0015935D01*
X0089408Y0015817D01*
X0089497Y0015698D01*
X0089584Y0015576D01*
X0089667Y0015451D01*
X0089746Y0015325D01*
X0089822Y0015196D01*
X0089895Y0015066D01*
X0089964Y0014933D01*
X0090030Y0014799D01*
X0090092Y0014663D01*
X0090150Y0014525D01*
X0090205Y0014386D01*
X0090256Y0014246D01*
X0090303Y0014104D01*
X0090346Y0013961D01*
X0090386Y0013817D01*
X0090421Y0013671D01*
X0090453Y0013525D01*
X0090481Y0013379D01*
X0090505Y0013231D01*
X0090525Y0013083D01*
X0090541Y0012934D01*
X0090553Y0012785D01*
X0090561Y0012636D01*
X0090565Y0012487D01*
X0090565Y0012337D01*
X0090561Y0012188D01*
X0090553Y0012039D01*
X0090541Y0011890D01*
X0090525Y0011741D01*
X0090505Y0011593D01*
X0090481Y0011445D01*
X0090453Y0011299D01*
X0090421Y0011153D01*
X0090386Y0011007D01*
X0090346Y0010863D01*
X0090303Y0010720D01*
X0090256Y0010578D01*
X0090205Y0010438D01*
X0090150Y0010299D01*
X0090092Y0010161D01*
X0090030Y0010025D01*
X0089964Y0009891D01*
X0089895Y0009758D01*
X0089822Y0009628D01*
X0089746Y0009499D01*
X0089667Y0009373D01*
X0089584Y0009248D01*
X0089497Y0009126D01*
X0089408Y0009007D01*
X0089315Y0008889D01*
X0089220Y0008774D01*
X0089121Y0008662D01*
X0089019Y0008553D01*
X0088914Y0008446D01*
X0088807Y0008342D01*
X0088697Y0008241D01*
X0088584Y0008143D01*
X0088469Y0008048D01*
X0088351Y0007956D01*
X0088230Y0007868D01*
X0088108Y0007782D01*
X0087983Y0007700D01*
X0087856Y0007622D01*
X0087727Y0007546D01*
X0087596Y0007474D01*
X0087463Y0007406D01*
X0087328Y0007341D01*
X0087192Y0007280D01*
X0087054Y0007223D01*
X0086914Y0007169D01*
X0086773Y0007119D01*
X0086631Y0007073D01*
X0086488Y0007031D01*
X0086343Y0006992D01*
X0086198Y0006957D01*
X0086052Y0006927D01*
X0085905Y0006900D01*
X0085757Y0006877D01*
X0085609Y0006858D01*
X0085460Y0006843D01*
X0085311Y0006832D01*
X0085162Y0006825D01*
X0085012Y0006822D01*
X0084863Y0006823D01*
X0084714Y0006828D01*
X0084564Y0006837D01*
X0084415Y0006850D01*
X0084267Y0006867D01*
X0084119Y0006888D01*
X0083972Y0006913D01*
X0083825Y0006942D01*
X0083679Y0006974D01*
X0083534Y0007011D01*
X0083390Y0007051D01*
X0083248Y0007096D01*
X0083106Y0007144D01*
X0082966Y0007196D01*
X0082827Y0007251D01*
X0082690Y0007310D01*
X0082554Y0007373D01*
X0082421Y0007440D01*
X0082289Y0007510D01*
X0082158Y0007583D01*
X0082030Y0007660D01*
X0081904Y0007741D01*
X0081781Y0007825D01*
X0081659Y0007912D01*
X0081540Y0008002D01*
X0081423Y0008095D01*
X0081309Y0008192D01*
X0081198Y0008291D01*
X0081089Y0008394D01*
X0080983Y0008499D01*
X0080880Y0008607D01*
X0080779Y0008718D01*
X0080682Y0008832D01*
X0080588Y0008948D01*
X0080497Y0009066D01*
X0080409Y0009187D01*
X0080324Y0009310D01*
X0080243Y0009436D01*
X0080165Y0009563D01*
X0080091Y0009693D01*
X0080020Y0009824D01*
X0079953Y0009958D01*
X0079889Y0010093D01*
X0079829Y0010230D01*
X0079772Y0010368D01*
X0079719Y0010508D01*
X0079670Y0010649D01*
X0079625Y0010792D01*
X0079584Y0010935D01*
X0079546Y0011080D01*
X0079512Y0011225D01*
X0079483Y0011372D01*
X0079457Y0011519D01*
X0079435Y0011667D01*
X0079417Y0011815D01*
X0079403Y0011964D01*
X0079393Y0012113D01*
X0079387Y0012263D01*
X0079385Y0012412D01*
X0087475Y0032412D02*
X0092475Y0032412D01*
X0093475Y0032412D02*
X0098475Y0032412D01*
X0095385Y0012412D02*
X0095387Y0012561D01*
X0095393Y0012711D01*
X0095403Y0012860D01*
X0095417Y0013009D01*
X0095435Y0013157D01*
X0095457Y0013305D01*
X0095483Y0013452D01*
X0095512Y0013599D01*
X0095546Y0013744D01*
X0095584Y0013889D01*
X0095625Y0014032D01*
X0095670Y0014175D01*
X0095719Y0014316D01*
X0095772Y0014456D01*
X0095829Y0014594D01*
X0095889Y0014731D01*
X0095953Y0014866D01*
X0096020Y0015000D01*
X0096091Y0015131D01*
X0096165Y0015261D01*
X0096243Y0015388D01*
X0096324Y0015514D01*
X0096409Y0015637D01*
X0096497Y0015758D01*
X0096588Y0015876D01*
X0096682Y0015992D01*
X0096779Y0016106D01*
X0096880Y0016217D01*
X0096983Y0016325D01*
X0097089Y0016430D01*
X0097198Y0016533D01*
X0097309Y0016632D01*
X0097423Y0016729D01*
X0097540Y0016822D01*
X0097659Y0016912D01*
X0097781Y0016999D01*
X0097904Y0017083D01*
X0098030Y0017164D01*
X0098158Y0017241D01*
X0098289Y0017314D01*
X0098421Y0017384D01*
X0098554Y0017451D01*
X0098690Y0017514D01*
X0098827Y0017573D01*
X0098966Y0017628D01*
X0099106Y0017680D01*
X0099248Y0017728D01*
X0099390Y0017773D01*
X0099534Y0017813D01*
X0099679Y0017850D01*
X0099825Y0017882D01*
X0099972Y0017911D01*
X0100119Y0017936D01*
X0100267Y0017957D01*
X0100415Y0017974D01*
X0100564Y0017987D01*
X0100714Y0017996D01*
X0100863Y0018001D01*
X0101012Y0018002D01*
X0101162Y0017999D01*
X0101311Y0017992D01*
X0101460Y0017981D01*
X0101609Y0017966D01*
X0101757Y0017947D01*
X0101905Y0017924D01*
X0102052Y0017897D01*
X0102198Y0017867D01*
X0102343Y0017832D01*
X0102488Y0017793D01*
X0102631Y0017751D01*
X0102773Y0017705D01*
X0102914Y0017655D01*
X0103054Y0017601D01*
X0103192Y0017544D01*
X0103328Y0017483D01*
X0103463Y0017418D01*
X0103596Y0017350D01*
X0103727Y0017278D01*
X0103856Y0017202D01*
X0103983Y0017124D01*
X0104108Y0017042D01*
X0104230Y0016956D01*
X0104351Y0016868D01*
X0104469Y0016776D01*
X0104584Y0016681D01*
X0104697Y0016583D01*
X0104807Y0016482D01*
X0104914Y0016378D01*
X0105019Y0016271D01*
X0105121Y0016162D01*
X0105220Y0016050D01*
X0105315Y0015935D01*
X0105408Y0015817D01*
X0105497Y0015698D01*
X0105584Y0015576D01*
X0105667Y0015451D01*
X0105746Y0015325D01*
X0105822Y0015196D01*
X0105895Y0015066D01*
X0105964Y0014933D01*
X0106030Y0014799D01*
X0106092Y0014663D01*
X0106150Y0014525D01*
X0106205Y0014386D01*
X0106256Y0014246D01*
X0106303Y0014104D01*
X0106346Y0013961D01*
X0106386Y0013817D01*
X0106421Y0013671D01*
X0106453Y0013525D01*
X0106481Y0013379D01*
X0106505Y0013231D01*
X0106525Y0013083D01*
X0106541Y0012934D01*
X0106553Y0012785D01*
X0106561Y0012636D01*
X0106565Y0012487D01*
X0106565Y0012337D01*
X0106561Y0012188D01*
X0106553Y0012039D01*
X0106541Y0011890D01*
X0106525Y0011741D01*
X0106505Y0011593D01*
X0106481Y0011445D01*
X0106453Y0011299D01*
X0106421Y0011153D01*
X0106386Y0011007D01*
X0106346Y0010863D01*
X0106303Y0010720D01*
X0106256Y0010578D01*
X0106205Y0010438D01*
X0106150Y0010299D01*
X0106092Y0010161D01*
X0106030Y0010025D01*
X0105964Y0009891D01*
X0105895Y0009758D01*
X0105822Y0009628D01*
X0105746Y0009499D01*
X0105667Y0009373D01*
X0105584Y0009248D01*
X0105497Y0009126D01*
X0105408Y0009007D01*
X0105315Y0008889D01*
X0105220Y0008774D01*
X0105121Y0008662D01*
X0105019Y0008553D01*
X0104914Y0008446D01*
X0104807Y0008342D01*
X0104697Y0008241D01*
X0104584Y0008143D01*
X0104469Y0008048D01*
X0104351Y0007956D01*
X0104230Y0007868D01*
X0104108Y0007782D01*
X0103983Y0007700D01*
X0103856Y0007622D01*
X0103727Y0007546D01*
X0103596Y0007474D01*
X0103463Y0007406D01*
X0103328Y0007341D01*
X0103192Y0007280D01*
X0103054Y0007223D01*
X0102914Y0007169D01*
X0102773Y0007119D01*
X0102631Y0007073D01*
X0102488Y0007031D01*
X0102343Y0006992D01*
X0102198Y0006957D01*
X0102052Y0006927D01*
X0101905Y0006900D01*
X0101757Y0006877D01*
X0101609Y0006858D01*
X0101460Y0006843D01*
X0101311Y0006832D01*
X0101162Y0006825D01*
X0101012Y0006822D01*
X0100863Y0006823D01*
X0100714Y0006828D01*
X0100564Y0006837D01*
X0100415Y0006850D01*
X0100267Y0006867D01*
X0100119Y0006888D01*
X0099972Y0006913D01*
X0099825Y0006942D01*
X0099679Y0006974D01*
X0099534Y0007011D01*
X0099390Y0007051D01*
X0099248Y0007096D01*
X0099106Y0007144D01*
X0098966Y0007196D01*
X0098827Y0007251D01*
X0098690Y0007310D01*
X0098554Y0007373D01*
X0098421Y0007440D01*
X0098289Y0007510D01*
X0098158Y0007583D01*
X0098030Y0007660D01*
X0097904Y0007741D01*
X0097781Y0007825D01*
X0097659Y0007912D01*
X0097540Y0008002D01*
X0097423Y0008095D01*
X0097309Y0008192D01*
X0097198Y0008291D01*
X0097089Y0008394D01*
X0096983Y0008499D01*
X0096880Y0008607D01*
X0096779Y0008718D01*
X0096682Y0008832D01*
X0096588Y0008948D01*
X0096497Y0009066D01*
X0096409Y0009187D01*
X0096324Y0009310D01*
X0096243Y0009436D01*
X0096165Y0009563D01*
X0096091Y0009693D01*
X0096020Y0009824D01*
X0095953Y0009958D01*
X0095889Y0010093D01*
X0095829Y0010230D01*
X0095772Y0010368D01*
X0095719Y0010508D01*
X0095670Y0010649D01*
X0095625Y0010792D01*
X0095584Y0010935D01*
X0095546Y0011080D01*
X0095512Y0011225D01*
X0095483Y0011372D01*
X0095457Y0011519D01*
X0095435Y0011667D01*
X0095417Y0011815D01*
X0095403Y0011964D01*
X0095393Y0012113D01*
X0095387Y0012263D01*
X0095385Y0012412D01*
X0153475Y0087412D02*
X0153475Y0092412D01*
X0153475Y0093412D02*
X0153475Y0098412D01*
X0167885Y0100912D02*
X0167887Y0101061D01*
X0167893Y0101211D01*
X0167903Y0101360D01*
X0167917Y0101509D01*
X0167935Y0101657D01*
X0167957Y0101805D01*
X0167983Y0101952D01*
X0168012Y0102099D01*
X0168046Y0102244D01*
X0168084Y0102389D01*
X0168125Y0102532D01*
X0168170Y0102675D01*
X0168219Y0102816D01*
X0168272Y0102956D01*
X0168329Y0103094D01*
X0168389Y0103231D01*
X0168453Y0103366D01*
X0168520Y0103500D01*
X0168591Y0103631D01*
X0168665Y0103761D01*
X0168743Y0103888D01*
X0168824Y0104014D01*
X0168909Y0104137D01*
X0168997Y0104258D01*
X0169088Y0104376D01*
X0169182Y0104492D01*
X0169279Y0104606D01*
X0169380Y0104717D01*
X0169483Y0104825D01*
X0169589Y0104930D01*
X0169698Y0105033D01*
X0169809Y0105132D01*
X0169923Y0105229D01*
X0170040Y0105322D01*
X0170159Y0105412D01*
X0170281Y0105499D01*
X0170404Y0105583D01*
X0170530Y0105664D01*
X0170658Y0105741D01*
X0170789Y0105814D01*
X0170921Y0105884D01*
X0171054Y0105951D01*
X0171190Y0106014D01*
X0171327Y0106073D01*
X0171466Y0106128D01*
X0171606Y0106180D01*
X0171748Y0106228D01*
X0171890Y0106273D01*
X0172034Y0106313D01*
X0172179Y0106350D01*
X0172325Y0106382D01*
X0172472Y0106411D01*
X0172619Y0106436D01*
X0172767Y0106457D01*
X0172915Y0106474D01*
X0173064Y0106487D01*
X0173214Y0106496D01*
X0173363Y0106501D01*
X0173512Y0106502D01*
X0173662Y0106499D01*
X0173811Y0106492D01*
X0173960Y0106481D01*
X0174109Y0106466D01*
X0174257Y0106447D01*
X0174405Y0106424D01*
X0174552Y0106397D01*
X0174698Y0106367D01*
X0174843Y0106332D01*
X0174988Y0106293D01*
X0175131Y0106251D01*
X0175273Y0106205D01*
X0175414Y0106155D01*
X0175554Y0106101D01*
X0175692Y0106044D01*
X0175828Y0105983D01*
X0175963Y0105918D01*
X0176096Y0105850D01*
X0176227Y0105778D01*
X0176356Y0105702D01*
X0176483Y0105624D01*
X0176608Y0105542D01*
X0176730Y0105456D01*
X0176851Y0105368D01*
X0176969Y0105276D01*
X0177084Y0105181D01*
X0177197Y0105083D01*
X0177307Y0104982D01*
X0177414Y0104878D01*
X0177519Y0104771D01*
X0177621Y0104662D01*
X0177720Y0104550D01*
X0177815Y0104435D01*
X0177908Y0104317D01*
X0177997Y0104198D01*
X0178084Y0104076D01*
X0178167Y0103951D01*
X0178246Y0103825D01*
X0178322Y0103696D01*
X0178395Y0103566D01*
X0178464Y0103433D01*
X0178530Y0103299D01*
X0178592Y0103163D01*
X0178650Y0103025D01*
X0178705Y0102886D01*
X0178756Y0102746D01*
X0178803Y0102604D01*
X0178846Y0102461D01*
X0178886Y0102317D01*
X0178921Y0102171D01*
X0178953Y0102025D01*
X0178981Y0101879D01*
X0179005Y0101731D01*
X0179025Y0101583D01*
X0179041Y0101434D01*
X0179053Y0101285D01*
X0179061Y0101136D01*
X0179065Y0100987D01*
X0179065Y0100837D01*
X0179061Y0100688D01*
X0179053Y0100539D01*
X0179041Y0100390D01*
X0179025Y0100241D01*
X0179005Y0100093D01*
X0178981Y0099945D01*
X0178953Y0099799D01*
X0178921Y0099653D01*
X0178886Y0099507D01*
X0178846Y0099363D01*
X0178803Y0099220D01*
X0178756Y0099078D01*
X0178705Y0098938D01*
X0178650Y0098799D01*
X0178592Y0098661D01*
X0178530Y0098525D01*
X0178464Y0098391D01*
X0178395Y0098258D01*
X0178322Y0098128D01*
X0178246Y0097999D01*
X0178167Y0097873D01*
X0178084Y0097748D01*
X0177997Y0097626D01*
X0177908Y0097507D01*
X0177815Y0097389D01*
X0177720Y0097274D01*
X0177621Y0097162D01*
X0177519Y0097053D01*
X0177414Y0096946D01*
X0177307Y0096842D01*
X0177197Y0096741D01*
X0177084Y0096643D01*
X0176969Y0096548D01*
X0176851Y0096456D01*
X0176730Y0096368D01*
X0176608Y0096282D01*
X0176483Y0096200D01*
X0176356Y0096122D01*
X0176227Y0096046D01*
X0176096Y0095974D01*
X0175963Y0095906D01*
X0175828Y0095841D01*
X0175692Y0095780D01*
X0175554Y0095723D01*
X0175414Y0095669D01*
X0175273Y0095619D01*
X0175131Y0095573D01*
X0174988Y0095531D01*
X0174843Y0095492D01*
X0174698Y0095457D01*
X0174552Y0095427D01*
X0174405Y0095400D01*
X0174257Y0095377D01*
X0174109Y0095358D01*
X0173960Y0095343D01*
X0173811Y0095332D01*
X0173662Y0095325D01*
X0173512Y0095322D01*
X0173363Y0095323D01*
X0173214Y0095328D01*
X0173064Y0095337D01*
X0172915Y0095350D01*
X0172767Y0095367D01*
X0172619Y0095388D01*
X0172472Y0095413D01*
X0172325Y0095442D01*
X0172179Y0095474D01*
X0172034Y0095511D01*
X0171890Y0095551D01*
X0171748Y0095596D01*
X0171606Y0095644D01*
X0171466Y0095696D01*
X0171327Y0095751D01*
X0171190Y0095810D01*
X0171054Y0095873D01*
X0170921Y0095940D01*
X0170789Y0096010D01*
X0170658Y0096083D01*
X0170530Y0096160D01*
X0170404Y0096241D01*
X0170281Y0096325D01*
X0170159Y0096412D01*
X0170040Y0096502D01*
X0169923Y0096595D01*
X0169809Y0096692D01*
X0169698Y0096791D01*
X0169589Y0096894D01*
X0169483Y0096999D01*
X0169380Y0097107D01*
X0169279Y0097218D01*
X0169182Y0097332D01*
X0169088Y0097448D01*
X0168997Y0097566D01*
X0168909Y0097687D01*
X0168824Y0097810D01*
X0168743Y0097936D01*
X0168665Y0098063D01*
X0168591Y0098193D01*
X0168520Y0098324D01*
X0168453Y0098458D01*
X0168389Y0098593D01*
X0168329Y0098730D01*
X0168272Y0098868D01*
X0168219Y0099008D01*
X0168170Y0099149D01*
X0168125Y0099292D01*
X0168084Y0099435D01*
X0168046Y0099580D01*
X0168012Y0099725D01*
X0167983Y0099872D01*
X0167957Y0100019D01*
X0167935Y0100167D01*
X0167917Y0100315D01*
X0167903Y0100464D01*
X0167893Y0100613D01*
X0167887Y0100763D01*
X0167885Y0100912D01*
X0167885Y0084912D02*
X0167887Y0085061D01*
X0167893Y0085211D01*
X0167903Y0085360D01*
X0167917Y0085509D01*
X0167935Y0085657D01*
X0167957Y0085805D01*
X0167983Y0085952D01*
X0168012Y0086099D01*
X0168046Y0086244D01*
X0168084Y0086389D01*
X0168125Y0086532D01*
X0168170Y0086675D01*
X0168219Y0086816D01*
X0168272Y0086956D01*
X0168329Y0087094D01*
X0168389Y0087231D01*
X0168453Y0087366D01*
X0168520Y0087500D01*
X0168591Y0087631D01*
X0168665Y0087761D01*
X0168743Y0087888D01*
X0168824Y0088014D01*
X0168909Y0088137D01*
X0168997Y0088258D01*
X0169088Y0088376D01*
X0169182Y0088492D01*
X0169279Y0088606D01*
X0169380Y0088717D01*
X0169483Y0088825D01*
X0169589Y0088930D01*
X0169698Y0089033D01*
X0169809Y0089132D01*
X0169923Y0089229D01*
X0170040Y0089322D01*
X0170159Y0089412D01*
X0170281Y0089499D01*
X0170404Y0089583D01*
X0170530Y0089664D01*
X0170658Y0089741D01*
X0170789Y0089814D01*
X0170921Y0089884D01*
X0171054Y0089951D01*
X0171190Y0090014D01*
X0171327Y0090073D01*
X0171466Y0090128D01*
X0171606Y0090180D01*
X0171748Y0090228D01*
X0171890Y0090273D01*
X0172034Y0090313D01*
X0172179Y0090350D01*
X0172325Y0090382D01*
X0172472Y0090411D01*
X0172619Y0090436D01*
X0172767Y0090457D01*
X0172915Y0090474D01*
X0173064Y0090487D01*
X0173214Y0090496D01*
X0173363Y0090501D01*
X0173512Y0090502D01*
X0173662Y0090499D01*
X0173811Y0090492D01*
X0173960Y0090481D01*
X0174109Y0090466D01*
X0174257Y0090447D01*
X0174405Y0090424D01*
X0174552Y0090397D01*
X0174698Y0090367D01*
X0174843Y0090332D01*
X0174988Y0090293D01*
X0175131Y0090251D01*
X0175273Y0090205D01*
X0175414Y0090155D01*
X0175554Y0090101D01*
X0175692Y0090044D01*
X0175828Y0089983D01*
X0175963Y0089918D01*
X0176096Y0089850D01*
X0176227Y0089778D01*
X0176356Y0089702D01*
X0176483Y0089624D01*
X0176608Y0089542D01*
X0176730Y0089456D01*
X0176851Y0089368D01*
X0176969Y0089276D01*
X0177084Y0089181D01*
X0177197Y0089083D01*
X0177307Y0088982D01*
X0177414Y0088878D01*
X0177519Y0088771D01*
X0177621Y0088662D01*
X0177720Y0088550D01*
X0177815Y0088435D01*
X0177908Y0088317D01*
X0177997Y0088198D01*
X0178084Y0088076D01*
X0178167Y0087951D01*
X0178246Y0087825D01*
X0178322Y0087696D01*
X0178395Y0087566D01*
X0178464Y0087433D01*
X0178530Y0087299D01*
X0178592Y0087163D01*
X0178650Y0087025D01*
X0178705Y0086886D01*
X0178756Y0086746D01*
X0178803Y0086604D01*
X0178846Y0086461D01*
X0178886Y0086317D01*
X0178921Y0086171D01*
X0178953Y0086025D01*
X0178981Y0085879D01*
X0179005Y0085731D01*
X0179025Y0085583D01*
X0179041Y0085434D01*
X0179053Y0085285D01*
X0179061Y0085136D01*
X0179065Y0084987D01*
X0179065Y0084837D01*
X0179061Y0084688D01*
X0179053Y0084539D01*
X0179041Y0084390D01*
X0179025Y0084241D01*
X0179005Y0084093D01*
X0178981Y0083945D01*
X0178953Y0083799D01*
X0178921Y0083653D01*
X0178886Y0083507D01*
X0178846Y0083363D01*
X0178803Y0083220D01*
X0178756Y0083078D01*
X0178705Y0082938D01*
X0178650Y0082799D01*
X0178592Y0082661D01*
X0178530Y0082525D01*
X0178464Y0082391D01*
X0178395Y0082258D01*
X0178322Y0082128D01*
X0178246Y0081999D01*
X0178167Y0081873D01*
X0178084Y0081748D01*
X0177997Y0081626D01*
X0177908Y0081507D01*
X0177815Y0081389D01*
X0177720Y0081274D01*
X0177621Y0081162D01*
X0177519Y0081053D01*
X0177414Y0080946D01*
X0177307Y0080842D01*
X0177197Y0080741D01*
X0177084Y0080643D01*
X0176969Y0080548D01*
X0176851Y0080456D01*
X0176730Y0080368D01*
X0176608Y0080282D01*
X0176483Y0080200D01*
X0176356Y0080122D01*
X0176227Y0080046D01*
X0176096Y0079974D01*
X0175963Y0079906D01*
X0175828Y0079841D01*
X0175692Y0079780D01*
X0175554Y0079723D01*
X0175414Y0079669D01*
X0175273Y0079619D01*
X0175131Y0079573D01*
X0174988Y0079531D01*
X0174843Y0079492D01*
X0174698Y0079457D01*
X0174552Y0079427D01*
X0174405Y0079400D01*
X0174257Y0079377D01*
X0174109Y0079358D01*
X0173960Y0079343D01*
X0173811Y0079332D01*
X0173662Y0079325D01*
X0173512Y0079322D01*
X0173363Y0079323D01*
X0173214Y0079328D01*
X0173064Y0079337D01*
X0172915Y0079350D01*
X0172767Y0079367D01*
X0172619Y0079388D01*
X0172472Y0079413D01*
X0172325Y0079442D01*
X0172179Y0079474D01*
X0172034Y0079511D01*
X0171890Y0079551D01*
X0171748Y0079596D01*
X0171606Y0079644D01*
X0171466Y0079696D01*
X0171327Y0079751D01*
X0171190Y0079810D01*
X0171054Y0079873D01*
X0170921Y0079940D01*
X0170789Y0080010D01*
X0170658Y0080083D01*
X0170530Y0080160D01*
X0170404Y0080241D01*
X0170281Y0080325D01*
X0170159Y0080412D01*
X0170040Y0080502D01*
X0169923Y0080595D01*
X0169809Y0080692D01*
X0169698Y0080791D01*
X0169589Y0080894D01*
X0169483Y0080999D01*
X0169380Y0081107D01*
X0169279Y0081218D01*
X0169182Y0081332D01*
X0169088Y0081448D01*
X0168997Y0081566D01*
X0168909Y0081687D01*
X0168824Y0081810D01*
X0168743Y0081936D01*
X0168665Y0082063D01*
X0168591Y0082193D01*
X0168520Y0082324D01*
X0168453Y0082458D01*
X0168389Y0082593D01*
X0168329Y0082730D01*
X0168272Y0082868D01*
X0168219Y0083008D01*
X0168170Y0083149D01*
X0168125Y0083292D01*
X0168084Y0083435D01*
X0168046Y0083580D01*
X0168012Y0083725D01*
X0167983Y0083872D01*
X0167957Y0084019D01*
X0167935Y0084167D01*
X0167917Y0084315D01*
X0167903Y0084464D01*
X0167893Y0084613D01*
X0167887Y0084763D01*
X0167885Y0084912D01*
X0098475Y0153412D02*
X0093475Y0153412D01*
X0092475Y0153412D02*
X0087475Y0153412D01*
X0079385Y0173412D02*
X0079387Y0173561D01*
X0079393Y0173711D01*
X0079403Y0173860D01*
X0079417Y0174009D01*
X0079435Y0174157D01*
X0079457Y0174305D01*
X0079483Y0174452D01*
X0079512Y0174599D01*
X0079546Y0174744D01*
X0079584Y0174889D01*
X0079625Y0175032D01*
X0079670Y0175175D01*
X0079719Y0175316D01*
X0079772Y0175456D01*
X0079829Y0175594D01*
X0079889Y0175731D01*
X0079953Y0175866D01*
X0080020Y0176000D01*
X0080091Y0176131D01*
X0080165Y0176261D01*
X0080243Y0176388D01*
X0080324Y0176514D01*
X0080409Y0176637D01*
X0080497Y0176758D01*
X0080588Y0176876D01*
X0080682Y0176992D01*
X0080779Y0177106D01*
X0080880Y0177217D01*
X0080983Y0177325D01*
X0081089Y0177430D01*
X0081198Y0177533D01*
X0081309Y0177632D01*
X0081423Y0177729D01*
X0081540Y0177822D01*
X0081659Y0177912D01*
X0081781Y0177999D01*
X0081904Y0178083D01*
X0082030Y0178164D01*
X0082158Y0178241D01*
X0082289Y0178314D01*
X0082421Y0178384D01*
X0082554Y0178451D01*
X0082690Y0178514D01*
X0082827Y0178573D01*
X0082966Y0178628D01*
X0083106Y0178680D01*
X0083248Y0178728D01*
X0083390Y0178773D01*
X0083534Y0178813D01*
X0083679Y0178850D01*
X0083825Y0178882D01*
X0083972Y0178911D01*
X0084119Y0178936D01*
X0084267Y0178957D01*
X0084415Y0178974D01*
X0084564Y0178987D01*
X0084714Y0178996D01*
X0084863Y0179001D01*
X0085012Y0179002D01*
X0085162Y0178999D01*
X0085311Y0178992D01*
X0085460Y0178981D01*
X0085609Y0178966D01*
X0085757Y0178947D01*
X0085905Y0178924D01*
X0086052Y0178897D01*
X0086198Y0178867D01*
X0086343Y0178832D01*
X0086488Y0178793D01*
X0086631Y0178751D01*
X0086773Y0178705D01*
X0086914Y0178655D01*
X0087054Y0178601D01*
X0087192Y0178544D01*
X0087328Y0178483D01*
X0087463Y0178418D01*
X0087596Y0178350D01*
X0087727Y0178278D01*
X0087856Y0178202D01*
X0087983Y0178124D01*
X0088108Y0178042D01*
X0088230Y0177956D01*
X0088351Y0177868D01*
X0088469Y0177776D01*
X0088584Y0177681D01*
X0088697Y0177583D01*
X0088807Y0177482D01*
X0088914Y0177378D01*
X0089019Y0177271D01*
X0089121Y0177162D01*
X0089220Y0177050D01*
X0089315Y0176935D01*
X0089408Y0176817D01*
X0089497Y0176698D01*
X0089584Y0176576D01*
X0089667Y0176451D01*
X0089746Y0176325D01*
X0089822Y0176196D01*
X0089895Y0176066D01*
X0089964Y0175933D01*
X0090030Y0175799D01*
X0090092Y0175663D01*
X0090150Y0175525D01*
X0090205Y0175386D01*
X0090256Y0175246D01*
X0090303Y0175104D01*
X0090346Y0174961D01*
X0090386Y0174817D01*
X0090421Y0174671D01*
X0090453Y0174525D01*
X0090481Y0174379D01*
X0090505Y0174231D01*
X0090525Y0174083D01*
X0090541Y0173934D01*
X0090553Y0173785D01*
X0090561Y0173636D01*
X0090565Y0173487D01*
X0090565Y0173337D01*
X0090561Y0173188D01*
X0090553Y0173039D01*
X0090541Y0172890D01*
X0090525Y0172741D01*
X0090505Y0172593D01*
X0090481Y0172445D01*
X0090453Y0172299D01*
X0090421Y0172153D01*
X0090386Y0172007D01*
X0090346Y0171863D01*
X0090303Y0171720D01*
X0090256Y0171578D01*
X0090205Y0171438D01*
X0090150Y0171299D01*
X0090092Y0171161D01*
X0090030Y0171025D01*
X0089964Y0170891D01*
X0089895Y0170758D01*
X0089822Y0170628D01*
X0089746Y0170499D01*
X0089667Y0170373D01*
X0089584Y0170248D01*
X0089497Y0170126D01*
X0089408Y0170007D01*
X0089315Y0169889D01*
X0089220Y0169774D01*
X0089121Y0169662D01*
X0089019Y0169553D01*
X0088914Y0169446D01*
X0088807Y0169342D01*
X0088697Y0169241D01*
X0088584Y0169143D01*
X0088469Y0169048D01*
X0088351Y0168956D01*
X0088230Y0168868D01*
X0088108Y0168782D01*
X0087983Y0168700D01*
X0087856Y0168622D01*
X0087727Y0168546D01*
X0087596Y0168474D01*
X0087463Y0168406D01*
X0087328Y0168341D01*
X0087192Y0168280D01*
X0087054Y0168223D01*
X0086914Y0168169D01*
X0086773Y0168119D01*
X0086631Y0168073D01*
X0086488Y0168031D01*
X0086343Y0167992D01*
X0086198Y0167957D01*
X0086052Y0167927D01*
X0085905Y0167900D01*
X0085757Y0167877D01*
X0085609Y0167858D01*
X0085460Y0167843D01*
X0085311Y0167832D01*
X0085162Y0167825D01*
X0085012Y0167822D01*
X0084863Y0167823D01*
X0084714Y0167828D01*
X0084564Y0167837D01*
X0084415Y0167850D01*
X0084267Y0167867D01*
X0084119Y0167888D01*
X0083972Y0167913D01*
X0083825Y0167942D01*
X0083679Y0167974D01*
X0083534Y0168011D01*
X0083390Y0168051D01*
X0083248Y0168096D01*
X0083106Y0168144D01*
X0082966Y0168196D01*
X0082827Y0168251D01*
X0082690Y0168310D01*
X0082554Y0168373D01*
X0082421Y0168440D01*
X0082289Y0168510D01*
X0082158Y0168583D01*
X0082030Y0168660D01*
X0081904Y0168741D01*
X0081781Y0168825D01*
X0081659Y0168912D01*
X0081540Y0169002D01*
X0081423Y0169095D01*
X0081309Y0169192D01*
X0081198Y0169291D01*
X0081089Y0169394D01*
X0080983Y0169499D01*
X0080880Y0169607D01*
X0080779Y0169718D01*
X0080682Y0169832D01*
X0080588Y0169948D01*
X0080497Y0170066D01*
X0080409Y0170187D01*
X0080324Y0170310D01*
X0080243Y0170436D01*
X0080165Y0170563D01*
X0080091Y0170693D01*
X0080020Y0170824D01*
X0079953Y0170958D01*
X0079889Y0171093D01*
X0079829Y0171230D01*
X0079772Y0171368D01*
X0079719Y0171508D01*
X0079670Y0171649D01*
X0079625Y0171792D01*
X0079584Y0171935D01*
X0079546Y0172080D01*
X0079512Y0172225D01*
X0079483Y0172372D01*
X0079457Y0172519D01*
X0079435Y0172667D01*
X0079417Y0172815D01*
X0079403Y0172964D01*
X0079393Y0173113D01*
X0079387Y0173263D01*
X0079385Y0173412D01*
X0095385Y0173412D02*
X0095387Y0173561D01*
X0095393Y0173711D01*
X0095403Y0173860D01*
X0095417Y0174009D01*
X0095435Y0174157D01*
X0095457Y0174305D01*
X0095483Y0174452D01*
X0095512Y0174599D01*
X0095546Y0174744D01*
X0095584Y0174889D01*
X0095625Y0175032D01*
X0095670Y0175175D01*
X0095719Y0175316D01*
X0095772Y0175456D01*
X0095829Y0175594D01*
X0095889Y0175731D01*
X0095953Y0175866D01*
X0096020Y0176000D01*
X0096091Y0176131D01*
X0096165Y0176261D01*
X0096243Y0176388D01*
X0096324Y0176514D01*
X0096409Y0176637D01*
X0096497Y0176758D01*
X0096588Y0176876D01*
X0096682Y0176992D01*
X0096779Y0177106D01*
X0096880Y0177217D01*
X0096983Y0177325D01*
X0097089Y0177430D01*
X0097198Y0177533D01*
X0097309Y0177632D01*
X0097423Y0177729D01*
X0097540Y0177822D01*
X0097659Y0177912D01*
X0097781Y0177999D01*
X0097904Y0178083D01*
X0098030Y0178164D01*
X0098158Y0178241D01*
X0098289Y0178314D01*
X0098421Y0178384D01*
X0098554Y0178451D01*
X0098690Y0178514D01*
X0098827Y0178573D01*
X0098966Y0178628D01*
X0099106Y0178680D01*
X0099248Y0178728D01*
X0099390Y0178773D01*
X0099534Y0178813D01*
X0099679Y0178850D01*
X0099825Y0178882D01*
X0099972Y0178911D01*
X0100119Y0178936D01*
X0100267Y0178957D01*
X0100415Y0178974D01*
X0100564Y0178987D01*
X0100714Y0178996D01*
X0100863Y0179001D01*
X0101012Y0179002D01*
X0101162Y0178999D01*
X0101311Y0178992D01*
X0101460Y0178981D01*
X0101609Y0178966D01*
X0101757Y0178947D01*
X0101905Y0178924D01*
X0102052Y0178897D01*
X0102198Y0178867D01*
X0102343Y0178832D01*
X0102488Y0178793D01*
X0102631Y0178751D01*
X0102773Y0178705D01*
X0102914Y0178655D01*
X0103054Y0178601D01*
X0103192Y0178544D01*
X0103328Y0178483D01*
X0103463Y0178418D01*
X0103596Y0178350D01*
X0103727Y0178278D01*
X0103856Y0178202D01*
X0103983Y0178124D01*
X0104108Y0178042D01*
X0104230Y0177956D01*
X0104351Y0177868D01*
X0104469Y0177776D01*
X0104584Y0177681D01*
X0104697Y0177583D01*
X0104807Y0177482D01*
X0104914Y0177378D01*
X0105019Y0177271D01*
X0105121Y0177162D01*
X0105220Y0177050D01*
X0105315Y0176935D01*
X0105408Y0176817D01*
X0105497Y0176698D01*
X0105584Y0176576D01*
X0105667Y0176451D01*
X0105746Y0176325D01*
X0105822Y0176196D01*
X0105895Y0176066D01*
X0105964Y0175933D01*
X0106030Y0175799D01*
X0106092Y0175663D01*
X0106150Y0175525D01*
X0106205Y0175386D01*
X0106256Y0175246D01*
X0106303Y0175104D01*
X0106346Y0174961D01*
X0106386Y0174817D01*
X0106421Y0174671D01*
X0106453Y0174525D01*
X0106481Y0174379D01*
X0106505Y0174231D01*
X0106525Y0174083D01*
X0106541Y0173934D01*
X0106553Y0173785D01*
X0106561Y0173636D01*
X0106565Y0173487D01*
X0106565Y0173337D01*
X0106561Y0173188D01*
X0106553Y0173039D01*
X0106541Y0172890D01*
X0106525Y0172741D01*
X0106505Y0172593D01*
X0106481Y0172445D01*
X0106453Y0172299D01*
X0106421Y0172153D01*
X0106386Y0172007D01*
X0106346Y0171863D01*
X0106303Y0171720D01*
X0106256Y0171578D01*
X0106205Y0171438D01*
X0106150Y0171299D01*
X0106092Y0171161D01*
X0106030Y0171025D01*
X0105964Y0170891D01*
X0105895Y0170758D01*
X0105822Y0170628D01*
X0105746Y0170499D01*
X0105667Y0170373D01*
X0105584Y0170248D01*
X0105497Y0170126D01*
X0105408Y0170007D01*
X0105315Y0169889D01*
X0105220Y0169774D01*
X0105121Y0169662D01*
X0105019Y0169553D01*
X0104914Y0169446D01*
X0104807Y0169342D01*
X0104697Y0169241D01*
X0104584Y0169143D01*
X0104469Y0169048D01*
X0104351Y0168956D01*
X0104230Y0168868D01*
X0104108Y0168782D01*
X0103983Y0168700D01*
X0103856Y0168622D01*
X0103727Y0168546D01*
X0103596Y0168474D01*
X0103463Y0168406D01*
X0103328Y0168341D01*
X0103192Y0168280D01*
X0103054Y0168223D01*
X0102914Y0168169D01*
X0102773Y0168119D01*
X0102631Y0168073D01*
X0102488Y0168031D01*
X0102343Y0167992D01*
X0102198Y0167957D01*
X0102052Y0167927D01*
X0101905Y0167900D01*
X0101757Y0167877D01*
X0101609Y0167858D01*
X0101460Y0167843D01*
X0101311Y0167832D01*
X0101162Y0167825D01*
X0101012Y0167822D01*
X0100863Y0167823D01*
X0100714Y0167828D01*
X0100564Y0167837D01*
X0100415Y0167850D01*
X0100267Y0167867D01*
X0100119Y0167888D01*
X0099972Y0167913D01*
X0099825Y0167942D01*
X0099679Y0167974D01*
X0099534Y0168011D01*
X0099390Y0168051D01*
X0099248Y0168096D01*
X0099106Y0168144D01*
X0098966Y0168196D01*
X0098827Y0168251D01*
X0098690Y0168310D01*
X0098554Y0168373D01*
X0098421Y0168440D01*
X0098289Y0168510D01*
X0098158Y0168583D01*
X0098030Y0168660D01*
X0097904Y0168741D01*
X0097781Y0168825D01*
X0097659Y0168912D01*
X0097540Y0169002D01*
X0097423Y0169095D01*
X0097309Y0169192D01*
X0097198Y0169291D01*
X0097089Y0169394D01*
X0096983Y0169499D01*
X0096880Y0169607D01*
X0096779Y0169718D01*
X0096682Y0169832D01*
X0096588Y0169948D01*
X0096497Y0170066D01*
X0096409Y0170187D01*
X0096324Y0170310D01*
X0096243Y0170436D01*
X0096165Y0170563D01*
X0096091Y0170693D01*
X0096020Y0170824D01*
X0095953Y0170958D01*
X0095889Y0171093D01*
X0095829Y0171230D01*
X0095772Y0171368D01*
X0095719Y0171508D01*
X0095670Y0171649D01*
X0095625Y0171792D01*
X0095584Y0171935D01*
X0095546Y0172080D01*
X0095512Y0172225D01*
X0095483Y0172372D01*
X0095457Y0172519D01*
X0095435Y0172667D01*
X0095417Y0172815D01*
X0095403Y0172964D01*
X0095393Y0173113D01*
X0095387Y0173263D01*
X0095385Y0173412D01*
M02*
