G75*
%MOIN*%
%OFA0B0*%
%FSLAX25Y25*%
%IPPOS*%
%LPD*%
%AMOC8*
5,1,8,0,0,1.08239X$1,22.5*
%
%ADD10C,0.00000*%
%ADD11C,0.01600*%
D10*
X0017840Y0042840D02*
X0017842Y0042966D01*
X0017848Y0043092D01*
X0017858Y0043218D01*
X0017872Y0043344D01*
X0017890Y0043469D01*
X0017912Y0043593D01*
X0017937Y0043717D01*
X0017967Y0043840D01*
X0018000Y0043961D01*
X0018038Y0044082D01*
X0018079Y0044201D01*
X0018124Y0044320D01*
X0018172Y0044436D01*
X0018224Y0044551D01*
X0018280Y0044664D01*
X0018340Y0044776D01*
X0018403Y0044885D01*
X0018469Y0044993D01*
X0018538Y0045098D01*
X0018611Y0045201D01*
X0018688Y0045302D01*
X0018767Y0045400D01*
X0018849Y0045496D01*
X0018935Y0045589D01*
X0019023Y0045680D01*
X0019114Y0045767D01*
X0019208Y0045852D01*
X0019304Y0045933D01*
X0019403Y0046012D01*
X0019504Y0046087D01*
X0019608Y0046159D01*
X0019714Y0046228D01*
X0019822Y0046294D01*
X0019932Y0046356D01*
X0020044Y0046414D01*
X0020157Y0046469D01*
X0020273Y0046520D01*
X0020390Y0046568D01*
X0020508Y0046612D01*
X0020628Y0046652D01*
X0020749Y0046688D01*
X0020871Y0046721D01*
X0020994Y0046750D01*
X0021118Y0046774D01*
X0021242Y0046795D01*
X0021367Y0046812D01*
X0021493Y0046825D01*
X0021619Y0046834D01*
X0021745Y0046839D01*
X0021872Y0046840D01*
X0021998Y0046837D01*
X0022124Y0046830D01*
X0022250Y0046819D01*
X0022375Y0046804D01*
X0022500Y0046785D01*
X0022624Y0046762D01*
X0022748Y0046736D01*
X0022870Y0046705D01*
X0022992Y0046671D01*
X0023112Y0046632D01*
X0023231Y0046590D01*
X0023349Y0046545D01*
X0023465Y0046495D01*
X0023580Y0046442D01*
X0023692Y0046385D01*
X0023803Y0046325D01*
X0023912Y0046261D01*
X0024019Y0046194D01*
X0024124Y0046124D01*
X0024227Y0046050D01*
X0024327Y0045973D01*
X0024425Y0045893D01*
X0024520Y0045810D01*
X0024612Y0045724D01*
X0024702Y0045635D01*
X0024789Y0045543D01*
X0024872Y0045449D01*
X0024953Y0045352D01*
X0025031Y0045252D01*
X0025106Y0045150D01*
X0025177Y0045046D01*
X0025245Y0044939D01*
X0025309Y0044831D01*
X0025370Y0044720D01*
X0025428Y0044608D01*
X0025482Y0044494D01*
X0025532Y0044378D01*
X0025579Y0044261D01*
X0025622Y0044142D01*
X0025661Y0044022D01*
X0025697Y0043901D01*
X0025728Y0043778D01*
X0025756Y0043655D01*
X0025780Y0043531D01*
X0025800Y0043406D01*
X0025816Y0043281D01*
X0025828Y0043155D01*
X0025836Y0043029D01*
X0025840Y0042903D01*
X0025840Y0042777D01*
X0025836Y0042651D01*
X0025828Y0042525D01*
X0025816Y0042399D01*
X0025800Y0042274D01*
X0025780Y0042149D01*
X0025756Y0042025D01*
X0025728Y0041902D01*
X0025697Y0041779D01*
X0025661Y0041658D01*
X0025622Y0041538D01*
X0025579Y0041419D01*
X0025532Y0041302D01*
X0025482Y0041186D01*
X0025428Y0041072D01*
X0025370Y0040960D01*
X0025309Y0040849D01*
X0025245Y0040741D01*
X0025177Y0040634D01*
X0025106Y0040530D01*
X0025031Y0040428D01*
X0024953Y0040328D01*
X0024872Y0040231D01*
X0024789Y0040137D01*
X0024702Y0040045D01*
X0024612Y0039956D01*
X0024520Y0039870D01*
X0024425Y0039787D01*
X0024327Y0039707D01*
X0024227Y0039630D01*
X0024124Y0039556D01*
X0024019Y0039486D01*
X0023912Y0039419D01*
X0023803Y0039355D01*
X0023692Y0039295D01*
X0023580Y0039238D01*
X0023465Y0039185D01*
X0023349Y0039135D01*
X0023231Y0039090D01*
X0023112Y0039048D01*
X0022992Y0039009D01*
X0022870Y0038975D01*
X0022748Y0038944D01*
X0022624Y0038918D01*
X0022500Y0038895D01*
X0022375Y0038876D01*
X0022250Y0038861D01*
X0022124Y0038850D01*
X0021998Y0038843D01*
X0021872Y0038840D01*
X0021745Y0038841D01*
X0021619Y0038846D01*
X0021493Y0038855D01*
X0021367Y0038868D01*
X0021242Y0038885D01*
X0021118Y0038906D01*
X0020994Y0038930D01*
X0020871Y0038959D01*
X0020749Y0038992D01*
X0020628Y0039028D01*
X0020508Y0039068D01*
X0020390Y0039112D01*
X0020273Y0039160D01*
X0020157Y0039211D01*
X0020044Y0039266D01*
X0019932Y0039324D01*
X0019822Y0039386D01*
X0019714Y0039452D01*
X0019608Y0039521D01*
X0019504Y0039593D01*
X0019403Y0039668D01*
X0019304Y0039747D01*
X0019208Y0039828D01*
X0019114Y0039913D01*
X0019023Y0040000D01*
X0018935Y0040091D01*
X0018849Y0040184D01*
X0018767Y0040280D01*
X0018688Y0040378D01*
X0018611Y0040479D01*
X0018538Y0040582D01*
X0018469Y0040687D01*
X0018403Y0040795D01*
X0018340Y0040904D01*
X0018280Y0041016D01*
X0018224Y0041129D01*
X0018172Y0041244D01*
X0018124Y0041360D01*
X0018079Y0041479D01*
X0018038Y0041598D01*
X0018000Y0041719D01*
X0017967Y0041840D01*
X0017937Y0041963D01*
X0017912Y0042087D01*
X0017890Y0042211D01*
X0017872Y0042336D01*
X0017858Y0042462D01*
X0017848Y0042588D01*
X0017842Y0042714D01*
X0017840Y0042840D01*
X0038840Y0021840D02*
X0038842Y0021966D01*
X0038848Y0022092D01*
X0038858Y0022218D01*
X0038872Y0022344D01*
X0038890Y0022469D01*
X0038912Y0022593D01*
X0038937Y0022717D01*
X0038967Y0022840D01*
X0039000Y0022961D01*
X0039038Y0023082D01*
X0039079Y0023201D01*
X0039124Y0023320D01*
X0039172Y0023436D01*
X0039224Y0023551D01*
X0039280Y0023664D01*
X0039340Y0023776D01*
X0039403Y0023885D01*
X0039469Y0023993D01*
X0039538Y0024098D01*
X0039611Y0024201D01*
X0039688Y0024302D01*
X0039767Y0024400D01*
X0039849Y0024496D01*
X0039935Y0024589D01*
X0040023Y0024680D01*
X0040114Y0024767D01*
X0040208Y0024852D01*
X0040304Y0024933D01*
X0040403Y0025012D01*
X0040504Y0025087D01*
X0040608Y0025159D01*
X0040714Y0025228D01*
X0040822Y0025294D01*
X0040932Y0025356D01*
X0041044Y0025414D01*
X0041157Y0025469D01*
X0041273Y0025520D01*
X0041390Y0025568D01*
X0041508Y0025612D01*
X0041628Y0025652D01*
X0041749Y0025688D01*
X0041871Y0025721D01*
X0041994Y0025750D01*
X0042118Y0025774D01*
X0042242Y0025795D01*
X0042367Y0025812D01*
X0042493Y0025825D01*
X0042619Y0025834D01*
X0042745Y0025839D01*
X0042872Y0025840D01*
X0042998Y0025837D01*
X0043124Y0025830D01*
X0043250Y0025819D01*
X0043375Y0025804D01*
X0043500Y0025785D01*
X0043624Y0025762D01*
X0043748Y0025736D01*
X0043870Y0025705D01*
X0043992Y0025671D01*
X0044112Y0025632D01*
X0044231Y0025590D01*
X0044349Y0025545D01*
X0044465Y0025495D01*
X0044580Y0025442D01*
X0044692Y0025385D01*
X0044803Y0025325D01*
X0044912Y0025261D01*
X0045019Y0025194D01*
X0045124Y0025124D01*
X0045227Y0025050D01*
X0045327Y0024973D01*
X0045425Y0024893D01*
X0045520Y0024810D01*
X0045612Y0024724D01*
X0045702Y0024635D01*
X0045789Y0024543D01*
X0045872Y0024449D01*
X0045953Y0024352D01*
X0046031Y0024252D01*
X0046106Y0024150D01*
X0046177Y0024046D01*
X0046245Y0023939D01*
X0046309Y0023831D01*
X0046370Y0023720D01*
X0046428Y0023608D01*
X0046482Y0023494D01*
X0046532Y0023378D01*
X0046579Y0023261D01*
X0046622Y0023142D01*
X0046661Y0023022D01*
X0046697Y0022901D01*
X0046728Y0022778D01*
X0046756Y0022655D01*
X0046780Y0022531D01*
X0046800Y0022406D01*
X0046816Y0022281D01*
X0046828Y0022155D01*
X0046836Y0022029D01*
X0046840Y0021903D01*
X0046840Y0021777D01*
X0046836Y0021651D01*
X0046828Y0021525D01*
X0046816Y0021399D01*
X0046800Y0021274D01*
X0046780Y0021149D01*
X0046756Y0021025D01*
X0046728Y0020902D01*
X0046697Y0020779D01*
X0046661Y0020658D01*
X0046622Y0020538D01*
X0046579Y0020419D01*
X0046532Y0020302D01*
X0046482Y0020186D01*
X0046428Y0020072D01*
X0046370Y0019960D01*
X0046309Y0019849D01*
X0046245Y0019741D01*
X0046177Y0019634D01*
X0046106Y0019530D01*
X0046031Y0019428D01*
X0045953Y0019328D01*
X0045872Y0019231D01*
X0045789Y0019137D01*
X0045702Y0019045D01*
X0045612Y0018956D01*
X0045520Y0018870D01*
X0045425Y0018787D01*
X0045327Y0018707D01*
X0045227Y0018630D01*
X0045124Y0018556D01*
X0045019Y0018486D01*
X0044912Y0018419D01*
X0044803Y0018355D01*
X0044692Y0018295D01*
X0044580Y0018238D01*
X0044465Y0018185D01*
X0044349Y0018135D01*
X0044231Y0018090D01*
X0044112Y0018048D01*
X0043992Y0018009D01*
X0043870Y0017975D01*
X0043748Y0017944D01*
X0043624Y0017918D01*
X0043500Y0017895D01*
X0043375Y0017876D01*
X0043250Y0017861D01*
X0043124Y0017850D01*
X0042998Y0017843D01*
X0042872Y0017840D01*
X0042745Y0017841D01*
X0042619Y0017846D01*
X0042493Y0017855D01*
X0042367Y0017868D01*
X0042242Y0017885D01*
X0042118Y0017906D01*
X0041994Y0017930D01*
X0041871Y0017959D01*
X0041749Y0017992D01*
X0041628Y0018028D01*
X0041508Y0018068D01*
X0041390Y0018112D01*
X0041273Y0018160D01*
X0041157Y0018211D01*
X0041044Y0018266D01*
X0040932Y0018324D01*
X0040822Y0018386D01*
X0040714Y0018452D01*
X0040608Y0018521D01*
X0040504Y0018593D01*
X0040403Y0018668D01*
X0040304Y0018747D01*
X0040208Y0018828D01*
X0040114Y0018913D01*
X0040023Y0019000D01*
X0039935Y0019091D01*
X0039849Y0019184D01*
X0039767Y0019280D01*
X0039688Y0019378D01*
X0039611Y0019479D01*
X0039538Y0019582D01*
X0039469Y0019687D01*
X0039403Y0019795D01*
X0039340Y0019904D01*
X0039280Y0020016D01*
X0039224Y0020129D01*
X0039172Y0020244D01*
X0039124Y0020360D01*
X0039079Y0020479D01*
X0039038Y0020598D01*
X0039000Y0020719D01*
X0038967Y0020840D01*
X0038937Y0020963D01*
X0038912Y0021087D01*
X0038890Y0021211D01*
X0038872Y0021336D01*
X0038858Y0021462D01*
X0038848Y0021588D01*
X0038842Y0021714D01*
X0038840Y0021840D01*
X0144840Y0027840D02*
X0144842Y0027966D01*
X0144848Y0028092D01*
X0144858Y0028218D01*
X0144872Y0028344D01*
X0144890Y0028469D01*
X0144912Y0028593D01*
X0144937Y0028717D01*
X0144967Y0028840D01*
X0145000Y0028961D01*
X0145038Y0029082D01*
X0145079Y0029201D01*
X0145124Y0029320D01*
X0145172Y0029436D01*
X0145224Y0029551D01*
X0145280Y0029664D01*
X0145340Y0029776D01*
X0145403Y0029885D01*
X0145469Y0029993D01*
X0145538Y0030098D01*
X0145611Y0030201D01*
X0145688Y0030302D01*
X0145767Y0030400D01*
X0145849Y0030496D01*
X0145935Y0030589D01*
X0146023Y0030680D01*
X0146114Y0030767D01*
X0146208Y0030852D01*
X0146304Y0030933D01*
X0146403Y0031012D01*
X0146504Y0031087D01*
X0146608Y0031159D01*
X0146714Y0031228D01*
X0146822Y0031294D01*
X0146932Y0031356D01*
X0147044Y0031414D01*
X0147157Y0031469D01*
X0147273Y0031520D01*
X0147390Y0031568D01*
X0147508Y0031612D01*
X0147628Y0031652D01*
X0147749Y0031688D01*
X0147871Y0031721D01*
X0147994Y0031750D01*
X0148118Y0031774D01*
X0148242Y0031795D01*
X0148367Y0031812D01*
X0148493Y0031825D01*
X0148619Y0031834D01*
X0148745Y0031839D01*
X0148872Y0031840D01*
X0148998Y0031837D01*
X0149124Y0031830D01*
X0149250Y0031819D01*
X0149375Y0031804D01*
X0149500Y0031785D01*
X0149624Y0031762D01*
X0149748Y0031736D01*
X0149870Y0031705D01*
X0149992Y0031671D01*
X0150112Y0031632D01*
X0150231Y0031590D01*
X0150349Y0031545D01*
X0150465Y0031495D01*
X0150580Y0031442D01*
X0150692Y0031385D01*
X0150803Y0031325D01*
X0150912Y0031261D01*
X0151019Y0031194D01*
X0151124Y0031124D01*
X0151227Y0031050D01*
X0151327Y0030973D01*
X0151425Y0030893D01*
X0151520Y0030810D01*
X0151612Y0030724D01*
X0151702Y0030635D01*
X0151789Y0030543D01*
X0151872Y0030449D01*
X0151953Y0030352D01*
X0152031Y0030252D01*
X0152106Y0030150D01*
X0152177Y0030046D01*
X0152245Y0029939D01*
X0152309Y0029831D01*
X0152370Y0029720D01*
X0152428Y0029608D01*
X0152482Y0029494D01*
X0152532Y0029378D01*
X0152579Y0029261D01*
X0152622Y0029142D01*
X0152661Y0029022D01*
X0152697Y0028901D01*
X0152728Y0028778D01*
X0152756Y0028655D01*
X0152780Y0028531D01*
X0152800Y0028406D01*
X0152816Y0028281D01*
X0152828Y0028155D01*
X0152836Y0028029D01*
X0152840Y0027903D01*
X0152840Y0027777D01*
X0152836Y0027651D01*
X0152828Y0027525D01*
X0152816Y0027399D01*
X0152800Y0027274D01*
X0152780Y0027149D01*
X0152756Y0027025D01*
X0152728Y0026902D01*
X0152697Y0026779D01*
X0152661Y0026658D01*
X0152622Y0026538D01*
X0152579Y0026419D01*
X0152532Y0026302D01*
X0152482Y0026186D01*
X0152428Y0026072D01*
X0152370Y0025960D01*
X0152309Y0025849D01*
X0152245Y0025741D01*
X0152177Y0025634D01*
X0152106Y0025530D01*
X0152031Y0025428D01*
X0151953Y0025328D01*
X0151872Y0025231D01*
X0151789Y0025137D01*
X0151702Y0025045D01*
X0151612Y0024956D01*
X0151520Y0024870D01*
X0151425Y0024787D01*
X0151327Y0024707D01*
X0151227Y0024630D01*
X0151124Y0024556D01*
X0151019Y0024486D01*
X0150912Y0024419D01*
X0150803Y0024355D01*
X0150692Y0024295D01*
X0150580Y0024238D01*
X0150465Y0024185D01*
X0150349Y0024135D01*
X0150231Y0024090D01*
X0150112Y0024048D01*
X0149992Y0024009D01*
X0149870Y0023975D01*
X0149748Y0023944D01*
X0149624Y0023918D01*
X0149500Y0023895D01*
X0149375Y0023876D01*
X0149250Y0023861D01*
X0149124Y0023850D01*
X0148998Y0023843D01*
X0148872Y0023840D01*
X0148745Y0023841D01*
X0148619Y0023846D01*
X0148493Y0023855D01*
X0148367Y0023868D01*
X0148242Y0023885D01*
X0148118Y0023906D01*
X0147994Y0023930D01*
X0147871Y0023959D01*
X0147749Y0023992D01*
X0147628Y0024028D01*
X0147508Y0024068D01*
X0147390Y0024112D01*
X0147273Y0024160D01*
X0147157Y0024211D01*
X0147044Y0024266D01*
X0146932Y0024324D01*
X0146822Y0024386D01*
X0146714Y0024452D01*
X0146608Y0024521D01*
X0146504Y0024593D01*
X0146403Y0024668D01*
X0146304Y0024747D01*
X0146208Y0024828D01*
X0146114Y0024913D01*
X0146023Y0025000D01*
X0145935Y0025091D01*
X0145849Y0025184D01*
X0145767Y0025280D01*
X0145688Y0025378D01*
X0145611Y0025479D01*
X0145538Y0025582D01*
X0145469Y0025687D01*
X0145403Y0025795D01*
X0145340Y0025904D01*
X0145280Y0026016D01*
X0145224Y0026129D01*
X0145172Y0026244D01*
X0145124Y0026360D01*
X0145079Y0026479D01*
X0145038Y0026598D01*
X0145000Y0026719D01*
X0144967Y0026840D01*
X0144937Y0026963D01*
X0144912Y0027087D01*
X0144890Y0027211D01*
X0144872Y0027336D01*
X0144858Y0027462D01*
X0144848Y0027588D01*
X0144842Y0027714D01*
X0144840Y0027840D01*
X0147840Y0144840D02*
X0147842Y0144966D01*
X0147848Y0145092D01*
X0147858Y0145218D01*
X0147872Y0145344D01*
X0147890Y0145469D01*
X0147912Y0145593D01*
X0147937Y0145717D01*
X0147967Y0145840D01*
X0148000Y0145961D01*
X0148038Y0146082D01*
X0148079Y0146201D01*
X0148124Y0146320D01*
X0148172Y0146436D01*
X0148224Y0146551D01*
X0148280Y0146664D01*
X0148340Y0146776D01*
X0148403Y0146885D01*
X0148469Y0146993D01*
X0148538Y0147098D01*
X0148611Y0147201D01*
X0148688Y0147302D01*
X0148767Y0147400D01*
X0148849Y0147496D01*
X0148935Y0147589D01*
X0149023Y0147680D01*
X0149114Y0147767D01*
X0149208Y0147852D01*
X0149304Y0147933D01*
X0149403Y0148012D01*
X0149504Y0148087D01*
X0149608Y0148159D01*
X0149714Y0148228D01*
X0149822Y0148294D01*
X0149932Y0148356D01*
X0150044Y0148414D01*
X0150157Y0148469D01*
X0150273Y0148520D01*
X0150390Y0148568D01*
X0150508Y0148612D01*
X0150628Y0148652D01*
X0150749Y0148688D01*
X0150871Y0148721D01*
X0150994Y0148750D01*
X0151118Y0148774D01*
X0151242Y0148795D01*
X0151367Y0148812D01*
X0151493Y0148825D01*
X0151619Y0148834D01*
X0151745Y0148839D01*
X0151872Y0148840D01*
X0151998Y0148837D01*
X0152124Y0148830D01*
X0152250Y0148819D01*
X0152375Y0148804D01*
X0152500Y0148785D01*
X0152624Y0148762D01*
X0152748Y0148736D01*
X0152870Y0148705D01*
X0152992Y0148671D01*
X0153112Y0148632D01*
X0153231Y0148590D01*
X0153349Y0148545D01*
X0153465Y0148495D01*
X0153580Y0148442D01*
X0153692Y0148385D01*
X0153803Y0148325D01*
X0153912Y0148261D01*
X0154019Y0148194D01*
X0154124Y0148124D01*
X0154227Y0148050D01*
X0154327Y0147973D01*
X0154425Y0147893D01*
X0154520Y0147810D01*
X0154612Y0147724D01*
X0154702Y0147635D01*
X0154789Y0147543D01*
X0154872Y0147449D01*
X0154953Y0147352D01*
X0155031Y0147252D01*
X0155106Y0147150D01*
X0155177Y0147046D01*
X0155245Y0146939D01*
X0155309Y0146831D01*
X0155370Y0146720D01*
X0155428Y0146608D01*
X0155482Y0146494D01*
X0155532Y0146378D01*
X0155579Y0146261D01*
X0155622Y0146142D01*
X0155661Y0146022D01*
X0155697Y0145901D01*
X0155728Y0145778D01*
X0155756Y0145655D01*
X0155780Y0145531D01*
X0155800Y0145406D01*
X0155816Y0145281D01*
X0155828Y0145155D01*
X0155836Y0145029D01*
X0155840Y0144903D01*
X0155840Y0144777D01*
X0155836Y0144651D01*
X0155828Y0144525D01*
X0155816Y0144399D01*
X0155800Y0144274D01*
X0155780Y0144149D01*
X0155756Y0144025D01*
X0155728Y0143902D01*
X0155697Y0143779D01*
X0155661Y0143658D01*
X0155622Y0143538D01*
X0155579Y0143419D01*
X0155532Y0143302D01*
X0155482Y0143186D01*
X0155428Y0143072D01*
X0155370Y0142960D01*
X0155309Y0142849D01*
X0155245Y0142741D01*
X0155177Y0142634D01*
X0155106Y0142530D01*
X0155031Y0142428D01*
X0154953Y0142328D01*
X0154872Y0142231D01*
X0154789Y0142137D01*
X0154702Y0142045D01*
X0154612Y0141956D01*
X0154520Y0141870D01*
X0154425Y0141787D01*
X0154327Y0141707D01*
X0154227Y0141630D01*
X0154124Y0141556D01*
X0154019Y0141486D01*
X0153912Y0141419D01*
X0153803Y0141355D01*
X0153692Y0141295D01*
X0153580Y0141238D01*
X0153465Y0141185D01*
X0153349Y0141135D01*
X0153231Y0141090D01*
X0153112Y0141048D01*
X0152992Y0141009D01*
X0152870Y0140975D01*
X0152748Y0140944D01*
X0152624Y0140918D01*
X0152500Y0140895D01*
X0152375Y0140876D01*
X0152250Y0140861D01*
X0152124Y0140850D01*
X0151998Y0140843D01*
X0151872Y0140840D01*
X0151745Y0140841D01*
X0151619Y0140846D01*
X0151493Y0140855D01*
X0151367Y0140868D01*
X0151242Y0140885D01*
X0151118Y0140906D01*
X0150994Y0140930D01*
X0150871Y0140959D01*
X0150749Y0140992D01*
X0150628Y0141028D01*
X0150508Y0141068D01*
X0150390Y0141112D01*
X0150273Y0141160D01*
X0150157Y0141211D01*
X0150044Y0141266D01*
X0149932Y0141324D01*
X0149822Y0141386D01*
X0149714Y0141452D01*
X0149608Y0141521D01*
X0149504Y0141593D01*
X0149403Y0141668D01*
X0149304Y0141747D01*
X0149208Y0141828D01*
X0149114Y0141913D01*
X0149023Y0142000D01*
X0148935Y0142091D01*
X0148849Y0142184D01*
X0148767Y0142280D01*
X0148688Y0142378D01*
X0148611Y0142479D01*
X0148538Y0142582D01*
X0148469Y0142687D01*
X0148403Y0142795D01*
X0148340Y0142904D01*
X0148280Y0143016D01*
X0148224Y0143129D01*
X0148172Y0143244D01*
X0148124Y0143360D01*
X0148079Y0143479D01*
X0148038Y0143598D01*
X0148000Y0143719D01*
X0147967Y0143840D01*
X0147937Y0143963D01*
X0147912Y0144087D01*
X0147890Y0144211D01*
X0147872Y0144336D01*
X0147858Y0144462D01*
X0147848Y0144588D01*
X0147842Y0144714D01*
X0147840Y0144840D01*
X0023840Y0148840D02*
X0023842Y0148966D01*
X0023848Y0149092D01*
X0023858Y0149218D01*
X0023872Y0149344D01*
X0023890Y0149469D01*
X0023912Y0149593D01*
X0023937Y0149717D01*
X0023967Y0149840D01*
X0024000Y0149961D01*
X0024038Y0150082D01*
X0024079Y0150201D01*
X0024124Y0150320D01*
X0024172Y0150436D01*
X0024224Y0150551D01*
X0024280Y0150664D01*
X0024340Y0150776D01*
X0024403Y0150885D01*
X0024469Y0150993D01*
X0024538Y0151098D01*
X0024611Y0151201D01*
X0024688Y0151302D01*
X0024767Y0151400D01*
X0024849Y0151496D01*
X0024935Y0151589D01*
X0025023Y0151680D01*
X0025114Y0151767D01*
X0025208Y0151852D01*
X0025304Y0151933D01*
X0025403Y0152012D01*
X0025504Y0152087D01*
X0025608Y0152159D01*
X0025714Y0152228D01*
X0025822Y0152294D01*
X0025932Y0152356D01*
X0026044Y0152414D01*
X0026157Y0152469D01*
X0026273Y0152520D01*
X0026390Y0152568D01*
X0026508Y0152612D01*
X0026628Y0152652D01*
X0026749Y0152688D01*
X0026871Y0152721D01*
X0026994Y0152750D01*
X0027118Y0152774D01*
X0027242Y0152795D01*
X0027367Y0152812D01*
X0027493Y0152825D01*
X0027619Y0152834D01*
X0027745Y0152839D01*
X0027872Y0152840D01*
X0027998Y0152837D01*
X0028124Y0152830D01*
X0028250Y0152819D01*
X0028375Y0152804D01*
X0028500Y0152785D01*
X0028624Y0152762D01*
X0028748Y0152736D01*
X0028870Y0152705D01*
X0028992Y0152671D01*
X0029112Y0152632D01*
X0029231Y0152590D01*
X0029349Y0152545D01*
X0029465Y0152495D01*
X0029580Y0152442D01*
X0029692Y0152385D01*
X0029803Y0152325D01*
X0029912Y0152261D01*
X0030019Y0152194D01*
X0030124Y0152124D01*
X0030227Y0152050D01*
X0030327Y0151973D01*
X0030425Y0151893D01*
X0030520Y0151810D01*
X0030612Y0151724D01*
X0030702Y0151635D01*
X0030789Y0151543D01*
X0030872Y0151449D01*
X0030953Y0151352D01*
X0031031Y0151252D01*
X0031106Y0151150D01*
X0031177Y0151046D01*
X0031245Y0150939D01*
X0031309Y0150831D01*
X0031370Y0150720D01*
X0031428Y0150608D01*
X0031482Y0150494D01*
X0031532Y0150378D01*
X0031579Y0150261D01*
X0031622Y0150142D01*
X0031661Y0150022D01*
X0031697Y0149901D01*
X0031728Y0149778D01*
X0031756Y0149655D01*
X0031780Y0149531D01*
X0031800Y0149406D01*
X0031816Y0149281D01*
X0031828Y0149155D01*
X0031836Y0149029D01*
X0031840Y0148903D01*
X0031840Y0148777D01*
X0031836Y0148651D01*
X0031828Y0148525D01*
X0031816Y0148399D01*
X0031800Y0148274D01*
X0031780Y0148149D01*
X0031756Y0148025D01*
X0031728Y0147902D01*
X0031697Y0147779D01*
X0031661Y0147658D01*
X0031622Y0147538D01*
X0031579Y0147419D01*
X0031532Y0147302D01*
X0031482Y0147186D01*
X0031428Y0147072D01*
X0031370Y0146960D01*
X0031309Y0146849D01*
X0031245Y0146741D01*
X0031177Y0146634D01*
X0031106Y0146530D01*
X0031031Y0146428D01*
X0030953Y0146328D01*
X0030872Y0146231D01*
X0030789Y0146137D01*
X0030702Y0146045D01*
X0030612Y0145956D01*
X0030520Y0145870D01*
X0030425Y0145787D01*
X0030327Y0145707D01*
X0030227Y0145630D01*
X0030124Y0145556D01*
X0030019Y0145486D01*
X0029912Y0145419D01*
X0029803Y0145355D01*
X0029692Y0145295D01*
X0029580Y0145238D01*
X0029465Y0145185D01*
X0029349Y0145135D01*
X0029231Y0145090D01*
X0029112Y0145048D01*
X0028992Y0145009D01*
X0028870Y0144975D01*
X0028748Y0144944D01*
X0028624Y0144918D01*
X0028500Y0144895D01*
X0028375Y0144876D01*
X0028250Y0144861D01*
X0028124Y0144850D01*
X0027998Y0144843D01*
X0027872Y0144840D01*
X0027745Y0144841D01*
X0027619Y0144846D01*
X0027493Y0144855D01*
X0027367Y0144868D01*
X0027242Y0144885D01*
X0027118Y0144906D01*
X0026994Y0144930D01*
X0026871Y0144959D01*
X0026749Y0144992D01*
X0026628Y0145028D01*
X0026508Y0145068D01*
X0026390Y0145112D01*
X0026273Y0145160D01*
X0026157Y0145211D01*
X0026044Y0145266D01*
X0025932Y0145324D01*
X0025822Y0145386D01*
X0025714Y0145452D01*
X0025608Y0145521D01*
X0025504Y0145593D01*
X0025403Y0145668D01*
X0025304Y0145747D01*
X0025208Y0145828D01*
X0025114Y0145913D01*
X0025023Y0146000D01*
X0024935Y0146091D01*
X0024849Y0146184D01*
X0024767Y0146280D01*
X0024688Y0146378D01*
X0024611Y0146479D01*
X0024538Y0146582D01*
X0024469Y0146687D01*
X0024403Y0146795D01*
X0024340Y0146904D01*
X0024280Y0147016D01*
X0024224Y0147129D01*
X0024172Y0147244D01*
X0024124Y0147360D01*
X0024079Y0147479D01*
X0024038Y0147598D01*
X0024000Y0147719D01*
X0023967Y0147840D01*
X0023937Y0147963D01*
X0023912Y0148087D01*
X0023890Y0148211D01*
X0023872Y0148336D01*
X0023858Y0148462D01*
X0023848Y0148588D01*
X0023842Y0148714D01*
X0023840Y0148840D01*
D11*
X0014840Y0139840D02*
X0014840Y0035089D01*
X0014841Y0035089D02*
X0014847Y0034600D01*
X0014865Y0034111D01*
X0014894Y0033622D01*
X0014936Y0033135D01*
X0014989Y0032648D01*
X0015053Y0032163D01*
X0015130Y0031680D01*
X0015218Y0031199D01*
X0015318Y0030720D01*
X0015429Y0030243D01*
X0015552Y0029770D01*
X0015686Y0029299D01*
X0015832Y0028832D01*
X0015989Y0028369D01*
X0016157Y0027909D01*
X0016336Y0027454D01*
X0016526Y0027003D01*
X0016727Y0026556D01*
X0016938Y0026115D01*
X0017160Y0025679D01*
X0017393Y0025249D01*
X0017636Y0024824D01*
X0017889Y0024405D01*
X0018152Y0023993D01*
X0018425Y0023587D01*
X0018708Y0023188D01*
X0019000Y0022795D01*
X0019302Y0022410D01*
X0019613Y0022032D01*
X0019933Y0021662D01*
X0020262Y0021300D01*
X0020600Y0020946D01*
X0020946Y0020600D01*
X0021300Y0020262D01*
X0021662Y0019933D01*
X0022032Y0019613D01*
X0022410Y0019302D01*
X0022795Y0019000D01*
X0023188Y0018708D01*
X0023587Y0018425D01*
X0023993Y0018152D01*
X0024405Y0017889D01*
X0024824Y0017636D01*
X0025249Y0017393D01*
X0025679Y0017160D01*
X0026115Y0016938D01*
X0026556Y0016727D01*
X0027003Y0016526D01*
X0027454Y0016336D01*
X0027909Y0016157D01*
X0028369Y0015989D01*
X0028832Y0015832D01*
X0029299Y0015686D01*
X0029770Y0015552D01*
X0030243Y0015429D01*
X0030720Y0015318D01*
X0031199Y0015218D01*
X0031680Y0015130D01*
X0032163Y0015053D01*
X0032648Y0014989D01*
X0033135Y0014936D01*
X0033622Y0014894D01*
X0034111Y0014865D01*
X0034600Y0014847D01*
X0035089Y0014841D01*
X0035089Y0014840D02*
X0139840Y0014840D01*
X0140323Y0014846D01*
X0140806Y0014863D01*
X0141289Y0014893D01*
X0141770Y0014933D01*
X0142251Y0014986D01*
X0142730Y0015050D01*
X0143207Y0015125D01*
X0143683Y0015213D01*
X0144156Y0015311D01*
X0144626Y0015421D01*
X0145094Y0015542D01*
X0145559Y0015675D01*
X0146020Y0015819D01*
X0146478Y0015974D01*
X0146932Y0016140D01*
X0147382Y0016317D01*
X0147827Y0016504D01*
X0148268Y0016703D01*
X0148704Y0016911D01*
X0149134Y0017131D01*
X0149560Y0017361D01*
X0149979Y0017601D01*
X0150393Y0017851D01*
X0150800Y0018111D01*
X0151201Y0018380D01*
X0151596Y0018660D01*
X0151983Y0018948D01*
X0152364Y0019247D01*
X0152737Y0019554D01*
X0153102Y0019870D01*
X0153460Y0020195D01*
X0153810Y0020528D01*
X0154152Y0020870D01*
X0154485Y0021220D01*
X0154810Y0021578D01*
X0155126Y0021943D01*
X0155433Y0022316D01*
X0155732Y0022697D01*
X0156020Y0023084D01*
X0156300Y0023479D01*
X0156569Y0023880D01*
X0156829Y0024287D01*
X0157079Y0024701D01*
X0157319Y0025120D01*
X0157549Y0025546D01*
X0157769Y0025976D01*
X0157977Y0026412D01*
X0158176Y0026853D01*
X0158363Y0027298D01*
X0158540Y0027748D01*
X0158706Y0028202D01*
X0158861Y0028660D01*
X0159005Y0029121D01*
X0159138Y0029586D01*
X0159259Y0030054D01*
X0159369Y0030524D01*
X0159467Y0030997D01*
X0159555Y0031473D01*
X0159630Y0031950D01*
X0159694Y0032429D01*
X0159747Y0032910D01*
X0159787Y0033391D01*
X0159817Y0033874D01*
X0159834Y0034357D01*
X0159840Y0034840D01*
X0159840Y0143840D01*
X0159835Y0144227D01*
X0159821Y0144613D01*
X0159798Y0144999D01*
X0159765Y0145384D01*
X0159723Y0145769D01*
X0159672Y0146152D01*
X0159612Y0146534D01*
X0159542Y0146914D01*
X0159463Y0147293D01*
X0159375Y0147669D01*
X0159278Y0148043D01*
X0159172Y0148415D01*
X0159057Y0148784D01*
X0158933Y0149151D01*
X0158800Y0149514D01*
X0158659Y0149874D01*
X0158509Y0150230D01*
X0158350Y0150582D01*
X0158183Y0150931D01*
X0158007Y0151276D01*
X0157823Y0151616D01*
X0157632Y0151951D01*
X0157431Y0152282D01*
X0157224Y0152608D01*
X0157008Y0152929D01*
X0156784Y0153245D01*
X0156553Y0153555D01*
X0156315Y0153859D01*
X0156069Y0154157D01*
X0155816Y0154450D01*
X0155556Y0154736D01*
X0155290Y0155016D01*
X0155016Y0155290D01*
X0154736Y0155556D01*
X0154450Y0155816D01*
X0154157Y0156069D01*
X0153859Y0156315D01*
X0153555Y0156553D01*
X0153245Y0156784D01*
X0152929Y0157008D01*
X0152608Y0157224D01*
X0152282Y0157431D01*
X0151951Y0157632D01*
X0151616Y0157823D01*
X0151276Y0158007D01*
X0150931Y0158183D01*
X0150582Y0158350D01*
X0150230Y0158509D01*
X0149874Y0158659D01*
X0149514Y0158800D01*
X0149151Y0158933D01*
X0148784Y0159057D01*
X0148415Y0159172D01*
X0148043Y0159278D01*
X0147669Y0159375D01*
X0147293Y0159463D01*
X0146914Y0159542D01*
X0146534Y0159612D01*
X0146152Y0159672D01*
X0145769Y0159723D01*
X0145384Y0159765D01*
X0144999Y0159798D01*
X0144613Y0159821D01*
X0144227Y0159835D01*
X0143840Y0159840D01*
X0034840Y0159840D01*
X0034357Y0159834D01*
X0033874Y0159817D01*
X0033391Y0159787D01*
X0032910Y0159747D01*
X0032429Y0159694D01*
X0031950Y0159630D01*
X0031473Y0159555D01*
X0030997Y0159467D01*
X0030524Y0159369D01*
X0030054Y0159259D01*
X0029586Y0159138D01*
X0029121Y0159005D01*
X0028660Y0158861D01*
X0028202Y0158706D01*
X0027748Y0158540D01*
X0027298Y0158363D01*
X0026853Y0158176D01*
X0026412Y0157977D01*
X0025976Y0157769D01*
X0025546Y0157549D01*
X0025120Y0157319D01*
X0024701Y0157079D01*
X0024287Y0156829D01*
X0023880Y0156569D01*
X0023479Y0156300D01*
X0023084Y0156020D01*
X0022697Y0155732D01*
X0022316Y0155433D01*
X0021943Y0155126D01*
X0021578Y0154810D01*
X0021220Y0154485D01*
X0020870Y0154152D01*
X0020528Y0153810D01*
X0020195Y0153460D01*
X0019870Y0153102D01*
X0019554Y0152737D01*
X0019247Y0152364D01*
X0018948Y0151983D01*
X0018660Y0151596D01*
X0018380Y0151201D01*
X0018111Y0150800D01*
X0017851Y0150393D01*
X0017601Y0149979D01*
X0017361Y0149560D01*
X0017131Y0149134D01*
X0016911Y0148704D01*
X0016703Y0148268D01*
X0016504Y0147827D01*
X0016317Y0147382D01*
X0016140Y0146932D01*
X0015974Y0146478D01*
X0015819Y0146020D01*
X0015675Y0145559D01*
X0015542Y0145094D01*
X0015421Y0144626D01*
X0015311Y0144156D01*
X0015213Y0143683D01*
X0015125Y0143207D01*
X0015050Y0142730D01*
X0014986Y0142251D01*
X0014933Y0141770D01*
X0014893Y0141289D01*
X0014863Y0140806D01*
X0014846Y0140323D01*
X0014840Y0139840D01*
M02*
