G75*
%MOIN*%
%OFA0B0*%
%FSLAX25Y25*%
%IPPOS*%
%LPD*%
%AMOC8*
5,1,8,0,0,1.08239X$1,22.5*
%
%ADD10C,0.00000*%
%ADD11C,0.01600*%
%ADD12C,0.15000*%
%ADD13C,0.02500*%
%ADD14C,0.00600*%
%ADD15R,0.03300X0.03300*%
%ADD16C,0.01000*%
D10*
X0027475Y0032412D02*
X0027477Y0032538D01*
X0027483Y0032664D01*
X0027493Y0032790D01*
X0027507Y0032916D01*
X0027525Y0033041D01*
X0027547Y0033165D01*
X0027572Y0033289D01*
X0027602Y0033412D01*
X0027635Y0033533D01*
X0027673Y0033654D01*
X0027714Y0033773D01*
X0027759Y0033892D01*
X0027807Y0034008D01*
X0027859Y0034123D01*
X0027915Y0034236D01*
X0027975Y0034348D01*
X0028038Y0034457D01*
X0028104Y0034565D01*
X0028173Y0034670D01*
X0028246Y0034773D01*
X0028323Y0034874D01*
X0028402Y0034972D01*
X0028484Y0035068D01*
X0028570Y0035161D01*
X0028658Y0035252D01*
X0028749Y0035339D01*
X0028843Y0035424D01*
X0028939Y0035505D01*
X0029038Y0035584D01*
X0029139Y0035659D01*
X0029243Y0035731D01*
X0029349Y0035800D01*
X0029457Y0035866D01*
X0029567Y0035928D01*
X0029679Y0035986D01*
X0029792Y0036041D01*
X0029908Y0036092D01*
X0030025Y0036140D01*
X0030143Y0036184D01*
X0030263Y0036224D01*
X0030384Y0036260D01*
X0030506Y0036293D01*
X0030629Y0036322D01*
X0030753Y0036346D01*
X0030877Y0036367D01*
X0031002Y0036384D01*
X0031128Y0036397D01*
X0031254Y0036406D01*
X0031380Y0036411D01*
X0031507Y0036412D01*
X0031633Y0036409D01*
X0031759Y0036402D01*
X0031885Y0036391D01*
X0032010Y0036376D01*
X0032135Y0036357D01*
X0032259Y0036334D01*
X0032383Y0036308D01*
X0032505Y0036277D01*
X0032627Y0036243D01*
X0032747Y0036204D01*
X0032866Y0036162D01*
X0032984Y0036117D01*
X0033100Y0036067D01*
X0033215Y0036014D01*
X0033327Y0035957D01*
X0033438Y0035897D01*
X0033547Y0035833D01*
X0033654Y0035766D01*
X0033759Y0035696D01*
X0033862Y0035622D01*
X0033962Y0035545D01*
X0034060Y0035465D01*
X0034155Y0035382D01*
X0034247Y0035296D01*
X0034337Y0035207D01*
X0034424Y0035115D01*
X0034507Y0035021D01*
X0034588Y0034924D01*
X0034666Y0034824D01*
X0034741Y0034722D01*
X0034812Y0034618D01*
X0034880Y0034511D01*
X0034944Y0034403D01*
X0035005Y0034292D01*
X0035063Y0034180D01*
X0035117Y0034066D01*
X0035167Y0033950D01*
X0035214Y0033833D01*
X0035257Y0033714D01*
X0035296Y0033594D01*
X0035332Y0033473D01*
X0035363Y0033350D01*
X0035391Y0033227D01*
X0035415Y0033103D01*
X0035435Y0032978D01*
X0035451Y0032853D01*
X0035463Y0032727D01*
X0035471Y0032601D01*
X0035475Y0032475D01*
X0035475Y0032349D01*
X0035471Y0032223D01*
X0035463Y0032097D01*
X0035451Y0031971D01*
X0035435Y0031846D01*
X0035415Y0031721D01*
X0035391Y0031597D01*
X0035363Y0031474D01*
X0035332Y0031351D01*
X0035296Y0031230D01*
X0035257Y0031110D01*
X0035214Y0030991D01*
X0035167Y0030874D01*
X0035117Y0030758D01*
X0035063Y0030644D01*
X0035005Y0030532D01*
X0034944Y0030421D01*
X0034880Y0030313D01*
X0034812Y0030206D01*
X0034741Y0030102D01*
X0034666Y0030000D01*
X0034588Y0029900D01*
X0034507Y0029803D01*
X0034424Y0029709D01*
X0034337Y0029617D01*
X0034247Y0029528D01*
X0034155Y0029442D01*
X0034060Y0029359D01*
X0033962Y0029279D01*
X0033862Y0029202D01*
X0033759Y0029128D01*
X0033654Y0029058D01*
X0033547Y0028991D01*
X0033438Y0028927D01*
X0033327Y0028867D01*
X0033215Y0028810D01*
X0033100Y0028757D01*
X0032984Y0028707D01*
X0032866Y0028662D01*
X0032747Y0028620D01*
X0032627Y0028581D01*
X0032505Y0028547D01*
X0032383Y0028516D01*
X0032259Y0028490D01*
X0032135Y0028467D01*
X0032010Y0028448D01*
X0031885Y0028433D01*
X0031759Y0028422D01*
X0031633Y0028415D01*
X0031507Y0028412D01*
X0031380Y0028413D01*
X0031254Y0028418D01*
X0031128Y0028427D01*
X0031002Y0028440D01*
X0030877Y0028457D01*
X0030753Y0028478D01*
X0030629Y0028502D01*
X0030506Y0028531D01*
X0030384Y0028564D01*
X0030263Y0028600D01*
X0030143Y0028640D01*
X0030025Y0028684D01*
X0029908Y0028732D01*
X0029792Y0028783D01*
X0029679Y0028838D01*
X0029567Y0028896D01*
X0029457Y0028958D01*
X0029349Y0029024D01*
X0029243Y0029093D01*
X0029139Y0029165D01*
X0029038Y0029240D01*
X0028939Y0029319D01*
X0028843Y0029400D01*
X0028749Y0029485D01*
X0028658Y0029572D01*
X0028570Y0029663D01*
X0028484Y0029756D01*
X0028402Y0029852D01*
X0028323Y0029950D01*
X0028246Y0030051D01*
X0028173Y0030154D01*
X0028104Y0030259D01*
X0028038Y0030367D01*
X0027975Y0030476D01*
X0027915Y0030588D01*
X0027859Y0030701D01*
X0027807Y0030816D01*
X0027759Y0030932D01*
X0027714Y0031051D01*
X0027673Y0031170D01*
X0027635Y0031291D01*
X0027602Y0031412D01*
X0027572Y0031535D01*
X0027547Y0031659D01*
X0027525Y0031783D01*
X0027507Y0031908D01*
X0027493Y0032034D01*
X0027483Y0032160D01*
X0027477Y0032286D01*
X0027475Y0032412D01*
X0079475Y0146412D02*
X0079477Y0146501D01*
X0079483Y0146590D01*
X0079493Y0146679D01*
X0079507Y0146767D01*
X0079524Y0146854D01*
X0079546Y0146940D01*
X0079572Y0147026D01*
X0079601Y0147110D01*
X0079634Y0147193D01*
X0079670Y0147274D01*
X0079711Y0147354D01*
X0079754Y0147431D01*
X0079801Y0147507D01*
X0079852Y0147580D01*
X0079905Y0147651D01*
X0079962Y0147720D01*
X0080022Y0147786D01*
X0080085Y0147850D01*
X0080150Y0147910D01*
X0080218Y0147968D01*
X0080289Y0148022D01*
X0080362Y0148073D01*
X0080437Y0148121D01*
X0080514Y0148166D01*
X0080593Y0148207D01*
X0080674Y0148244D01*
X0080756Y0148278D01*
X0080840Y0148309D01*
X0080925Y0148335D01*
X0081011Y0148358D01*
X0081098Y0148376D01*
X0081186Y0148391D01*
X0081275Y0148402D01*
X0081364Y0148409D01*
X0081453Y0148412D01*
X0081542Y0148411D01*
X0081631Y0148406D01*
X0081719Y0148397D01*
X0081808Y0148384D01*
X0081895Y0148367D01*
X0081982Y0148347D01*
X0082068Y0148322D01*
X0082152Y0148294D01*
X0082235Y0148262D01*
X0082317Y0148226D01*
X0082397Y0148187D01*
X0082475Y0148144D01*
X0082551Y0148098D01*
X0082625Y0148048D01*
X0082697Y0147995D01*
X0082766Y0147939D01*
X0082833Y0147880D01*
X0082897Y0147818D01*
X0082958Y0147754D01*
X0083017Y0147686D01*
X0083072Y0147616D01*
X0083124Y0147544D01*
X0083173Y0147469D01*
X0083218Y0147393D01*
X0083260Y0147314D01*
X0083298Y0147234D01*
X0083333Y0147152D01*
X0083364Y0147068D01*
X0083392Y0146983D01*
X0083415Y0146897D01*
X0083435Y0146810D01*
X0083451Y0146723D01*
X0083463Y0146634D01*
X0083471Y0146546D01*
X0083475Y0146457D01*
X0083475Y0146367D01*
X0083471Y0146278D01*
X0083463Y0146190D01*
X0083451Y0146101D01*
X0083435Y0146014D01*
X0083415Y0145927D01*
X0083392Y0145841D01*
X0083364Y0145756D01*
X0083333Y0145672D01*
X0083298Y0145590D01*
X0083260Y0145510D01*
X0083218Y0145431D01*
X0083173Y0145355D01*
X0083124Y0145280D01*
X0083072Y0145208D01*
X0083017Y0145138D01*
X0082958Y0145070D01*
X0082897Y0145006D01*
X0082833Y0144944D01*
X0082766Y0144885D01*
X0082697Y0144829D01*
X0082625Y0144776D01*
X0082551Y0144726D01*
X0082475Y0144680D01*
X0082397Y0144637D01*
X0082317Y0144598D01*
X0082235Y0144562D01*
X0082152Y0144530D01*
X0082068Y0144502D01*
X0081982Y0144477D01*
X0081895Y0144457D01*
X0081808Y0144440D01*
X0081719Y0144427D01*
X0081631Y0144418D01*
X0081542Y0144413D01*
X0081453Y0144412D01*
X0081364Y0144415D01*
X0081275Y0144422D01*
X0081186Y0144433D01*
X0081098Y0144448D01*
X0081011Y0144466D01*
X0080925Y0144489D01*
X0080840Y0144515D01*
X0080756Y0144546D01*
X0080674Y0144580D01*
X0080593Y0144617D01*
X0080514Y0144658D01*
X0080437Y0144703D01*
X0080362Y0144751D01*
X0080289Y0144802D01*
X0080218Y0144856D01*
X0080150Y0144914D01*
X0080085Y0144974D01*
X0080022Y0145038D01*
X0079962Y0145104D01*
X0079905Y0145173D01*
X0079852Y0145244D01*
X0079801Y0145317D01*
X0079754Y0145393D01*
X0079711Y0145470D01*
X0079670Y0145550D01*
X0079634Y0145631D01*
X0079601Y0145714D01*
X0079572Y0145798D01*
X0079546Y0145884D01*
X0079524Y0145970D01*
X0079507Y0146057D01*
X0079493Y0146145D01*
X0079483Y0146234D01*
X0079477Y0146323D01*
X0079475Y0146412D01*
X0079475Y0154412D02*
X0079477Y0154501D01*
X0079483Y0154590D01*
X0079493Y0154679D01*
X0079507Y0154767D01*
X0079524Y0154854D01*
X0079546Y0154940D01*
X0079572Y0155026D01*
X0079601Y0155110D01*
X0079634Y0155193D01*
X0079670Y0155274D01*
X0079711Y0155354D01*
X0079754Y0155431D01*
X0079801Y0155507D01*
X0079852Y0155580D01*
X0079905Y0155651D01*
X0079962Y0155720D01*
X0080022Y0155786D01*
X0080085Y0155850D01*
X0080150Y0155910D01*
X0080218Y0155968D01*
X0080289Y0156022D01*
X0080362Y0156073D01*
X0080437Y0156121D01*
X0080514Y0156166D01*
X0080593Y0156207D01*
X0080674Y0156244D01*
X0080756Y0156278D01*
X0080840Y0156309D01*
X0080925Y0156335D01*
X0081011Y0156358D01*
X0081098Y0156376D01*
X0081186Y0156391D01*
X0081275Y0156402D01*
X0081364Y0156409D01*
X0081453Y0156412D01*
X0081542Y0156411D01*
X0081631Y0156406D01*
X0081719Y0156397D01*
X0081808Y0156384D01*
X0081895Y0156367D01*
X0081982Y0156347D01*
X0082068Y0156322D01*
X0082152Y0156294D01*
X0082235Y0156262D01*
X0082317Y0156226D01*
X0082397Y0156187D01*
X0082475Y0156144D01*
X0082551Y0156098D01*
X0082625Y0156048D01*
X0082697Y0155995D01*
X0082766Y0155939D01*
X0082833Y0155880D01*
X0082897Y0155818D01*
X0082958Y0155754D01*
X0083017Y0155686D01*
X0083072Y0155616D01*
X0083124Y0155544D01*
X0083173Y0155469D01*
X0083218Y0155393D01*
X0083260Y0155314D01*
X0083298Y0155234D01*
X0083333Y0155152D01*
X0083364Y0155068D01*
X0083392Y0154983D01*
X0083415Y0154897D01*
X0083435Y0154810D01*
X0083451Y0154723D01*
X0083463Y0154634D01*
X0083471Y0154546D01*
X0083475Y0154457D01*
X0083475Y0154367D01*
X0083471Y0154278D01*
X0083463Y0154190D01*
X0083451Y0154101D01*
X0083435Y0154014D01*
X0083415Y0153927D01*
X0083392Y0153841D01*
X0083364Y0153756D01*
X0083333Y0153672D01*
X0083298Y0153590D01*
X0083260Y0153510D01*
X0083218Y0153431D01*
X0083173Y0153355D01*
X0083124Y0153280D01*
X0083072Y0153208D01*
X0083017Y0153138D01*
X0082958Y0153070D01*
X0082897Y0153006D01*
X0082833Y0152944D01*
X0082766Y0152885D01*
X0082697Y0152829D01*
X0082625Y0152776D01*
X0082551Y0152726D01*
X0082475Y0152680D01*
X0082397Y0152637D01*
X0082317Y0152598D01*
X0082235Y0152562D01*
X0082152Y0152530D01*
X0082068Y0152502D01*
X0081982Y0152477D01*
X0081895Y0152457D01*
X0081808Y0152440D01*
X0081719Y0152427D01*
X0081631Y0152418D01*
X0081542Y0152413D01*
X0081453Y0152412D01*
X0081364Y0152415D01*
X0081275Y0152422D01*
X0081186Y0152433D01*
X0081098Y0152448D01*
X0081011Y0152466D01*
X0080925Y0152489D01*
X0080840Y0152515D01*
X0080756Y0152546D01*
X0080674Y0152580D01*
X0080593Y0152617D01*
X0080514Y0152658D01*
X0080437Y0152703D01*
X0080362Y0152751D01*
X0080289Y0152802D01*
X0080218Y0152856D01*
X0080150Y0152914D01*
X0080085Y0152974D01*
X0080022Y0153038D01*
X0079962Y0153104D01*
X0079905Y0153173D01*
X0079852Y0153244D01*
X0079801Y0153317D01*
X0079754Y0153393D01*
X0079711Y0153470D01*
X0079670Y0153550D01*
X0079634Y0153631D01*
X0079601Y0153714D01*
X0079572Y0153798D01*
X0079546Y0153884D01*
X0079524Y0153970D01*
X0079507Y0154057D01*
X0079493Y0154145D01*
X0079483Y0154234D01*
X0079477Y0154323D01*
X0079475Y0154412D01*
X0059475Y0150412D02*
X0059477Y0150501D01*
X0059483Y0150590D01*
X0059493Y0150679D01*
X0059507Y0150767D01*
X0059524Y0150854D01*
X0059546Y0150940D01*
X0059572Y0151026D01*
X0059601Y0151110D01*
X0059634Y0151193D01*
X0059670Y0151274D01*
X0059711Y0151354D01*
X0059754Y0151431D01*
X0059801Y0151507D01*
X0059852Y0151580D01*
X0059905Y0151651D01*
X0059962Y0151720D01*
X0060022Y0151786D01*
X0060085Y0151850D01*
X0060150Y0151910D01*
X0060218Y0151968D01*
X0060289Y0152022D01*
X0060362Y0152073D01*
X0060437Y0152121D01*
X0060514Y0152166D01*
X0060593Y0152207D01*
X0060674Y0152244D01*
X0060756Y0152278D01*
X0060840Y0152309D01*
X0060925Y0152335D01*
X0061011Y0152358D01*
X0061098Y0152376D01*
X0061186Y0152391D01*
X0061275Y0152402D01*
X0061364Y0152409D01*
X0061453Y0152412D01*
X0061542Y0152411D01*
X0061631Y0152406D01*
X0061719Y0152397D01*
X0061808Y0152384D01*
X0061895Y0152367D01*
X0061982Y0152347D01*
X0062068Y0152322D01*
X0062152Y0152294D01*
X0062235Y0152262D01*
X0062317Y0152226D01*
X0062397Y0152187D01*
X0062475Y0152144D01*
X0062551Y0152098D01*
X0062625Y0152048D01*
X0062697Y0151995D01*
X0062766Y0151939D01*
X0062833Y0151880D01*
X0062897Y0151818D01*
X0062958Y0151754D01*
X0063017Y0151686D01*
X0063072Y0151616D01*
X0063124Y0151544D01*
X0063173Y0151469D01*
X0063218Y0151393D01*
X0063260Y0151314D01*
X0063298Y0151234D01*
X0063333Y0151152D01*
X0063364Y0151068D01*
X0063392Y0150983D01*
X0063415Y0150897D01*
X0063435Y0150810D01*
X0063451Y0150723D01*
X0063463Y0150634D01*
X0063471Y0150546D01*
X0063475Y0150457D01*
X0063475Y0150367D01*
X0063471Y0150278D01*
X0063463Y0150190D01*
X0063451Y0150101D01*
X0063435Y0150014D01*
X0063415Y0149927D01*
X0063392Y0149841D01*
X0063364Y0149756D01*
X0063333Y0149672D01*
X0063298Y0149590D01*
X0063260Y0149510D01*
X0063218Y0149431D01*
X0063173Y0149355D01*
X0063124Y0149280D01*
X0063072Y0149208D01*
X0063017Y0149138D01*
X0062958Y0149070D01*
X0062897Y0149006D01*
X0062833Y0148944D01*
X0062766Y0148885D01*
X0062697Y0148829D01*
X0062625Y0148776D01*
X0062551Y0148726D01*
X0062475Y0148680D01*
X0062397Y0148637D01*
X0062317Y0148598D01*
X0062235Y0148562D01*
X0062152Y0148530D01*
X0062068Y0148502D01*
X0061982Y0148477D01*
X0061895Y0148457D01*
X0061808Y0148440D01*
X0061719Y0148427D01*
X0061631Y0148418D01*
X0061542Y0148413D01*
X0061453Y0148412D01*
X0061364Y0148415D01*
X0061275Y0148422D01*
X0061186Y0148433D01*
X0061098Y0148448D01*
X0061011Y0148466D01*
X0060925Y0148489D01*
X0060840Y0148515D01*
X0060756Y0148546D01*
X0060674Y0148580D01*
X0060593Y0148617D01*
X0060514Y0148658D01*
X0060437Y0148703D01*
X0060362Y0148751D01*
X0060289Y0148802D01*
X0060218Y0148856D01*
X0060150Y0148914D01*
X0060085Y0148974D01*
X0060022Y0149038D01*
X0059962Y0149104D01*
X0059905Y0149173D01*
X0059852Y0149244D01*
X0059801Y0149317D01*
X0059754Y0149393D01*
X0059711Y0149470D01*
X0059670Y0149550D01*
X0059634Y0149631D01*
X0059601Y0149714D01*
X0059572Y0149798D01*
X0059546Y0149884D01*
X0059524Y0149970D01*
X0059507Y0150057D01*
X0059493Y0150145D01*
X0059483Y0150234D01*
X0059477Y0150323D01*
X0059475Y0150412D01*
X0029475Y0154412D02*
X0029477Y0154538D01*
X0029483Y0154664D01*
X0029493Y0154790D01*
X0029507Y0154916D01*
X0029525Y0155041D01*
X0029547Y0155165D01*
X0029572Y0155289D01*
X0029602Y0155412D01*
X0029635Y0155533D01*
X0029673Y0155654D01*
X0029714Y0155773D01*
X0029759Y0155892D01*
X0029807Y0156008D01*
X0029859Y0156123D01*
X0029915Y0156236D01*
X0029975Y0156348D01*
X0030038Y0156457D01*
X0030104Y0156565D01*
X0030173Y0156670D01*
X0030246Y0156773D01*
X0030323Y0156874D01*
X0030402Y0156972D01*
X0030484Y0157068D01*
X0030570Y0157161D01*
X0030658Y0157252D01*
X0030749Y0157339D01*
X0030843Y0157424D01*
X0030939Y0157505D01*
X0031038Y0157584D01*
X0031139Y0157659D01*
X0031243Y0157731D01*
X0031349Y0157800D01*
X0031457Y0157866D01*
X0031567Y0157928D01*
X0031679Y0157986D01*
X0031792Y0158041D01*
X0031908Y0158092D01*
X0032025Y0158140D01*
X0032143Y0158184D01*
X0032263Y0158224D01*
X0032384Y0158260D01*
X0032506Y0158293D01*
X0032629Y0158322D01*
X0032753Y0158346D01*
X0032877Y0158367D01*
X0033002Y0158384D01*
X0033128Y0158397D01*
X0033254Y0158406D01*
X0033380Y0158411D01*
X0033507Y0158412D01*
X0033633Y0158409D01*
X0033759Y0158402D01*
X0033885Y0158391D01*
X0034010Y0158376D01*
X0034135Y0158357D01*
X0034259Y0158334D01*
X0034383Y0158308D01*
X0034505Y0158277D01*
X0034627Y0158243D01*
X0034747Y0158204D01*
X0034866Y0158162D01*
X0034984Y0158117D01*
X0035100Y0158067D01*
X0035215Y0158014D01*
X0035327Y0157957D01*
X0035438Y0157897D01*
X0035547Y0157833D01*
X0035654Y0157766D01*
X0035759Y0157696D01*
X0035862Y0157622D01*
X0035962Y0157545D01*
X0036060Y0157465D01*
X0036155Y0157382D01*
X0036247Y0157296D01*
X0036337Y0157207D01*
X0036424Y0157115D01*
X0036507Y0157021D01*
X0036588Y0156924D01*
X0036666Y0156824D01*
X0036741Y0156722D01*
X0036812Y0156618D01*
X0036880Y0156511D01*
X0036944Y0156403D01*
X0037005Y0156292D01*
X0037063Y0156180D01*
X0037117Y0156066D01*
X0037167Y0155950D01*
X0037214Y0155833D01*
X0037257Y0155714D01*
X0037296Y0155594D01*
X0037332Y0155473D01*
X0037363Y0155350D01*
X0037391Y0155227D01*
X0037415Y0155103D01*
X0037435Y0154978D01*
X0037451Y0154853D01*
X0037463Y0154727D01*
X0037471Y0154601D01*
X0037475Y0154475D01*
X0037475Y0154349D01*
X0037471Y0154223D01*
X0037463Y0154097D01*
X0037451Y0153971D01*
X0037435Y0153846D01*
X0037415Y0153721D01*
X0037391Y0153597D01*
X0037363Y0153474D01*
X0037332Y0153351D01*
X0037296Y0153230D01*
X0037257Y0153110D01*
X0037214Y0152991D01*
X0037167Y0152874D01*
X0037117Y0152758D01*
X0037063Y0152644D01*
X0037005Y0152532D01*
X0036944Y0152421D01*
X0036880Y0152313D01*
X0036812Y0152206D01*
X0036741Y0152102D01*
X0036666Y0152000D01*
X0036588Y0151900D01*
X0036507Y0151803D01*
X0036424Y0151709D01*
X0036337Y0151617D01*
X0036247Y0151528D01*
X0036155Y0151442D01*
X0036060Y0151359D01*
X0035962Y0151279D01*
X0035862Y0151202D01*
X0035759Y0151128D01*
X0035654Y0151058D01*
X0035547Y0150991D01*
X0035438Y0150927D01*
X0035327Y0150867D01*
X0035215Y0150810D01*
X0035100Y0150757D01*
X0034984Y0150707D01*
X0034866Y0150662D01*
X0034747Y0150620D01*
X0034627Y0150581D01*
X0034505Y0150547D01*
X0034383Y0150516D01*
X0034259Y0150490D01*
X0034135Y0150467D01*
X0034010Y0150448D01*
X0033885Y0150433D01*
X0033759Y0150422D01*
X0033633Y0150415D01*
X0033507Y0150412D01*
X0033380Y0150413D01*
X0033254Y0150418D01*
X0033128Y0150427D01*
X0033002Y0150440D01*
X0032877Y0150457D01*
X0032753Y0150478D01*
X0032629Y0150502D01*
X0032506Y0150531D01*
X0032384Y0150564D01*
X0032263Y0150600D01*
X0032143Y0150640D01*
X0032025Y0150684D01*
X0031908Y0150732D01*
X0031792Y0150783D01*
X0031679Y0150838D01*
X0031567Y0150896D01*
X0031457Y0150958D01*
X0031349Y0151024D01*
X0031243Y0151093D01*
X0031139Y0151165D01*
X0031038Y0151240D01*
X0030939Y0151319D01*
X0030843Y0151400D01*
X0030749Y0151485D01*
X0030658Y0151572D01*
X0030570Y0151663D01*
X0030484Y0151756D01*
X0030402Y0151852D01*
X0030323Y0151950D01*
X0030246Y0152051D01*
X0030173Y0152154D01*
X0030104Y0152259D01*
X0030038Y0152367D01*
X0029975Y0152476D01*
X0029915Y0152588D01*
X0029859Y0152701D01*
X0029807Y0152816D01*
X0029759Y0152932D01*
X0029714Y0153051D01*
X0029673Y0153170D01*
X0029635Y0153291D01*
X0029602Y0153412D01*
X0029572Y0153535D01*
X0029547Y0153659D01*
X0029525Y0153783D01*
X0029507Y0153908D01*
X0029493Y0154034D01*
X0029483Y0154160D01*
X0029477Y0154286D01*
X0029475Y0154412D01*
X0150475Y0033412D02*
X0150477Y0033538D01*
X0150483Y0033664D01*
X0150493Y0033790D01*
X0150507Y0033916D01*
X0150525Y0034041D01*
X0150547Y0034165D01*
X0150572Y0034289D01*
X0150602Y0034412D01*
X0150635Y0034533D01*
X0150673Y0034654D01*
X0150714Y0034773D01*
X0150759Y0034892D01*
X0150807Y0035008D01*
X0150859Y0035123D01*
X0150915Y0035236D01*
X0150975Y0035348D01*
X0151038Y0035457D01*
X0151104Y0035565D01*
X0151173Y0035670D01*
X0151246Y0035773D01*
X0151323Y0035874D01*
X0151402Y0035972D01*
X0151484Y0036068D01*
X0151570Y0036161D01*
X0151658Y0036252D01*
X0151749Y0036339D01*
X0151843Y0036424D01*
X0151939Y0036505D01*
X0152038Y0036584D01*
X0152139Y0036659D01*
X0152243Y0036731D01*
X0152349Y0036800D01*
X0152457Y0036866D01*
X0152567Y0036928D01*
X0152679Y0036986D01*
X0152792Y0037041D01*
X0152908Y0037092D01*
X0153025Y0037140D01*
X0153143Y0037184D01*
X0153263Y0037224D01*
X0153384Y0037260D01*
X0153506Y0037293D01*
X0153629Y0037322D01*
X0153753Y0037346D01*
X0153877Y0037367D01*
X0154002Y0037384D01*
X0154128Y0037397D01*
X0154254Y0037406D01*
X0154380Y0037411D01*
X0154507Y0037412D01*
X0154633Y0037409D01*
X0154759Y0037402D01*
X0154885Y0037391D01*
X0155010Y0037376D01*
X0155135Y0037357D01*
X0155259Y0037334D01*
X0155383Y0037308D01*
X0155505Y0037277D01*
X0155627Y0037243D01*
X0155747Y0037204D01*
X0155866Y0037162D01*
X0155984Y0037117D01*
X0156100Y0037067D01*
X0156215Y0037014D01*
X0156327Y0036957D01*
X0156438Y0036897D01*
X0156547Y0036833D01*
X0156654Y0036766D01*
X0156759Y0036696D01*
X0156862Y0036622D01*
X0156962Y0036545D01*
X0157060Y0036465D01*
X0157155Y0036382D01*
X0157247Y0036296D01*
X0157337Y0036207D01*
X0157424Y0036115D01*
X0157507Y0036021D01*
X0157588Y0035924D01*
X0157666Y0035824D01*
X0157741Y0035722D01*
X0157812Y0035618D01*
X0157880Y0035511D01*
X0157944Y0035403D01*
X0158005Y0035292D01*
X0158063Y0035180D01*
X0158117Y0035066D01*
X0158167Y0034950D01*
X0158214Y0034833D01*
X0158257Y0034714D01*
X0158296Y0034594D01*
X0158332Y0034473D01*
X0158363Y0034350D01*
X0158391Y0034227D01*
X0158415Y0034103D01*
X0158435Y0033978D01*
X0158451Y0033853D01*
X0158463Y0033727D01*
X0158471Y0033601D01*
X0158475Y0033475D01*
X0158475Y0033349D01*
X0158471Y0033223D01*
X0158463Y0033097D01*
X0158451Y0032971D01*
X0158435Y0032846D01*
X0158415Y0032721D01*
X0158391Y0032597D01*
X0158363Y0032474D01*
X0158332Y0032351D01*
X0158296Y0032230D01*
X0158257Y0032110D01*
X0158214Y0031991D01*
X0158167Y0031874D01*
X0158117Y0031758D01*
X0158063Y0031644D01*
X0158005Y0031532D01*
X0157944Y0031421D01*
X0157880Y0031313D01*
X0157812Y0031206D01*
X0157741Y0031102D01*
X0157666Y0031000D01*
X0157588Y0030900D01*
X0157507Y0030803D01*
X0157424Y0030709D01*
X0157337Y0030617D01*
X0157247Y0030528D01*
X0157155Y0030442D01*
X0157060Y0030359D01*
X0156962Y0030279D01*
X0156862Y0030202D01*
X0156759Y0030128D01*
X0156654Y0030058D01*
X0156547Y0029991D01*
X0156438Y0029927D01*
X0156327Y0029867D01*
X0156215Y0029810D01*
X0156100Y0029757D01*
X0155984Y0029707D01*
X0155866Y0029662D01*
X0155747Y0029620D01*
X0155627Y0029581D01*
X0155505Y0029547D01*
X0155383Y0029516D01*
X0155259Y0029490D01*
X0155135Y0029467D01*
X0155010Y0029448D01*
X0154885Y0029433D01*
X0154759Y0029422D01*
X0154633Y0029415D01*
X0154507Y0029412D01*
X0154380Y0029413D01*
X0154254Y0029418D01*
X0154128Y0029427D01*
X0154002Y0029440D01*
X0153877Y0029457D01*
X0153753Y0029478D01*
X0153629Y0029502D01*
X0153506Y0029531D01*
X0153384Y0029564D01*
X0153263Y0029600D01*
X0153143Y0029640D01*
X0153025Y0029684D01*
X0152908Y0029732D01*
X0152792Y0029783D01*
X0152679Y0029838D01*
X0152567Y0029896D01*
X0152457Y0029958D01*
X0152349Y0030024D01*
X0152243Y0030093D01*
X0152139Y0030165D01*
X0152038Y0030240D01*
X0151939Y0030319D01*
X0151843Y0030400D01*
X0151749Y0030485D01*
X0151658Y0030572D01*
X0151570Y0030663D01*
X0151484Y0030756D01*
X0151402Y0030852D01*
X0151323Y0030950D01*
X0151246Y0031051D01*
X0151173Y0031154D01*
X0151104Y0031259D01*
X0151038Y0031367D01*
X0150975Y0031476D01*
X0150915Y0031588D01*
X0150859Y0031701D01*
X0150807Y0031816D01*
X0150759Y0031932D01*
X0150714Y0032051D01*
X0150673Y0032170D01*
X0150635Y0032291D01*
X0150602Y0032412D01*
X0150572Y0032535D01*
X0150547Y0032659D01*
X0150525Y0032783D01*
X0150507Y0032908D01*
X0150493Y0033034D01*
X0150483Y0033160D01*
X0150477Y0033286D01*
X0150475Y0033412D01*
X0151475Y0155412D02*
X0151477Y0155538D01*
X0151483Y0155664D01*
X0151493Y0155790D01*
X0151507Y0155916D01*
X0151525Y0156041D01*
X0151547Y0156165D01*
X0151572Y0156289D01*
X0151602Y0156412D01*
X0151635Y0156533D01*
X0151673Y0156654D01*
X0151714Y0156773D01*
X0151759Y0156892D01*
X0151807Y0157008D01*
X0151859Y0157123D01*
X0151915Y0157236D01*
X0151975Y0157348D01*
X0152038Y0157457D01*
X0152104Y0157565D01*
X0152173Y0157670D01*
X0152246Y0157773D01*
X0152323Y0157874D01*
X0152402Y0157972D01*
X0152484Y0158068D01*
X0152570Y0158161D01*
X0152658Y0158252D01*
X0152749Y0158339D01*
X0152843Y0158424D01*
X0152939Y0158505D01*
X0153038Y0158584D01*
X0153139Y0158659D01*
X0153243Y0158731D01*
X0153349Y0158800D01*
X0153457Y0158866D01*
X0153567Y0158928D01*
X0153679Y0158986D01*
X0153792Y0159041D01*
X0153908Y0159092D01*
X0154025Y0159140D01*
X0154143Y0159184D01*
X0154263Y0159224D01*
X0154384Y0159260D01*
X0154506Y0159293D01*
X0154629Y0159322D01*
X0154753Y0159346D01*
X0154877Y0159367D01*
X0155002Y0159384D01*
X0155128Y0159397D01*
X0155254Y0159406D01*
X0155380Y0159411D01*
X0155507Y0159412D01*
X0155633Y0159409D01*
X0155759Y0159402D01*
X0155885Y0159391D01*
X0156010Y0159376D01*
X0156135Y0159357D01*
X0156259Y0159334D01*
X0156383Y0159308D01*
X0156505Y0159277D01*
X0156627Y0159243D01*
X0156747Y0159204D01*
X0156866Y0159162D01*
X0156984Y0159117D01*
X0157100Y0159067D01*
X0157215Y0159014D01*
X0157327Y0158957D01*
X0157438Y0158897D01*
X0157547Y0158833D01*
X0157654Y0158766D01*
X0157759Y0158696D01*
X0157862Y0158622D01*
X0157962Y0158545D01*
X0158060Y0158465D01*
X0158155Y0158382D01*
X0158247Y0158296D01*
X0158337Y0158207D01*
X0158424Y0158115D01*
X0158507Y0158021D01*
X0158588Y0157924D01*
X0158666Y0157824D01*
X0158741Y0157722D01*
X0158812Y0157618D01*
X0158880Y0157511D01*
X0158944Y0157403D01*
X0159005Y0157292D01*
X0159063Y0157180D01*
X0159117Y0157066D01*
X0159167Y0156950D01*
X0159214Y0156833D01*
X0159257Y0156714D01*
X0159296Y0156594D01*
X0159332Y0156473D01*
X0159363Y0156350D01*
X0159391Y0156227D01*
X0159415Y0156103D01*
X0159435Y0155978D01*
X0159451Y0155853D01*
X0159463Y0155727D01*
X0159471Y0155601D01*
X0159475Y0155475D01*
X0159475Y0155349D01*
X0159471Y0155223D01*
X0159463Y0155097D01*
X0159451Y0154971D01*
X0159435Y0154846D01*
X0159415Y0154721D01*
X0159391Y0154597D01*
X0159363Y0154474D01*
X0159332Y0154351D01*
X0159296Y0154230D01*
X0159257Y0154110D01*
X0159214Y0153991D01*
X0159167Y0153874D01*
X0159117Y0153758D01*
X0159063Y0153644D01*
X0159005Y0153532D01*
X0158944Y0153421D01*
X0158880Y0153313D01*
X0158812Y0153206D01*
X0158741Y0153102D01*
X0158666Y0153000D01*
X0158588Y0152900D01*
X0158507Y0152803D01*
X0158424Y0152709D01*
X0158337Y0152617D01*
X0158247Y0152528D01*
X0158155Y0152442D01*
X0158060Y0152359D01*
X0157962Y0152279D01*
X0157862Y0152202D01*
X0157759Y0152128D01*
X0157654Y0152058D01*
X0157547Y0151991D01*
X0157438Y0151927D01*
X0157327Y0151867D01*
X0157215Y0151810D01*
X0157100Y0151757D01*
X0156984Y0151707D01*
X0156866Y0151662D01*
X0156747Y0151620D01*
X0156627Y0151581D01*
X0156505Y0151547D01*
X0156383Y0151516D01*
X0156259Y0151490D01*
X0156135Y0151467D01*
X0156010Y0151448D01*
X0155885Y0151433D01*
X0155759Y0151422D01*
X0155633Y0151415D01*
X0155507Y0151412D01*
X0155380Y0151413D01*
X0155254Y0151418D01*
X0155128Y0151427D01*
X0155002Y0151440D01*
X0154877Y0151457D01*
X0154753Y0151478D01*
X0154629Y0151502D01*
X0154506Y0151531D01*
X0154384Y0151564D01*
X0154263Y0151600D01*
X0154143Y0151640D01*
X0154025Y0151684D01*
X0153908Y0151732D01*
X0153792Y0151783D01*
X0153679Y0151838D01*
X0153567Y0151896D01*
X0153457Y0151958D01*
X0153349Y0152024D01*
X0153243Y0152093D01*
X0153139Y0152165D01*
X0153038Y0152240D01*
X0152939Y0152319D01*
X0152843Y0152400D01*
X0152749Y0152485D01*
X0152658Y0152572D01*
X0152570Y0152663D01*
X0152484Y0152756D01*
X0152402Y0152852D01*
X0152323Y0152950D01*
X0152246Y0153051D01*
X0152173Y0153154D01*
X0152104Y0153259D01*
X0152038Y0153367D01*
X0151975Y0153476D01*
X0151915Y0153588D01*
X0151859Y0153701D01*
X0151807Y0153816D01*
X0151759Y0153932D01*
X0151714Y0154051D01*
X0151673Y0154170D01*
X0151635Y0154291D01*
X0151602Y0154412D01*
X0151572Y0154535D01*
X0151547Y0154659D01*
X0151525Y0154783D01*
X0151507Y0154908D01*
X0151493Y0155034D01*
X0151483Y0155160D01*
X0151477Y0155286D01*
X0151475Y0155412D01*
D11*
X0024909Y0031080D02*
X0027341Y0027763D01*
X0030550Y0025188D01*
X0034315Y0023532D01*
X0038381Y0022906D01*
X0040137Y0022983D01*
X0040206Y0023012D01*
X0040581Y0023012D01*
X0040954Y0023053D01*
X0041094Y0023012D01*
X0042358Y0023012D01*
X0042646Y0023676D01*
X0042646Y0023676D01*
X0045654Y0027495D01*
X0045654Y0027496D01*
X0049538Y0030420D01*
X0049538Y0030420D01*
X0054039Y0032256D01*
X0054039Y0032256D01*
X0058861Y0032882D01*
X0058861Y0032882D01*
X0063682Y0032256D01*
X0063682Y0032256D01*
X0068184Y0030420D01*
X0068184Y0030420D01*
X0072067Y0027496D01*
X0072067Y0027496D01*
X0072067Y0027495D01*
X0075075Y0023676D01*
X0075075Y0023676D01*
X0075363Y0023012D01*
X0145475Y0023012D01*
X0147423Y0023121D01*
X0151222Y0023988D01*
X0154732Y0025679D01*
X0157779Y0028108D01*
X0159373Y0030107D01*
X0157760Y0028495D01*
X0155629Y0027612D01*
X0153321Y0027612D01*
X0151189Y0028495D01*
X0149558Y0030126D01*
X0148675Y0032258D01*
X0148675Y0034566D01*
X0149558Y0036697D01*
X0151189Y0038329D01*
X0153321Y0039212D01*
X0155629Y0039212D01*
X0157760Y0038329D01*
X0159392Y0036697D01*
X0160275Y0034566D01*
X0160275Y0032258D01*
X0159396Y0030136D01*
X0160208Y0031155D01*
X0161898Y0034665D01*
X0162765Y0038464D01*
X0162875Y0040412D01*
X0162875Y0044295D01*
X0162221Y0044579D01*
X0162221Y0044579D01*
X0158517Y0047695D01*
X0158517Y0047695D01*
X0155861Y0051741D01*
X0155861Y0051741D01*
X0154475Y0056378D01*
X0154475Y0061218D01*
X0155861Y0065855D01*
X0155861Y0065855D01*
X0158517Y0069901D01*
X0158517Y0069901D01*
X0162221Y0073016D01*
X0162221Y0073016D01*
X0162875Y0073300D01*
X0162875Y0113295D01*
X0162221Y0113579D01*
X0162221Y0113579D01*
X0158517Y0116695D01*
X0158517Y0116695D01*
X0155861Y0120741D01*
X0155861Y0120741D01*
X0155175Y0123035D01*
X0155175Y0068708D01*
X0144908Y0058441D01*
X0144897Y0058307D01*
X0144800Y0058225D01*
X0144499Y0056841D01*
X0144553Y0056726D01*
X0144352Y0056168D01*
X0144226Y0055589D01*
X0144119Y0055520D01*
X0143640Y0054187D01*
X0143679Y0054066D01*
X0143407Y0053539D01*
X0143207Y0052981D01*
X0143092Y0052927D01*
X0142443Y0051668D01*
X0142465Y0051543D01*
X0142127Y0051056D01*
X0141856Y0050529D01*
X0141735Y0050490D01*
X0140927Y0049327D01*
X0140933Y0049200D01*
X0140534Y0048761D01*
X0140196Y0048274D01*
X0140071Y0048252D01*
X0139118Y0047203D01*
X0139108Y0047077D01*
X0138655Y0046694D01*
X0138256Y0046255D01*
X0138129Y0046249D01*
X0137048Y0045334D01*
X0137021Y0045210D01*
X0136522Y0044890D01*
X0136070Y0044507D01*
X0135943Y0044517D01*
X0134751Y0043751D01*
X0134708Y0043632D01*
X0134172Y0043379D01*
X0133674Y0043059D01*
X0133549Y0043086D01*
X0132268Y0042482D01*
X0132210Y0042369D01*
X0131645Y0042188D01*
X0131109Y0041936D01*
X0130989Y0041979D01*
X0129640Y0041547D01*
X0129567Y0041443D01*
X0128984Y0041338D01*
X0128420Y0041157D01*
X0128307Y0041215D01*
X0126912Y0040964D01*
X0126827Y0040870D01*
X0126235Y0040842D01*
X0125652Y0040736D01*
X0125547Y0040809D01*
X0124154Y0040742D01*
X0124075Y0040672D01*
X0123464Y0040709D01*
X0122852Y0040680D01*
X0122774Y0040751D01*
X0121547Y0040825D01*
X0121450Y0040759D01*
X0120859Y0040867D01*
X0120259Y0040903D01*
X0120181Y0040991D01*
X0118959Y0041215D01*
X0118855Y0041161D01*
X0118281Y0041339D01*
X0117689Y0041448D01*
X0117623Y0041545D01*
X0116437Y0041914D01*
X0116327Y0041872D01*
X0115779Y0042119D01*
X0115205Y0042298D01*
X0115150Y0042402D01*
X0114018Y0042912D01*
X0113904Y0042884D01*
X0113389Y0043195D01*
X0112841Y0043442D01*
X0112799Y0043551D01*
X0111736Y0044194D01*
X0111619Y0044180D01*
X0111146Y0044551D01*
X0110631Y0044862D01*
X0110603Y0044976D01*
X0109626Y0045742D01*
X0109508Y0045742D01*
X0109083Y0046167D01*
X0108610Y0046538D01*
X0108596Y0046654D01*
X0107717Y0047533D01*
X0107601Y0047547D01*
X0107230Y0048020D01*
X0106805Y0048445D01*
X0106805Y0048563D01*
X0106039Y0049540D01*
X0105925Y0049568D01*
X0105614Y0050083D01*
X0105243Y0050556D01*
X0105257Y0050673D01*
X0104614Y0051736D01*
X0104505Y0051778D01*
X0104258Y0052326D01*
X0103947Y0052841D01*
X0103975Y0052955D01*
X0103465Y0054087D01*
X0103361Y0054142D01*
X0103182Y0054716D01*
X0102935Y0055264D01*
X0102977Y0055374D01*
X0102608Y0056560D01*
X0102511Y0056626D01*
X0102402Y0057218D01*
X0102224Y0057792D01*
X0102278Y0057896D01*
X0102054Y0059118D01*
X0101966Y0059196D01*
X0101930Y0059796D01*
X0101822Y0060387D01*
X0101888Y0060484D01*
X0101813Y0061724D01*
X0101735Y0061812D01*
X0101772Y0062412D01*
X0101735Y0063012D01*
X0101813Y0063100D01*
X0101888Y0064340D01*
X0101822Y0064436D01*
X0101930Y0065028D01*
X0101966Y0065628D01*
X0102054Y0065706D01*
X0102278Y0066928D01*
X0102224Y0067032D01*
X0102402Y0067606D01*
X0102511Y0068197D01*
X0102608Y0068264D01*
X0102977Y0069450D01*
X0102935Y0069560D01*
X0103182Y0070108D01*
X0103361Y0070682D01*
X0103465Y0070737D01*
X0103975Y0071869D01*
X0103947Y0071983D01*
X0104258Y0072498D01*
X0104505Y0073046D01*
X0104614Y0073088D01*
X0105257Y0074151D01*
X0105243Y0074267D01*
X0105614Y0074741D01*
X0105925Y0075255D01*
X0106039Y0075283D01*
X0106805Y0076261D01*
X0106805Y0076378D01*
X0107230Y0076804D01*
X0107601Y0077277D01*
X0107717Y0077291D01*
X0108596Y0078169D01*
X0108610Y0078286D01*
X0109083Y0078657D01*
X0109508Y0079082D01*
X0109626Y0079082D01*
X0110603Y0079848D01*
X0110631Y0079962D01*
X0111146Y0080273D01*
X0111619Y0080644D01*
X0111736Y0080630D01*
X0112799Y0081272D01*
X0112841Y0081382D01*
X0113389Y0081629D01*
X0113904Y0081940D01*
X0114018Y0081912D01*
X0115150Y0082422D01*
X0115205Y0082526D01*
X0115779Y0082705D01*
X0116327Y0082951D01*
X0116437Y0082910D01*
X0117623Y0083279D01*
X0117689Y0083376D01*
X0118281Y0083484D01*
X0118855Y0083663D01*
X0118959Y0083609D01*
X0120181Y0083832D01*
X0120259Y0083920D01*
X0120859Y0083957D01*
X0121450Y0084065D01*
X0121547Y0083998D01*
X0122814Y0084075D01*
X0122924Y0084168D01*
X0123499Y0084116D01*
X0124075Y0084151D01*
X0124183Y0084055D01*
X0125635Y0083926D01*
X0125739Y0083992D01*
X0126321Y0083865D01*
X0126915Y0083812D01*
X0126994Y0083717D01*
X0128397Y0083410D01*
X0128508Y0083463D01*
X0129070Y0083263D01*
X0129653Y0083135D01*
X0129719Y0083032D01*
X0131072Y0082550D01*
X0131189Y0082588D01*
X0131721Y0082319D01*
X0132282Y0082118D01*
X0132335Y0082007D01*
X0133616Y0081358D01*
X0133737Y0081382D01*
X0134231Y0081047D01*
X0134763Y0080778D01*
X0134801Y0080661D01*
X0135990Y0079855D01*
X0136113Y0079863D01*
X0136561Y0079469D01*
X0137054Y0079134D01*
X0137077Y0079014D01*
X0138155Y0078064D01*
X0138278Y0078057D01*
X0138672Y0077609D01*
X0139120Y0077215D01*
X0139127Y0077092D01*
X0140077Y0076014D01*
X0140197Y0075991D01*
X0140532Y0075498D01*
X0140926Y0075050D01*
X0140918Y0074927D01*
X0141724Y0073738D01*
X0141841Y0073700D01*
X0142110Y0073168D01*
X0142445Y0072674D01*
X0142421Y0072553D01*
X0143070Y0071272D01*
X0143181Y0071220D01*
X0143382Y0070658D01*
X0143651Y0070126D01*
X0143613Y0070009D01*
X0144095Y0068656D01*
X0144198Y0068590D01*
X0144326Y0068007D01*
X0144526Y0067445D01*
X0144473Y0067334D01*
X0144780Y0065931D01*
X0144875Y0065852D01*
X0144928Y0065258D01*
X0145055Y0064676D01*
X0144989Y0064572D01*
X0145091Y0063432D01*
X0151775Y0070116D01*
X0151775Y0101308D01*
X0143175Y0092708D01*
X0142179Y0091712D01*
X0076679Y0091712D01*
X0068294Y0083327D01*
X0068327Y0083279D01*
X0069513Y0082910D01*
X0069623Y0082951D01*
X0070171Y0082705D01*
X0070745Y0082526D01*
X0070800Y0082422D01*
X0071932Y0081912D01*
X0072046Y0081940D01*
X0072561Y0081629D01*
X0073109Y0081382D01*
X0073151Y0081272D01*
X0074214Y0080630D01*
X0074330Y0080644D01*
X0074804Y0080273D01*
X0075318Y0079962D01*
X0075346Y0079848D01*
X0076324Y0079082D01*
X0076441Y0079082D01*
X0076867Y0078657D01*
X0077340Y0078286D01*
X0077354Y0078169D01*
X0078232Y0077291D01*
X0078349Y0077277D01*
X0078720Y0076804D01*
X0079145Y0076378D01*
X0079145Y0076261D01*
X0079911Y0075283D01*
X0080025Y0075255D01*
X0080336Y0074741D01*
X0080707Y0074267D01*
X0080693Y0074151D01*
X0081335Y0073088D01*
X0081445Y0073046D01*
X0081692Y0072498D01*
X0082003Y0071983D01*
X0081975Y0071869D01*
X0082485Y0070737D01*
X0082589Y0070682D01*
X0082768Y0070108D01*
X0083014Y0069560D01*
X0082973Y0069450D01*
X0083342Y0068264D01*
X0083439Y0068197D01*
X0083547Y0067606D01*
X0083726Y0067032D01*
X0083672Y0066928D01*
X0083895Y0065706D01*
X0083983Y0065628D01*
X0084020Y0065028D01*
X0084128Y0064436D01*
X0084061Y0064340D01*
X0084138Y0063073D01*
X0084231Y0062962D01*
X0084179Y0062388D01*
X0084214Y0061812D01*
X0084118Y0061703D01*
X0083989Y0060252D01*
X0084055Y0060148D01*
X0083928Y0059565D01*
X0083875Y0058971D01*
X0083780Y0058893D01*
X0083473Y0057490D01*
X0083526Y0057379D01*
X0083326Y0056817D01*
X0083198Y0056234D01*
X0083095Y0056168D01*
X0082613Y0054815D01*
X0082651Y0054698D01*
X0082382Y0054166D01*
X0082181Y0053604D01*
X0082070Y0053551D01*
X0081421Y0052270D01*
X0081445Y0052150D01*
X0081110Y0051656D01*
X0080841Y0051124D01*
X0080724Y0051085D01*
X0079918Y0049897D01*
X0079926Y0049774D01*
X0079532Y0049326D01*
X0079197Y0048832D01*
X0079077Y0048809D01*
X0078127Y0047732D01*
X0078120Y0047609D01*
X0077672Y0047215D01*
X0077278Y0046767D01*
X0077155Y0046759D01*
X0076077Y0045810D01*
X0076054Y0045689D01*
X0075561Y0045355D01*
X0075113Y0044961D01*
X0074990Y0044968D01*
X0073801Y0044163D01*
X0073763Y0044046D01*
X0073231Y0043777D01*
X0072737Y0043442D01*
X0072616Y0043465D01*
X0071335Y0042816D01*
X0071282Y0042705D01*
X0070721Y0042505D01*
X0070189Y0042236D01*
X0070072Y0042274D01*
X0068719Y0041792D01*
X0068653Y0041688D01*
X0068070Y0041561D01*
X0067508Y0041361D01*
X0067397Y0041414D01*
X0065994Y0041106D01*
X0065915Y0041012D01*
X0065321Y0040959D01*
X0064739Y0040831D01*
X0064635Y0040898D01*
X0063241Y0040773D01*
X0063179Y0040712D01*
X0062551Y0040712D01*
X0062379Y0040697D01*
X0062335Y0040659D01*
X0062141Y0040675D01*
X0061924Y0040656D01*
X0061875Y0040698D01*
X0061704Y0040712D01*
X0061071Y0040712D01*
X0061013Y0040770D01*
X0059647Y0040884D01*
X0059540Y0040815D01*
X0058961Y0040941D01*
X0058370Y0040990D01*
X0058288Y0041087D01*
X0056904Y0041388D01*
X0056789Y0041334D01*
X0056231Y0041535D01*
X0055652Y0041661D01*
X0055583Y0041767D01*
X0054250Y0042247D01*
X0054129Y0042208D01*
X0053602Y0042479D01*
X0053044Y0042680D01*
X0052990Y0042795D01*
X0051731Y0043444D01*
X0051606Y0043421D01*
X0051119Y0043759D01*
X0050592Y0044031D01*
X0050553Y0044152D01*
X0049390Y0044960D01*
X0049263Y0044954D01*
X0048824Y0045353D01*
X0048337Y0045691D01*
X0048315Y0045816D01*
X0047266Y0046769D01*
X0047140Y0046779D01*
X0046757Y0047232D01*
X0046318Y0047630D01*
X0046312Y0047757D01*
X0045397Y0048839D01*
X0045273Y0048866D01*
X0044953Y0049364D01*
X0044570Y0049817D01*
X0044580Y0049944D01*
X0043814Y0051135D01*
X0043695Y0051178D01*
X0043442Y0051715D01*
X0043122Y0052213D01*
X0043149Y0052337D01*
X0042545Y0053619D01*
X0042432Y0053677D01*
X0042251Y0054242D01*
X0041999Y0054778D01*
X0042042Y0054897D01*
X0041610Y0056247D01*
X0041506Y0056319D01*
X0041401Y0056903D01*
X0041220Y0057467D01*
X0041278Y0057580D01*
X0041027Y0058974D01*
X0040933Y0059060D01*
X0040905Y0059652D01*
X0040799Y0060235D01*
X0040872Y0060339D01*
X0040805Y0061733D01*
X0040735Y0061812D01*
X0040772Y0062423D01*
X0040743Y0063034D01*
X0040814Y0063112D01*
X0040888Y0064340D01*
X0040822Y0064436D01*
X0040930Y0065028D01*
X0040966Y0065628D01*
X0041054Y0065706D01*
X0041278Y0066928D01*
X0041224Y0067032D01*
X0041402Y0067606D01*
X0041511Y0068197D01*
X0041608Y0068264D01*
X0041977Y0069450D01*
X0041935Y0069560D01*
X0042182Y0070108D01*
X0042361Y0070682D01*
X0042465Y0070737D01*
X0042975Y0071869D01*
X0042947Y0071983D01*
X0043258Y0072498D01*
X0043505Y0073046D01*
X0043614Y0073088D01*
X0044257Y0074151D01*
X0044243Y0074267D01*
X0044614Y0074741D01*
X0044925Y0075255D01*
X0045039Y0075283D01*
X0045805Y0076261D01*
X0045805Y0076378D01*
X0046230Y0076804D01*
X0046601Y0077277D01*
X0046717Y0077291D01*
X0047596Y0078169D01*
X0047610Y0078286D01*
X0048083Y0078657D01*
X0048508Y0079082D01*
X0048626Y0079082D01*
X0049603Y0079848D01*
X0049631Y0079962D01*
X0050146Y0080273D01*
X0050619Y0080644D01*
X0050736Y0080630D01*
X0051799Y0081272D01*
X0051841Y0081382D01*
X0052389Y0081629D01*
X0052904Y0081940D01*
X0053018Y0081912D01*
X0054150Y0082422D01*
X0054205Y0082526D01*
X0054779Y0082705D01*
X0055327Y0082951D01*
X0055437Y0082910D01*
X0056623Y0083279D01*
X0056689Y0083376D01*
X0057281Y0083484D01*
X0057855Y0083663D01*
X0057959Y0083609D01*
X0059181Y0083832D01*
X0059259Y0083920D01*
X0059859Y0083957D01*
X0060450Y0084065D01*
X0060547Y0083998D01*
X0061787Y0084073D01*
X0061875Y0084151D01*
X0062475Y0084115D01*
X0063075Y0084151D01*
X0063163Y0084073D01*
X0064171Y0084012D01*
X0075271Y0095112D01*
X0105871Y0095112D01*
X0083390Y0117593D01*
X0083342Y0117560D01*
X0082973Y0116374D01*
X0083014Y0116264D01*
X0082768Y0115716D01*
X0082589Y0115142D01*
X0082485Y0115087D01*
X0081975Y0113955D01*
X0082003Y0113841D01*
X0081692Y0113326D01*
X0081445Y0112778D01*
X0081335Y0112736D01*
X0080693Y0111673D01*
X0080707Y0111556D01*
X0080336Y0111083D01*
X0080025Y0110568D01*
X0079911Y0110540D01*
X0079145Y0109563D01*
X0079145Y0109445D01*
X0078720Y0109020D01*
X0078349Y0108547D01*
X0078232Y0108533D01*
X0077354Y0107654D01*
X0077340Y0107538D01*
X0076867Y0107167D01*
X0076441Y0106742D01*
X0076324Y0106742D01*
X0075346Y0105976D01*
X0075318Y0105862D01*
X0074804Y0105551D01*
X0074330Y0105180D01*
X0074214Y0105194D01*
X0073151Y0104551D01*
X0073109Y0104442D01*
X0072561Y0104195D01*
X0072046Y0103884D01*
X0071932Y0103912D01*
X0070800Y0103402D01*
X0070745Y0103298D01*
X0070171Y0103119D01*
X0069623Y0102872D01*
X0069513Y0102914D01*
X0068327Y0102545D01*
X0068260Y0102448D01*
X0067669Y0102339D01*
X0067095Y0102161D01*
X0066991Y0102215D01*
X0065769Y0101991D01*
X0065691Y0101903D01*
X0065091Y0101867D01*
X0064499Y0101759D01*
X0064403Y0101825D01*
X0063136Y0101749D01*
X0063025Y0101656D01*
X0062451Y0101707D01*
X0061875Y0101672D01*
X0061766Y0101768D01*
X0060315Y0101898D01*
X0060211Y0101831D01*
X0059628Y0101959D01*
X0059034Y0102012D01*
X0058956Y0102106D01*
X0057553Y0102414D01*
X0057442Y0102361D01*
X0056880Y0102561D01*
X0056297Y0102688D01*
X0056231Y0102792D01*
X0054878Y0103274D01*
X0054761Y0103236D01*
X0054229Y0103505D01*
X0053667Y0103705D01*
X0053614Y0103816D01*
X0052333Y0104465D01*
X0052213Y0104442D01*
X0051719Y0104777D01*
X0051187Y0105046D01*
X0051148Y0105163D01*
X0049960Y0105968D01*
X0049837Y0105961D01*
X0049389Y0106355D01*
X0048895Y0106689D01*
X0048872Y0106810D01*
X0047795Y0107759D01*
X0047672Y0107767D01*
X0047278Y0108215D01*
X0046830Y0108609D01*
X0046822Y0108732D01*
X0045873Y0109809D01*
X0045752Y0109832D01*
X0045418Y0110326D01*
X0045024Y0110774D01*
X0045031Y0110897D01*
X0044226Y0112085D01*
X0044109Y0112124D01*
X0043840Y0112656D01*
X0043505Y0113150D01*
X0043528Y0113270D01*
X0042879Y0114551D01*
X0042768Y0114604D01*
X0042568Y0115166D01*
X0042299Y0115698D01*
X0042337Y0115815D01*
X0041855Y0117168D01*
X0041751Y0117234D01*
X0041624Y0117817D01*
X0041424Y0118379D01*
X0041477Y0118490D01*
X0041169Y0119893D01*
X0041075Y0119971D01*
X0041022Y0120565D01*
X0040894Y0121148D01*
X0040961Y0121252D01*
X0040836Y0122646D01*
X0040775Y0122708D01*
X0040775Y0123336D01*
X0040760Y0123507D01*
X0040722Y0123552D01*
X0040738Y0123745D01*
X0040719Y0123962D01*
X0040761Y0124012D01*
X0040775Y0124183D01*
X0040775Y0124816D01*
X0040833Y0124874D01*
X0040947Y0126240D01*
X0040878Y0126347D01*
X0041004Y0126926D01*
X0041053Y0127517D01*
X0041150Y0127599D01*
X0041451Y0128983D01*
X0041397Y0129098D01*
X0041598Y0129656D01*
X0041723Y0130235D01*
X0041830Y0130304D01*
X0042310Y0131637D01*
X0042271Y0131758D01*
X0042542Y0132285D01*
X0042743Y0132843D01*
X0042858Y0132897D01*
X0043507Y0134156D01*
X0043484Y0134281D01*
X0043822Y0134768D01*
X0044094Y0135295D01*
X0044215Y0135333D01*
X0045023Y0136497D01*
X0045017Y0136624D01*
X0045416Y0137063D01*
X0045754Y0137550D01*
X0045879Y0137572D01*
X0046832Y0138620D01*
X0046842Y0138747D01*
X0047295Y0139130D01*
X0047693Y0139569D01*
X0047820Y0139575D01*
X0048902Y0140490D01*
X0048929Y0140614D01*
X0049427Y0140934D01*
X0049880Y0141317D01*
X0050007Y0141306D01*
X0051198Y0142072D01*
X0051241Y0142192D01*
X0051778Y0142445D01*
X0052276Y0142765D01*
X0052400Y0142738D01*
X0053682Y0143342D01*
X0053740Y0143455D01*
X0054305Y0143635D01*
X0054841Y0143888D01*
X0054960Y0143845D01*
X0056310Y0144276D01*
X0056382Y0144381D01*
X0056966Y0144486D01*
X0057448Y0144640D01*
X0057380Y0144708D01*
X0055446Y0146642D01*
X0055043Y0146862D01*
X0054967Y0147122D01*
X0054775Y0147313D01*
X0054775Y0147772D01*
X0054419Y0148981D01*
X0053974Y0149165D01*
X0053228Y0149911D01*
X0052825Y0150885D01*
X0052825Y0151939D01*
X0053228Y0152913D01*
X0053974Y0153658D01*
X0054948Y0154062D01*
X0056002Y0154062D01*
X0056976Y0153658D01*
X0057721Y0152913D01*
X0058060Y0152097D01*
X0058253Y0152564D01*
X0059322Y0153633D01*
X0060719Y0154212D01*
X0062231Y0154212D01*
X0063627Y0153633D01*
X0064696Y0152564D01*
X0065275Y0151168D01*
X0065275Y0149656D01*
X0064696Y0148259D01*
X0063627Y0147190D01*
X0063438Y0147112D01*
X0067271Y0147112D01*
X0069775Y0149616D01*
X0069775Y0154364D01*
X0069228Y0154911D01*
X0068825Y0155885D01*
X0068825Y0156939D01*
X0069228Y0157913D01*
X0069398Y0158082D01*
X0065918Y0155798D01*
X0065918Y0155798D01*
X0061281Y0154412D01*
X0056441Y0154412D01*
X0051804Y0155798D01*
X0051804Y0155798D01*
X0047758Y0158454D01*
X0047758Y0158454D01*
X0047758Y0158454D01*
X0044642Y0162158D01*
X0044642Y0162158D01*
X0044358Y0162812D01*
X0040475Y0162812D01*
X0038527Y0162702D01*
X0034728Y0161835D01*
X0031217Y0160145D01*
X0030199Y0159333D01*
X0032321Y0160212D01*
X0034629Y0160212D01*
X0036760Y0159329D01*
X0038392Y0157697D01*
X0039275Y0155566D01*
X0039275Y0153258D01*
X0038392Y0151126D01*
X0036760Y0149495D01*
X0034629Y0148612D01*
X0032321Y0148612D01*
X0030189Y0149495D01*
X0028558Y0151126D01*
X0027675Y0153258D01*
X0027675Y0155566D01*
X0028558Y0157697D01*
X0030170Y0159310D01*
X0028171Y0157716D01*
X0025742Y0154669D01*
X0024051Y0151159D01*
X0023184Y0147360D01*
X0023075Y0145412D01*
X0023075Y0075300D01*
X0023739Y0075012D01*
X0023739Y0075012D01*
X0027558Y0072004D01*
X0027559Y0072004D01*
X0027559Y0072004D01*
X0030483Y0068121D01*
X0030483Y0068121D01*
X0032319Y0063619D01*
X0032319Y0063619D01*
X0032945Y0058798D01*
X0032945Y0058798D01*
X0032319Y0053976D01*
X0032319Y0053976D01*
X0030483Y0049475D01*
X0030483Y0049475D01*
X0027559Y0045591D01*
X0027559Y0045591D01*
X0027558Y0045591D01*
X0023739Y0042583D01*
X0023739Y0042583D01*
X0023075Y0042295D01*
X0023075Y0036856D01*
X0023417Y0034914D01*
X0024909Y0031080D01*
X0024706Y0031601D02*
X0025675Y0031601D01*
X0025675Y0031258D02*
X0026558Y0029126D01*
X0028189Y0027495D01*
X0030321Y0026612D01*
X0032629Y0026612D01*
X0034760Y0027495D01*
X0036392Y0029126D01*
X0037275Y0031258D01*
X0037275Y0033566D01*
X0036392Y0035697D01*
X0034760Y0037329D01*
X0032629Y0038212D01*
X0030321Y0038212D01*
X0028189Y0037329D01*
X0026558Y0035697D01*
X0025675Y0033566D01*
X0025675Y0031258D01*
X0025699Y0030003D02*
X0026195Y0030003D01*
X0026871Y0028404D02*
X0027280Y0028404D01*
X0028534Y0026806D02*
X0029853Y0026806D01*
X0030526Y0025207D02*
X0043852Y0025207D01*
X0042617Y0023609D02*
X0034140Y0023609D01*
X0033097Y0026806D02*
X0045111Y0026806D01*
X0046861Y0028404D02*
X0035670Y0028404D01*
X0036755Y0030003D02*
X0048984Y0030003D01*
X0052434Y0031601D02*
X0037275Y0031601D01*
X0037275Y0033200D02*
X0148675Y0033200D01*
X0148771Y0034798D02*
X0036764Y0034798D01*
X0035692Y0036397D02*
X0149433Y0036397D01*
X0150856Y0037995D02*
X0033151Y0037995D01*
X0029799Y0037995D02*
X0023075Y0037995D01*
X0023075Y0039594D02*
X0162829Y0039594D01*
X0162875Y0041193D02*
X0128530Y0041193D01*
X0128351Y0041193D02*
X0128180Y0041193D01*
X0132924Y0042791D02*
X0162875Y0042791D01*
X0162658Y0044390D02*
X0135744Y0044390D01*
X0137821Y0045988D02*
X0160546Y0045988D01*
X0158645Y0047587D02*
X0139467Y0047587D01*
X0140920Y0049185D02*
X0157538Y0049185D01*
X0156489Y0050784D02*
X0141987Y0050784D01*
X0142811Y0052382D02*
X0155669Y0052382D01*
X0155191Y0053981D02*
X0143635Y0053981D01*
X0144211Y0055579D02*
X0154713Y0055579D01*
X0154475Y0057178D02*
X0144572Y0057178D01*
X0145243Y0058776D02*
X0154475Y0058776D01*
X0154475Y0060375D02*
X0146842Y0060375D01*
X0148440Y0061973D02*
X0154700Y0061973D01*
X0155178Y0063572D02*
X0150039Y0063572D01*
X0151637Y0065170D02*
X0155656Y0065170D01*
X0156461Y0066769D02*
X0153236Y0066769D01*
X0154834Y0068367D02*
X0157510Y0068367D01*
X0158517Y0069901D02*
X0158517Y0069901D01*
X0158594Y0069966D02*
X0155175Y0069966D01*
X0155175Y0071564D02*
X0160494Y0071564D01*
X0162558Y0073163D02*
X0155175Y0073163D01*
X0155175Y0074761D02*
X0162875Y0074761D01*
X0162875Y0076360D02*
X0155175Y0076360D01*
X0155175Y0077958D02*
X0162875Y0077958D01*
X0162875Y0079557D02*
X0155175Y0079557D01*
X0155175Y0081155D02*
X0162875Y0081155D01*
X0162875Y0082754D02*
X0155175Y0082754D01*
X0155175Y0084352D02*
X0162875Y0084352D01*
X0162875Y0085951D02*
X0155175Y0085951D01*
X0155175Y0087549D02*
X0162875Y0087549D01*
X0162875Y0089148D02*
X0155175Y0089148D01*
X0155175Y0090746D02*
X0162875Y0090746D01*
X0162875Y0092345D02*
X0155175Y0092345D01*
X0155175Y0093943D02*
X0162875Y0093943D01*
X0162875Y0095542D02*
X0155175Y0095542D01*
X0155175Y0097140D02*
X0162875Y0097140D01*
X0162875Y0098739D02*
X0155175Y0098739D01*
X0155175Y0100337D02*
X0162875Y0100337D01*
X0162875Y0101936D02*
X0155175Y0101936D01*
X0155175Y0103534D02*
X0162875Y0103534D01*
X0162875Y0105133D02*
X0155175Y0105133D01*
X0155175Y0106731D02*
X0162875Y0106731D01*
X0162875Y0108330D02*
X0155175Y0108330D01*
X0155175Y0109929D02*
X0162875Y0109929D01*
X0162875Y0111527D02*
X0155175Y0111527D01*
X0155175Y0113126D02*
X0162875Y0113126D01*
X0160859Y0114724D02*
X0155175Y0114724D01*
X0155175Y0116323D02*
X0158959Y0116323D01*
X0157712Y0117921D02*
X0155175Y0117921D01*
X0155175Y0119520D02*
X0156662Y0119520D01*
X0155748Y0121118D02*
X0155175Y0121118D01*
X0155175Y0122717D02*
X0155270Y0122717D01*
X0147775Y0122717D02*
X0147184Y0122717D01*
X0147775Y0123308D02*
X0147775Y0106116D01*
X0139771Y0098112D01*
X0107679Y0098112D01*
X0084075Y0121716D01*
X0084136Y0122724D01*
X0084214Y0122812D01*
X0084186Y0123282D01*
X0090475Y0117412D01*
X0103136Y0130446D01*
X0102855Y0129656D01*
X0102751Y0129590D01*
X0102624Y0129007D01*
X0102424Y0128445D01*
X0102477Y0128334D01*
X0102169Y0126931D01*
X0102075Y0126852D01*
X0102022Y0126258D01*
X0101894Y0125676D01*
X0101961Y0125572D01*
X0101831Y0124120D01*
X0101735Y0124012D01*
X0101770Y0123436D01*
X0101719Y0122861D01*
X0101812Y0122751D01*
X0101888Y0121484D01*
X0101822Y0121387D01*
X0101930Y0120796D01*
X0101966Y0120196D01*
X0102054Y0120118D01*
X0102278Y0118896D01*
X0102224Y0118792D01*
X0102402Y0118218D01*
X0102511Y0117626D01*
X0102608Y0117560D01*
X0102977Y0116374D01*
X0102935Y0116264D01*
X0103182Y0115716D01*
X0103361Y0115142D01*
X0103465Y0115087D01*
X0103975Y0113955D01*
X0103947Y0113841D01*
X0104258Y0113326D01*
X0104505Y0112778D01*
X0104614Y0112736D01*
X0105257Y0111673D01*
X0105243Y0111556D01*
X0105614Y0111083D01*
X0105925Y0110568D01*
X0106039Y0110540D01*
X0106805Y0109563D01*
X0106805Y0109445D01*
X0107230Y0109020D01*
X0107601Y0108547D01*
X0107717Y0108533D01*
X0108596Y0107654D01*
X0108610Y0107538D01*
X0109083Y0107167D01*
X0109508Y0106742D01*
X0109626Y0106742D01*
X0110603Y0105976D01*
X0110631Y0105862D01*
X0111146Y0105551D01*
X0111619Y0105180D01*
X0111736Y0105194D01*
X0112799Y0104551D01*
X0112841Y0104442D01*
X0113389Y0104195D01*
X0113904Y0103884D01*
X0114018Y0103912D01*
X0115150Y0103402D01*
X0115205Y0103298D01*
X0115779Y0103119D01*
X0116327Y0102872D01*
X0116437Y0102914D01*
X0117623Y0102545D01*
X0117689Y0102448D01*
X0118281Y0102339D01*
X0118855Y0102161D01*
X0118959Y0102215D01*
X0120181Y0101991D01*
X0120259Y0101903D01*
X0120859Y0101867D01*
X0121450Y0101759D01*
X0121547Y0101825D01*
X0122787Y0101750D01*
X0122875Y0101672D01*
X0123475Y0101709D01*
X0124075Y0101672D01*
X0124163Y0101750D01*
X0125403Y0101825D01*
X0125499Y0101759D01*
X0126091Y0101867D01*
X0126691Y0101903D01*
X0126769Y0101991D01*
X0127991Y0102215D01*
X0128095Y0102161D01*
X0128669Y0102339D01*
X0129260Y0102448D01*
X0129327Y0102545D01*
X0130513Y0102914D01*
X0130623Y0102872D01*
X0131171Y0103119D01*
X0131745Y0103298D01*
X0131800Y0103402D01*
X0132932Y0103912D01*
X0133046Y0103884D01*
X0133561Y0104195D01*
X0134109Y0104442D01*
X0134151Y0104551D01*
X0135214Y0105194D01*
X0135330Y0105180D01*
X0135804Y0105551D01*
X0136318Y0105862D01*
X0136346Y0105976D01*
X0137324Y0106742D01*
X0137441Y0106742D01*
X0137867Y0107167D01*
X0138340Y0107538D01*
X0138354Y0107654D01*
X0139232Y0108533D01*
X0139349Y0108547D01*
X0139720Y0109020D01*
X0140145Y0109445D01*
X0140145Y0109563D01*
X0140911Y0110540D01*
X0141025Y0110568D01*
X0141336Y0111083D01*
X0141707Y0111556D01*
X0141693Y0111673D01*
X0142335Y0112736D01*
X0142445Y0112778D01*
X0142692Y0113326D01*
X0143003Y0113841D01*
X0142975Y0113955D01*
X0143485Y0115087D01*
X0143589Y0115142D01*
X0143768Y0115716D01*
X0144014Y0116264D01*
X0143973Y0116374D01*
X0144342Y0117560D01*
X0144439Y0117626D01*
X0144547Y0118218D01*
X0144726Y0118792D01*
X0144672Y0118896D01*
X0144895Y0120118D01*
X0144983Y0120196D01*
X0145004Y0120537D01*
X0147775Y0123308D01*
X0147775Y0121118D02*
X0145585Y0121118D01*
X0144786Y0119520D02*
X0147775Y0119520D01*
X0147775Y0117921D02*
X0144493Y0117921D01*
X0143992Y0116323D02*
X0147775Y0116323D01*
X0147775Y0114724D02*
X0143321Y0114724D01*
X0142602Y0113126D02*
X0147775Y0113126D01*
X0147775Y0111527D02*
X0141684Y0111527D01*
X0140432Y0109929D02*
X0147775Y0109929D01*
X0147775Y0108330D02*
X0139030Y0108330D01*
X0137311Y0106731D02*
X0147775Y0106731D01*
X0146792Y0105133D02*
X0135113Y0105133D01*
X0132094Y0103534D02*
X0145193Y0103534D01*
X0143595Y0101936D02*
X0126720Y0101936D01*
X0120230Y0101936D02*
X0103855Y0101936D01*
X0105453Y0100337D02*
X0141996Y0100337D01*
X0140398Y0098739D02*
X0107052Y0098739D01*
X0105441Y0095542D02*
X0023075Y0095542D01*
X0023075Y0097140D02*
X0103842Y0097140D01*
X0102244Y0098739D02*
X0023075Y0098739D01*
X0023075Y0100337D02*
X0100645Y0100337D01*
X0099047Y0101936D02*
X0065720Y0101936D01*
X0071094Y0103534D02*
X0097448Y0103534D01*
X0095850Y0105133D02*
X0074113Y0105133D01*
X0076311Y0106731D02*
X0094251Y0106731D01*
X0092653Y0108330D02*
X0078030Y0108330D01*
X0079432Y0109929D02*
X0091054Y0109929D01*
X0089456Y0111527D02*
X0080684Y0111527D01*
X0081602Y0113126D02*
X0087857Y0113126D01*
X0086259Y0114724D02*
X0082321Y0114724D01*
X0082992Y0116323D02*
X0084660Y0116323D01*
X0086271Y0119520D02*
X0088217Y0119520D01*
X0087870Y0117921D02*
X0089929Y0117921D01*
X0090970Y0117921D02*
X0102457Y0117921D01*
X0102164Y0119520D02*
X0092522Y0119520D01*
X0094075Y0121118D02*
X0101871Y0121118D01*
X0101814Y0122717D02*
X0095628Y0122717D01*
X0097181Y0124315D02*
X0101849Y0124315D01*
X0101947Y0125914D02*
X0098734Y0125914D01*
X0100287Y0127512D02*
X0102297Y0127512D01*
X0102647Y0129111D02*
X0101839Y0129111D01*
X0110712Y0127512D02*
X0115127Y0127512D01*
X0115322Y0127918D02*
X0114869Y0126976D01*
X0114524Y0125991D01*
X0114292Y0124972D01*
X0114206Y0124212D01*
X0122675Y0124212D01*
X0122675Y0124962D01*
X0123475Y0124962D01*
X0123475Y0128412D01*
X0123475Y0128412D01*
X0123475Y0131862D01*
X0124275Y0131862D01*
X0124275Y0132681D01*
X0125035Y0132595D01*
X0126053Y0132362D01*
X0127039Y0132017D01*
X0127981Y0131564D01*
X0128865Y0131009D01*
X0129682Y0130357D01*
X0130420Y0129619D01*
X0131072Y0128802D01*
X0131627Y0127918D01*
X0132080Y0126976D01*
X0132425Y0125991D01*
X0132658Y0124972D01*
X0132744Y0124212D01*
X0124275Y0124212D01*
X0124275Y0122612D01*
X0132744Y0122612D01*
X0132658Y0121852D01*
X0132425Y0120833D01*
X0132080Y0119847D01*
X0131627Y0118906D01*
X0131072Y0118022D01*
X0130420Y0117205D01*
X0129682Y0116466D01*
X0128865Y0115815D01*
X0127981Y0115259D01*
X0127039Y0114806D01*
X0126053Y0114461D01*
X0125035Y0114229D01*
X0124275Y0114143D01*
X0124275Y0122612D01*
X0122675Y0122612D01*
X0114206Y0122612D01*
X0114292Y0121852D01*
X0114524Y0120833D01*
X0114869Y0119847D01*
X0115322Y0118906D01*
X0115878Y0118022D01*
X0116529Y0117205D01*
X0117268Y0116466D01*
X0118085Y0115815D01*
X0118969Y0115259D01*
X0119910Y0114806D01*
X0120896Y0114461D01*
X0121915Y0114229D01*
X0122675Y0114143D01*
X0122675Y0122612D01*
X0122675Y0124212D01*
X0124275Y0124212D01*
X0124275Y0124962D01*
X0123475Y0124962D01*
X0123475Y0128412D01*
X0123475Y0131862D01*
X0122675Y0131862D01*
X0122675Y0132681D01*
X0121915Y0132595D01*
X0120896Y0132362D01*
X0119910Y0132017D01*
X0118969Y0131564D01*
X0118085Y0131009D01*
X0117268Y0130357D01*
X0116529Y0129619D01*
X0115878Y0128802D01*
X0115322Y0127918D01*
X0116124Y0129111D02*
X0111304Y0129111D01*
X0111518Y0129629D02*
X0112448Y0131201D01*
X0113593Y0132625D01*
X0114928Y0133872D01*
X0116428Y0134916D01*
X0118060Y0135735D01*
X0119793Y0136315D01*
X0121590Y0136641D01*
X0123506Y0136712D01*
X0124099Y0136712D01*
X0125821Y0136558D01*
X0127475Y0136188D01*
X0129065Y0135605D01*
X0130566Y0134820D01*
X0131952Y0133845D01*
X0133198Y0132698D01*
X0134285Y0131398D01*
X0135192Y0129967D01*
X0135905Y0128431D01*
X0136411Y0126814D01*
X0136701Y0125145D01*
X0136772Y0123437D01*
X0136635Y0121520D01*
X0136232Y0119666D01*
X0135569Y0117889D01*
X0134660Y0116224D01*
X0133523Y0114705D01*
X0132182Y0113364D01*
X0130663Y0112227D01*
X0128998Y0111318D01*
X0127221Y0110655D01*
X0125367Y0110252D01*
X0123475Y0110116D01*
X0121583Y0110252D01*
X0119729Y0110655D01*
X0117952Y0111318D01*
X0116287Y0112227D01*
X0114768Y0113364D01*
X0113427Y0114705D01*
X0112290Y0116224D01*
X0111381Y0117889D01*
X0110718Y0119666D01*
X0110315Y0121520D01*
X0110175Y0123473D01*
X0110175Y0124322D01*
X0110371Y0126170D01*
X0110821Y0127940D01*
X0111518Y0129629D01*
X0112157Y0130709D02*
X0117709Y0130709D01*
X0120740Y0132308D02*
X0113337Y0132308D01*
X0114978Y0133906D02*
X0131865Y0133906D01*
X0133524Y0132308D02*
X0126210Y0132308D01*
X0124275Y0132308D02*
X0122675Y0132308D01*
X0123475Y0130709D02*
X0123475Y0130709D01*
X0123475Y0129111D02*
X0123475Y0129111D01*
X0123475Y0128412D02*
X0123475Y0128412D01*
X0123475Y0127512D02*
X0123475Y0127512D01*
X0123475Y0125914D02*
X0123475Y0125914D01*
X0122675Y0124315D02*
X0124275Y0124315D01*
X0124275Y0122717D02*
X0136721Y0122717D01*
X0136736Y0124315D02*
X0132732Y0124315D01*
X0132443Y0125914D02*
X0136567Y0125914D01*
X0136192Y0127512D02*
X0131823Y0127512D01*
X0130825Y0129111D02*
X0135589Y0129111D01*
X0134721Y0130709D02*
X0129240Y0130709D01*
X0129257Y0135505D02*
X0117601Y0135505D01*
X0114507Y0125914D02*
X0110344Y0125914D01*
X0110175Y0124315D02*
X0114218Y0124315D01*
X0114459Y0121118D02*
X0110402Y0121118D01*
X0110229Y0122717D02*
X0122675Y0122717D01*
X0122675Y0121118D02*
X0124275Y0121118D01*
X0124275Y0119520D02*
X0122675Y0119520D01*
X0122675Y0117921D02*
X0124275Y0117921D01*
X0124275Y0116323D02*
X0122675Y0116323D01*
X0122675Y0114724D02*
X0124275Y0114724D01*
X0126804Y0114724D02*
X0133537Y0114724D01*
X0134714Y0116323D02*
X0129501Y0116323D01*
X0130991Y0117921D02*
X0135581Y0117921D01*
X0136177Y0119520D02*
X0131923Y0119520D01*
X0132490Y0121118D02*
X0136548Y0121118D01*
X0131864Y0113126D02*
X0115086Y0113126D01*
X0113412Y0114724D02*
X0120145Y0114724D01*
X0117449Y0116323D02*
X0112236Y0116323D01*
X0111369Y0117921D02*
X0115958Y0117921D01*
X0115027Y0119520D02*
X0110772Y0119520D01*
X0102957Y0116323D02*
X0089468Y0116323D01*
X0091067Y0114724D02*
X0103628Y0114724D01*
X0104348Y0113126D02*
X0092665Y0113126D01*
X0094264Y0111527D02*
X0105266Y0111527D01*
X0106518Y0109929D02*
X0095862Y0109929D01*
X0097461Y0108330D02*
X0107920Y0108330D01*
X0109639Y0106731D02*
X0099059Y0106731D01*
X0100658Y0105133D02*
X0111837Y0105133D01*
X0114856Y0103534D02*
X0102256Y0103534D01*
X0117568Y0111527D02*
X0129381Y0111527D01*
X0146009Y0095542D02*
X0151775Y0095542D01*
X0151775Y0097140D02*
X0147608Y0097140D01*
X0149206Y0098739D02*
X0151775Y0098739D01*
X0151775Y0100337D02*
X0150805Y0100337D01*
X0151775Y0093943D02*
X0144411Y0093943D01*
X0142812Y0092345D02*
X0151775Y0092345D01*
X0151775Y0090746D02*
X0075714Y0090746D01*
X0074115Y0089148D02*
X0151775Y0089148D01*
X0151775Y0087549D02*
X0072516Y0087549D01*
X0070918Y0085951D02*
X0151775Y0085951D01*
X0151775Y0084352D02*
X0069319Y0084352D01*
X0070062Y0082754D02*
X0115888Y0082754D01*
X0112605Y0081155D02*
X0073344Y0081155D01*
X0075718Y0079557D02*
X0110232Y0079557D01*
X0108384Y0077958D02*
X0077565Y0077958D01*
X0079145Y0076360D02*
X0106805Y0076360D01*
X0105626Y0074761D02*
X0080324Y0074761D01*
X0081290Y0073163D02*
X0104660Y0073163D01*
X0103838Y0071564D02*
X0082112Y0071564D01*
X0082832Y0069966D02*
X0103118Y0069966D01*
X0102640Y0068367D02*
X0083310Y0068367D01*
X0083701Y0066769D02*
X0102249Y0066769D01*
X0101939Y0065170D02*
X0084011Y0065170D01*
X0084108Y0063572D02*
X0101842Y0063572D01*
X0101745Y0061973D02*
X0084205Y0061973D01*
X0084000Y0060375D02*
X0101824Y0060375D01*
X0102117Y0058776D02*
X0083755Y0058776D01*
X0083454Y0057178D02*
X0102410Y0057178D01*
X0102913Y0055579D02*
X0082885Y0055579D01*
X0082316Y0053981D02*
X0103513Y0053981D01*
X0104224Y0052382D02*
X0081478Y0052382D01*
X0080519Y0050784D02*
X0105190Y0050784D01*
X0106317Y0049185D02*
X0079436Y0049185D01*
X0078094Y0047587D02*
X0107569Y0047587D01*
X0109262Y0045988D02*
X0076279Y0045988D01*
X0074136Y0044390D02*
X0111352Y0044390D01*
X0114286Y0042791D02*
X0071323Y0042791D01*
X0066388Y0041193D02*
X0118752Y0041193D01*
X0118916Y0041193D02*
X0119083Y0041193D01*
X0121583Y0049252D02*
X0119729Y0049655D01*
X0117952Y0050318D01*
X0116287Y0051227D01*
X0114768Y0052364D01*
X0113427Y0053705D01*
X0112290Y0055224D01*
X0111381Y0056889D01*
X0110718Y0058666D01*
X0110315Y0060520D01*
X0110179Y0062412D01*
X0110315Y0064304D01*
X0110718Y0066158D01*
X0111381Y0067935D01*
X0112290Y0069600D01*
X0113427Y0071119D01*
X0114768Y0072460D01*
X0116287Y0073597D01*
X0117952Y0074506D01*
X0119729Y0075169D01*
X0121583Y0075572D01*
X0123536Y0075712D01*
X0124385Y0075712D01*
X0126233Y0075516D01*
X0128003Y0075066D01*
X0129692Y0074369D01*
X0131264Y0073439D01*
X0132688Y0072294D01*
X0133935Y0070958D01*
X0134979Y0069459D01*
X0135798Y0067826D01*
X0136378Y0066094D01*
X0136704Y0064296D01*
X0136775Y0062380D01*
X0136775Y0061788D01*
X0136621Y0060065D01*
X0136250Y0058412D01*
X0135668Y0056822D01*
X0134882Y0055321D01*
X0133908Y0053935D01*
X0132761Y0052688D01*
X0131461Y0051602D01*
X0130030Y0050695D01*
X0128494Y0049982D01*
X0126877Y0049476D01*
X0125208Y0049185D01*
X0123500Y0049114D01*
X0121583Y0049252D01*
X0122512Y0049185D02*
X0125200Y0049185D01*
X0125035Y0053229D02*
X0124275Y0053143D01*
X0124275Y0061612D01*
X0124275Y0063212D01*
X0122675Y0063212D01*
X0122675Y0071681D01*
X0121915Y0071595D01*
X0120896Y0071362D01*
X0119910Y0071017D01*
X0118969Y0070564D01*
X0118085Y0070009D01*
X0117268Y0069357D01*
X0116529Y0068619D01*
X0115878Y0067802D01*
X0115322Y0066918D01*
X0114869Y0065976D01*
X0114524Y0064991D01*
X0114292Y0063972D01*
X0114206Y0063212D01*
X0122675Y0063212D01*
X0122675Y0061612D01*
X0124275Y0061612D01*
X0125025Y0061612D01*
X0125025Y0062412D01*
X0128475Y0062412D01*
X0131925Y0062412D01*
X0131925Y0063212D01*
X0132744Y0063212D01*
X0132658Y0063972D01*
X0132425Y0064991D01*
X0132080Y0065976D01*
X0131627Y0066918D01*
X0131072Y0067802D01*
X0130420Y0068619D01*
X0129682Y0069357D01*
X0128865Y0070009D01*
X0127981Y0070564D01*
X0127039Y0071017D01*
X0126053Y0071362D01*
X0125035Y0071595D01*
X0124275Y0071681D01*
X0124275Y0063212D01*
X0125025Y0063212D01*
X0125025Y0062412D01*
X0128475Y0062412D01*
X0128475Y0062412D01*
X0131925Y0062412D01*
X0131925Y0061612D01*
X0132744Y0061612D01*
X0132658Y0060852D01*
X0132425Y0059833D01*
X0132080Y0058847D01*
X0131627Y0057906D01*
X0131072Y0057022D01*
X0130420Y0056205D01*
X0129682Y0055466D01*
X0128865Y0054815D01*
X0127981Y0054259D01*
X0127039Y0053806D01*
X0126053Y0053461D01*
X0125035Y0053229D01*
X0124275Y0053981D02*
X0122675Y0053981D01*
X0122675Y0053143D02*
X0122675Y0061612D01*
X0114206Y0061612D01*
X0114292Y0060852D01*
X0114524Y0059833D01*
X0114869Y0058847D01*
X0115322Y0057906D01*
X0115878Y0057022D01*
X0116529Y0056205D01*
X0117268Y0055466D01*
X0118085Y0054815D01*
X0118969Y0054259D01*
X0119910Y0053806D01*
X0120896Y0053461D01*
X0121915Y0053229D01*
X0122675Y0053143D01*
X0122675Y0055579D02*
X0124275Y0055579D01*
X0124275Y0057178D02*
X0122675Y0057178D01*
X0122675Y0058776D02*
X0124275Y0058776D01*
X0124275Y0060375D02*
X0122675Y0060375D01*
X0122675Y0061973D02*
X0110211Y0061973D01*
X0110262Y0063572D02*
X0114247Y0063572D01*
X0114587Y0065170D02*
X0110503Y0065170D01*
X0110946Y0066769D02*
X0115251Y0066769D01*
X0116329Y0068367D02*
X0111617Y0068367D01*
X0112564Y0069966D02*
X0118031Y0069966D01*
X0115707Y0073163D02*
X0131608Y0073163D01*
X0133369Y0071564D02*
X0125170Y0071564D01*
X0124275Y0071564D02*
X0122675Y0071564D01*
X0121780Y0071564D02*
X0113872Y0071564D01*
X0118636Y0074761D02*
X0128741Y0074761D01*
X0128919Y0069966D02*
X0134626Y0069966D01*
X0135527Y0068367D02*
X0130621Y0068367D01*
X0131699Y0066769D02*
X0136152Y0066769D01*
X0136545Y0065170D02*
X0132363Y0065170D01*
X0132703Y0063572D02*
X0136731Y0063572D01*
X0136775Y0061973D02*
X0131925Y0061973D01*
X0132549Y0060375D02*
X0136648Y0060375D01*
X0136332Y0058776D02*
X0132046Y0058776D01*
X0131169Y0057178D02*
X0135798Y0057178D01*
X0135018Y0055579D02*
X0129794Y0055579D01*
X0127401Y0053981D02*
X0133940Y0053981D01*
X0132394Y0052382D02*
X0114750Y0052382D01*
X0113220Y0053981D02*
X0119548Y0053981D01*
X0117155Y0055579D02*
X0112096Y0055579D01*
X0111273Y0057178D02*
X0115780Y0057178D01*
X0114904Y0058776D02*
X0110694Y0058776D01*
X0110346Y0060375D02*
X0114401Y0060375D01*
X0122675Y0063572D02*
X0124275Y0063572D01*
X0124275Y0065170D02*
X0122675Y0065170D01*
X0122675Y0066769D02*
X0124275Y0066769D01*
X0124275Y0068367D02*
X0122675Y0068367D01*
X0122675Y0069966D02*
X0124275Y0069966D01*
X0124275Y0061973D02*
X0125025Y0061973D01*
X0128475Y0062412D02*
X0128475Y0062412D01*
X0130170Y0050784D02*
X0117098Y0050784D01*
X0142114Y0073163D02*
X0151775Y0073163D01*
X0151775Y0074761D02*
X0141031Y0074761D01*
X0139772Y0076360D02*
X0151775Y0076360D01*
X0151775Y0077958D02*
X0138365Y0077958D01*
X0136461Y0079557D02*
X0151775Y0079557D01*
X0151775Y0081155D02*
X0134071Y0081155D01*
X0130499Y0082754D02*
X0151775Y0082754D01*
X0151775Y0071564D02*
X0142922Y0071564D01*
X0143628Y0069966D02*
X0151625Y0069966D01*
X0150026Y0068367D02*
X0144247Y0068367D01*
X0144597Y0066769D02*
X0148428Y0066769D01*
X0146829Y0065170D02*
X0144947Y0065170D01*
X0145078Y0063572D02*
X0145231Y0063572D01*
X0165475Y0071593D02*
X0165475Y0115002D01*
X0165474Y0115003D02*
X0165163Y0115142D01*
X0164855Y0115289D01*
X0164551Y0115444D01*
X0164251Y0115606D01*
X0163955Y0115775D01*
X0163663Y0115951D01*
X0163375Y0116135D01*
X0163092Y0116325D01*
X0162814Y0116522D01*
X0162541Y0116726D01*
X0162272Y0116937D01*
X0162009Y0117154D01*
X0161752Y0117378D01*
X0161500Y0117608D01*
X0161253Y0117843D01*
X0161013Y0118085D01*
X0160778Y0118333D01*
X0160550Y0118586D01*
X0160328Y0118845D01*
X0160112Y0119109D01*
X0159903Y0119379D01*
X0159700Y0119653D01*
X0159504Y0119932D01*
X0159315Y0120216D01*
X0159133Y0120505D01*
X0158958Y0120798D01*
X0158791Y0121095D01*
X0158631Y0121396D01*
X0158478Y0121701D01*
X0158332Y0122009D01*
X0158194Y0122321D01*
X0158064Y0122637D01*
X0157942Y0122955D01*
X0157827Y0123276D01*
X0157721Y0123600D01*
X0157622Y0123927D01*
X0157531Y0124256D01*
X0157449Y0124587D01*
X0157374Y0124919D01*
X0157308Y0125254D01*
X0157250Y0125590D01*
X0157200Y0125928D01*
X0157158Y0126266D01*
X0157125Y0126606D01*
X0157100Y0126946D01*
X0157083Y0127286D01*
X0157075Y0127627D01*
X0157075Y0127969D01*
X0157083Y0128310D01*
X0157100Y0128650D01*
X0157125Y0128990D01*
X0157158Y0129330D01*
X0157200Y0129668D01*
X0157250Y0130006D01*
X0157308Y0130342D01*
X0157374Y0130677D01*
X0157449Y0131009D01*
X0157531Y0131340D01*
X0157622Y0131669D01*
X0157721Y0131996D01*
X0157827Y0132320D01*
X0157942Y0132641D01*
X0158064Y0132959D01*
X0158194Y0133275D01*
X0158332Y0133587D01*
X0158478Y0133895D01*
X0158631Y0134200D01*
X0158791Y0134501D01*
X0158958Y0134798D01*
X0159133Y0135091D01*
X0159315Y0135380D01*
X0159504Y0135664D01*
X0159700Y0135943D01*
X0159903Y0136217D01*
X0160112Y0136487D01*
X0160328Y0136751D01*
X0160550Y0137010D01*
X0160778Y0137263D01*
X0161013Y0137511D01*
X0161253Y0137753D01*
X0161500Y0137988D01*
X0161752Y0138218D01*
X0162009Y0138442D01*
X0162272Y0138659D01*
X0162541Y0138870D01*
X0162814Y0139074D01*
X0163092Y0139271D01*
X0163375Y0139461D01*
X0163663Y0139645D01*
X0163955Y0139821D01*
X0164251Y0139990D01*
X0164551Y0140152D01*
X0164855Y0140307D01*
X0165163Y0140454D01*
X0165474Y0140593D01*
X0165475Y0140593D02*
X0165475Y0149412D01*
X0165470Y0149799D01*
X0165456Y0150185D01*
X0165433Y0150571D01*
X0165400Y0150956D01*
X0165358Y0151341D01*
X0165307Y0151724D01*
X0165247Y0152106D01*
X0165177Y0152486D01*
X0165098Y0152865D01*
X0165010Y0153241D01*
X0164913Y0153615D01*
X0164807Y0153987D01*
X0164692Y0154356D01*
X0164568Y0154723D01*
X0164435Y0155086D01*
X0164294Y0155446D01*
X0164144Y0155802D01*
X0163985Y0156154D01*
X0163818Y0156503D01*
X0163642Y0156848D01*
X0163458Y0157188D01*
X0163267Y0157523D01*
X0163066Y0157854D01*
X0162859Y0158180D01*
X0162643Y0158501D01*
X0162419Y0158817D01*
X0162188Y0159127D01*
X0161950Y0159431D01*
X0161704Y0159729D01*
X0161451Y0160022D01*
X0161191Y0160308D01*
X0160925Y0160588D01*
X0160651Y0160862D01*
X0160371Y0161128D01*
X0160085Y0161388D01*
X0159792Y0161641D01*
X0159494Y0161887D01*
X0159190Y0162125D01*
X0158880Y0162356D01*
X0158564Y0162580D01*
X0158243Y0162796D01*
X0157917Y0163003D01*
X0157586Y0163204D01*
X0157251Y0163395D01*
X0156911Y0163579D01*
X0156566Y0163755D01*
X0156217Y0163922D01*
X0155865Y0164081D01*
X0155509Y0164231D01*
X0155149Y0164372D01*
X0154786Y0164505D01*
X0154419Y0164629D01*
X0154050Y0164744D01*
X0153678Y0164850D01*
X0153304Y0164947D01*
X0152928Y0165035D01*
X0152549Y0165114D01*
X0152169Y0165184D01*
X0151787Y0165244D01*
X0151404Y0165295D01*
X0151019Y0165337D01*
X0150634Y0165370D01*
X0150248Y0165393D01*
X0149862Y0165407D01*
X0149475Y0165412D01*
X0140656Y0165412D01*
X0140656Y0165411D02*
X0140517Y0165100D01*
X0140370Y0164792D01*
X0140215Y0164488D01*
X0140053Y0164188D01*
X0139884Y0163892D01*
X0139708Y0163600D01*
X0139524Y0163312D01*
X0139334Y0163029D01*
X0139137Y0162751D01*
X0138933Y0162478D01*
X0138722Y0162209D01*
X0138505Y0161946D01*
X0138281Y0161689D01*
X0138051Y0161437D01*
X0137816Y0161190D01*
X0137574Y0160950D01*
X0137326Y0160715D01*
X0137073Y0160487D01*
X0136814Y0160265D01*
X0136550Y0160049D01*
X0136280Y0159840D01*
X0136006Y0159637D01*
X0135727Y0159441D01*
X0135443Y0159252D01*
X0135154Y0159070D01*
X0134861Y0158895D01*
X0134564Y0158728D01*
X0134263Y0158568D01*
X0133958Y0158415D01*
X0133650Y0158269D01*
X0133338Y0158131D01*
X0133022Y0158001D01*
X0132704Y0157879D01*
X0132383Y0157764D01*
X0132059Y0157658D01*
X0131732Y0157559D01*
X0131403Y0157468D01*
X0131072Y0157386D01*
X0130740Y0157311D01*
X0130405Y0157245D01*
X0130069Y0157187D01*
X0129731Y0157137D01*
X0129393Y0157095D01*
X0129053Y0157062D01*
X0128713Y0157037D01*
X0128373Y0157020D01*
X0128032Y0157012D01*
X0127690Y0157012D01*
X0127349Y0157020D01*
X0127009Y0157037D01*
X0126669Y0157062D01*
X0126329Y0157095D01*
X0125991Y0157137D01*
X0125653Y0157187D01*
X0125317Y0157245D01*
X0124982Y0157311D01*
X0124650Y0157386D01*
X0124319Y0157468D01*
X0123990Y0157559D01*
X0123663Y0157658D01*
X0123339Y0157764D01*
X0123018Y0157879D01*
X0122700Y0158001D01*
X0122384Y0158131D01*
X0122072Y0158269D01*
X0121764Y0158415D01*
X0121459Y0158568D01*
X0121158Y0158728D01*
X0120861Y0158895D01*
X0120568Y0159070D01*
X0120279Y0159252D01*
X0119995Y0159441D01*
X0119716Y0159637D01*
X0119442Y0159840D01*
X0119172Y0160049D01*
X0118908Y0160265D01*
X0118649Y0160487D01*
X0118396Y0160715D01*
X0118148Y0160950D01*
X0117906Y0161190D01*
X0117671Y0161437D01*
X0117441Y0161689D01*
X0117217Y0161946D01*
X0117000Y0162209D01*
X0116789Y0162478D01*
X0116585Y0162751D01*
X0116388Y0163029D01*
X0116198Y0163312D01*
X0116014Y0163600D01*
X0115838Y0163892D01*
X0115669Y0164188D01*
X0115507Y0164488D01*
X0115352Y0164792D01*
X0115205Y0165100D01*
X0115066Y0165411D01*
X0115065Y0165412D02*
X0071656Y0165412D01*
X0069216Y0157884D02*
X0069095Y0157884D01*
X0068825Y0156285D02*
X0066661Y0156285D01*
X0069452Y0154687D02*
X0062202Y0154687D01*
X0064172Y0153088D02*
X0069775Y0153088D01*
X0069775Y0151490D02*
X0065141Y0151490D01*
X0065275Y0149891D02*
X0069775Y0149891D01*
X0068452Y0148293D02*
X0064710Y0148293D01*
X0058777Y0153088D02*
X0057546Y0153088D01*
X0055520Y0154687D02*
X0039275Y0154687D01*
X0039204Y0153088D02*
X0053404Y0153088D01*
X0052825Y0151490D02*
X0038542Y0151490D01*
X0037157Y0149891D02*
X0053248Y0149891D01*
X0054622Y0148293D02*
X0023397Y0148293D01*
X0023147Y0146694D02*
X0055350Y0146694D01*
X0056992Y0145096D02*
X0023075Y0145096D01*
X0023075Y0143497D02*
X0053873Y0143497D01*
X0050928Y0141899D02*
X0023075Y0141899D01*
X0023075Y0140300D02*
X0048678Y0140300D01*
X0046838Y0138702D02*
X0023075Y0138702D01*
X0023075Y0137103D02*
X0045444Y0137103D01*
X0044334Y0135505D02*
X0023075Y0135505D01*
X0023075Y0133906D02*
X0043378Y0133906D01*
X0042551Y0132308D02*
X0023075Y0132308D01*
X0023075Y0130709D02*
X0041976Y0130709D01*
X0041402Y0129111D02*
X0023075Y0129111D01*
X0023075Y0127512D02*
X0041053Y0127512D01*
X0040919Y0125914D02*
X0023075Y0125914D01*
X0023075Y0124315D02*
X0040775Y0124315D01*
X0040775Y0122717D02*
X0023075Y0122717D01*
X0023075Y0121118D02*
X0040901Y0121118D01*
X0041251Y0119520D02*
X0023075Y0119520D01*
X0023075Y0117921D02*
X0041587Y0117921D01*
X0042156Y0116323D02*
X0023075Y0116323D01*
X0023075Y0114724D02*
X0042726Y0114724D01*
X0043521Y0113126D02*
X0023075Y0113126D01*
X0023075Y0111527D02*
X0044604Y0111527D01*
X0045687Y0109929D02*
X0023075Y0109929D01*
X0023075Y0108330D02*
X0047147Y0108330D01*
X0048887Y0106731D02*
X0023075Y0106731D01*
X0023075Y0105133D02*
X0051158Y0105133D01*
X0054147Y0103534D02*
X0023075Y0103534D01*
X0023075Y0101936D02*
X0059734Y0101936D01*
X0059717Y0110308D02*
X0057946Y0110758D01*
X0056258Y0111455D01*
X0054685Y0112385D01*
X0053261Y0113530D01*
X0052015Y0114865D01*
X0050971Y0116365D01*
X0050151Y0117997D01*
X0049572Y0119730D01*
X0049246Y0121527D01*
X0049175Y0123443D01*
X0049175Y0124036D01*
X0049329Y0125758D01*
X0049699Y0127412D01*
X0050282Y0129002D01*
X0051067Y0130503D01*
X0052042Y0131889D01*
X0053189Y0133135D01*
X0054489Y0134222D01*
X0055919Y0135129D01*
X0057456Y0135842D01*
X0059073Y0136348D01*
X0060742Y0136638D01*
X0062449Y0136709D01*
X0064367Y0136572D01*
X0066221Y0136169D01*
X0067998Y0135506D01*
X0069663Y0134597D01*
X0071182Y0133460D01*
X0072523Y0132119D01*
X0073660Y0130600D01*
X0074569Y0128935D01*
X0075232Y0127158D01*
X0075635Y0125304D01*
X0075771Y0123412D01*
X0075635Y0121520D01*
X0075232Y0119666D01*
X0074569Y0117889D01*
X0073660Y0116224D01*
X0072523Y0114705D01*
X0071182Y0113364D01*
X0069663Y0112227D01*
X0067998Y0111318D01*
X0066221Y0110655D01*
X0064367Y0110252D01*
X0062414Y0110112D01*
X0061565Y0110112D01*
X0059717Y0110308D01*
X0056136Y0111527D02*
X0068381Y0111527D01*
X0070864Y0113126D02*
X0053764Y0113126D01*
X0052147Y0114724D02*
X0059145Y0114724D01*
X0058910Y0114806D02*
X0059896Y0114461D01*
X0060915Y0114229D01*
X0061675Y0114143D01*
X0061675Y0122612D01*
X0063275Y0122612D01*
X0063275Y0124212D01*
X0061675Y0124212D01*
X0061675Y0132681D01*
X0060915Y0132595D01*
X0059896Y0132362D01*
X0058910Y0132017D01*
X0057969Y0131564D01*
X0057085Y0131009D01*
X0056268Y0130357D01*
X0055529Y0129619D01*
X0054878Y0128802D01*
X0054322Y0127918D01*
X0053869Y0126976D01*
X0053524Y0125991D01*
X0053292Y0124972D01*
X0053206Y0124212D01*
X0054025Y0124212D01*
X0054025Y0123412D01*
X0057475Y0123412D01*
X0060925Y0123412D01*
X0060925Y0124212D01*
X0061675Y0124212D01*
X0061675Y0122612D01*
X0060925Y0122612D01*
X0060925Y0123412D01*
X0057475Y0123412D01*
X0057475Y0123412D01*
X0057475Y0123412D01*
X0054025Y0123412D01*
X0054025Y0122612D01*
X0053206Y0122612D01*
X0053292Y0121852D01*
X0053524Y0120833D01*
X0053869Y0119847D01*
X0054322Y0118906D01*
X0054878Y0118022D01*
X0055529Y0117205D01*
X0056268Y0116466D01*
X0057085Y0115815D01*
X0057969Y0115259D01*
X0058910Y0114806D01*
X0056449Y0116323D02*
X0051000Y0116323D01*
X0050190Y0117921D02*
X0054958Y0117921D01*
X0054027Y0119520D02*
X0049643Y0119520D01*
X0049320Y0121118D02*
X0053459Y0121118D01*
X0054025Y0122717D02*
X0049202Y0122717D01*
X0049200Y0124315D02*
X0053218Y0124315D01*
X0053507Y0125914D02*
X0049364Y0125914D01*
X0049736Y0127512D02*
X0054127Y0127512D01*
X0055124Y0129111D02*
X0050339Y0129111D01*
X0051212Y0130709D02*
X0056709Y0130709D01*
X0059740Y0132308D02*
X0052427Y0132308D01*
X0054111Y0133906D02*
X0070586Y0133906D01*
X0072334Y0132308D02*
X0065210Y0132308D01*
X0065053Y0132362D02*
X0064035Y0132595D01*
X0063275Y0132681D01*
X0063275Y0124212D01*
X0071744Y0124212D01*
X0071658Y0124972D01*
X0071425Y0125991D01*
X0071080Y0126976D01*
X0070627Y0127918D01*
X0070072Y0128802D01*
X0069420Y0129619D01*
X0068682Y0130357D01*
X0067865Y0131009D01*
X0066981Y0131564D01*
X0066039Y0132017D01*
X0065053Y0132362D01*
X0063275Y0132308D02*
X0061675Y0132308D01*
X0061675Y0130709D02*
X0063275Y0130709D01*
X0063275Y0129111D02*
X0061675Y0129111D01*
X0061675Y0127512D02*
X0063275Y0127512D01*
X0063275Y0125914D02*
X0061675Y0125914D01*
X0061675Y0124315D02*
X0063275Y0124315D01*
X0063275Y0122717D02*
X0075721Y0122717D01*
X0075706Y0124315D02*
X0071732Y0124315D01*
X0071443Y0125914D02*
X0075503Y0125914D01*
X0075100Y0127512D02*
X0070823Y0127512D01*
X0069825Y0129111D02*
X0074473Y0129111D01*
X0073578Y0130709D02*
X0068240Y0130709D01*
X0068001Y0135505D02*
X0056730Y0135505D01*
X0060925Y0122717D02*
X0061675Y0122717D01*
X0061675Y0121118D02*
X0063275Y0121118D01*
X0063275Y0122612D02*
X0063275Y0114143D01*
X0064035Y0114229D01*
X0065053Y0114461D01*
X0066039Y0114806D01*
X0066981Y0115259D01*
X0067865Y0115815D01*
X0068682Y0116466D01*
X0069420Y0117205D01*
X0070072Y0118022D01*
X0070627Y0118906D01*
X0071080Y0119847D01*
X0071425Y0120833D01*
X0071658Y0121852D01*
X0071744Y0122612D01*
X0063275Y0122612D01*
X0063275Y0119520D02*
X0061675Y0119520D01*
X0061675Y0117921D02*
X0063275Y0117921D01*
X0063275Y0116323D02*
X0061675Y0116323D01*
X0061675Y0114724D02*
X0063275Y0114724D01*
X0065804Y0114724D02*
X0072537Y0114724D01*
X0073714Y0116323D02*
X0068501Y0116323D01*
X0069991Y0117921D02*
X0074581Y0117921D01*
X0075177Y0119520D02*
X0070923Y0119520D01*
X0071490Y0121118D02*
X0075548Y0121118D01*
X0084136Y0122717D02*
X0084791Y0122717D01*
X0084673Y0121118D02*
X0086504Y0121118D01*
X0074102Y0093943D02*
X0023075Y0093943D01*
X0023075Y0092345D02*
X0072504Y0092345D01*
X0070905Y0090746D02*
X0023075Y0090746D01*
X0023075Y0089148D02*
X0069307Y0089148D01*
X0067708Y0087549D02*
X0023075Y0087549D01*
X0023075Y0085951D02*
X0066110Y0085951D01*
X0064511Y0084352D02*
X0023075Y0084352D01*
X0023075Y0082754D02*
X0054888Y0082754D01*
X0051605Y0081155D02*
X0023075Y0081155D01*
X0023075Y0079557D02*
X0049232Y0079557D01*
X0047384Y0077958D02*
X0023075Y0077958D01*
X0023075Y0076360D02*
X0045805Y0076360D01*
X0044626Y0074761D02*
X0024058Y0074761D01*
X0026087Y0073163D02*
X0043660Y0073163D01*
X0042838Y0071564D02*
X0027890Y0071564D01*
X0029094Y0069966D02*
X0042118Y0069966D01*
X0041640Y0068367D02*
X0030298Y0068367D01*
X0031035Y0066769D02*
X0041249Y0066769D01*
X0040939Y0065170D02*
X0031687Y0065170D01*
X0032326Y0063572D02*
X0040842Y0063572D01*
X0040745Y0061973D02*
X0032533Y0061973D01*
X0032741Y0060375D02*
X0040870Y0060375D01*
X0041063Y0058776D02*
X0032943Y0058776D01*
X0032735Y0057178D02*
X0041313Y0057178D01*
X0041824Y0055579D02*
X0032528Y0055579D01*
X0032320Y0053981D02*
X0042335Y0053981D01*
X0043128Y0052382D02*
X0031669Y0052382D01*
X0031017Y0050784D02*
X0044040Y0050784D01*
X0045068Y0049185D02*
X0030265Y0049185D01*
X0029061Y0047587D02*
X0046366Y0047587D01*
X0048125Y0045988D02*
X0027857Y0045988D01*
X0026033Y0044390D02*
X0050211Y0044390D01*
X0052992Y0042791D02*
X0024003Y0042791D01*
X0023075Y0041193D02*
X0057803Y0041193D01*
X0060128Y0049266D02*
X0058475Y0049636D01*
X0056885Y0050219D01*
X0055384Y0051004D01*
X0053998Y0051979D01*
X0052751Y0053126D01*
X0051665Y0054426D01*
X0050758Y0055856D01*
X0050045Y0057393D01*
X0049539Y0059010D01*
X0049248Y0060679D01*
X0049177Y0062386D01*
X0049315Y0064304D01*
X0049718Y0066158D01*
X0050381Y0067935D01*
X0051290Y0069600D01*
X0052427Y0071119D01*
X0053768Y0072460D01*
X0055287Y0073597D01*
X0056952Y0074506D01*
X0058729Y0075169D01*
X0060583Y0075572D01*
X0062475Y0075708D01*
X0064367Y0075572D01*
X0066221Y0075169D01*
X0067998Y0074506D01*
X0069663Y0073597D01*
X0071182Y0072460D01*
X0072523Y0071119D01*
X0073660Y0069600D01*
X0074569Y0067935D01*
X0075232Y0066158D01*
X0075635Y0064304D01*
X0075775Y0062351D01*
X0075775Y0061502D01*
X0075578Y0059654D01*
X0075129Y0057883D01*
X0074432Y0056195D01*
X0073502Y0054622D01*
X0072357Y0053198D01*
X0071021Y0051952D01*
X0069522Y0050908D01*
X0067889Y0050088D01*
X0066157Y0049509D01*
X0064359Y0049183D01*
X0062443Y0049112D01*
X0061851Y0049112D01*
X0060128Y0049266D01*
X0061033Y0049185D02*
X0064373Y0049185D01*
X0064035Y0053229D02*
X0065053Y0053461D01*
X0066039Y0053806D01*
X0066981Y0054259D01*
X0067865Y0054815D01*
X0068682Y0055466D01*
X0069420Y0056205D01*
X0070072Y0057022D01*
X0070627Y0057906D01*
X0071080Y0058847D01*
X0071425Y0059833D01*
X0071658Y0060852D01*
X0071744Y0061612D01*
X0063275Y0061612D01*
X0063275Y0063212D01*
X0071744Y0063212D01*
X0071658Y0063972D01*
X0071425Y0064991D01*
X0071080Y0065976D01*
X0070627Y0066918D01*
X0070072Y0067802D01*
X0069420Y0068619D01*
X0068682Y0069357D01*
X0067865Y0070009D01*
X0066981Y0070564D01*
X0066039Y0071017D01*
X0065053Y0071362D01*
X0064035Y0071595D01*
X0063275Y0071681D01*
X0063275Y0063212D01*
X0061675Y0063212D01*
X0061675Y0071681D01*
X0060915Y0071595D01*
X0059896Y0071362D01*
X0058910Y0071017D01*
X0057969Y0070564D01*
X0057085Y0070009D01*
X0056268Y0069357D01*
X0055529Y0068619D01*
X0054878Y0067802D01*
X0054322Y0066918D01*
X0053869Y0065976D01*
X0053524Y0064991D01*
X0053292Y0063972D01*
X0053206Y0063212D01*
X0061675Y0063212D01*
X0061675Y0061612D01*
X0053206Y0061612D01*
X0053292Y0060852D01*
X0053524Y0059833D01*
X0053869Y0058847D01*
X0054322Y0057906D01*
X0054878Y0057022D01*
X0055529Y0056205D01*
X0056268Y0055466D01*
X0057085Y0054815D01*
X0057969Y0054259D01*
X0058910Y0053806D01*
X0059896Y0053461D01*
X0060915Y0053229D01*
X0061675Y0053143D01*
X0061675Y0053962D01*
X0062475Y0053962D01*
X0063275Y0053962D01*
X0063275Y0053143D01*
X0064035Y0053229D01*
X0062475Y0053962D02*
X0062475Y0057412D01*
X0062475Y0057412D01*
X0062475Y0060862D01*
X0063275Y0060862D01*
X0063275Y0061612D01*
X0061675Y0061612D01*
X0061675Y0060862D01*
X0062475Y0060862D01*
X0062475Y0057412D01*
X0062475Y0057412D01*
X0062475Y0053962D01*
X0062475Y0053981D02*
X0062475Y0053981D01*
X0062475Y0055579D02*
X0062475Y0055579D01*
X0062475Y0057178D02*
X0062475Y0057178D01*
X0062475Y0058776D02*
X0062475Y0058776D01*
X0062475Y0060375D02*
X0062475Y0060375D01*
X0063275Y0061973D02*
X0075775Y0061973D01*
X0075688Y0063572D02*
X0071703Y0063572D01*
X0071363Y0065170D02*
X0075447Y0065170D01*
X0075004Y0066769D02*
X0070699Y0066769D01*
X0069621Y0068367D02*
X0074333Y0068367D01*
X0073386Y0069966D02*
X0067919Y0069966D01*
X0070243Y0073163D02*
X0054707Y0073163D01*
X0052872Y0071564D02*
X0060780Y0071564D01*
X0061675Y0071564D02*
X0063275Y0071564D01*
X0064170Y0071564D02*
X0072077Y0071564D01*
X0067314Y0074761D02*
X0057636Y0074761D01*
X0057031Y0069966D02*
X0051564Y0069966D01*
X0050617Y0068367D02*
X0055329Y0068367D01*
X0054251Y0066769D02*
X0049946Y0066769D01*
X0049503Y0065170D02*
X0053587Y0065170D01*
X0053247Y0063572D02*
X0049262Y0063572D01*
X0049195Y0061973D02*
X0061675Y0061973D01*
X0061675Y0063572D02*
X0063275Y0063572D01*
X0063275Y0065170D02*
X0061675Y0065170D01*
X0061675Y0066769D02*
X0063275Y0066769D01*
X0063275Y0068367D02*
X0061675Y0068367D01*
X0061675Y0069966D02*
X0063275Y0069966D01*
X0071549Y0060375D02*
X0075655Y0060375D01*
X0075356Y0058776D02*
X0071046Y0058776D01*
X0070169Y0057178D02*
X0074838Y0057178D01*
X0074068Y0055579D02*
X0068794Y0055579D01*
X0071482Y0052382D02*
X0053560Y0052382D01*
X0052037Y0053981D02*
X0058548Y0053981D01*
X0056155Y0055579D02*
X0050934Y0055579D01*
X0050145Y0057178D02*
X0054780Y0057178D01*
X0053904Y0058776D02*
X0049612Y0058776D01*
X0049301Y0060375D02*
X0053401Y0060375D01*
X0055805Y0050784D02*
X0069274Y0050784D01*
X0066401Y0053981D02*
X0072986Y0053981D01*
X0065288Y0031601D02*
X0148947Y0031601D01*
X0149681Y0030003D02*
X0068738Y0030003D01*
X0070860Y0028404D02*
X0151408Y0028404D01*
X0153753Y0025207D02*
X0073869Y0025207D01*
X0075104Y0023609D02*
X0149559Y0023609D01*
X0145475Y0020412D02*
X0073656Y0020412D01*
X0072610Y0026806D02*
X0156146Y0026806D01*
X0157542Y0028404D02*
X0158015Y0028404D01*
X0159268Y0030003D02*
X0159290Y0030003D01*
X0160003Y0031601D02*
X0160423Y0031601D01*
X0160275Y0033200D02*
X0161193Y0033200D01*
X0161929Y0034798D02*
X0160178Y0034798D01*
X0159516Y0036397D02*
X0162294Y0036397D01*
X0162659Y0037995D02*
X0158094Y0037995D01*
X0165475Y0040412D02*
X0165475Y0046002D01*
X0165474Y0046003D02*
X0165163Y0046142D01*
X0164855Y0046289D01*
X0164551Y0046444D01*
X0164251Y0046606D01*
X0163955Y0046775D01*
X0163663Y0046951D01*
X0163375Y0047135D01*
X0163092Y0047325D01*
X0162814Y0047522D01*
X0162541Y0047726D01*
X0162272Y0047937D01*
X0162009Y0048154D01*
X0161752Y0048378D01*
X0161500Y0048608D01*
X0161253Y0048843D01*
X0161013Y0049085D01*
X0160778Y0049333D01*
X0160550Y0049586D01*
X0160328Y0049845D01*
X0160112Y0050109D01*
X0159903Y0050379D01*
X0159700Y0050653D01*
X0159504Y0050932D01*
X0159315Y0051216D01*
X0159133Y0051505D01*
X0158958Y0051798D01*
X0158791Y0052095D01*
X0158631Y0052396D01*
X0158478Y0052701D01*
X0158332Y0053009D01*
X0158194Y0053321D01*
X0158064Y0053637D01*
X0157942Y0053955D01*
X0157827Y0054276D01*
X0157721Y0054600D01*
X0157622Y0054927D01*
X0157531Y0055256D01*
X0157449Y0055587D01*
X0157374Y0055919D01*
X0157308Y0056254D01*
X0157250Y0056590D01*
X0157200Y0056928D01*
X0157158Y0057266D01*
X0157125Y0057606D01*
X0157100Y0057946D01*
X0157083Y0058286D01*
X0157075Y0058627D01*
X0157075Y0058969D01*
X0157083Y0059310D01*
X0157100Y0059650D01*
X0157125Y0059990D01*
X0157158Y0060330D01*
X0157200Y0060668D01*
X0157250Y0061006D01*
X0157308Y0061342D01*
X0157374Y0061677D01*
X0157449Y0062009D01*
X0157531Y0062340D01*
X0157622Y0062669D01*
X0157721Y0062996D01*
X0157827Y0063320D01*
X0157942Y0063641D01*
X0158064Y0063959D01*
X0158194Y0064275D01*
X0158332Y0064587D01*
X0158478Y0064895D01*
X0158631Y0065200D01*
X0158791Y0065501D01*
X0158958Y0065798D01*
X0159133Y0066091D01*
X0159315Y0066380D01*
X0159504Y0066664D01*
X0159700Y0066943D01*
X0159903Y0067217D01*
X0160112Y0067487D01*
X0160328Y0067751D01*
X0160550Y0068010D01*
X0160778Y0068263D01*
X0161013Y0068511D01*
X0161253Y0068753D01*
X0161500Y0068988D01*
X0161752Y0069218D01*
X0162009Y0069442D01*
X0162272Y0069659D01*
X0162541Y0069870D01*
X0162814Y0070074D01*
X0163092Y0070271D01*
X0163375Y0070461D01*
X0163663Y0070645D01*
X0163955Y0070821D01*
X0164251Y0070990D01*
X0164551Y0071152D01*
X0164855Y0071307D01*
X0165163Y0071454D01*
X0165474Y0071593D01*
X0165475Y0040412D02*
X0165469Y0039929D01*
X0165452Y0039446D01*
X0165422Y0038963D01*
X0165382Y0038482D01*
X0165329Y0038001D01*
X0165265Y0037522D01*
X0165190Y0037045D01*
X0165102Y0036569D01*
X0165004Y0036096D01*
X0164894Y0035626D01*
X0164773Y0035158D01*
X0164640Y0034693D01*
X0164496Y0034232D01*
X0164341Y0033774D01*
X0164175Y0033320D01*
X0163998Y0032870D01*
X0163811Y0032425D01*
X0163612Y0031984D01*
X0163404Y0031548D01*
X0163184Y0031118D01*
X0162954Y0030692D01*
X0162714Y0030273D01*
X0162464Y0029859D01*
X0162204Y0029452D01*
X0161935Y0029051D01*
X0161655Y0028656D01*
X0161367Y0028269D01*
X0161068Y0027888D01*
X0160761Y0027515D01*
X0160445Y0027150D01*
X0160120Y0026792D01*
X0159787Y0026442D01*
X0159445Y0026100D01*
X0159095Y0025767D01*
X0158737Y0025442D01*
X0158372Y0025126D01*
X0157999Y0024819D01*
X0157618Y0024520D01*
X0157231Y0024232D01*
X0156836Y0023952D01*
X0156435Y0023683D01*
X0156028Y0023423D01*
X0155614Y0023173D01*
X0155195Y0022933D01*
X0154769Y0022703D01*
X0154339Y0022483D01*
X0153903Y0022275D01*
X0153462Y0022076D01*
X0153017Y0021889D01*
X0152567Y0021712D01*
X0152113Y0021546D01*
X0151655Y0021391D01*
X0151194Y0021247D01*
X0150729Y0021114D01*
X0150261Y0020993D01*
X0149791Y0020883D01*
X0149318Y0020785D01*
X0148842Y0020697D01*
X0148365Y0020622D01*
X0147886Y0020558D01*
X0147405Y0020505D01*
X0146924Y0020465D01*
X0146441Y0020435D01*
X0145958Y0020418D01*
X0145475Y0020412D01*
X0073657Y0020412D02*
X0073495Y0020772D01*
X0073325Y0021128D01*
X0073147Y0021480D01*
X0072960Y0021827D01*
X0072764Y0022170D01*
X0072560Y0022507D01*
X0072348Y0022840D01*
X0072128Y0023167D01*
X0071899Y0023489D01*
X0071663Y0023805D01*
X0071420Y0024115D01*
X0071169Y0024419D01*
X0070910Y0024717D01*
X0070645Y0025008D01*
X0070372Y0025293D01*
X0070092Y0025572D01*
X0069806Y0025843D01*
X0069513Y0026107D01*
X0069214Y0026364D01*
X0068908Y0026613D01*
X0068597Y0026855D01*
X0068279Y0027090D01*
X0067956Y0027316D01*
X0067628Y0027534D01*
X0067294Y0027745D01*
X0066956Y0027947D01*
X0066612Y0028141D01*
X0066264Y0028326D01*
X0065911Y0028503D01*
X0065555Y0028671D01*
X0065194Y0028830D01*
X0064829Y0028981D01*
X0064461Y0029122D01*
X0064090Y0029255D01*
X0063715Y0029378D01*
X0063337Y0029492D01*
X0062957Y0029597D01*
X0062574Y0029693D01*
X0062190Y0029779D01*
X0061803Y0029855D01*
X0061414Y0029923D01*
X0061024Y0029980D01*
X0060632Y0030028D01*
X0060240Y0030067D01*
X0059846Y0030096D01*
X0059453Y0030115D01*
X0059058Y0030125D01*
X0058664Y0030125D01*
X0058269Y0030115D01*
X0057876Y0030096D01*
X0057482Y0030067D01*
X0057090Y0030028D01*
X0056698Y0029980D01*
X0056308Y0029923D01*
X0055919Y0029855D01*
X0055532Y0029779D01*
X0055148Y0029693D01*
X0054765Y0029597D01*
X0054385Y0029492D01*
X0054007Y0029378D01*
X0053632Y0029255D01*
X0053261Y0029122D01*
X0052893Y0028981D01*
X0052528Y0028830D01*
X0052167Y0028671D01*
X0051811Y0028503D01*
X0051458Y0028326D01*
X0051110Y0028141D01*
X0050766Y0027947D01*
X0050428Y0027745D01*
X0050094Y0027534D01*
X0049766Y0027316D01*
X0049443Y0027090D01*
X0049125Y0026855D01*
X0048814Y0026613D01*
X0048508Y0026364D01*
X0048209Y0026107D01*
X0047916Y0025843D01*
X0047630Y0025572D01*
X0047350Y0025293D01*
X0047077Y0025008D01*
X0046812Y0024717D01*
X0046553Y0024419D01*
X0046302Y0024115D01*
X0046059Y0023805D01*
X0045823Y0023489D01*
X0045594Y0023167D01*
X0045374Y0022840D01*
X0045162Y0022507D01*
X0044958Y0022170D01*
X0044762Y0021827D01*
X0044575Y0021480D01*
X0044397Y0021128D01*
X0044227Y0020772D01*
X0044065Y0020412D01*
X0040723Y0020412D01*
X0025675Y0033200D02*
X0024084Y0033200D01*
X0023462Y0034798D02*
X0026186Y0034798D01*
X0027258Y0036397D02*
X0023156Y0036397D01*
X0020475Y0036660D02*
X0020475Y0044002D01*
X0020835Y0044164D01*
X0021191Y0044334D01*
X0021543Y0044512D01*
X0021890Y0044699D01*
X0022233Y0044895D01*
X0022570Y0045099D01*
X0022903Y0045311D01*
X0023230Y0045531D01*
X0023552Y0045760D01*
X0023868Y0045996D01*
X0024178Y0046239D01*
X0024482Y0046490D01*
X0024780Y0046749D01*
X0025071Y0047014D01*
X0025356Y0047287D01*
X0025635Y0047567D01*
X0025906Y0047853D01*
X0026170Y0048146D01*
X0026427Y0048445D01*
X0026676Y0048751D01*
X0026918Y0049062D01*
X0027153Y0049380D01*
X0027379Y0049703D01*
X0027597Y0050031D01*
X0027808Y0050365D01*
X0028010Y0050703D01*
X0028204Y0051047D01*
X0028389Y0051395D01*
X0028566Y0051748D01*
X0028734Y0052104D01*
X0028893Y0052465D01*
X0029044Y0052830D01*
X0029185Y0053198D01*
X0029318Y0053569D01*
X0029441Y0053944D01*
X0029555Y0054322D01*
X0029660Y0054702D01*
X0029756Y0055085D01*
X0029842Y0055469D01*
X0029918Y0055856D01*
X0029986Y0056245D01*
X0030043Y0056635D01*
X0030091Y0057027D01*
X0030130Y0057419D01*
X0030159Y0057813D01*
X0030178Y0058206D01*
X0030188Y0058601D01*
X0030188Y0058995D01*
X0030178Y0059390D01*
X0030159Y0059783D01*
X0030130Y0060177D01*
X0030091Y0060569D01*
X0030043Y0060961D01*
X0029986Y0061351D01*
X0029918Y0061740D01*
X0029842Y0062127D01*
X0029756Y0062511D01*
X0029660Y0062894D01*
X0029555Y0063274D01*
X0029441Y0063652D01*
X0029318Y0064027D01*
X0029185Y0064398D01*
X0029044Y0064766D01*
X0028893Y0065131D01*
X0028734Y0065492D01*
X0028566Y0065848D01*
X0028389Y0066201D01*
X0028204Y0066549D01*
X0028010Y0066893D01*
X0027808Y0067231D01*
X0027597Y0067565D01*
X0027379Y0067893D01*
X0027153Y0068216D01*
X0026918Y0068534D01*
X0026676Y0068845D01*
X0026427Y0069151D01*
X0026170Y0069450D01*
X0025906Y0069743D01*
X0025635Y0070029D01*
X0025356Y0070309D01*
X0025071Y0070582D01*
X0024780Y0070847D01*
X0024482Y0071106D01*
X0024178Y0071357D01*
X0023868Y0071600D01*
X0023552Y0071836D01*
X0023230Y0072065D01*
X0022903Y0072285D01*
X0022570Y0072497D01*
X0022233Y0072701D01*
X0021890Y0072897D01*
X0021543Y0073084D01*
X0021191Y0073262D01*
X0020835Y0073432D01*
X0020475Y0073594D01*
X0020475Y0073593D02*
X0020475Y0145412D01*
X0023762Y0149891D02*
X0029793Y0149891D01*
X0028407Y0151490D02*
X0024211Y0151490D01*
X0024981Y0153088D02*
X0027745Y0153088D01*
X0027675Y0154687D02*
X0025756Y0154687D01*
X0027031Y0156285D02*
X0027973Y0156285D01*
X0028382Y0157884D02*
X0028744Y0157884D01*
X0030387Y0159482D02*
X0030560Y0159482D01*
X0033161Y0161081D02*
X0045548Y0161081D01*
X0044416Y0162679D02*
X0038426Y0162679D01*
X0040475Y0165412D02*
X0046065Y0165412D01*
X0046892Y0159482D02*
X0036390Y0159482D01*
X0038205Y0157884D02*
X0048626Y0157884D01*
X0051061Y0156285D02*
X0038977Y0156285D01*
X0040475Y0165412D02*
X0039992Y0165406D01*
X0039509Y0165389D01*
X0039026Y0165359D01*
X0038545Y0165319D01*
X0038064Y0165266D01*
X0037585Y0165202D01*
X0037108Y0165127D01*
X0036632Y0165039D01*
X0036159Y0164941D01*
X0035689Y0164831D01*
X0035221Y0164710D01*
X0034756Y0164577D01*
X0034295Y0164433D01*
X0033837Y0164278D01*
X0033383Y0164112D01*
X0032933Y0163935D01*
X0032488Y0163748D01*
X0032047Y0163549D01*
X0031611Y0163341D01*
X0031181Y0163121D01*
X0030755Y0162891D01*
X0030336Y0162651D01*
X0029922Y0162401D01*
X0029515Y0162141D01*
X0029114Y0161872D01*
X0028719Y0161592D01*
X0028332Y0161304D01*
X0027951Y0161005D01*
X0027578Y0160698D01*
X0027213Y0160382D01*
X0026855Y0160057D01*
X0026505Y0159724D01*
X0026163Y0159382D01*
X0025830Y0159032D01*
X0025505Y0158674D01*
X0025189Y0158309D01*
X0024882Y0157936D01*
X0024583Y0157555D01*
X0024295Y0157168D01*
X0024015Y0156773D01*
X0023746Y0156372D01*
X0023486Y0155965D01*
X0023236Y0155551D01*
X0022996Y0155132D01*
X0022766Y0154706D01*
X0022546Y0154276D01*
X0022338Y0153840D01*
X0022139Y0153399D01*
X0021952Y0152954D01*
X0021775Y0152504D01*
X0021609Y0152050D01*
X0021454Y0151592D01*
X0021310Y0151131D01*
X0021177Y0150666D01*
X0021056Y0150198D01*
X0020946Y0149728D01*
X0020848Y0149255D01*
X0020760Y0148779D01*
X0020685Y0148302D01*
X0020621Y0147823D01*
X0020568Y0147342D01*
X0020528Y0146861D01*
X0020498Y0146378D01*
X0020481Y0145895D01*
X0020475Y0145412D01*
X0046066Y0165411D02*
X0046205Y0165100D01*
X0046352Y0164792D01*
X0046507Y0164488D01*
X0046669Y0164188D01*
X0046838Y0163892D01*
X0047014Y0163600D01*
X0047198Y0163312D01*
X0047388Y0163029D01*
X0047585Y0162751D01*
X0047789Y0162478D01*
X0048000Y0162209D01*
X0048217Y0161946D01*
X0048441Y0161689D01*
X0048671Y0161437D01*
X0048906Y0161190D01*
X0049148Y0160950D01*
X0049396Y0160715D01*
X0049649Y0160487D01*
X0049908Y0160265D01*
X0050172Y0160049D01*
X0050442Y0159840D01*
X0050716Y0159637D01*
X0050995Y0159441D01*
X0051279Y0159252D01*
X0051568Y0159070D01*
X0051861Y0158895D01*
X0052158Y0158728D01*
X0052459Y0158568D01*
X0052764Y0158415D01*
X0053072Y0158269D01*
X0053384Y0158131D01*
X0053700Y0158001D01*
X0054018Y0157879D01*
X0054339Y0157764D01*
X0054663Y0157658D01*
X0054990Y0157559D01*
X0055319Y0157468D01*
X0055650Y0157386D01*
X0055982Y0157311D01*
X0056317Y0157245D01*
X0056653Y0157187D01*
X0056991Y0157137D01*
X0057329Y0157095D01*
X0057669Y0157062D01*
X0058009Y0157037D01*
X0058349Y0157020D01*
X0058690Y0157012D01*
X0059032Y0157012D01*
X0059373Y0157020D01*
X0059713Y0157037D01*
X0060053Y0157062D01*
X0060393Y0157095D01*
X0060731Y0157137D01*
X0061069Y0157187D01*
X0061405Y0157245D01*
X0061740Y0157311D01*
X0062072Y0157386D01*
X0062403Y0157468D01*
X0062732Y0157559D01*
X0063059Y0157658D01*
X0063383Y0157764D01*
X0063704Y0157879D01*
X0064022Y0158001D01*
X0064338Y0158131D01*
X0064650Y0158269D01*
X0064958Y0158415D01*
X0065263Y0158568D01*
X0065564Y0158728D01*
X0065861Y0158895D01*
X0066154Y0159070D01*
X0066443Y0159252D01*
X0066727Y0159441D01*
X0067006Y0159637D01*
X0067280Y0159840D01*
X0067550Y0160049D01*
X0067814Y0160265D01*
X0068073Y0160487D01*
X0068326Y0160715D01*
X0068574Y0160950D01*
X0068816Y0161190D01*
X0069051Y0161437D01*
X0069281Y0161689D01*
X0069505Y0161946D01*
X0069722Y0162209D01*
X0069933Y0162478D01*
X0070137Y0162751D01*
X0070334Y0163029D01*
X0070524Y0163312D01*
X0070708Y0163600D01*
X0070884Y0163892D01*
X0071053Y0164188D01*
X0071215Y0164488D01*
X0071370Y0164792D01*
X0071517Y0165100D01*
X0071656Y0165411D01*
X0020474Y0036660D02*
X0020529Y0036213D01*
X0020594Y0035767D01*
X0020671Y0035323D01*
X0020758Y0034881D01*
X0020856Y0034441D01*
X0020965Y0034004D01*
X0021085Y0033570D01*
X0021215Y0033138D01*
X0021356Y0032710D01*
X0021507Y0032286D01*
X0021669Y0031865D01*
X0021841Y0031449D01*
X0022023Y0031037D01*
X0022215Y0030629D01*
X0022417Y0030226D01*
X0022629Y0029829D01*
X0022850Y0029436D01*
X0023081Y0029050D01*
X0023322Y0028669D01*
X0023572Y0028294D01*
X0023831Y0027925D01*
X0024099Y0027563D01*
X0024376Y0027207D01*
X0024661Y0026859D01*
X0024955Y0026517D01*
X0025257Y0026183D01*
X0025567Y0025856D01*
X0025885Y0025537D01*
X0026211Y0025226D01*
X0026545Y0024923D01*
X0026886Y0024628D01*
X0027233Y0024342D01*
X0027588Y0024064D01*
X0027950Y0023795D01*
X0028318Y0023536D01*
X0028692Y0023285D01*
X0029073Y0023043D01*
X0029459Y0022811D01*
X0029850Y0022588D01*
X0030248Y0022376D01*
X0030650Y0022172D01*
X0031057Y0021979D01*
X0031468Y0021796D01*
X0031884Y0021623D01*
X0032305Y0021461D01*
X0032729Y0021308D01*
X0033156Y0021166D01*
X0033587Y0021035D01*
X0034021Y0020914D01*
X0034458Y0020804D01*
X0034898Y0020705D01*
X0035340Y0020616D01*
X0035783Y0020539D01*
X0036229Y0020472D01*
X0036676Y0020416D01*
X0037124Y0020372D01*
X0037574Y0020338D01*
X0038024Y0020315D01*
X0038474Y0020304D01*
X0038925Y0020303D01*
X0039375Y0020314D01*
X0039825Y0020335D01*
X0040275Y0020368D01*
X0040723Y0020411D01*
D12*
X0062475Y0062412D03*
X0123475Y0062412D03*
X0123475Y0123412D03*
X0062475Y0123412D03*
D13*
X0078475Y0140412D03*
X0086475Y0125412D03*
X0079975Y0123412D03*
X0092475Y0116412D03*
X0123475Y0105912D03*
X0106475Y0082412D03*
X0105975Y0062412D03*
X0080475Y0082412D03*
X0062475Y0079912D03*
X0055475Y0151412D03*
X0071475Y0156412D03*
X0078475Y0159412D03*
X0138475Y0145412D03*
X0141475Y0147412D03*
X0139475Y0151412D03*
X0142475Y0157412D03*
X0146475Y0157412D03*
X0143475Y0138412D03*
D14*
X0140475Y0138412D01*
X0128475Y0150412D01*
X0123475Y0150412D01*
X0114475Y0159412D01*
X0078475Y0159412D01*
X0076475Y0162412D02*
X0113475Y0162412D01*
X0123475Y0152412D01*
X0131475Y0152412D01*
X0138475Y0145412D01*
X0141475Y0147412D02*
X0147665Y0141222D01*
X0147665Y0125602D01*
X0128475Y0106412D01*
X0123975Y0106412D01*
X0123475Y0105912D01*
X0123475Y0103412D02*
X0121064Y0103558D01*
X0118689Y0103993D01*
X0116383Y0104712D01*
X0114180Y0105703D01*
X0112114Y0106952D01*
X0110212Y0108442D01*
X0108505Y0110149D01*
X0107015Y0112051D01*
X0105766Y0114117D01*
X0104775Y0116320D01*
X0104056Y0118626D01*
X0103621Y0121001D01*
X0103475Y0123412D01*
X0103706Y0126000D01*
X0104261Y0128538D01*
X0105133Y0130986D01*
X0106307Y0133304D01*
X0107765Y0135455D01*
X0109482Y0137405D01*
X0111432Y0139122D01*
X0113583Y0140579D01*
X0115901Y0141753D01*
X0118349Y0142625D01*
X0120887Y0143181D01*
X0123475Y0143412D01*
X0123475Y0138412D01*
X0121406Y0138335D01*
X0119369Y0137965D01*
X0117406Y0137309D01*
X0115556Y0136380D01*
X0113857Y0135198D01*
X0112344Y0133785D01*
X0111047Y0132172D01*
X0109993Y0130390D01*
X0109203Y0128477D01*
X0108694Y0126470D01*
X0108475Y0124412D01*
X0108475Y0123412D01*
X0108628Y0121277D01*
X0109082Y0119186D01*
X0109830Y0117181D01*
X0110856Y0115302D01*
X0112139Y0113589D01*
X0113652Y0112076D01*
X0115365Y0110793D01*
X0117244Y0109767D01*
X0119249Y0109019D01*
X0121340Y0108565D01*
X0123475Y0108412D01*
X0125610Y0108565D01*
X0127701Y0109019D01*
X0129706Y0109767D01*
X0131584Y0110793D01*
X0133298Y0112076D01*
X0134811Y0113589D01*
X0136094Y0115302D01*
X0137119Y0117181D01*
X0137867Y0119186D01*
X0138322Y0121277D01*
X0138475Y0123412D01*
X0138395Y0125327D01*
X0138066Y0127216D01*
X0137494Y0129045D01*
X0136687Y0130784D01*
X0135661Y0132403D01*
X0134431Y0133873D01*
X0133021Y0135171D01*
X0131453Y0136274D01*
X0129755Y0137163D01*
X0127955Y0137822D01*
X0126084Y0138241D01*
X0124175Y0138412D01*
X0124175Y0143412D01*
X0126737Y0143198D01*
X0129249Y0142652D01*
X0131668Y0141782D01*
X0133953Y0140604D01*
X0136065Y0139138D01*
X0137967Y0137409D01*
X0139627Y0135446D01*
X0141017Y0133284D01*
X0142113Y0130958D01*
X0142896Y0128510D01*
X0143352Y0125980D01*
X0143475Y0123412D01*
X0143329Y0121001D01*
X0142894Y0118626D01*
X0142175Y0116320D01*
X0141184Y0114117D01*
X0139935Y0112051D01*
X0138445Y0110149D01*
X0136737Y0108442D01*
X0134836Y0106952D01*
X0132769Y0105703D01*
X0130567Y0104712D01*
X0128261Y0103993D01*
X0125886Y0103558D01*
X0123475Y0103412D01*
X0121064Y0103558D01*
X0118689Y0103993D01*
X0116383Y0104712D01*
X0114180Y0105703D01*
X0112114Y0106952D01*
X0110212Y0108442D01*
X0108505Y0110149D01*
X0107015Y0112051D01*
X0105766Y0114117D01*
X0104775Y0116320D01*
X0104056Y0118626D01*
X0103621Y0121001D01*
X0103475Y0123412D01*
X0103706Y0126000D01*
X0104261Y0128538D01*
X0105133Y0130986D01*
X0106307Y0133304D01*
X0107765Y0135455D01*
X0109482Y0137405D01*
X0111432Y0139122D01*
X0113583Y0140579D01*
X0115901Y0141753D01*
X0118349Y0142625D01*
X0120887Y0143181D01*
X0123475Y0143412D01*
X0123475Y0138412D01*
X0121406Y0138335D01*
X0119369Y0137965D01*
X0117406Y0137309D01*
X0115556Y0136380D01*
X0113857Y0135198D01*
X0112344Y0133785D01*
X0111047Y0132172D01*
X0109993Y0130390D01*
X0109203Y0128477D01*
X0108694Y0126470D01*
X0108475Y0124412D01*
X0108475Y0123412D01*
X0108628Y0121277D01*
X0109082Y0119186D01*
X0109830Y0117181D01*
X0110856Y0115302D01*
X0112139Y0113589D01*
X0113652Y0112076D01*
X0115365Y0110793D01*
X0117244Y0109767D01*
X0119249Y0109019D01*
X0121340Y0108565D01*
X0123475Y0108412D01*
X0125610Y0108565D01*
X0127701Y0109019D01*
X0129706Y0109767D01*
X0131584Y0110793D01*
X0133298Y0112076D01*
X0134811Y0113589D01*
X0136094Y0115302D01*
X0137119Y0117181D01*
X0137867Y0119186D01*
X0138322Y0121277D01*
X0138475Y0123412D01*
X0138395Y0125327D01*
X0138066Y0127216D01*
X0137494Y0129045D01*
X0136687Y0130784D01*
X0135661Y0132403D01*
X0134431Y0133873D01*
X0133021Y0135171D01*
X0131453Y0136274D01*
X0129755Y0137163D01*
X0127955Y0137822D01*
X0126084Y0138241D01*
X0124175Y0138412D01*
X0124175Y0143412D01*
X0126737Y0143198D01*
X0129249Y0142652D01*
X0131668Y0141782D01*
X0133953Y0140604D01*
X0136065Y0139138D01*
X0137967Y0137409D01*
X0139627Y0135446D01*
X0141017Y0133284D01*
X0142113Y0130958D01*
X0142896Y0128510D01*
X0143352Y0125980D01*
X0143475Y0123412D01*
X0143329Y0121001D01*
X0142894Y0118626D01*
X0142175Y0116320D01*
X0141184Y0114117D01*
X0139935Y0112051D01*
X0138445Y0110149D01*
X0136737Y0108442D01*
X0134836Y0106952D01*
X0132769Y0105703D01*
X0130567Y0104712D01*
X0128261Y0103993D01*
X0125886Y0103558D01*
X0123475Y0103412D01*
X0126143Y0103605D02*
X0120806Y0103605D01*
X0126143Y0103605D01*
X0128936Y0104203D02*
X0118013Y0104203D01*
X0128936Y0104203D01*
X0130768Y0104802D02*
X0116182Y0104802D01*
X0130768Y0104802D01*
X0132098Y0105400D02*
X0114852Y0105400D01*
X0132098Y0105400D01*
X0133259Y0105999D02*
X0113690Y0105999D01*
X0133259Y0105999D01*
X0134249Y0106598D02*
X0112700Y0106598D01*
X0134249Y0106598D01*
X0135147Y0107196D02*
X0111802Y0107196D01*
X0135147Y0107196D01*
X0135911Y0107795D02*
X0111038Y0107795D01*
X0135911Y0107795D01*
X0136675Y0108393D02*
X0110274Y0108393D01*
X0136675Y0108393D01*
X0137287Y0108992D02*
X0127572Y0108992D01*
X0137287Y0108992D01*
X0137886Y0109590D02*
X0129231Y0109590D01*
X0137886Y0109590D01*
X0138476Y0110189D02*
X0130477Y0110189D01*
X0138476Y0110189D01*
X0138945Y0110787D02*
X0131573Y0110787D01*
X0138945Y0110787D01*
X0139414Y0111386D02*
X0132376Y0111386D01*
X0139414Y0111386D01*
X0139882Y0111984D02*
X0133176Y0111984D01*
X0139882Y0111984D01*
X0140256Y0112583D02*
X0133805Y0112583D01*
X0140256Y0112583D01*
X0140618Y0113181D02*
X0134403Y0113181D01*
X0140618Y0113181D01*
X0140980Y0113780D02*
X0134954Y0113780D01*
X0140980Y0113780D01*
X0141301Y0114378D02*
X0135402Y0114378D01*
X0141301Y0114378D01*
X0141571Y0114977D02*
X0135850Y0114977D01*
X0141571Y0114977D01*
X0141840Y0115575D02*
X0136243Y0115575D01*
X0141840Y0115575D01*
X0142109Y0116174D02*
X0136569Y0116174D01*
X0142109Y0116174D01*
X0142316Y0116772D02*
X0136896Y0116772D01*
X0142316Y0116772D01*
X0142503Y0117371D02*
X0137190Y0117371D01*
X0142503Y0117371D01*
X0142689Y0117969D02*
X0137413Y0117969D01*
X0142689Y0117969D01*
X0142876Y0118568D02*
X0137637Y0118568D01*
X0142876Y0118568D01*
X0142993Y0119166D02*
X0137860Y0119166D01*
X0142993Y0119166D01*
X0143102Y0119765D02*
X0137993Y0119765D01*
X0143102Y0119765D01*
X0143212Y0120363D02*
X0138123Y0120363D01*
X0143212Y0120363D01*
X0143322Y0120962D02*
X0138254Y0120962D01*
X0143322Y0120962D01*
X0143363Y0121560D02*
X0138342Y0121560D01*
X0143363Y0121560D01*
X0143399Y0122159D02*
X0138385Y0122159D01*
X0143399Y0122159D01*
X0143435Y0122757D02*
X0138428Y0122757D01*
X0143435Y0122757D01*
X0143471Y0123356D02*
X0138471Y0123356D01*
X0143471Y0123356D01*
X0143449Y0123954D02*
X0138452Y0123954D01*
X0143449Y0123954D01*
X0143420Y0124553D02*
X0138427Y0124553D01*
X0143420Y0124553D01*
X0143392Y0125151D02*
X0138403Y0125151D01*
X0143392Y0125151D01*
X0143363Y0125750D02*
X0138322Y0125750D01*
X0143363Y0125750D01*
X0143286Y0126348D02*
X0138217Y0126348D01*
X0143286Y0126348D01*
X0143178Y0126947D02*
X0138113Y0126947D01*
X0143178Y0126947D01*
X0143070Y0127545D02*
X0137963Y0127545D01*
X0143070Y0127545D01*
X0142962Y0128144D02*
X0137776Y0128144D01*
X0142962Y0128144D01*
X0142821Y0128742D02*
X0137588Y0128742D01*
X0142821Y0128742D01*
X0142630Y0129341D02*
X0137356Y0129341D01*
X0142630Y0129341D01*
X0142439Y0129939D02*
X0137079Y0129939D01*
X0142439Y0129939D01*
X0142247Y0130538D02*
X0136801Y0130538D01*
X0142247Y0130538D01*
X0142029Y0131136D02*
X0136463Y0131136D01*
X0142029Y0131136D01*
X0141747Y0131735D02*
X0136084Y0131735D01*
X0141747Y0131735D01*
X0141465Y0132333D02*
X0135704Y0132333D01*
X0141465Y0132333D01*
X0141183Y0132932D02*
X0135218Y0132932D01*
X0141183Y0132932D01*
X0140859Y0133531D02*
X0134718Y0133531D01*
X0140859Y0133531D01*
X0140474Y0134129D02*
X0134154Y0134129D01*
X0140474Y0134129D01*
X0140089Y0134728D02*
X0133503Y0134728D01*
X0140089Y0134728D01*
X0139705Y0135326D02*
X0132801Y0135326D01*
X0139705Y0135326D01*
X0139223Y0135925D02*
X0131950Y0135925D01*
X0139223Y0135925D01*
X0138716Y0136523D02*
X0130977Y0136523D01*
X0138716Y0136523D01*
X0138210Y0137122D02*
X0129833Y0137122D01*
X0138210Y0137122D01*
X0137625Y0137720D02*
X0128233Y0137720D01*
X0137625Y0137720D01*
X0136966Y0138319D02*
X0125216Y0138319D01*
X0136966Y0138319D01*
X0136308Y0138917D02*
X0124175Y0138917D01*
X0136308Y0138917D01*
X0135521Y0139516D02*
X0124175Y0139516D01*
X0135521Y0139516D01*
X0134659Y0140114D02*
X0124175Y0140114D01*
X0134659Y0140114D01*
X0133743Y0140713D02*
X0124175Y0140713D01*
X0133743Y0140713D01*
X0132582Y0141311D02*
X0124175Y0141311D01*
X0132582Y0141311D01*
X0131313Y0141910D02*
X0124175Y0141910D01*
X0131313Y0141910D01*
X0129648Y0142508D02*
X0124175Y0142508D01*
X0129648Y0142508D01*
X0127157Y0143107D02*
X0124175Y0143107D01*
X0127157Y0143107D01*
X0123475Y0143107D02*
X0120547Y0143107D01*
X0123475Y0143107D01*
X0123475Y0142508D02*
X0118020Y0142508D01*
X0123475Y0142508D01*
X0123475Y0141910D02*
X0116340Y0141910D01*
X0123475Y0141910D01*
X0123475Y0141311D02*
X0115028Y0141311D01*
X0123475Y0141311D01*
X0123475Y0140713D02*
X0113846Y0140713D01*
X0123475Y0140713D01*
X0123475Y0140114D02*
X0112896Y0140114D01*
X0123475Y0140114D01*
X0123475Y0139516D02*
X0112013Y0139516D01*
X0123475Y0139516D01*
X0123475Y0138917D02*
X0111199Y0138917D01*
X0123475Y0138917D01*
X0121314Y0138319D02*
X0110520Y0138319D01*
X0121314Y0138319D01*
X0118636Y0137720D02*
X0109840Y0137720D01*
X0118636Y0137720D01*
X0117032Y0137122D02*
X0109233Y0137122D01*
X0117032Y0137122D01*
X0115840Y0136523D02*
X0108706Y0136523D01*
X0115840Y0136523D01*
X0114901Y0135925D02*
X0108179Y0135925D01*
X0114901Y0135925D01*
X0114042Y0135326D02*
X0107678Y0135326D01*
X0114042Y0135326D01*
X0113354Y0134728D02*
X0107272Y0134728D01*
X0113354Y0134728D01*
X0112712Y0134129D02*
X0106867Y0134129D01*
X0112712Y0134129D01*
X0112139Y0133531D02*
X0106461Y0133531D01*
X0112139Y0133531D01*
X0111658Y0132932D02*
X0106119Y0132932D01*
X0111658Y0132932D01*
X0111177Y0132333D02*
X0105816Y0132333D01*
X0111177Y0132333D01*
X0110789Y0131735D02*
X0105513Y0131735D01*
X0110789Y0131735D01*
X0110434Y0131136D02*
X0105210Y0131136D01*
X0110434Y0131136D01*
X0110080Y0130538D02*
X0104974Y0130538D01*
X0110080Y0130538D01*
X0109807Y0129939D02*
X0104761Y0129939D01*
X0109807Y0129939D01*
X0109560Y0129341D02*
X0104547Y0129341D01*
X0109560Y0129341D01*
X0109313Y0128742D02*
X0104334Y0128742D01*
X0109313Y0128742D01*
X0109119Y0128144D02*
X0104175Y0128144D01*
X0109119Y0128144D01*
X0108967Y0127545D02*
X0104044Y0127545D01*
X0108967Y0127545D01*
X0108815Y0126947D02*
X0103913Y0126947D01*
X0108815Y0126947D01*
X0108681Y0126348D02*
X0103782Y0126348D01*
X0108681Y0126348D01*
X0108617Y0125750D02*
X0103683Y0125750D01*
X0108617Y0125750D01*
X0108553Y0125151D02*
X0103630Y0125151D01*
X0108553Y0125151D01*
X0108490Y0124553D02*
X0103577Y0124553D01*
X0108490Y0124553D01*
X0108475Y0123954D02*
X0103523Y0123954D01*
X0108475Y0123954D01*
X0108479Y0123356D02*
X0103478Y0123356D01*
X0108479Y0123356D01*
X0108522Y0122757D02*
X0103514Y0122757D01*
X0108522Y0122757D01*
X0108564Y0122159D02*
X0103551Y0122159D01*
X0108564Y0122159D01*
X0108607Y0121560D02*
X0103587Y0121560D01*
X0108607Y0121560D01*
X0108696Y0120962D02*
X0103628Y0120962D01*
X0108696Y0120962D01*
X0108826Y0120363D02*
X0103738Y0120363D01*
X0108826Y0120363D01*
X0108957Y0119765D02*
X0103847Y0119765D01*
X0108957Y0119765D01*
X0109090Y0119166D02*
X0103957Y0119166D01*
X0109090Y0119166D01*
X0109313Y0118568D02*
X0104074Y0118568D01*
X0109313Y0118568D01*
X0109536Y0117969D02*
X0104261Y0117969D01*
X0109536Y0117969D01*
X0109759Y0117371D02*
X0104447Y0117371D01*
X0109759Y0117371D01*
X0110053Y0116772D02*
X0104634Y0116772D01*
X0110053Y0116772D01*
X0110380Y0116174D02*
X0104840Y0116174D01*
X0110380Y0116174D01*
X0110707Y0115575D02*
X0105110Y0115575D01*
X0110707Y0115575D01*
X0111100Y0114977D02*
X0105379Y0114977D01*
X0111100Y0114977D01*
X0111548Y0114378D02*
X0105648Y0114378D01*
X0111548Y0114378D01*
X0111996Y0113780D02*
X0105970Y0113780D01*
X0111996Y0113780D01*
X0112546Y0113181D02*
X0106332Y0113181D01*
X0112546Y0113181D01*
X0113145Y0112583D02*
X0106694Y0112583D01*
X0113145Y0112583D01*
X0113774Y0111984D02*
X0107067Y0111984D01*
X0113774Y0111984D01*
X0114574Y0111386D02*
X0107536Y0111386D01*
X0114574Y0111386D01*
X0115376Y0110787D02*
X0108005Y0110787D01*
X0115376Y0110787D01*
X0116472Y0110189D02*
X0108474Y0110189D01*
X0116472Y0110189D01*
X0117719Y0109590D02*
X0109064Y0109590D01*
X0117719Y0109590D01*
X0119377Y0108992D02*
X0109663Y0108992D01*
X0119377Y0108992D01*
X0106975Y0096412D02*
X0079975Y0123412D01*
X0082471Y0123356D02*
X0077471Y0123356D01*
X0082471Y0123356D01*
X0082475Y0123412D02*
X0082329Y0121001D01*
X0081894Y0118626D01*
X0081175Y0116320D01*
X0080184Y0114117D01*
X0078935Y0112051D01*
X0077445Y0110149D01*
X0075737Y0108442D01*
X0073836Y0106952D01*
X0071769Y0105703D01*
X0069567Y0104712D01*
X0067261Y0103993D01*
X0064886Y0103558D01*
X0062475Y0103412D01*
X0059887Y0103643D01*
X0057349Y0104198D01*
X0054901Y0105070D01*
X0052583Y0106244D01*
X0050432Y0107702D01*
X0048482Y0109419D01*
X0046765Y0111369D01*
X0045307Y0113520D01*
X0044133Y0115838D01*
X0043261Y0118286D01*
X0042706Y0120824D01*
X0042475Y0123412D01*
X0047475Y0123412D01*
X0047551Y0121343D01*
X0047921Y0119306D01*
X0048577Y0117343D01*
X0049506Y0115493D01*
X0050689Y0113794D01*
X0052102Y0112281D01*
X0053715Y0110984D01*
X0055497Y0109930D01*
X0057410Y0109140D01*
X0059416Y0108631D01*
X0061475Y0108412D01*
X0062475Y0108412D01*
X0064610Y0108565D01*
X0066701Y0109019D01*
X0068706Y0109767D01*
X0070584Y0110793D01*
X0072298Y0112076D01*
X0073811Y0113589D01*
X0075094Y0115302D01*
X0076119Y0117181D01*
X0076867Y0119186D01*
X0077322Y0121277D01*
X0077475Y0123412D01*
X0077322Y0125547D01*
X0076867Y0127638D01*
X0076119Y0129643D01*
X0075094Y0131521D01*
X0073811Y0133235D01*
X0072298Y0134748D01*
X0070584Y0136031D01*
X0068706Y0137056D01*
X0066701Y0137804D01*
X0064610Y0138259D01*
X0062475Y0138412D01*
X0060560Y0138332D01*
X0058671Y0138003D01*
X0056842Y0137431D01*
X0055103Y0136624D01*
X0053484Y0135598D01*
X0052013Y0134368D01*
X0050715Y0132958D01*
X0049613Y0131390D01*
X0048724Y0129692D01*
X0048065Y0127892D01*
X0047646Y0126021D01*
X0047475Y0124112D01*
X0042475Y0124112D01*
X0042689Y0126674D01*
X0043235Y0129186D01*
X0044105Y0131605D01*
X0045282Y0133890D01*
X0046749Y0136002D01*
X0048478Y0137904D01*
X0050440Y0139564D01*
X0052603Y0140954D01*
X0054928Y0142050D01*
X0057377Y0142833D01*
X0059907Y0143289D01*
X0062475Y0143412D01*
X0064886Y0143266D01*
X0067261Y0142831D01*
X0069567Y0142112D01*
X0071769Y0141121D01*
X0073836Y0139872D01*
X0075737Y0138382D01*
X0077445Y0136674D01*
X0078935Y0134773D01*
X0080184Y0132706D01*
X0081175Y0130504D01*
X0081894Y0128198D01*
X0082329Y0125823D01*
X0082475Y0123412D01*
X0082329Y0121001D01*
X0081894Y0118626D01*
X0081175Y0116320D01*
X0080184Y0114117D01*
X0078935Y0112051D01*
X0077445Y0110149D01*
X0075737Y0108442D01*
X0073836Y0106952D01*
X0071769Y0105703D01*
X0069567Y0104712D01*
X0067261Y0103993D01*
X0064886Y0103558D01*
X0062475Y0103412D01*
X0059887Y0103643D01*
X0057349Y0104198D01*
X0054901Y0105070D01*
X0052583Y0106244D01*
X0050432Y0107702D01*
X0048482Y0109419D01*
X0046765Y0111369D01*
X0045307Y0113520D01*
X0044133Y0115838D01*
X0043261Y0118286D01*
X0042706Y0120824D01*
X0042475Y0123412D01*
X0047475Y0123412D01*
X0047551Y0121343D01*
X0047921Y0119306D01*
X0048577Y0117343D01*
X0049506Y0115493D01*
X0050689Y0113794D01*
X0052102Y0112281D01*
X0053715Y0110984D01*
X0055497Y0109930D01*
X0057410Y0109140D01*
X0059416Y0108631D01*
X0061475Y0108412D01*
X0062475Y0108412D01*
X0064610Y0108565D01*
X0066701Y0109019D01*
X0068706Y0109767D01*
X0070584Y0110793D01*
X0072298Y0112076D01*
X0073811Y0113589D01*
X0075094Y0115302D01*
X0076119Y0117181D01*
X0076867Y0119186D01*
X0077322Y0121277D01*
X0077475Y0123412D01*
X0077322Y0125547D01*
X0076867Y0127638D01*
X0076119Y0129643D01*
X0075094Y0131521D01*
X0073811Y0133235D01*
X0072298Y0134748D01*
X0070584Y0136031D01*
X0068706Y0137056D01*
X0066701Y0137804D01*
X0064610Y0138259D01*
X0062475Y0138412D01*
X0060560Y0138332D01*
X0058671Y0138003D01*
X0056842Y0137431D01*
X0055103Y0136624D01*
X0053484Y0135598D01*
X0052013Y0134368D01*
X0050715Y0132958D01*
X0049613Y0131390D01*
X0048724Y0129692D01*
X0048065Y0127892D01*
X0047646Y0126021D01*
X0047475Y0124112D01*
X0042475Y0124112D01*
X0042689Y0126674D01*
X0043235Y0129186D01*
X0044105Y0131605D01*
X0045282Y0133890D01*
X0046749Y0136002D01*
X0048478Y0137904D01*
X0050440Y0139564D01*
X0052603Y0140954D01*
X0054928Y0142050D01*
X0057377Y0142833D01*
X0059907Y0143289D01*
X0062475Y0143412D01*
X0064886Y0143266D01*
X0067261Y0142831D01*
X0069567Y0142112D01*
X0071769Y0141121D01*
X0073836Y0139872D01*
X0075737Y0138382D01*
X0077445Y0136674D01*
X0078935Y0134773D01*
X0080184Y0132706D01*
X0081175Y0130504D01*
X0081894Y0128198D01*
X0082329Y0125823D01*
X0082475Y0123412D01*
X0082442Y0123954D02*
X0077436Y0123954D01*
X0082442Y0123954D01*
X0082406Y0124553D02*
X0077393Y0124553D01*
X0082406Y0124553D01*
X0082370Y0125151D02*
X0077350Y0125151D01*
X0082370Y0125151D01*
X0082333Y0125750D02*
X0077278Y0125750D01*
X0082333Y0125750D01*
X0082233Y0126348D02*
X0077148Y0126348D01*
X0082233Y0126348D01*
X0082123Y0126947D02*
X0077018Y0126947D01*
X0082123Y0126947D01*
X0082013Y0127545D02*
X0076887Y0127545D01*
X0082013Y0127545D01*
X0081904Y0128144D02*
X0076679Y0128144D01*
X0081904Y0128144D01*
X0081724Y0128742D02*
X0076455Y0128742D01*
X0081724Y0128742D01*
X0081538Y0129341D02*
X0076232Y0129341D01*
X0081538Y0129341D01*
X0081351Y0129939D02*
X0075958Y0129939D01*
X0081351Y0129939D01*
X0081160Y0130538D02*
X0075631Y0130538D01*
X0081160Y0130538D01*
X0080891Y0131136D02*
X0075304Y0131136D01*
X0080891Y0131136D01*
X0080621Y0131735D02*
X0074934Y0131735D01*
X0080621Y0131735D01*
X0080352Y0132333D02*
X0074486Y0132333D01*
X0080352Y0132333D01*
X0080048Y0132932D02*
X0074038Y0132932D01*
X0080048Y0132932D01*
X0079686Y0133531D02*
X0073515Y0133531D01*
X0079686Y0133531D01*
X0079324Y0134129D02*
X0072917Y0134129D01*
X0079324Y0134129D01*
X0078962Y0134728D02*
X0072318Y0134728D01*
X0078962Y0134728D01*
X0078501Y0135326D02*
X0071526Y0135326D01*
X0078501Y0135326D01*
X0078032Y0135925D02*
X0070726Y0135925D01*
X0078032Y0135925D01*
X0077564Y0136523D02*
X0069683Y0136523D01*
X0077564Y0136523D01*
X0076998Y0137122D02*
X0068531Y0137122D01*
X0076998Y0137122D01*
X0076399Y0137720D02*
X0066927Y0137720D01*
X0076399Y0137720D01*
X0075801Y0138319D02*
X0063779Y0138319D01*
X0075801Y0138319D01*
X0075054Y0138917D02*
X0049675Y0138917D01*
X0075054Y0138917D01*
X0074290Y0139516D02*
X0050383Y0139516D01*
X0074290Y0139516D01*
X0073435Y0140114D02*
X0051296Y0140114D01*
X0073435Y0140114D01*
X0072445Y0140713D02*
X0052227Y0140713D01*
X0072445Y0140713D01*
X0071347Y0141311D02*
X0053360Y0141311D01*
X0071347Y0141311D01*
X0070017Y0141910D02*
X0054631Y0141910D01*
X0070017Y0141910D01*
X0068296Y0142508D02*
X0056361Y0142508D01*
X0068296Y0142508D01*
X0065755Y0143107D02*
X0058894Y0143107D01*
X0065755Y0143107D01*
X0067975Y0145412D02*
X0071475Y0148912D01*
X0071475Y0156412D01*
X0076475Y0162412D01*
X0067975Y0145412D02*
X0059080Y0145412D01*
X0056475Y0148017D01*
X0055475Y0151412D01*
X0057767Y0137720D02*
X0048311Y0137720D01*
X0057767Y0137720D01*
X0056176Y0137122D02*
X0047766Y0137122D01*
X0056176Y0137122D01*
X0054944Y0136523D02*
X0047222Y0136523D01*
X0054944Y0136523D01*
X0054000Y0135925D02*
X0046695Y0135925D01*
X0054000Y0135925D01*
X0053159Y0135326D02*
X0046279Y0135326D01*
X0053159Y0135326D01*
X0052443Y0134728D02*
X0045864Y0134728D01*
X0052443Y0134728D01*
X0051793Y0134129D02*
X0045448Y0134129D01*
X0051793Y0134129D01*
X0051242Y0133531D02*
X0045097Y0133531D01*
X0051242Y0133531D01*
X0050697Y0132932D02*
X0044789Y0132932D01*
X0050697Y0132932D01*
X0050276Y0132333D02*
X0044480Y0132333D01*
X0050276Y0132333D01*
X0049855Y0131735D02*
X0044172Y0131735D01*
X0049855Y0131735D01*
X0049480Y0131136D02*
X0043936Y0131136D01*
X0049480Y0131136D01*
X0049167Y0130538D02*
X0043721Y0130538D01*
X0049167Y0130538D01*
X0048854Y0129939D02*
X0043506Y0129939D01*
X0048854Y0129939D01*
X0048596Y0129341D02*
X0043291Y0129341D01*
X0048596Y0129341D01*
X0048376Y0128742D02*
X0043139Y0128742D01*
X0048376Y0128742D01*
X0048157Y0128144D02*
X0043008Y0128144D01*
X0048157Y0128144D01*
X0047987Y0127545D02*
X0042878Y0127545D01*
X0047987Y0127545D01*
X0047853Y0126947D02*
X0042748Y0126947D01*
X0047853Y0126947D01*
X0047719Y0126348D02*
X0042662Y0126348D01*
X0047719Y0126348D01*
X0047622Y0125750D02*
X0042612Y0125750D01*
X0047622Y0125750D01*
X0047568Y0125151D02*
X0042562Y0125151D01*
X0047568Y0125151D01*
X0047514Y0124553D02*
X0042512Y0124553D01*
X0047514Y0124553D01*
X0047477Y0123356D02*
X0042480Y0123356D01*
X0047477Y0123356D01*
X0047499Y0122757D02*
X0042533Y0122757D01*
X0047499Y0122757D01*
X0047521Y0122159D02*
X0042587Y0122159D01*
X0047521Y0122159D01*
X0047543Y0121560D02*
X0042640Y0121560D01*
X0047543Y0121560D01*
X0047621Y0120962D02*
X0042693Y0120962D01*
X0047621Y0120962D01*
X0047729Y0120363D02*
X0042807Y0120363D01*
X0047729Y0120363D01*
X0047838Y0119765D02*
X0042938Y0119765D01*
X0047838Y0119765D01*
X0047968Y0119166D02*
X0043069Y0119166D01*
X0047968Y0119166D01*
X0048168Y0118568D02*
X0043200Y0118568D01*
X0048168Y0118568D01*
X0048368Y0117969D02*
X0043374Y0117969D01*
X0048368Y0117969D01*
X0048568Y0117371D02*
X0043587Y0117371D01*
X0048568Y0117371D01*
X0048864Y0116772D02*
X0043801Y0116772D01*
X0048864Y0116772D01*
X0049165Y0116174D02*
X0044014Y0116174D01*
X0049165Y0116174D01*
X0049465Y0115575D02*
X0044267Y0115575D01*
X0049465Y0115575D01*
X0049866Y0114977D02*
X0044570Y0114977D01*
X0049866Y0114977D01*
X0050283Y0114378D02*
X0044873Y0114378D01*
X0050283Y0114378D01*
X0050703Y0113780D02*
X0045176Y0113780D01*
X0050703Y0113780D01*
X0051261Y0113181D02*
X0045537Y0113181D01*
X0051261Y0113181D01*
X0051820Y0112583D02*
X0045943Y0112583D01*
X0051820Y0112583D01*
X0052471Y0111984D02*
X0046348Y0111984D01*
X0052471Y0111984D01*
X0053215Y0111386D02*
X0046754Y0111386D01*
X0053215Y0111386D01*
X0054048Y0110787D02*
X0047277Y0110787D01*
X0054048Y0110787D01*
X0055059Y0110189D02*
X0047804Y0110189D01*
X0055059Y0110189D01*
X0056320Y0109590D02*
X0048332Y0109590D01*
X0056320Y0109590D01*
X0057995Y0108992D02*
X0048968Y0108992D01*
X0057995Y0108992D01*
X0055655Y0104802D02*
X0069768Y0104802D01*
X0055655Y0104802D01*
X0054249Y0105400D02*
X0071098Y0105400D01*
X0054249Y0105400D01*
X0053068Y0105999D02*
X0072259Y0105999D01*
X0053068Y0105999D01*
X0052062Y0106598D02*
X0073249Y0106598D01*
X0052062Y0106598D01*
X0051178Y0107196D02*
X0074147Y0107196D01*
X0051178Y0107196D01*
X0050327Y0107795D02*
X0074911Y0107795D01*
X0050327Y0107795D01*
X0049647Y0108393D02*
X0075675Y0108393D01*
X0049647Y0108393D01*
X0057335Y0104203D02*
X0067936Y0104203D01*
X0057335Y0104203D01*
X0060310Y0103605D02*
X0065143Y0103605D01*
X0060310Y0103605D01*
X0066572Y0108992D02*
X0076287Y0108992D01*
X0066572Y0108992D01*
X0068231Y0109590D02*
X0076886Y0109590D01*
X0068231Y0109590D01*
X0069477Y0110189D02*
X0077476Y0110189D01*
X0069477Y0110189D01*
X0070573Y0110787D02*
X0077945Y0110787D01*
X0070573Y0110787D01*
X0071376Y0111386D02*
X0078414Y0111386D01*
X0071376Y0111386D01*
X0072176Y0111984D02*
X0078882Y0111984D01*
X0072176Y0111984D01*
X0072805Y0112583D02*
X0079256Y0112583D01*
X0072805Y0112583D01*
X0073403Y0113181D02*
X0079618Y0113181D01*
X0073403Y0113181D01*
X0073954Y0113780D02*
X0079980Y0113780D01*
X0073954Y0113780D01*
X0074402Y0114378D02*
X0080301Y0114378D01*
X0074402Y0114378D01*
X0074850Y0114977D02*
X0080571Y0114977D01*
X0074850Y0114977D01*
X0075243Y0115575D02*
X0080840Y0115575D01*
X0075243Y0115575D01*
X0075569Y0116174D02*
X0081109Y0116174D01*
X0075569Y0116174D01*
X0075896Y0116772D02*
X0081316Y0116772D01*
X0075896Y0116772D01*
X0076190Y0117371D02*
X0081503Y0117371D01*
X0076190Y0117371D01*
X0076413Y0117969D02*
X0081689Y0117969D01*
X0076413Y0117969D01*
X0076637Y0118568D02*
X0081876Y0118568D01*
X0076637Y0118568D01*
X0076860Y0119166D02*
X0081993Y0119166D01*
X0076860Y0119166D01*
X0076993Y0119765D02*
X0082102Y0119765D01*
X0076993Y0119765D01*
X0077123Y0120363D02*
X0082212Y0120363D01*
X0077123Y0120363D01*
X0077254Y0120962D02*
X0082322Y0120962D01*
X0077254Y0120962D01*
X0077342Y0121560D02*
X0082363Y0121560D01*
X0077342Y0121560D01*
X0077385Y0122159D02*
X0082399Y0122159D01*
X0077385Y0122159D01*
X0077428Y0122757D02*
X0082435Y0122757D01*
X0077428Y0122757D01*
X0060481Y0138319D02*
X0048968Y0138319D01*
X0060481Y0138319D01*
X0075975Y0093412D02*
X0062475Y0079912D01*
X0062475Y0082412D02*
X0060064Y0082266D01*
X0057689Y0081831D01*
X0055383Y0081112D01*
X0053180Y0080121D01*
X0051114Y0078872D01*
X0049212Y0077382D01*
X0047505Y0075674D01*
X0046015Y0073773D01*
X0044766Y0071706D01*
X0043775Y0069504D01*
X0043056Y0067198D01*
X0042621Y0064823D01*
X0042475Y0062412D01*
X0042597Y0059844D01*
X0043054Y0057314D01*
X0043837Y0054866D01*
X0044932Y0052540D01*
X0046322Y0050377D01*
X0047983Y0048415D01*
X0049885Y0046686D01*
X0051997Y0045219D01*
X0054282Y0044042D01*
X0056701Y0043172D01*
X0059213Y0042626D01*
X0061775Y0042412D01*
X0061775Y0047412D01*
X0059866Y0047583D01*
X0057995Y0048002D01*
X0056195Y0048661D01*
X0054497Y0049550D01*
X0052929Y0050652D01*
X0051518Y0051950D01*
X0050289Y0053421D01*
X0049263Y0055040D01*
X0048456Y0056779D01*
X0047883Y0058608D01*
X0047555Y0060497D01*
X0047475Y0062412D01*
X0047628Y0064547D01*
X0048082Y0066638D01*
X0048830Y0068643D01*
X0049856Y0070521D01*
X0051139Y0072235D01*
X0052652Y0073748D01*
X0054365Y0075031D01*
X0056244Y0076056D01*
X0058249Y0076804D01*
X0060340Y0077259D01*
X0062475Y0077412D01*
X0064610Y0077259D01*
X0066701Y0076804D01*
X0068706Y0076056D01*
X0070584Y0075031D01*
X0072298Y0073748D01*
X0073811Y0072235D01*
X0075094Y0070521D01*
X0076119Y0068643D01*
X0076867Y0066638D01*
X0077322Y0064547D01*
X0077475Y0062412D01*
X0077475Y0061412D01*
X0077256Y0059353D01*
X0076747Y0057347D01*
X0075957Y0055434D01*
X0074903Y0053652D01*
X0073606Y0052039D01*
X0072092Y0050626D01*
X0070394Y0049443D01*
X0068544Y0048515D01*
X0066580Y0047858D01*
X0064544Y0047488D01*
X0062475Y0047412D01*
X0062475Y0042412D01*
X0065063Y0042643D01*
X0067601Y0043198D01*
X0070049Y0044070D01*
X0072367Y0045244D01*
X0074518Y0046702D01*
X0076468Y0048419D01*
X0078185Y0050369D01*
X0079642Y0052520D01*
X0080816Y0054838D01*
X0081688Y0057286D01*
X0082244Y0059824D01*
X0082475Y0062412D01*
X0082329Y0064823D01*
X0081894Y0067198D01*
X0081175Y0069504D01*
X0080184Y0071706D01*
X0078935Y0073773D01*
X0077445Y0075674D01*
X0075737Y0077382D01*
X0073836Y0078872D01*
X0071769Y0080121D01*
X0069567Y0081112D01*
X0067261Y0081831D01*
X0064886Y0082266D01*
X0062475Y0082412D01*
X0064886Y0082266D01*
X0067261Y0081831D01*
X0069567Y0081112D01*
X0071769Y0080121D01*
X0073836Y0078872D01*
X0075737Y0077382D01*
X0077445Y0075674D01*
X0078935Y0073773D01*
X0080184Y0071706D01*
X0081175Y0069504D01*
X0081894Y0067198D01*
X0082329Y0064823D01*
X0082475Y0062412D01*
X0082244Y0059824D01*
X0081688Y0057286D01*
X0080816Y0054838D01*
X0079642Y0052520D01*
X0078185Y0050369D01*
X0076468Y0048419D01*
X0074518Y0046702D01*
X0072367Y0045244D01*
X0070049Y0044070D01*
X0067601Y0043198D01*
X0065063Y0042643D01*
X0062475Y0042412D01*
X0062475Y0047412D01*
X0064544Y0047488D01*
X0066580Y0047858D01*
X0068544Y0048515D01*
X0070394Y0049443D01*
X0072092Y0050626D01*
X0073606Y0052039D01*
X0074903Y0053652D01*
X0075957Y0055434D01*
X0076747Y0057347D01*
X0077256Y0059353D01*
X0077475Y0061412D01*
X0077475Y0062412D01*
X0077322Y0064547D01*
X0076867Y0066638D01*
X0076119Y0068643D01*
X0075094Y0070521D01*
X0073811Y0072235D01*
X0072298Y0073748D01*
X0070584Y0075031D01*
X0068706Y0076056D01*
X0066701Y0076804D01*
X0064610Y0077259D01*
X0062475Y0077412D01*
X0060340Y0077259D01*
X0058249Y0076804D01*
X0056244Y0076056D01*
X0054365Y0075031D01*
X0052652Y0073748D01*
X0051139Y0072235D01*
X0049856Y0070521D01*
X0048830Y0068643D01*
X0048082Y0066638D01*
X0047628Y0064547D01*
X0047475Y0062412D01*
X0047555Y0060497D01*
X0047883Y0058608D01*
X0048456Y0056779D01*
X0049263Y0055040D01*
X0050289Y0053421D01*
X0051518Y0051950D01*
X0052929Y0050652D01*
X0054497Y0049550D01*
X0056195Y0048661D01*
X0057995Y0048002D01*
X0059866Y0047583D01*
X0061775Y0047412D01*
X0061775Y0042412D01*
X0059213Y0042626D01*
X0056701Y0043172D01*
X0054282Y0044042D01*
X0051997Y0045219D01*
X0049885Y0046686D01*
X0047983Y0048415D01*
X0046322Y0050377D01*
X0044932Y0052540D01*
X0043837Y0054866D01*
X0043054Y0057314D01*
X0042597Y0059844D01*
X0042475Y0062412D01*
X0042621Y0064823D01*
X0043056Y0067198D01*
X0043775Y0069504D01*
X0044766Y0071706D01*
X0046015Y0073773D01*
X0047505Y0075674D01*
X0049212Y0077382D01*
X0051114Y0078872D01*
X0053180Y0080121D01*
X0055383Y0081112D01*
X0057689Y0081831D01*
X0060064Y0082266D01*
X0062475Y0082412D01*
X0058932Y0082059D02*
X0066018Y0082059D01*
X0058932Y0082059D01*
X0056499Y0081460D02*
X0068451Y0081460D01*
X0056499Y0081460D01*
X0054826Y0080862D02*
X0070124Y0080862D01*
X0054826Y0080862D01*
X0053496Y0080263D02*
X0071454Y0080263D01*
X0053496Y0080263D01*
X0052425Y0079664D02*
X0072524Y0079664D01*
X0052425Y0079664D01*
X0051435Y0079066D02*
X0073515Y0079066D01*
X0051435Y0079066D01*
X0050598Y0078467D02*
X0074352Y0078467D01*
X0050598Y0078467D01*
X0049834Y0077869D02*
X0075116Y0077869D01*
X0049834Y0077869D01*
X0049101Y0077270D02*
X0060498Y0077270D01*
X0049101Y0077270D01*
X0048502Y0076672D02*
X0057894Y0076672D01*
X0048502Y0076672D01*
X0047904Y0076073D02*
X0056289Y0076073D01*
X0047904Y0076073D01*
X0047348Y0075475D02*
X0055179Y0075475D01*
X0047348Y0075475D01*
X0046880Y0074876D02*
X0054159Y0074876D01*
X0046880Y0074876D01*
X0046411Y0074278D02*
X0053360Y0074278D01*
X0046411Y0074278D01*
X0045958Y0073679D02*
X0052583Y0073679D01*
X0045958Y0073679D01*
X0045597Y0073081D02*
X0051985Y0073081D01*
X0045597Y0073081D01*
X0045235Y0072482D02*
X0051386Y0072482D01*
X0045235Y0072482D01*
X0044873Y0071884D02*
X0050876Y0071884D01*
X0044873Y0071884D01*
X0044576Y0071285D02*
X0050428Y0071285D01*
X0044576Y0071285D01*
X0044307Y0070687D02*
X0049980Y0070687D01*
X0044307Y0070687D01*
X0044038Y0070088D02*
X0049620Y0070088D01*
X0044038Y0070088D01*
X0043770Y0069490D02*
X0049293Y0069490D01*
X0043770Y0069490D01*
X0043584Y0068891D02*
X0048966Y0068891D01*
X0043584Y0068891D01*
X0043397Y0068293D02*
X0048700Y0068293D01*
X0043397Y0068293D01*
X0043211Y0067694D02*
X0048477Y0067694D01*
X0043211Y0067694D01*
X0043037Y0067096D02*
X0048253Y0067096D01*
X0043037Y0067096D01*
X0042928Y0066497D02*
X0048052Y0066497D01*
X0042928Y0066497D01*
X0042818Y0065899D02*
X0047922Y0065899D01*
X0042818Y0065899D01*
X0042708Y0065300D02*
X0047791Y0065300D01*
X0042708Y0065300D01*
X0042613Y0064702D02*
X0047661Y0064702D01*
X0042613Y0064702D01*
X0042577Y0064103D02*
X0047596Y0064103D01*
X0042577Y0064103D01*
X0042541Y0063505D02*
X0047553Y0063505D01*
X0042541Y0063505D01*
X0042505Y0062906D02*
X0047510Y0062906D01*
X0042505Y0062906D01*
X0042480Y0062308D02*
X0047479Y0062308D01*
X0042480Y0062308D01*
X0042508Y0061709D02*
X0047504Y0061709D01*
X0042508Y0061709D01*
X0042537Y0061111D02*
X0047529Y0061111D01*
X0042537Y0061111D01*
X0042565Y0060512D02*
X0047554Y0060512D01*
X0042565Y0060512D01*
X0042594Y0059914D02*
X0047656Y0059914D01*
X0042594Y0059914D01*
X0042693Y0059315D02*
X0047760Y0059315D01*
X0042693Y0059315D01*
X0042801Y0058717D02*
X0047865Y0058717D01*
X0042801Y0058717D01*
X0042909Y0058118D02*
X0048037Y0058118D01*
X0042909Y0058118D01*
X0043017Y0057520D02*
X0048224Y0057520D01*
X0043017Y0057520D01*
X0043180Y0056921D02*
X0048412Y0056921D01*
X0043180Y0056921D01*
X0043371Y0056323D02*
X0048668Y0056323D01*
X0043371Y0056323D01*
X0043562Y0055724D02*
X0048945Y0055724D01*
X0043562Y0055724D01*
X0043754Y0055126D02*
X0049223Y0055126D01*
X0043754Y0055126D01*
X0043996Y0054527D02*
X0049588Y0054527D01*
X0043996Y0054527D01*
X0044278Y0053929D02*
X0049967Y0053929D01*
X0044278Y0053929D01*
X0044560Y0053330D02*
X0050365Y0053330D01*
X0044560Y0053330D01*
X0044842Y0052731D02*
X0050865Y0052731D01*
X0044842Y0052731D01*
X0045194Y0052133D02*
X0051366Y0052133D01*
X0045194Y0052133D01*
X0045579Y0051534D02*
X0051970Y0051534D01*
X0045579Y0051534D01*
X0045963Y0050936D02*
X0052621Y0050936D01*
X0045963Y0050936D01*
X0046356Y0050337D02*
X0053377Y0050337D01*
X0046356Y0050337D01*
X0046863Y0049739D02*
X0054228Y0049739D01*
X0046863Y0049739D01*
X0047369Y0049140D02*
X0055279Y0049140D01*
X0047369Y0049140D01*
X0047875Y0048542D02*
X0056520Y0048542D01*
X0047875Y0048542D01*
X0048501Y0047943D02*
X0058255Y0047943D01*
X0048501Y0047943D01*
X0049160Y0047345D02*
X0061775Y0047345D01*
X0049160Y0047345D01*
X0049818Y0046746D02*
X0061775Y0046746D01*
X0049818Y0046746D01*
X0050660Y0046148D02*
X0061775Y0046148D01*
X0050660Y0046148D01*
X0051522Y0045549D02*
X0061775Y0045549D01*
X0051522Y0045549D01*
X0052518Y0044951D02*
X0061775Y0044951D01*
X0052518Y0044951D01*
X0053679Y0044352D02*
X0061775Y0044352D01*
X0053679Y0044352D01*
X0055082Y0043754D02*
X0061775Y0043754D01*
X0055082Y0043754D01*
X0056778Y0043155D02*
X0061775Y0043155D01*
X0056778Y0043155D01*
X0060038Y0042557D02*
X0061775Y0042557D01*
X0060038Y0042557D01*
X0062475Y0042557D02*
X0064100Y0042557D01*
X0062475Y0042557D01*
X0062475Y0043155D02*
X0067404Y0043155D01*
X0062475Y0043155D01*
X0062475Y0043754D02*
X0069160Y0043754D01*
X0062475Y0043754D01*
X0062475Y0044352D02*
X0070605Y0044352D01*
X0062475Y0044352D01*
X0062475Y0044951D02*
X0071787Y0044951D01*
X0062475Y0044951D01*
X0062475Y0045549D02*
X0072817Y0045549D01*
X0062475Y0045549D01*
X0062475Y0046148D02*
X0073700Y0046148D01*
X0062475Y0046148D01*
X0062475Y0046746D02*
X0074568Y0046746D01*
X0062475Y0046746D01*
X0062475Y0047345D02*
X0075248Y0047345D01*
X0062475Y0047345D01*
X0066835Y0047943D02*
X0075927Y0047943D01*
X0066835Y0047943D01*
X0068598Y0048542D02*
X0076576Y0048542D01*
X0068598Y0048542D01*
X0069790Y0049140D02*
X0077103Y0049140D01*
X0069790Y0049140D01*
X0070818Y0049739D02*
X0077630Y0049739D01*
X0070818Y0049739D01*
X0071678Y0050337D02*
X0078157Y0050337D01*
X0071678Y0050337D01*
X0072424Y0050936D02*
X0078569Y0050936D01*
X0072424Y0050936D01*
X0073066Y0051534D02*
X0078975Y0051534D01*
X0073066Y0051534D01*
X0073682Y0052133D02*
X0079380Y0052133D01*
X0073682Y0052133D01*
X0074163Y0052731D02*
X0079749Y0052731D01*
X0074163Y0052731D01*
X0074644Y0053330D02*
X0080053Y0053330D01*
X0074644Y0053330D01*
X0075066Y0053929D02*
X0080356Y0053929D01*
X0075066Y0053929D01*
X0075420Y0054527D02*
X0080659Y0054527D01*
X0075420Y0054527D01*
X0075775Y0055126D02*
X0080919Y0055126D01*
X0075775Y0055126D01*
X0076077Y0055724D02*
X0081132Y0055724D01*
X0076077Y0055724D01*
X0076324Y0056323D02*
X0081345Y0056323D01*
X0076324Y0056323D01*
X0076571Y0056921D02*
X0081558Y0056921D01*
X0076571Y0056921D01*
X0076790Y0057520D02*
X0081739Y0057520D01*
X0076790Y0057520D01*
X0076942Y0058118D02*
X0081871Y0058118D01*
X0076942Y0058118D01*
X0077094Y0058717D02*
X0082002Y0058717D01*
X0077094Y0058717D01*
X0077246Y0059315D02*
X0082133Y0059315D01*
X0077246Y0059315D01*
X0077316Y0059914D02*
X0082252Y0059914D01*
X0077316Y0059914D01*
X0077379Y0060512D02*
X0082305Y0060512D01*
X0077379Y0060512D01*
X0077443Y0061111D02*
X0082359Y0061111D01*
X0077443Y0061111D01*
X0077475Y0061709D02*
X0082412Y0061709D01*
X0077475Y0061709D01*
X0077475Y0062308D02*
X0082466Y0062308D01*
X0077475Y0062308D01*
X0077440Y0062906D02*
X0082445Y0062906D01*
X0077440Y0062906D01*
X0077397Y0063505D02*
X0082409Y0063505D01*
X0077397Y0063505D01*
X0077354Y0064103D02*
X0082373Y0064103D01*
X0077354Y0064103D01*
X0077288Y0064702D02*
X0082336Y0064702D01*
X0077288Y0064702D01*
X0077158Y0065300D02*
X0082242Y0065300D01*
X0077158Y0065300D01*
X0077028Y0065899D02*
X0082132Y0065899D01*
X0077028Y0065899D01*
X0076898Y0066497D02*
X0082022Y0066497D01*
X0076898Y0066497D01*
X0076696Y0067096D02*
X0081912Y0067096D01*
X0076696Y0067096D01*
X0076473Y0067694D02*
X0081739Y0067694D01*
X0076473Y0067694D01*
X0076250Y0068293D02*
X0081553Y0068293D01*
X0076250Y0068293D01*
X0075984Y0068891D02*
X0081366Y0068891D01*
X0075984Y0068891D01*
X0075657Y0069490D02*
X0081180Y0069490D01*
X0075657Y0069490D01*
X0075330Y0070088D02*
X0080912Y0070088D01*
X0075330Y0070088D01*
X0074970Y0070687D02*
X0080643Y0070687D01*
X0074970Y0070687D01*
X0074522Y0071285D02*
X0080373Y0071285D01*
X0074522Y0071285D01*
X0074074Y0071884D02*
X0080077Y0071884D01*
X0074074Y0071884D01*
X0073564Y0072482D02*
X0079715Y0072482D01*
X0073564Y0072482D01*
X0072965Y0073081D02*
X0079353Y0073081D01*
X0072965Y0073081D01*
X0072367Y0073679D02*
X0078991Y0073679D01*
X0072367Y0073679D01*
X0071590Y0074278D02*
X0078539Y0074278D01*
X0071590Y0074278D01*
X0070791Y0074876D02*
X0078070Y0074876D01*
X0070791Y0074876D01*
X0069771Y0075475D02*
X0077601Y0075475D01*
X0069771Y0075475D01*
X0068660Y0076073D02*
X0077046Y0076073D01*
X0068660Y0076073D01*
X0067056Y0076672D02*
X0076447Y0076672D01*
X0067056Y0076672D01*
X0064452Y0077270D02*
X0075849Y0077270D01*
X0064452Y0077270D01*
X0075975Y0093412D02*
X0141475Y0093412D01*
X0151475Y0103412D01*
X0151475Y0148412D01*
X0142475Y0157412D01*
X0146475Y0157412D02*
X0146475Y0156412D01*
X0153475Y0149412D01*
X0153475Y0069412D01*
X0129475Y0045412D01*
X0116475Y0045412D01*
X0105475Y0056412D01*
X0105475Y0061912D01*
X0105975Y0062412D01*
X0103481Y0062308D02*
X0108482Y0062308D01*
X0103481Y0062308D01*
X0103475Y0062412D02*
X0103621Y0064823D01*
X0104056Y0067198D01*
X0104775Y0069504D01*
X0105766Y0071706D01*
X0107015Y0073773D01*
X0108505Y0075674D01*
X0110212Y0077382D01*
X0112114Y0078872D01*
X0114180Y0080121D01*
X0116383Y0081112D01*
X0118689Y0081831D01*
X0121064Y0082266D01*
X0123475Y0082412D01*
X0126063Y0082181D01*
X0128601Y0081625D01*
X0131049Y0080753D01*
X0133367Y0079579D01*
X0135518Y0078122D01*
X0137468Y0076405D01*
X0139185Y0074455D01*
X0140642Y0072304D01*
X0141816Y0069986D01*
X0142688Y0067538D01*
X0143244Y0065000D01*
X0143475Y0062412D01*
X0138475Y0062412D01*
X0138398Y0064481D01*
X0138028Y0066517D01*
X0137372Y0068481D01*
X0136443Y0070331D01*
X0135261Y0072029D01*
X0133848Y0073543D01*
X0132235Y0074840D01*
X0130453Y0075894D01*
X0128540Y0076684D01*
X0126533Y0077193D01*
X0124475Y0077412D01*
X0123475Y0077412D01*
X0121340Y0077259D01*
X0119249Y0076804D01*
X0117244Y0076056D01*
X0115365Y0075031D01*
X0113652Y0073748D01*
X0112139Y0072235D01*
X0110856Y0070521D01*
X0109830Y0068643D01*
X0109082Y0066638D01*
X0108628Y0064547D01*
X0108475Y0062412D01*
X0108628Y0060277D01*
X0109082Y0058186D01*
X0109830Y0056181D01*
X0110856Y0054302D01*
X0112139Y0052589D01*
X0113652Y0051076D01*
X0115365Y0049793D01*
X0117244Y0048767D01*
X0119249Y0048019D01*
X0121340Y0047565D01*
X0123475Y0047412D01*
X0125390Y0047492D01*
X0127278Y0047820D01*
X0129108Y0048393D01*
X0130847Y0049200D01*
X0132466Y0050226D01*
X0133936Y0051455D01*
X0135234Y0052866D01*
X0136337Y0054434D01*
X0137226Y0056132D01*
X0137885Y0057932D01*
X0138304Y0059803D01*
X0138475Y0061712D01*
X0143475Y0061712D01*
X0143261Y0059150D01*
X0142715Y0056638D01*
X0141845Y0054219D01*
X0140667Y0051934D01*
X0139201Y0049822D01*
X0137472Y0047920D01*
X0135509Y0046259D01*
X0133347Y0044869D01*
X0131021Y0043774D01*
X0128573Y0042991D01*
X0126043Y0042534D01*
X0123475Y0042412D01*
X0121064Y0042558D01*
X0118689Y0042993D01*
X0116383Y0043712D01*
X0114180Y0044703D01*
X0112114Y0045952D01*
X0110212Y0047442D01*
X0108505Y0049149D01*
X0107015Y0051051D01*
X0105766Y0053117D01*
X0104775Y0055320D01*
X0104056Y0057626D01*
X0103621Y0060001D01*
X0103475Y0062412D01*
X0103621Y0064823D01*
X0104056Y0067198D01*
X0104775Y0069504D01*
X0105766Y0071706D01*
X0107015Y0073773D01*
X0108505Y0075674D01*
X0110212Y0077382D01*
X0112114Y0078872D01*
X0114180Y0080121D01*
X0116383Y0081112D01*
X0118689Y0081831D01*
X0121064Y0082266D01*
X0123475Y0082412D01*
X0126063Y0082181D01*
X0128601Y0081625D01*
X0131049Y0080753D01*
X0133367Y0079579D01*
X0135518Y0078122D01*
X0137468Y0076405D01*
X0139185Y0074455D01*
X0140642Y0072304D01*
X0141816Y0069986D01*
X0142688Y0067538D01*
X0143244Y0065000D01*
X0143475Y0062412D01*
X0138475Y0062412D01*
X0138398Y0064481D01*
X0138028Y0066517D01*
X0137372Y0068481D01*
X0136443Y0070331D01*
X0135261Y0072029D01*
X0133848Y0073543D01*
X0132235Y0074840D01*
X0130453Y0075894D01*
X0128540Y0076684D01*
X0126533Y0077193D01*
X0124475Y0077412D01*
X0123475Y0077412D01*
X0121340Y0077259D01*
X0119249Y0076804D01*
X0117244Y0076056D01*
X0115365Y0075031D01*
X0113652Y0073748D01*
X0112139Y0072235D01*
X0110856Y0070521D01*
X0109830Y0068643D01*
X0109082Y0066638D01*
X0108628Y0064547D01*
X0108475Y0062412D01*
X0108628Y0060277D01*
X0109082Y0058186D01*
X0109830Y0056181D01*
X0110856Y0054302D01*
X0112139Y0052589D01*
X0113652Y0051076D01*
X0115365Y0049793D01*
X0117244Y0048767D01*
X0119249Y0048019D01*
X0121340Y0047565D01*
X0123475Y0047412D01*
X0125390Y0047492D01*
X0127278Y0047820D01*
X0129108Y0048393D01*
X0130847Y0049200D01*
X0132466Y0050226D01*
X0133936Y0051455D01*
X0135234Y0052866D01*
X0136337Y0054434D01*
X0137226Y0056132D01*
X0137885Y0057932D01*
X0138304Y0059803D01*
X0138475Y0061712D01*
X0143475Y0061712D01*
X0143261Y0059150D01*
X0142715Y0056638D01*
X0141845Y0054219D01*
X0140667Y0051934D01*
X0139201Y0049822D01*
X0137472Y0047920D01*
X0135509Y0046259D01*
X0133347Y0044869D01*
X0131021Y0043774D01*
X0128573Y0042991D01*
X0126043Y0042534D01*
X0123475Y0042412D01*
X0121064Y0042558D01*
X0118689Y0042993D01*
X0116383Y0043712D01*
X0114180Y0044703D01*
X0112114Y0045952D01*
X0110212Y0047442D01*
X0108505Y0049149D01*
X0107015Y0051051D01*
X0105766Y0053117D01*
X0104775Y0055320D01*
X0104056Y0057626D01*
X0103621Y0060001D01*
X0103475Y0062412D01*
X0103505Y0062906D02*
X0108510Y0062906D01*
X0103505Y0062906D01*
X0103541Y0063505D02*
X0108553Y0063505D01*
X0103541Y0063505D01*
X0103577Y0064103D02*
X0108596Y0064103D01*
X0103577Y0064103D01*
X0103613Y0064702D02*
X0108661Y0064702D01*
X0103613Y0064702D01*
X0103708Y0065300D02*
X0108791Y0065300D01*
X0103708Y0065300D01*
X0103818Y0065899D02*
X0108922Y0065899D01*
X0103818Y0065899D01*
X0103928Y0066497D02*
X0109052Y0066497D01*
X0103928Y0066497D01*
X0104037Y0067096D02*
X0109253Y0067096D01*
X0104037Y0067096D01*
X0104211Y0067694D02*
X0109477Y0067694D01*
X0104211Y0067694D01*
X0104397Y0068293D02*
X0109700Y0068293D01*
X0104397Y0068293D01*
X0104584Y0068891D02*
X0109966Y0068891D01*
X0104584Y0068891D01*
X0104770Y0069490D02*
X0110293Y0069490D01*
X0104770Y0069490D01*
X0105038Y0070088D02*
X0110620Y0070088D01*
X0105038Y0070088D01*
X0105307Y0070687D02*
X0110980Y0070687D01*
X0105307Y0070687D01*
X0105576Y0071285D02*
X0111428Y0071285D01*
X0105576Y0071285D01*
X0105873Y0071884D02*
X0111876Y0071884D01*
X0105873Y0071884D01*
X0106235Y0072482D02*
X0112386Y0072482D01*
X0106235Y0072482D01*
X0106597Y0073081D02*
X0112985Y0073081D01*
X0106597Y0073081D01*
X0106958Y0073679D02*
X0113583Y0073679D01*
X0106958Y0073679D01*
X0107411Y0074278D02*
X0114360Y0074278D01*
X0107411Y0074278D01*
X0107880Y0074876D02*
X0115159Y0074876D01*
X0107880Y0074876D01*
X0108348Y0075475D02*
X0116179Y0075475D01*
X0108348Y0075475D01*
X0108904Y0076073D02*
X0117289Y0076073D01*
X0108904Y0076073D01*
X0109502Y0076672D02*
X0118894Y0076672D01*
X0109502Y0076672D01*
X0110101Y0077270D02*
X0121498Y0077270D01*
X0110101Y0077270D01*
X0110834Y0077869D02*
X0135805Y0077869D01*
X0110834Y0077869D01*
X0111598Y0078467D02*
X0135008Y0078467D01*
X0111598Y0078467D01*
X0112435Y0079066D02*
X0134124Y0079066D01*
X0112435Y0079066D01*
X0113425Y0079664D02*
X0133199Y0079664D01*
X0113425Y0079664D01*
X0114496Y0080263D02*
X0132017Y0080263D01*
X0114496Y0080263D01*
X0115826Y0080862D02*
X0130745Y0080862D01*
X0115826Y0080862D01*
X0117499Y0081460D02*
X0129065Y0081460D01*
X0117499Y0081460D01*
X0119932Y0082059D02*
X0126622Y0082059D01*
X0119932Y0082059D01*
X0125806Y0077270D02*
X0136485Y0077270D01*
X0125806Y0077270D01*
X0128568Y0076672D02*
X0137164Y0076672D01*
X0128568Y0076672D01*
X0130018Y0076073D02*
X0137759Y0076073D01*
X0130018Y0076073D01*
X0131161Y0075475D02*
X0138286Y0075475D01*
X0131161Y0075475D01*
X0132173Y0074876D02*
X0138814Y0074876D01*
X0132173Y0074876D01*
X0132934Y0074278D02*
X0139305Y0074278D01*
X0132934Y0074278D01*
X0133678Y0073679D02*
X0139710Y0073679D01*
X0133678Y0073679D01*
X0134279Y0073081D02*
X0140116Y0073081D01*
X0134279Y0073081D01*
X0134838Y0072482D02*
X0140521Y0072482D01*
X0134838Y0072482D01*
X0135362Y0071884D02*
X0140855Y0071884D01*
X0135362Y0071884D01*
X0135779Y0071285D02*
X0141158Y0071285D01*
X0135779Y0071285D01*
X0136195Y0070687D02*
X0141461Y0070687D01*
X0136195Y0070687D01*
X0136565Y0070088D02*
X0141764Y0070088D01*
X0136565Y0070088D01*
X0136866Y0069490D02*
X0141993Y0069490D01*
X0136866Y0069490D01*
X0137166Y0068891D02*
X0142206Y0068891D01*
X0137166Y0068891D01*
X0137435Y0068293D02*
X0142419Y0068293D01*
X0137435Y0068293D01*
X0137635Y0067694D02*
X0142633Y0067694D01*
X0137635Y0067694D01*
X0137835Y0067096D02*
X0142785Y0067096D01*
X0137835Y0067096D01*
X0138032Y0066497D02*
X0142916Y0066497D01*
X0138032Y0066497D01*
X0138141Y0065899D02*
X0143047Y0065899D01*
X0138141Y0065899D01*
X0138250Y0065300D02*
X0143178Y0065300D01*
X0138250Y0065300D01*
X0138358Y0064702D02*
X0143271Y0064702D01*
X0138358Y0064702D01*
X0138412Y0064103D02*
X0143324Y0064103D01*
X0138412Y0064103D01*
X0138434Y0063505D02*
X0143377Y0063505D01*
X0138434Y0063505D01*
X0138457Y0062906D02*
X0143431Y0062906D01*
X0138457Y0062906D01*
X0138475Y0061709D02*
X0143475Y0061709D01*
X0138475Y0061709D01*
X0138421Y0061111D02*
X0143425Y0061111D01*
X0138421Y0061111D01*
X0138367Y0060512D02*
X0143375Y0060512D01*
X0138367Y0060512D01*
X0138314Y0059914D02*
X0143325Y0059914D01*
X0138314Y0059914D01*
X0138195Y0059315D02*
X0143275Y0059315D01*
X0138195Y0059315D01*
X0138061Y0058717D02*
X0143167Y0058717D01*
X0138061Y0058717D01*
X0137927Y0058118D02*
X0143037Y0058118D01*
X0137927Y0058118D01*
X0137734Y0057520D02*
X0142906Y0057520D01*
X0137734Y0057520D01*
X0137515Y0056921D02*
X0142776Y0056921D01*
X0137515Y0056921D01*
X0137295Y0056323D02*
X0142601Y0056323D01*
X0137295Y0056323D01*
X0137012Y0055724D02*
X0142386Y0055724D01*
X0137012Y0055724D01*
X0136699Y0055126D02*
X0142171Y0055126D01*
X0136699Y0055126D01*
X0136386Y0054527D02*
X0141956Y0054527D01*
X0136386Y0054527D01*
X0135982Y0053929D02*
X0141696Y0053929D01*
X0135982Y0053929D01*
X0135561Y0053330D02*
X0141387Y0053330D01*
X0135561Y0053330D01*
X0135111Y0052731D02*
X0141078Y0052731D01*
X0135111Y0052731D01*
X0134560Y0052133D02*
X0140770Y0052133D01*
X0134560Y0052133D01*
X0134009Y0051534D02*
X0140390Y0051534D01*
X0134009Y0051534D01*
X0133315Y0050936D02*
X0139975Y0050936D01*
X0133315Y0050936D01*
X0132599Y0050337D02*
X0139559Y0050337D01*
X0132599Y0050337D01*
X0131697Y0049739D02*
X0139126Y0049739D01*
X0131697Y0049739D01*
X0130719Y0049140D02*
X0138582Y0049140D01*
X0130719Y0049140D01*
X0129429Y0048542D02*
X0138038Y0048542D01*
X0129429Y0048542D01*
X0127671Y0047943D02*
X0137494Y0047943D01*
X0127671Y0047943D01*
X0130959Y0043754D02*
X0116289Y0043754D01*
X0130959Y0043754D01*
X0132249Y0044352D02*
X0114959Y0044352D01*
X0132249Y0044352D01*
X0133473Y0044951D02*
X0113770Y0044951D01*
X0133473Y0044951D01*
X0134405Y0045549D02*
X0112780Y0045549D01*
X0134405Y0045549D01*
X0135336Y0046148D02*
X0111864Y0046148D01*
X0135336Y0046148D01*
X0136085Y0046746D02*
X0111100Y0046746D01*
X0136085Y0046746D01*
X0136792Y0047345D02*
X0110336Y0047345D01*
X0136792Y0047345D01*
X0129087Y0043155D02*
X0118168Y0043155D01*
X0129087Y0043155D01*
X0126167Y0042557D02*
X0121079Y0042557D01*
X0126167Y0042557D01*
X0119599Y0047943D02*
X0109711Y0047943D01*
X0119599Y0047943D01*
X0117848Y0048542D02*
X0109112Y0048542D01*
X0117848Y0048542D01*
X0116560Y0049140D02*
X0108514Y0049140D01*
X0116560Y0049140D01*
X0115464Y0049739D02*
X0108043Y0049739D01*
X0115464Y0049739D01*
X0114638Y0050337D02*
X0107574Y0050337D01*
X0114638Y0050337D01*
X0113839Y0050936D02*
X0107105Y0050936D01*
X0113839Y0050936D01*
X0113193Y0051534D02*
X0106723Y0051534D01*
X0113193Y0051534D01*
X0112595Y0052133D02*
X0106361Y0052133D01*
X0112595Y0052133D01*
X0112032Y0052731D02*
X0105999Y0052731D01*
X0112032Y0052731D01*
X0111584Y0053330D02*
X0105670Y0053330D01*
X0111584Y0053330D01*
X0111136Y0053929D02*
X0105401Y0053929D01*
X0111136Y0053929D01*
X0110733Y0054527D02*
X0105131Y0054527D01*
X0110733Y0054527D01*
X0110407Y0055126D02*
X0104862Y0055126D01*
X0110407Y0055126D01*
X0110080Y0055724D02*
X0104649Y0055724D01*
X0110080Y0055724D01*
X0109777Y0056323D02*
X0104462Y0056323D01*
X0109777Y0056323D01*
X0109554Y0056921D02*
X0104276Y0056921D01*
X0109554Y0056921D01*
X0109331Y0057520D02*
X0104089Y0057520D01*
X0109331Y0057520D01*
X0109108Y0058118D02*
X0103966Y0058118D01*
X0109108Y0058118D01*
X0108967Y0058717D02*
X0103856Y0058717D01*
X0108967Y0058717D01*
X0108837Y0059315D02*
X0103746Y0059315D01*
X0108837Y0059315D01*
X0108707Y0059914D02*
X0103637Y0059914D01*
X0108707Y0059914D01*
X0108611Y0060512D02*
X0103590Y0060512D01*
X0108611Y0060512D01*
X0108568Y0061111D02*
X0103554Y0061111D01*
X0108568Y0061111D01*
X0108525Y0061709D02*
X0103517Y0061709D01*
X0108525Y0061709D01*
X0106975Y0096412D02*
X0140475Y0096412D01*
X0149475Y0105412D01*
X0149475Y0147412D01*
X0145475Y0151412D01*
X0139475Y0151412D01*
D15*
X0123475Y0128412D03*
X0128475Y0062412D03*
X0062475Y0057412D03*
X0057475Y0123412D03*
D16*
X0062475Y0123412D01*
X0078475Y0140412D02*
X0086475Y0132412D01*
X0086475Y0125412D01*
X0123475Y0123412D02*
X0123475Y0128412D01*
X0106475Y0082412D02*
X0080475Y0082412D01*
X0063475Y0063412D02*
X0062475Y0063412D01*
X0060475Y0061412D01*
X0062475Y0062412D02*
X0063475Y0063412D01*
X0062475Y0062412D02*
X0062475Y0057412D01*
X0123475Y0062412D02*
X0128475Y0062412D01*
M02*
