%
M48
M72
T01C0.01300
T02C0.04000
T03C0.08000
%
T01
X78475Y140412
X78475Y159412
X71475Y156412
X146475Y157412
X142475Y157412
X139475Y151412
X141475Y147412
X138475Y145412
X143475Y138412
X55475Y151412
X57475Y123412
X86475Y125412
X92475Y116412
X123475Y128412
X106475Y82412
X128475Y62412
X80475Y82412
X62475Y57412
T02
X81475Y146412
X81475Y154412
X61475Y150412
T03
X31475Y32412
X33475Y154412
X155475Y155412
X154475Y33412
M30
