%
M48
M72
T01C0.01300
T02C0.04000
T03C0.08000
%
T01
X78840Y30340
X92840Y38840
X93840Y46840
X108840Y28840
X122840Y56840
X147840Y75840
X148840Y79840
X151840Y87840
X144840Y87840
X117840Y122840
X115840Y145840
X115840Y148840
X115840Y151840
X115840Y154840
X79840Y132840
X68840Y147840
X51840Y117840
X87840Y116840
X108090Y95090
X91840Y87840
X93840Y78840
X91840Y74840
X56840Y51840
X65840Y80840
T02
X152840Y42840
X142840Y42840
T03
X35840Y35840
X27840Y148840
X151840Y149840
X148840Y27840
M30
