G75*
%MOIN*%
%OFA0B0*%
%FSLAX25Y25*%
%IPPOS*%
%LPD*%
%AMOC8*
5,1,8,0,0,1.08239X$1,22.5*
%
%ADD10C,0.00000*%
%ADD11C,0.01600*%
D10*
X0031840Y0035840D02*
X0031842Y0035966D01*
X0031848Y0036092D01*
X0031858Y0036218D01*
X0031872Y0036344D01*
X0031890Y0036469D01*
X0031912Y0036593D01*
X0031937Y0036717D01*
X0031967Y0036840D01*
X0032000Y0036961D01*
X0032038Y0037082D01*
X0032079Y0037201D01*
X0032124Y0037320D01*
X0032172Y0037436D01*
X0032224Y0037551D01*
X0032280Y0037664D01*
X0032340Y0037776D01*
X0032403Y0037885D01*
X0032469Y0037993D01*
X0032538Y0038098D01*
X0032611Y0038201D01*
X0032688Y0038302D01*
X0032767Y0038400D01*
X0032849Y0038496D01*
X0032935Y0038589D01*
X0033023Y0038680D01*
X0033114Y0038767D01*
X0033208Y0038852D01*
X0033304Y0038933D01*
X0033403Y0039012D01*
X0033504Y0039087D01*
X0033608Y0039159D01*
X0033714Y0039228D01*
X0033822Y0039294D01*
X0033932Y0039356D01*
X0034044Y0039414D01*
X0034157Y0039469D01*
X0034273Y0039520D01*
X0034390Y0039568D01*
X0034508Y0039612D01*
X0034628Y0039652D01*
X0034749Y0039688D01*
X0034871Y0039721D01*
X0034994Y0039750D01*
X0035118Y0039774D01*
X0035242Y0039795D01*
X0035367Y0039812D01*
X0035493Y0039825D01*
X0035619Y0039834D01*
X0035745Y0039839D01*
X0035872Y0039840D01*
X0035998Y0039837D01*
X0036124Y0039830D01*
X0036250Y0039819D01*
X0036375Y0039804D01*
X0036500Y0039785D01*
X0036624Y0039762D01*
X0036748Y0039736D01*
X0036870Y0039705D01*
X0036992Y0039671D01*
X0037112Y0039632D01*
X0037231Y0039590D01*
X0037349Y0039545D01*
X0037465Y0039495D01*
X0037580Y0039442D01*
X0037692Y0039385D01*
X0037803Y0039325D01*
X0037912Y0039261D01*
X0038019Y0039194D01*
X0038124Y0039124D01*
X0038227Y0039050D01*
X0038327Y0038973D01*
X0038425Y0038893D01*
X0038520Y0038810D01*
X0038612Y0038724D01*
X0038702Y0038635D01*
X0038789Y0038543D01*
X0038872Y0038449D01*
X0038953Y0038352D01*
X0039031Y0038252D01*
X0039106Y0038150D01*
X0039177Y0038046D01*
X0039245Y0037939D01*
X0039309Y0037831D01*
X0039370Y0037720D01*
X0039428Y0037608D01*
X0039482Y0037494D01*
X0039532Y0037378D01*
X0039579Y0037261D01*
X0039622Y0037142D01*
X0039661Y0037022D01*
X0039697Y0036901D01*
X0039728Y0036778D01*
X0039756Y0036655D01*
X0039780Y0036531D01*
X0039800Y0036406D01*
X0039816Y0036281D01*
X0039828Y0036155D01*
X0039836Y0036029D01*
X0039840Y0035903D01*
X0039840Y0035777D01*
X0039836Y0035651D01*
X0039828Y0035525D01*
X0039816Y0035399D01*
X0039800Y0035274D01*
X0039780Y0035149D01*
X0039756Y0035025D01*
X0039728Y0034902D01*
X0039697Y0034779D01*
X0039661Y0034658D01*
X0039622Y0034538D01*
X0039579Y0034419D01*
X0039532Y0034302D01*
X0039482Y0034186D01*
X0039428Y0034072D01*
X0039370Y0033960D01*
X0039309Y0033849D01*
X0039245Y0033741D01*
X0039177Y0033634D01*
X0039106Y0033530D01*
X0039031Y0033428D01*
X0038953Y0033328D01*
X0038872Y0033231D01*
X0038789Y0033137D01*
X0038702Y0033045D01*
X0038612Y0032956D01*
X0038520Y0032870D01*
X0038425Y0032787D01*
X0038327Y0032707D01*
X0038227Y0032630D01*
X0038124Y0032556D01*
X0038019Y0032486D01*
X0037912Y0032419D01*
X0037803Y0032355D01*
X0037692Y0032295D01*
X0037580Y0032238D01*
X0037465Y0032185D01*
X0037349Y0032135D01*
X0037231Y0032090D01*
X0037112Y0032048D01*
X0036992Y0032009D01*
X0036870Y0031975D01*
X0036748Y0031944D01*
X0036624Y0031918D01*
X0036500Y0031895D01*
X0036375Y0031876D01*
X0036250Y0031861D01*
X0036124Y0031850D01*
X0035998Y0031843D01*
X0035872Y0031840D01*
X0035745Y0031841D01*
X0035619Y0031846D01*
X0035493Y0031855D01*
X0035367Y0031868D01*
X0035242Y0031885D01*
X0035118Y0031906D01*
X0034994Y0031930D01*
X0034871Y0031959D01*
X0034749Y0031992D01*
X0034628Y0032028D01*
X0034508Y0032068D01*
X0034390Y0032112D01*
X0034273Y0032160D01*
X0034157Y0032211D01*
X0034044Y0032266D01*
X0033932Y0032324D01*
X0033822Y0032386D01*
X0033714Y0032452D01*
X0033608Y0032521D01*
X0033504Y0032593D01*
X0033403Y0032668D01*
X0033304Y0032747D01*
X0033208Y0032828D01*
X0033114Y0032913D01*
X0033023Y0033000D01*
X0032935Y0033091D01*
X0032849Y0033184D01*
X0032767Y0033280D01*
X0032688Y0033378D01*
X0032611Y0033479D01*
X0032538Y0033582D01*
X0032469Y0033687D01*
X0032403Y0033795D01*
X0032340Y0033904D01*
X0032280Y0034016D01*
X0032224Y0034129D01*
X0032172Y0034244D01*
X0032124Y0034360D01*
X0032079Y0034479D01*
X0032038Y0034598D01*
X0032000Y0034719D01*
X0031967Y0034840D01*
X0031937Y0034963D01*
X0031912Y0035087D01*
X0031890Y0035211D01*
X0031872Y0035336D01*
X0031858Y0035462D01*
X0031848Y0035588D01*
X0031842Y0035714D01*
X0031840Y0035840D01*
X0023840Y0148840D02*
X0023842Y0148966D01*
X0023848Y0149092D01*
X0023858Y0149218D01*
X0023872Y0149344D01*
X0023890Y0149469D01*
X0023912Y0149593D01*
X0023937Y0149717D01*
X0023967Y0149840D01*
X0024000Y0149961D01*
X0024038Y0150082D01*
X0024079Y0150201D01*
X0024124Y0150320D01*
X0024172Y0150436D01*
X0024224Y0150551D01*
X0024280Y0150664D01*
X0024340Y0150776D01*
X0024403Y0150885D01*
X0024469Y0150993D01*
X0024538Y0151098D01*
X0024611Y0151201D01*
X0024688Y0151302D01*
X0024767Y0151400D01*
X0024849Y0151496D01*
X0024935Y0151589D01*
X0025023Y0151680D01*
X0025114Y0151767D01*
X0025208Y0151852D01*
X0025304Y0151933D01*
X0025403Y0152012D01*
X0025504Y0152087D01*
X0025608Y0152159D01*
X0025714Y0152228D01*
X0025822Y0152294D01*
X0025932Y0152356D01*
X0026044Y0152414D01*
X0026157Y0152469D01*
X0026273Y0152520D01*
X0026390Y0152568D01*
X0026508Y0152612D01*
X0026628Y0152652D01*
X0026749Y0152688D01*
X0026871Y0152721D01*
X0026994Y0152750D01*
X0027118Y0152774D01*
X0027242Y0152795D01*
X0027367Y0152812D01*
X0027493Y0152825D01*
X0027619Y0152834D01*
X0027745Y0152839D01*
X0027872Y0152840D01*
X0027998Y0152837D01*
X0028124Y0152830D01*
X0028250Y0152819D01*
X0028375Y0152804D01*
X0028500Y0152785D01*
X0028624Y0152762D01*
X0028748Y0152736D01*
X0028870Y0152705D01*
X0028992Y0152671D01*
X0029112Y0152632D01*
X0029231Y0152590D01*
X0029349Y0152545D01*
X0029465Y0152495D01*
X0029580Y0152442D01*
X0029692Y0152385D01*
X0029803Y0152325D01*
X0029912Y0152261D01*
X0030019Y0152194D01*
X0030124Y0152124D01*
X0030227Y0152050D01*
X0030327Y0151973D01*
X0030425Y0151893D01*
X0030520Y0151810D01*
X0030612Y0151724D01*
X0030702Y0151635D01*
X0030789Y0151543D01*
X0030872Y0151449D01*
X0030953Y0151352D01*
X0031031Y0151252D01*
X0031106Y0151150D01*
X0031177Y0151046D01*
X0031245Y0150939D01*
X0031309Y0150831D01*
X0031370Y0150720D01*
X0031428Y0150608D01*
X0031482Y0150494D01*
X0031532Y0150378D01*
X0031579Y0150261D01*
X0031622Y0150142D01*
X0031661Y0150022D01*
X0031697Y0149901D01*
X0031728Y0149778D01*
X0031756Y0149655D01*
X0031780Y0149531D01*
X0031800Y0149406D01*
X0031816Y0149281D01*
X0031828Y0149155D01*
X0031836Y0149029D01*
X0031840Y0148903D01*
X0031840Y0148777D01*
X0031836Y0148651D01*
X0031828Y0148525D01*
X0031816Y0148399D01*
X0031800Y0148274D01*
X0031780Y0148149D01*
X0031756Y0148025D01*
X0031728Y0147902D01*
X0031697Y0147779D01*
X0031661Y0147658D01*
X0031622Y0147538D01*
X0031579Y0147419D01*
X0031532Y0147302D01*
X0031482Y0147186D01*
X0031428Y0147072D01*
X0031370Y0146960D01*
X0031309Y0146849D01*
X0031245Y0146741D01*
X0031177Y0146634D01*
X0031106Y0146530D01*
X0031031Y0146428D01*
X0030953Y0146328D01*
X0030872Y0146231D01*
X0030789Y0146137D01*
X0030702Y0146045D01*
X0030612Y0145956D01*
X0030520Y0145870D01*
X0030425Y0145787D01*
X0030327Y0145707D01*
X0030227Y0145630D01*
X0030124Y0145556D01*
X0030019Y0145486D01*
X0029912Y0145419D01*
X0029803Y0145355D01*
X0029692Y0145295D01*
X0029580Y0145238D01*
X0029465Y0145185D01*
X0029349Y0145135D01*
X0029231Y0145090D01*
X0029112Y0145048D01*
X0028992Y0145009D01*
X0028870Y0144975D01*
X0028748Y0144944D01*
X0028624Y0144918D01*
X0028500Y0144895D01*
X0028375Y0144876D01*
X0028250Y0144861D01*
X0028124Y0144850D01*
X0027998Y0144843D01*
X0027872Y0144840D01*
X0027745Y0144841D01*
X0027619Y0144846D01*
X0027493Y0144855D01*
X0027367Y0144868D01*
X0027242Y0144885D01*
X0027118Y0144906D01*
X0026994Y0144930D01*
X0026871Y0144959D01*
X0026749Y0144992D01*
X0026628Y0145028D01*
X0026508Y0145068D01*
X0026390Y0145112D01*
X0026273Y0145160D01*
X0026157Y0145211D01*
X0026044Y0145266D01*
X0025932Y0145324D01*
X0025822Y0145386D01*
X0025714Y0145452D01*
X0025608Y0145521D01*
X0025504Y0145593D01*
X0025403Y0145668D01*
X0025304Y0145747D01*
X0025208Y0145828D01*
X0025114Y0145913D01*
X0025023Y0146000D01*
X0024935Y0146091D01*
X0024849Y0146184D01*
X0024767Y0146280D01*
X0024688Y0146378D01*
X0024611Y0146479D01*
X0024538Y0146582D01*
X0024469Y0146687D01*
X0024403Y0146795D01*
X0024340Y0146904D01*
X0024280Y0147016D01*
X0024224Y0147129D01*
X0024172Y0147244D01*
X0024124Y0147360D01*
X0024079Y0147479D01*
X0024038Y0147598D01*
X0024000Y0147719D01*
X0023967Y0147840D01*
X0023937Y0147963D01*
X0023912Y0148087D01*
X0023890Y0148211D01*
X0023872Y0148336D01*
X0023858Y0148462D01*
X0023848Y0148588D01*
X0023842Y0148714D01*
X0023840Y0148840D01*
X0144840Y0148840D02*
X0144842Y0148966D01*
X0144848Y0149092D01*
X0144858Y0149218D01*
X0144872Y0149344D01*
X0144890Y0149469D01*
X0144912Y0149593D01*
X0144937Y0149717D01*
X0144967Y0149840D01*
X0145000Y0149961D01*
X0145038Y0150082D01*
X0145079Y0150201D01*
X0145124Y0150320D01*
X0145172Y0150436D01*
X0145224Y0150551D01*
X0145280Y0150664D01*
X0145340Y0150776D01*
X0145403Y0150885D01*
X0145469Y0150993D01*
X0145538Y0151098D01*
X0145611Y0151201D01*
X0145688Y0151302D01*
X0145767Y0151400D01*
X0145849Y0151496D01*
X0145935Y0151589D01*
X0146023Y0151680D01*
X0146114Y0151767D01*
X0146208Y0151852D01*
X0146304Y0151933D01*
X0146403Y0152012D01*
X0146504Y0152087D01*
X0146608Y0152159D01*
X0146714Y0152228D01*
X0146822Y0152294D01*
X0146932Y0152356D01*
X0147044Y0152414D01*
X0147157Y0152469D01*
X0147273Y0152520D01*
X0147390Y0152568D01*
X0147508Y0152612D01*
X0147628Y0152652D01*
X0147749Y0152688D01*
X0147871Y0152721D01*
X0147994Y0152750D01*
X0148118Y0152774D01*
X0148242Y0152795D01*
X0148367Y0152812D01*
X0148493Y0152825D01*
X0148619Y0152834D01*
X0148745Y0152839D01*
X0148872Y0152840D01*
X0148998Y0152837D01*
X0149124Y0152830D01*
X0149250Y0152819D01*
X0149375Y0152804D01*
X0149500Y0152785D01*
X0149624Y0152762D01*
X0149748Y0152736D01*
X0149870Y0152705D01*
X0149992Y0152671D01*
X0150112Y0152632D01*
X0150231Y0152590D01*
X0150349Y0152545D01*
X0150465Y0152495D01*
X0150580Y0152442D01*
X0150692Y0152385D01*
X0150803Y0152325D01*
X0150912Y0152261D01*
X0151019Y0152194D01*
X0151124Y0152124D01*
X0151227Y0152050D01*
X0151327Y0151973D01*
X0151425Y0151893D01*
X0151520Y0151810D01*
X0151612Y0151724D01*
X0151702Y0151635D01*
X0151789Y0151543D01*
X0151872Y0151449D01*
X0151953Y0151352D01*
X0152031Y0151252D01*
X0152106Y0151150D01*
X0152177Y0151046D01*
X0152245Y0150939D01*
X0152309Y0150831D01*
X0152370Y0150720D01*
X0152428Y0150608D01*
X0152482Y0150494D01*
X0152532Y0150378D01*
X0152579Y0150261D01*
X0152622Y0150142D01*
X0152661Y0150022D01*
X0152697Y0149901D01*
X0152728Y0149778D01*
X0152756Y0149655D01*
X0152780Y0149531D01*
X0152800Y0149406D01*
X0152816Y0149281D01*
X0152828Y0149155D01*
X0152836Y0149029D01*
X0152840Y0148903D01*
X0152840Y0148777D01*
X0152836Y0148651D01*
X0152828Y0148525D01*
X0152816Y0148399D01*
X0152800Y0148274D01*
X0152780Y0148149D01*
X0152756Y0148025D01*
X0152728Y0147902D01*
X0152697Y0147779D01*
X0152661Y0147658D01*
X0152622Y0147538D01*
X0152579Y0147419D01*
X0152532Y0147302D01*
X0152482Y0147186D01*
X0152428Y0147072D01*
X0152370Y0146960D01*
X0152309Y0146849D01*
X0152245Y0146741D01*
X0152177Y0146634D01*
X0152106Y0146530D01*
X0152031Y0146428D01*
X0151953Y0146328D01*
X0151872Y0146231D01*
X0151789Y0146137D01*
X0151702Y0146045D01*
X0151612Y0145956D01*
X0151520Y0145870D01*
X0151425Y0145787D01*
X0151327Y0145707D01*
X0151227Y0145630D01*
X0151124Y0145556D01*
X0151019Y0145486D01*
X0150912Y0145419D01*
X0150803Y0145355D01*
X0150692Y0145295D01*
X0150580Y0145238D01*
X0150465Y0145185D01*
X0150349Y0145135D01*
X0150231Y0145090D01*
X0150112Y0145048D01*
X0149992Y0145009D01*
X0149870Y0144975D01*
X0149748Y0144944D01*
X0149624Y0144918D01*
X0149500Y0144895D01*
X0149375Y0144876D01*
X0149250Y0144861D01*
X0149124Y0144850D01*
X0148998Y0144843D01*
X0148872Y0144840D01*
X0148745Y0144841D01*
X0148619Y0144846D01*
X0148493Y0144855D01*
X0148367Y0144868D01*
X0148242Y0144885D01*
X0148118Y0144906D01*
X0147994Y0144930D01*
X0147871Y0144959D01*
X0147749Y0144992D01*
X0147628Y0145028D01*
X0147508Y0145068D01*
X0147390Y0145112D01*
X0147273Y0145160D01*
X0147157Y0145211D01*
X0147044Y0145266D01*
X0146932Y0145324D01*
X0146822Y0145386D01*
X0146714Y0145452D01*
X0146608Y0145521D01*
X0146504Y0145593D01*
X0146403Y0145668D01*
X0146304Y0145747D01*
X0146208Y0145828D01*
X0146114Y0145913D01*
X0146023Y0146000D01*
X0145935Y0146091D01*
X0145849Y0146184D01*
X0145767Y0146280D01*
X0145688Y0146378D01*
X0145611Y0146479D01*
X0145538Y0146582D01*
X0145469Y0146687D01*
X0145403Y0146795D01*
X0145340Y0146904D01*
X0145280Y0147016D01*
X0145224Y0147129D01*
X0145172Y0147244D01*
X0145124Y0147360D01*
X0145079Y0147479D01*
X0145038Y0147598D01*
X0145000Y0147719D01*
X0144967Y0147840D01*
X0144937Y0147963D01*
X0144912Y0148087D01*
X0144890Y0148211D01*
X0144872Y0148336D01*
X0144858Y0148462D01*
X0144848Y0148588D01*
X0144842Y0148714D01*
X0144840Y0148840D01*
X0144840Y0027840D02*
X0144842Y0027966D01*
X0144848Y0028092D01*
X0144858Y0028218D01*
X0144872Y0028344D01*
X0144890Y0028469D01*
X0144912Y0028593D01*
X0144937Y0028717D01*
X0144967Y0028840D01*
X0145000Y0028961D01*
X0145038Y0029082D01*
X0145079Y0029201D01*
X0145124Y0029320D01*
X0145172Y0029436D01*
X0145224Y0029551D01*
X0145280Y0029664D01*
X0145340Y0029776D01*
X0145403Y0029885D01*
X0145469Y0029993D01*
X0145538Y0030098D01*
X0145611Y0030201D01*
X0145688Y0030302D01*
X0145767Y0030400D01*
X0145849Y0030496D01*
X0145935Y0030589D01*
X0146023Y0030680D01*
X0146114Y0030767D01*
X0146208Y0030852D01*
X0146304Y0030933D01*
X0146403Y0031012D01*
X0146504Y0031087D01*
X0146608Y0031159D01*
X0146714Y0031228D01*
X0146822Y0031294D01*
X0146932Y0031356D01*
X0147044Y0031414D01*
X0147157Y0031469D01*
X0147273Y0031520D01*
X0147390Y0031568D01*
X0147508Y0031612D01*
X0147628Y0031652D01*
X0147749Y0031688D01*
X0147871Y0031721D01*
X0147994Y0031750D01*
X0148118Y0031774D01*
X0148242Y0031795D01*
X0148367Y0031812D01*
X0148493Y0031825D01*
X0148619Y0031834D01*
X0148745Y0031839D01*
X0148872Y0031840D01*
X0148998Y0031837D01*
X0149124Y0031830D01*
X0149250Y0031819D01*
X0149375Y0031804D01*
X0149500Y0031785D01*
X0149624Y0031762D01*
X0149748Y0031736D01*
X0149870Y0031705D01*
X0149992Y0031671D01*
X0150112Y0031632D01*
X0150231Y0031590D01*
X0150349Y0031545D01*
X0150465Y0031495D01*
X0150580Y0031442D01*
X0150692Y0031385D01*
X0150803Y0031325D01*
X0150912Y0031261D01*
X0151019Y0031194D01*
X0151124Y0031124D01*
X0151227Y0031050D01*
X0151327Y0030973D01*
X0151425Y0030893D01*
X0151520Y0030810D01*
X0151612Y0030724D01*
X0151702Y0030635D01*
X0151789Y0030543D01*
X0151872Y0030449D01*
X0151953Y0030352D01*
X0152031Y0030252D01*
X0152106Y0030150D01*
X0152177Y0030046D01*
X0152245Y0029939D01*
X0152309Y0029831D01*
X0152370Y0029720D01*
X0152428Y0029608D01*
X0152482Y0029494D01*
X0152532Y0029378D01*
X0152579Y0029261D01*
X0152622Y0029142D01*
X0152661Y0029022D01*
X0152697Y0028901D01*
X0152728Y0028778D01*
X0152756Y0028655D01*
X0152780Y0028531D01*
X0152800Y0028406D01*
X0152816Y0028281D01*
X0152828Y0028155D01*
X0152836Y0028029D01*
X0152840Y0027903D01*
X0152840Y0027777D01*
X0152836Y0027651D01*
X0152828Y0027525D01*
X0152816Y0027399D01*
X0152800Y0027274D01*
X0152780Y0027149D01*
X0152756Y0027025D01*
X0152728Y0026902D01*
X0152697Y0026779D01*
X0152661Y0026658D01*
X0152622Y0026538D01*
X0152579Y0026419D01*
X0152532Y0026302D01*
X0152482Y0026186D01*
X0152428Y0026072D01*
X0152370Y0025960D01*
X0152309Y0025849D01*
X0152245Y0025741D01*
X0152177Y0025634D01*
X0152106Y0025530D01*
X0152031Y0025428D01*
X0151953Y0025328D01*
X0151872Y0025231D01*
X0151789Y0025137D01*
X0151702Y0025045D01*
X0151612Y0024956D01*
X0151520Y0024870D01*
X0151425Y0024787D01*
X0151327Y0024707D01*
X0151227Y0024630D01*
X0151124Y0024556D01*
X0151019Y0024486D01*
X0150912Y0024419D01*
X0150803Y0024355D01*
X0150692Y0024295D01*
X0150580Y0024238D01*
X0150465Y0024185D01*
X0150349Y0024135D01*
X0150231Y0024090D01*
X0150112Y0024048D01*
X0149992Y0024009D01*
X0149870Y0023975D01*
X0149748Y0023944D01*
X0149624Y0023918D01*
X0149500Y0023895D01*
X0149375Y0023876D01*
X0149250Y0023861D01*
X0149124Y0023850D01*
X0148998Y0023843D01*
X0148872Y0023840D01*
X0148745Y0023841D01*
X0148619Y0023846D01*
X0148493Y0023855D01*
X0148367Y0023868D01*
X0148242Y0023885D01*
X0148118Y0023906D01*
X0147994Y0023930D01*
X0147871Y0023959D01*
X0147749Y0023992D01*
X0147628Y0024028D01*
X0147508Y0024068D01*
X0147390Y0024112D01*
X0147273Y0024160D01*
X0147157Y0024211D01*
X0147044Y0024266D01*
X0146932Y0024324D01*
X0146822Y0024386D01*
X0146714Y0024452D01*
X0146608Y0024521D01*
X0146504Y0024593D01*
X0146403Y0024668D01*
X0146304Y0024747D01*
X0146208Y0024828D01*
X0146114Y0024913D01*
X0146023Y0025000D01*
X0145935Y0025091D01*
X0145849Y0025184D01*
X0145767Y0025280D01*
X0145688Y0025378D01*
X0145611Y0025479D01*
X0145538Y0025582D01*
X0145469Y0025687D01*
X0145403Y0025795D01*
X0145340Y0025904D01*
X0145280Y0026016D01*
X0145224Y0026129D01*
X0145172Y0026244D01*
X0145124Y0026360D01*
X0145079Y0026479D01*
X0145038Y0026598D01*
X0145000Y0026719D01*
X0144967Y0026840D01*
X0144937Y0026963D01*
X0144912Y0027087D01*
X0144890Y0027211D01*
X0144872Y0027336D01*
X0144858Y0027462D01*
X0144848Y0027588D01*
X0144842Y0027714D01*
X0144840Y0027840D01*
D11*
X0139840Y0014840D02*
X0140323Y0014846D01*
X0140806Y0014863D01*
X0141289Y0014893D01*
X0141770Y0014933D01*
X0142251Y0014986D01*
X0142730Y0015050D01*
X0143207Y0015125D01*
X0143683Y0015213D01*
X0144156Y0015311D01*
X0144626Y0015421D01*
X0145094Y0015542D01*
X0145559Y0015675D01*
X0146020Y0015819D01*
X0146478Y0015974D01*
X0146932Y0016140D01*
X0147382Y0016317D01*
X0147827Y0016504D01*
X0148268Y0016703D01*
X0148704Y0016911D01*
X0149134Y0017131D01*
X0149560Y0017361D01*
X0149979Y0017601D01*
X0150393Y0017851D01*
X0150800Y0018111D01*
X0151201Y0018380D01*
X0151596Y0018660D01*
X0151983Y0018948D01*
X0152364Y0019247D01*
X0152737Y0019554D01*
X0153102Y0019870D01*
X0153460Y0020195D01*
X0153810Y0020528D01*
X0154152Y0020870D01*
X0154485Y0021220D01*
X0154810Y0021578D01*
X0155126Y0021943D01*
X0155433Y0022316D01*
X0155732Y0022697D01*
X0156020Y0023084D01*
X0156300Y0023479D01*
X0156569Y0023880D01*
X0156829Y0024287D01*
X0157079Y0024701D01*
X0157319Y0025120D01*
X0157549Y0025546D01*
X0157769Y0025976D01*
X0157977Y0026412D01*
X0158176Y0026853D01*
X0158363Y0027298D01*
X0158540Y0027748D01*
X0158706Y0028202D01*
X0158861Y0028660D01*
X0159005Y0029121D01*
X0159138Y0029586D01*
X0159259Y0030054D01*
X0159369Y0030524D01*
X0159467Y0030997D01*
X0159555Y0031473D01*
X0159630Y0031950D01*
X0159694Y0032429D01*
X0159747Y0032910D01*
X0159787Y0033391D01*
X0159817Y0033874D01*
X0159834Y0034357D01*
X0159840Y0034840D01*
X0159840Y0143840D01*
X0159835Y0144227D01*
X0159821Y0144613D01*
X0159798Y0144999D01*
X0159765Y0145384D01*
X0159723Y0145769D01*
X0159672Y0146152D01*
X0159612Y0146534D01*
X0159542Y0146914D01*
X0159463Y0147293D01*
X0159375Y0147669D01*
X0159278Y0148043D01*
X0159172Y0148415D01*
X0159057Y0148784D01*
X0158933Y0149151D01*
X0158800Y0149514D01*
X0158659Y0149874D01*
X0158509Y0150230D01*
X0158350Y0150582D01*
X0158183Y0150931D01*
X0158007Y0151276D01*
X0157823Y0151616D01*
X0157632Y0151951D01*
X0157431Y0152282D01*
X0157224Y0152608D01*
X0157008Y0152929D01*
X0156784Y0153245D01*
X0156553Y0153555D01*
X0156315Y0153859D01*
X0156069Y0154157D01*
X0155816Y0154450D01*
X0155556Y0154736D01*
X0155290Y0155016D01*
X0155016Y0155290D01*
X0154736Y0155556D01*
X0154450Y0155816D01*
X0154157Y0156069D01*
X0153859Y0156315D01*
X0153555Y0156553D01*
X0153245Y0156784D01*
X0152929Y0157008D01*
X0152608Y0157224D01*
X0152282Y0157431D01*
X0151951Y0157632D01*
X0151616Y0157823D01*
X0151276Y0158007D01*
X0150931Y0158183D01*
X0150582Y0158350D01*
X0150230Y0158509D01*
X0149874Y0158659D01*
X0149514Y0158800D01*
X0149151Y0158933D01*
X0148784Y0159057D01*
X0148415Y0159172D01*
X0148043Y0159278D01*
X0147669Y0159375D01*
X0147293Y0159463D01*
X0146914Y0159542D01*
X0146534Y0159612D01*
X0146152Y0159672D01*
X0145769Y0159723D01*
X0145384Y0159765D01*
X0144999Y0159798D01*
X0144613Y0159821D01*
X0144227Y0159835D01*
X0143840Y0159840D01*
X0034840Y0159840D01*
X0034357Y0159834D01*
X0033874Y0159817D01*
X0033391Y0159787D01*
X0032910Y0159747D01*
X0032429Y0159694D01*
X0031950Y0159630D01*
X0031473Y0159555D01*
X0030997Y0159467D01*
X0030524Y0159369D01*
X0030054Y0159259D01*
X0029586Y0159138D01*
X0029121Y0159005D01*
X0028660Y0158861D01*
X0028202Y0158706D01*
X0027748Y0158540D01*
X0027298Y0158363D01*
X0026853Y0158176D01*
X0026412Y0157977D01*
X0025976Y0157769D01*
X0025546Y0157549D01*
X0025120Y0157319D01*
X0024701Y0157079D01*
X0024287Y0156829D01*
X0023880Y0156569D01*
X0023479Y0156300D01*
X0023084Y0156020D01*
X0022697Y0155732D01*
X0022316Y0155433D01*
X0021943Y0155126D01*
X0021578Y0154810D01*
X0021220Y0154485D01*
X0020870Y0154152D01*
X0020528Y0153810D01*
X0020195Y0153460D01*
X0019870Y0153102D01*
X0019554Y0152737D01*
X0019247Y0152364D01*
X0018948Y0151983D01*
X0018660Y0151596D01*
X0018380Y0151201D01*
X0018111Y0150800D01*
X0017851Y0150393D01*
X0017601Y0149979D01*
X0017361Y0149560D01*
X0017131Y0149134D01*
X0016911Y0148704D01*
X0016703Y0148268D01*
X0016504Y0147827D01*
X0016317Y0147382D01*
X0016140Y0146932D01*
X0015974Y0146478D01*
X0015819Y0146020D01*
X0015675Y0145559D01*
X0015542Y0145094D01*
X0015421Y0144626D01*
X0015311Y0144156D01*
X0015213Y0143683D01*
X0015125Y0143207D01*
X0015050Y0142730D01*
X0014986Y0142251D01*
X0014933Y0141770D01*
X0014893Y0141289D01*
X0014863Y0140806D01*
X0014846Y0140323D01*
X0014840Y0139840D01*
X0014840Y0069658D01*
X0014856Y0068333D01*
X0014904Y0067010D01*
X0014984Y0065687D01*
X0015096Y0064367D01*
X0015240Y0063050D01*
X0015415Y0061737D01*
X0015622Y0060429D01*
X0015861Y0059126D01*
X0016131Y0057829D01*
X0016433Y0056539D01*
X0016765Y0055257D01*
X0017129Y0053983D01*
X0017523Y0052718D01*
X0017948Y0051463D01*
X0018402Y0050219D01*
X0018887Y0048986D01*
X0019401Y0047766D01*
X0019945Y0046558D01*
X0020518Y0045363D01*
X0021119Y0044183D01*
X0021749Y0043017D01*
X0022407Y0041867D01*
X0023092Y0040734D01*
X0023804Y0039617D01*
X0024544Y0038518D01*
X0025309Y0037437D01*
X0026101Y0036375D01*
X0026918Y0035332D01*
X0027760Y0034309D01*
X0028626Y0033307D01*
X0029516Y0032326D01*
X0030430Y0031367D01*
X0031367Y0030430D01*
X0032326Y0029516D01*
X0033307Y0028626D01*
X0034309Y0027760D01*
X0035332Y0026918D01*
X0036375Y0026101D01*
X0037437Y0025309D01*
X0038518Y0024544D01*
X0039617Y0023804D01*
X0040734Y0023092D01*
X0041867Y0022407D01*
X0043017Y0021749D01*
X0044183Y0021119D01*
X0045363Y0020518D01*
X0046558Y0019945D01*
X0047766Y0019401D01*
X0048986Y0018887D01*
X0050219Y0018402D01*
X0051463Y0017948D01*
X0052718Y0017523D01*
X0053983Y0017129D01*
X0055257Y0016765D01*
X0056539Y0016433D01*
X0057829Y0016131D01*
X0059126Y0015861D01*
X0060429Y0015622D01*
X0061737Y0015415D01*
X0063050Y0015240D01*
X0064367Y0015096D01*
X0065687Y0014984D01*
X0067010Y0014904D01*
X0068333Y0014856D01*
X0069658Y0014840D01*
X0139840Y0014840D01*
M02*
