<?xml version="1.0" encoding="UTF-8" standalone="no"?>
<!DOCTYPE svg PUBLIC "-//W3C//DTD SVG 1.1//EN" "http://www.w3.org/Graphics/SVG/1.1/DTD/svg11.dtd">
<!-- Generated by Microsoft Visio, SVG Export ant_background_scanning.svg Page-1 -->
<svg xmlns="http://www.w3.org/2000/svg" xmlns:xlink="http://www.w3.org/1999/xlink" xmlns:ev="http://www.w3.org/2001/xml-events"
		width="6.26511in" height="0.955152in" viewBox="0 0 451.088 68.771" xml:space="preserve" color-interpolation-filters="sRGB"
		class="st9">
	<style type="text/css">
	<![CDATA[
		.st1 {fill:#5b9bd5;stroke:#000000;stroke-width:0.25}
		.st2 {fill:#feffff;font-family:Calibri;font-size:1.00001em}
		.st3 {fill:#7f7f7f;stroke:#000000;stroke-width:0.25}
		.st4 {fill:#000000;stroke:#000000;stroke-width:0.25}
		.st5 {marker-end:url(#mrkr4-13);stroke:#000000;stroke-linecap:round;stroke-linejoin:round;stroke-width:0.999998}
		.st6 {fill:#000000;fill-opacity:1;stroke:#000000;stroke-opacity:1;stroke-width:0.28409052084726}
		.st7 {fill:none;stroke:none;stroke-width:0.25}
		.st8 {fill:#000000;font-family:Calibri;font-size:1.00001em}
		.st9 {fill:none;fill-rule:evenodd;font-size:12px;overflow:visible;stroke-linecap:square;stroke-miterlimit:3}
	]]>
	</style>

	<defs id="Markers">
		<g id="lend4">
			<path d="M 2 1 L 0 0 L 2 -1 L 2 1 " style="stroke:none"/>
		</g>
		<marker id="mrkr4-13" class="st6" refX="-0" orient="auto" markerUnits="strokeWidth" overflow="visible">
			<use xlink:href="#lend4" transform="scale(-3.5200048105006,-3.5200048105006) "/>
		</marker>
	</defs>
	<g>
		<title>Page-1</title>
		<g id="shape13-1" transform="translate(0.25,-0.25)">
			<title>Rectangle.7</title>
			<desc>Node A</desc>
			<rect x="0" y="0.499999" width="85.3387" height="68.271" class="st1"/>
			<text x="24.67" y="38.24" class="st2">Node A</text>		</g>
		<g id="shape14-4" transform="translate(75.3482,-10.4931)">
			<title>Sheet.14</title>
			<path d="M10.24 48.29 A10.2407 10.2407 -180 0 0 -0 58.54 A10.2407 10.2407 -180 0 0 10.24 68.77 L10.24 48.29 Z"
					class="st3"/>
		</g>
		<g id="shape15-6" transform="translate(75.3482,-37.8015)">
			<title>Sheet.15</title>
			<path d="M10.24 48.29 A10.2407 10.2407 -180 0 0 -0 58.54 A10.2407 10.2407 -180 0 0 10.24 68.77 L10.24 48.29 Z"
					class="st4"/>
		</g>
		<g id="shape16-8" transform="translate(85.5902,-48.038)">
			<title>Directed line 1.22</title>
			<path d="M0 68.77 L40.02 68.77 L41.3 68.77 L47.57 68.77" class="st5"/>
		</g>
		<g id="shape17-14" transform="translate(263.957,-37.8015)">
			<title>Sheet.17</title>
			<path d="M10.24 48.29 A10.2407 10.2407 -180 0 0 -0 58.54 A10.2407 10.2407 -180 0 0 10.24 68.77 L10.24 48.29 Z"
					class="st4"/>
		</g>
		<g id="shape18-16" transform="translate(263.957,-13.9068)">
			<title>Sheet.18</title>
			<path d="M10.24 48.29 A10.2407 10.2407 -180 0 0 -0 58.54 A10.2407 10.2407 -180 0 0 10.24 68.77 L10.24 48.29 Z"
					class="st3"/>
		</g>
		<g id="shape19-18" transform="translate(275.905,-41.2124)">
			<title>Sheet.19</title>
			<desc>Master Endpoint</desc>
			<rect x="0" y="51.7032" width="110.941" height="17.0678" class="st7"/>
			<text x="4" y="63.84" class="st8">Master Endpoint</text>		</g>
		<g id="shape20-21" transform="translate(275.905,-17.3176)">
			<title>Sheet.20</title>
			<desc>Background Scanning Endpoint</desc>
			<rect x="0" y="51.7032" width="174.933" height="17.0678" class="st7"/>
			<text x="4" y="63.84" class="st8">Background Scanning  Endpoint</text>		</g>
		<g id="shape21-24" transform="translate(133.379,-0.25)">
			<title>Rectangle.201</title>
			<desc>Node B</desc>
			<rect x="0" y="0.499999" width="85.3387" height="68.271" class="st1"/>
			<text x="24.87" y="38.24" class="st2">Node B</text>		</g>
		<g id="shape22-27" transform="translate(143.62,106.573) rotate(180)">
			<title>Sheet.22</title>
			<path d="M10.24 48.29 A10.2407 10.2407 -180 0 0 -0 58.54 A10.2407 10.2407 -180 0 0 10.24 68.77 L10.24 48.29 Z"
					class="st4"/>
		</g>
		<g id="shape23-29" transform="translate(143.62,79.2639) rotate(180)">
			<title>Sheet.23</title>
			<path d="M10.24 48.29 A10.2407 10.2407 -180 0 0 -0 58.54 A10.2407 10.2407 -180 0 0 10.24 68.77 L10.24 48.29 Z"
					class="st3"/>
		</g>
		<g id="shape24-31" transform="translate(133.428,116.813) rotate(180)">
			<title>Directed line 1.208</title>
			<path d="M0 68.77 L40.02 68.77 L41.3 68.77 L47.57 68.77" class="st5"/>
		</g>
	</g>
</svg>
