<?xml version="1.0" encoding="UTF-8" standalone="no"?>
<!DOCTYPE svg PUBLIC "-//W3C//DTD SVG 1.1//EN" "http://www.w3.org/Graphics/SVG/1.1/DTD/svg11.dtd">
<!-- Generated by Microsoft Visio, SVG Export ant_background_scanning_setup.svg Page-1 -->
<svg xmlns="http://www.w3.org/2000/svg" xmlns:xlink="http://www.w3.org/1999/xlink" xmlns:ev="http://www.w3.org/2001/xml-events"
		xmlns:v="http://schemas.microsoft.com/visio/2003/SVGExtensions/" width="5.79434in" height="1.00236in"
		viewBox="0 0 417.192 72.17" xml:space="preserve" color-interpolation-filters="sRGB" class="st17">
	<v:documentProperties v:langID="1044" v:viewMarkup="false"/>

	<style type="text/css">
	<![CDATA[
		.st1 {fill:#5b9bd5;stroke:#000000;stroke-width:0.25}
		.st2 {fill:#feffff;font-family:Calibri;font-size:1.00001em}
		.st3 {fill:#7f7f7f;stroke:#000000;stroke-width:0.25}
		.st4 {fill:#000000;stroke:#000000;stroke-width:0.25}
		.st5 {fill:#bfbfbf;stroke:#000000;stroke-width:0.25}
		.st6 {fill:#ffffff;stroke:#000000;stroke-width:0.25}
		.st7 {fill:#5b9bd5;stroke:#c7c8c8;stroke-width:0.25}
		.st8 {visibility:visible}
		.st9 {fill:#5b9bd5;fill-opacity:0.22;filter:url(#filter_2);stroke:#5b9bd5;stroke-opacity:0.22}
		.st10 {fill:#feffff;stroke:#c7c8c8;stroke-width:0.25}
		.st11 {fill:#ffffff;stroke:none;stroke-width:0.999998}
		.st12 {fill:#1e4a73;font-family:Calibri;font-size:1.00001em}
		.st13 {marker-end:url(#mrkr4-30);stroke:#000000;stroke-linecap:round;stroke-linejoin:round;stroke-width:0.999998}
		.st14 {fill:#000000;fill-opacity:1;stroke:#000000;stroke-opacity:1;stroke-width:0.28409053305739}
		.st15 {fill:none;stroke:none;stroke-width:0.25}
		.st16 {fill:#000000;font-family:Calibri;font-size:1.00001em}
		.st17 {fill:none;fill-rule:evenodd;font-size:12px;overflow:visible;stroke-linecap:square;stroke-miterlimit:3}
	]]>
	</style>

	<defs id="Markers">
		<g id="lend4">
			<path d="M 2 1 L 0 0 L 2 -1 L 2 1 " style="stroke:none"/>
		</g>
		<marker id="mrkr4-30" class="st14" v:arrowType="4" v:arrowSize="2" v:setback="0" refX="-0" orient="auto"
				markerUnits="strokeWidth" overflow="visible">
			<use xlink:href="#lend4" transform="scale(-3.5200046592119,-3.5200046592119) "/>
		</marker>
	</defs>
	<defs id="Filters">
		<filter id="filter_2">
			<feGaussianBlur stdDeviation="2"/>
		</filter>
	</defs>
	<g v:mID="0" v:index="1" v:groupContext="foregroundPage">
		<title>Page-1</title>
		<v:pageProperties v:drawingScale="0.0393701" v:pageScale="0.0393701" v:drawingUnits="24" v:shadowOffsetX="8.50392"
				v:shadowOffsetY="-8.50392"/>
		<v:layer v:name="Connector" v:index="0"/>
		<g id="shape25-1" v:mID="25" v:groupContext="shape" transform="translate(0.25,-3.60984)">
			<title>Rectangle.212</title>
			<desc>Node A</desc>
			<v:userDefs>
				<v:ud v:nameU="visVersion" v:val="VT0(15):26"/>
			</v:userDefs>
			<v:textBlock v:margins="rect(3.99999,3.99999,3.99999,3.99999)" v:tabSpace="42.5196"/>
			<v:textRect cx="42.6931" cy="38.015" width="85.4" height="68.3102"/>
			<rect x="0" y="3.85984" width="85.3877" height="68.3102" class="st1"/>
			<text x="24.69" y="41.62" class="st2" v:langID="1044"><v:paragraph v:horizAlign="1"/><v:tabList/>Node A</text>		</g>
		<g id="shape26-4" v:mID="26" v:groupContext="shape" transform="translate(75.3913,-13.8591)">
			<title>Sheet.26</title>
			<path d="M10.24 51.68 A10.2466 10.2466 -180 0 0 0 61.93 A10.2466 10.2466 -180 0 0 10.24 72.17 L10.24 51.68 Z"
					class="st3"/>
		</g>
		<g id="shape27-6" v:mID="27" v:groupContext="shape" transform="translate(75.3913,-41.1832)">
			<title>Sheet.27</title>
			<path d="M10.24 51.68 A10.2466 10.2466 -180 0 0 0 61.93 A10.2466 10.2466 -180 0 0 10.24 72.17 L10.24 51.68 Z"
					class="st4"/>
		</g>
		<g id="shape28-8" v:mID="28" v:groupContext="shape" transform="translate(119.793,-3.60984)">
			<title>Rectangle.219</title>
			<v:userDefs>
				<v:ud v:nameU="visVersion" v:val="VT0(15):26"/>
			</v:userDefs>
			<rect x="0" y="3.85984" width="85.3877" height="68.3102" class="st5"/>
		</g>
		<g id="shape29-10" v:mID="29" v:groupContext="shape" transform="translate(130.04,81.8153) rotate(180)">
			<title>Sheet.29</title>
			<path d="M10.24 51.68 A10.2466 10.2466 -180 0 0 0 61.93 A10.2466 10.2466 -180 0 0 10.24 72.17 L10.24 51.68 Z"
					class="st6"/>
		</g>
		<g id="shape30-12" v:mID="30" v:groupContext="shape" transform="translate(157.364,-26.5033)">
			<title>Sheet.30</title>
			<path d="M39.02 35.98 L2.39 35.98 L2.39 60.42 L39.02 60.42 L39.02 35.98 ZM40.99 72.17 L34.83 64.46 L6.15 64.46 L0 72.17
						 L40.99 72.17 ZM23.71 60.42 L17.28 60.42 L17.28 64.46 L23.71 64.46 L23.71 60.42 Z" class="st7"/>
		</g>
		<g id="shape31-14" v:mID="31" v:groupContext="shape" transform="translate(162.123,-40.4504)">
			<title>Sheet.31</title>
			<v:userDefs>
				<v:ud v:nameU="SurroundingRegionColor" v:prompt="" v:val="VT0(0):26"/>
			</v:userDefs>
			<g id="shadow31-15" v:groupContext="shadow" v:shadowOffsetX="0.345597" v:shadowOffsetY="-1.97279" v:shadowType="1"
					transform="matrix(1,0,0,1,0.345597,1.97279)" class="st8">
				<path d="M31.93 52.35 L0 52.35 L0 72.17 L31.93 72.17 L31.93 52.35 Z" class="st9"/>
			</g>
			<path d="M31.93 52.35 L0 52.35 L0 72.17 L31.93 72.17 L31.93 52.35 Z" class="st10"/>
		</g>
		<g id="shape32-19" v:mID="32" v:groupContext="shape" transform="translate(162.942,-28.0942)">
			<title>Sheet.32</title>
			<v:userDefs>
				<v:ud v:nameU="SurroundingRegionColor" v:prompt="" v:val="VT0(0):26"/>
			</v:userDefs>
			<path d="M27.99 69.18 L26.17 69.18 L27.18 70.32 L29.15 70.32 L27.99 69.18 ZM25.93 67.17 L24.36 67.17 L25.46 68.39 L27.17
						 68.39 L25.93 67.17 ZM25.18 69.18 L23.36 69.18 L24.16 70.32 L26.12 70.32 L25.18 69.18 ZM23.52 67.17 L21.94
						 67.17 L22.81 68.39 L24.53 68.39 L23.52 67.17 ZM22.39 69.18 L20.56 69.18 L21.15 70.32 L23.11 70.32 L22.39
						 69.18 ZM21.11 67.17 L19.53 67.17 L20.16 68.41 L21.89 68.41 L21.11 67.17 ZM19.58 69.18 L17.76 69.18 L18.12
						 70.32 L20.09 70.32 L19.58 69.18 ZM18.72 67.26 L17.15 67.26 L17.52 68.41 L19.24 68.41 L18.72 67.26 ZM16.78
						 69.18 L14.95 69.18 L15.1 70.32 L17.06 70.32 L16.78 69.18 ZM16.31 67.35 L14.72 67.35 L14.87 68.49 L16.6 68.49
						 L16.31 67.35 ZM13.87 67.35 L12.28 67.35 L12.21 68.49 L13.94 68.49 L13.87 67.35 ZM13.98 69.18 L12.16 69.18
						 L12.09 70.32 L14.05 70.32 L13.98 69.18 ZM11.42 67.35 L9.83 67.35 L9.53 68.49 L11.27 68.49 L11.42 67.35 ZM11.18
						 69.18 L9.35 69.18 L9.06 70.32 L11.03 70.32 L11.18 69.18 ZM21.17 71.04 L8.31 71.04 L7.99 72.17 L21.72 72.17
						 L21.17 71.04 ZM8.98 67.35 L7.39 67.35 L6.87 68.49 L8.6 68.49 L8.98 67.35 ZM8.37 69.18 L6.55 69.18 L6.04
						 70.32 L8 70.32 L8.37 69.18 ZM6.52 67.35 L4.93 67.35 L4.21 68.49 L5.94 68.49 L6.52 67.35 ZM5.58 69.18 L3.75
						 69.18 L3.02 70.32 L4.99 70.32 L5.58 69.18 ZM4.07 67.35 L2.48 67.35 L1.53 68.49 L3.27 68.49 L4.07 67.35 ZM2.77
						 69.18 L0.95 69.18 L0 70.32 L1.96 70.32 L2.77 69.18 Z" class="st11"/>
		</g>
		<g id="shape33-21" v:mID="33" v:groupContext="shape" transform="translate(149.041,-5.68434E-014)">
			<title>Terminal</title>
			<desc>ANTware</desc>
			<v:custProps>
				<v:cp v:nameU="AssetNumber" v:lbl="Asset Number" v:prompt="" v:type="0" v:format="" v:sortKey="Asset"
						v:invis="false" v:ask="false" v:langID="1044" v:cal="0"/>
				<v:cp v:nameU="SerialNumber" v:lbl="Serial Number" v:prompt="" v:type="0" v:format="" v:sortKey="Asset"
						v:invis="false" v:ask="false" v:langID="1044" v:cal="0"/>
				<v:cp v:nameU="Location" v:lbl="Location" v:prompt="" v:type="0" v:format="" v:sortKey="Asset" v:invis="false"
						v:ask="false" v:langID="1044" v:cal="0"/>
				<v:cp v:nameU="Building" v:lbl="Building" v:prompt="" v:type="0" v:format="" v:sortKey="Asset" v:invis="false"
						v:ask="false" v:langID="1044" v:cal="0"/>
				<v:cp v:nameU="Room" v:lbl="Room" v:prompt="" v:type="0" v:format="" v:sortKey="Asset" v:invis="false"
						v:ask="false" v:langID="1044" v:cal="0"/>
				<v:cp v:nameU="Manufacturer" v:lbl="Manufacturer" v:prompt="" v:type="0" v:format="" v:sortKey="Equipment"
						v:invis="false" v:ask="false" v:langID="1044" v:cal="0"/>
				<v:cp v:nameU="ProductNumber" v:lbl="Product Number" v:prompt="" v:type="0" v:format="" v:sortKey="Equipment"
						v:invis="false" v:ask="false" v:langID="1044" v:cal="0"/>
				<v:cp v:nameU="PartNumber" v:lbl="Part Number" v:prompt="" v:type="0" v:format="" v:sortKey="Equipment"
						v:invis="false" v:ask="false" v:langID="1044" v:cal="0"/>
				<v:cp v:nameU="ProductDescription" v:lbl="Product Description" v:prompt="" v:type="0" v:format=""
						v:sortKey="Equipment" v:invis="false" v:ask="false" v:langID="1044" v:cal="0"/>
				<v:cp v:nameU="NetworkName" v:lbl="Network Name" v:prompt="" v:type="0" v:format="" v:sortKey="Network"
						v:invis="false" v:ask="false" v:langID="1044" v:cal="0"/>
				<v:cp v:nameU="IPAddress" v:lbl="IP Address" v:prompt="" v:type="0" v:format="" v:sortKey="Network" v:invis="false"
						v:ask="false" v:langID="1044" v:cal="0"/>
				<v:cp v:nameU="SubnetMask" v:lbl="Subnet Mask" v:prompt="" v:type="0" v:format="" v:sortKey="Network"
						v:invis="false" v:ask="false" v:langID="1044" v:cal="0"/>
				<v:cp v:nameU="AdminInterface" v:lbl="Administrative Interface" v:prompt="" v:type="0" v:format=""
						v:sortKey="Network" v:invis="false" v:ask="false" v:langID="1044" v:cal="0"/>
				<v:cp v:nameU="NumberofPorts" v:lbl="Number of Ports" v:prompt="" v:type="0" v:format="" v:sortKey="Network"
						v:invis="false" v:ask="false" v:langID="1044" v:cal="0"/>
				<v:cp v:nameU="CommunityString" v:lbl="Community String" v:prompt="" v:type="0" v:format="" v:sortKey="Network"
						v:invis="false" v:ask="false" v:langID="1044" v:cal="0"/>
				<v:cp v:nameU="NetworkDescription" v:lbl="Network Description" v:prompt="" v:type="0" v:format=""
						v:sortKey="Network" v:invis="false" v:ask="false" v:langID="1044" v:cal="0"/>
				<v:cp v:nameU="MACAddress" v:lbl="MAC Address" v:prompt="" v:type="0" v:format="" v:sortKey="Network"
						v:invis="false" v:ask="false" v:langID="1044" v:cal="0"/>
				<v:cp v:nameU="CPU" v:lbl="CPU" v:prompt="" v:type="0" v:format="" v:sortKey="Workstation" v:invis="false"
						v:ask="false" v:langID="1044" v:cal="0"/>
				<v:cp v:nameU="Memory" v:lbl="Memory" v:prompt="" v:type="0" v:format="" v:sortKey="Workstation" v:invis="false"
						v:ask="false" v:langID="1044" v:cal="0"/>
				<v:cp v:nameU="OperatingSystem" v:lbl="Operating System" v:prompt="" v:type="0" v:format="" v:sortKey="Workstation"
						v:invis="false" v:ask="false" v:langID="1044" v:cal="0"/>
				<v:cp v:nameU="HardDriveSize" v:lbl="Hard Drive Capacity" v:prompt="" v:type="0" v:format=""
						v:sortKey="Workstation" v:invis="false" v:ask="false" v:langID="1044" v:cal="0"/>
				<v:cp v:nameU="ShapeClass" v:lbl="ShapeClass" v:prompt="" v:type="0" v:format="" v:sortKey="" v:invis="true"
						v:ask="false" v:langID="1044" v:cal="0" v:val="VT4(Equipment)"/>
				<v:cp v:nameU="ShapeType" v:lbl="ShapeType" v:prompt="" v:type="0" v:format="" v:sortKey="" v:invis="true"
						v:ask="false" v:langID="1044" v:cal="0" v:val="VT4(Terminal)"/>
			</v:custProps>
			<v:userDefs>
				<v:ud v:nameU="visVersion" v:prompt="" v:val="VT0(15):26"/>
				<v:ud v:nameU="ShapeClass" v:prompt="" v:val="VT0(5):26"/>
				<v:ud v:nameU="SolSH" v:prompt="" v:val="VT4({BF0433D9-CD73-4EB5-8390-8653BE590246})"/>
				<v:ud v:nameU="visLegendShape" v:prompt="" v:val="VT0(2):26"/>
			</v:userDefs>
			<v:textBlock v:margins="rect(3.99999,3.99999,3.99999,3.99999)" v:tabSpace="42.5196"/>
			<v:textRect cx="28.8149" cy="60.1187" width="57.63" height="24.1027"/>
			<text x="6.31" y="63.72" class="st12" v:langID="1044"><v:paragraph v:horizAlign="1"/><v:tabList/>ANTware</text>		</g>
		<g id="shape34-23" v:mID="34" v:groupContext="shape" transform="translate(130.04,110.848) rotate(180)">
			<title>Sheet.34</title>
			<path d="M10.24 51.68 A10.2466 10.2466 -180 0 0 0 61.93 A10.2466 10.2466 -180 0 0 10.24 72.17 L10.24 51.68 Z"
					class="st4"/>
		</g>
		<g id="shape35-25" v:mID="35" v:groupContext="shape" v:layerMember="0" transform="translate(85.6378,-51.4298)">
			<title>Directed line 1.222</title>
			<v:userDefs>
				<v:ud v:nameU="visVersion" v:val="VT0(15):26"/>
			</v:userDefs>
			<path d="M0 72.17 L25.68 72.17 L27.12 72.17 L34.16 72.17" class="st13"/>
		</g>
		<g id="shape36-31" v:mID="36" v:groupContext="shape" v:layerMember="0"
				transform="translate(117.989,121.071) rotate(-178.568)">
			<title>Directed line 1.223</title>
			<v:userDefs>
				<v:ud v:nameU="visVersion" v:val="VT0(15):26"/>
			</v:userDefs>
			<path d="M0 72.17 L25.69 72.17 L27.13 72.17 L34.17 72.17" class="st13"/>
		</g>
		<g id="shape37-36" v:mID="37" v:groupContext="shape" transform="translate(229.954,-51.4298)">
			<title>Sheet.37</title>
			<path d="M10.24 51.68 A10.2466 10.2466 -180 0 0 0 61.93 A10.2466 10.2466 -180 0 0 10.24 72.17 L10.24 51.68 Z"
					class="st4"/>
		</g>
		<g id="shape38-38" v:mID="38" v:groupContext="shape" transform="translate(229.954,-27.5212)">
			<title>Sheet.38</title>
			<path d="M10.24 51.68 A10.2466 10.2466 -180 0 0 0 61.93 A10.2466 10.2466 -180 0 0 10.24 72.17 L10.24 51.68 Z"
					class="st3"/>
		</g>
		<g id="shape39-40" v:mID="39" v:groupContext="shape" transform="translate(241.909,-54.8424)">
			<title>Sheet.39</title>
			<desc>Master Endpoint</desc>
			<v:userDefs/>
			<v:textBlock v:margins="rect(3.99999,3.99999,3.99999,3.99999)" v:tabSpace="42.5196"/>
			<v:textRect cx="55.5013" cy="63.6312" width="111.01" height="17.0776"/>
			<rect x="0" y="55.0924" width="111.004" height="17.0776" class="st15"/>
			<text x="4" y="67.23" class="st16" v:langID="1044"><v:paragraph/><v:tabList/>Master Endpoint</text>		</g>
		<g id="shape40-43" v:mID="40" v:groupContext="shape" transform="translate(241.909,-30.9339)">
			<title>Sheet.40</title>
			<desc>Background Scanning Endpoint</desc>
			<v:userDefs/>
			<v:textBlock v:margins="rect(3.99999,3.99999,3.99999,3.99999)" v:tabSpace="42.5196"/>
			<v:textRect cx="87.5161" cy="63.6312" width="175.04" height="17.0776"/>
			<rect x="0" y="55.0924" width="175.034" height="17.0776" class="st15"/>
			<text x="4" y="67.23" class="st16" v:langID="1044"><v:paragraph/><v:tabList/>Background Scanning  Endpoint</text>		</g>
		<g id="shape41-46" v:mID="41" v:groupContext="shape" transform="translate(229.954,-3.61264)">
			<title>Sheet.41</title>
			<path d="M10.24 51.68 A10.2466 10.2466 -180 0 0 0 61.93 A10.2466 10.2466 -180 0 0 10.24 72.17 L10.24 51.68 Z"
					class="st6"/>
		</g>
		<g id="shape42-48" v:mID="42" v:groupContext="shape" transform="translate(241.909,-7.02534)">
			<title>Sheet.42</title>
			<desc>Slave Endpoint</desc>
			<v:userDefs/>
			<v:textBlock v:margins="rect(3.99999,3.99999,3.99999,3.99999)" v:tabSpace="42.5196"/>
			<v:textRect cx="87.5161" cy="63.6312" width="175.04" height="17.0776"/>
			<rect x="0" y="55.0924" width="175.034" height="17.0776" class="st15"/>
			<text x="4" y="67.23" class="st16" v:langID="1044"><v:paragraph/><v:tabList/>Slave Endpoint</text>		</g>
	</g>
</svg>
