<?xml version="1.0" encoding="UTF-8" standalone="no"?>
<!DOCTYPE svg PUBLIC "-//W3C//DTD SVG 1.1//EN" "http://www.w3.org/Graphics/SVG/1.1/DTD/svg11.dtd">
<!-- Generated by Microsoft Visio, SVG Export ant_relay.svg Page-1 -->
<svg xmlns="http://www.w3.org/2000/svg" xmlns:xlink="http://www.w3.org/1999/xlink" xmlns:ev="http://www.w3.org/2001/xml-events"
		width="7.15275in" height="1.61243in" viewBox="0 0 514.998 116.095" xml:space="preserve" color-interpolation-filters="sRGB"
		class="st11">
	<style type="text/css">
	<![CDATA[
		.st1 {fill:#5b9bd5;stroke:#000000;stroke-width:0.249999}
		.st2 {fill:#feffff;font-family:Calibri;font-size:1.00001em}
		.st3 {fill:#000000;stroke:#000000;stroke-width:0.249999}
		.st4 {visibility:visible}
		.st5 {fill:#5b9bd5;fill-opacity:0.22;filter:url(#filter_2);stroke:#5b9bd5;stroke-opacity:0.22}
		.st6 {fill:#ffffff;stroke:#000000;stroke-width:0.249999}
		.st7 {marker-end:url(#mrkr4-25);marker-start:url(#mrkr1-23);stroke:#000000;stroke-linecap:round;stroke-linejoin:round;stroke-width:0.999997}
		.st8 {fill:#000000;fill-opacity:1;stroke:#000000;stroke-opacity:1;stroke-width:0.2840902989406}
		.st9 {fill:none;stroke:none;stroke-width:0.249999}
		.st10 {fill:#000000;font-family:Calibri;font-size:1.00001em}
		.st11 {fill:none;fill-rule:evenodd;font-size:12px;overflow:visible;stroke-linecap:square;stroke-miterlimit:3}
	]]>
	</style>

	<defs id="Markers">
		<g id="lend1">
			<path d="M 1 -1 L 0 0 L 1 1 " style="stroke-linecap:round;stroke-linejoin:round;fill:none"/>
		</g>
		<marker id="mrkr1-23" class="st8" orient="auto" markerUnits="strokeWidth" overflow="visible">
			<use xlink:href="#lend1" transform="scale(3.5200075600227) "/>
		</marker>
		<g id="lend4">
			<path d="M 2 1 L 0 0 L 2 -1 L 2 1 " style="stroke:none"/>
		</g>
		<marker id="mrkr4-25" class="st8" refX="-0" orient="auto" markerUnits="strokeWidth" overflow="visible">
			<use xlink:href="#lend4" transform="scale(-3.5200075600227,-3.5200075600227) "/>
		</marker>
	</defs>
	<defs id="Filters">
		<filter id="filter_2">
			<feGaussianBlur stdDeviation="2"/>
		</filter>
	</defs>
	<g>
		<title>Page-1</title>
		<g id="shape43-1" transform="translate(120.27,-0.249999)">
			<title>Rectangle.2</title>
			<desc>Node B</desc>
			<rect x="0" y="47.5123" width="85.7279" height="68.5824" class="st1"/>
			<text x="25.07" y="85.4" class="st2">Node B</text>		</g>
		<g id="shape44-4" transform="translate(240.289,-0.249999)">
			<title>Rectangle.3</title>
			<desc>Node C</desc>
			<rect x="0" y="47.5123" width="85.7279" height="68.5824" class="st1"/>
			<text x="25.13" y="85.4" class="st2">Node C</text>		</g>
		<g id="shape45-7" transform="translate(0.249999,-0.249999)">
			<title>Rectangle.45</title>
			<desc>Node A</desc>
			<rect x="0" y="47.5123" width="85.7279" height="68.5824" class="st1"/>
			<text x="24.86" y="85.4" class="st2">Node A</text>		</g>
		<g id="shape46-10" transform="translate(75.6906,-24.2497)">
			<title>Sheet.46</title>
			<path d="M10.28 95.51 A10.2874 10.2874 -180 0 0 -0 105.79 A10.2874 10.2874 -180 0 0 10.28 116.09 L10.28 95.51 Z"
					class="st3"/>
		</g>
		<g id="shape47-12" transform="translate(130.557,187.357) rotate(180)">
			<title>Sheet.47</title>
			<g id="shadow47-13" transform="matrix(1,0,0,1,-0.345597,-1.97278)" class="st4">
				<path d="M10.28 95.51 A10.2874 10.2874 -180 0 0 0 105.79 A10.2874 10.2874 -180 0 0 10.28 116.09 L10.28 95.51 Z"
						class="st5"/>
			</g>
			<path d="M10.28 95.51 A10.2874 10.2874 -180 0 0 0 105.79 A10.2874 10.2874 -180 0 0 10.28 116.09 L10.28 95.51 Z"
					class="st6"/>
		</g>
		<g id="shape48-17" transform="translate(85.9776,-34.5372)">
			<title>Directed line 1</title>
			<path d="M0 116.09 L25.78 116.09 L27.26 116.09 L34.3 116.09" class="st7"/>
		</g>
		<g id="shape49-26" transform="translate(195.71,-24.2497)">
			<title>Sheet.49</title>
			<path d="M10.28 95.51 A10.2874 10.2874 -180 0 0 0 105.79 A10.2874 10.2874 -180 0 0 10.28 116.09 L10.28 95.51 Z"
					class="st3"/>
		</g>
		<g id="shape50-28" transform="translate(250.577,187.357) rotate(180)">
			<title>Sheet.50</title>
			<path d="M10.28 95.51 A10.2874 10.2874 -180 0 0 0 105.79 A10.2874 10.2874 -180 0 0 10.28 116.09 L10.28 95.51 Z"
					class="st6"/>
		</g>
		<g id="shape51-30" transform="translate(205.997,-34.5372)">
			<title>Directed line 1.12</title>
			<path d="M0 116.09 L25.78 116.09 L27.26 116.09 L34.3 116.09" class="st7"/>
		</g>
		<g id="shape52-37" transform="translate(315.73,-24.2497)">
			<title>Sheet.52</title>
			<path d="M10.28 95.51 A10.2874 10.2874 -180 0 0 0 105.79 A10.2874 10.2874 -180 0 0 10.28 116.09 L10.28 95.51 Z"
					class="st3"/>
		</g>
		<g id="shape53-39" transform="translate(326.017,-34.5372)">
			<title>Directed line 1.14</title>
			<path d="M0 116.09 L25.78 116.09 L27.26 116.09 L34.3 116.09" class="st7"/>
		</g>
		<g id="shape54-46" transform="translate(391.3,-36.3839)">
			<title>Sheet.54</title>
			<path d="M10.28 95.51 A10.2874 10.2874 -180 0 0 0 105.79 A10.2874 10.2874 -180 0 0 10.28 116.09 L10.28 95.51 Z"
					class="st3"/>
		</g>
		<g id="shape55-48" transform="translate(391.3,-12.3801)">
			<title>Sheet.55</title>
			<path d="M10.28 95.51 A10.2874 10.2874 -180 0 0 0 105.79 A10.2874 10.2874 -180 0 0 10.28 116.09 L10.28 95.51 Z"
					class="st6"/>
		</g>
		<g id="shape56-50" transform="translate(403.302,-39.8172)">
			<title>Sheet.56</title>
			<desc>Master Endpoint</desc>
			<rect x="0" y="98.9491" width="111.446" height="17.1456" class="st9"/>
			<text x="3.99" y="111.12" class="st10">Master Endpoint</text>		</g>
		<g id="shape57-53" transform="translate(403.302,-15.8134)">
			<title>Sheet.57</title>
			<desc>Slave Endpoint</desc>
			<rect x="0" y="98.9491" width="111.446" height="17.1456" class="st9"/>
			<text x="3.99" y="111.12" class="st10">Slave Endpoint</text>		</g>
		<g id="shape58-56" transform="translate(-62.6892,57.5496) rotate(-90)">
			<title>Sheet.58</title>
			<path d="M10.28 95.51 A10.2874 10.2874 -180 0 0 0 105.79 A10.2874 10.2874 -180 0 0 10.28 116.09 L10.28 95.51 Z"
					class="st3"/>
		</g>
		<g id="shape59-58" transform="translate(59.0446,57.5496) rotate(-90)">
			<title>Sheet.59</title>
			<path d="M10.28 95.51 A10.2874 10.2874 -180 0 0 0 105.79 A10.2874 10.2874 -180 0 0 10.28 116.09 L10.28 95.51 Z"
					class="st3"/>
		</g>
		<g id="shape60-60" transform="translate(177.349,57.5496) rotate(-90)">
			<title>Sheet.60</title>
			<path d="M10.28 95.51 A10.2874 10.2874 -180 0 0 0 105.79 A10.2874 10.2874 -180 0 0 10.28 116.09 L10.28 95.51 Z"
					class="st3"/>
		</g>
		<g id="shape61-62" transform="translate(-19.9246,-50.2408) rotate(-34.2869)">
			<title>Directed line 1.61</title>
			<path d="M0 116.09 L37.14 116.09 L38.61 116.09 L45.65 116.09" class="st7"/>
		</g>
		<g id="shape62-69" transform="translate(100.548,-50.2408) rotate(-34.2869)">
			<title>Directed line 1.23</title>
			<path d="M0 116.09 L37.14 116.09 L38.61 116.09 L45.65 116.09" class="st7"/>
		</g>
		<g id="shape63-76" transform="translate(221.021,-50.2408) rotate(-34.2869)">
			<title>Directed line 1.24</title>
			<path d="M0 116.09 L37.14 116.09 L38.61 116.09 L45.65 116.09" class="st7"/>
		</g>
		<g id="shape64-83" transform="translate(133.129,-98.6991)">
			<title>Sheet.64</title>
			<desc>To Mobile or PC application</desc>
			<rect x="0" y="98.9491" width="145.737" height="17.1456" class="st9"/>
			<text x="3.99" y="111.12" class="st10">To mobile or PC application</text>		</g>
	</g>
</svg>
