<?xml version="1.0" encoding="UTF-8" standalone="no"?>
<!DOCTYPE svg PUBLIC "-//W3C//DTD SVG 1.1//EN" "http://www.w3.org/Graphics/SVG/1.1/DTD/svg11.dtd">
<!-- Generated by Microsoft Visio, SVG Export ant_relay_pairing.svg Page-1 -->
<svg xmlns="http://www.w3.org/2000/svg" xmlns:xlink="http://www.w3.org/1999/xlink" xmlns:ev="http://www.w3.org/2001/xml-events"
		width="6.14868in" height="1.45042in" viewBox="0 0 442.705 104.43" xml:space="preserve" color-interpolation-filters="sRGB"
		class="st14">
	<style type="text/css">
	<![CDATA[
		.st1 {fill:#5b9bd5;stroke:#000000;stroke-width:0.249998}
		.st2 {fill:#feffff;font-family:Calibri;font-size:1.00001em}
		.st3 {fill:#000000;stroke:#000000;stroke-width:0.249998}
		.st4 {marker-end:url(#mrkr4-16);marker-start:url(#mrkr1-14);stroke:#000000;stroke-linecap:round;stroke-linejoin:round;stroke-width:0.999994}
		.st5 {fill:#000000;fill-opacity:1;stroke:#000000;stroke-opacity:1;stroke-width:0.28408961867237}
		.st6 {visibility:visible}
		.st7 {fill:#5b9bd5;fill-opacity:0.22;filter:url(#filter_2);stroke:#5b9bd5;stroke-opacity:0.22}
		.st8 {fill:#ffc000;stroke:#000000;stroke-width:0.249998}
		.st9 {fill:none;stroke:none;stroke-width:0.249998}
		.st10 {fill:#ffffff;font-family:Calibri;font-size:0.833336em}
		.st11 {fill:#7f7f7f;stroke:#000000;stroke-width:0.249998}
		.st12 {fill:#ffff00;stroke:#000000;stroke-width:0.249998}
		.st13 {fill:#000000;font-family:Calibri;font-size:1.00001em}
		.st14 {fill:none;fill-rule:evenodd;font-size:12px;overflow:visible;stroke-linecap:square;stroke-miterlimit:3}
	]]>
	</style>

	<defs id="Markers">
		<g id="lend1">
			<path d="M 1 -1 L 0 0 L 1 1 " style="stroke-linecap:round;stroke-linejoin:round;fill:none"/>
		</g>
		<marker id="mrkr1-14" class="st5" orient="auto" markerUnits="strokeWidth" overflow="visible">
			<use xlink:href="#lend1" transform="scale(3.5200159888746) "/>
		</marker>
		<g id="lend4">
			<path d="M 2 1 L 0 0 L 2 -1 L 2 1 " style="stroke:none"/>
		</g>
		<marker id="mrkr4-16" class="st5" refX="-0" orient="auto" markerUnits="strokeWidth" overflow="visible">
			<use xlink:href="#lend4" transform="scale(-3.5200159888746,-3.5200159888746) "/>
		</marker>
	</defs>
	<defs id="Filters">
		<filter id="filter_2">
			<feGaussianBlur stdDeviation="2"/>
		</filter>
	</defs>
	<g>
		<title>Page-1</title>
		<g id="shape65-1" transform="translate(7.15718,-0.776637)">
			<title>Rectangle.100</title>
			<desc>Node A</desc>
			<rect x="0" y="35.8016" width="85.7858" height="68.6287" class="st1"/>
			<text x="24.89" y="66.52" class="st2">Node A</text>		</g>
		<g id="shape66-4" transform="translate(82.6487,-24.793)">
			<title>Sheet.66</title>
			<path d="M10.29 83.84 A10.2943 10.2943 -180 0 0 -0 94.13 A10.2943 10.2943 -180 0 0 10.29 104.43 L10.29 83.84 Z"
					class="st3"/>
		</g>
		<g id="shape67-6" transform="translate(-44.0822,45.3192) rotate(-90)">
			<title>Sheet.67</title>
			<path d="M10.29 83.84 A10.2943 10.2943 -180 0 0 0 94.13 A10.2943 10.2943 -180 0 0 10.29 104.43 L10.29 83.84 Z"
					class="st3"/>
		</g>
		<g id="shape68-8" transform="translate(92.9427,-35.0873)">
			<title>Directed line 1.103</title>
			<path d="M0 104.43 L25.8 104.43 L27.28 104.43 L34.32 104.43" class="st4"/>
		</g>
		<g id="shape69-17" transform="translate(-6.85861,-52.6734) rotate(-34.2869)">
			<title>Directed line 1.104</title>
			<path d="M0 104.43 L37.16 104.43 L38.65 104.43 L45.69 104.43" class="st4"/>
		</g>
		<g id="shape70-24" transform="translate(36.7505,-13.5082)">
			<title>Circle.105</title>
			<g id="shadow70-25" transform="matrix(1,0,0,1,0.345596,1.97277)" class="st6">
				<path d="M0 101.72 A2.57357 2.57357 0 0 1 5.14 101.72 A2.57357 2.57357 0 1 1 0 101.72 Z" class="st7"/>
			</g>
			<path d="M0 101.72 A2.57357 2.57357 0 0 1 5.14 101.72 A2.57357 2.57357 0 1 1 0 101.72 Z" class="st8"/>
		</g>
		<g id="shape71-29" transform="translate(36.7505,-5.27284)">
			<title>Circle.106</title>
			<g id="shadow71-30" transform="matrix(1,0,0,1,0.345596,1.97277)" class="st6">
				<path d="M0 101.72 A2.57357 2.57357 0 0 1 5.14 101.72 A2.57357 2.57357 0 1 1 0 101.72 Z" class="st7"/>
			</g>
			<path d="M0 101.72 A2.57357 2.57357 0 0 1 5.14 101.72 A2.57357 2.57357 0 1 1 0 101.72 Z" class="st8"/>
		</g>
		<g id="shape72-34" transform="translate(0.249998,-12.7867)">
			<title>Sheet.72</title>
			<desc>Led 1</desc>
			<rect x="0" y="97.5674" width="35.3439" height="6.86287" class="st9"/>
			<text x="8.78" y="104" class="st10">LED 2</text>		</g>
		<g id="shape73-37" transform="translate(0.249998,-4.20804)">
			<title>Sheet.73</title>
			<desc>Led 0</desc>
			<rect x="0" y="97.5674" width="35.3439" height="6.86287" class="st9"/>
			<text x="8.78" y="104" class="st10">LED 1</text>		</g>
		<g id="shape74-40" transform="translate(76.0675,-11.4581)">
			<title>Circle.109</title>
			<g id="shadow74-41" transform="matrix(1,0,0,1,0.345596,1.97277)" class="st6">
				<path d="M0 101.72 A2.57357 2.57357 0 0 1 5.14 101.72 A2.57357 2.57357 0 1 1 0 101.72 Z" class="st7"/>
			</g>
			<path d="M0 101.72 A2.57357 2.57357 0 0 1 5.14 101.72 A2.57357 2.57357 0 1 1 0 101.72 Z" class="st11"/>
		</g>
		<g id="shape75-45" transform="translate(57.5378,-11.4581)">
			<title>Circle.110</title>
			<g id="shadow75-46" transform="matrix(1,0,0,1,0.345596,1.97277)" class="st6">
				<path d="M0 101.72 A2.57357 2.57357 0 0 1 5.14 101.72 A2.57357 2.57357 0 1 1 0 101.72 Z" class="st7"/>
			</g>
			<path d="M0 101.72 A2.57357 2.57357 0 0 1 5.14 101.72 A2.57357 2.57357 0 1 1 0 101.72 Z" class="st11"/>
		</g>
		<g id="shape76-50" transform="translate(48.0918,-18.8299)">
			<title>Sheet.76</title>
			<desc>Button</desc>
			<rect x="0" y="97.5674" width="40.4909" height="6.86287" class="st9"/>
			<text x="6.28" y="104" class="st10">Button</text>		</g>
		<g id="shape77-53" transform="translate(52.8659,-3.53746)">
			<title>Sheet.77</title>
			<desc>0</desc>
			<rect x="0" y="99.2831" width="10.2943" height="5.14715" class="st9"/>
			<text x="3.99" y="104.86" class="st10">1</text>		</g>
		<g id="shape78-56" transform="translate(71.739,-3.53746)">
			<title>Sheet.78</title>
			<desc>1</desc>
			<rect x="0" y="99.2831" width="10.2943" height="5.14715" class="st9"/>
			<text x="3.99" y="104.86" class="st10">2</text>		</g>
		<g id="shape79-59" transform="translate(127.257,-0.776637)">
			<title>Rectangle.114</title>
			<desc>Node B</desc>
			<rect x="0" y="35.8016" width="85.7858" height="68.6287" class="st1"/>
			<text x="25.1" y="66.52" class="st2">Node B</text>		</g>
		<g id="shape80-62" transform="translate(202.749,-24.793)">
			<title>Sheet.80</title>
			<path d="M10.29 83.84 A10.2943 10.2943 -180 0 0 0 94.13 A10.2943 10.2943 -180 0 0 10.29 104.43 L10.29 83.84 Z"
					class="st3"/>
		</g>
		<g id="shape81-64" transform="translate(76.018,45.3192) rotate(-90)">
			<title>Sheet.81</title>
			<path d="M10.29 83.84 A10.2943 10.2943 -180 0 0 0 94.13 A10.2943 10.2943 -180 0 0 10.29 104.43 L10.29 83.84 Z"
					class="st3"/>
		</g>
		<g id="shape82-66" transform="translate(213.043,-35.0873)">
			<title>Directed line 1.117</title>
			<path d="M0 104.43 L25.8 104.43 L27.28 104.43 L34.32 104.43" class="st4"/>
		</g>
		<g id="shape83-73" transform="translate(113.092,-52.6734) rotate(-34.2869)">
			<title>Directed line 1.118</title>
			<path d="M0 104.43 L37.16 104.43 L38.65 104.43 L45.69 104.43" class="st4"/>
		</g>
		<g id="shape84-80" transform="translate(156.85,-13.5082)">
			<title>Circle.119</title>
			<g id="shadow84-81" transform="matrix(1,0,0,1,0.345596,1.97277)" class="st6">
				<path d="M0 101.72 A2.57357 2.57357 0 0 1 5.14 101.72 A2.57357 2.57357 0 1 1 0 101.72 Z" class="st7"/>
			</g>
			<path d="M0 101.72 A2.57357 2.57357 0 0 1 5.14 101.72 A2.57357 2.57357 0 1 1 0 101.72 Z" class="st12"/>
		</g>
		<g id="shape85-85" transform="translate(156.85,-5.27284)">
			<title>Circle.120</title>
			<g id="shadow85-86" transform="matrix(1,0,0,1,0.345596,1.97277)" class="st6">
				<path d="M0 101.72 A2.57357 2.57357 0 0 1 5.14 101.72 A2.57357 2.57357 0 1 1 0 101.72 Z" class="st7"/>
			</g>
			<path d="M0 101.72 A2.57357 2.57357 0 0 1 5.14 101.72 A2.57357 2.57357 0 1 1 0 101.72 Z" class="st8"/>
		</g>
		<g id="shape86-90" transform="translate(120.351,-12.7867)">
			<title>Sheet.86</title>
			<desc>Led 1</desc>
			<rect x="0" y="97.5674" width="35.3439" height="6.86287" class="st9"/>
			<text x="8.78" y="104" class="st10">LED 2</text>		</g>
		<g id="shape87-93" transform="translate(120.351,-4.20804)">
			<title>Sheet.87</title>
			<desc>Led 0</desc>
			<rect x="0" y="97.5674" width="35.3439" height="6.86287" class="st9"/>
			<text x="8.78" y="104" class="st10">LED 1   </text>		</g>
		<g id="shape88-96" transform="translate(197.014,-11.4581)">
			<title>Circle.123</title>
			<g id="shadow88-97" transform="matrix(1,0,0,1,0.345596,1.97277)" class="st6">
				<path d="M0 101.72 A2.57357 2.57357 0 0 1 5.14 101.72 A2.57357 2.57357 0 1 1 0 101.72 Z" class="st7"/>
			</g>
			<path d="M0 101.72 A2.57357 2.57357 0 0 1 5.14 101.72 A2.57357 2.57357 0 1 1 0 101.72 Z" class="st11"/>
		</g>
		<g id="shape89-101" transform="translate(178.485,-11.4581)">
			<title>Circle.124</title>
			<g id="shadow89-102" transform="matrix(1,0,0,1,0.345596,1.97277)" class="st6">
				<path d="M0 101.72 A2.57357 2.57357 0 0 1 5.14 101.72 A2.57357 2.57357 0 1 1 0 101.72 Z" class="st7"/>
			</g>
			<path d="M0 101.72 A2.57357 2.57357 0 0 1 5.14 101.72 A2.57357 2.57357 0 1 1 0 101.72 Z" class="st11"/>
		</g>
		<g id="shape90-106" transform="translate(168.28,-18.8299)">
			<title>Sheet.90</title>
			<desc>Button</desc>
			<rect x="0" y="97.5674" width="40.4909" height="6.86287" class="st9"/>
			<text x="6.28" y="104" class="st10">Button</text>		</g>
		<g id="shape91-109" transform="translate(173.935,-3.53746)">
			<title>Sheet.91</title>
			<desc>0</desc>
			<rect x="0" y="99.2831" width="10.2943" height="5.14715" class="st9"/>
			<text x="3.99" y="104.86" class="st10">1</text>		</g>
		<g id="shape92-112" transform="translate(192.807,-3.53746)">
			<title>Sheet.92</title>
			<desc>1</desc>
			<rect x="0" y="99.2831" width="10.2943" height="5.14715" class="st9"/>
			<text x="3.99" y="104.86" class="st10">2</text>		</g>
		<g id="shape93-115" transform="translate(270.703,-36.2844)">
			<title>Sheet.93</title>
			<path d="M10.29 83.84 A10.2943 10.2943 -180 0 0 -0 94.13 A10.2943 10.2943 -180 0 0 10.29 104.43 L10.29 83.84 Z"
					class="st3"/>
		</g>
		<g id="shape94-117" transform="translate(270.703,-12.2643)">
			<title>Sheet.94</title>
			<path d="M10.29 83.84 A10.2943 10.2943 -180 0 0 -0 94.13 A10.2943 10.2943 -180 0 0 10.29 104.43 L10.29 83.84 Z"
					class="st12"/>
		</g>
		<g id="shape95-119" transform="translate(283.66,-37.8177)">
			<title>Sheet.95</title>
			<desc>Master Endpoint</desc>
			<rect x="0" y="87.2731" width="111.522" height="17.1571" class="st9"/>
			<text x="3.99" y="99.45" class="st13">Master Endpoint</text>		</g>
		<g id="shape96-122" transform="translate(284.631,-13.5739)">
			<title>Sheet.96</title>
			<desc>Searching Slave Endpoint</desc>
			<rect x="0" y="87.2731" width="157.823" height="17.1571" class="st9"/>
			<text x="4" y="99.45" class="st13">Searching Slave Endpoint</text>		</g>
		<g id="shape97-125" transform="translate(137.552,161.756) rotate(180)">
			<title>Sheet.97</title>
			<path d="M10.29 83.84 A10.2943 10.2943 -180 0 0 0 94.13 A10.2943 10.2943 -180 0 0 10.29 104.43 L10.29 83.84 Z"
					class="st12"/>
		</g>
	</g>
</svg>
