G75*
%MOIN*%
%OFA0B0*%
%FSLAX25Y25*%
%IPPOS*%
%LPD*%
%AMOC8*
5,1,8,0,0,1.08239X$1,22.5*
%
%ADD10R,0.04000X0.04000*%
%ADD11C,0.03100*%
%ADD12R,0.07283X0.01969*%
%ADD13R,0.01969X0.07283*%
%ADD14R,0.04331X0.03937*%
%ADD15R,0.04331X0.07480*%
%ADD16R,0.03937X0.04331*%
%ADD17C,0.70079*%
%ADD18R,0.09843X0.20079*%
%ADD19C,0.01600*%
%ADD20C,0.02000*%
%ADD21C,0.01000*%
%ADD22C,0.02500*%
%ADD23C,0.00600*%
D10*
X0058558Y0056840D03*
X0119558Y0056840D03*
X0119558Y0117840D03*
X0058558Y0117840D03*
D11*
X0051558Y0144340D03*
X0046558Y0144340D03*
X0041558Y0144340D03*
X0041558Y0149340D03*
X0046558Y0149340D03*
X0051558Y0149340D03*
D12*
G36*
X0096972Y0117946D02*
X0091824Y0123094D01*
X0093216Y0124486D01*
X0098364Y0119338D01*
X0096972Y0117946D01*
G37*
G36*
X0098921Y0119894D02*
X0093773Y0125042D01*
X0095165Y0126434D01*
X0100313Y0121286D01*
X0098921Y0119894D01*
G37*
G36*
X0100870Y0121843D02*
X0095722Y0126991D01*
X0097114Y0128383D01*
X0102262Y0123235D01*
X0100870Y0121843D01*
G37*
G36*
X0102819Y0123792D02*
X0097671Y0128940D01*
X0099063Y0130332D01*
X0104211Y0125184D01*
X0102819Y0123792D01*
G37*
G36*
X0104767Y0125740D02*
X0099619Y0130888D01*
X0101011Y0132280D01*
X0106159Y0127132D01*
X0104767Y0125740D01*
G37*
G36*
X0106716Y0127689D02*
X0101568Y0132837D01*
X0102960Y0134229D01*
X0108108Y0129081D01*
X0106716Y0127689D01*
G37*
G36*
X0108665Y0129638D02*
X0103517Y0134786D01*
X0104909Y0136178D01*
X0110057Y0131030D01*
X0108665Y0129638D01*
G37*
G36*
X0110613Y0131587D02*
X0105465Y0136735D01*
X0106857Y0138127D01*
X0112005Y0132979D01*
X0110613Y0131587D01*
G37*
G36*
X0112562Y0133535D02*
X0107414Y0138683D01*
X0108806Y0140075D01*
X0113954Y0134927D01*
X0112562Y0133535D01*
G37*
G36*
X0114511Y0135484D02*
X0109363Y0140632D01*
X0110755Y0142024D01*
X0115903Y0136876D01*
X0114511Y0135484D01*
G37*
G36*
X0126203Y0147176D02*
X0121055Y0152324D01*
X0122447Y0153716D01*
X0127595Y0148568D01*
X0126203Y0147176D01*
G37*
G36*
X0128152Y0149125D02*
X0123004Y0154273D01*
X0124396Y0155665D01*
X0129544Y0150517D01*
X0128152Y0149125D01*
G37*
G36*
X0155991Y0121286D02*
X0150843Y0126434D01*
X0152235Y0127826D01*
X0157383Y0122678D01*
X0155991Y0121286D01*
G37*
G36*
X0154042Y0119338D02*
X0148894Y0124486D01*
X0150286Y0125878D01*
X0155434Y0120730D01*
X0154042Y0119338D01*
G37*
G36*
X0152093Y0117389D02*
X0146945Y0122537D01*
X0148337Y0123929D01*
X0153485Y0118781D01*
X0152093Y0117389D01*
G37*
G36*
X0150145Y0115440D02*
X0144997Y0120588D01*
X0146389Y0121980D01*
X0151537Y0116832D01*
X0150145Y0115440D01*
G37*
G36*
X0148196Y0113491D02*
X0143048Y0118639D01*
X0144440Y0120031D01*
X0149588Y0114883D01*
X0148196Y0113491D01*
G37*
G36*
X0146247Y0111543D02*
X0141099Y0116691D01*
X0142491Y0118083D01*
X0147639Y0112935D01*
X0146247Y0111543D01*
G37*
G36*
X0144298Y0109594D02*
X0139150Y0114742D01*
X0140542Y0116134D01*
X0145690Y0110986D01*
X0144298Y0109594D01*
G37*
G36*
X0142350Y0107645D02*
X0137202Y0112793D01*
X0138594Y0114185D01*
X0143742Y0109037D01*
X0142350Y0107645D01*
G37*
G36*
X0140401Y0105697D02*
X0135253Y0110845D01*
X0136645Y0112237D01*
X0141793Y0107089D01*
X0140401Y0105697D01*
G37*
G36*
X0138452Y0103748D02*
X0133304Y0108896D01*
X0134696Y0110288D01*
X0139844Y0105140D01*
X0138452Y0103748D01*
G37*
G36*
X0136504Y0101799D02*
X0131356Y0106947D01*
X0132748Y0108339D01*
X0137896Y0103191D01*
X0136504Y0101799D01*
G37*
G36*
X0134555Y0099850D02*
X0129407Y0104998D01*
X0130799Y0106390D01*
X0135947Y0101242D01*
X0134555Y0099850D01*
G37*
G36*
X0132606Y0097902D02*
X0127458Y0103050D01*
X0128850Y0104442D01*
X0133998Y0099294D01*
X0132606Y0097902D01*
G37*
G36*
X0130657Y0095953D02*
X0125509Y0101101D01*
X0126901Y0102493D01*
X0132049Y0097345D01*
X0130657Y0095953D01*
G37*
G36*
X0128709Y0094004D02*
X0123561Y0099152D01*
X0124953Y0100544D01*
X0130101Y0095396D01*
X0128709Y0094004D01*
G37*
G36*
X0126760Y0092055D02*
X0121612Y0097203D01*
X0123004Y0098595D01*
X0128152Y0093447D01*
X0126760Y0092055D01*
G37*
G36*
X0124811Y0090107D02*
X0119663Y0095255D01*
X0121055Y0096647D01*
X0126203Y0091499D01*
X0124811Y0090107D01*
G37*
D13*
G36*
X0113817Y0087323D02*
X0112425Y0088715D01*
X0117573Y0093863D01*
X0118965Y0092471D01*
X0113817Y0087323D01*
G37*
G36*
X0111868Y0089272D02*
X0110476Y0090664D01*
X0115624Y0095812D01*
X0117016Y0094420D01*
X0111868Y0089272D01*
G37*
G36*
X0109920Y0091220D02*
X0108528Y0092612D01*
X0113676Y0097760D01*
X0115068Y0096368D01*
X0109920Y0091220D01*
G37*
G36*
X0107971Y0093169D02*
X0106579Y0094561D01*
X0111727Y0099709D01*
X0113119Y0098317D01*
X0107971Y0093169D01*
G37*
G36*
X0106022Y0095118D02*
X0104630Y0096510D01*
X0109778Y0101658D01*
X0111170Y0100266D01*
X0106022Y0095118D01*
G37*
G36*
X0104074Y0097066D02*
X0102682Y0098458D01*
X0107830Y0103606D01*
X0109222Y0102214D01*
X0104074Y0097066D01*
G37*
G36*
X0102125Y0099015D02*
X0100733Y0100407D01*
X0105881Y0105555D01*
X0107273Y0104163D01*
X0102125Y0099015D01*
G37*
G36*
X0100176Y0100964D02*
X0098784Y0102356D01*
X0103932Y0107504D01*
X0105324Y0106112D01*
X0100176Y0100964D01*
G37*
G36*
X0098227Y0102913D02*
X0096835Y0104305D01*
X0101983Y0109453D01*
X0103375Y0108061D01*
X0098227Y0102913D01*
G37*
G36*
X0096279Y0104861D02*
X0094887Y0106253D01*
X0100035Y0111401D01*
X0101427Y0110009D01*
X0096279Y0104861D01*
G37*
G36*
X0094330Y0106810D02*
X0092938Y0108202D01*
X0098086Y0113350D01*
X0099478Y0111958D01*
X0094330Y0106810D01*
G37*
G36*
X0092381Y0108759D02*
X0090989Y0110151D01*
X0096137Y0115299D01*
X0097529Y0113907D01*
X0092381Y0108759D01*
G37*
G36*
X0090433Y0110708D02*
X0089041Y0112100D01*
X0094189Y0117248D01*
X0095581Y0115856D01*
X0090433Y0110708D01*
G37*
D14*
G36*
X0077785Y0119396D02*
X0080846Y0116335D01*
X0078063Y0113552D01*
X0075002Y0116613D01*
X0077785Y0119396D01*
G37*
G36*
X0073053Y0124128D02*
X0076114Y0121067D01*
X0073331Y0118284D01*
X0070270Y0121345D01*
X0073053Y0124128D01*
G37*
G36*
X0069270Y0130335D02*
X0072331Y0133396D01*
X0075114Y0130613D01*
X0072053Y0127552D01*
X0069270Y0130335D01*
G37*
G36*
X0074002Y0135067D02*
X0077063Y0138128D01*
X0079846Y0135345D01*
X0076785Y0132284D01*
X0074002Y0135067D01*
G37*
G36*
X0086114Y0141613D02*
X0083053Y0138552D01*
X0080270Y0141335D01*
X0083331Y0144396D01*
X0086114Y0141613D01*
G37*
G36*
X0090846Y0146345D02*
X0087785Y0143284D01*
X0085002Y0146067D01*
X0088063Y0149128D01*
X0090846Y0146345D01*
G37*
G36*
X0098053Y0150128D02*
X0101114Y0147067D01*
X0098331Y0144284D01*
X0095270Y0147345D01*
X0098053Y0150128D01*
G37*
G36*
X0102785Y0145396D02*
X0105846Y0142335D01*
X0103063Y0139552D01*
X0100002Y0142613D01*
X0102785Y0145396D01*
G37*
G36*
X0139846Y0093345D02*
X0136785Y0090284D01*
X0134002Y0093067D01*
X0137063Y0096128D01*
X0139846Y0093345D01*
G37*
G36*
X0135114Y0088613D02*
X0132053Y0085552D01*
X0129270Y0088335D01*
X0132331Y0091396D01*
X0135114Y0088613D01*
G37*
D15*
G36*
X0086863Y0136433D02*
X0089925Y0139495D01*
X0095213Y0134207D01*
X0092151Y0131145D01*
X0086863Y0136433D01*
G37*
G36*
X0079903Y0129473D02*
X0082965Y0132535D01*
X0088253Y0127247D01*
X0085191Y0124185D01*
X0079903Y0129473D01*
G37*
D16*
X0125558Y0076187D03*
X0125558Y0069494D03*
X0139558Y0069494D03*
X0139558Y0076187D03*
X0153058Y0092494D03*
X0153058Y0099187D03*
D17*
X0066861Y0065694D03*
D18*
G36*
X0031368Y0086991D02*
X0024408Y0093951D01*
X0038604Y0108147D01*
X0045564Y0101187D01*
X0031368Y0086991D01*
G37*
G36*
X0095119Y0023240D02*
X0088159Y0030200D01*
X0102355Y0044396D01*
X0109315Y0037436D01*
X0095119Y0023240D01*
G37*
D19*
X0025936Y0021234D02*
X0023197Y0021234D01*
X0023970Y0020410D02*
X0021620Y0022915D01*
X0019998Y0025942D01*
X0019215Y0029286D01*
X0019199Y0029742D01*
X0019822Y0030012D01*
X0023641Y0033020D01*
X0026566Y0036903D01*
X0026566Y0036903D01*
X0028402Y0041405D01*
X0029028Y0046226D01*
X0028402Y0051047D01*
X0026566Y0055549D01*
X0023641Y0059432D01*
X0019822Y0062440D01*
X0019158Y0062728D01*
X0019158Y0139840D01*
X0019267Y0141788D01*
X0020134Y0145587D01*
X0021825Y0149098D01*
X0024254Y0152144D01*
X0026253Y0153738D01*
X0024641Y0152126D01*
X0023758Y0149994D01*
X0023758Y0147686D01*
X0024641Y0145555D01*
X0026272Y0143923D01*
X0028404Y0143040D01*
X0030712Y0143040D01*
X0032843Y0143923D01*
X0033472Y0144552D01*
X0034405Y0143619D01*
X0035802Y0143040D01*
X0037314Y0143040D01*
X0037434Y0143090D01*
X0035276Y0140453D01*
X0035023Y0140200D01*
X0034976Y0140086D01*
X0034898Y0139990D01*
X0034795Y0139648D01*
X0034658Y0139318D01*
X0034658Y0139194D01*
X0034622Y0139076D01*
X0034658Y0138720D01*
X0034658Y0138363D01*
X0034705Y0138249D01*
X0034717Y0138126D01*
X0034886Y0137811D01*
X0035023Y0137481D01*
X0035110Y0137394D01*
X0035169Y0137285D01*
X0035445Y0137058D01*
X0035698Y0136806D01*
X0035812Y0136758D01*
X0035908Y0136680D01*
X0035997Y0136653D01*
X0036057Y0136594D01*
X0037031Y0136190D01*
X0038085Y0136190D01*
X0039059Y0136594D01*
X0039804Y0137339D01*
X0040208Y0138313D01*
X0040208Y0138900D01*
X0042297Y0141453D01*
X0043229Y0141839D01*
X0044059Y0142669D01*
X0044112Y0142798D01*
X0044142Y0142726D01*
X0044943Y0141924D01*
X0045991Y0141490D01*
X0047125Y0141490D01*
X0048172Y0141924D01*
X0048754Y0142506D01*
X0048956Y0142205D01*
X0049422Y0141738D01*
X0049971Y0141371D01*
X0050581Y0141119D01*
X0051228Y0140990D01*
X0051558Y0140990D01*
X0051888Y0140990D01*
X0052535Y0141119D01*
X0053067Y0141339D01*
X0053336Y0140688D01*
X0054405Y0139619D01*
X0055802Y0139040D01*
X0057314Y0139040D01*
X0058710Y0139619D01*
X0059779Y0140688D01*
X0060358Y0142084D01*
X0060358Y0143596D01*
X0059779Y0144993D01*
X0058710Y0146062D01*
X0057314Y0146640D01*
X0055802Y0146640D01*
X0054430Y0146072D01*
X0054160Y0146476D01*
X0053693Y0146942D01*
X0053392Y0147144D01*
X0053974Y0147726D01*
X0054069Y0147955D01*
X0054405Y0147619D01*
X0055802Y0147040D01*
X0057314Y0147040D01*
X0058710Y0147619D01*
X0059779Y0148688D01*
X0060326Y0150008D01*
X0065444Y0145191D01*
X0065895Y0144740D01*
X0065923Y0144740D01*
X0065944Y0144721D01*
X0066582Y0144740D01*
X0067221Y0144740D01*
X0067241Y0144760D01*
X0067269Y0144761D01*
X0067707Y0145226D01*
X0067721Y0145240D01*
X0072461Y0145240D01*
X0072474Y0145221D01*
X0073936Y0144929D01*
X0079006Y0148309D01*
X0079051Y0148290D01*
X0080065Y0148290D01*
X0081002Y0148678D01*
X0081720Y0149396D01*
X0082108Y0150333D01*
X0082108Y0151347D01*
X0081720Y0152285D01*
X0081081Y0152923D01*
X0084162Y0156586D01*
X0084446Y0157240D01*
X0099755Y0157240D01*
X0099641Y0157126D01*
X0098758Y0154994D01*
X0098758Y0152686D01*
X0099265Y0151463D01*
X0099158Y0151570D01*
X0098747Y0151807D01*
X0098289Y0151930D01*
X0097815Y0151930D01*
X0097358Y0151807D01*
X0096947Y0151570D01*
X0095518Y0150141D01*
X0098191Y0147467D01*
X0097931Y0147206D01*
X0098191Y0146946D01*
X0095657Y0144411D01*
X0097225Y0142843D01*
X0097636Y0142606D01*
X0098094Y0142483D01*
X0098568Y0142483D01*
X0098601Y0142492D01*
X0098601Y0142278D01*
X0097660Y0141337D01*
X0097057Y0141087D01*
X0096311Y0140341D01*
X0095908Y0139367D01*
X0095908Y0138313D01*
X0096311Y0137339D01*
X0097057Y0136594D01*
X0098031Y0136190D01*
X0099085Y0136190D01*
X0100059Y0136594D01*
X0100804Y0137339D01*
X0101054Y0137943D01*
X0101873Y0138761D01*
X0102483Y0138151D01*
X0103643Y0138151D01*
X0106748Y0141256D01*
X0107447Y0140557D01*
X0106113Y0139223D01*
X0104164Y0137274D01*
X0102216Y0135326D01*
X0100267Y0133377D01*
X0098719Y0131829D01*
X0096514Y0134034D01*
X0096514Y0134745D01*
X0090463Y0140796D01*
X0089386Y0140796D01*
X0087900Y0139311D01*
X0086775Y0140435D01*
X0087415Y0141075D01*
X0087415Y0141519D01*
X0087548Y0141483D01*
X0088022Y0141483D01*
X0088480Y0141606D01*
X0088890Y0141843D01*
X0090459Y0143411D01*
X0087924Y0145946D01*
X0088185Y0146206D01*
X0090719Y0143672D01*
X0092288Y0145240D01*
X0092525Y0145651D01*
X0092647Y0146109D01*
X0092647Y0146583D01*
X0092525Y0147040D01*
X0092288Y0147451D01*
X0090858Y0148880D01*
X0088185Y0146206D01*
X0087924Y0146467D01*
X0087664Y0146206D01*
X0085129Y0148741D01*
X0083561Y0147173D01*
X0083324Y0146762D01*
X0083201Y0146304D01*
X0083201Y0145830D01*
X0083237Y0145697D01*
X0082792Y0145697D01*
X0078968Y0141873D01*
X0078968Y0140796D01*
X0082514Y0137251D01*
X0083591Y0137251D01*
X0084230Y0137890D01*
X0085562Y0136558D01*
X0085562Y0135895D01*
X0091613Y0129844D01*
X0092690Y0129844D01*
X0094151Y0131306D01*
X0095817Y0129640D01*
X0087699Y0129640D01*
X0083503Y0133836D01*
X0082426Y0133836D01*
X0081787Y0133197D01*
X0080662Y0134322D01*
X0081147Y0134807D01*
X0081147Y0135884D01*
X0077602Y0139430D01*
X0076525Y0139430D01*
X0072701Y0135606D01*
X0072701Y0135161D01*
X0072568Y0135197D01*
X0072094Y0135197D01*
X0071636Y0135074D01*
X0071225Y0134837D01*
X0069657Y0133269D01*
X0072191Y0130734D01*
X0071931Y0130474D01*
X0069397Y0133008D01*
X0067828Y0131440D01*
X0067591Y0131029D01*
X0067468Y0130572D01*
X0067468Y0130098D01*
X0067591Y0129640D01*
X0067828Y0129229D01*
X0069257Y0127800D01*
X0071931Y0130474D01*
X0072191Y0130213D01*
X0069518Y0127540D01*
X0070947Y0126110D01*
X0071358Y0125873D01*
X0071815Y0125751D01*
X0072260Y0125751D01*
X0071947Y0125570D01*
X0070518Y0124141D01*
X0073191Y0121467D01*
X0072931Y0121206D01*
X0073191Y0120946D01*
X0070657Y0118411D01*
X0072225Y0116843D01*
X0072636Y0116606D01*
X0073094Y0116483D01*
X0073568Y0116483D01*
X0073601Y0116492D01*
X0073601Y0116033D01*
X0077483Y0112151D01*
X0078643Y0112151D01*
X0078748Y0112256D01*
X0080764Y0110240D01*
X0044580Y0110240D01*
X0043698Y0109875D01*
X0043023Y0109200D01*
X0041278Y0107454D01*
X0039185Y0109548D01*
X0038025Y0109548D01*
X0023007Y0094530D01*
X0023007Y0093370D01*
X0030787Y0085590D01*
X0031947Y0085590D01*
X0046964Y0100608D01*
X0046964Y0101768D01*
X0044672Y0104060D01*
X0046052Y0105440D01*
X0083035Y0105440D01*
X0083917Y0105806D01*
X0084707Y0106595D01*
X0085080Y0106440D01*
X0086158Y0106440D01*
X0086158Y0104352D01*
X0086065Y0104390D01*
X0085051Y0104390D01*
X0084113Y0104002D01*
X0083752Y0103640D01*
X0080364Y0103640D01*
X0080002Y0104002D01*
X0079065Y0104390D01*
X0078051Y0104390D01*
X0077113Y0104002D01*
X0076396Y0103285D01*
X0076008Y0102347D01*
X0076008Y0101381D01*
X0074597Y0101729D01*
X0072407Y0102130D01*
X0070197Y0102399D01*
X0067974Y0102533D01*
X0065748Y0102533D01*
X0063526Y0102399D01*
X0061316Y0102130D01*
X0059126Y0101729D01*
X0056964Y0101196D01*
X0054839Y0100534D01*
X0052757Y0099744D01*
X0050727Y0098831D01*
X0048755Y0097796D01*
X0046850Y0096644D01*
X0045018Y0095380D01*
X0043265Y0094007D01*
X0041599Y0092530D01*
X0041377Y0092309D01*
X0066861Y0066825D01*
X0065730Y0065694D01*
X0040246Y0091177D01*
X0040025Y0090956D01*
X0038548Y0089290D01*
X0037175Y0087537D01*
X0035911Y0085705D01*
X0034759Y0083799D01*
X0033724Y0081828D01*
X0032810Y0079798D01*
X0032021Y0077716D01*
X0031359Y0075591D01*
X0030826Y0073429D01*
X0030425Y0071239D01*
X0030156Y0069029D01*
X0030022Y0066807D01*
X0030022Y0064581D01*
X0030156Y0062358D01*
X0030425Y0060148D01*
X0030826Y0057958D01*
X0031359Y0055797D01*
X0032021Y0053671D01*
X0032810Y0051589D01*
X0033724Y0049559D01*
X0034759Y0047588D01*
X0035911Y0045683D01*
X0037175Y0043850D01*
X0038548Y0042098D01*
X0040025Y0040431D01*
X0040246Y0040210D01*
X0065730Y0065694D01*
X0066861Y0064562D01*
X0041377Y0039079D01*
X0041599Y0038857D01*
X0043265Y0037381D01*
X0045018Y0036008D01*
X0046850Y0034743D01*
X0048755Y0033591D01*
X0050727Y0032557D01*
X0052757Y0031643D01*
X0054839Y0030854D01*
X0056964Y0030191D01*
X0059126Y0029658D01*
X0061316Y0029257D01*
X0063526Y0028989D01*
X0065748Y0028854D01*
X0067974Y0028854D01*
X0070197Y0028989D01*
X0072407Y0029257D01*
X0074597Y0029658D01*
X0076758Y0030191D01*
X0078884Y0030854D01*
X0080965Y0031643D01*
X0082996Y0032557D01*
X0084967Y0033591D01*
X0086872Y0034743D01*
X0088704Y0036008D01*
X0090457Y0037381D01*
X0092123Y0038857D01*
X0092345Y0039079D01*
X0066861Y0064562D01*
X0067993Y0065694D01*
X0066861Y0066825D01*
X0092345Y0092309D01*
X0092123Y0092530D01*
X0090457Y0094007D01*
X0088704Y0095380D01*
X0086872Y0096644D01*
X0084967Y0097796D01*
X0082996Y0098831D01*
X0080965Y0099744D01*
X0080315Y0099991D01*
X0080364Y0100040D01*
X0083752Y0100040D01*
X0084113Y0099678D01*
X0085051Y0099290D01*
X0086065Y0099290D01*
X0087002Y0099678D01*
X0087720Y0100396D01*
X0087833Y0100670D01*
X0105658Y0082846D01*
X0105658Y0045334D01*
X0104528Y0044204D01*
X0102936Y0045797D01*
X0101776Y0045797D01*
X0086758Y0030779D01*
X0086758Y0029619D01*
X0094538Y0021839D01*
X0095697Y0021839D01*
X0110715Y0036857D01*
X0110715Y0038017D01*
X0107922Y0040810D01*
X0109417Y0042306D01*
X0110092Y0042981D01*
X0110458Y0043863D01*
X0110458Y0084318D01*
X0110092Y0085200D01*
X0090958Y0104334D01*
X0090958Y0106440D01*
X0091548Y0106440D01*
X0092430Y0106806D01*
X0092462Y0106837D01*
X0093586Y0105714D01*
X0095534Y0103765D01*
X0097483Y0101816D01*
X0099432Y0099868D01*
X0101381Y0097919D01*
X0103329Y0095970D01*
X0105278Y0094021D01*
X0107227Y0092073D01*
X0109175Y0090124D01*
X0110624Y0088675D01*
X0110624Y0088477D01*
X0110747Y0088019D01*
X0110984Y0087609D01*
X0111847Y0086745D01*
X0115695Y0090593D01*
X0115695Y0090593D01*
X0111847Y0086745D01*
X0112711Y0085881D01*
X0113121Y0085644D01*
X0113579Y0085522D01*
X0114053Y0085522D01*
X0114511Y0085644D01*
X0114921Y0085881D01*
X0117664Y0088624D01*
X0115695Y0090593D01*
X0115695Y0090593D01*
X0117664Y0088624D01*
X0120407Y0091367D01*
X0120644Y0091777D01*
X0120766Y0092235D01*
X0120766Y0092313D01*
X0124274Y0088806D01*
X0125351Y0088806D01*
X0127300Y0090754D01*
X0129248Y0092703D01*
X0129248Y0092703D01*
X0131197Y0094652D01*
X0133146Y0096601D01*
X0135094Y0098549D01*
X0137043Y0100498D01*
X0138758Y0102213D01*
X0138758Y0098646D01*
X0138396Y0098285D01*
X0138008Y0097347D01*
X0138008Y0097023D01*
X0137602Y0097430D01*
X0136525Y0097430D01*
X0132701Y0093606D01*
X0132701Y0093161D01*
X0132568Y0093197D01*
X0132094Y0093197D01*
X0131636Y0093074D01*
X0131225Y0092837D01*
X0129657Y0091269D01*
X0132191Y0088734D01*
X0131931Y0088474D01*
X0129397Y0091008D01*
X0127828Y0089440D01*
X0127591Y0089029D01*
X0127468Y0088572D01*
X0127468Y0088098D01*
X0127591Y0087640D01*
X0127828Y0087229D01*
X0129257Y0085800D01*
X0131931Y0088474D01*
X0132191Y0088213D01*
X0129518Y0085540D01*
X0130947Y0084110D01*
X0131160Y0083988D01*
X0130812Y0083640D01*
X0126812Y0083640D01*
X0125758Y0082586D01*
X0123758Y0080586D01*
X0123758Y0079652D01*
X0123051Y0079652D01*
X0122289Y0078890D01*
X0122289Y0073483D01*
X0122604Y0073168D01*
X0122484Y0073099D01*
X0122149Y0072764D01*
X0121912Y0072354D01*
X0121789Y0071896D01*
X0121789Y0069678D01*
X0125374Y0069678D01*
X0125374Y0069309D01*
X0125742Y0069309D01*
X0125742Y0065528D01*
X0127763Y0065528D01*
X0128221Y0065651D01*
X0128632Y0065888D01*
X0128967Y0066223D01*
X0129204Y0066634D01*
X0129326Y0067091D01*
X0129326Y0069309D01*
X0125742Y0069309D01*
X0125742Y0069678D01*
X0129326Y0069678D01*
X0129326Y0071896D01*
X0129204Y0072354D01*
X0128967Y0072764D01*
X0128632Y0073099D01*
X0128512Y0073168D01*
X0128826Y0073483D01*
X0128826Y0078890D01*
X0128065Y0079652D01*
X0127915Y0079652D01*
X0128303Y0080040D01*
X0130295Y0080040D01*
X0130008Y0079347D01*
X0130008Y0078333D01*
X0130396Y0077396D01*
X0131113Y0076678D01*
X0132051Y0076290D01*
X0132562Y0076290D01*
X0134466Y0074387D01*
X0136289Y0074387D01*
X0136289Y0073483D01*
X0136604Y0073168D01*
X0136484Y0073099D01*
X0136149Y0072764D01*
X0135912Y0072354D01*
X0135789Y0071896D01*
X0135789Y0069678D01*
X0139374Y0069678D01*
X0139374Y0069309D01*
X0139742Y0069309D01*
X0139742Y0065528D01*
X0141763Y0065528D01*
X0142221Y0065651D01*
X0142632Y0065888D01*
X0142967Y0066223D01*
X0143204Y0066634D01*
X0143326Y0067091D01*
X0143326Y0069309D01*
X0139742Y0069309D01*
X0139742Y0069678D01*
X0143326Y0069678D01*
X0143326Y0071896D01*
X0143204Y0072354D01*
X0142967Y0072764D01*
X0142632Y0073099D01*
X0142512Y0073168D01*
X0142826Y0073483D01*
X0142826Y0078890D01*
X0142065Y0079652D01*
X0137051Y0079652D01*
X0136289Y0078890D01*
X0136289Y0077987D01*
X0135957Y0077987D01*
X0135108Y0078836D01*
X0135108Y0078845D01*
X0149289Y0093026D01*
X0149289Y0092678D01*
X0152874Y0092678D01*
X0152874Y0092309D01*
X0149289Y0092309D01*
X0149289Y0090091D01*
X0149412Y0089634D01*
X0149649Y0089223D01*
X0149694Y0089178D01*
X0148641Y0088126D01*
X0147758Y0085994D01*
X0147758Y0083686D01*
X0148641Y0081555D01*
X0150272Y0079923D01*
X0152404Y0079040D01*
X0154712Y0079040D01*
X0156157Y0079639D01*
X0154600Y0078329D01*
X0151944Y0074283D01*
X0150558Y0069646D01*
X0150558Y0064806D01*
X0151944Y0060169D01*
X0154600Y0056123D01*
X0154600Y0056123D01*
X0158304Y0053007D01*
X0158958Y0052724D01*
X0158958Y0034840D01*
X0158848Y0032892D01*
X0157981Y0029093D01*
X0156291Y0025583D01*
X0155479Y0024565D01*
X0156358Y0026686D01*
X0156358Y0028994D01*
X0155475Y0031126D01*
X0153843Y0032757D01*
X0151712Y0033640D01*
X0149404Y0033640D01*
X0147272Y0032757D01*
X0145641Y0031126D01*
X0144758Y0028994D01*
X0144758Y0026686D01*
X0145641Y0024555D01*
X0147272Y0022923D01*
X0149404Y0022040D01*
X0151712Y0022040D01*
X0153843Y0022923D01*
X0155456Y0024536D01*
X0153862Y0022537D01*
X0150815Y0020107D01*
X0147305Y0018417D01*
X0143506Y0017550D01*
X0141558Y0017440D01*
X0063446Y0017440D01*
X0063158Y0018104D01*
X0063158Y0018104D01*
X0060150Y0021924D01*
X0056267Y0024849D01*
X0056267Y0024849D01*
X0051765Y0026685D01*
X0046944Y0027311D01*
X0046944Y0027311D01*
X0042122Y0026685D01*
X0037621Y0024849D01*
X0037621Y0024849D01*
X0033737Y0021924D01*
X0030729Y0018104D01*
X0030500Y0017574D01*
X0030176Y0017606D01*
X0026888Y0018600D01*
X0023970Y0020410D01*
X0025219Y0019636D02*
X0031935Y0019636D01*
X0030729Y0018104D02*
X0030729Y0018104D01*
X0030700Y0018037D02*
X0028749Y0018037D01*
X0028712Y0021040D02*
X0026404Y0021040D01*
X0024272Y0021923D01*
X0022641Y0023555D01*
X0021758Y0025686D01*
X0021758Y0027994D01*
X0022641Y0030126D01*
X0024272Y0031757D01*
X0026404Y0032640D01*
X0028712Y0032640D01*
X0030843Y0031757D01*
X0032475Y0030126D01*
X0033358Y0027994D01*
X0033358Y0025686D01*
X0032475Y0023555D01*
X0030843Y0021923D01*
X0028712Y0021040D01*
X0029180Y0021234D02*
X0033194Y0021234D01*
X0033737Y0021924D02*
X0033737Y0021924D01*
X0033737Y0021924D01*
X0034944Y0022833D02*
X0031753Y0022833D01*
X0032838Y0024431D02*
X0037067Y0024431D01*
X0040517Y0026030D02*
X0033358Y0026030D01*
X0033358Y0027628D02*
X0088749Y0027628D01*
X0090347Y0026030D02*
X0053371Y0026030D01*
X0051765Y0026685D02*
X0051765Y0026685D01*
X0054929Y0030825D02*
X0031775Y0030825D01*
X0032847Y0029227D02*
X0061566Y0029227D01*
X0056821Y0024431D02*
X0091946Y0024431D01*
X0093544Y0022833D02*
X0058943Y0022833D01*
X0060150Y0021924D02*
X0060150Y0021924D01*
X0060150Y0021924D01*
X0060693Y0021234D02*
X0152228Y0021234D01*
X0153625Y0022833D02*
X0154098Y0022833D01*
X0155351Y0024431D02*
X0155373Y0024431D01*
X0156086Y0026030D02*
X0156506Y0026030D01*
X0156358Y0027628D02*
X0157276Y0027628D01*
X0158012Y0029227D02*
X0156261Y0029227D01*
X0155599Y0030825D02*
X0158377Y0030825D01*
X0158742Y0032424D02*
X0154177Y0032424D01*
X0158912Y0034022D02*
X0107880Y0034022D01*
X0106282Y0032424D02*
X0146939Y0032424D01*
X0145516Y0030825D02*
X0104683Y0030825D01*
X0103085Y0029227D02*
X0144854Y0029227D01*
X0144758Y0027628D02*
X0101486Y0027628D01*
X0099888Y0026030D02*
X0145030Y0026030D01*
X0145764Y0024431D02*
X0098289Y0024431D01*
X0096691Y0022833D02*
X0147491Y0022833D01*
X0149836Y0019636D02*
X0061952Y0019636D01*
X0063187Y0018037D02*
X0145642Y0018037D01*
X0158958Y0035621D02*
X0109479Y0035621D01*
X0110715Y0037219D02*
X0158958Y0037219D01*
X0158958Y0038818D02*
X0109915Y0038818D01*
X0108316Y0040416D02*
X0158958Y0040416D01*
X0158958Y0042015D02*
X0109127Y0042015D01*
X0110355Y0043613D02*
X0158958Y0043613D01*
X0158958Y0045212D02*
X0110458Y0045212D01*
X0110458Y0046810D02*
X0158958Y0046810D01*
X0158958Y0048409D02*
X0110458Y0048409D01*
X0110458Y0050007D02*
X0158958Y0050007D01*
X0158958Y0051606D02*
X0110458Y0051606D01*
X0110458Y0053204D02*
X0158069Y0053204D01*
X0158304Y0053007D02*
X0158304Y0053007D01*
X0156169Y0054803D02*
X0110458Y0054803D01*
X0110458Y0056401D02*
X0154417Y0056401D01*
X0153368Y0058000D02*
X0110458Y0058000D01*
X0110458Y0059598D02*
X0152318Y0059598D01*
X0151944Y0060169D02*
X0151944Y0060169D01*
X0151636Y0061197D02*
X0110458Y0061197D01*
X0110458Y0062796D02*
X0151159Y0062796D01*
X0150681Y0064394D02*
X0110458Y0064394D01*
X0110458Y0065993D02*
X0122380Y0065993D01*
X0122484Y0065888D02*
X0122895Y0065651D01*
X0123352Y0065528D01*
X0125374Y0065528D01*
X0125374Y0069309D01*
X0121789Y0069309D01*
X0121789Y0067091D01*
X0121912Y0066634D01*
X0122149Y0066223D01*
X0122484Y0065888D01*
X0121789Y0067591D02*
X0110458Y0067591D01*
X0110458Y0069190D02*
X0121789Y0069190D01*
X0121789Y0070788D02*
X0110458Y0070788D01*
X0110458Y0072387D02*
X0121931Y0072387D01*
X0122289Y0073985D02*
X0110458Y0073985D01*
X0110458Y0075584D02*
X0122289Y0075584D01*
X0122289Y0077182D02*
X0110458Y0077182D01*
X0110458Y0078781D02*
X0122289Y0078781D01*
X0123758Y0080379D02*
X0110458Y0080379D01*
X0110458Y0081978D02*
X0125150Y0081978D01*
X0126748Y0083576D02*
X0110458Y0083576D01*
X0110103Y0085175D02*
X0129883Y0085175D01*
X0130230Y0086773D02*
X0130751Y0086773D01*
X0131829Y0088372D02*
X0132033Y0088372D01*
X0130956Y0089970D02*
X0130435Y0089970D01*
X0129957Y0091569D02*
X0128114Y0091569D01*
X0128358Y0089970D02*
X0126515Y0089970D01*
X0127468Y0088372D02*
X0117412Y0088372D01*
X0116318Y0089970D02*
X0116318Y0089970D01*
X0115073Y0089970D02*
X0115072Y0089970D01*
X0113474Y0088372D02*
X0113474Y0088372D01*
X0111876Y0086773D02*
X0111875Y0086773D01*
X0111819Y0086773D02*
X0108519Y0086773D01*
X0106920Y0088372D02*
X0110652Y0088372D01*
X0109329Y0089970D02*
X0105322Y0089970D01*
X0103723Y0091569D02*
X0107731Y0091569D01*
X0106132Y0093167D02*
X0102125Y0093167D01*
X0100526Y0094766D02*
X0104534Y0094766D01*
X0102935Y0096364D02*
X0098928Y0096364D01*
X0097329Y0097963D02*
X0101337Y0097963D01*
X0099738Y0099561D02*
X0095731Y0099561D01*
X0094132Y0101160D02*
X0098140Y0101160D01*
X0096541Y0102758D02*
X0092534Y0102758D01*
X0090958Y0104357D02*
X0094943Y0104357D01*
X0093344Y0105955D02*
X0090958Y0105955D01*
X0086158Y0105955D02*
X0084067Y0105955D01*
X0084970Y0104357D02*
X0079146Y0104357D01*
X0077970Y0104357D02*
X0044969Y0104357D01*
X0045974Y0102758D02*
X0076178Y0102758D01*
X0081372Y0099561D02*
X0084396Y0099561D01*
X0084649Y0097963D02*
X0090541Y0097963D01*
X0088943Y0099561D02*
X0086720Y0099561D01*
X0087278Y0096364D02*
X0092140Y0096364D01*
X0093738Y0094766D02*
X0089488Y0094766D01*
X0091404Y0093167D02*
X0095337Y0093167D01*
X0096935Y0091569D02*
X0091605Y0091569D01*
X0092269Y0089970D02*
X0090006Y0089970D01*
X0090670Y0088372D02*
X0088408Y0088372D01*
X0089072Y0086773D02*
X0086809Y0086773D01*
X0087473Y0085175D02*
X0085211Y0085175D01*
X0085875Y0083576D02*
X0083612Y0083576D01*
X0084276Y0081978D02*
X0082014Y0081978D01*
X0082678Y0080379D02*
X0080415Y0080379D01*
X0081079Y0078781D02*
X0078817Y0078781D01*
X0079481Y0077182D02*
X0077218Y0077182D01*
X0077882Y0075584D02*
X0075620Y0075584D01*
X0076284Y0073985D02*
X0074021Y0073985D01*
X0074685Y0072387D02*
X0072423Y0072387D01*
X0073087Y0070788D02*
X0070824Y0070788D01*
X0071488Y0069190D02*
X0069226Y0069190D01*
X0069890Y0067591D02*
X0067627Y0067591D01*
X0066095Y0067591D02*
X0063832Y0067591D01*
X0064497Y0069190D02*
X0062234Y0069190D01*
X0062898Y0070788D02*
X0060635Y0070788D01*
X0061300Y0072387D02*
X0059037Y0072387D01*
X0059701Y0073985D02*
X0057438Y0073985D01*
X0058103Y0075584D02*
X0055840Y0075584D01*
X0056504Y0077182D02*
X0054241Y0077182D01*
X0054906Y0078781D02*
X0052643Y0078781D01*
X0053307Y0080379D02*
X0051044Y0080379D01*
X0051709Y0081978D02*
X0049446Y0081978D01*
X0050110Y0083576D02*
X0047847Y0083576D01*
X0048512Y0085175D02*
X0046249Y0085175D01*
X0046913Y0086773D02*
X0044650Y0086773D01*
X0045314Y0088372D02*
X0043052Y0088372D01*
X0043716Y0089970D02*
X0041453Y0089970D01*
X0042117Y0091569D02*
X0037925Y0091569D01*
X0039151Y0089970D02*
X0036326Y0089970D01*
X0037829Y0088372D02*
X0034728Y0088372D01*
X0033129Y0086773D02*
X0036648Y0086773D01*
X0035590Y0085175D02*
X0019158Y0085175D01*
X0019158Y0086773D02*
X0029604Y0086773D01*
X0028005Y0088372D02*
X0019158Y0088372D01*
X0019158Y0089970D02*
X0026407Y0089970D01*
X0024808Y0091569D02*
X0019158Y0091569D01*
X0019158Y0093167D02*
X0023210Y0093167D01*
X0023243Y0094766D02*
X0019158Y0094766D01*
X0019158Y0096364D02*
X0024841Y0096364D01*
X0026440Y0097963D02*
X0019158Y0097963D01*
X0019158Y0099561D02*
X0028038Y0099561D01*
X0029637Y0101160D02*
X0019158Y0101160D01*
X0019158Y0102758D02*
X0031235Y0102758D01*
X0032834Y0104357D02*
X0019158Y0104357D01*
X0019158Y0105955D02*
X0034432Y0105955D01*
X0036031Y0107554D02*
X0019158Y0107554D01*
X0019158Y0109152D02*
X0037629Y0109152D01*
X0039580Y0109152D02*
X0042976Y0109152D01*
X0041377Y0107554D02*
X0041179Y0107554D01*
X0046964Y0101160D02*
X0056847Y0101160D01*
X0052350Y0099561D02*
X0045917Y0099561D01*
X0044319Y0097963D02*
X0049073Y0097963D01*
X0046444Y0096364D02*
X0042720Y0096364D01*
X0044234Y0094766D02*
X0041122Y0094766D01*
X0042318Y0093167D02*
X0039523Y0093167D01*
X0034642Y0083576D02*
X0019158Y0083576D01*
X0019158Y0081978D02*
X0033803Y0081978D01*
X0033072Y0080379D02*
X0019158Y0080379D01*
X0019158Y0078781D02*
X0032425Y0078781D01*
X0031855Y0077182D02*
X0019158Y0077182D01*
X0019158Y0075584D02*
X0031357Y0075584D01*
X0030963Y0073985D02*
X0019158Y0073985D01*
X0019158Y0072387D02*
X0030635Y0072387D01*
X0030370Y0070788D02*
X0019158Y0070788D01*
X0019158Y0069190D02*
X0030176Y0069190D01*
X0030069Y0067591D02*
X0019158Y0067591D01*
X0019158Y0065993D02*
X0030022Y0065993D01*
X0030033Y0064394D02*
X0019158Y0064394D01*
X0019158Y0062796D02*
X0030130Y0062796D01*
X0030297Y0061197D02*
X0021401Y0061197D01*
X0019822Y0062440D02*
X0019822Y0062440D01*
X0023431Y0059598D02*
X0030525Y0059598D01*
X0030818Y0058000D02*
X0024720Y0058000D01*
X0023641Y0059432D02*
X0023641Y0059432D01*
X0023641Y0059432D01*
X0025924Y0056401D02*
X0031210Y0056401D01*
X0031668Y0054803D02*
X0026870Y0054803D01*
X0026566Y0055549D02*
X0026566Y0055549D01*
X0027523Y0053204D02*
X0032198Y0053204D01*
X0032804Y0051606D02*
X0028175Y0051606D01*
X0028402Y0051047D02*
X0028402Y0051047D01*
X0028537Y0050007D02*
X0033522Y0050007D01*
X0034328Y0048409D02*
X0028745Y0048409D01*
X0028952Y0046810D02*
X0035229Y0046810D01*
X0036236Y0045212D02*
X0028897Y0045212D01*
X0029028Y0046226D02*
X0029028Y0046226D01*
X0028689Y0043613D02*
X0037361Y0043613D01*
X0038622Y0042015D02*
X0028482Y0042015D01*
X0028402Y0041405D02*
X0028402Y0041405D01*
X0027999Y0040416D02*
X0040040Y0040416D01*
X0040452Y0040416D02*
X0042715Y0040416D01*
X0042051Y0042015D02*
X0044314Y0042015D01*
X0043649Y0043613D02*
X0045912Y0043613D01*
X0045248Y0045212D02*
X0047511Y0045212D01*
X0046846Y0046810D02*
X0049109Y0046810D01*
X0048445Y0048409D02*
X0050708Y0048409D01*
X0050044Y0050007D02*
X0052306Y0050007D01*
X0051642Y0051606D02*
X0053905Y0051606D01*
X0053241Y0053204D02*
X0055503Y0053204D01*
X0054839Y0054803D02*
X0057102Y0054803D01*
X0056438Y0056401D02*
X0058700Y0056401D01*
X0058036Y0058000D02*
X0060299Y0058000D01*
X0059635Y0059598D02*
X0061897Y0059598D01*
X0061233Y0061197D02*
X0063496Y0061197D01*
X0062832Y0062796D02*
X0065094Y0062796D01*
X0064430Y0064394D02*
X0066693Y0064394D01*
X0067029Y0064394D02*
X0069292Y0064394D01*
X0068628Y0062796D02*
X0070891Y0062796D01*
X0070227Y0061197D02*
X0072489Y0061197D01*
X0071825Y0059598D02*
X0074088Y0059598D01*
X0073424Y0058000D02*
X0075686Y0058000D01*
X0075022Y0056401D02*
X0077285Y0056401D01*
X0076621Y0054803D02*
X0078883Y0054803D01*
X0078219Y0053204D02*
X0080482Y0053204D01*
X0079818Y0051606D02*
X0082080Y0051606D01*
X0081416Y0050007D02*
X0083679Y0050007D01*
X0083015Y0048409D02*
X0085277Y0048409D01*
X0084613Y0046810D02*
X0086876Y0046810D01*
X0086212Y0045212D02*
X0088474Y0045212D01*
X0087810Y0043613D02*
X0090073Y0043613D01*
X0089409Y0042015D02*
X0091671Y0042015D01*
X0091007Y0040416D02*
X0093270Y0040416D01*
X0093476Y0040210D02*
X0093698Y0040431D01*
X0095174Y0042098D01*
X0096547Y0043850D01*
X0097812Y0045683D01*
X0098963Y0047588D01*
X0099998Y0049559D01*
X0100912Y0051589D01*
X0101701Y0053671D01*
X0102364Y0055797D01*
X0102896Y0057958D01*
X0103298Y0060148D01*
X0103566Y0062358D01*
X0103701Y0064581D01*
X0103701Y0066807D01*
X0103566Y0069029D01*
X0103298Y0071239D01*
X0102896Y0073429D01*
X0102364Y0075591D01*
X0101701Y0077716D01*
X0100912Y0079798D01*
X0099998Y0081828D01*
X0098963Y0083799D01*
X0097812Y0085705D01*
X0096547Y0087537D01*
X0095174Y0089290D01*
X0093698Y0090956D01*
X0093476Y0091177D01*
X0067993Y0065694D01*
X0093476Y0040210D01*
X0093682Y0040416D02*
X0096395Y0040416D01*
X0095100Y0042015D02*
X0097994Y0042015D01*
X0099592Y0043613D02*
X0096361Y0043613D01*
X0097487Y0045212D02*
X0101191Y0045212D01*
X0103521Y0045212D02*
X0105535Y0045212D01*
X0105658Y0046810D02*
X0098493Y0046810D01*
X0099394Y0048409D02*
X0105658Y0048409D01*
X0105658Y0050007D02*
X0100200Y0050007D01*
X0100918Y0051606D02*
X0105658Y0051606D01*
X0105658Y0053204D02*
X0101524Y0053204D01*
X0102054Y0054803D02*
X0105658Y0054803D01*
X0105658Y0056401D02*
X0102513Y0056401D01*
X0102904Y0058000D02*
X0105658Y0058000D01*
X0105658Y0059598D02*
X0103197Y0059598D01*
X0103425Y0061197D02*
X0105658Y0061197D01*
X0105658Y0062796D02*
X0103593Y0062796D01*
X0103689Y0064394D02*
X0105658Y0064394D01*
X0105658Y0065993D02*
X0103701Y0065993D01*
X0103653Y0067591D02*
X0105658Y0067591D01*
X0105658Y0069190D02*
X0103547Y0069190D01*
X0103353Y0070788D02*
X0105658Y0070788D01*
X0105658Y0072387D02*
X0103087Y0072387D01*
X0102759Y0073985D02*
X0105658Y0073985D01*
X0105658Y0075584D02*
X0102365Y0075584D01*
X0101868Y0077182D02*
X0105658Y0077182D01*
X0105658Y0078781D02*
X0101298Y0078781D01*
X0100650Y0080379D02*
X0105658Y0080379D01*
X0105658Y0081978D02*
X0099920Y0081978D01*
X0099081Y0083576D02*
X0104928Y0083576D01*
X0103329Y0085175D02*
X0098132Y0085175D01*
X0097074Y0086773D02*
X0101731Y0086773D01*
X0100132Y0088372D02*
X0095893Y0088372D01*
X0094571Y0089970D02*
X0098534Y0089970D01*
X0110518Y0102758D02*
X0125326Y0102758D01*
X0126157Y0103589D02*
X0124208Y0101641D01*
X0122464Y0099897D01*
X0120311Y0097743D01*
X0118362Y0095794D01*
X0118362Y0095487D01*
X0118269Y0095541D01*
X0117811Y0095664D01*
X0117613Y0095664D01*
X0116164Y0097113D01*
X0114215Y0099061D01*
X0112267Y0101010D01*
X0110318Y0102959D01*
X0108369Y0104908D01*
X0106420Y0106856D01*
X0104472Y0108805D01*
X0102523Y0110754D01*
X0100574Y0112702D01*
X0098930Y0114346D01*
X0098930Y0114488D01*
X0097382Y0116037D01*
X0097382Y0116094D01*
X0097259Y0116551D01*
X0097205Y0116645D01*
X0097512Y0116645D01*
X0099461Y0118593D01*
X0101614Y0120747D01*
X0103358Y0122491D01*
X0105307Y0124439D01*
X0107256Y0126388D01*
X0109204Y0128337D01*
X0111153Y0130286D01*
X0113102Y0132234D01*
X0114951Y0134083D01*
X0115092Y0134083D01*
X0117304Y0136295D01*
X0117304Y0137455D01*
X0114691Y0140068D01*
X0114668Y0140125D01*
X0109592Y0145200D01*
X0108917Y0145875D01*
X0108035Y0146240D01*
X0103922Y0146240D01*
X0103365Y0146797D01*
X0102906Y0146797D01*
X0102915Y0146830D01*
X0102915Y0147304D01*
X0102792Y0147762D01*
X0102555Y0148173D01*
X0102180Y0148547D01*
X0103404Y0148040D01*
X0105712Y0148040D01*
X0107843Y0148923D01*
X0109475Y0150555D01*
X0110358Y0152686D01*
X0110358Y0154994D01*
X0109475Y0157126D01*
X0109360Y0157240D01*
X0122339Y0157240D01*
X0122886Y0156703D01*
X0122426Y0156243D01*
X0121563Y0155379D01*
X0121481Y0155239D01*
X0121341Y0155158D01*
X0120477Y0154294D01*
X0119614Y0153431D01*
X0119377Y0153020D01*
X0119254Y0152563D01*
X0119254Y0152089D01*
X0119377Y0151631D01*
X0119614Y0151220D01*
X0122356Y0148478D01*
X0124325Y0150446D01*
X0122357Y0148478D01*
X0125099Y0145735D01*
X0125510Y0145498D01*
X0125967Y0145375D01*
X0126441Y0145375D01*
X0126899Y0145498D01*
X0127310Y0145735D01*
X0128173Y0146598D01*
X0127142Y0147629D01*
X0127143Y0147629D01*
X0128173Y0146599D01*
X0129037Y0147462D01*
X0129118Y0147603D01*
X0129258Y0147684D01*
X0130122Y0148547D01*
X0129092Y0149577D01*
X0129091Y0149578D01*
X0130122Y0148547D01*
X0130654Y0149079D01*
X0150985Y0129124D01*
X0150265Y0128404D01*
X0149401Y0127541D01*
X0149164Y0127130D01*
X0149042Y0126672D01*
X0149042Y0126474D01*
X0147798Y0125230D01*
X0147798Y0125230D01*
X0145849Y0123281D01*
X0143696Y0121128D01*
X0141747Y0119179D01*
X0140256Y0117688D01*
X0135358Y0122586D01*
X0135358Y0135034D01*
X0135720Y0135396D01*
X0136108Y0136333D01*
X0136108Y0137347D01*
X0135720Y0138285D01*
X0135002Y0139002D01*
X0134065Y0139390D01*
X0133090Y0139390D01*
X0132720Y0140285D01*
X0132002Y0141002D01*
X0131065Y0141390D01*
X0130051Y0141390D01*
X0129113Y0141002D01*
X0128396Y0140285D01*
X0128008Y0139347D01*
X0128008Y0138333D01*
X0128396Y0137396D01*
X0128758Y0137034D01*
X0128758Y0120095D01*
X0129812Y0119040D01*
X0135710Y0113142D01*
X0133952Y0111384D01*
X0132003Y0109435D01*
X0130055Y0107487D01*
X0128106Y0105538D01*
X0126157Y0103589D01*
X0126925Y0104357D02*
X0108920Y0104357D01*
X0107321Y0105955D02*
X0128523Y0105955D01*
X0130122Y0107554D02*
X0105723Y0107554D01*
X0104124Y0109152D02*
X0131720Y0109152D01*
X0133319Y0110751D02*
X0102526Y0110751D01*
X0100927Y0112349D02*
X0134917Y0112349D01*
X0134905Y0113948D02*
X0099329Y0113948D01*
X0097872Y0115546D02*
X0133306Y0115546D01*
X0131708Y0117145D02*
X0098012Y0117145D01*
X0099461Y0118593D02*
X0099461Y0118593D01*
X0099611Y0118743D02*
X0130109Y0118743D01*
X0128758Y0120342D02*
X0101209Y0120342D01*
X0101614Y0120747D02*
X0101614Y0120747D01*
X0102808Y0121940D02*
X0128758Y0121940D01*
X0128758Y0123539D02*
X0104406Y0123539D01*
X0106005Y0125137D02*
X0128758Y0125137D01*
X0128758Y0126736D02*
X0107603Y0126736D01*
X0109202Y0128334D02*
X0128758Y0128334D01*
X0128758Y0129933D02*
X0110800Y0129933D01*
X0112399Y0131531D02*
X0128758Y0131531D01*
X0128758Y0133130D02*
X0113997Y0133130D01*
X0115737Y0134729D02*
X0128758Y0134729D01*
X0128758Y0136327D02*
X0117304Y0136327D01*
X0116833Y0137926D02*
X0128177Y0137926D01*
X0128081Y0139524D02*
X0115235Y0139524D01*
X0113670Y0141123D02*
X0129405Y0141123D01*
X0131711Y0141123D02*
X0138761Y0141123D01*
X0137132Y0142721D02*
X0112071Y0142721D01*
X0110473Y0144320D02*
X0135503Y0144320D01*
X0133875Y0145918D02*
X0127493Y0145918D01*
X0127255Y0147517D02*
X0127255Y0147517D01*
X0129068Y0147517D02*
X0132246Y0147517D01*
X0129554Y0149115D02*
X0129554Y0149115D01*
X0126274Y0152395D02*
X0125256Y0151377D01*
X0124325Y0150446D01*
X0124325Y0150446D01*
X0124325Y0150447D01*
X0125256Y0151377D01*
X0126274Y0152395D01*
X0126274Y0152395D01*
X0126191Y0152312D02*
X0126191Y0152312D01*
X0124593Y0150714D02*
X0124592Y0150714D01*
X0122994Y0149115D02*
X0122994Y0149115D01*
X0121719Y0149115D02*
X0108035Y0149115D01*
X0109541Y0150714D02*
X0120120Y0150714D01*
X0119254Y0152312D02*
X0110203Y0152312D01*
X0110358Y0153911D02*
X0120094Y0153911D01*
X0120477Y0154294D02*
X0121508Y0153264D01*
X0121508Y0153264D01*
X0120477Y0154294D01*
X0120861Y0153911D02*
X0120861Y0153911D01*
X0121692Y0155509D02*
X0110144Y0155509D01*
X0109482Y0157108D02*
X0122474Y0157108D01*
X0122426Y0156243D02*
X0123457Y0155212D01*
X0123456Y0155213D01*
X0122426Y0156243D01*
X0123160Y0155509D02*
X0123160Y0155509D01*
X0123317Y0147517D02*
X0102858Y0147517D01*
X0098142Y0147517D02*
X0097621Y0147517D01*
X0097931Y0147206D02*
X0095257Y0149880D01*
X0093828Y0148451D01*
X0093591Y0148040D01*
X0093468Y0147583D01*
X0093468Y0147109D01*
X0093591Y0146651D01*
X0093828Y0146240D01*
X0095396Y0144672D01*
X0097931Y0147206D01*
X0097164Y0145918D02*
X0096643Y0145918D01*
X0095749Y0144320D02*
X0091367Y0144320D01*
X0090072Y0144320D02*
X0089550Y0144320D01*
X0089768Y0142721D02*
X0097437Y0142721D01*
X0097143Y0141123D02*
X0087415Y0141123D01*
X0087687Y0139524D02*
X0088114Y0139524D01*
X0085562Y0136327D02*
X0080704Y0136327D01*
X0081069Y0134729D02*
X0086728Y0134729D01*
X0088327Y0133130D02*
X0084209Y0133130D01*
X0085808Y0131531D02*
X0089925Y0131531D01*
X0091524Y0129933D02*
X0087406Y0129933D01*
X0088886Y0126040D02*
X0092930Y0126040D01*
X0092472Y0125582D01*
X0092472Y0125582D01*
X0090523Y0123633D01*
X0090523Y0122556D01*
X0094031Y0119049D01*
X0093953Y0119049D01*
X0093495Y0118926D01*
X0093084Y0118689D01*
X0090342Y0115946D01*
X0087599Y0113204D01*
X0087362Y0112793D01*
X0087239Y0112335D01*
X0087239Y0111861D01*
X0087362Y0111404D01*
X0087457Y0111240D01*
X0086846Y0111240D01*
X0086804Y0111341D01*
X0086059Y0112087D01*
X0085455Y0112337D01*
X0082142Y0115650D01*
X0082247Y0115755D01*
X0082247Y0116915D01*
X0078365Y0120797D01*
X0077906Y0120797D01*
X0077915Y0120830D01*
X0077915Y0121304D01*
X0077792Y0121762D01*
X0077555Y0122173D01*
X0075987Y0123741D01*
X0073452Y0121207D01*
X0073192Y0121467D01*
X0075726Y0124001D01*
X0074158Y0125570D01*
X0073747Y0125807D01*
X0073289Y0125930D01*
X0072844Y0125930D01*
X0073158Y0126110D01*
X0074726Y0127679D01*
X0072192Y0130213D01*
X0072452Y0130474D01*
X0074987Y0127939D01*
X0076555Y0129508D01*
X0076792Y0129918D01*
X0076915Y0130376D01*
X0076915Y0130850D01*
X0076879Y0130983D01*
X0077323Y0130983D01*
X0078116Y0131776D01*
X0079241Y0130651D01*
X0078602Y0130012D01*
X0078602Y0128935D01*
X0084653Y0122884D01*
X0085730Y0122884D01*
X0088886Y0126040D01*
X0087983Y0125137D02*
X0092028Y0125137D01*
X0090523Y0123539D02*
X0086384Y0123539D01*
X0083999Y0123539D02*
X0076189Y0123539D01*
X0075785Y0123539D02*
X0075263Y0123539D01*
X0074590Y0125137D02*
X0082400Y0125137D01*
X0080802Y0126736D02*
X0073783Y0126736D01*
X0074070Y0128334D02*
X0074591Y0128334D01*
X0075382Y0128334D02*
X0079203Y0128334D01*
X0078602Y0129933D02*
X0076796Y0129933D01*
X0077872Y0131531D02*
X0078361Y0131531D01*
X0072993Y0129933D02*
X0072472Y0129933D01*
X0071911Y0129933D02*
X0071390Y0129933D01*
X0071394Y0131531D02*
X0070873Y0131531D01*
X0069796Y0133130D02*
X0019158Y0133130D01*
X0019158Y0131531D02*
X0067920Y0131531D01*
X0067513Y0129933D02*
X0019158Y0129933D01*
X0019158Y0128334D02*
X0068723Y0128334D01*
X0069792Y0128334D02*
X0070313Y0128334D01*
X0070322Y0126736D02*
X0019158Y0126736D01*
X0019158Y0125137D02*
X0071515Y0125137D01*
X0071120Y0123539D02*
X0070598Y0123539D01*
X0070257Y0123880D02*
X0072931Y0121206D01*
X0070396Y0118672D01*
X0068828Y0120240D01*
X0068591Y0120651D01*
X0068468Y0121109D01*
X0068468Y0121583D01*
X0068591Y0122040D01*
X0068828Y0122451D01*
X0070257Y0123880D01*
X0069916Y0123539D02*
X0019158Y0123539D01*
X0019158Y0121940D02*
X0068564Y0121940D01*
X0068770Y0120342D02*
X0019158Y0120342D01*
X0019158Y0118743D02*
X0070325Y0118743D01*
X0070468Y0118743D02*
X0070989Y0118743D01*
X0071924Y0117145D02*
X0019158Y0117145D01*
X0019158Y0115546D02*
X0074088Y0115546D01*
X0075686Y0113948D02*
X0019158Y0113948D01*
X0019158Y0112349D02*
X0077285Y0112349D01*
X0080253Y0110751D02*
X0019158Y0110751D01*
X0019158Y0134729D02*
X0071117Y0134729D01*
X0073422Y0136327D02*
X0038415Y0136327D01*
X0036700Y0136327D02*
X0019158Y0136327D01*
X0019158Y0137926D02*
X0034825Y0137926D01*
X0034743Y0139524D02*
X0019158Y0139524D01*
X0019230Y0141123D02*
X0035824Y0141123D01*
X0037132Y0142721D02*
X0019480Y0142721D01*
X0019845Y0144320D02*
X0025876Y0144320D01*
X0024490Y0145918D02*
X0020294Y0145918D01*
X0021063Y0147517D02*
X0023828Y0147517D01*
X0023758Y0149115D02*
X0021839Y0149115D01*
X0023114Y0150714D02*
X0024056Y0150714D01*
X0024465Y0152312D02*
X0024827Y0152312D01*
X0026282Y0153761D02*
X0027300Y0154573D01*
X0030811Y0156264D01*
X0034610Y0157131D01*
X0036558Y0157240D01*
X0040378Y0157240D01*
X0040008Y0156347D01*
X0040008Y0155836D01*
X0039758Y0155586D01*
X0039758Y0151571D01*
X0039142Y0150955D01*
X0038754Y0150018D01*
X0038710Y0150062D01*
X0037314Y0150640D01*
X0035802Y0150640D01*
X0035194Y0150388D01*
X0034475Y0152126D01*
X0032843Y0153757D01*
X0030712Y0154640D01*
X0028404Y0154640D01*
X0026282Y0153761D01*
X0026470Y0153911D02*
X0026643Y0153911D01*
X0029244Y0155509D02*
X0039758Y0155509D01*
X0039758Y0153911D02*
X0032473Y0153911D01*
X0034288Y0152312D02*
X0039758Y0152312D01*
X0039042Y0150714D02*
X0035060Y0150714D01*
X0034509Y0157108D02*
X0040323Y0157108D01*
X0043358Y0153411D02*
X0044002Y0153678D01*
X0044720Y0154396D01*
X0045108Y0155333D01*
X0045108Y0156347D01*
X0044738Y0157240D01*
X0055441Y0157240D01*
X0055725Y0156586D01*
X0055725Y0156586D01*
X0056268Y0155940D01*
X0052096Y0155940D01*
X0051472Y0155970D01*
X0051439Y0155940D01*
X0051395Y0155940D01*
X0050953Y0155499D01*
X0047255Y0152136D01*
X0047125Y0152190D01*
X0045991Y0152190D01*
X0044943Y0151756D01*
X0044142Y0150955D01*
X0044058Y0150752D01*
X0043974Y0150955D01*
X0043358Y0151571D01*
X0043358Y0153411D01*
X0044235Y0153911D02*
X0049207Y0153911D01*
X0050964Y0155509D02*
X0045108Y0155509D01*
X0044793Y0157108D02*
X0055499Y0157108D01*
X0059956Y0149115D02*
X0061275Y0149115D01*
X0062973Y0147517D02*
X0058464Y0147517D01*
X0058854Y0145918D02*
X0064672Y0145918D01*
X0060058Y0144320D02*
X0081415Y0144320D01*
X0079816Y0142721D02*
X0060358Y0142721D01*
X0059959Y0141123D02*
X0078968Y0141123D01*
X0080241Y0139524D02*
X0058482Y0139524D01*
X0054634Y0139524D02*
X0040718Y0139524D01*
X0040047Y0137926D02*
X0075021Y0137926D01*
X0079106Y0137926D02*
X0081839Y0137926D01*
X0083201Y0145918D02*
X0075420Y0145918D01*
X0077817Y0147517D02*
X0083905Y0147517D01*
X0085390Y0149001D02*
X0086958Y0150570D01*
X0087369Y0150807D01*
X0087826Y0150930D01*
X0088300Y0150930D01*
X0088758Y0150807D01*
X0089169Y0150570D01*
X0090598Y0149141D01*
X0087924Y0146467D01*
X0085390Y0149001D01*
X0085503Y0149115D02*
X0081439Y0149115D01*
X0082108Y0150714D02*
X0087207Y0150714D01*
X0088920Y0150714D02*
X0096091Y0150714D01*
X0096022Y0149115D02*
X0096543Y0149115D01*
X0094492Y0149115D02*
X0090572Y0149115D01*
X0089495Y0147517D02*
X0088974Y0147517D01*
X0088473Y0145918D02*
X0087952Y0145918D01*
X0086875Y0147517D02*
X0086353Y0147517D01*
X0081692Y0152312D02*
X0098913Y0152312D01*
X0098758Y0153911D02*
X0081912Y0153911D01*
X0083257Y0155509D02*
X0098971Y0155509D01*
X0099633Y0157108D02*
X0084388Y0157108D01*
X0084162Y0156586D02*
X0084162Y0156586D01*
X0092222Y0147517D02*
X0093468Y0147517D01*
X0094150Y0145918D02*
X0092596Y0145918D01*
X0091734Y0139524D02*
X0095973Y0139524D01*
X0096068Y0137926D02*
X0093333Y0137926D01*
X0094931Y0136327D02*
X0097700Y0136327D01*
X0099415Y0136327D02*
X0103217Y0136327D01*
X0101619Y0134729D02*
X0096514Y0134729D01*
X0097418Y0133130D02*
X0100020Y0133130D01*
X0101047Y0137926D02*
X0104816Y0137926D01*
X0105016Y0139524D02*
X0106414Y0139524D01*
X0106615Y0141123D02*
X0106881Y0141123D01*
X0108813Y0145918D02*
X0124916Y0145918D01*
X0133035Y0139524D02*
X0140389Y0139524D01*
X0142018Y0137926D02*
X0135868Y0137926D01*
X0136105Y0136327D02*
X0143647Y0136327D01*
X0145275Y0134729D02*
X0135358Y0134729D01*
X0135358Y0133130D02*
X0146904Y0133130D01*
X0148533Y0131531D02*
X0135358Y0131531D01*
X0135358Y0129933D02*
X0150161Y0129933D01*
X0150265Y0128404D02*
X0154113Y0124556D01*
X0154113Y0124556D01*
X0157961Y0120708D01*
X0158753Y0121501D01*
X0158958Y0121299D01*
X0158958Y0086959D01*
X0158475Y0088126D01*
X0156843Y0089757D01*
X0156747Y0089797D01*
X0156826Y0090091D01*
X0156826Y0092309D01*
X0153242Y0092309D01*
X0153242Y0092678D01*
X0156826Y0092678D01*
X0156826Y0094896D01*
X0156704Y0095354D01*
X0156467Y0095764D01*
X0156132Y0096099D01*
X0156012Y0096168D01*
X0156326Y0096483D01*
X0156326Y0099910D01*
X0156358Y0099941D01*
X0156358Y0112911D01*
X0157002Y0113178D01*
X0157720Y0113896D01*
X0158108Y0114833D01*
X0158108Y0115847D01*
X0157720Y0116785D01*
X0157002Y0117502D01*
X0156065Y0117890D01*
X0155543Y0117890D01*
X0154987Y0118442D01*
X0156030Y0119485D01*
X0156229Y0119485D01*
X0156687Y0119608D01*
X0157097Y0119845D01*
X0157961Y0120708D01*
X0154113Y0124556D01*
X0150265Y0128404D01*
X0150334Y0128334D02*
X0150335Y0128334D01*
X0150195Y0128334D02*
X0135358Y0128334D01*
X0135358Y0126736D02*
X0149059Y0126736D01*
X0147705Y0125137D02*
X0135358Y0125137D01*
X0135358Y0123539D02*
X0146107Y0123539D01*
X0145849Y0123281D02*
X0145849Y0123281D01*
X0144508Y0121940D02*
X0136003Y0121940D01*
X0137602Y0120342D02*
X0142910Y0120342D01*
X0141311Y0118743D02*
X0139200Y0118743D01*
X0151933Y0126736D02*
X0151933Y0126736D01*
X0153532Y0125137D02*
X0153532Y0125137D01*
X0154113Y0124556D02*
X0154113Y0124556D01*
X0155130Y0123539D02*
X0155130Y0123539D01*
X0156729Y0121940D02*
X0156729Y0121940D01*
X0157594Y0120342D02*
X0158958Y0120342D01*
X0158958Y0118743D02*
X0155289Y0118743D01*
X0157359Y0117145D02*
X0158958Y0117145D01*
X0158958Y0115546D02*
X0158108Y0115546D01*
X0157741Y0113948D02*
X0158958Y0113948D01*
X0158958Y0112349D02*
X0156358Y0112349D01*
X0156358Y0110751D02*
X0158958Y0110751D01*
X0158958Y0109152D02*
X0156358Y0109152D01*
X0156358Y0107554D02*
X0158958Y0107554D01*
X0158958Y0105955D02*
X0156358Y0105955D01*
X0156358Y0104357D02*
X0158958Y0104357D01*
X0158958Y0102758D02*
X0156358Y0102758D01*
X0156358Y0101160D02*
X0158958Y0101160D01*
X0158958Y0099561D02*
X0156326Y0099561D01*
X0156326Y0097963D02*
X0158958Y0097963D01*
X0158958Y0096364D02*
X0156208Y0096364D01*
X0156826Y0094766D02*
X0158958Y0094766D01*
X0158958Y0093167D02*
X0156826Y0093167D01*
X0156826Y0091569D02*
X0158958Y0091569D01*
X0158958Y0089970D02*
X0156794Y0089970D01*
X0158229Y0088372D02*
X0158958Y0088372D01*
X0155137Y0078781D02*
X0142826Y0078781D01*
X0142826Y0077182D02*
X0153847Y0077182D01*
X0154600Y0078329D02*
X0154600Y0078329D01*
X0154600Y0078329D01*
X0152797Y0075584D02*
X0142826Y0075584D01*
X0142826Y0073985D02*
X0151855Y0073985D01*
X0151944Y0074283D02*
X0151944Y0074283D01*
X0151377Y0072387D02*
X0143185Y0072387D01*
X0143326Y0070788D02*
X0150899Y0070788D01*
X0150558Y0069190D02*
X0143326Y0069190D01*
X0143326Y0067591D02*
X0150558Y0067591D01*
X0150558Y0065993D02*
X0142736Y0065993D01*
X0139742Y0065993D02*
X0139374Y0065993D01*
X0139374Y0065528D02*
X0139374Y0069309D01*
X0135789Y0069309D01*
X0135789Y0067091D01*
X0135912Y0066634D01*
X0136149Y0066223D01*
X0136484Y0065888D01*
X0136895Y0065651D01*
X0137352Y0065528D01*
X0139374Y0065528D01*
X0139374Y0067591D02*
X0139742Y0067591D01*
X0139742Y0069190D02*
X0139374Y0069190D01*
X0136380Y0065993D02*
X0128736Y0065993D01*
X0129326Y0067591D02*
X0135789Y0067591D01*
X0135789Y0069190D02*
X0129326Y0069190D01*
X0129326Y0070788D02*
X0135789Y0070788D01*
X0135931Y0072387D02*
X0129185Y0072387D01*
X0128826Y0073985D02*
X0136289Y0073985D01*
X0133269Y0075584D02*
X0128826Y0075584D01*
X0128826Y0077182D02*
X0130610Y0077182D01*
X0130008Y0078781D02*
X0128826Y0078781D01*
X0135163Y0078781D02*
X0136289Y0078781D01*
X0136642Y0080379D02*
X0149816Y0080379D01*
X0148466Y0081978D02*
X0138241Y0081978D01*
X0139839Y0083576D02*
X0147804Y0083576D01*
X0147758Y0085175D02*
X0141438Y0085175D01*
X0143036Y0086773D02*
X0148081Y0086773D01*
X0148887Y0088372D02*
X0144635Y0088372D01*
X0146233Y0089970D02*
X0149322Y0089970D01*
X0149289Y0091569D02*
X0147832Y0091569D01*
X0143536Y0096364D02*
X0143108Y0096364D01*
X0143108Y0096333D02*
X0142827Y0095655D01*
X0144008Y0096836D01*
X0144008Y0097347D01*
X0144396Y0098285D01*
X0145113Y0099002D01*
X0145758Y0099269D01*
X0145758Y0104495D01*
X0142358Y0101095D01*
X0142358Y0098646D01*
X0142720Y0098285D01*
X0143108Y0097347D01*
X0143108Y0096333D01*
X0142853Y0097963D02*
X0144263Y0097963D01*
X0145758Y0099561D02*
X0142358Y0099561D01*
X0142423Y0101160D02*
X0145758Y0101160D01*
X0145758Y0102758D02*
X0144022Y0102758D01*
X0145620Y0104357D02*
X0145758Y0104357D01*
X0138758Y0101160D02*
X0137705Y0101160D01*
X0138758Y0099561D02*
X0136106Y0099561D01*
X0134508Y0097963D02*
X0138263Y0097963D01*
X0135460Y0096364D02*
X0132909Y0096364D01*
X0133861Y0094766D02*
X0131311Y0094766D01*
X0131983Y0093167D02*
X0129712Y0093167D01*
X0132678Y0093167D02*
X0132701Y0093167D01*
X0128284Y0086773D02*
X0115813Y0086773D01*
X0119010Y0089970D02*
X0123109Y0089970D01*
X0121511Y0091569D02*
X0120523Y0091569D01*
X0118932Y0096364D02*
X0116912Y0096364D01*
X0115314Y0097963D02*
X0120531Y0097963D01*
X0122129Y0099561D02*
X0113715Y0099561D01*
X0112117Y0101160D02*
X0123728Y0101160D01*
X0122464Y0099897D02*
X0122464Y0099897D01*
X0092311Y0113978D02*
X0092310Y0113978D01*
X0090342Y0115946D01*
X0092311Y0113978D01*
X0090742Y0115546D02*
X0090742Y0115546D01*
X0089942Y0115546D02*
X0082246Y0115546D01*
X0082017Y0117145D02*
X0091540Y0117145D01*
X0093179Y0118743D02*
X0080418Y0118743D01*
X0078820Y0120342D02*
X0092738Y0120342D01*
X0091139Y0121940D02*
X0077689Y0121940D01*
X0074186Y0121940D02*
X0073665Y0121940D01*
X0072718Y0121940D02*
X0072197Y0121940D01*
X0072066Y0120342D02*
X0072588Y0120342D01*
X0083844Y0113948D02*
X0088343Y0113948D01*
X0087243Y0112349D02*
X0085443Y0112349D01*
X0086146Y0104357D02*
X0086158Y0104357D01*
X0092778Y0129933D02*
X0095524Y0129933D01*
X0053156Y0141123D02*
X0052544Y0141123D01*
X0051558Y0141123D02*
X0051558Y0141123D01*
X0051558Y0140990D02*
X0051558Y0144340D01*
X0051558Y0144340D01*
X0051558Y0140990D01*
X0050572Y0141123D02*
X0042026Y0141123D01*
X0044080Y0142721D02*
X0044146Y0142721D01*
X0051558Y0142721D02*
X0051558Y0142721D01*
X0051558Y0144320D02*
X0051558Y0144320D01*
X0053765Y0147517D02*
X0054652Y0147517D01*
X0047448Y0152312D02*
X0043358Y0152312D01*
X0033704Y0144320D02*
X0033240Y0144320D01*
X0065431Y0065993D02*
X0066029Y0065993D01*
X0067694Y0065993D02*
X0068291Y0065993D01*
X0092079Y0038818D02*
X0094797Y0038818D01*
X0093198Y0037219D02*
X0090251Y0037219D01*
X0091600Y0035621D02*
X0088144Y0035621D01*
X0090001Y0034022D02*
X0085680Y0034022D01*
X0088403Y0032424D02*
X0082700Y0032424D01*
X0078793Y0030825D02*
X0086804Y0030825D01*
X0087150Y0029227D02*
X0072157Y0029227D01*
X0051022Y0032424D02*
X0029234Y0032424D01*
X0025882Y0032424D02*
X0022885Y0032424D01*
X0023641Y0033020D02*
X0023641Y0033020D01*
X0023641Y0033020D01*
X0024397Y0034022D02*
X0048043Y0034022D01*
X0045579Y0035621D02*
X0025601Y0035621D01*
X0026695Y0037219D02*
X0043472Y0037219D01*
X0041643Y0038818D02*
X0027347Y0038818D01*
X0023341Y0030825D02*
X0020855Y0030825D01*
X0019822Y0030012D02*
X0019822Y0030012D01*
X0019228Y0029227D02*
X0022269Y0029227D01*
X0021758Y0027628D02*
X0019603Y0027628D01*
X0019977Y0026030D02*
X0021758Y0026030D01*
X0022278Y0024431D02*
X0020807Y0024431D01*
X0021697Y0022833D02*
X0023363Y0022833D01*
X0042122Y0026685D02*
X0042122Y0026685D01*
X0125374Y0065993D02*
X0125742Y0065993D01*
X0125742Y0067591D02*
X0125374Y0067591D01*
X0125374Y0069190D02*
X0125742Y0069190D01*
D20*
X0115558Y0067840D02*
X0115558Y0058840D01*
X0117558Y0056840D01*
X0119558Y0056840D01*
X0115558Y0067840D02*
X0115558Y0084840D01*
X0115695Y0084978D01*
X0115695Y0085840D01*
X0115695Y0090593D01*
X0108058Y0083840D02*
X0088558Y0103340D01*
X0088558Y0108840D01*
X0091071Y0108840D01*
X0091314Y0109084D02*
X0094259Y0112029D01*
X0092311Y0113978D02*
X0086311Y0120087D01*
X0080593Y0119878D01*
X0075594Y0124877D01*
X0073192Y0122474D01*
X0073192Y0121206D01*
X0075594Y0124877D02*
X0072192Y0128280D01*
X0072192Y0130474D01*
X0071924Y0130474D01*
X0068058Y0134340D01*
X0067558Y0133840D01*
X0061558Y0133840D01*
X0051558Y0138840D01*
X0051558Y0144340D01*
X0041558Y0144340D02*
X0037058Y0138840D01*
X0037558Y0138840D01*
X0058558Y0127840D02*
X0058558Y0117840D01*
X0058558Y0127840D02*
X0061558Y0133840D01*
X0068058Y0134340D02*
X0083424Y0149706D01*
X0084424Y0149706D01*
X0087924Y0146206D01*
X0092558Y0150840D01*
X0094558Y0150840D01*
X0097845Y0147553D01*
X0097845Y0146206D01*
X0102558Y0143494D02*
X0102558Y0142840D01*
X0098558Y0138840D01*
X0102924Y0142474D02*
X0102558Y0143494D01*
X0102924Y0142474D02*
X0104290Y0143840D01*
X0107558Y0143840D01*
X0112633Y0138765D01*
X0112633Y0138754D01*
X0120558Y0146840D02*
X0120558Y0120340D01*
X0119558Y0117840D01*
X0120558Y0146840D02*
X0124164Y0150446D01*
X0124325Y0150446D01*
X0126274Y0152395D02*
X0153842Y0124827D01*
X0153842Y0124556D01*
X0108058Y0083840D02*
X0108058Y0044340D01*
X0098737Y0035019D01*
X0098737Y0033818D01*
X0066861Y0065694D02*
X0084008Y0082840D01*
X0082558Y0107840D02*
X0084558Y0109840D01*
X0077924Y0116474D01*
X0077924Y0116474D01*
X0084558Y0109840D02*
X0085558Y0108840D01*
X0088558Y0108840D01*
X0082558Y0107840D02*
X0045058Y0107840D01*
X0034986Y0097768D01*
X0034986Y0097569D01*
X0084424Y0149706D02*
X0083558Y0150573D01*
X0083558Y0151840D01*
D21*
X0079558Y0150840D02*
X0073558Y0146840D01*
X0083192Y0141474D02*
X0089345Y0135320D01*
X0091038Y0135320D01*
X0088078Y0136320D01*
X0090558Y0133840D01*
X0094162Y0133840D01*
X0100941Y0127062D01*
X0098992Y0125406D02*
X0098992Y0125113D01*
X0098992Y0125406D02*
X0096558Y0127840D01*
X0085598Y0127840D01*
X0084078Y0128360D01*
X0077232Y0135206D01*
X0076924Y0135206D01*
X0083192Y0141474D02*
X0084192Y0140474D01*
X0097845Y0146206D02*
X0098192Y0147206D01*
X0124325Y0150446D02*
X0124325Y0150608D01*
X0124558Y0150840D01*
X0124719Y0150840D01*
X0126274Y0152395D01*
X0130558Y0138840D02*
X0130558Y0120840D01*
X0140472Y0110926D01*
X0140472Y0110915D01*
X0142534Y0112864D02*
X0133558Y0121840D01*
X0133558Y0136840D01*
X0150215Y0120659D02*
X0152558Y0118316D01*
X0155558Y0115340D01*
X0155558Y0114840D01*
X0154558Y0113840D01*
X0154558Y0100687D01*
X0153058Y0099187D01*
X0149558Y0095840D02*
X0132558Y0078840D01*
X0135211Y0076187D01*
X0139558Y0076187D01*
X0143558Y0070840D02*
X0141558Y0068840D01*
X0140211Y0068840D01*
X0139558Y0069494D01*
X0139211Y0069494D01*
X0138558Y0068840D01*
X0126211Y0068840D01*
X0125558Y0069494D01*
X0124904Y0068840D01*
X0116558Y0068840D01*
X0115558Y0067840D01*
X0125558Y0076187D02*
X0125558Y0079840D01*
X0127558Y0081840D01*
X0131558Y0081840D01*
X0146558Y0096840D01*
X0147558Y0097840D01*
X0147558Y0104340D01*
X0149558Y0106340D01*
X0149558Y0112840D01*
X0146318Y0116080D01*
X0144585Y0114813D02*
X0147558Y0111840D01*
X0147558Y0108840D01*
X0140558Y0101840D01*
X0140558Y0096840D01*
X0136924Y0093206D01*
X0132192Y0088474D02*
X0129558Y0085840D01*
X0115695Y0085840D01*
X0115695Y0090593D02*
X0115695Y0090978D01*
X0094259Y0111542D02*
X0094259Y0112029D01*
X0094259Y0111542D02*
X0091558Y0108840D01*
X0091071Y0108840D01*
X0091314Y0109084D01*
X0085558Y0101840D02*
X0078558Y0101840D01*
X0041558Y0149340D02*
X0041558Y0154840D01*
X0042558Y0155840D01*
X0143558Y0083840D02*
X0143558Y0070840D01*
X0143558Y0083840D02*
X0153058Y0092494D01*
X0149558Y0095840D02*
X0149558Y0102840D01*
X0151558Y0104840D01*
X0151558Y0115419D01*
X0148267Y0118710D01*
X0153842Y0124556D02*
X0154113Y0124556D01*
D22*
X0158058Y0119840D03*
X0155558Y0115340D03*
X0158058Y0110840D03*
X0158058Y0103340D03*
X0158058Y0097340D03*
X0158058Y0090840D03*
X0146558Y0096840D03*
X0144058Y0100840D03*
X0140558Y0096840D03*
X0137558Y0099340D03*
X0146558Y0080840D03*
X0149558Y0077340D03*
X0148058Y0071840D03*
X0150058Y0065840D03*
X0150558Y0057840D03*
X0142558Y0063840D03*
X0142558Y0049840D03*
X0150558Y0047840D03*
X0156058Y0048840D03*
X0155558Y0039840D03*
X0157558Y0029840D03*
X0150558Y0020840D03*
X0141558Y0018840D03*
X0132558Y0018840D03*
X0123558Y0018840D03*
X0114558Y0018840D03*
X0104558Y0018840D03*
X0095558Y0018840D03*
X0088558Y0018840D03*
X0081558Y0018840D03*
X0085558Y0026840D03*
X0072558Y0018840D03*
X0065558Y0025840D03*
X0053558Y0028840D03*
X0042558Y0028840D03*
X0035558Y0024840D03*
X0029558Y0019840D03*
X0020558Y0029840D03*
X0027558Y0034840D03*
X0029558Y0041840D03*
X0036058Y0034340D03*
X0030558Y0052840D03*
X0027558Y0062840D03*
X0020558Y0070840D03*
X0020558Y0080840D03*
X0028558Y0084840D03*
X0020558Y0090840D03*
X0020558Y0101840D03*
X0030058Y0105840D03*
X0030058Y0115840D03*
X0030058Y0123840D03*
X0037058Y0128840D03*
X0030058Y0132840D03*
X0032558Y0139840D03*
X0037558Y0138840D03*
X0042558Y0134840D03*
X0037058Y0151840D03*
X0037558Y0155840D03*
X0042558Y0155840D03*
X0048558Y0155840D03*
X0031558Y0155840D03*
X0022558Y0147840D03*
X0020558Y0140840D03*
X0025558Y0139840D03*
X0020558Y0132840D03*
X0020558Y0123840D03*
X0020558Y0113840D03*
X0067558Y0142340D03*
X0072058Y0138340D03*
X0079558Y0145340D03*
X0079558Y0150840D03*
X0083558Y0151840D03*
X0085558Y0156340D03*
X0092558Y0156340D03*
X0096558Y0152840D03*
X0098558Y0156340D03*
X0105558Y0146840D03*
X0112558Y0146840D03*
X0112558Y0151840D03*
X0111558Y0156340D03*
X0116558Y0156340D03*
X0121558Y0156340D03*
X0118558Y0151840D03*
X0120558Y0146840D03*
X0130558Y0147840D03*
X0134558Y0143840D03*
X0138058Y0140340D03*
X0142058Y0136340D03*
X0146058Y0132340D03*
X0149558Y0128840D03*
X0145558Y0124840D03*
X0142058Y0128340D03*
X0138058Y0132340D03*
X0133558Y0136840D03*
X0130558Y0138840D03*
X0102558Y0136840D03*
X0099058Y0133340D03*
X0098558Y0138840D03*
X0093558Y0138840D03*
X0083558Y0135340D03*
X0083558Y0120840D03*
X0084558Y0109840D03*
X0085558Y0101840D03*
X0078558Y0101840D03*
X0095058Y0102340D03*
X0101558Y0095340D03*
X0109058Y0088340D03*
X0103558Y0078840D03*
X0132558Y0078840D03*
X0136558Y0039840D03*
X0145558Y0037840D03*
X0141558Y0027840D03*
X0123058Y0032840D03*
X0108058Y0030840D03*
D23*
X0142420Y0112864D02*
X0142534Y0112864D01*
X0144369Y0114813D02*
X0144585Y0114813D01*
X0146318Y0116080D02*
X0146318Y0116761D01*
X0073558Y0146840D02*
X0066058Y0146840D01*
X0066558Y0146340D01*
X0058058Y0154340D01*
X0052058Y0154340D01*
X0046558Y0149340D01*
M02*
