G75*
%MOIN*%
%OFA0B0*%
%FSLAX25Y25*%
%IPPOS*%
%LPD*%
%AMOC8*
5,1,8,0,0,1.08239X$1,22.5*
%
%ADD10C,0.00000*%
%ADD11C,0.01600*%
%ADD12C,0.03400*%
%ADD13C,0.03100*%
%ADD14R,0.07283X0.01969*%
%ADD15R,0.01969X0.07283*%
%ADD16R,0.04331X0.03937*%
%ADD17R,0.04331X0.07480*%
%ADD18R,0.03937X0.04331*%
%ADD19C,0.70079*%
%ADD20R,0.09843X0.20079*%
%ADD21C,0.02000*%
%ADD22C,0.01000*%
%ADD23C,0.02700*%
%ADD24C,0.00600*%
%ADD25C,0.01200*%
D10*
X0022558Y0025840D02*
X0022560Y0025966D01*
X0022566Y0026092D01*
X0022576Y0026218D01*
X0022590Y0026344D01*
X0022608Y0026469D01*
X0022630Y0026593D01*
X0022655Y0026717D01*
X0022685Y0026840D01*
X0022718Y0026961D01*
X0022756Y0027082D01*
X0022797Y0027201D01*
X0022842Y0027320D01*
X0022890Y0027436D01*
X0022942Y0027551D01*
X0022998Y0027664D01*
X0023058Y0027776D01*
X0023121Y0027885D01*
X0023187Y0027993D01*
X0023256Y0028098D01*
X0023329Y0028201D01*
X0023406Y0028302D01*
X0023485Y0028400D01*
X0023567Y0028496D01*
X0023653Y0028589D01*
X0023741Y0028680D01*
X0023832Y0028767D01*
X0023926Y0028852D01*
X0024022Y0028933D01*
X0024121Y0029012D01*
X0024222Y0029087D01*
X0024326Y0029159D01*
X0024432Y0029228D01*
X0024540Y0029294D01*
X0024650Y0029356D01*
X0024762Y0029414D01*
X0024875Y0029469D01*
X0024991Y0029520D01*
X0025108Y0029568D01*
X0025226Y0029612D01*
X0025346Y0029652D01*
X0025467Y0029688D01*
X0025589Y0029721D01*
X0025712Y0029750D01*
X0025836Y0029774D01*
X0025960Y0029795D01*
X0026085Y0029812D01*
X0026211Y0029825D01*
X0026337Y0029834D01*
X0026463Y0029839D01*
X0026590Y0029840D01*
X0026716Y0029837D01*
X0026842Y0029830D01*
X0026968Y0029819D01*
X0027093Y0029804D01*
X0027218Y0029785D01*
X0027342Y0029762D01*
X0027466Y0029736D01*
X0027588Y0029705D01*
X0027710Y0029671D01*
X0027830Y0029632D01*
X0027949Y0029590D01*
X0028067Y0029545D01*
X0028183Y0029495D01*
X0028298Y0029442D01*
X0028410Y0029385D01*
X0028521Y0029325D01*
X0028630Y0029261D01*
X0028737Y0029194D01*
X0028842Y0029124D01*
X0028945Y0029050D01*
X0029045Y0028973D01*
X0029143Y0028893D01*
X0029238Y0028810D01*
X0029330Y0028724D01*
X0029420Y0028635D01*
X0029507Y0028543D01*
X0029590Y0028449D01*
X0029671Y0028352D01*
X0029749Y0028252D01*
X0029824Y0028150D01*
X0029895Y0028046D01*
X0029963Y0027939D01*
X0030027Y0027831D01*
X0030088Y0027720D01*
X0030146Y0027608D01*
X0030200Y0027494D01*
X0030250Y0027378D01*
X0030297Y0027261D01*
X0030340Y0027142D01*
X0030379Y0027022D01*
X0030415Y0026901D01*
X0030446Y0026778D01*
X0030474Y0026655D01*
X0030498Y0026531D01*
X0030518Y0026406D01*
X0030534Y0026281D01*
X0030546Y0026155D01*
X0030554Y0026029D01*
X0030558Y0025903D01*
X0030558Y0025777D01*
X0030554Y0025651D01*
X0030546Y0025525D01*
X0030534Y0025399D01*
X0030518Y0025274D01*
X0030498Y0025149D01*
X0030474Y0025025D01*
X0030446Y0024902D01*
X0030415Y0024779D01*
X0030379Y0024658D01*
X0030340Y0024538D01*
X0030297Y0024419D01*
X0030250Y0024302D01*
X0030200Y0024186D01*
X0030146Y0024072D01*
X0030088Y0023960D01*
X0030027Y0023849D01*
X0029963Y0023741D01*
X0029895Y0023634D01*
X0029824Y0023530D01*
X0029749Y0023428D01*
X0029671Y0023328D01*
X0029590Y0023231D01*
X0029507Y0023137D01*
X0029420Y0023045D01*
X0029330Y0022956D01*
X0029238Y0022870D01*
X0029143Y0022787D01*
X0029045Y0022707D01*
X0028945Y0022630D01*
X0028842Y0022556D01*
X0028737Y0022486D01*
X0028630Y0022419D01*
X0028521Y0022355D01*
X0028410Y0022295D01*
X0028298Y0022238D01*
X0028183Y0022185D01*
X0028067Y0022135D01*
X0027949Y0022090D01*
X0027830Y0022048D01*
X0027710Y0022009D01*
X0027588Y0021975D01*
X0027466Y0021944D01*
X0027342Y0021918D01*
X0027218Y0021895D01*
X0027093Y0021876D01*
X0026968Y0021861D01*
X0026842Y0021850D01*
X0026716Y0021843D01*
X0026590Y0021840D01*
X0026463Y0021841D01*
X0026337Y0021846D01*
X0026211Y0021855D01*
X0026085Y0021868D01*
X0025960Y0021885D01*
X0025836Y0021906D01*
X0025712Y0021930D01*
X0025589Y0021959D01*
X0025467Y0021992D01*
X0025346Y0022028D01*
X0025226Y0022068D01*
X0025108Y0022112D01*
X0024991Y0022160D01*
X0024875Y0022211D01*
X0024762Y0022266D01*
X0024650Y0022324D01*
X0024540Y0022386D01*
X0024432Y0022452D01*
X0024326Y0022521D01*
X0024222Y0022593D01*
X0024121Y0022668D01*
X0024022Y0022747D01*
X0023926Y0022828D01*
X0023832Y0022913D01*
X0023741Y0023000D01*
X0023653Y0023091D01*
X0023567Y0023184D01*
X0023485Y0023280D01*
X0023406Y0023378D01*
X0023329Y0023479D01*
X0023256Y0023582D01*
X0023187Y0023687D01*
X0023121Y0023795D01*
X0023058Y0023904D01*
X0022998Y0024016D01*
X0022942Y0024129D01*
X0022890Y0024244D01*
X0022842Y0024360D01*
X0022797Y0024479D01*
X0022756Y0024598D01*
X0022718Y0024719D01*
X0022685Y0024840D01*
X0022655Y0024963D01*
X0022630Y0025087D01*
X0022608Y0025211D01*
X0022590Y0025336D01*
X0022576Y0025462D01*
X0022566Y0025588D01*
X0022560Y0025714D01*
X0022558Y0025840D01*
X0053558Y0142340D02*
X0053560Y0142429D01*
X0053566Y0142518D01*
X0053576Y0142607D01*
X0053590Y0142695D01*
X0053607Y0142782D01*
X0053629Y0142868D01*
X0053655Y0142954D01*
X0053684Y0143038D01*
X0053717Y0143121D01*
X0053753Y0143202D01*
X0053794Y0143282D01*
X0053837Y0143359D01*
X0053884Y0143435D01*
X0053935Y0143508D01*
X0053988Y0143579D01*
X0054045Y0143648D01*
X0054105Y0143714D01*
X0054168Y0143778D01*
X0054233Y0143838D01*
X0054301Y0143896D01*
X0054372Y0143950D01*
X0054445Y0144001D01*
X0054520Y0144049D01*
X0054597Y0144094D01*
X0054676Y0144135D01*
X0054757Y0144172D01*
X0054839Y0144206D01*
X0054923Y0144237D01*
X0055008Y0144263D01*
X0055094Y0144286D01*
X0055181Y0144304D01*
X0055269Y0144319D01*
X0055358Y0144330D01*
X0055447Y0144337D01*
X0055536Y0144340D01*
X0055625Y0144339D01*
X0055714Y0144334D01*
X0055802Y0144325D01*
X0055891Y0144312D01*
X0055978Y0144295D01*
X0056065Y0144275D01*
X0056151Y0144250D01*
X0056235Y0144222D01*
X0056318Y0144190D01*
X0056400Y0144154D01*
X0056480Y0144115D01*
X0056558Y0144072D01*
X0056634Y0144026D01*
X0056708Y0143976D01*
X0056780Y0143923D01*
X0056849Y0143867D01*
X0056916Y0143808D01*
X0056980Y0143746D01*
X0057041Y0143682D01*
X0057100Y0143614D01*
X0057155Y0143544D01*
X0057207Y0143472D01*
X0057256Y0143397D01*
X0057301Y0143321D01*
X0057343Y0143242D01*
X0057381Y0143162D01*
X0057416Y0143080D01*
X0057447Y0142996D01*
X0057475Y0142911D01*
X0057498Y0142825D01*
X0057518Y0142738D01*
X0057534Y0142651D01*
X0057546Y0142562D01*
X0057554Y0142474D01*
X0057558Y0142385D01*
X0057558Y0142295D01*
X0057554Y0142206D01*
X0057546Y0142118D01*
X0057534Y0142029D01*
X0057518Y0141942D01*
X0057498Y0141855D01*
X0057475Y0141769D01*
X0057447Y0141684D01*
X0057416Y0141600D01*
X0057381Y0141518D01*
X0057343Y0141438D01*
X0057301Y0141359D01*
X0057256Y0141283D01*
X0057207Y0141208D01*
X0057155Y0141136D01*
X0057100Y0141066D01*
X0057041Y0140998D01*
X0056980Y0140934D01*
X0056916Y0140872D01*
X0056849Y0140813D01*
X0056780Y0140757D01*
X0056708Y0140704D01*
X0056634Y0140654D01*
X0056558Y0140608D01*
X0056480Y0140565D01*
X0056400Y0140526D01*
X0056318Y0140490D01*
X0056235Y0140458D01*
X0056151Y0140430D01*
X0056065Y0140405D01*
X0055978Y0140385D01*
X0055891Y0140368D01*
X0055802Y0140355D01*
X0055714Y0140346D01*
X0055625Y0140341D01*
X0055536Y0140340D01*
X0055447Y0140343D01*
X0055358Y0140350D01*
X0055269Y0140361D01*
X0055181Y0140376D01*
X0055094Y0140394D01*
X0055008Y0140417D01*
X0054923Y0140443D01*
X0054839Y0140474D01*
X0054757Y0140508D01*
X0054676Y0140545D01*
X0054597Y0140586D01*
X0054520Y0140631D01*
X0054445Y0140679D01*
X0054372Y0140730D01*
X0054301Y0140784D01*
X0054233Y0140842D01*
X0054168Y0140902D01*
X0054105Y0140966D01*
X0054045Y0141032D01*
X0053988Y0141101D01*
X0053935Y0141172D01*
X0053884Y0141245D01*
X0053837Y0141321D01*
X0053794Y0141398D01*
X0053753Y0141478D01*
X0053717Y0141559D01*
X0053684Y0141642D01*
X0053655Y0141726D01*
X0053629Y0141812D01*
X0053607Y0141898D01*
X0053590Y0141985D01*
X0053576Y0142073D01*
X0053566Y0142162D01*
X0053560Y0142251D01*
X0053558Y0142340D01*
X0053558Y0150340D02*
X0053560Y0150429D01*
X0053566Y0150518D01*
X0053576Y0150607D01*
X0053590Y0150695D01*
X0053607Y0150782D01*
X0053629Y0150868D01*
X0053655Y0150954D01*
X0053684Y0151038D01*
X0053717Y0151121D01*
X0053753Y0151202D01*
X0053794Y0151282D01*
X0053837Y0151359D01*
X0053884Y0151435D01*
X0053935Y0151508D01*
X0053988Y0151579D01*
X0054045Y0151648D01*
X0054105Y0151714D01*
X0054168Y0151778D01*
X0054233Y0151838D01*
X0054301Y0151896D01*
X0054372Y0151950D01*
X0054445Y0152001D01*
X0054520Y0152049D01*
X0054597Y0152094D01*
X0054676Y0152135D01*
X0054757Y0152172D01*
X0054839Y0152206D01*
X0054923Y0152237D01*
X0055008Y0152263D01*
X0055094Y0152286D01*
X0055181Y0152304D01*
X0055269Y0152319D01*
X0055358Y0152330D01*
X0055447Y0152337D01*
X0055536Y0152340D01*
X0055625Y0152339D01*
X0055714Y0152334D01*
X0055802Y0152325D01*
X0055891Y0152312D01*
X0055978Y0152295D01*
X0056065Y0152275D01*
X0056151Y0152250D01*
X0056235Y0152222D01*
X0056318Y0152190D01*
X0056400Y0152154D01*
X0056480Y0152115D01*
X0056558Y0152072D01*
X0056634Y0152026D01*
X0056708Y0151976D01*
X0056780Y0151923D01*
X0056849Y0151867D01*
X0056916Y0151808D01*
X0056980Y0151746D01*
X0057041Y0151682D01*
X0057100Y0151614D01*
X0057155Y0151544D01*
X0057207Y0151472D01*
X0057256Y0151397D01*
X0057301Y0151321D01*
X0057343Y0151242D01*
X0057381Y0151162D01*
X0057416Y0151080D01*
X0057447Y0150996D01*
X0057475Y0150911D01*
X0057498Y0150825D01*
X0057518Y0150738D01*
X0057534Y0150651D01*
X0057546Y0150562D01*
X0057554Y0150474D01*
X0057558Y0150385D01*
X0057558Y0150295D01*
X0057554Y0150206D01*
X0057546Y0150118D01*
X0057534Y0150029D01*
X0057518Y0149942D01*
X0057498Y0149855D01*
X0057475Y0149769D01*
X0057447Y0149684D01*
X0057416Y0149600D01*
X0057381Y0149518D01*
X0057343Y0149438D01*
X0057301Y0149359D01*
X0057256Y0149283D01*
X0057207Y0149208D01*
X0057155Y0149136D01*
X0057100Y0149066D01*
X0057041Y0148998D01*
X0056980Y0148934D01*
X0056916Y0148872D01*
X0056849Y0148813D01*
X0056780Y0148757D01*
X0056708Y0148704D01*
X0056634Y0148654D01*
X0056558Y0148608D01*
X0056480Y0148565D01*
X0056400Y0148526D01*
X0056318Y0148490D01*
X0056235Y0148458D01*
X0056151Y0148430D01*
X0056065Y0148405D01*
X0055978Y0148385D01*
X0055891Y0148368D01*
X0055802Y0148355D01*
X0055714Y0148346D01*
X0055625Y0148341D01*
X0055536Y0148340D01*
X0055447Y0148343D01*
X0055358Y0148350D01*
X0055269Y0148361D01*
X0055181Y0148376D01*
X0055094Y0148394D01*
X0055008Y0148417D01*
X0054923Y0148443D01*
X0054839Y0148474D01*
X0054757Y0148508D01*
X0054676Y0148545D01*
X0054597Y0148586D01*
X0054520Y0148631D01*
X0054445Y0148679D01*
X0054372Y0148730D01*
X0054301Y0148784D01*
X0054233Y0148842D01*
X0054168Y0148902D01*
X0054105Y0148966D01*
X0054045Y0149032D01*
X0053988Y0149101D01*
X0053935Y0149172D01*
X0053884Y0149245D01*
X0053837Y0149321D01*
X0053794Y0149398D01*
X0053753Y0149478D01*
X0053717Y0149559D01*
X0053684Y0149642D01*
X0053655Y0149726D01*
X0053629Y0149812D01*
X0053607Y0149898D01*
X0053590Y0149985D01*
X0053576Y0150073D01*
X0053566Y0150162D01*
X0053560Y0150251D01*
X0053558Y0150340D01*
X0033558Y0146340D02*
X0033560Y0146429D01*
X0033566Y0146518D01*
X0033576Y0146607D01*
X0033590Y0146695D01*
X0033607Y0146782D01*
X0033629Y0146868D01*
X0033655Y0146954D01*
X0033684Y0147038D01*
X0033717Y0147121D01*
X0033753Y0147202D01*
X0033794Y0147282D01*
X0033837Y0147359D01*
X0033884Y0147435D01*
X0033935Y0147508D01*
X0033988Y0147579D01*
X0034045Y0147648D01*
X0034105Y0147714D01*
X0034168Y0147778D01*
X0034233Y0147838D01*
X0034301Y0147896D01*
X0034372Y0147950D01*
X0034445Y0148001D01*
X0034520Y0148049D01*
X0034597Y0148094D01*
X0034676Y0148135D01*
X0034757Y0148172D01*
X0034839Y0148206D01*
X0034923Y0148237D01*
X0035008Y0148263D01*
X0035094Y0148286D01*
X0035181Y0148304D01*
X0035269Y0148319D01*
X0035358Y0148330D01*
X0035447Y0148337D01*
X0035536Y0148340D01*
X0035625Y0148339D01*
X0035714Y0148334D01*
X0035802Y0148325D01*
X0035891Y0148312D01*
X0035978Y0148295D01*
X0036065Y0148275D01*
X0036151Y0148250D01*
X0036235Y0148222D01*
X0036318Y0148190D01*
X0036400Y0148154D01*
X0036480Y0148115D01*
X0036558Y0148072D01*
X0036634Y0148026D01*
X0036708Y0147976D01*
X0036780Y0147923D01*
X0036849Y0147867D01*
X0036916Y0147808D01*
X0036980Y0147746D01*
X0037041Y0147682D01*
X0037100Y0147614D01*
X0037155Y0147544D01*
X0037207Y0147472D01*
X0037256Y0147397D01*
X0037301Y0147321D01*
X0037343Y0147242D01*
X0037381Y0147162D01*
X0037416Y0147080D01*
X0037447Y0146996D01*
X0037475Y0146911D01*
X0037498Y0146825D01*
X0037518Y0146738D01*
X0037534Y0146651D01*
X0037546Y0146562D01*
X0037554Y0146474D01*
X0037558Y0146385D01*
X0037558Y0146295D01*
X0037554Y0146206D01*
X0037546Y0146118D01*
X0037534Y0146029D01*
X0037518Y0145942D01*
X0037498Y0145855D01*
X0037475Y0145769D01*
X0037447Y0145684D01*
X0037416Y0145600D01*
X0037381Y0145518D01*
X0037343Y0145438D01*
X0037301Y0145359D01*
X0037256Y0145283D01*
X0037207Y0145208D01*
X0037155Y0145136D01*
X0037100Y0145066D01*
X0037041Y0144998D01*
X0036980Y0144934D01*
X0036916Y0144872D01*
X0036849Y0144813D01*
X0036780Y0144757D01*
X0036708Y0144704D01*
X0036634Y0144654D01*
X0036558Y0144608D01*
X0036480Y0144565D01*
X0036400Y0144526D01*
X0036318Y0144490D01*
X0036235Y0144458D01*
X0036151Y0144430D01*
X0036065Y0144405D01*
X0035978Y0144385D01*
X0035891Y0144368D01*
X0035802Y0144355D01*
X0035714Y0144346D01*
X0035625Y0144341D01*
X0035536Y0144340D01*
X0035447Y0144343D01*
X0035358Y0144350D01*
X0035269Y0144361D01*
X0035181Y0144376D01*
X0035094Y0144394D01*
X0035008Y0144417D01*
X0034923Y0144443D01*
X0034839Y0144474D01*
X0034757Y0144508D01*
X0034676Y0144545D01*
X0034597Y0144586D01*
X0034520Y0144631D01*
X0034445Y0144679D01*
X0034372Y0144730D01*
X0034301Y0144784D01*
X0034233Y0144842D01*
X0034168Y0144902D01*
X0034105Y0144966D01*
X0034045Y0145032D01*
X0033988Y0145101D01*
X0033935Y0145172D01*
X0033884Y0145245D01*
X0033837Y0145321D01*
X0033794Y0145398D01*
X0033753Y0145478D01*
X0033717Y0145559D01*
X0033684Y0145642D01*
X0033655Y0145726D01*
X0033629Y0145812D01*
X0033607Y0145898D01*
X0033590Y0145985D01*
X0033576Y0146073D01*
X0033566Y0146162D01*
X0033560Y0146251D01*
X0033558Y0146340D01*
X0023558Y0148840D02*
X0023560Y0148966D01*
X0023566Y0149092D01*
X0023576Y0149218D01*
X0023590Y0149344D01*
X0023608Y0149469D01*
X0023630Y0149593D01*
X0023655Y0149717D01*
X0023685Y0149840D01*
X0023718Y0149961D01*
X0023756Y0150082D01*
X0023797Y0150201D01*
X0023842Y0150320D01*
X0023890Y0150436D01*
X0023942Y0150551D01*
X0023998Y0150664D01*
X0024058Y0150776D01*
X0024121Y0150885D01*
X0024187Y0150993D01*
X0024256Y0151098D01*
X0024329Y0151201D01*
X0024406Y0151302D01*
X0024485Y0151400D01*
X0024567Y0151496D01*
X0024653Y0151589D01*
X0024741Y0151680D01*
X0024832Y0151767D01*
X0024926Y0151852D01*
X0025022Y0151933D01*
X0025121Y0152012D01*
X0025222Y0152087D01*
X0025326Y0152159D01*
X0025432Y0152228D01*
X0025540Y0152294D01*
X0025650Y0152356D01*
X0025762Y0152414D01*
X0025875Y0152469D01*
X0025991Y0152520D01*
X0026108Y0152568D01*
X0026226Y0152612D01*
X0026346Y0152652D01*
X0026467Y0152688D01*
X0026589Y0152721D01*
X0026712Y0152750D01*
X0026836Y0152774D01*
X0026960Y0152795D01*
X0027085Y0152812D01*
X0027211Y0152825D01*
X0027337Y0152834D01*
X0027463Y0152839D01*
X0027590Y0152840D01*
X0027716Y0152837D01*
X0027842Y0152830D01*
X0027968Y0152819D01*
X0028093Y0152804D01*
X0028218Y0152785D01*
X0028342Y0152762D01*
X0028466Y0152736D01*
X0028588Y0152705D01*
X0028710Y0152671D01*
X0028830Y0152632D01*
X0028949Y0152590D01*
X0029067Y0152545D01*
X0029183Y0152495D01*
X0029298Y0152442D01*
X0029410Y0152385D01*
X0029521Y0152325D01*
X0029630Y0152261D01*
X0029737Y0152194D01*
X0029842Y0152124D01*
X0029945Y0152050D01*
X0030045Y0151973D01*
X0030143Y0151893D01*
X0030238Y0151810D01*
X0030330Y0151724D01*
X0030420Y0151635D01*
X0030507Y0151543D01*
X0030590Y0151449D01*
X0030671Y0151352D01*
X0030749Y0151252D01*
X0030824Y0151150D01*
X0030895Y0151046D01*
X0030963Y0150939D01*
X0031027Y0150831D01*
X0031088Y0150720D01*
X0031146Y0150608D01*
X0031200Y0150494D01*
X0031250Y0150378D01*
X0031297Y0150261D01*
X0031340Y0150142D01*
X0031379Y0150022D01*
X0031415Y0149901D01*
X0031446Y0149778D01*
X0031474Y0149655D01*
X0031498Y0149531D01*
X0031518Y0149406D01*
X0031534Y0149281D01*
X0031546Y0149155D01*
X0031554Y0149029D01*
X0031558Y0148903D01*
X0031558Y0148777D01*
X0031554Y0148651D01*
X0031546Y0148525D01*
X0031534Y0148399D01*
X0031518Y0148274D01*
X0031498Y0148149D01*
X0031474Y0148025D01*
X0031446Y0147902D01*
X0031415Y0147779D01*
X0031379Y0147658D01*
X0031340Y0147538D01*
X0031297Y0147419D01*
X0031250Y0147302D01*
X0031200Y0147186D01*
X0031146Y0147072D01*
X0031088Y0146960D01*
X0031027Y0146849D01*
X0030963Y0146741D01*
X0030895Y0146634D01*
X0030824Y0146530D01*
X0030749Y0146428D01*
X0030671Y0146328D01*
X0030590Y0146231D01*
X0030507Y0146137D01*
X0030420Y0146045D01*
X0030330Y0145956D01*
X0030238Y0145870D01*
X0030143Y0145787D01*
X0030045Y0145707D01*
X0029945Y0145630D01*
X0029842Y0145556D01*
X0029737Y0145486D01*
X0029630Y0145419D01*
X0029521Y0145355D01*
X0029410Y0145295D01*
X0029298Y0145238D01*
X0029183Y0145185D01*
X0029067Y0145135D01*
X0028949Y0145090D01*
X0028830Y0145048D01*
X0028710Y0145009D01*
X0028588Y0144975D01*
X0028466Y0144944D01*
X0028342Y0144918D01*
X0028218Y0144895D01*
X0028093Y0144876D01*
X0027968Y0144861D01*
X0027842Y0144850D01*
X0027716Y0144843D01*
X0027590Y0144840D01*
X0027463Y0144841D01*
X0027337Y0144846D01*
X0027211Y0144855D01*
X0027085Y0144868D01*
X0026960Y0144885D01*
X0026836Y0144906D01*
X0026712Y0144930D01*
X0026589Y0144959D01*
X0026467Y0144992D01*
X0026346Y0145028D01*
X0026226Y0145068D01*
X0026108Y0145112D01*
X0025991Y0145160D01*
X0025875Y0145211D01*
X0025762Y0145266D01*
X0025650Y0145324D01*
X0025540Y0145386D01*
X0025432Y0145452D01*
X0025326Y0145521D01*
X0025222Y0145593D01*
X0025121Y0145668D01*
X0025022Y0145747D01*
X0024926Y0145828D01*
X0024832Y0145913D01*
X0024741Y0146000D01*
X0024653Y0146091D01*
X0024567Y0146184D01*
X0024485Y0146280D01*
X0024406Y0146378D01*
X0024329Y0146479D01*
X0024256Y0146582D01*
X0024187Y0146687D01*
X0024121Y0146795D01*
X0024058Y0146904D01*
X0023998Y0147016D01*
X0023942Y0147129D01*
X0023890Y0147244D01*
X0023842Y0147360D01*
X0023797Y0147479D01*
X0023756Y0147598D01*
X0023718Y0147719D01*
X0023685Y0147840D01*
X0023655Y0147963D01*
X0023630Y0148087D01*
X0023608Y0148211D01*
X0023590Y0148336D01*
X0023576Y0148462D01*
X0023566Y0148588D01*
X0023560Y0148714D01*
X0023558Y0148840D01*
X0104558Y0148840D02*
X0104560Y0148966D01*
X0104566Y0149092D01*
X0104576Y0149218D01*
X0104590Y0149344D01*
X0104608Y0149469D01*
X0104630Y0149593D01*
X0104655Y0149717D01*
X0104685Y0149840D01*
X0104718Y0149961D01*
X0104756Y0150082D01*
X0104797Y0150201D01*
X0104842Y0150320D01*
X0104890Y0150436D01*
X0104942Y0150551D01*
X0104998Y0150664D01*
X0105058Y0150776D01*
X0105121Y0150885D01*
X0105187Y0150993D01*
X0105256Y0151098D01*
X0105329Y0151201D01*
X0105406Y0151302D01*
X0105485Y0151400D01*
X0105567Y0151496D01*
X0105653Y0151589D01*
X0105741Y0151680D01*
X0105832Y0151767D01*
X0105926Y0151852D01*
X0106022Y0151933D01*
X0106121Y0152012D01*
X0106222Y0152087D01*
X0106326Y0152159D01*
X0106432Y0152228D01*
X0106540Y0152294D01*
X0106650Y0152356D01*
X0106762Y0152414D01*
X0106875Y0152469D01*
X0106991Y0152520D01*
X0107108Y0152568D01*
X0107226Y0152612D01*
X0107346Y0152652D01*
X0107467Y0152688D01*
X0107589Y0152721D01*
X0107712Y0152750D01*
X0107836Y0152774D01*
X0107960Y0152795D01*
X0108085Y0152812D01*
X0108211Y0152825D01*
X0108337Y0152834D01*
X0108463Y0152839D01*
X0108590Y0152840D01*
X0108716Y0152837D01*
X0108842Y0152830D01*
X0108968Y0152819D01*
X0109093Y0152804D01*
X0109218Y0152785D01*
X0109342Y0152762D01*
X0109466Y0152736D01*
X0109588Y0152705D01*
X0109710Y0152671D01*
X0109830Y0152632D01*
X0109949Y0152590D01*
X0110067Y0152545D01*
X0110183Y0152495D01*
X0110298Y0152442D01*
X0110410Y0152385D01*
X0110521Y0152325D01*
X0110630Y0152261D01*
X0110737Y0152194D01*
X0110842Y0152124D01*
X0110945Y0152050D01*
X0111045Y0151973D01*
X0111143Y0151893D01*
X0111238Y0151810D01*
X0111330Y0151724D01*
X0111420Y0151635D01*
X0111507Y0151543D01*
X0111590Y0151449D01*
X0111671Y0151352D01*
X0111749Y0151252D01*
X0111824Y0151150D01*
X0111895Y0151046D01*
X0111963Y0150939D01*
X0112027Y0150831D01*
X0112088Y0150720D01*
X0112146Y0150608D01*
X0112200Y0150494D01*
X0112250Y0150378D01*
X0112297Y0150261D01*
X0112340Y0150142D01*
X0112379Y0150022D01*
X0112415Y0149901D01*
X0112446Y0149778D01*
X0112474Y0149655D01*
X0112498Y0149531D01*
X0112518Y0149406D01*
X0112534Y0149281D01*
X0112546Y0149155D01*
X0112554Y0149029D01*
X0112558Y0148903D01*
X0112558Y0148777D01*
X0112554Y0148651D01*
X0112546Y0148525D01*
X0112534Y0148399D01*
X0112518Y0148274D01*
X0112498Y0148149D01*
X0112474Y0148025D01*
X0112446Y0147902D01*
X0112415Y0147779D01*
X0112379Y0147658D01*
X0112340Y0147538D01*
X0112297Y0147419D01*
X0112250Y0147302D01*
X0112200Y0147186D01*
X0112146Y0147072D01*
X0112088Y0146960D01*
X0112027Y0146849D01*
X0111963Y0146741D01*
X0111895Y0146634D01*
X0111824Y0146530D01*
X0111749Y0146428D01*
X0111671Y0146328D01*
X0111590Y0146231D01*
X0111507Y0146137D01*
X0111420Y0146045D01*
X0111330Y0145956D01*
X0111238Y0145870D01*
X0111143Y0145787D01*
X0111045Y0145707D01*
X0110945Y0145630D01*
X0110842Y0145556D01*
X0110737Y0145486D01*
X0110630Y0145419D01*
X0110521Y0145355D01*
X0110410Y0145295D01*
X0110298Y0145238D01*
X0110183Y0145185D01*
X0110067Y0145135D01*
X0109949Y0145090D01*
X0109830Y0145048D01*
X0109710Y0145009D01*
X0109588Y0144975D01*
X0109466Y0144944D01*
X0109342Y0144918D01*
X0109218Y0144895D01*
X0109093Y0144876D01*
X0108968Y0144861D01*
X0108842Y0144850D01*
X0108716Y0144843D01*
X0108590Y0144840D01*
X0108463Y0144841D01*
X0108337Y0144846D01*
X0108211Y0144855D01*
X0108085Y0144868D01*
X0107960Y0144885D01*
X0107836Y0144906D01*
X0107712Y0144930D01*
X0107589Y0144959D01*
X0107467Y0144992D01*
X0107346Y0145028D01*
X0107226Y0145068D01*
X0107108Y0145112D01*
X0106991Y0145160D01*
X0106875Y0145211D01*
X0106762Y0145266D01*
X0106650Y0145324D01*
X0106540Y0145386D01*
X0106432Y0145452D01*
X0106326Y0145521D01*
X0106222Y0145593D01*
X0106121Y0145668D01*
X0106022Y0145747D01*
X0105926Y0145828D01*
X0105832Y0145913D01*
X0105741Y0146000D01*
X0105653Y0146091D01*
X0105567Y0146184D01*
X0105485Y0146280D01*
X0105406Y0146378D01*
X0105329Y0146479D01*
X0105256Y0146582D01*
X0105187Y0146687D01*
X0105121Y0146795D01*
X0105058Y0146904D01*
X0104998Y0147016D01*
X0104942Y0147129D01*
X0104890Y0147244D01*
X0104842Y0147360D01*
X0104797Y0147479D01*
X0104756Y0147598D01*
X0104718Y0147719D01*
X0104685Y0147840D01*
X0104655Y0147963D01*
X0104630Y0148087D01*
X0104608Y0148211D01*
X0104590Y0148336D01*
X0104576Y0148462D01*
X0104566Y0148588D01*
X0104560Y0148714D01*
X0104558Y0148840D01*
X0144558Y0075840D02*
X0144560Y0075966D01*
X0144566Y0076092D01*
X0144576Y0076218D01*
X0144590Y0076344D01*
X0144608Y0076469D01*
X0144630Y0076593D01*
X0144655Y0076717D01*
X0144685Y0076840D01*
X0144718Y0076961D01*
X0144756Y0077082D01*
X0144797Y0077201D01*
X0144842Y0077320D01*
X0144890Y0077436D01*
X0144942Y0077551D01*
X0144998Y0077664D01*
X0145058Y0077776D01*
X0145121Y0077885D01*
X0145187Y0077993D01*
X0145256Y0078098D01*
X0145329Y0078201D01*
X0145406Y0078302D01*
X0145485Y0078400D01*
X0145567Y0078496D01*
X0145653Y0078589D01*
X0145741Y0078680D01*
X0145832Y0078767D01*
X0145926Y0078852D01*
X0146022Y0078933D01*
X0146121Y0079012D01*
X0146222Y0079087D01*
X0146326Y0079159D01*
X0146432Y0079228D01*
X0146540Y0079294D01*
X0146650Y0079356D01*
X0146762Y0079414D01*
X0146875Y0079469D01*
X0146991Y0079520D01*
X0147108Y0079568D01*
X0147226Y0079612D01*
X0147346Y0079652D01*
X0147467Y0079688D01*
X0147589Y0079721D01*
X0147712Y0079750D01*
X0147836Y0079774D01*
X0147960Y0079795D01*
X0148085Y0079812D01*
X0148211Y0079825D01*
X0148337Y0079834D01*
X0148463Y0079839D01*
X0148590Y0079840D01*
X0148716Y0079837D01*
X0148842Y0079830D01*
X0148968Y0079819D01*
X0149093Y0079804D01*
X0149218Y0079785D01*
X0149342Y0079762D01*
X0149466Y0079736D01*
X0149588Y0079705D01*
X0149710Y0079671D01*
X0149830Y0079632D01*
X0149949Y0079590D01*
X0150067Y0079545D01*
X0150183Y0079495D01*
X0150298Y0079442D01*
X0150410Y0079385D01*
X0150521Y0079325D01*
X0150630Y0079261D01*
X0150737Y0079194D01*
X0150842Y0079124D01*
X0150945Y0079050D01*
X0151045Y0078973D01*
X0151143Y0078893D01*
X0151238Y0078810D01*
X0151330Y0078724D01*
X0151420Y0078635D01*
X0151507Y0078543D01*
X0151590Y0078449D01*
X0151671Y0078352D01*
X0151749Y0078252D01*
X0151824Y0078150D01*
X0151895Y0078046D01*
X0151963Y0077939D01*
X0152027Y0077831D01*
X0152088Y0077720D01*
X0152146Y0077608D01*
X0152200Y0077494D01*
X0152250Y0077378D01*
X0152297Y0077261D01*
X0152340Y0077142D01*
X0152379Y0077022D01*
X0152415Y0076901D01*
X0152446Y0076778D01*
X0152474Y0076655D01*
X0152498Y0076531D01*
X0152518Y0076406D01*
X0152534Y0076281D01*
X0152546Y0076155D01*
X0152554Y0076029D01*
X0152558Y0075903D01*
X0152558Y0075777D01*
X0152554Y0075651D01*
X0152546Y0075525D01*
X0152534Y0075399D01*
X0152518Y0075274D01*
X0152498Y0075149D01*
X0152474Y0075025D01*
X0152446Y0074902D01*
X0152415Y0074779D01*
X0152379Y0074658D01*
X0152340Y0074538D01*
X0152297Y0074419D01*
X0152250Y0074302D01*
X0152200Y0074186D01*
X0152146Y0074072D01*
X0152088Y0073960D01*
X0152027Y0073849D01*
X0151963Y0073741D01*
X0151895Y0073634D01*
X0151824Y0073530D01*
X0151749Y0073428D01*
X0151671Y0073328D01*
X0151590Y0073231D01*
X0151507Y0073137D01*
X0151420Y0073045D01*
X0151330Y0072956D01*
X0151238Y0072870D01*
X0151143Y0072787D01*
X0151045Y0072707D01*
X0150945Y0072630D01*
X0150842Y0072556D01*
X0150737Y0072486D01*
X0150630Y0072419D01*
X0150521Y0072355D01*
X0150410Y0072295D01*
X0150298Y0072238D01*
X0150183Y0072185D01*
X0150067Y0072135D01*
X0149949Y0072090D01*
X0149830Y0072048D01*
X0149710Y0072009D01*
X0149588Y0071975D01*
X0149466Y0071944D01*
X0149342Y0071918D01*
X0149218Y0071895D01*
X0149093Y0071876D01*
X0148968Y0071861D01*
X0148842Y0071850D01*
X0148716Y0071843D01*
X0148590Y0071840D01*
X0148463Y0071841D01*
X0148337Y0071846D01*
X0148211Y0071855D01*
X0148085Y0071868D01*
X0147960Y0071885D01*
X0147836Y0071906D01*
X0147712Y0071930D01*
X0147589Y0071959D01*
X0147467Y0071992D01*
X0147346Y0072028D01*
X0147226Y0072068D01*
X0147108Y0072112D01*
X0146991Y0072160D01*
X0146875Y0072211D01*
X0146762Y0072266D01*
X0146650Y0072324D01*
X0146540Y0072386D01*
X0146432Y0072452D01*
X0146326Y0072521D01*
X0146222Y0072593D01*
X0146121Y0072668D01*
X0146022Y0072747D01*
X0145926Y0072828D01*
X0145832Y0072913D01*
X0145741Y0073000D01*
X0145653Y0073091D01*
X0145567Y0073184D01*
X0145485Y0073280D01*
X0145406Y0073378D01*
X0145329Y0073479D01*
X0145256Y0073582D01*
X0145187Y0073687D01*
X0145121Y0073795D01*
X0145058Y0073904D01*
X0144998Y0074016D01*
X0144942Y0074129D01*
X0144890Y0074244D01*
X0144842Y0074360D01*
X0144797Y0074479D01*
X0144756Y0074598D01*
X0144718Y0074719D01*
X0144685Y0074840D01*
X0144655Y0074963D01*
X0144630Y0075087D01*
X0144608Y0075211D01*
X0144590Y0075336D01*
X0144576Y0075462D01*
X0144566Y0075588D01*
X0144560Y0075714D01*
X0144558Y0075840D01*
X0146558Y0025840D02*
X0146560Y0025966D01*
X0146566Y0026092D01*
X0146576Y0026218D01*
X0146590Y0026344D01*
X0146608Y0026469D01*
X0146630Y0026593D01*
X0146655Y0026717D01*
X0146685Y0026840D01*
X0146718Y0026961D01*
X0146756Y0027082D01*
X0146797Y0027201D01*
X0146842Y0027320D01*
X0146890Y0027436D01*
X0146942Y0027551D01*
X0146998Y0027664D01*
X0147058Y0027776D01*
X0147121Y0027885D01*
X0147187Y0027993D01*
X0147256Y0028098D01*
X0147329Y0028201D01*
X0147406Y0028302D01*
X0147485Y0028400D01*
X0147567Y0028496D01*
X0147653Y0028589D01*
X0147741Y0028680D01*
X0147832Y0028767D01*
X0147926Y0028852D01*
X0148022Y0028933D01*
X0148121Y0029012D01*
X0148222Y0029087D01*
X0148326Y0029159D01*
X0148432Y0029228D01*
X0148540Y0029294D01*
X0148650Y0029356D01*
X0148762Y0029414D01*
X0148875Y0029469D01*
X0148991Y0029520D01*
X0149108Y0029568D01*
X0149226Y0029612D01*
X0149346Y0029652D01*
X0149467Y0029688D01*
X0149589Y0029721D01*
X0149712Y0029750D01*
X0149836Y0029774D01*
X0149960Y0029795D01*
X0150085Y0029812D01*
X0150211Y0029825D01*
X0150337Y0029834D01*
X0150463Y0029839D01*
X0150590Y0029840D01*
X0150716Y0029837D01*
X0150842Y0029830D01*
X0150968Y0029819D01*
X0151093Y0029804D01*
X0151218Y0029785D01*
X0151342Y0029762D01*
X0151466Y0029736D01*
X0151588Y0029705D01*
X0151710Y0029671D01*
X0151830Y0029632D01*
X0151949Y0029590D01*
X0152067Y0029545D01*
X0152183Y0029495D01*
X0152298Y0029442D01*
X0152410Y0029385D01*
X0152521Y0029325D01*
X0152630Y0029261D01*
X0152737Y0029194D01*
X0152842Y0029124D01*
X0152945Y0029050D01*
X0153045Y0028973D01*
X0153143Y0028893D01*
X0153238Y0028810D01*
X0153330Y0028724D01*
X0153420Y0028635D01*
X0153507Y0028543D01*
X0153590Y0028449D01*
X0153671Y0028352D01*
X0153749Y0028252D01*
X0153824Y0028150D01*
X0153895Y0028046D01*
X0153963Y0027939D01*
X0154027Y0027831D01*
X0154088Y0027720D01*
X0154146Y0027608D01*
X0154200Y0027494D01*
X0154250Y0027378D01*
X0154297Y0027261D01*
X0154340Y0027142D01*
X0154379Y0027022D01*
X0154415Y0026901D01*
X0154446Y0026778D01*
X0154474Y0026655D01*
X0154498Y0026531D01*
X0154518Y0026406D01*
X0154534Y0026281D01*
X0154546Y0026155D01*
X0154554Y0026029D01*
X0154558Y0025903D01*
X0154558Y0025777D01*
X0154554Y0025651D01*
X0154546Y0025525D01*
X0154534Y0025399D01*
X0154518Y0025274D01*
X0154498Y0025149D01*
X0154474Y0025025D01*
X0154446Y0024902D01*
X0154415Y0024779D01*
X0154379Y0024658D01*
X0154340Y0024538D01*
X0154297Y0024419D01*
X0154250Y0024302D01*
X0154200Y0024186D01*
X0154146Y0024072D01*
X0154088Y0023960D01*
X0154027Y0023849D01*
X0153963Y0023741D01*
X0153895Y0023634D01*
X0153824Y0023530D01*
X0153749Y0023428D01*
X0153671Y0023328D01*
X0153590Y0023231D01*
X0153507Y0023137D01*
X0153420Y0023045D01*
X0153330Y0022956D01*
X0153238Y0022870D01*
X0153143Y0022787D01*
X0153045Y0022707D01*
X0152945Y0022630D01*
X0152842Y0022556D01*
X0152737Y0022486D01*
X0152630Y0022419D01*
X0152521Y0022355D01*
X0152410Y0022295D01*
X0152298Y0022238D01*
X0152183Y0022185D01*
X0152067Y0022135D01*
X0151949Y0022090D01*
X0151830Y0022048D01*
X0151710Y0022009D01*
X0151588Y0021975D01*
X0151466Y0021944D01*
X0151342Y0021918D01*
X0151218Y0021895D01*
X0151093Y0021876D01*
X0150968Y0021861D01*
X0150842Y0021850D01*
X0150716Y0021843D01*
X0150590Y0021840D01*
X0150463Y0021841D01*
X0150337Y0021846D01*
X0150211Y0021855D01*
X0150085Y0021868D01*
X0149960Y0021885D01*
X0149836Y0021906D01*
X0149712Y0021930D01*
X0149589Y0021959D01*
X0149467Y0021992D01*
X0149346Y0022028D01*
X0149226Y0022068D01*
X0149108Y0022112D01*
X0148991Y0022160D01*
X0148875Y0022211D01*
X0148762Y0022266D01*
X0148650Y0022324D01*
X0148540Y0022386D01*
X0148432Y0022452D01*
X0148326Y0022521D01*
X0148222Y0022593D01*
X0148121Y0022668D01*
X0148022Y0022747D01*
X0147926Y0022828D01*
X0147832Y0022913D01*
X0147741Y0023000D01*
X0147653Y0023091D01*
X0147567Y0023184D01*
X0147485Y0023280D01*
X0147406Y0023378D01*
X0147329Y0023479D01*
X0147256Y0023582D01*
X0147187Y0023687D01*
X0147121Y0023795D01*
X0147058Y0023904D01*
X0146998Y0024016D01*
X0146942Y0024129D01*
X0146890Y0024244D01*
X0146842Y0024360D01*
X0146797Y0024479D01*
X0146756Y0024598D01*
X0146718Y0024719D01*
X0146685Y0024840D01*
X0146655Y0024963D01*
X0146630Y0025087D01*
X0146608Y0025211D01*
X0146590Y0025336D01*
X0146576Y0025462D01*
X0146566Y0025588D01*
X0146560Y0025714D01*
X0146558Y0025840D01*
D11*
X0027811Y0019540D02*
X0026313Y0019540D01*
X0027094Y0019055D01*
X0030191Y0018119D01*
X0030296Y0018363D01*
X0030296Y0018363D01*
X0033385Y0022284D01*
X0033385Y0022284D01*
X0037372Y0025287D01*
X0037372Y0025287D01*
X0041994Y0027172D01*
X0041994Y0027172D01*
X0046944Y0027815D01*
X0046944Y0027815D01*
X0051894Y0027172D01*
X0051894Y0027172D01*
X0056515Y0025287D01*
X0056515Y0025287D01*
X0060503Y0022284D01*
X0060503Y0022284D01*
X0063591Y0018363D01*
X0063591Y0018363D01*
X0063774Y0017940D01*
X0141558Y0017940D01*
X0143450Y0018046D01*
X0147140Y0018889D01*
X0148868Y0019721D01*
X0146989Y0020499D01*
X0145217Y0022272D01*
X0144258Y0024587D01*
X0144258Y0027093D01*
X0145217Y0029409D01*
X0146989Y0031181D01*
X0149305Y0032140D01*
X0151811Y0032140D01*
X0154127Y0031181D01*
X0155899Y0029409D01*
X0156677Y0027530D01*
X0157509Y0029258D01*
X0158352Y0032948D01*
X0158458Y0034840D01*
X0158458Y0052396D01*
X0158038Y0052578D01*
X0158038Y0052578D01*
X0154222Y0055787D01*
X0154222Y0055787D01*
X0151486Y0059956D01*
X0151486Y0059956D01*
X0150058Y0064733D01*
X0150058Y0069642D01*
X0149811Y0069540D01*
X0147305Y0069540D01*
X0144989Y0070499D01*
X0143217Y0072272D01*
X0142258Y0074587D01*
X0142258Y0077093D01*
X0143217Y0079409D01*
X0144989Y0081181D01*
X0147305Y0082140D01*
X0149811Y0082140D01*
X0152127Y0081181D01*
X0153899Y0079409D01*
X0154213Y0078650D01*
X0154222Y0078665D01*
X0154222Y0078665D01*
X0154222Y0078665D01*
X0158038Y0081874D01*
X0158458Y0082056D01*
X0158458Y0121206D01*
X0157961Y0120708D01*
X0154113Y0124556D01*
X0154113Y0124556D01*
X0157961Y0120708D01*
X0157097Y0119845D01*
X0156687Y0119608D01*
X0156229Y0119485D01*
X0156172Y0119485D01*
X0155129Y0118442D01*
X0155484Y0118090D01*
X0156105Y0118090D01*
X0157116Y0117671D01*
X0157889Y0116898D01*
X0158308Y0115887D01*
X0158308Y0114793D01*
X0157889Y0113782D01*
X0157116Y0113009D01*
X0156458Y0112736D01*
X0156458Y0099900D01*
X0156426Y0099868D01*
X0156426Y0096441D01*
X0156102Y0096117D01*
X0156132Y0096099D01*
X0156467Y0095764D01*
X0156704Y0095354D01*
X0156826Y0094896D01*
X0156826Y0092678D01*
X0153242Y0092678D01*
X0153242Y0092309D01*
X0153242Y0088528D01*
X0155263Y0088528D01*
X0155721Y0088651D01*
X0156132Y0088888D01*
X0156467Y0089223D01*
X0156704Y0089634D01*
X0156826Y0090091D01*
X0156826Y0092309D01*
X0153242Y0092309D01*
X0152874Y0092309D01*
X0152874Y0088528D01*
X0150852Y0088528D01*
X0150395Y0088651D01*
X0149984Y0088888D01*
X0149649Y0089223D01*
X0149412Y0089634D01*
X0149289Y0090091D01*
X0149289Y0092309D01*
X0152874Y0092309D01*
X0152874Y0092678D01*
X0149289Y0092678D01*
X0149289Y0092885D01*
X0136157Y0079752D01*
X0140106Y0079752D01*
X0140926Y0078932D01*
X0140926Y0073441D01*
X0140602Y0073117D01*
X0140632Y0073099D01*
X0140967Y0072764D01*
X0141204Y0072354D01*
X0141326Y0071896D01*
X0141326Y0069678D01*
X0137742Y0069678D01*
X0137742Y0069309D01*
X0137742Y0065528D01*
X0139763Y0065528D01*
X0140221Y0065651D01*
X0140632Y0065888D01*
X0140967Y0066223D01*
X0141204Y0066634D01*
X0141326Y0067091D01*
X0141326Y0069309D01*
X0137742Y0069309D01*
X0137374Y0069309D01*
X0137374Y0065528D01*
X0135352Y0065528D01*
X0134895Y0065651D01*
X0134484Y0065888D01*
X0134149Y0066223D01*
X0133912Y0066634D01*
X0133789Y0067091D01*
X0133789Y0069309D01*
X0137374Y0069309D01*
X0137374Y0069678D01*
X0133789Y0069678D01*
X0133789Y0071896D01*
X0133912Y0072354D01*
X0134149Y0072764D01*
X0134484Y0073099D01*
X0134514Y0073117D01*
X0134189Y0073441D01*
X0134189Y0074522D01*
X0132621Y0076090D01*
X0132011Y0076090D01*
X0131000Y0076509D01*
X0130227Y0077282D01*
X0129808Y0078293D01*
X0129808Y0079387D01*
X0130037Y0079940D01*
X0128345Y0079940D01*
X0128131Y0079727D01*
X0128926Y0078932D01*
X0128926Y0073441D01*
X0128602Y0073117D01*
X0128632Y0073099D01*
X0128967Y0072764D01*
X0129204Y0072354D01*
X0129326Y0071896D01*
X0129326Y0069678D01*
X0125742Y0069678D01*
X0125742Y0069309D01*
X0125742Y0065528D01*
X0127763Y0065528D01*
X0128221Y0065651D01*
X0128632Y0065888D01*
X0128967Y0066223D01*
X0129204Y0066634D01*
X0129326Y0067091D01*
X0129326Y0069309D01*
X0125742Y0069309D01*
X0125374Y0069309D01*
X0125374Y0065528D01*
X0123352Y0065528D01*
X0122895Y0065651D01*
X0122484Y0065888D01*
X0122149Y0066223D01*
X0121912Y0066634D01*
X0121789Y0067091D01*
X0121789Y0069309D01*
X0125374Y0069309D01*
X0125374Y0069678D01*
X0121789Y0069678D01*
X0121789Y0071896D01*
X0121912Y0072354D01*
X0122149Y0072764D01*
X0122484Y0073099D01*
X0122514Y0073117D01*
X0122189Y0073441D01*
X0122189Y0078932D01*
X0123009Y0079752D01*
X0123658Y0079752D01*
X0123658Y0080627D01*
X0125658Y0082627D01*
X0125658Y0082627D01*
X0126771Y0083740D01*
X0130771Y0083740D01*
X0131070Y0084039D01*
X0130947Y0084110D01*
X0129518Y0085540D01*
X0132191Y0088213D01*
X0131931Y0088474D01*
X0129397Y0091008D01*
X0127828Y0089440D01*
X0127591Y0089029D01*
X0127468Y0088572D01*
X0127468Y0088098D01*
X0127591Y0087640D01*
X0127828Y0087229D01*
X0129257Y0085800D01*
X0131931Y0088474D01*
X0132191Y0088734D01*
X0129657Y0091269D01*
X0131225Y0092837D01*
X0131636Y0093074D01*
X0132094Y0093197D01*
X0132568Y0093197D01*
X0132601Y0093188D01*
X0132601Y0093647D01*
X0136483Y0097530D01*
X0137643Y0097530D01*
X0138102Y0097071D01*
X0138771Y0097740D01*
X0139569Y0097740D01*
X0139658Y0097829D01*
X0139658Y0102971D01*
X0139033Y0102347D01*
X0137085Y0100398D01*
X0135136Y0098449D01*
X0133187Y0096501D01*
X0131238Y0094552D01*
X0129290Y0092603D01*
X0129290Y0092603D01*
X0127341Y0090654D01*
X0125392Y0088706D01*
X0124233Y0088706D01*
X0120753Y0092185D01*
X0120644Y0091777D01*
X0120407Y0091367D01*
X0117664Y0088624D01*
X0115695Y0090593D01*
X0115695Y0090593D01*
X0111847Y0086745D01*
X0110984Y0087609D01*
X0110747Y0088019D01*
X0110624Y0088477D01*
X0110624Y0088534D01*
X0109075Y0090083D01*
X0107127Y0092031D01*
X0105178Y0093980D01*
X0103229Y0095929D01*
X0101281Y0097877D01*
X0099332Y0099826D01*
X0097383Y0101775D01*
X0095434Y0103724D01*
X0093486Y0105672D01*
X0092958Y0106200D01*
X0092958Y0101334D01*
X0111417Y0082875D01*
X0111417Y0082875D01*
X0112092Y0082200D01*
X0112458Y0081318D01*
X0112458Y0047391D01*
X0112476Y0046965D01*
X0112458Y0046915D01*
X0112458Y0046863D01*
X0112295Y0046469D01*
X0112148Y0046068D01*
X0112113Y0046029D01*
X0112092Y0045981D01*
X0111791Y0045679D01*
X0107607Y0041126D01*
X0110715Y0038017D01*
X0110715Y0036857D01*
X0095697Y0021839D01*
X0094538Y0021839D01*
X0086758Y0029619D01*
X0086758Y0030779D01*
X0101776Y0045797D01*
X0102936Y0045797D01*
X0104210Y0044523D01*
X0107658Y0048275D01*
X0107658Y0079846D01*
X0089198Y0098306D01*
X0089198Y0098306D01*
X0088523Y0098981D01*
X0088158Y0099863D01*
X0088158Y0100931D01*
X0087889Y0100282D01*
X0087116Y0099509D01*
X0086105Y0099090D01*
X0085011Y0099090D01*
X0084000Y0099509D01*
X0083569Y0099940D01*
X0080547Y0099940D01*
X0080520Y0099913D01*
X0080965Y0099744D01*
X0082996Y0098831D01*
X0084967Y0097796D01*
X0086872Y0096644D01*
X0088704Y0095380D01*
X0090457Y0094007D01*
X0092123Y0092530D01*
X0092345Y0092309D01*
X0066861Y0066825D01*
X0065730Y0065694D01*
X0040246Y0091177D01*
X0040025Y0090956D01*
X0038548Y0089290D01*
X0037175Y0087537D01*
X0035911Y0085705D01*
X0034759Y0083799D01*
X0033724Y0081828D01*
X0032810Y0079798D01*
X0032021Y0077716D01*
X0031359Y0075591D01*
X0030826Y0073429D01*
X0030425Y0071239D01*
X0030156Y0069029D01*
X0030022Y0066807D01*
X0030022Y0064581D01*
X0030156Y0062358D01*
X0030425Y0060148D01*
X0030826Y0057958D01*
X0031359Y0055797D01*
X0032021Y0053671D01*
X0032810Y0051589D01*
X0033724Y0049559D01*
X0034759Y0047588D01*
X0035911Y0045683D01*
X0037175Y0043850D01*
X0038548Y0042098D01*
X0040025Y0040431D01*
X0040246Y0040210D01*
X0065730Y0065694D01*
X0066861Y0064562D01*
X0041377Y0039079D01*
X0041599Y0038857D01*
X0043265Y0037381D01*
X0045018Y0036008D01*
X0046850Y0034743D01*
X0048755Y0033591D01*
X0050727Y0032557D01*
X0052757Y0031643D01*
X0054839Y0030854D01*
X0056964Y0030191D01*
X0059126Y0029658D01*
X0061316Y0029257D01*
X0063526Y0028989D01*
X0065748Y0028854D01*
X0067974Y0028854D01*
X0070197Y0028989D01*
X0072407Y0029257D01*
X0074597Y0029658D01*
X0076758Y0030191D01*
X0078884Y0030854D01*
X0080965Y0031643D01*
X0082996Y0032557D01*
X0084967Y0033591D01*
X0086872Y0034743D01*
X0088704Y0036008D01*
X0090457Y0037381D01*
X0092123Y0038857D01*
X0092345Y0039079D01*
X0066861Y0064562D01*
X0067993Y0065694D01*
X0066861Y0066825D01*
X0041377Y0092309D01*
X0041599Y0092530D01*
X0043265Y0094007D01*
X0045018Y0095380D01*
X0046850Y0096644D01*
X0048755Y0097796D01*
X0050727Y0098831D01*
X0052757Y0099744D01*
X0054839Y0100534D01*
X0056964Y0101196D01*
X0059126Y0101729D01*
X0061316Y0102130D01*
X0063526Y0102399D01*
X0065748Y0102533D01*
X0067974Y0102533D01*
X0070197Y0102399D01*
X0072407Y0102130D01*
X0074597Y0101729D01*
X0075808Y0101430D01*
X0075808Y0102387D01*
X0076227Y0103398D01*
X0077000Y0104171D01*
X0078011Y0104590D01*
X0079105Y0104590D01*
X0080116Y0104171D01*
X0080547Y0103740D01*
X0083569Y0103740D01*
X0084000Y0104171D01*
X0085011Y0104590D01*
X0086105Y0104590D01*
X0087116Y0104171D01*
X0087889Y0103398D01*
X0088158Y0102749D01*
X0088158Y0105440D01*
X0086080Y0105440D01*
X0085198Y0105806D01*
X0084558Y0106446D01*
X0083917Y0105806D01*
X0083035Y0105440D01*
X0046052Y0105440D01*
X0044672Y0104060D01*
X0046964Y0101768D01*
X0046964Y0100608D01*
X0031947Y0085590D01*
X0030787Y0085590D01*
X0023007Y0093370D01*
X0023007Y0094530D01*
X0038025Y0109548D01*
X0039185Y0109548D01*
X0041278Y0107454D01*
X0043023Y0109200D01*
X0043698Y0109875D01*
X0044580Y0110240D01*
X0080764Y0110240D01*
X0077853Y0113151D01*
X0077483Y0113151D01*
X0073601Y0117033D01*
X0073601Y0117492D01*
X0073568Y0117483D01*
X0073094Y0117483D01*
X0072636Y0117606D01*
X0072225Y0117843D01*
X0070657Y0119411D01*
X0073191Y0121946D01*
X0072931Y0122206D01*
X0070396Y0119672D01*
X0068828Y0121240D01*
X0068591Y0121651D01*
X0068468Y0122109D01*
X0068468Y0122583D01*
X0068591Y0123040D01*
X0068828Y0123451D01*
X0070257Y0124880D01*
X0072931Y0122206D01*
X0073191Y0122467D01*
X0070908Y0124751D01*
X0070815Y0124751D01*
X0070358Y0124873D01*
X0069947Y0125110D01*
X0068518Y0126540D01*
X0071191Y0129213D01*
X0070931Y0129474D01*
X0068397Y0132008D01*
X0066828Y0130440D01*
X0066591Y0130029D01*
X0066468Y0129572D01*
X0066468Y0129098D01*
X0066591Y0128640D01*
X0066828Y0128229D01*
X0068257Y0126800D01*
X0070931Y0129474D01*
X0071191Y0129734D01*
X0068657Y0132269D01*
X0070225Y0133837D01*
X0070636Y0134074D01*
X0071094Y0134197D01*
X0071568Y0134197D01*
X0071601Y0134188D01*
X0071601Y0134647D01*
X0075483Y0138530D01*
X0076643Y0138530D01*
X0077966Y0137206D01*
X0078060Y0137206D01*
X0079232Y0136035D01*
X0079232Y0135995D01*
X0080386Y0134840D01*
X0080427Y0134840D01*
X0081858Y0133409D01*
X0082385Y0133936D01*
X0083544Y0133936D01*
X0087740Y0129740D01*
X0095575Y0129740D01*
X0094151Y0131164D01*
X0092731Y0129744D01*
X0091571Y0129744D01*
X0085462Y0135854D01*
X0085462Y0137013D01*
X0085989Y0137540D01*
X0084631Y0138899D01*
X0084121Y0139217D01*
X0084064Y0139465D01*
X0083884Y0139645D01*
X0083884Y0139739D01*
X0080868Y0142755D01*
X0080868Y0143915D01*
X0084751Y0147797D01*
X0085210Y0147797D01*
X0085201Y0147830D01*
X0085201Y0148304D01*
X0085324Y0148762D01*
X0085561Y0149173D01*
X0087129Y0150741D01*
X0089664Y0148206D01*
X0089924Y0148467D01*
X0087390Y0151001D01*
X0088958Y0152570D01*
X0089369Y0152807D01*
X0089826Y0152930D01*
X0090300Y0152930D01*
X0090758Y0152807D01*
X0091169Y0152570D01*
X0092598Y0151141D01*
X0089924Y0148467D01*
X0090185Y0148206D01*
X0092858Y0150880D01*
X0094058Y0149681D01*
X0094947Y0150570D01*
X0095358Y0150807D01*
X0095815Y0150930D01*
X0096289Y0150930D01*
X0096747Y0150807D01*
X0097158Y0150570D01*
X0098726Y0149001D01*
X0096192Y0146467D01*
X0096452Y0146207D01*
X0098987Y0148741D01*
X0100555Y0147173D01*
X0100792Y0146762D01*
X0100915Y0146304D01*
X0100915Y0145830D01*
X0100906Y0145797D01*
X0101365Y0145797D01*
X0102679Y0144483D01*
X0104006Y0144483D01*
X0103217Y0145272D01*
X0102258Y0147587D01*
X0102258Y0150093D01*
X0103217Y0152409D01*
X0104989Y0154181D01*
X0107305Y0155140D01*
X0109811Y0155140D01*
X0112127Y0154181D01*
X0113899Y0152409D01*
X0114858Y0150093D01*
X0114858Y0147587D01*
X0113899Y0145272D01*
X0112127Y0143499D01*
X0111537Y0143255D01*
X0114668Y0140125D01*
X0114691Y0140068D01*
X0117304Y0137455D01*
X0117304Y0136295D01*
X0115092Y0134083D01*
X0113143Y0132134D01*
X0111195Y0130186D01*
X0109246Y0128237D01*
X0107297Y0126288D01*
X0105348Y0124339D01*
X0103400Y0122391D01*
X0101714Y0120705D01*
X0101714Y0120705D01*
X0099502Y0118493D01*
X0099502Y0118493D01*
X0097553Y0116545D01*
X0097261Y0116545D01*
X0097382Y0116094D01*
X0097382Y0116037D01*
X0098667Y0114751D01*
X0100616Y0112802D01*
X0102564Y0110854D01*
X0104513Y0108905D01*
X0106462Y0106956D01*
X0108411Y0105008D01*
X0110359Y0103059D01*
X0112308Y0101110D01*
X0114257Y0099161D01*
X0116205Y0097213D01*
X0117754Y0095664D01*
X0117811Y0095664D01*
X0118262Y0095543D01*
X0118262Y0095836D01*
X0120211Y0097785D01*
X0122423Y0099997D01*
X0122423Y0099997D01*
X0124108Y0101682D01*
X0126057Y0103631D01*
X0128006Y0105579D01*
X0129955Y0107528D01*
X0131903Y0109477D01*
X0133852Y0111426D01*
X0135569Y0113142D01*
X0129771Y0118940D01*
X0128658Y0120053D01*
X0128658Y0137851D01*
X0128227Y0138282D01*
X0127808Y0139293D01*
X0127808Y0140387D01*
X0128227Y0141398D01*
X0129000Y0142171D01*
X0130011Y0142590D01*
X0131105Y0142590D01*
X0132116Y0142171D01*
X0132889Y0141398D01*
X0133224Y0140590D01*
X0134105Y0140590D01*
X0135116Y0140171D01*
X0135889Y0139398D01*
X0136308Y0138387D01*
X0136308Y0137293D01*
X0135889Y0136282D01*
X0135458Y0135851D01*
X0135458Y0122627D01*
X0140256Y0117829D01*
X0141647Y0119220D01*
X0143596Y0121169D01*
X0145808Y0123381D01*
X0145808Y0123381D01*
X0147756Y0125330D01*
X0147756Y0125330D01*
X0149042Y0126615D01*
X0149042Y0126672D01*
X0149164Y0127130D01*
X0149401Y0127541D01*
X0150265Y0128404D01*
X0154113Y0124556D01*
X0154113Y0124556D01*
X0150265Y0128404D01*
X0150985Y0129124D01*
X0130654Y0149079D01*
X0130122Y0148547D01*
X0129092Y0149577D01*
X0129091Y0149578D01*
X0130122Y0148547D01*
X0129258Y0147684D01*
X0129118Y0147603D01*
X0129037Y0147462D01*
X0128173Y0146599D01*
X0127143Y0147629D01*
X0127142Y0147629D01*
X0128173Y0146598D01*
X0127310Y0145735D01*
X0126899Y0145498D01*
X0126441Y0145375D01*
X0125967Y0145375D01*
X0125510Y0145498D01*
X0125099Y0145735D01*
X0122357Y0148478D01*
X0124325Y0150446D01*
X0124325Y0150446D01*
X0122356Y0148478D01*
X0119614Y0151220D01*
X0119377Y0151631D01*
X0119254Y0152089D01*
X0119254Y0152563D01*
X0119377Y0153020D01*
X0119614Y0153431D01*
X0120477Y0154294D01*
X0121508Y0153264D01*
X0121508Y0153264D01*
X0120477Y0154294D01*
X0121341Y0155158D01*
X0121481Y0155239D01*
X0121563Y0155379D01*
X0122426Y0156243D01*
X0123456Y0155213D01*
X0123457Y0155212D01*
X0122426Y0156243D01*
X0122886Y0156703D01*
X0122848Y0156740D01*
X0084774Y0156740D01*
X0084592Y0156320D01*
X0084592Y0156320D01*
X0081382Y0152504D01*
X0081382Y0152504D01*
X0077214Y0149768D01*
X0077214Y0149768D01*
X0072437Y0148340D01*
X0067451Y0148340D01*
X0062673Y0149768D01*
X0062673Y0149768D01*
X0059618Y0151773D01*
X0059858Y0151195D01*
X0059858Y0149485D01*
X0059203Y0147904D01*
X0057994Y0146695D01*
X0057137Y0146340D01*
X0057994Y0145986D01*
X0059203Y0144776D01*
X0059858Y0143195D01*
X0059858Y0141485D01*
X0059203Y0139904D01*
X0057994Y0138695D01*
X0056413Y0138040D01*
X0054703Y0138040D01*
X0053122Y0138695D01*
X0051912Y0139904D01*
X0051605Y0140648D01*
X0051535Y0140619D01*
X0050888Y0140490D01*
X0050558Y0140490D01*
X0050558Y0143840D01*
X0050558Y0143840D01*
X0050558Y0140490D01*
X0050228Y0140490D01*
X0049581Y0140619D01*
X0048971Y0140871D01*
X0048422Y0141238D01*
X0047956Y0141705D01*
X0047811Y0141921D01*
X0047229Y0141339D01*
X0046145Y0140890D01*
X0044971Y0140890D01*
X0043887Y0141339D01*
X0043058Y0142168D01*
X0042774Y0141885D01*
X0042458Y0138720D01*
X0042458Y0138363D01*
X0042411Y0138249D01*
X0042398Y0138126D01*
X0042229Y0137811D01*
X0042092Y0137481D01*
X0042005Y0137394D01*
X0041947Y0137285D01*
X0041670Y0137058D01*
X0041417Y0136806D01*
X0041409Y0136802D01*
X0041116Y0136509D01*
X0040105Y0136090D01*
X0039011Y0136090D01*
X0038000Y0136509D01*
X0037227Y0137282D01*
X0036808Y0138293D01*
X0036808Y0139387D01*
X0037227Y0140398D01*
X0037866Y0141037D01*
X0037994Y0142321D01*
X0037862Y0142640D01*
X0036413Y0142040D01*
X0034703Y0142040D01*
X0033122Y0142695D01*
X0031912Y0143904D01*
X0031801Y0144174D01*
X0031127Y0143499D01*
X0028811Y0142540D01*
X0026305Y0142540D01*
X0023989Y0143499D01*
X0022217Y0145272D01*
X0021439Y0147151D01*
X0020606Y0145422D01*
X0019764Y0141732D01*
X0019658Y0139840D01*
X0019658Y0063056D01*
X0020080Y0062873D01*
X0020080Y0062873D01*
X0024002Y0059785D01*
X0024002Y0059785D01*
X0024002Y0059785D01*
X0027005Y0055798D01*
X0027005Y0055798D01*
X0028890Y0051176D01*
X0028890Y0051176D01*
X0029533Y0046226D01*
X0029533Y0046226D01*
X0028890Y0041276D01*
X0028890Y0041276D01*
X0027005Y0036654D01*
X0027005Y0036654D01*
X0024002Y0032667D01*
X0024002Y0032667D01*
X0024002Y0032667D01*
X0020080Y0029579D01*
X0020080Y0029579D01*
X0019709Y0029418D01*
X0019712Y0029336D01*
X0020258Y0027005D01*
X0020258Y0027093D01*
X0021217Y0029409D01*
X0022989Y0031181D01*
X0025305Y0032140D01*
X0027811Y0032140D01*
X0030127Y0031181D01*
X0031899Y0029409D01*
X0032858Y0027093D01*
X0032858Y0024587D01*
X0031899Y0022272D01*
X0030127Y0020499D01*
X0027811Y0019540D01*
X0028042Y0019636D02*
X0031299Y0019636D01*
X0030861Y0021234D02*
X0032558Y0021234D01*
X0033385Y0022284D02*
X0033385Y0022284D01*
X0034113Y0022833D02*
X0032131Y0022833D01*
X0032793Y0024431D02*
X0036236Y0024431D01*
X0039193Y0026030D02*
X0032858Y0026030D01*
X0032636Y0027628D02*
X0045506Y0027628D01*
X0048381Y0027628D02*
X0088749Y0027628D01*
X0090347Y0026030D02*
X0054695Y0026030D01*
X0057652Y0024431D02*
X0091946Y0024431D01*
X0093544Y0022833D02*
X0059774Y0022833D01*
X0060503Y0022284D02*
X0060503Y0022284D01*
X0061330Y0021234D02*
X0146254Y0021234D01*
X0144984Y0022833D02*
X0096691Y0022833D01*
X0098289Y0024431D02*
X0144322Y0024431D01*
X0144258Y0026030D02*
X0099888Y0026030D01*
X0101486Y0027628D02*
X0144479Y0027628D01*
X0145142Y0029227D02*
X0103085Y0029227D01*
X0104683Y0030825D02*
X0146633Y0030825D01*
X0161558Y0034840D02*
X0161552Y0034357D01*
X0161535Y0033874D01*
X0161505Y0033391D01*
X0161465Y0032910D01*
X0161412Y0032429D01*
X0161348Y0031950D01*
X0161273Y0031473D01*
X0161185Y0030997D01*
X0161087Y0030524D01*
X0160977Y0030054D01*
X0160856Y0029586D01*
X0160723Y0029121D01*
X0160579Y0028660D01*
X0160424Y0028202D01*
X0160258Y0027748D01*
X0160081Y0027298D01*
X0159894Y0026853D01*
X0159695Y0026412D01*
X0159487Y0025976D01*
X0159267Y0025546D01*
X0159037Y0025120D01*
X0158797Y0024701D01*
X0158547Y0024287D01*
X0158287Y0023880D01*
X0158018Y0023479D01*
X0157738Y0023084D01*
X0157450Y0022697D01*
X0157151Y0022316D01*
X0156844Y0021943D01*
X0156528Y0021578D01*
X0156203Y0021220D01*
X0155870Y0020870D01*
X0155528Y0020528D01*
X0155178Y0020195D01*
X0154820Y0019870D01*
X0154455Y0019554D01*
X0154082Y0019247D01*
X0153701Y0018948D01*
X0153314Y0018660D01*
X0152919Y0018380D01*
X0152518Y0018111D01*
X0152111Y0017851D01*
X0151697Y0017601D01*
X0151278Y0017361D01*
X0150852Y0017131D01*
X0150422Y0016911D01*
X0149986Y0016703D01*
X0149545Y0016504D01*
X0149100Y0016317D01*
X0148650Y0016140D01*
X0148196Y0015974D01*
X0147738Y0015819D01*
X0147277Y0015675D01*
X0146812Y0015542D01*
X0146344Y0015421D01*
X0145874Y0015311D01*
X0145401Y0015213D01*
X0144925Y0015125D01*
X0144448Y0015050D01*
X0143969Y0014986D01*
X0143488Y0014933D01*
X0143007Y0014893D01*
X0142524Y0014863D01*
X0142041Y0014846D01*
X0141558Y0014840D01*
X0061739Y0014840D01*
X0063732Y0018037D02*
X0143286Y0018037D01*
X0148691Y0019636D02*
X0062589Y0019636D01*
X0061566Y0029227D02*
X0031974Y0029227D01*
X0031806Y0014841D02*
X0031426Y0014858D01*
X0031046Y0014883D01*
X0030667Y0014919D01*
X0030288Y0014963D01*
X0029911Y0015016D01*
X0029536Y0015078D01*
X0029162Y0015150D01*
X0028790Y0015230D01*
X0028420Y0015320D01*
X0028052Y0015418D01*
X0027686Y0015525D01*
X0027324Y0015641D01*
X0026964Y0015766D01*
X0026607Y0015900D01*
X0026254Y0016042D01*
X0025904Y0016192D01*
X0025558Y0016351D01*
X0025216Y0016518D01*
X0024878Y0016694D01*
X0024545Y0016877D01*
X0024216Y0017069D01*
X0023891Y0017268D01*
X0023572Y0017475D01*
X0023258Y0017690D01*
X0022949Y0017913D01*
X0022645Y0018142D01*
X0022347Y0018380D01*
X0022055Y0018624D01*
X0021769Y0018875D01*
X0021489Y0019133D01*
X0021215Y0019398D01*
X0020948Y0019669D01*
X0020687Y0019947D01*
X0020434Y0020230D01*
X0020187Y0020520D01*
X0019947Y0020816D01*
X0019715Y0021118D01*
X0019489Y0021425D01*
X0019272Y0021737D01*
X0019062Y0022055D01*
X0018859Y0022377D01*
X0018665Y0022704D01*
X0018478Y0023036D01*
X0018300Y0023373D01*
X0018129Y0023713D01*
X0017967Y0024058D01*
X0017814Y0024406D01*
X0017669Y0024758D01*
X0017532Y0025114D01*
X0017404Y0025472D01*
X0017285Y0025834D01*
X0017174Y0026198D01*
X0017073Y0026565D01*
X0016980Y0026934D01*
X0016896Y0027306D01*
X0016821Y0027679D01*
X0016755Y0028054D01*
X0016699Y0028431D01*
X0016651Y0028808D01*
X0016612Y0029187D01*
X0016583Y0029567D01*
X0016563Y0029947D01*
X0016552Y0030328D01*
X0016550Y0030708D01*
X0016558Y0031089D01*
X0016558Y0031431D01*
X0019738Y0029227D02*
X0021142Y0029227D01*
X0021663Y0030825D02*
X0022633Y0030825D01*
X0023693Y0032424D02*
X0051022Y0032424D01*
X0048043Y0034022D02*
X0025023Y0034022D01*
X0026226Y0035621D02*
X0045579Y0035621D01*
X0043472Y0037219D02*
X0027235Y0037219D01*
X0027887Y0038818D02*
X0041643Y0038818D01*
X0042715Y0040416D02*
X0040452Y0040416D01*
X0040040Y0040416D02*
X0028539Y0040416D01*
X0028986Y0042015D02*
X0038622Y0042015D01*
X0037361Y0043613D02*
X0029193Y0043613D01*
X0029401Y0045212D02*
X0036236Y0045212D01*
X0035229Y0046810D02*
X0029457Y0046810D01*
X0029249Y0048409D02*
X0034328Y0048409D01*
X0033522Y0050007D02*
X0029042Y0050007D01*
X0028715Y0051606D02*
X0032804Y0051606D01*
X0032198Y0053204D02*
X0028063Y0053204D01*
X0027410Y0054803D02*
X0031668Y0054803D01*
X0031210Y0056401D02*
X0026550Y0056401D01*
X0025346Y0058000D02*
X0030818Y0058000D01*
X0030525Y0059598D02*
X0024142Y0059598D01*
X0022209Y0061197D02*
X0030297Y0061197D01*
X0030130Y0062796D02*
X0020179Y0062796D01*
X0019658Y0064394D02*
X0030033Y0064394D01*
X0030022Y0065993D02*
X0019658Y0065993D01*
X0019658Y0067591D02*
X0030069Y0067591D01*
X0030176Y0069190D02*
X0019658Y0069190D01*
X0019658Y0070788D02*
X0030370Y0070788D01*
X0030635Y0072387D02*
X0019658Y0072387D01*
X0019658Y0073985D02*
X0030963Y0073985D01*
X0031357Y0075584D02*
X0019658Y0075584D01*
X0019658Y0077182D02*
X0031855Y0077182D01*
X0032425Y0078781D02*
X0019658Y0078781D01*
X0019658Y0080379D02*
X0033072Y0080379D01*
X0033803Y0081978D02*
X0019658Y0081978D01*
X0019658Y0083576D02*
X0034642Y0083576D01*
X0035590Y0085175D02*
X0019658Y0085175D01*
X0019658Y0086773D02*
X0029604Y0086773D01*
X0028005Y0088372D02*
X0019658Y0088372D01*
X0019658Y0089970D02*
X0026407Y0089970D01*
X0024808Y0091569D02*
X0019658Y0091569D01*
X0019658Y0093167D02*
X0023210Y0093167D01*
X0023243Y0094766D02*
X0019658Y0094766D01*
X0019658Y0096364D02*
X0024841Y0096364D01*
X0026440Y0097963D02*
X0019658Y0097963D01*
X0019658Y0099561D02*
X0028038Y0099561D01*
X0029637Y0101160D02*
X0019658Y0101160D01*
X0019658Y0102758D02*
X0031235Y0102758D01*
X0032834Y0104357D02*
X0019658Y0104357D01*
X0019658Y0105955D02*
X0034432Y0105955D01*
X0036031Y0107554D02*
X0019658Y0107554D01*
X0019658Y0109152D02*
X0037629Y0109152D01*
X0039580Y0109152D02*
X0042976Y0109152D01*
X0041377Y0107554D02*
X0041179Y0107554D01*
X0044969Y0104357D02*
X0077447Y0104357D01*
X0075962Y0102758D02*
X0045974Y0102758D01*
X0046964Y0101160D02*
X0056847Y0101160D01*
X0052350Y0099561D02*
X0045917Y0099561D01*
X0044319Y0097963D02*
X0049073Y0097963D01*
X0046444Y0096364D02*
X0042720Y0096364D01*
X0044234Y0094766D02*
X0041122Y0094766D01*
X0042318Y0093167D02*
X0039523Y0093167D01*
X0037925Y0091569D02*
X0042117Y0091569D01*
X0041453Y0089970D02*
X0043716Y0089970D01*
X0043052Y0088372D02*
X0045314Y0088372D01*
X0044650Y0086773D02*
X0046913Y0086773D01*
X0046249Y0085175D02*
X0048512Y0085175D01*
X0047847Y0083576D02*
X0050110Y0083576D01*
X0049446Y0081978D02*
X0051709Y0081978D01*
X0051044Y0080379D02*
X0053307Y0080379D01*
X0052643Y0078781D02*
X0054906Y0078781D01*
X0054241Y0077182D02*
X0056504Y0077182D01*
X0055840Y0075584D02*
X0058103Y0075584D01*
X0057438Y0073985D02*
X0059701Y0073985D01*
X0059037Y0072387D02*
X0061300Y0072387D01*
X0060635Y0070788D02*
X0062898Y0070788D01*
X0062234Y0069190D02*
X0064497Y0069190D01*
X0063832Y0067591D02*
X0066095Y0067591D01*
X0067627Y0067591D02*
X0069890Y0067591D01*
X0069226Y0069190D02*
X0071488Y0069190D01*
X0070824Y0070788D02*
X0073087Y0070788D01*
X0072423Y0072387D02*
X0074685Y0072387D01*
X0074021Y0073985D02*
X0076284Y0073985D01*
X0075620Y0075584D02*
X0077882Y0075584D01*
X0077218Y0077182D02*
X0079481Y0077182D01*
X0078817Y0078781D02*
X0081079Y0078781D01*
X0080415Y0080379D02*
X0082678Y0080379D01*
X0082014Y0081978D02*
X0084276Y0081978D01*
X0083612Y0083576D02*
X0085875Y0083576D01*
X0085211Y0085175D02*
X0087473Y0085175D01*
X0086809Y0086773D02*
X0089072Y0086773D01*
X0088408Y0088372D02*
X0090670Y0088372D01*
X0090006Y0089970D02*
X0092269Y0089970D01*
X0093476Y0091177D02*
X0067993Y0065694D01*
X0093476Y0040210D01*
X0093698Y0040431D01*
X0095174Y0042098D01*
X0096547Y0043850D01*
X0097812Y0045683D01*
X0098963Y0047588D01*
X0099998Y0049559D01*
X0100912Y0051589D01*
X0101701Y0053671D01*
X0102364Y0055797D01*
X0102896Y0057958D01*
X0103298Y0060148D01*
X0103566Y0062358D01*
X0103701Y0064581D01*
X0103701Y0066807D01*
X0103566Y0069029D01*
X0103298Y0071239D01*
X0102896Y0073429D01*
X0102364Y0075591D01*
X0101701Y0077716D01*
X0100912Y0079798D01*
X0099998Y0081828D01*
X0098963Y0083799D01*
X0097812Y0085705D01*
X0096547Y0087537D01*
X0095174Y0089290D01*
X0093698Y0090956D01*
X0093476Y0091177D01*
X0094571Y0089970D02*
X0097534Y0089970D01*
X0099132Y0088372D02*
X0095893Y0088372D01*
X0097074Y0086773D02*
X0100731Y0086773D01*
X0102329Y0085175D02*
X0098132Y0085175D01*
X0099081Y0083576D02*
X0103928Y0083576D01*
X0105526Y0081978D02*
X0099920Y0081978D01*
X0100650Y0080379D02*
X0107125Y0080379D01*
X0107658Y0078781D02*
X0101298Y0078781D01*
X0101868Y0077182D02*
X0107658Y0077182D01*
X0107658Y0075584D02*
X0102365Y0075584D01*
X0102759Y0073985D02*
X0107658Y0073985D01*
X0107658Y0072387D02*
X0103087Y0072387D01*
X0103353Y0070788D02*
X0107658Y0070788D01*
X0107658Y0069190D02*
X0103547Y0069190D01*
X0103653Y0067591D02*
X0107658Y0067591D01*
X0107658Y0065993D02*
X0103701Y0065993D01*
X0103689Y0064394D02*
X0107658Y0064394D01*
X0107658Y0062796D02*
X0103593Y0062796D01*
X0103425Y0061197D02*
X0107658Y0061197D01*
X0107658Y0059598D02*
X0103197Y0059598D01*
X0102904Y0058000D02*
X0107658Y0058000D01*
X0107658Y0056401D02*
X0102513Y0056401D01*
X0102054Y0054803D02*
X0107658Y0054803D01*
X0107658Y0053204D02*
X0101524Y0053204D01*
X0100918Y0051606D02*
X0107658Y0051606D01*
X0107658Y0050007D02*
X0100200Y0050007D01*
X0099394Y0048409D02*
X0107658Y0048409D01*
X0106312Y0046810D02*
X0098493Y0046810D01*
X0097487Y0045212D02*
X0101191Y0045212D01*
X0099592Y0043613D02*
X0096361Y0043613D01*
X0095100Y0042015D02*
X0097994Y0042015D01*
X0096395Y0040416D02*
X0093682Y0040416D01*
X0093270Y0040416D02*
X0091007Y0040416D01*
X0091671Y0042015D02*
X0089409Y0042015D01*
X0090073Y0043613D02*
X0087810Y0043613D01*
X0088474Y0045212D02*
X0086212Y0045212D01*
X0086876Y0046810D02*
X0084613Y0046810D01*
X0085277Y0048409D02*
X0083015Y0048409D01*
X0083679Y0050007D02*
X0081416Y0050007D01*
X0082080Y0051606D02*
X0079818Y0051606D01*
X0080482Y0053204D02*
X0078219Y0053204D01*
X0078883Y0054803D02*
X0076621Y0054803D01*
X0077285Y0056401D02*
X0075022Y0056401D01*
X0075686Y0058000D02*
X0073424Y0058000D01*
X0074088Y0059598D02*
X0071825Y0059598D01*
X0072489Y0061197D02*
X0070227Y0061197D01*
X0070891Y0062796D02*
X0068628Y0062796D01*
X0069292Y0064394D02*
X0067029Y0064394D01*
X0066693Y0064394D02*
X0064430Y0064394D01*
X0065094Y0062796D02*
X0062832Y0062796D01*
X0063496Y0061197D02*
X0061233Y0061197D01*
X0061897Y0059598D02*
X0059635Y0059598D01*
X0060299Y0058000D02*
X0058036Y0058000D01*
X0058700Y0056401D02*
X0056438Y0056401D01*
X0057102Y0054803D02*
X0054839Y0054803D01*
X0055503Y0053204D02*
X0053241Y0053204D01*
X0053905Y0051606D02*
X0051642Y0051606D01*
X0052306Y0050007D02*
X0050044Y0050007D01*
X0050708Y0048409D02*
X0048445Y0048409D01*
X0049109Y0046810D02*
X0046846Y0046810D01*
X0047511Y0045212D02*
X0045248Y0045212D01*
X0045912Y0043613D02*
X0043649Y0043613D01*
X0044314Y0042015D02*
X0042051Y0042015D01*
X0030482Y0030825D02*
X0054929Y0030825D01*
X0072157Y0029227D02*
X0087150Y0029227D01*
X0086804Y0030825D02*
X0078793Y0030825D01*
X0082700Y0032424D02*
X0088403Y0032424D01*
X0090001Y0034022D02*
X0085680Y0034022D01*
X0088144Y0035621D02*
X0091600Y0035621D01*
X0090251Y0037219D02*
X0093198Y0037219D01*
X0092079Y0038818D02*
X0094797Y0038818D01*
X0103521Y0045212D02*
X0104843Y0045212D01*
X0108424Y0042015D02*
X0158458Y0042015D01*
X0158458Y0043613D02*
X0109893Y0043613D01*
X0111362Y0045212D02*
X0158458Y0045212D01*
X0158458Y0046810D02*
X0112436Y0046810D01*
X0112458Y0048409D02*
X0158458Y0048409D01*
X0158458Y0050007D02*
X0112458Y0050007D01*
X0112458Y0051606D02*
X0158458Y0051606D01*
X0157293Y0053204D02*
X0112458Y0053204D01*
X0112458Y0054803D02*
X0155392Y0054803D01*
X0153819Y0056401D02*
X0112458Y0056401D01*
X0112458Y0058000D02*
X0152769Y0058000D01*
X0151720Y0059598D02*
X0112458Y0059598D01*
X0112458Y0061197D02*
X0151114Y0061197D01*
X0150637Y0062796D02*
X0112458Y0062796D01*
X0112458Y0064394D02*
X0150159Y0064394D01*
X0150058Y0065993D02*
X0140736Y0065993D01*
X0141326Y0067591D02*
X0150058Y0067591D01*
X0150058Y0069190D02*
X0141326Y0069190D01*
X0141326Y0070788D02*
X0144700Y0070788D01*
X0143169Y0072387D02*
X0141185Y0072387D01*
X0140926Y0073985D02*
X0142507Y0073985D01*
X0142258Y0075584D02*
X0140926Y0075584D01*
X0140926Y0077182D02*
X0142295Y0077182D01*
X0142957Y0078781D02*
X0140926Y0078781D01*
X0138382Y0081978D02*
X0146912Y0081978D01*
X0144187Y0080379D02*
X0136784Y0080379D01*
X0139981Y0083576D02*
X0158458Y0083576D01*
X0158458Y0085175D02*
X0141579Y0085175D01*
X0143178Y0086773D02*
X0158458Y0086773D01*
X0158458Y0088372D02*
X0144776Y0088372D01*
X0146375Y0089970D02*
X0149322Y0089970D01*
X0149289Y0091569D02*
X0147973Y0091569D01*
X0152874Y0091569D02*
X0153242Y0091569D01*
X0153242Y0089970D02*
X0152874Y0089970D01*
X0156794Y0089970D02*
X0158458Y0089970D01*
X0158458Y0091569D02*
X0156826Y0091569D01*
X0156826Y0093167D02*
X0158458Y0093167D01*
X0158458Y0094766D02*
X0156826Y0094766D01*
X0156349Y0096364D02*
X0158458Y0096364D01*
X0158458Y0097963D02*
X0156426Y0097963D01*
X0156426Y0099561D02*
X0158458Y0099561D01*
X0158458Y0101160D02*
X0156458Y0101160D01*
X0156458Y0102758D02*
X0158458Y0102758D01*
X0158458Y0104357D02*
X0156458Y0104357D01*
X0156458Y0105955D02*
X0158458Y0105955D01*
X0158458Y0107554D02*
X0156458Y0107554D01*
X0156458Y0109152D02*
X0158458Y0109152D01*
X0158458Y0110751D02*
X0156458Y0110751D01*
X0156458Y0112349D02*
X0158458Y0112349D01*
X0158458Y0113948D02*
X0157958Y0113948D01*
X0158308Y0115546D02*
X0158458Y0115546D01*
X0158458Y0117145D02*
X0157642Y0117145D01*
X0158458Y0118743D02*
X0155430Y0118743D01*
X0157594Y0120342D02*
X0158458Y0120342D01*
X0156729Y0121940D02*
X0156729Y0121940D01*
X0155130Y0123539D02*
X0155130Y0123539D01*
X0153532Y0125137D02*
X0153532Y0125137D01*
X0151933Y0126736D02*
X0151933Y0126736D01*
X0150335Y0128334D02*
X0150334Y0128334D01*
X0150195Y0128334D02*
X0135458Y0128334D01*
X0135458Y0126736D02*
X0149059Y0126736D01*
X0147564Y0125137D02*
X0135458Y0125137D01*
X0135458Y0123539D02*
X0145965Y0123539D01*
X0144367Y0121940D02*
X0136145Y0121940D01*
X0137743Y0120342D02*
X0142768Y0120342D01*
X0141170Y0118743D02*
X0139342Y0118743D01*
X0134763Y0113948D02*
X0099470Y0113948D01*
X0097872Y0115546D02*
X0133165Y0115546D01*
X0131566Y0117145D02*
X0098154Y0117145D01*
X0099752Y0118743D02*
X0129968Y0118743D01*
X0128658Y0120342D02*
X0101351Y0120342D01*
X0102949Y0121940D02*
X0128658Y0121940D01*
X0128658Y0123539D02*
X0104548Y0123539D01*
X0106146Y0125137D02*
X0128658Y0125137D01*
X0128658Y0126736D02*
X0107745Y0126736D01*
X0109343Y0128334D02*
X0128658Y0128334D01*
X0128658Y0129933D02*
X0110942Y0129933D01*
X0112540Y0131531D02*
X0128658Y0131531D01*
X0128658Y0133130D02*
X0114139Y0133130D01*
X0115737Y0134729D02*
X0128658Y0134729D01*
X0128658Y0136327D02*
X0117304Y0136327D01*
X0116833Y0137926D02*
X0128583Y0137926D01*
X0127808Y0139524D02*
X0115235Y0139524D01*
X0113670Y0141123D02*
X0128112Y0141123D01*
X0127493Y0145918D02*
X0133875Y0145918D01*
X0135503Y0144320D02*
X0112947Y0144320D01*
X0112071Y0142721D02*
X0137132Y0142721D01*
X0138761Y0141123D02*
X0133003Y0141123D01*
X0135763Y0139524D02*
X0140389Y0139524D01*
X0142018Y0137926D02*
X0136308Y0137926D01*
X0135908Y0136327D02*
X0143647Y0136327D01*
X0145275Y0134729D02*
X0135458Y0134729D01*
X0135458Y0133130D02*
X0146904Y0133130D01*
X0148533Y0131531D02*
X0135458Y0131531D01*
X0135458Y0129933D02*
X0150161Y0129933D01*
X0161558Y0143840D02*
X0161553Y0144227D01*
X0161539Y0144613D01*
X0161516Y0144999D01*
X0161483Y0145384D01*
X0161441Y0145769D01*
X0161390Y0146152D01*
X0161330Y0146534D01*
X0161260Y0146914D01*
X0161181Y0147293D01*
X0161093Y0147669D01*
X0160996Y0148043D01*
X0160890Y0148415D01*
X0160775Y0148784D01*
X0160651Y0149151D01*
X0160518Y0149514D01*
X0160377Y0149874D01*
X0160227Y0150230D01*
X0160068Y0150582D01*
X0159901Y0150931D01*
X0159725Y0151276D01*
X0159541Y0151616D01*
X0159350Y0151951D01*
X0159149Y0152282D01*
X0158942Y0152608D01*
X0158726Y0152929D01*
X0158502Y0153245D01*
X0158271Y0153555D01*
X0158033Y0153859D01*
X0157787Y0154157D01*
X0157534Y0154450D01*
X0157274Y0154736D01*
X0157008Y0155016D01*
X0156734Y0155290D01*
X0156454Y0155556D01*
X0156168Y0155816D01*
X0155875Y0156069D01*
X0155577Y0156315D01*
X0155273Y0156553D01*
X0154963Y0156784D01*
X0154647Y0157008D01*
X0154326Y0157224D01*
X0154000Y0157431D01*
X0153669Y0157632D01*
X0153334Y0157823D01*
X0152994Y0158007D01*
X0152649Y0158183D01*
X0152300Y0158350D01*
X0151948Y0158509D01*
X0151592Y0158659D01*
X0151232Y0158800D01*
X0150869Y0158933D01*
X0150502Y0159057D01*
X0150133Y0159172D01*
X0149761Y0159278D01*
X0149387Y0159375D01*
X0149011Y0159463D01*
X0148632Y0159542D01*
X0148252Y0159612D01*
X0147870Y0159672D01*
X0147487Y0159723D01*
X0147102Y0159765D01*
X0146717Y0159798D01*
X0146331Y0159821D01*
X0145945Y0159835D01*
X0145558Y0159840D01*
X0082739Y0159840D01*
X0083910Y0155509D02*
X0121692Y0155509D01*
X0123160Y0155509D02*
X0123160Y0155509D01*
X0120861Y0153911D02*
X0120861Y0153911D01*
X0120094Y0153911D02*
X0112397Y0153911D01*
X0113939Y0152312D02*
X0119254Y0152312D01*
X0120120Y0150714D02*
X0114601Y0150714D01*
X0114858Y0149115D02*
X0121719Y0149115D01*
X0122994Y0149115D02*
X0122994Y0149115D01*
X0123317Y0147517D02*
X0114829Y0147517D01*
X0114167Y0145918D02*
X0124916Y0145918D01*
X0127255Y0147517D02*
X0127255Y0147517D01*
X0129068Y0147517D02*
X0132246Y0147517D01*
X0129554Y0149115D02*
X0129554Y0149115D01*
X0126274Y0152395D02*
X0125256Y0151377D01*
X0124325Y0150446D01*
X0124325Y0150447D01*
X0125256Y0151377D01*
X0126274Y0152395D01*
X0126274Y0152395D01*
X0126191Y0152312D02*
X0126191Y0152312D01*
X0124593Y0150714D02*
X0124592Y0150714D01*
X0104719Y0153911D02*
X0082565Y0153911D01*
X0081089Y0152312D02*
X0088700Y0152312D01*
X0087678Y0150714D02*
X0087156Y0150714D01*
X0087102Y0150714D02*
X0078655Y0150714D01*
X0075030Y0149115D02*
X0085528Y0149115D01*
X0084471Y0147517D02*
X0058815Y0147517D01*
X0058061Y0145918D02*
X0082872Y0145918D01*
X0081273Y0144320D02*
X0059392Y0144320D01*
X0059858Y0142721D02*
X0080902Y0142721D01*
X0082501Y0141123D02*
X0059708Y0141123D01*
X0058823Y0139524D02*
X0084005Y0139524D01*
X0085604Y0137926D02*
X0077247Y0137926D01*
X0078940Y0136327D02*
X0085462Y0136327D01*
X0086587Y0134729D02*
X0080538Y0134729D01*
X0078026Y0131544D02*
X0078729Y0130840D01*
X0078770Y0130840D01*
X0079029Y0130581D01*
X0078502Y0130054D01*
X0078502Y0128894D01*
X0084612Y0122784D01*
X0085771Y0122784D01*
X0088927Y0125940D01*
X0092689Y0125940D01*
X0092372Y0125623D01*
X0090423Y0123675D01*
X0090423Y0122515D01*
X0093903Y0119035D01*
X0093495Y0118926D01*
X0093084Y0118689D01*
X0090342Y0115946D01*
X0087599Y0113204D01*
X0087362Y0112793D01*
X0087239Y0112335D01*
X0087239Y0111861D01*
X0087362Y0111404D01*
X0087599Y0110993D01*
X0088352Y0110240D01*
X0087552Y0110240D01*
X0087239Y0110553D01*
X0086889Y0111398D01*
X0086116Y0112171D01*
X0085271Y0112521D01*
X0081642Y0116150D01*
X0082247Y0116755D01*
X0082247Y0117915D01*
X0078365Y0121797D01*
X0077906Y0121797D01*
X0077915Y0121830D01*
X0077915Y0122304D01*
X0077792Y0122762D01*
X0077555Y0123173D01*
X0075987Y0124741D01*
X0073452Y0122207D01*
X0073192Y0122467D01*
X0075726Y0125001D01*
X0074158Y0126570D01*
X0073747Y0126807D01*
X0073543Y0126861D01*
X0071192Y0129213D01*
X0071452Y0129474D01*
X0073987Y0126939D01*
X0075555Y0128508D01*
X0075792Y0128918D01*
X0075915Y0129376D01*
X0075915Y0129850D01*
X0075906Y0129883D01*
X0076365Y0129883D01*
X0078026Y0131544D01*
X0078038Y0131531D02*
X0078013Y0131531D01*
X0078502Y0129933D02*
X0076414Y0129933D01*
X0075382Y0128334D02*
X0079062Y0128334D01*
X0080660Y0126736D02*
X0073870Y0126736D01*
X0072591Y0128334D02*
X0072070Y0128334D01*
X0070313Y0128334D02*
X0069792Y0128334D01*
X0070472Y0129933D02*
X0070993Y0129933D01*
X0069394Y0131531D02*
X0068873Y0131531D01*
X0067920Y0131531D02*
X0019658Y0131531D01*
X0019658Y0129933D02*
X0066565Y0129933D01*
X0066767Y0128334D02*
X0019658Y0128334D01*
X0019658Y0126736D02*
X0068714Y0126736D01*
X0069920Y0125137D02*
X0019658Y0125137D01*
X0019658Y0123539D02*
X0068916Y0123539D01*
X0068514Y0121940D02*
X0019658Y0121940D01*
X0019658Y0120342D02*
X0069727Y0120342D01*
X0071066Y0120342D02*
X0071588Y0120342D01*
X0071325Y0118743D02*
X0019658Y0118743D01*
X0019658Y0117145D02*
X0073601Y0117145D01*
X0075088Y0115546D02*
X0019658Y0115546D01*
X0019658Y0113948D02*
X0076686Y0113948D01*
X0078655Y0112349D02*
X0019658Y0112349D01*
X0019658Y0110751D02*
X0080253Y0110751D01*
X0083844Y0113948D02*
X0088343Y0113948D01*
X0087243Y0112349D02*
X0085686Y0112349D01*
X0087157Y0110751D02*
X0087841Y0110751D01*
X0089942Y0115546D02*
X0082246Y0115546D01*
X0082247Y0117145D02*
X0091540Y0117145D01*
X0090342Y0115946D02*
X0092311Y0113978D01*
X0092310Y0113978D01*
X0090342Y0115946D01*
X0090742Y0115546D02*
X0090742Y0115546D01*
X0093179Y0118743D02*
X0081418Y0118743D01*
X0079820Y0120342D02*
X0092596Y0120342D01*
X0090998Y0121940D02*
X0077915Y0121940D01*
X0077189Y0123539D02*
X0083857Y0123539D01*
X0082259Y0125137D02*
X0075590Y0125137D01*
X0074785Y0123539D02*
X0074263Y0123539D01*
X0073186Y0121940D02*
X0072665Y0121940D01*
X0072120Y0123539D02*
X0071598Y0123539D01*
X0069518Y0133130D02*
X0019658Y0133130D01*
X0019658Y0134729D02*
X0071682Y0134729D01*
X0073281Y0136327D02*
X0040677Y0136327D01*
X0042291Y0137926D02*
X0074879Y0137926D01*
X0084350Y0133130D02*
X0088186Y0133130D01*
X0089784Y0131531D02*
X0085949Y0131531D01*
X0087547Y0129933D02*
X0091383Y0129933D01*
X0092920Y0129933D02*
X0095382Y0129933D01*
X0092372Y0125623D02*
X0092372Y0125623D01*
X0091886Y0125137D02*
X0088124Y0125137D01*
X0086526Y0123539D02*
X0090423Y0123539D01*
X0085598Y0127840D02*
X0085598Y0128360D01*
X0084078Y0128360D01*
X0093474Y0137926D02*
X0094308Y0137926D01*
X0094308Y0138387D02*
X0094308Y0137293D01*
X0094450Y0136950D01*
X0090504Y0140896D01*
X0089344Y0140896D01*
X0088817Y0140369D01*
X0087834Y0141352D01*
X0089515Y0143033D01*
X0089515Y0143492D01*
X0089548Y0143483D01*
X0090022Y0143483D01*
X0090480Y0143606D01*
X0090890Y0143843D01*
X0092058Y0145011D01*
X0093396Y0143672D01*
X0095931Y0146206D01*
X0096191Y0145946D01*
X0093657Y0143411D01*
X0095225Y0141843D01*
X0095636Y0141606D01*
X0096094Y0141483D01*
X0096568Y0141483D01*
X0096601Y0141492D01*
X0096601Y0141033D01*
X0096729Y0140905D01*
X0096345Y0140521D01*
X0095500Y0140171D01*
X0094727Y0139398D01*
X0094308Y0138387D01*
X0094853Y0139524D02*
X0091876Y0139524D01*
X0094347Y0142721D02*
X0089203Y0142721D01*
X0088064Y0141123D02*
X0096601Y0141123D01*
X0094565Y0144320D02*
X0094044Y0144320D01*
X0092749Y0144320D02*
X0091367Y0144320D01*
X0095643Y0145918D02*
X0096164Y0145918D01*
X0097241Y0147517D02*
X0097762Y0147517D01*
X0098612Y0149115D02*
X0102258Y0149115D01*
X0102287Y0147517D02*
X0100211Y0147517D01*
X0100915Y0145918D02*
X0102949Y0145918D01*
X0102515Y0150714D02*
X0096909Y0150714D01*
X0095196Y0150714D02*
X0093025Y0150714D01*
X0092692Y0150714D02*
X0092171Y0150714D01*
X0091426Y0152312D02*
X0103177Y0152312D01*
X0091093Y0149115D02*
X0090572Y0149115D01*
X0089276Y0149115D02*
X0088755Y0149115D01*
X0082739Y0159840D02*
X0082600Y0159529D01*
X0082453Y0159221D01*
X0082298Y0158917D01*
X0082136Y0158617D01*
X0081967Y0158321D01*
X0081791Y0158029D01*
X0081607Y0157741D01*
X0081417Y0157458D01*
X0081220Y0157180D01*
X0081016Y0156907D01*
X0080805Y0156638D01*
X0080588Y0156375D01*
X0080364Y0156118D01*
X0080134Y0155866D01*
X0079899Y0155619D01*
X0079657Y0155379D01*
X0079409Y0155144D01*
X0079156Y0154916D01*
X0078897Y0154694D01*
X0078633Y0154478D01*
X0078363Y0154269D01*
X0078089Y0154066D01*
X0077810Y0153870D01*
X0077526Y0153681D01*
X0077237Y0153499D01*
X0076944Y0153324D01*
X0076647Y0153157D01*
X0076346Y0152997D01*
X0076041Y0152844D01*
X0075733Y0152698D01*
X0075421Y0152560D01*
X0075105Y0152430D01*
X0074787Y0152308D01*
X0074466Y0152193D01*
X0074142Y0152087D01*
X0073815Y0151988D01*
X0073486Y0151897D01*
X0073155Y0151815D01*
X0072823Y0151740D01*
X0072488Y0151674D01*
X0072152Y0151616D01*
X0071814Y0151566D01*
X0071476Y0151524D01*
X0071136Y0151491D01*
X0070796Y0151466D01*
X0070456Y0151449D01*
X0070115Y0151441D01*
X0069773Y0151441D01*
X0069432Y0151449D01*
X0069092Y0151466D01*
X0068752Y0151491D01*
X0068412Y0151524D01*
X0068074Y0151566D01*
X0067736Y0151616D01*
X0067400Y0151674D01*
X0067065Y0151740D01*
X0066733Y0151815D01*
X0066402Y0151897D01*
X0066073Y0151988D01*
X0065746Y0152087D01*
X0065422Y0152193D01*
X0065101Y0152308D01*
X0064783Y0152430D01*
X0064467Y0152560D01*
X0064155Y0152698D01*
X0063847Y0152844D01*
X0063542Y0152997D01*
X0063241Y0153157D01*
X0062944Y0153324D01*
X0062651Y0153499D01*
X0062362Y0153681D01*
X0062078Y0153870D01*
X0061799Y0154066D01*
X0061525Y0154269D01*
X0061255Y0154478D01*
X0060991Y0154694D01*
X0060732Y0154916D01*
X0060479Y0155144D01*
X0060231Y0155379D01*
X0059989Y0155619D01*
X0059754Y0155866D01*
X0059524Y0156118D01*
X0059300Y0156375D01*
X0059083Y0156638D01*
X0058872Y0156907D01*
X0058668Y0157180D01*
X0058471Y0157458D01*
X0058281Y0157741D01*
X0058097Y0158029D01*
X0057921Y0158321D01*
X0057752Y0158617D01*
X0057590Y0158917D01*
X0057435Y0159221D01*
X0057288Y0159529D01*
X0057149Y0159840D01*
X0057148Y0159840D02*
X0036558Y0159840D01*
X0036558Y0156740D02*
X0034666Y0156634D01*
X0030976Y0155792D01*
X0029248Y0154959D01*
X0031127Y0154181D01*
X0032899Y0152409D01*
X0033788Y0150261D01*
X0034703Y0150640D01*
X0036413Y0150640D01*
X0037862Y0150040D01*
X0038057Y0150511D01*
X0038887Y0151341D01*
X0039060Y0151413D01*
X0039658Y0154997D01*
X0039658Y0155627D01*
X0039784Y0155753D01*
X0039808Y0155897D01*
X0039808Y0156387D01*
X0039954Y0156740D01*
X0036558Y0156740D01*
X0039658Y0155509D02*
X0030389Y0155509D01*
X0031397Y0153911D02*
X0039477Y0153911D01*
X0039210Y0152312D02*
X0032939Y0152312D01*
X0033601Y0150714D02*
X0038259Y0150714D01*
X0033096Y0142721D02*
X0029248Y0142721D01*
X0025868Y0142721D02*
X0019990Y0142721D01*
X0019730Y0141123D02*
X0037874Y0141123D01*
X0036558Y0159840D02*
X0036075Y0159834D01*
X0035592Y0159817D01*
X0035109Y0159787D01*
X0034628Y0159747D01*
X0034147Y0159694D01*
X0033668Y0159630D01*
X0033191Y0159555D01*
X0032715Y0159467D01*
X0032242Y0159369D01*
X0031772Y0159259D01*
X0031304Y0159138D01*
X0030839Y0159005D01*
X0030378Y0158861D01*
X0029920Y0158706D01*
X0029466Y0158540D01*
X0029016Y0158363D01*
X0028571Y0158176D01*
X0028130Y0157977D01*
X0027694Y0157769D01*
X0027264Y0157549D01*
X0026838Y0157319D01*
X0026419Y0157079D01*
X0026005Y0156829D01*
X0025598Y0156569D01*
X0025197Y0156300D01*
X0024802Y0156020D01*
X0024415Y0155732D01*
X0024034Y0155433D01*
X0023661Y0155126D01*
X0023296Y0154810D01*
X0022938Y0154485D01*
X0022588Y0154152D01*
X0022246Y0153810D01*
X0021913Y0153460D01*
X0021588Y0153102D01*
X0021272Y0152737D01*
X0020965Y0152364D01*
X0020666Y0151983D01*
X0020378Y0151596D01*
X0020098Y0151201D01*
X0019829Y0150800D01*
X0019569Y0150393D01*
X0019319Y0149979D01*
X0019079Y0149560D01*
X0018849Y0149134D01*
X0018629Y0148704D01*
X0018421Y0148268D01*
X0018222Y0147827D01*
X0018035Y0147382D01*
X0017858Y0146932D01*
X0017692Y0146478D01*
X0017537Y0146020D01*
X0017393Y0145559D01*
X0017260Y0145094D01*
X0017139Y0144626D01*
X0017029Y0144156D01*
X0016931Y0143683D01*
X0016843Y0143207D01*
X0016768Y0142730D01*
X0016704Y0142251D01*
X0016651Y0141770D01*
X0016611Y0141289D01*
X0016581Y0140806D01*
X0016564Y0140323D01*
X0016558Y0139840D01*
X0016558Y0061021D01*
X0016558Y0061022D02*
X0016918Y0060860D01*
X0017274Y0060690D01*
X0017626Y0060512D01*
X0017973Y0060325D01*
X0018316Y0060129D01*
X0018653Y0059925D01*
X0018986Y0059713D01*
X0019313Y0059493D01*
X0019635Y0059264D01*
X0019951Y0059028D01*
X0020261Y0058785D01*
X0020565Y0058534D01*
X0020863Y0058275D01*
X0021154Y0058010D01*
X0021439Y0057737D01*
X0021718Y0057457D01*
X0021989Y0057171D01*
X0022253Y0056878D01*
X0022510Y0056579D01*
X0022759Y0056273D01*
X0023001Y0055962D01*
X0023236Y0055644D01*
X0023462Y0055321D01*
X0023680Y0054993D01*
X0023891Y0054659D01*
X0024093Y0054321D01*
X0024287Y0053977D01*
X0024472Y0053629D01*
X0024649Y0053276D01*
X0024817Y0052920D01*
X0024976Y0052559D01*
X0025127Y0052194D01*
X0025268Y0051826D01*
X0025401Y0051455D01*
X0025524Y0051080D01*
X0025638Y0050702D01*
X0025743Y0050322D01*
X0025839Y0049939D01*
X0025925Y0049555D01*
X0026001Y0049168D01*
X0026069Y0048779D01*
X0026126Y0048389D01*
X0026174Y0047997D01*
X0026213Y0047605D01*
X0026242Y0047211D01*
X0026261Y0046818D01*
X0026271Y0046423D01*
X0026271Y0046029D01*
X0026261Y0045634D01*
X0026242Y0045241D01*
X0026213Y0044847D01*
X0026174Y0044455D01*
X0026126Y0044063D01*
X0026069Y0043673D01*
X0026001Y0043284D01*
X0025925Y0042897D01*
X0025839Y0042513D01*
X0025743Y0042130D01*
X0025638Y0041750D01*
X0025524Y0041372D01*
X0025401Y0040997D01*
X0025268Y0040626D01*
X0025127Y0040258D01*
X0024976Y0039893D01*
X0024817Y0039532D01*
X0024649Y0039176D01*
X0024472Y0038823D01*
X0024287Y0038475D01*
X0024093Y0038131D01*
X0023891Y0037793D01*
X0023680Y0037459D01*
X0023462Y0037131D01*
X0023236Y0036808D01*
X0023001Y0036490D01*
X0022759Y0036179D01*
X0022510Y0035873D01*
X0022253Y0035574D01*
X0021989Y0035281D01*
X0021718Y0034995D01*
X0021439Y0034715D01*
X0021154Y0034442D01*
X0020863Y0034177D01*
X0020565Y0033918D01*
X0020261Y0033667D01*
X0019951Y0033424D01*
X0019635Y0033188D01*
X0019313Y0032959D01*
X0018986Y0032739D01*
X0018653Y0032527D01*
X0018316Y0032323D01*
X0017973Y0032127D01*
X0017626Y0031940D01*
X0017274Y0031762D01*
X0016918Y0031592D01*
X0016558Y0031430D01*
X0020112Y0027628D02*
X0020479Y0027628D01*
X0031806Y0014840D02*
X0032148Y0014840D01*
X0032310Y0015200D01*
X0032480Y0015556D01*
X0032658Y0015908D01*
X0032845Y0016255D01*
X0033041Y0016598D01*
X0033245Y0016935D01*
X0033457Y0017268D01*
X0033677Y0017595D01*
X0033906Y0017917D01*
X0034142Y0018233D01*
X0034385Y0018543D01*
X0034636Y0018847D01*
X0034895Y0019145D01*
X0035160Y0019436D01*
X0035433Y0019721D01*
X0035713Y0020000D01*
X0035999Y0020271D01*
X0036292Y0020535D01*
X0036591Y0020792D01*
X0036897Y0021041D01*
X0037208Y0021283D01*
X0037526Y0021518D01*
X0037849Y0021744D01*
X0038177Y0021962D01*
X0038511Y0022173D01*
X0038849Y0022375D01*
X0039193Y0022569D01*
X0039541Y0022754D01*
X0039894Y0022931D01*
X0040250Y0023099D01*
X0040611Y0023258D01*
X0040976Y0023409D01*
X0041344Y0023550D01*
X0041715Y0023683D01*
X0042090Y0023806D01*
X0042468Y0023920D01*
X0042848Y0024025D01*
X0043231Y0024121D01*
X0043615Y0024207D01*
X0044002Y0024283D01*
X0044391Y0024351D01*
X0044781Y0024408D01*
X0045173Y0024456D01*
X0045565Y0024495D01*
X0045959Y0024524D01*
X0046352Y0024543D01*
X0046747Y0024553D01*
X0047141Y0024553D01*
X0047536Y0024543D01*
X0047929Y0024524D01*
X0048323Y0024495D01*
X0048715Y0024456D01*
X0049107Y0024408D01*
X0049497Y0024351D01*
X0049886Y0024283D01*
X0050273Y0024207D01*
X0050657Y0024121D01*
X0051040Y0024025D01*
X0051420Y0023920D01*
X0051798Y0023806D01*
X0052173Y0023683D01*
X0052544Y0023550D01*
X0052912Y0023409D01*
X0053277Y0023258D01*
X0053638Y0023099D01*
X0053994Y0022931D01*
X0054347Y0022754D01*
X0054695Y0022569D01*
X0055039Y0022375D01*
X0055377Y0022173D01*
X0055711Y0021962D01*
X0056039Y0021744D01*
X0056362Y0021518D01*
X0056680Y0021283D01*
X0056991Y0021041D01*
X0057297Y0020792D01*
X0057596Y0020535D01*
X0057889Y0020271D01*
X0058175Y0020000D01*
X0058455Y0019721D01*
X0058728Y0019436D01*
X0058993Y0019145D01*
X0059252Y0018847D01*
X0059503Y0018543D01*
X0059746Y0018233D01*
X0059982Y0017917D01*
X0060211Y0017595D01*
X0060431Y0017268D01*
X0060643Y0016935D01*
X0060847Y0016598D01*
X0061043Y0016255D01*
X0061230Y0015908D01*
X0061408Y0015556D01*
X0061578Y0015200D01*
X0061740Y0014840D01*
X0106282Y0032424D02*
X0158232Y0032424D01*
X0158412Y0034022D02*
X0107880Y0034022D01*
X0109479Y0035621D02*
X0158458Y0035621D01*
X0158458Y0037219D02*
X0110715Y0037219D01*
X0109915Y0038818D02*
X0158458Y0038818D01*
X0158458Y0040416D02*
X0108316Y0040416D01*
X0112458Y0065993D02*
X0122380Y0065993D01*
X0121789Y0067591D02*
X0112458Y0067591D01*
X0112458Y0069190D02*
X0121789Y0069190D01*
X0121789Y0070788D02*
X0112458Y0070788D01*
X0112458Y0072387D02*
X0121931Y0072387D01*
X0122189Y0073985D02*
X0112458Y0073985D01*
X0112458Y0075584D02*
X0122189Y0075584D01*
X0122189Y0077182D02*
X0112458Y0077182D01*
X0112458Y0078781D02*
X0122189Y0078781D01*
X0123658Y0080379D02*
X0112458Y0080379D01*
X0112184Y0081978D02*
X0125008Y0081978D01*
X0126607Y0083576D02*
X0110716Y0083576D01*
X0109117Y0085175D02*
X0129883Y0085175D01*
X0130230Y0086773D02*
X0130751Y0086773D01*
X0131829Y0088372D02*
X0132033Y0088372D01*
X0130956Y0089970D02*
X0130435Y0089970D01*
X0129957Y0091569D02*
X0128255Y0091569D01*
X0128358Y0089970D02*
X0126657Y0089970D01*
X0127468Y0088372D02*
X0117412Y0088372D01*
X0117664Y0088624D02*
X0114921Y0085881D01*
X0114511Y0085644D01*
X0114053Y0085522D01*
X0113579Y0085522D01*
X0113121Y0085644D01*
X0112711Y0085881D01*
X0111847Y0086745D01*
X0115695Y0090593D01*
X0115695Y0090593D01*
X0117664Y0088624D01*
X0119010Y0089970D02*
X0122968Y0089970D01*
X0121370Y0091569D02*
X0120523Y0091569D01*
X0116318Y0089970D02*
X0116318Y0089970D01*
X0115073Y0089970D02*
X0115072Y0089970D01*
X0113474Y0088372D02*
X0113474Y0088372D01*
X0111876Y0086773D02*
X0111875Y0086773D01*
X0111819Y0086773D02*
X0107519Y0086773D01*
X0105920Y0088372D02*
X0110652Y0088372D01*
X0109188Y0089970D02*
X0104322Y0089970D01*
X0102723Y0091569D02*
X0107589Y0091569D01*
X0105991Y0093167D02*
X0101125Y0093167D01*
X0099526Y0094766D02*
X0104392Y0094766D01*
X0102794Y0096364D02*
X0097928Y0096364D01*
X0096329Y0097963D02*
X0101195Y0097963D01*
X0099597Y0099561D02*
X0094731Y0099561D01*
X0093132Y0101160D02*
X0097998Y0101160D01*
X0096400Y0102758D02*
X0092958Y0102758D01*
X0092958Y0104357D02*
X0094801Y0104357D01*
X0093203Y0105955D02*
X0092958Y0105955D01*
X0088158Y0104357D02*
X0086668Y0104357D01*
X0088154Y0102758D02*
X0088158Y0102758D01*
X0088283Y0099561D02*
X0087168Y0099561D01*
X0089541Y0097963D02*
X0084649Y0097963D01*
X0083948Y0099561D02*
X0081372Y0099561D01*
X0079668Y0104357D02*
X0084447Y0104357D01*
X0084067Y0105955D02*
X0085049Y0105955D01*
X0087278Y0096364D02*
X0091140Y0096364D01*
X0092738Y0094766D02*
X0089488Y0094766D01*
X0091404Y0093167D02*
X0094337Y0093167D01*
X0095935Y0091569D02*
X0091605Y0091569D01*
X0107463Y0105955D02*
X0128382Y0105955D01*
X0126783Y0104357D02*
X0109061Y0104357D01*
X0110660Y0102758D02*
X0125185Y0102758D01*
X0123586Y0101160D02*
X0112258Y0101160D01*
X0113857Y0099561D02*
X0121988Y0099561D01*
X0120389Y0097963D02*
X0115455Y0097963D01*
X0117054Y0096364D02*
X0118791Y0096364D01*
X0115813Y0086773D02*
X0128284Y0086773D01*
X0129854Y0093167D02*
X0131983Y0093167D01*
X0131452Y0094766D02*
X0133720Y0094766D01*
X0133051Y0096364D02*
X0135318Y0096364D01*
X0134649Y0097963D02*
X0139658Y0097963D01*
X0139658Y0099561D02*
X0136248Y0099561D01*
X0137846Y0101160D02*
X0139658Y0101160D01*
X0139658Y0102758D02*
X0139445Y0102758D01*
X0143458Y0102053D02*
X0143458Y0097829D01*
X0143835Y0097452D01*
X0144227Y0098398D01*
X0145000Y0099171D01*
X0145658Y0099444D01*
X0145658Y0104253D01*
X0143458Y0102053D01*
X0143458Y0101160D02*
X0145658Y0101160D01*
X0145658Y0102758D02*
X0144163Y0102758D01*
X0143458Y0099561D02*
X0145658Y0099561D01*
X0144046Y0097963D02*
X0143458Y0097963D01*
X0131579Y0109152D02*
X0104266Y0109152D01*
X0105864Y0107554D02*
X0129980Y0107554D01*
X0133177Y0110751D02*
X0102667Y0110751D01*
X0101069Y0112349D02*
X0134776Y0112349D01*
X0150203Y0081978D02*
X0158276Y0081978D01*
X0156260Y0080379D02*
X0152928Y0080379D01*
X0154159Y0078781D02*
X0154360Y0078781D01*
X0161558Y0080021D02*
X0161558Y0143840D01*
X0129808Y0078781D02*
X0128926Y0078781D01*
X0128926Y0077182D02*
X0130327Y0077182D01*
X0128926Y0075584D02*
X0133127Y0075584D01*
X0134189Y0073985D02*
X0128926Y0073985D01*
X0129185Y0072387D02*
X0133931Y0072387D01*
X0133789Y0070788D02*
X0129326Y0070788D01*
X0129326Y0069190D02*
X0133789Y0069190D01*
X0133789Y0067591D02*
X0129326Y0067591D01*
X0128736Y0065993D02*
X0134380Y0065993D01*
X0137374Y0065993D02*
X0137742Y0065993D01*
X0137742Y0067591D02*
X0137374Y0067591D01*
X0137374Y0069190D02*
X0137742Y0069190D01*
X0125742Y0069190D02*
X0125374Y0069190D01*
X0125374Y0067591D02*
X0125742Y0067591D01*
X0125742Y0065993D02*
X0125374Y0065993D01*
X0161558Y0054431D02*
X0161558Y0034840D01*
X0157867Y0030825D02*
X0154482Y0030825D01*
X0155974Y0029227D02*
X0157494Y0029227D01*
X0156724Y0027628D02*
X0156636Y0027628D01*
X0161557Y0054431D02*
X0161246Y0054570D01*
X0160938Y0054717D01*
X0160634Y0054872D01*
X0160334Y0055034D01*
X0160038Y0055203D01*
X0159746Y0055379D01*
X0159458Y0055563D01*
X0159175Y0055753D01*
X0158897Y0055950D01*
X0158624Y0056154D01*
X0158355Y0056365D01*
X0158092Y0056582D01*
X0157835Y0056806D01*
X0157583Y0057036D01*
X0157336Y0057271D01*
X0157096Y0057513D01*
X0156861Y0057761D01*
X0156633Y0058014D01*
X0156411Y0058273D01*
X0156195Y0058537D01*
X0155986Y0058807D01*
X0155783Y0059081D01*
X0155587Y0059360D01*
X0155398Y0059644D01*
X0155216Y0059933D01*
X0155041Y0060226D01*
X0154874Y0060523D01*
X0154714Y0060824D01*
X0154561Y0061129D01*
X0154415Y0061437D01*
X0154277Y0061749D01*
X0154147Y0062065D01*
X0154025Y0062383D01*
X0153910Y0062704D01*
X0153804Y0063028D01*
X0153705Y0063355D01*
X0153614Y0063684D01*
X0153532Y0064015D01*
X0153457Y0064347D01*
X0153391Y0064682D01*
X0153333Y0065018D01*
X0153283Y0065356D01*
X0153241Y0065694D01*
X0153208Y0066034D01*
X0153183Y0066374D01*
X0153166Y0066714D01*
X0153158Y0067055D01*
X0153158Y0067397D01*
X0153166Y0067738D01*
X0153183Y0068078D01*
X0153208Y0068418D01*
X0153241Y0068758D01*
X0153283Y0069096D01*
X0153333Y0069434D01*
X0153391Y0069770D01*
X0153457Y0070105D01*
X0153532Y0070437D01*
X0153614Y0070768D01*
X0153705Y0071097D01*
X0153804Y0071424D01*
X0153910Y0071748D01*
X0154025Y0072069D01*
X0154147Y0072387D01*
X0154277Y0072703D01*
X0154415Y0073015D01*
X0154561Y0073323D01*
X0154714Y0073628D01*
X0154874Y0073929D01*
X0155041Y0074226D01*
X0155216Y0074519D01*
X0155398Y0074808D01*
X0155587Y0075092D01*
X0155783Y0075371D01*
X0155986Y0075645D01*
X0156195Y0075915D01*
X0156411Y0076179D01*
X0156633Y0076438D01*
X0156861Y0076691D01*
X0157096Y0076939D01*
X0157336Y0077181D01*
X0157583Y0077416D01*
X0157835Y0077646D01*
X0158092Y0077870D01*
X0158355Y0078087D01*
X0158624Y0078298D01*
X0158897Y0078502D01*
X0159175Y0078699D01*
X0159458Y0078889D01*
X0159746Y0079073D01*
X0160038Y0079249D01*
X0160334Y0079418D01*
X0160634Y0079580D01*
X0160938Y0079735D01*
X0161246Y0079882D01*
X0161557Y0080021D01*
X0068291Y0065993D02*
X0067694Y0065993D01*
X0066029Y0065993D02*
X0065431Y0065993D01*
X0039151Y0089970D02*
X0036326Y0089970D01*
X0037829Y0088372D02*
X0034728Y0088372D01*
X0033129Y0086773D02*
X0036648Y0086773D01*
X0038439Y0136327D02*
X0019658Y0136327D01*
X0019658Y0137926D02*
X0036960Y0137926D01*
X0036865Y0139524D02*
X0019658Y0139524D01*
X0020355Y0144320D02*
X0023169Y0144320D01*
X0021949Y0145918D02*
X0020845Y0145918D01*
X0042698Y0141123D02*
X0044410Y0141123D01*
X0046706Y0141123D02*
X0048595Y0141123D01*
X0050558Y0141123D02*
X0050558Y0141123D01*
X0050558Y0142721D02*
X0050558Y0142721D01*
X0052293Y0139524D02*
X0042538Y0139524D01*
X0059705Y0149115D02*
X0064857Y0149115D01*
X0061233Y0150714D02*
X0059858Y0150714D01*
D12*
X0058558Y0117840D03*
X0119558Y0117840D03*
X0119558Y0056840D03*
X0058558Y0056840D03*
D13*
X0050558Y0143840D03*
X0045558Y0143840D03*
X0040558Y0143840D03*
X0040558Y0148840D03*
X0045558Y0148840D03*
X0050558Y0148840D03*
D14*
G36*
X0096972Y0117946D02*
X0091824Y0123094D01*
X0093216Y0124486D01*
X0098364Y0119338D01*
X0096972Y0117946D01*
G37*
G36*
X0098921Y0119894D02*
X0093773Y0125042D01*
X0095165Y0126434D01*
X0100313Y0121286D01*
X0098921Y0119894D01*
G37*
G36*
X0100870Y0121843D02*
X0095722Y0126991D01*
X0097114Y0128383D01*
X0102262Y0123235D01*
X0100870Y0121843D01*
G37*
G36*
X0102819Y0123792D02*
X0097671Y0128940D01*
X0099063Y0130332D01*
X0104211Y0125184D01*
X0102819Y0123792D01*
G37*
G36*
X0104767Y0125740D02*
X0099619Y0130888D01*
X0101011Y0132280D01*
X0106159Y0127132D01*
X0104767Y0125740D01*
G37*
G36*
X0106716Y0127689D02*
X0101568Y0132837D01*
X0102960Y0134229D01*
X0108108Y0129081D01*
X0106716Y0127689D01*
G37*
G36*
X0108665Y0129638D02*
X0103517Y0134786D01*
X0104909Y0136178D01*
X0110057Y0131030D01*
X0108665Y0129638D01*
G37*
G36*
X0110613Y0131587D02*
X0105465Y0136735D01*
X0106857Y0138127D01*
X0112005Y0132979D01*
X0110613Y0131587D01*
G37*
G36*
X0112562Y0133535D02*
X0107414Y0138683D01*
X0108806Y0140075D01*
X0113954Y0134927D01*
X0112562Y0133535D01*
G37*
G36*
X0114511Y0135484D02*
X0109363Y0140632D01*
X0110755Y0142024D01*
X0115903Y0136876D01*
X0114511Y0135484D01*
G37*
G36*
X0126203Y0147176D02*
X0121055Y0152324D01*
X0122447Y0153716D01*
X0127595Y0148568D01*
X0126203Y0147176D01*
G37*
G36*
X0128152Y0149125D02*
X0123004Y0154273D01*
X0124396Y0155665D01*
X0129544Y0150517D01*
X0128152Y0149125D01*
G37*
G36*
X0155991Y0121286D02*
X0150843Y0126434D01*
X0152235Y0127826D01*
X0157383Y0122678D01*
X0155991Y0121286D01*
G37*
G36*
X0154042Y0119338D02*
X0148894Y0124486D01*
X0150286Y0125878D01*
X0155434Y0120730D01*
X0154042Y0119338D01*
G37*
G36*
X0152093Y0117389D02*
X0146945Y0122537D01*
X0148337Y0123929D01*
X0153485Y0118781D01*
X0152093Y0117389D01*
G37*
G36*
X0150145Y0115440D02*
X0144997Y0120588D01*
X0146389Y0121980D01*
X0151537Y0116832D01*
X0150145Y0115440D01*
G37*
G36*
X0148196Y0113491D02*
X0143048Y0118639D01*
X0144440Y0120031D01*
X0149588Y0114883D01*
X0148196Y0113491D01*
G37*
G36*
X0146247Y0111543D02*
X0141099Y0116691D01*
X0142491Y0118083D01*
X0147639Y0112935D01*
X0146247Y0111543D01*
G37*
G36*
X0144298Y0109594D02*
X0139150Y0114742D01*
X0140542Y0116134D01*
X0145690Y0110986D01*
X0144298Y0109594D01*
G37*
G36*
X0142350Y0107645D02*
X0137202Y0112793D01*
X0138594Y0114185D01*
X0143742Y0109037D01*
X0142350Y0107645D01*
G37*
G36*
X0140401Y0105697D02*
X0135253Y0110845D01*
X0136645Y0112237D01*
X0141793Y0107089D01*
X0140401Y0105697D01*
G37*
G36*
X0138452Y0103748D02*
X0133304Y0108896D01*
X0134696Y0110288D01*
X0139844Y0105140D01*
X0138452Y0103748D01*
G37*
G36*
X0136504Y0101799D02*
X0131356Y0106947D01*
X0132748Y0108339D01*
X0137896Y0103191D01*
X0136504Y0101799D01*
G37*
G36*
X0134555Y0099850D02*
X0129407Y0104998D01*
X0130799Y0106390D01*
X0135947Y0101242D01*
X0134555Y0099850D01*
G37*
G36*
X0132606Y0097902D02*
X0127458Y0103050D01*
X0128850Y0104442D01*
X0133998Y0099294D01*
X0132606Y0097902D01*
G37*
G36*
X0130657Y0095953D02*
X0125509Y0101101D01*
X0126901Y0102493D01*
X0132049Y0097345D01*
X0130657Y0095953D01*
G37*
G36*
X0128709Y0094004D02*
X0123561Y0099152D01*
X0124953Y0100544D01*
X0130101Y0095396D01*
X0128709Y0094004D01*
G37*
G36*
X0126760Y0092055D02*
X0121612Y0097203D01*
X0123004Y0098595D01*
X0128152Y0093447D01*
X0126760Y0092055D01*
G37*
G36*
X0124811Y0090107D02*
X0119663Y0095255D01*
X0121055Y0096647D01*
X0126203Y0091499D01*
X0124811Y0090107D01*
G37*
D15*
G36*
X0113817Y0087323D02*
X0112425Y0088715D01*
X0117573Y0093863D01*
X0118965Y0092471D01*
X0113817Y0087323D01*
G37*
G36*
X0111868Y0089272D02*
X0110476Y0090664D01*
X0115624Y0095812D01*
X0117016Y0094420D01*
X0111868Y0089272D01*
G37*
G36*
X0109920Y0091220D02*
X0108528Y0092612D01*
X0113676Y0097760D01*
X0115068Y0096368D01*
X0109920Y0091220D01*
G37*
G36*
X0107971Y0093169D02*
X0106579Y0094561D01*
X0111727Y0099709D01*
X0113119Y0098317D01*
X0107971Y0093169D01*
G37*
G36*
X0106022Y0095118D02*
X0104630Y0096510D01*
X0109778Y0101658D01*
X0111170Y0100266D01*
X0106022Y0095118D01*
G37*
G36*
X0104074Y0097066D02*
X0102682Y0098458D01*
X0107830Y0103606D01*
X0109222Y0102214D01*
X0104074Y0097066D01*
G37*
G36*
X0102125Y0099015D02*
X0100733Y0100407D01*
X0105881Y0105555D01*
X0107273Y0104163D01*
X0102125Y0099015D01*
G37*
G36*
X0100176Y0100964D02*
X0098784Y0102356D01*
X0103932Y0107504D01*
X0105324Y0106112D01*
X0100176Y0100964D01*
G37*
G36*
X0098227Y0102913D02*
X0096835Y0104305D01*
X0101983Y0109453D01*
X0103375Y0108061D01*
X0098227Y0102913D01*
G37*
G36*
X0096279Y0104861D02*
X0094887Y0106253D01*
X0100035Y0111401D01*
X0101427Y0110009D01*
X0096279Y0104861D01*
G37*
G36*
X0094330Y0106810D02*
X0092938Y0108202D01*
X0098086Y0113350D01*
X0099478Y0111958D01*
X0094330Y0106810D01*
G37*
G36*
X0092381Y0108759D02*
X0090989Y0110151D01*
X0096137Y0115299D01*
X0097529Y0113907D01*
X0092381Y0108759D01*
G37*
G36*
X0090433Y0110708D02*
X0089041Y0112100D01*
X0094189Y0117248D01*
X0095581Y0115856D01*
X0090433Y0110708D01*
G37*
D16*
G36*
X0077785Y0120396D02*
X0080846Y0117335D01*
X0078063Y0114552D01*
X0075002Y0117613D01*
X0077785Y0120396D01*
G37*
G36*
X0073053Y0125128D02*
X0076114Y0122067D01*
X0073331Y0119284D01*
X0070270Y0122345D01*
X0073053Y0125128D01*
G37*
G36*
X0068270Y0129335D02*
X0071331Y0132396D01*
X0074114Y0129613D01*
X0071053Y0126552D01*
X0068270Y0129335D01*
G37*
G36*
X0073002Y0134067D02*
X0076063Y0137128D01*
X0078846Y0134345D01*
X0075785Y0131284D01*
X0073002Y0134067D01*
G37*
G36*
X0088114Y0143613D02*
X0085053Y0140552D01*
X0082270Y0143335D01*
X0085331Y0146396D01*
X0088114Y0143613D01*
G37*
G36*
X0092846Y0148345D02*
X0089785Y0145284D01*
X0087002Y0148067D01*
X0090063Y0151128D01*
X0092846Y0148345D01*
G37*
G36*
X0096053Y0149128D02*
X0099114Y0146067D01*
X0096331Y0143284D01*
X0093270Y0146345D01*
X0096053Y0149128D01*
G37*
G36*
X0100785Y0144396D02*
X0103846Y0141335D01*
X0101063Y0138552D01*
X0098002Y0141613D01*
X0100785Y0144396D01*
G37*
G36*
X0139846Y0093345D02*
X0136785Y0090284D01*
X0134002Y0093067D01*
X0137063Y0096128D01*
X0139846Y0093345D01*
G37*
G36*
X0135114Y0088613D02*
X0132053Y0085552D01*
X0129270Y0088335D01*
X0132331Y0091396D01*
X0135114Y0088613D01*
G37*
D17*
G36*
X0086863Y0136433D02*
X0089925Y0139495D01*
X0095213Y0134207D01*
X0092151Y0131145D01*
X0086863Y0136433D01*
G37*
G36*
X0079903Y0129473D02*
X0082965Y0132535D01*
X0088253Y0127247D01*
X0085191Y0124185D01*
X0079903Y0129473D01*
G37*
D18*
X0125558Y0076187D03*
X0125558Y0069494D03*
X0137558Y0069494D03*
X0137558Y0076187D03*
X0153058Y0092494D03*
X0153058Y0099187D03*
D19*
X0066861Y0065694D02*
X0066863Y0065694D01*
X0066862Y0065693D01*
X0066861Y0065692D01*
X0066860Y0065693D01*
X0066859Y0065694D01*
X0066860Y0065695D01*
X0066861Y0065696D01*
X0066862Y0065695D01*
X0066863Y0065694D01*
D20*
G36*
X0095119Y0023240D02*
X0088159Y0030200D01*
X0102355Y0044396D01*
X0109315Y0037436D01*
X0095119Y0023240D01*
G37*
G36*
X0031368Y0086991D02*
X0024408Y0093951D01*
X0038604Y0108147D01*
X0045564Y0101187D01*
X0031368Y0086991D01*
G37*
D21*
X0034986Y0097569D02*
X0034986Y0097768D01*
X0045058Y0107840D01*
X0082558Y0107840D01*
X0084558Y0109840D01*
X0077924Y0116474D01*
X0077924Y0117474D01*
X0083558Y0119840D02*
X0079558Y0123840D01*
X0074825Y0123840D01*
X0073192Y0122206D01*
X0071594Y0123804D01*
X0071594Y0128877D01*
X0071192Y0129280D01*
X0071192Y0129474D01*
X0071924Y0130474D01*
X0068058Y0134340D01*
X0067558Y0133840D01*
X0061558Y0133840D01*
X0057558Y0137840D01*
X0052794Y0137840D01*
X0050558Y0140076D01*
X0050558Y0143840D01*
X0040558Y0143840D02*
X0040058Y0138840D01*
X0039558Y0138840D01*
X0058558Y0130840D02*
X0061558Y0133840D01*
X0058558Y0130840D02*
X0058558Y0117840D01*
X0073192Y0122206D02*
X0073192Y0122474D01*
X0083593Y0119878D02*
X0086311Y0120087D01*
X0092311Y0113978D01*
X0094259Y0112029D02*
X0091314Y0109084D01*
X0091071Y0108840D02*
X0090558Y0107840D01*
X0090558Y0100340D01*
X0110058Y0080840D01*
X0110058Y0047340D01*
X0098737Y0035019D01*
X0098737Y0033818D01*
X0117558Y0056840D02*
X0119558Y0056840D01*
X0117558Y0056840D02*
X0115558Y0058840D01*
X0115558Y0067840D01*
X0115558Y0084840D01*
X0115695Y0084978D01*
X0115695Y0085840D01*
X0115695Y0090593D01*
X0090558Y0107840D02*
X0086558Y0107840D01*
X0084558Y0109840D01*
X0068058Y0134340D02*
X0084424Y0149706D01*
X0089924Y0148206D01*
X0091558Y0148840D01*
X0094845Y0148553D01*
X0097845Y0146206D01*
X0101533Y0142083D02*
X0109315Y0142083D01*
X0112633Y0138765D01*
X0112633Y0138754D01*
X0120558Y0146840D02*
X0120558Y0120340D01*
X0119558Y0117840D01*
X0097058Y0137840D02*
X0100692Y0141474D01*
X0100924Y0141474D01*
X0101533Y0142083D01*
X0084424Y0149706D02*
X0083558Y0150573D01*
X0083558Y0151840D01*
X0120558Y0146840D02*
X0124164Y0150446D01*
X0124325Y0150446D01*
X0126274Y0152395D02*
X0153842Y0124827D01*
X0084008Y0082840D02*
X0066861Y0065694D01*
D22*
X0078558Y0101840D02*
X0085558Y0101840D01*
X0091071Y0108840D02*
X0091558Y0108840D01*
X0094259Y0111542D01*
X0094259Y0112029D01*
X0091314Y0109084D02*
X0091071Y0108840D01*
X0098992Y0125113D02*
X0098992Y0125406D01*
X0096558Y0127840D01*
X0085598Y0127840D01*
X0091038Y0135320D02*
X0092682Y0135320D01*
X0100941Y0127062D01*
X0097845Y0146206D02*
X0096192Y0146206D01*
X0077232Y0135206D02*
X0075924Y0134206D01*
X0042558Y0155840D02*
X0041558Y0154840D01*
X0040558Y0148840D01*
X0115695Y0090978D02*
X0115695Y0090593D01*
X0115695Y0085840D02*
X0129558Y0085840D01*
X0132192Y0088474D01*
X0136924Y0093206D02*
X0139558Y0095840D01*
X0141558Y0095840D01*
X0141558Y0102840D01*
X0147558Y0108840D01*
X0147558Y0111840D01*
X0144585Y0114813D01*
X0146318Y0116080D02*
X0149558Y0112840D01*
X0149558Y0106340D01*
X0147558Y0104340D01*
X0147558Y0097840D01*
X0146558Y0096840D01*
X0131558Y0081840D01*
X0127558Y0081840D01*
X0125558Y0079840D01*
X0125558Y0076187D01*
X0125558Y0069494D02*
X0124904Y0068840D01*
X0116558Y0068840D01*
X0115558Y0067840D01*
X0125558Y0069494D02*
X0126211Y0068840D01*
X0138558Y0068840D01*
X0139211Y0069494D01*
X0137558Y0069494D01*
X0139714Y0068963D01*
X0141558Y0070596D01*
X0141558Y0080840D01*
X0153058Y0092494D01*
X0149558Y0095840D02*
X0132558Y0078840D01*
X0135211Y0076187D01*
X0137558Y0076187D01*
X0149558Y0095840D02*
X0149558Y0102840D01*
X0151558Y0104840D01*
X0151558Y0115419D01*
X0148267Y0118710D01*
X0150215Y0120659D02*
X0152558Y0118316D01*
X0155558Y0115340D01*
X0155558Y0114840D01*
X0154558Y0113840D01*
X0154558Y0100687D01*
X0153058Y0099187D01*
X0140472Y0110915D02*
X0140472Y0110926D01*
X0130558Y0120840D01*
X0130558Y0139840D01*
X0133558Y0137840D02*
X0133558Y0121840D01*
X0142534Y0112864D01*
X0153842Y0124556D02*
X0154113Y0124556D01*
X0126274Y0152395D02*
X0124719Y0150840D01*
X0124558Y0150840D01*
X0124325Y0150608D01*
X0124325Y0150446D01*
D23*
X0120558Y0146840D03*
X0116558Y0149840D03*
X0118558Y0152840D03*
X0121558Y0155840D03*
X0115558Y0155840D03*
X0111058Y0155840D03*
X0106558Y0155840D03*
X0101558Y0155840D03*
X0097558Y0153840D03*
X0099058Y0150340D03*
X0101558Y0147840D03*
X0092558Y0155840D03*
X0085558Y0155840D03*
X0083558Y0151840D03*
X0079558Y0145340D03*
X0081058Y0137840D03*
X0072058Y0138340D03*
X0067558Y0142340D03*
X0063558Y0143340D03*
X0053558Y0155840D03*
X0042558Y0155840D03*
X0038558Y0155840D03*
X0036058Y0152840D03*
X0033558Y0155840D03*
X0032558Y0139840D03*
X0026558Y0138840D03*
X0025558Y0133840D03*
X0021558Y0137840D03*
X0020558Y0132840D03*
X0020558Y0123840D03*
X0020558Y0113840D03*
X0024558Y0108840D03*
X0030058Y0105840D03*
X0030058Y0115840D03*
X0030058Y0123840D03*
X0037058Y0128840D03*
X0030058Y0132840D03*
X0039558Y0138840D03*
X0044558Y0137840D03*
X0020558Y0101840D03*
X0020558Y0090840D03*
X0028558Y0084840D03*
X0020558Y0080840D03*
X0020558Y0070840D03*
X0027558Y0062840D03*
X0030558Y0052840D03*
X0029558Y0041840D03*
X0027558Y0034840D03*
X0020558Y0029340D03*
X0029558Y0019340D03*
X0035558Y0024840D03*
X0042558Y0028840D03*
X0036058Y0034340D03*
X0053558Y0028840D03*
X0065558Y0025840D03*
X0072558Y0018840D03*
X0081558Y0018840D03*
X0088558Y0018840D03*
X0095558Y0018840D03*
X0104558Y0018840D03*
X0114558Y0018840D03*
X0123558Y0018840D03*
X0132558Y0018840D03*
X0132558Y0026840D03*
X0141558Y0027840D03*
X0141558Y0018840D03*
X0156558Y0033840D03*
X0155558Y0039840D03*
X0157058Y0045840D03*
X0152558Y0051340D03*
X0145558Y0044840D03*
X0145558Y0037840D03*
X0137558Y0038840D03*
X0123058Y0032840D03*
X0108058Y0030840D03*
X0085558Y0026840D03*
X0103558Y0078840D03*
X0109058Y0087340D03*
X0101558Y0094340D03*
X0095058Y0101340D03*
X0085558Y0101840D03*
X0078558Y0101840D03*
X0084558Y0109840D03*
X0083558Y0119840D03*
X0097058Y0137840D03*
X0115558Y0145840D03*
X0130558Y0147840D03*
X0134558Y0143840D03*
X0138058Y0140340D03*
X0142058Y0136340D03*
X0138058Y0133340D03*
X0142058Y0129340D03*
X0145558Y0125840D03*
X0149558Y0128840D03*
X0146058Y0132340D03*
X0133558Y0137840D03*
X0130558Y0139840D03*
X0155558Y0115340D03*
X0157558Y0118840D03*
X0157558Y0110840D03*
X0157558Y0105340D03*
X0146558Y0096840D03*
X0141558Y0095840D03*
X0138558Y0099340D03*
X0144558Y0101840D03*
X0157558Y0093340D03*
X0157558Y0088840D03*
X0157558Y0084340D03*
X0152558Y0084840D03*
X0145058Y0069840D03*
X0142558Y0063840D03*
X0144558Y0055840D03*
X0150558Y0059840D03*
X0132558Y0078840D03*
D24*
X0142420Y0112864D02*
X0142534Y0112864D01*
X0144369Y0114813D02*
X0144585Y0114813D01*
X0146318Y0116080D02*
X0146318Y0116761D01*
D25*
X0091038Y0135320D02*
X0085884Y0140474D01*
X0085192Y0143474D01*
X0077232Y0135206D02*
X0077232Y0135166D01*
X0079558Y0132840D01*
X0079598Y0132840D01*
X0084078Y0128360D01*
X0053558Y0155840D02*
X0052558Y0155340D01*
X0051058Y0155340D01*
X0045558Y0148840D01*
M02*
