%
M48
M72
T01C0.0130
T02C0.0200
T03C0.0400
T04C0.0800
%
T01
X2956Y1984
X3656Y1884
X4356Y2584
X3606Y3434
X2756Y4184
X2056Y3584
X2056Y3084
X3056Y5284
X2756Y6284
X2056Y7084
X2056Y8084
X2856Y8484
X2056Y9084
X2056Y10184
X3006Y10584
X3006Y11584
X3006Y12384
X3706Y12884
X3006Y13284
X3256Y13984
X3756Y13884
X4156Y14284
X4256Y13484
X4656Y14984
X4256Y15084
X3956Y15584
X3156Y15584
X2256Y14784
X2056Y14084
X2056Y13284
X2056Y12384
X2056Y11384
X7056Y15634
X7556Y15384
X7106Y15084
X7956Y14534
X8356Y15184
X7956Y15634
X8956Y15634
X9656Y15284
X9856Y15634
X10556Y14684
X11256Y14684
X11256Y15184
X11156Y15634
X11656Y15634
X12156Y15634
X11856Y15184
X12056Y14684
X13056Y14784
X13456Y14384
X13806Y14034
X14206Y13634
X14606Y13234
X14956Y12884
X14556Y12484
X14206Y12834
X13806Y13234
X13356Y13684
X13056Y13884
X15556Y11534
X15806Y11984
X15806Y11084
X15806Y10334
X15806Y9734
X15806Y9084
X15806Y8284
X15156Y8334
X14456Y7884
X13256Y7884
X14256Y6384
X15006Y6584
X15556Y6684
X15806Y7384
X15056Y5784
X14256Y4984
X15056Y4784
X15556Y3984
X15756Y2984
X15056Y2084
X14156Y1884
X14156Y2784
X13256Y1884
X12356Y1884
X11456Y1884
X10456Y1884
X9556Y1884
X8856Y1884
X8156Y1884
X8556Y2684
X7256Y1884
X6556Y2584
X5356Y2884
X10356Y7884
X10906Y8834
X10156Y9534
X9506Y10234
X8556Y10184
X7856Y10184
X8456Y10984
X8356Y12084
X8356Y13534
X9356Y13884
X9856Y13884
X10256Y13684
X9906Y13334
X7206Y13834
X13756Y9934
X14056Y9684
X14406Y10084
X14656Y9684
X13656Y3984
X12306Y3284
X10806Y3084
T02
X11956Y5684
X5856Y5684
X5856Y11784
X11956Y11784
T03
X6656Y14084
X6656Y14884
X4656Y14484
T04
X2756Y2684
X2956Y14884
X10456Y15384
X15056Y7384
X15056Y2784
M30
