G75*
%MOIN*%
%OFA0B0*%
%FSLAX25Y25*%
%IPPOS*%
%LPD*%
%AMOC8*
5,1,8,0,0,1.08239X$1,22.5*
%
%ADD10C,0.15000*%
%ADD11C,0.02500*%
%ADD12R,0.04000X0.04000*%
%ADD13C,0.07000*%
%ADD14C,0.02000*%
%ADD15C,0.01000*%
D10*
X0058558Y0056840D03*
X0119558Y0056840D03*
X0119558Y0117840D03*
X0058558Y0117840D03*
D11*
X0042558Y0134840D03*
X0037558Y0138840D03*
X0032558Y0139840D03*
X0025558Y0139840D03*
X0020558Y0140840D03*
X0022558Y0147840D03*
X0031558Y0155840D03*
X0037558Y0155840D03*
X0037058Y0151840D03*
X0042558Y0155840D03*
X0048558Y0155840D03*
X0067558Y0142340D03*
X0072058Y0138340D03*
X0079558Y0145340D03*
X0079558Y0150840D03*
X0083558Y0151840D03*
X0085558Y0156340D03*
X0092558Y0156340D03*
X0096558Y0152840D03*
X0098558Y0156340D03*
X0105558Y0146840D03*
X0112558Y0146840D03*
X0112558Y0151840D03*
X0111558Y0156340D03*
X0116558Y0156340D03*
X0121558Y0156340D03*
X0118558Y0151840D03*
X0120558Y0146840D03*
X0130558Y0147840D03*
X0134558Y0143840D03*
X0138058Y0140340D03*
X0142058Y0136340D03*
X0146058Y0132340D03*
X0149558Y0128840D03*
X0145558Y0124840D03*
X0142058Y0128340D03*
X0138058Y0132340D03*
X0133558Y0136840D03*
X0130558Y0138840D03*
X0155558Y0115340D03*
X0158058Y0119840D03*
X0158058Y0110840D03*
X0158058Y0103340D03*
X0158058Y0097340D03*
X0158058Y0090840D03*
X0146558Y0096840D03*
X0144058Y0100840D03*
X0140558Y0096840D03*
X0137558Y0099340D03*
X0146558Y0080840D03*
X0149558Y0077340D03*
X0148058Y0071840D03*
X0150058Y0065840D03*
X0150558Y0057840D03*
X0142558Y0063840D03*
X0142558Y0049840D03*
X0150558Y0047840D03*
X0156058Y0048840D03*
X0155558Y0039840D03*
X0157558Y0029840D03*
X0150558Y0020840D03*
X0141558Y0018840D03*
X0132558Y0018840D03*
X0123558Y0018840D03*
X0114558Y0018840D03*
X0104558Y0018840D03*
X0095558Y0018840D03*
X0088558Y0018840D03*
X0081558Y0018840D03*
X0085558Y0026840D03*
X0072558Y0018840D03*
X0065558Y0025840D03*
X0053558Y0028840D03*
X0042558Y0028840D03*
X0035558Y0024840D03*
X0029558Y0019840D03*
X0020558Y0029840D03*
X0027558Y0034840D03*
X0029558Y0041840D03*
X0036058Y0034340D03*
X0030558Y0052840D03*
X0027558Y0062840D03*
X0020558Y0070840D03*
X0020558Y0080840D03*
X0028558Y0084840D03*
X0020558Y0090840D03*
X0020558Y0101840D03*
X0030058Y0105840D03*
X0030058Y0115840D03*
X0030058Y0123840D03*
X0037058Y0128840D03*
X0030058Y0132840D03*
X0020558Y0132840D03*
X0020558Y0123840D03*
X0020558Y0113840D03*
X0064469Y0097783D03*
X0078558Y0101840D03*
X0085558Y0101840D03*
X0084558Y0109840D03*
X0095058Y0102340D03*
X0101558Y0095340D03*
X0109058Y0088340D03*
X0103558Y0078840D03*
X0113647Y0076898D03*
X0132558Y0078840D03*
X0099500Y0111929D03*
X0083558Y0120840D03*
X0083558Y0135340D03*
X0093558Y0138840D03*
X0098558Y0138840D03*
X0102558Y0136840D03*
X0099058Y0133340D03*
X0078615Y0062751D03*
X0108058Y0030840D03*
X0123058Y0032840D03*
X0136558Y0039840D03*
X0145558Y0037840D03*
X0141558Y0027840D03*
D12*
X0119558Y0056840D03*
X0058558Y0056840D03*
X0058558Y0117840D03*
X0119558Y0117840D03*
D13*
X0101858Y0117840D02*
X0101863Y0118274D01*
X0101879Y0118708D01*
X0101906Y0119142D01*
X0101943Y0119575D01*
X0101991Y0120007D01*
X0102050Y0120437D01*
X0102119Y0120866D01*
X0102198Y0121293D01*
X0102288Y0121718D01*
X0102388Y0122141D01*
X0102499Y0122561D01*
X0102620Y0122978D01*
X0102751Y0123392D01*
X0102893Y0123803D01*
X0103044Y0124210D01*
X0103205Y0124613D01*
X0103376Y0125013D01*
X0103557Y0125408D01*
X0103748Y0125798D01*
X0103948Y0126184D01*
X0104157Y0126564D01*
X0104376Y0126940D01*
X0104604Y0127309D01*
X0104841Y0127674D01*
X0105087Y0128032D01*
X0105341Y0128384D01*
X0105604Y0128730D01*
X0105876Y0129069D01*
X0106155Y0129401D01*
X0106443Y0129727D01*
X0106739Y0130045D01*
X0107042Y0130356D01*
X0107353Y0130659D01*
X0107671Y0130955D01*
X0107997Y0131243D01*
X0108329Y0131522D01*
X0108668Y0131794D01*
X0109014Y0132057D01*
X0109366Y0132311D01*
X0109724Y0132557D01*
X0110089Y0132794D01*
X0110458Y0133022D01*
X0110834Y0133241D01*
X0111214Y0133450D01*
X0111600Y0133650D01*
X0111990Y0133841D01*
X0112385Y0134022D01*
X0112785Y0134193D01*
X0113188Y0134354D01*
X0113595Y0134505D01*
X0114006Y0134647D01*
X0114420Y0134778D01*
X0114837Y0134899D01*
X0115257Y0135010D01*
X0115680Y0135110D01*
X0116105Y0135200D01*
X0116532Y0135279D01*
X0116961Y0135348D01*
X0117391Y0135407D01*
X0117823Y0135455D01*
X0118256Y0135492D01*
X0118690Y0135519D01*
X0119124Y0135535D01*
X0119558Y0135540D01*
X0119992Y0135535D01*
X0120426Y0135519D01*
X0120860Y0135492D01*
X0121293Y0135455D01*
X0121725Y0135407D01*
X0122155Y0135348D01*
X0122584Y0135279D01*
X0123011Y0135200D01*
X0123436Y0135110D01*
X0123859Y0135010D01*
X0124279Y0134899D01*
X0124696Y0134778D01*
X0125110Y0134647D01*
X0125521Y0134505D01*
X0125928Y0134354D01*
X0126331Y0134193D01*
X0126731Y0134022D01*
X0127126Y0133841D01*
X0127516Y0133650D01*
X0127902Y0133450D01*
X0128282Y0133241D01*
X0128658Y0133022D01*
X0129027Y0132794D01*
X0129392Y0132557D01*
X0129750Y0132311D01*
X0130102Y0132057D01*
X0130448Y0131794D01*
X0130787Y0131522D01*
X0131119Y0131243D01*
X0131445Y0130955D01*
X0131763Y0130659D01*
X0132074Y0130356D01*
X0132377Y0130045D01*
X0132673Y0129727D01*
X0132961Y0129401D01*
X0133240Y0129069D01*
X0133512Y0128730D01*
X0133775Y0128384D01*
X0134029Y0128032D01*
X0134275Y0127674D01*
X0134512Y0127309D01*
X0134740Y0126940D01*
X0134959Y0126564D01*
X0135168Y0126184D01*
X0135368Y0125798D01*
X0135559Y0125408D01*
X0135740Y0125013D01*
X0135911Y0124613D01*
X0136072Y0124210D01*
X0136223Y0123803D01*
X0136365Y0123392D01*
X0136496Y0122978D01*
X0136617Y0122561D01*
X0136728Y0122141D01*
X0136828Y0121718D01*
X0136918Y0121293D01*
X0136997Y0120866D01*
X0137066Y0120437D01*
X0137125Y0120007D01*
X0137173Y0119575D01*
X0137210Y0119142D01*
X0137237Y0118708D01*
X0137253Y0118274D01*
X0137258Y0117840D01*
X0137253Y0117406D01*
X0137237Y0116972D01*
X0137210Y0116538D01*
X0137173Y0116105D01*
X0137125Y0115673D01*
X0137066Y0115243D01*
X0136997Y0114814D01*
X0136918Y0114387D01*
X0136828Y0113962D01*
X0136728Y0113539D01*
X0136617Y0113119D01*
X0136496Y0112702D01*
X0136365Y0112288D01*
X0136223Y0111877D01*
X0136072Y0111470D01*
X0135911Y0111067D01*
X0135740Y0110667D01*
X0135559Y0110272D01*
X0135368Y0109882D01*
X0135168Y0109496D01*
X0134959Y0109116D01*
X0134740Y0108740D01*
X0134512Y0108371D01*
X0134275Y0108006D01*
X0134029Y0107648D01*
X0133775Y0107296D01*
X0133512Y0106950D01*
X0133240Y0106611D01*
X0132961Y0106279D01*
X0132673Y0105953D01*
X0132377Y0105635D01*
X0132074Y0105324D01*
X0131763Y0105021D01*
X0131445Y0104725D01*
X0131119Y0104437D01*
X0130787Y0104158D01*
X0130448Y0103886D01*
X0130102Y0103623D01*
X0129750Y0103369D01*
X0129392Y0103123D01*
X0129027Y0102886D01*
X0128658Y0102658D01*
X0128282Y0102439D01*
X0127902Y0102230D01*
X0127516Y0102030D01*
X0127126Y0101839D01*
X0126731Y0101658D01*
X0126331Y0101487D01*
X0125928Y0101326D01*
X0125521Y0101175D01*
X0125110Y0101033D01*
X0124696Y0100902D01*
X0124279Y0100781D01*
X0123859Y0100670D01*
X0123436Y0100570D01*
X0123011Y0100480D01*
X0122584Y0100401D01*
X0122155Y0100332D01*
X0121725Y0100273D01*
X0121293Y0100225D01*
X0120860Y0100188D01*
X0120426Y0100161D01*
X0119992Y0100145D01*
X0119558Y0100140D01*
X0119124Y0100145D01*
X0118690Y0100161D01*
X0118256Y0100188D01*
X0117823Y0100225D01*
X0117391Y0100273D01*
X0116961Y0100332D01*
X0116532Y0100401D01*
X0116105Y0100480D01*
X0115680Y0100570D01*
X0115257Y0100670D01*
X0114837Y0100781D01*
X0114420Y0100902D01*
X0114006Y0101033D01*
X0113595Y0101175D01*
X0113188Y0101326D01*
X0112785Y0101487D01*
X0112385Y0101658D01*
X0111990Y0101839D01*
X0111600Y0102030D01*
X0111214Y0102230D01*
X0110834Y0102439D01*
X0110458Y0102658D01*
X0110089Y0102886D01*
X0109724Y0103123D01*
X0109366Y0103369D01*
X0109014Y0103623D01*
X0108668Y0103886D01*
X0108329Y0104158D01*
X0107997Y0104437D01*
X0107671Y0104725D01*
X0107353Y0105021D01*
X0107042Y0105324D01*
X0106739Y0105635D01*
X0106443Y0105953D01*
X0106155Y0106279D01*
X0105876Y0106611D01*
X0105604Y0106950D01*
X0105341Y0107296D01*
X0105087Y0107648D01*
X0104841Y0108006D01*
X0104604Y0108371D01*
X0104376Y0108740D01*
X0104157Y0109116D01*
X0103948Y0109496D01*
X0103748Y0109882D01*
X0103557Y0110272D01*
X0103376Y0110667D01*
X0103205Y0111067D01*
X0103044Y0111470D01*
X0102893Y0111877D01*
X0102751Y0112288D01*
X0102620Y0112702D01*
X0102499Y0113119D01*
X0102388Y0113539D01*
X0102288Y0113962D01*
X0102198Y0114387D01*
X0102119Y0114814D01*
X0102050Y0115243D01*
X0101991Y0115673D01*
X0101943Y0116105D01*
X0101906Y0116538D01*
X0101879Y0116972D01*
X0101863Y0117406D01*
X0101858Y0117840D01*
X0040858Y0117840D02*
X0040863Y0118274D01*
X0040879Y0118708D01*
X0040906Y0119142D01*
X0040943Y0119575D01*
X0040991Y0120007D01*
X0041050Y0120437D01*
X0041119Y0120866D01*
X0041198Y0121293D01*
X0041288Y0121718D01*
X0041388Y0122141D01*
X0041499Y0122561D01*
X0041620Y0122978D01*
X0041751Y0123392D01*
X0041893Y0123803D01*
X0042044Y0124210D01*
X0042205Y0124613D01*
X0042376Y0125013D01*
X0042557Y0125408D01*
X0042748Y0125798D01*
X0042948Y0126184D01*
X0043157Y0126564D01*
X0043376Y0126940D01*
X0043604Y0127309D01*
X0043841Y0127674D01*
X0044087Y0128032D01*
X0044341Y0128384D01*
X0044604Y0128730D01*
X0044876Y0129069D01*
X0045155Y0129401D01*
X0045443Y0129727D01*
X0045739Y0130045D01*
X0046042Y0130356D01*
X0046353Y0130659D01*
X0046671Y0130955D01*
X0046997Y0131243D01*
X0047329Y0131522D01*
X0047668Y0131794D01*
X0048014Y0132057D01*
X0048366Y0132311D01*
X0048724Y0132557D01*
X0049089Y0132794D01*
X0049458Y0133022D01*
X0049834Y0133241D01*
X0050214Y0133450D01*
X0050600Y0133650D01*
X0050990Y0133841D01*
X0051385Y0134022D01*
X0051785Y0134193D01*
X0052188Y0134354D01*
X0052595Y0134505D01*
X0053006Y0134647D01*
X0053420Y0134778D01*
X0053837Y0134899D01*
X0054257Y0135010D01*
X0054680Y0135110D01*
X0055105Y0135200D01*
X0055532Y0135279D01*
X0055961Y0135348D01*
X0056391Y0135407D01*
X0056823Y0135455D01*
X0057256Y0135492D01*
X0057690Y0135519D01*
X0058124Y0135535D01*
X0058558Y0135540D01*
X0058992Y0135535D01*
X0059426Y0135519D01*
X0059860Y0135492D01*
X0060293Y0135455D01*
X0060725Y0135407D01*
X0061155Y0135348D01*
X0061584Y0135279D01*
X0062011Y0135200D01*
X0062436Y0135110D01*
X0062859Y0135010D01*
X0063279Y0134899D01*
X0063696Y0134778D01*
X0064110Y0134647D01*
X0064521Y0134505D01*
X0064928Y0134354D01*
X0065331Y0134193D01*
X0065731Y0134022D01*
X0066126Y0133841D01*
X0066516Y0133650D01*
X0066902Y0133450D01*
X0067282Y0133241D01*
X0067658Y0133022D01*
X0068027Y0132794D01*
X0068392Y0132557D01*
X0068750Y0132311D01*
X0069102Y0132057D01*
X0069448Y0131794D01*
X0069787Y0131522D01*
X0070119Y0131243D01*
X0070445Y0130955D01*
X0070763Y0130659D01*
X0071074Y0130356D01*
X0071377Y0130045D01*
X0071673Y0129727D01*
X0071961Y0129401D01*
X0072240Y0129069D01*
X0072512Y0128730D01*
X0072775Y0128384D01*
X0073029Y0128032D01*
X0073275Y0127674D01*
X0073512Y0127309D01*
X0073740Y0126940D01*
X0073959Y0126564D01*
X0074168Y0126184D01*
X0074368Y0125798D01*
X0074559Y0125408D01*
X0074740Y0125013D01*
X0074911Y0124613D01*
X0075072Y0124210D01*
X0075223Y0123803D01*
X0075365Y0123392D01*
X0075496Y0122978D01*
X0075617Y0122561D01*
X0075728Y0122141D01*
X0075828Y0121718D01*
X0075918Y0121293D01*
X0075997Y0120866D01*
X0076066Y0120437D01*
X0076125Y0120007D01*
X0076173Y0119575D01*
X0076210Y0119142D01*
X0076237Y0118708D01*
X0076253Y0118274D01*
X0076258Y0117840D01*
X0076253Y0117406D01*
X0076237Y0116972D01*
X0076210Y0116538D01*
X0076173Y0116105D01*
X0076125Y0115673D01*
X0076066Y0115243D01*
X0075997Y0114814D01*
X0075918Y0114387D01*
X0075828Y0113962D01*
X0075728Y0113539D01*
X0075617Y0113119D01*
X0075496Y0112702D01*
X0075365Y0112288D01*
X0075223Y0111877D01*
X0075072Y0111470D01*
X0074911Y0111067D01*
X0074740Y0110667D01*
X0074559Y0110272D01*
X0074368Y0109882D01*
X0074168Y0109496D01*
X0073959Y0109116D01*
X0073740Y0108740D01*
X0073512Y0108371D01*
X0073275Y0108006D01*
X0073029Y0107648D01*
X0072775Y0107296D01*
X0072512Y0106950D01*
X0072240Y0106611D01*
X0071961Y0106279D01*
X0071673Y0105953D01*
X0071377Y0105635D01*
X0071074Y0105324D01*
X0070763Y0105021D01*
X0070445Y0104725D01*
X0070119Y0104437D01*
X0069787Y0104158D01*
X0069448Y0103886D01*
X0069102Y0103623D01*
X0068750Y0103369D01*
X0068392Y0103123D01*
X0068027Y0102886D01*
X0067658Y0102658D01*
X0067282Y0102439D01*
X0066902Y0102230D01*
X0066516Y0102030D01*
X0066126Y0101839D01*
X0065731Y0101658D01*
X0065331Y0101487D01*
X0064928Y0101326D01*
X0064521Y0101175D01*
X0064110Y0101033D01*
X0063696Y0100902D01*
X0063279Y0100781D01*
X0062859Y0100670D01*
X0062436Y0100570D01*
X0062011Y0100480D01*
X0061584Y0100401D01*
X0061155Y0100332D01*
X0060725Y0100273D01*
X0060293Y0100225D01*
X0059860Y0100188D01*
X0059426Y0100161D01*
X0058992Y0100145D01*
X0058558Y0100140D01*
X0058124Y0100145D01*
X0057690Y0100161D01*
X0057256Y0100188D01*
X0056823Y0100225D01*
X0056391Y0100273D01*
X0055961Y0100332D01*
X0055532Y0100401D01*
X0055105Y0100480D01*
X0054680Y0100570D01*
X0054257Y0100670D01*
X0053837Y0100781D01*
X0053420Y0100902D01*
X0053006Y0101033D01*
X0052595Y0101175D01*
X0052188Y0101326D01*
X0051785Y0101487D01*
X0051385Y0101658D01*
X0050990Y0101839D01*
X0050600Y0102030D01*
X0050214Y0102230D01*
X0049834Y0102439D01*
X0049458Y0102658D01*
X0049089Y0102886D01*
X0048724Y0103123D01*
X0048366Y0103369D01*
X0048014Y0103623D01*
X0047668Y0103886D01*
X0047329Y0104158D01*
X0046997Y0104437D01*
X0046671Y0104725D01*
X0046353Y0105021D01*
X0046042Y0105324D01*
X0045739Y0105635D01*
X0045443Y0105953D01*
X0045155Y0106279D01*
X0044876Y0106611D01*
X0044604Y0106950D01*
X0044341Y0107296D01*
X0044087Y0107648D01*
X0043841Y0108006D01*
X0043604Y0108371D01*
X0043376Y0108740D01*
X0043157Y0109116D01*
X0042948Y0109496D01*
X0042748Y0109882D01*
X0042557Y0110272D01*
X0042376Y0110667D01*
X0042205Y0111067D01*
X0042044Y0111470D01*
X0041893Y0111877D01*
X0041751Y0112288D01*
X0041620Y0112702D01*
X0041499Y0113119D01*
X0041388Y0113539D01*
X0041288Y0113962D01*
X0041198Y0114387D01*
X0041119Y0114814D01*
X0041050Y0115243D01*
X0040991Y0115673D01*
X0040943Y0116105D01*
X0040906Y0116538D01*
X0040879Y0116972D01*
X0040863Y0117406D01*
X0040858Y0117840D01*
X0040858Y0056840D02*
X0040863Y0057274D01*
X0040879Y0057708D01*
X0040906Y0058142D01*
X0040943Y0058575D01*
X0040991Y0059007D01*
X0041050Y0059437D01*
X0041119Y0059866D01*
X0041198Y0060293D01*
X0041288Y0060718D01*
X0041388Y0061141D01*
X0041499Y0061561D01*
X0041620Y0061978D01*
X0041751Y0062392D01*
X0041893Y0062803D01*
X0042044Y0063210D01*
X0042205Y0063613D01*
X0042376Y0064013D01*
X0042557Y0064408D01*
X0042748Y0064798D01*
X0042948Y0065184D01*
X0043157Y0065564D01*
X0043376Y0065940D01*
X0043604Y0066309D01*
X0043841Y0066674D01*
X0044087Y0067032D01*
X0044341Y0067384D01*
X0044604Y0067730D01*
X0044876Y0068069D01*
X0045155Y0068401D01*
X0045443Y0068727D01*
X0045739Y0069045D01*
X0046042Y0069356D01*
X0046353Y0069659D01*
X0046671Y0069955D01*
X0046997Y0070243D01*
X0047329Y0070522D01*
X0047668Y0070794D01*
X0048014Y0071057D01*
X0048366Y0071311D01*
X0048724Y0071557D01*
X0049089Y0071794D01*
X0049458Y0072022D01*
X0049834Y0072241D01*
X0050214Y0072450D01*
X0050600Y0072650D01*
X0050990Y0072841D01*
X0051385Y0073022D01*
X0051785Y0073193D01*
X0052188Y0073354D01*
X0052595Y0073505D01*
X0053006Y0073647D01*
X0053420Y0073778D01*
X0053837Y0073899D01*
X0054257Y0074010D01*
X0054680Y0074110D01*
X0055105Y0074200D01*
X0055532Y0074279D01*
X0055961Y0074348D01*
X0056391Y0074407D01*
X0056823Y0074455D01*
X0057256Y0074492D01*
X0057690Y0074519D01*
X0058124Y0074535D01*
X0058558Y0074540D01*
X0058992Y0074535D01*
X0059426Y0074519D01*
X0059860Y0074492D01*
X0060293Y0074455D01*
X0060725Y0074407D01*
X0061155Y0074348D01*
X0061584Y0074279D01*
X0062011Y0074200D01*
X0062436Y0074110D01*
X0062859Y0074010D01*
X0063279Y0073899D01*
X0063696Y0073778D01*
X0064110Y0073647D01*
X0064521Y0073505D01*
X0064928Y0073354D01*
X0065331Y0073193D01*
X0065731Y0073022D01*
X0066126Y0072841D01*
X0066516Y0072650D01*
X0066902Y0072450D01*
X0067282Y0072241D01*
X0067658Y0072022D01*
X0068027Y0071794D01*
X0068392Y0071557D01*
X0068750Y0071311D01*
X0069102Y0071057D01*
X0069448Y0070794D01*
X0069787Y0070522D01*
X0070119Y0070243D01*
X0070445Y0069955D01*
X0070763Y0069659D01*
X0071074Y0069356D01*
X0071377Y0069045D01*
X0071673Y0068727D01*
X0071961Y0068401D01*
X0072240Y0068069D01*
X0072512Y0067730D01*
X0072775Y0067384D01*
X0073029Y0067032D01*
X0073275Y0066674D01*
X0073512Y0066309D01*
X0073740Y0065940D01*
X0073959Y0065564D01*
X0074168Y0065184D01*
X0074368Y0064798D01*
X0074559Y0064408D01*
X0074740Y0064013D01*
X0074911Y0063613D01*
X0075072Y0063210D01*
X0075223Y0062803D01*
X0075365Y0062392D01*
X0075496Y0061978D01*
X0075617Y0061561D01*
X0075728Y0061141D01*
X0075828Y0060718D01*
X0075918Y0060293D01*
X0075997Y0059866D01*
X0076066Y0059437D01*
X0076125Y0059007D01*
X0076173Y0058575D01*
X0076210Y0058142D01*
X0076237Y0057708D01*
X0076253Y0057274D01*
X0076258Y0056840D01*
X0076253Y0056406D01*
X0076237Y0055972D01*
X0076210Y0055538D01*
X0076173Y0055105D01*
X0076125Y0054673D01*
X0076066Y0054243D01*
X0075997Y0053814D01*
X0075918Y0053387D01*
X0075828Y0052962D01*
X0075728Y0052539D01*
X0075617Y0052119D01*
X0075496Y0051702D01*
X0075365Y0051288D01*
X0075223Y0050877D01*
X0075072Y0050470D01*
X0074911Y0050067D01*
X0074740Y0049667D01*
X0074559Y0049272D01*
X0074368Y0048882D01*
X0074168Y0048496D01*
X0073959Y0048116D01*
X0073740Y0047740D01*
X0073512Y0047371D01*
X0073275Y0047006D01*
X0073029Y0046648D01*
X0072775Y0046296D01*
X0072512Y0045950D01*
X0072240Y0045611D01*
X0071961Y0045279D01*
X0071673Y0044953D01*
X0071377Y0044635D01*
X0071074Y0044324D01*
X0070763Y0044021D01*
X0070445Y0043725D01*
X0070119Y0043437D01*
X0069787Y0043158D01*
X0069448Y0042886D01*
X0069102Y0042623D01*
X0068750Y0042369D01*
X0068392Y0042123D01*
X0068027Y0041886D01*
X0067658Y0041658D01*
X0067282Y0041439D01*
X0066902Y0041230D01*
X0066516Y0041030D01*
X0066126Y0040839D01*
X0065731Y0040658D01*
X0065331Y0040487D01*
X0064928Y0040326D01*
X0064521Y0040175D01*
X0064110Y0040033D01*
X0063696Y0039902D01*
X0063279Y0039781D01*
X0062859Y0039670D01*
X0062436Y0039570D01*
X0062011Y0039480D01*
X0061584Y0039401D01*
X0061155Y0039332D01*
X0060725Y0039273D01*
X0060293Y0039225D01*
X0059860Y0039188D01*
X0059426Y0039161D01*
X0058992Y0039145D01*
X0058558Y0039140D01*
X0058124Y0039145D01*
X0057690Y0039161D01*
X0057256Y0039188D01*
X0056823Y0039225D01*
X0056391Y0039273D01*
X0055961Y0039332D01*
X0055532Y0039401D01*
X0055105Y0039480D01*
X0054680Y0039570D01*
X0054257Y0039670D01*
X0053837Y0039781D01*
X0053420Y0039902D01*
X0053006Y0040033D01*
X0052595Y0040175D01*
X0052188Y0040326D01*
X0051785Y0040487D01*
X0051385Y0040658D01*
X0050990Y0040839D01*
X0050600Y0041030D01*
X0050214Y0041230D01*
X0049834Y0041439D01*
X0049458Y0041658D01*
X0049089Y0041886D01*
X0048724Y0042123D01*
X0048366Y0042369D01*
X0048014Y0042623D01*
X0047668Y0042886D01*
X0047329Y0043158D01*
X0046997Y0043437D01*
X0046671Y0043725D01*
X0046353Y0044021D01*
X0046042Y0044324D01*
X0045739Y0044635D01*
X0045443Y0044953D01*
X0045155Y0045279D01*
X0044876Y0045611D01*
X0044604Y0045950D01*
X0044341Y0046296D01*
X0044087Y0046648D01*
X0043841Y0047006D01*
X0043604Y0047371D01*
X0043376Y0047740D01*
X0043157Y0048116D01*
X0042948Y0048496D01*
X0042748Y0048882D01*
X0042557Y0049272D01*
X0042376Y0049667D01*
X0042205Y0050067D01*
X0042044Y0050470D01*
X0041893Y0050877D01*
X0041751Y0051288D01*
X0041620Y0051702D01*
X0041499Y0052119D01*
X0041388Y0052539D01*
X0041288Y0052962D01*
X0041198Y0053387D01*
X0041119Y0053814D01*
X0041050Y0054243D01*
X0040991Y0054673D01*
X0040943Y0055105D01*
X0040906Y0055538D01*
X0040879Y0055972D01*
X0040863Y0056406D01*
X0040858Y0056840D01*
X0101858Y0056840D02*
X0101863Y0057274D01*
X0101879Y0057708D01*
X0101906Y0058142D01*
X0101943Y0058575D01*
X0101991Y0059007D01*
X0102050Y0059437D01*
X0102119Y0059866D01*
X0102198Y0060293D01*
X0102288Y0060718D01*
X0102388Y0061141D01*
X0102499Y0061561D01*
X0102620Y0061978D01*
X0102751Y0062392D01*
X0102893Y0062803D01*
X0103044Y0063210D01*
X0103205Y0063613D01*
X0103376Y0064013D01*
X0103557Y0064408D01*
X0103748Y0064798D01*
X0103948Y0065184D01*
X0104157Y0065564D01*
X0104376Y0065940D01*
X0104604Y0066309D01*
X0104841Y0066674D01*
X0105087Y0067032D01*
X0105341Y0067384D01*
X0105604Y0067730D01*
X0105876Y0068069D01*
X0106155Y0068401D01*
X0106443Y0068727D01*
X0106739Y0069045D01*
X0107042Y0069356D01*
X0107353Y0069659D01*
X0107671Y0069955D01*
X0107997Y0070243D01*
X0108329Y0070522D01*
X0108668Y0070794D01*
X0109014Y0071057D01*
X0109366Y0071311D01*
X0109724Y0071557D01*
X0110089Y0071794D01*
X0110458Y0072022D01*
X0110834Y0072241D01*
X0111214Y0072450D01*
X0111600Y0072650D01*
X0111990Y0072841D01*
X0112385Y0073022D01*
X0112785Y0073193D01*
X0113188Y0073354D01*
X0113595Y0073505D01*
X0114006Y0073647D01*
X0114420Y0073778D01*
X0114837Y0073899D01*
X0115257Y0074010D01*
X0115680Y0074110D01*
X0116105Y0074200D01*
X0116532Y0074279D01*
X0116961Y0074348D01*
X0117391Y0074407D01*
X0117823Y0074455D01*
X0118256Y0074492D01*
X0118690Y0074519D01*
X0119124Y0074535D01*
X0119558Y0074540D01*
X0119992Y0074535D01*
X0120426Y0074519D01*
X0120860Y0074492D01*
X0121293Y0074455D01*
X0121725Y0074407D01*
X0122155Y0074348D01*
X0122584Y0074279D01*
X0123011Y0074200D01*
X0123436Y0074110D01*
X0123859Y0074010D01*
X0124279Y0073899D01*
X0124696Y0073778D01*
X0125110Y0073647D01*
X0125521Y0073505D01*
X0125928Y0073354D01*
X0126331Y0073193D01*
X0126731Y0073022D01*
X0127126Y0072841D01*
X0127516Y0072650D01*
X0127902Y0072450D01*
X0128282Y0072241D01*
X0128658Y0072022D01*
X0129027Y0071794D01*
X0129392Y0071557D01*
X0129750Y0071311D01*
X0130102Y0071057D01*
X0130448Y0070794D01*
X0130787Y0070522D01*
X0131119Y0070243D01*
X0131445Y0069955D01*
X0131763Y0069659D01*
X0132074Y0069356D01*
X0132377Y0069045D01*
X0132673Y0068727D01*
X0132961Y0068401D01*
X0133240Y0068069D01*
X0133512Y0067730D01*
X0133775Y0067384D01*
X0134029Y0067032D01*
X0134275Y0066674D01*
X0134512Y0066309D01*
X0134740Y0065940D01*
X0134959Y0065564D01*
X0135168Y0065184D01*
X0135368Y0064798D01*
X0135559Y0064408D01*
X0135740Y0064013D01*
X0135911Y0063613D01*
X0136072Y0063210D01*
X0136223Y0062803D01*
X0136365Y0062392D01*
X0136496Y0061978D01*
X0136617Y0061561D01*
X0136728Y0061141D01*
X0136828Y0060718D01*
X0136918Y0060293D01*
X0136997Y0059866D01*
X0137066Y0059437D01*
X0137125Y0059007D01*
X0137173Y0058575D01*
X0137210Y0058142D01*
X0137237Y0057708D01*
X0137253Y0057274D01*
X0137258Y0056840D01*
X0137253Y0056406D01*
X0137237Y0055972D01*
X0137210Y0055538D01*
X0137173Y0055105D01*
X0137125Y0054673D01*
X0137066Y0054243D01*
X0136997Y0053814D01*
X0136918Y0053387D01*
X0136828Y0052962D01*
X0136728Y0052539D01*
X0136617Y0052119D01*
X0136496Y0051702D01*
X0136365Y0051288D01*
X0136223Y0050877D01*
X0136072Y0050470D01*
X0135911Y0050067D01*
X0135740Y0049667D01*
X0135559Y0049272D01*
X0135368Y0048882D01*
X0135168Y0048496D01*
X0134959Y0048116D01*
X0134740Y0047740D01*
X0134512Y0047371D01*
X0134275Y0047006D01*
X0134029Y0046648D01*
X0133775Y0046296D01*
X0133512Y0045950D01*
X0133240Y0045611D01*
X0132961Y0045279D01*
X0132673Y0044953D01*
X0132377Y0044635D01*
X0132074Y0044324D01*
X0131763Y0044021D01*
X0131445Y0043725D01*
X0131119Y0043437D01*
X0130787Y0043158D01*
X0130448Y0042886D01*
X0130102Y0042623D01*
X0129750Y0042369D01*
X0129392Y0042123D01*
X0129027Y0041886D01*
X0128658Y0041658D01*
X0128282Y0041439D01*
X0127902Y0041230D01*
X0127516Y0041030D01*
X0127126Y0040839D01*
X0126731Y0040658D01*
X0126331Y0040487D01*
X0125928Y0040326D01*
X0125521Y0040175D01*
X0125110Y0040033D01*
X0124696Y0039902D01*
X0124279Y0039781D01*
X0123859Y0039670D01*
X0123436Y0039570D01*
X0123011Y0039480D01*
X0122584Y0039401D01*
X0122155Y0039332D01*
X0121725Y0039273D01*
X0121293Y0039225D01*
X0120860Y0039188D01*
X0120426Y0039161D01*
X0119992Y0039145D01*
X0119558Y0039140D01*
X0119124Y0039145D01*
X0118690Y0039161D01*
X0118256Y0039188D01*
X0117823Y0039225D01*
X0117391Y0039273D01*
X0116961Y0039332D01*
X0116532Y0039401D01*
X0116105Y0039480D01*
X0115680Y0039570D01*
X0115257Y0039670D01*
X0114837Y0039781D01*
X0114420Y0039902D01*
X0114006Y0040033D01*
X0113595Y0040175D01*
X0113188Y0040326D01*
X0112785Y0040487D01*
X0112385Y0040658D01*
X0111990Y0040839D01*
X0111600Y0041030D01*
X0111214Y0041230D01*
X0110834Y0041439D01*
X0110458Y0041658D01*
X0110089Y0041886D01*
X0109724Y0042123D01*
X0109366Y0042369D01*
X0109014Y0042623D01*
X0108668Y0042886D01*
X0108329Y0043158D01*
X0107997Y0043437D01*
X0107671Y0043725D01*
X0107353Y0044021D01*
X0107042Y0044324D01*
X0106739Y0044635D01*
X0106443Y0044953D01*
X0106155Y0045279D01*
X0105876Y0045611D01*
X0105604Y0045950D01*
X0105341Y0046296D01*
X0105087Y0046648D01*
X0104841Y0047006D01*
X0104604Y0047371D01*
X0104376Y0047740D01*
X0104157Y0048116D01*
X0103948Y0048496D01*
X0103748Y0048882D01*
X0103557Y0049272D01*
X0103376Y0049667D01*
X0103205Y0050067D01*
X0103044Y0050470D01*
X0102893Y0050877D01*
X0102751Y0051288D01*
X0102620Y0051702D01*
X0102499Y0052119D01*
X0102388Y0052539D01*
X0102288Y0052962D01*
X0102198Y0053387D01*
X0102119Y0053814D01*
X0102050Y0054243D01*
X0101991Y0054673D01*
X0101943Y0055105D01*
X0101906Y0055538D01*
X0101879Y0055972D01*
X0101863Y0056406D01*
X0101858Y0056840D01*
D14*
X0032626Y0020836D02*
X0023843Y0020836D01*
X0024097Y0020565D02*
X0021782Y0023031D01*
X0020185Y0026013D01*
X0019414Y0029306D01*
X0019403Y0029612D01*
X0019925Y0029838D01*
X0019925Y0029838D01*
X0023786Y0032879D01*
X0026742Y0036804D01*
X0028597Y0041353D01*
X0029230Y0046226D01*
X0028597Y0051099D01*
X0026742Y0055648D01*
X0026742Y0055648D01*
X0023786Y0059573D01*
X0023786Y0059573D01*
X0023786Y0059573D01*
X0019925Y0062614D01*
X0019358Y0062860D01*
X0019358Y0139840D01*
X0019466Y0141766D01*
X0020323Y0145521D01*
X0021994Y0148991D01*
X0024349Y0151944D01*
X0023558Y0150034D01*
X0023558Y0147647D01*
X0024471Y0145441D01*
X0026159Y0143754D01*
X0028364Y0142840D01*
X0030751Y0142840D01*
X0032957Y0143754D01*
X0033472Y0144269D01*
X0034292Y0143449D01*
X0035762Y0142840D01*
X0037353Y0142840D01*
X0038824Y0143449D01*
X0039949Y0144574D01*
X0040558Y0146045D01*
X0040558Y0147636D01*
X0039949Y0149106D01*
X0038824Y0150231D01*
X0037353Y0150840D01*
X0035762Y0150840D01*
X0035303Y0150650D01*
X0034644Y0152239D01*
X0032957Y0153927D01*
X0030751Y0154840D01*
X0028364Y0154840D01*
X0027996Y0154688D01*
X0030877Y0156075D01*
X0034632Y0156932D01*
X0036558Y0157040D01*
X0040078Y0157040D01*
X0039808Y0156387D01*
X0039808Y0155293D01*
X0040227Y0154282D01*
X0041000Y0153509D01*
X0041979Y0153104D01*
X0046558Y0146235D01*
X0046558Y0146012D01*
X0047004Y0145566D01*
X0047353Y0145041D01*
X0047572Y0144998D01*
X0047729Y0144840D01*
X0048360Y0144840D01*
X0048978Y0144717D01*
X0049163Y0144840D01*
X0053057Y0144840D01*
X0052558Y0143636D01*
X0052558Y0142045D01*
X0053096Y0140746D01*
X0051805Y0140529D01*
X0051804Y0140529D01*
X0046538Y0138233D01*
X0041984Y0134731D01*
X0041984Y0134731D01*
X0038412Y0130231D01*
X0036158Y0125271D01*
X0036158Y0133763D01*
X0038569Y0136174D01*
X0039172Y0136424D01*
X0039974Y0137226D01*
X0040408Y0138273D01*
X0040408Y0139407D01*
X0039974Y0140455D01*
X0039172Y0141256D01*
X0038125Y0141690D01*
X0036991Y0141690D01*
X0035943Y0141256D01*
X0035142Y0140455D01*
X0034892Y0139851D01*
X0031354Y0136313D01*
X0030958Y0135357D01*
X0030958Y0099823D01*
X0031354Y0098867D01*
X0032085Y0098136D01*
X0039354Y0090867D01*
X0040085Y0090136D01*
X0041041Y0089740D01*
X0079075Y0089740D01*
X0080031Y0090136D01*
X0083531Y0093636D01*
X0084262Y0094367D01*
X0084658Y0095323D01*
X0084658Y0099236D01*
X0085011Y0099090D01*
X0086105Y0099090D01*
X0087116Y0099509D01*
X0087447Y0099840D01*
X0087729Y0099840D01*
X0098729Y0088840D01*
X0141386Y0088840D01*
X0142558Y0090012D01*
X0146636Y0094090D01*
X0147105Y0094090D01*
X0147558Y0094278D01*
X0147558Y0093103D01*
X0139295Y0084840D01*
X0094729Y0084840D01*
X0089729Y0079840D01*
X0088558Y0078669D01*
X0088558Y0068669D01*
X0084729Y0064840D01*
X0080415Y0064840D01*
X0080389Y0064867D01*
X0080411Y0064918D01*
X0080220Y0065399D01*
X0079165Y0068071D01*
X0075824Y0072745D01*
X0071452Y0076471D01*
X0066308Y0079030D01*
X0060698Y0080268D01*
X0054955Y0080112D01*
X0049421Y0078571D01*
X0049421Y0078571D01*
X0044423Y0075737D01*
X0040260Y0071778D01*
X0037178Y0066930D01*
X0037178Y0066930D01*
X0035361Y0061480D01*
X0034915Y0055752D01*
X0035869Y0050087D01*
X0035869Y0050087D01*
X0038165Y0044821D01*
X0038165Y0044821D01*
X0041667Y0040266D01*
X0046167Y0036694D01*
X0051397Y0034317D01*
X0057047Y0033276D01*
X0062781Y0033632D01*
X0068258Y0035365D01*
X0073153Y0038372D01*
X0073153Y0038372D01*
X0077176Y0042474D01*
X0080087Y0047427D01*
X0081713Y0052937D01*
X0081958Y0058676D01*
X0081958Y0058676D01*
X0081515Y0060840D01*
X0086386Y0060840D01*
X0087558Y0062012D01*
X0091386Y0065840D01*
X0092558Y0067012D01*
X0092558Y0077012D01*
X0096386Y0080840D01*
X0114094Y0080840D01*
X0113204Y0079648D01*
X0113100Y0079648D01*
X0112089Y0079229D01*
X0111531Y0078671D01*
X0111480Y0078693D01*
X0110999Y0078503D01*
X0108327Y0077447D01*
X0103653Y0074107D01*
X0099927Y0069734D01*
X0097368Y0064590D01*
X0096130Y0058980D01*
X0096287Y0053237D01*
X0097827Y0047703D01*
X0100661Y0042706D01*
X0100661Y0042706D01*
X0104620Y0038542D01*
X0109468Y0035460D01*
X0109468Y0035460D01*
X0114918Y0033643D01*
X0114918Y0033643D01*
X0120646Y0033198D01*
X0126311Y0034152D01*
X0131577Y0036448D01*
X0131577Y0036448D01*
X0136132Y0039950D01*
X0139704Y0044449D01*
X0142081Y0049679D01*
X0142081Y0049679D01*
X0143122Y0055329D01*
X0143122Y0055329D01*
X0142766Y0061063D01*
X0141033Y0066540D01*
X0141033Y0066540D01*
X0138026Y0071436D01*
X0133924Y0075458D01*
X0133924Y0075458D01*
X0132849Y0076090D01*
X0133105Y0076090D01*
X0134116Y0076509D01*
X0134889Y0077282D01*
X0135308Y0078293D01*
X0135308Y0079387D01*
X0134889Y0080398D01*
X0134447Y0080840D01*
X0140952Y0080840D01*
X0142124Y0082012D01*
X0151558Y0091446D01*
X0151558Y0108512D01*
X0155636Y0112590D01*
X0156105Y0112590D01*
X0157116Y0113009D01*
X0157889Y0113782D01*
X0158308Y0114793D01*
X0158308Y0115887D01*
X0157889Y0116898D01*
X0157116Y0117671D01*
X0156105Y0118090D01*
X0155011Y0118090D01*
X0154000Y0117671D01*
X0153227Y0116898D01*
X0152808Y0115887D01*
X0152808Y0115419D01*
X0148729Y0111340D01*
X0147558Y0110169D01*
X0147558Y0099403D01*
X0147105Y0099590D01*
X0146011Y0099590D01*
X0145000Y0099171D01*
X0144227Y0098398D01*
X0143808Y0097387D01*
X0143808Y0096919D01*
X0143308Y0096419D01*
X0143308Y0097387D01*
X0142889Y0098398D01*
X0142116Y0099171D01*
X0141105Y0099590D01*
X0140011Y0099590D01*
X0139000Y0099171D01*
X0138669Y0098840D01*
X0133510Y0098840D01*
X0133692Y0098944D01*
X0133692Y0098944D01*
X0137856Y0102902D01*
X0140938Y0107751D01*
X0142755Y0113201D01*
X0143200Y0118928D01*
X0142246Y0124594D01*
X0139950Y0129860D01*
X0136448Y0134414D01*
X0135653Y0135046D01*
X0135889Y0135282D01*
X0136308Y0136293D01*
X0136308Y0137387D01*
X0135889Y0138398D01*
X0135558Y0138729D01*
X0135558Y0140669D01*
X0131558Y0144669D01*
X0130386Y0145840D01*
X0086478Y0145840D01*
X0082308Y0150705D01*
X0082308Y0151387D01*
X0081889Y0152398D01*
X0081352Y0152935D01*
X0084334Y0156480D01*
X0084577Y0157040D01*
X0099389Y0157040D01*
X0098558Y0155034D01*
X0098558Y0152647D01*
X0099471Y0150441D01*
X0101159Y0148754D01*
X0103364Y0147840D01*
X0105751Y0147840D01*
X0107957Y0148754D01*
X0109644Y0150441D01*
X0110558Y0152647D01*
X0110558Y0155034D01*
X0109727Y0157040D01*
X0121497Y0157040D01*
X0158758Y0120524D01*
X0158758Y0087965D01*
X0158644Y0088239D01*
X0156957Y0089927D01*
X0154751Y0090840D01*
X0152364Y0090840D01*
X0150159Y0089927D01*
X0148471Y0088239D01*
X0147558Y0086034D01*
X0147558Y0083647D01*
X0148471Y0081441D01*
X0150159Y0079754D01*
X0152364Y0078840D01*
X0154751Y0078840D01*
X0155038Y0078959D01*
X0154449Y0078463D01*
X0151760Y0074368D01*
X0150358Y0069675D01*
X0150358Y0064777D01*
X0151760Y0060084D01*
X0151760Y0060084D01*
X0154449Y0055989D01*
X0158197Y0052835D01*
X0158197Y0052835D01*
X0158758Y0052592D01*
X0158758Y0034840D01*
X0158650Y0032914D01*
X0157793Y0029159D01*
X0156405Y0026279D01*
X0156558Y0026647D01*
X0156558Y0029034D01*
X0155644Y0031239D01*
X0153957Y0032927D01*
X0151751Y0033840D01*
X0149364Y0033840D01*
X0147159Y0032927D01*
X0145471Y0031239D01*
X0144558Y0029034D01*
X0144558Y0026647D01*
X0145471Y0024441D01*
X0147159Y0022754D01*
X0149364Y0021840D01*
X0151751Y0021840D01*
X0153662Y0022632D01*
X0150709Y0020277D01*
X0147239Y0018605D01*
X0143484Y0017748D01*
X0141558Y0017640D01*
X0063577Y0017640D01*
X0063331Y0018208D01*
X0060291Y0022068D01*
X0056366Y0025024D01*
X0051816Y0026880D01*
X0046944Y0027512D01*
X0042071Y0026880D01*
X0037521Y0025024D01*
X0033596Y0022068D01*
X0030556Y0018208D01*
X0030556Y0018208D01*
X0030374Y0017787D01*
X0030208Y0017803D01*
X0026971Y0018782D01*
X0024097Y0020565D01*
X0024159Y0021754D02*
X0026364Y0020840D01*
X0028751Y0020840D01*
X0030957Y0021754D01*
X0032644Y0023441D01*
X0033558Y0025647D01*
X0033558Y0028034D01*
X0032644Y0030239D01*
X0030957Y0031927D01*
X0028751Y0032840D01*
X0026364Y0032840D01*
X0024159Y0031927D01*
X0022471Y0030239D01*
X0021558Y0028034D01*
X0021558Y0025647D01*
X0022471Y0023441D01*
X0024159Y0021754D01*
X0023079Y0022834D02*
X0021967Y0022834D01*
X0021895Y0024833D02*
X0020817Y0024833D01*
X0021558Y0026831D02*
X0019993Y0026831D01*
X0019525Y0028830D02*
X0021888Y0028830D01*
X0021182Y0030828D02*
X0023061Y0030828D01*
X0023720Y0032827D02*
X0026332Y0032827D01*
X0025252Y0034825D02*
X0050279Y0034825D01*
X0051397Y0034317D02*
X0051397Y0034317D01*
X0057047Y0033276D02*
X0057047Y0033276D01*
X0062781Y0033632D02*
X0062781Y0033632D01*
X0066551Y0034825D02*
X0111373Y0034825D01*
X0107323Y0036824D02*
X0070633Y0036824D01*
X0073595Y0038822D02*
X0104354Y0038822D01*
X0104620Y0038542D02*
X0104620Y0038542D01*
X0102453Y0040821D02*
X0075555Y0040821D01*
X0077176Y0042474D02*
X0077176Y0042474D01*
X0077379Y0042819D02*
X0100597Y0042819D01*
X0099463Y0044818D02*
X0078554Y0044818D01*
X0079728Y0046816D02*
X0098330Y0046816D01*
X0097827Y0047703D02*
X0097827Y0047703D01*
X0097518Y0048815D02*
X0080497Y0048815D01*
X0080087Y0047427D02*
X0080087Y0047427D01*
X0081086Y0050813D02*
X0096961Y0050813D01*
X0096405Y0052812D02*
X0081676Y0052812D01*
X0081713Y0052937D02*
X0081713Y0052937D01*
X0081793Y0054810D02*
X0096244Y0054810D01*
X0096287Y0053237D02*
X0096287Y0053237D01*
X0096189Y0056809D02*
X0081878Y0056809D01*
X0081931Y0058807D02*
X0096135Y0058807D01*
X0096130Y0058980D02*
X0096130Y0058980D01*
X0096533Y0060806D02*
X0081523Y0060806D01*
X0079667Y0066801D02*
X0086691Y0066801D01*
X0088558Y0068800D02*
X0078644Y0068800D01*
X0079165Y0068071D02*
X0079165Y0068071D01*
X0077215Y0070798D02*
X0088558Y0070798D01*
X0088558Y0072797D02*
X0075763Y0072797D01*
X0075824Y0072745D02*
X0075824Y0072745D01*
X0073418Y0074796D02*
X0088558Y0074796D01*
X0088558Y0076794D02*
X0070803Y0076794D01*
X0071452Y0076471D02*
X0071452Y0076471D01*
X0066785Y0078793D02*
X0088682Y0078793D01*
X0090680Y0080791D02*
X0019358Y0080791D01*
X0019358Y0078793D02*
X0050217Y0078793D01*
X0046288Y0076794D02*
X0019358Y0076794D01*
X0019358Y0074796D02*
X0043433Y0074796D01*
X0044423Y0075737D02*
X0044423Y0075737D01*
X0041332Y0072797D02*
X0019358Y0072797D01*
X0019358Y0070798D02*
X0039637Y0070798D01*
X0040260Y0071778D02*
X0040260Y0071778D01*
X0038367Y0068800D02*
X0019358Y0068800D01*
X0019358Y0066801D02*
X0037135Y0066801D01*
X0036469Y0064803D02*
X0019358Y0064803D01*
X0019485Y0062804D02*
X0035802Y0062804D01*
X0035361Y0061480D02*
X0035361Y0061480D01*
X0035308Y0060806D02*
X0022221Y0060806D01*
X0019925Y0062614D02*
X0019925Y0062614D01*
X0024363Y0058807D02*
X0035153Y0058807D01*
X0034998Y0056809D02*
X0025868Y0056809D01*
X0027083Y0054810D02*
X0035074Y0054810D01*
X0034915Y0055752D02*
X0034915Y0055752D01*
X0035410Y0052812D02*
X0027899Y0052812D01*
X0028597Y0051099D02*
X0028597Y0051099D01*
X0028634Y0050813D02*
X0035747Y0050813D01*
X0036424Y0048815D02*
X0028894Y0048815D01*
X0029153Y0046816D02*
X0037295Y0046816D01*
X0038167Y0044818D02*
X0029047Y0044818D01*
X0029230Y0046226D02*
X0029230Y0046226D01*
X0028788Y0042819D02*
X0039704Y0042819D01*
X0041241Y0040821D02*
X0028380Y0040821D01*
X0028597Y0041353D02*
X0028597Y0041353D01*
X0027565Y0038822D02*
X0043486Y0038822D01*
X0041667Y0040266D02*
X0041667Y0040266D01*
X0041667Y0040266D01*
X0046004Y0036824D02*
X0026750Y0036824D01*
X0026742Y0036804D02*
X0026742Y0036804D01*
X0028784Y0032827D02*
X0147059Y0032827D01*
X0145301Y0030828D02*
X0032055Y0030828D01*
X0033228Y0028830D02*
X0144558Y0028830D01*
X0144558Y0026831D02*
X0051935Y0026831D01*
X0051816Y0026880D02*
X0051816Y0026880D01*
X0056366Y0025024D02*
X0056366Y0025024D01*
X0056620Y0024833D02*
X0145309Y0024833D01*
X0147079Y0022834D02*
X0059274Y0022834D01*
X0060291Y0022068D02*
X0060291Y0022068D01*
X0060291Y0022068D01*
X0061262Y0020836D02*
X0151410Y0020836D01*
X0147720Y0018837D02*
X0062836Y0018837D01*
X0063331Y0018208D02*
X0063331Y0018208D01*
X0046944Y0027512D02*
X0046944Y0027512D01*
X0042071Y0026880D02*
X0042071Y0026880D01*
X0041952Y0026831D02*
X0033558Y0026831D01*
X0033221Y0024833D02*
X0037267Y0024833D01*
X0037521Y0025024D02*
X0037521Y0025024D01*
X0034614Y0022834D02*
X0032037Y0022834D01*
X0033596Y0022068D02*
X0033596Y0022068D01*
X0033596Y0022068D01*
X0031052Y0018837D02*
X0026882Y0018837D01*
X0023786Y0032879D02*
X0023786Y0032879D01*
X0023786Y0032879D01*
X0046167Y0036694D02*
X0046167Y0036694D01*
X0068258Y0035365D02*
X0068258Y0035365D01*
X0088351Y0062804D02*
X0096974Y0062804D01*
X0097368Y0064590D02*
X0097368Y0064590D01*
X0097474Y0064803D02*
X0090349Y0064803D01*
X0092348Y0066801D02*
X0098468Y0066801D01*
X0099462Y0068800D02*
X0092558Y0068800D01*
X0092558Y0070798D02*
X0100834Y0070798D01*
X0099927Y0069734D02*
X0099927Y0069734D01*
X0102537Y0072797D02*
X0092558Y0072797D01*
X0092558Y0074796D02*
X0104617Y0074796D01*
X0103653Y0074107D02*
X0103653Y0074107D01*
X0107413Y0076794D02*
X0092558Y0076794D01*
X0094339Y0078793D02*
X0111653Y0078793D01*
X0114057Y0080791D02*
X0096337Y0080791D01*
X0092679Y0082790D02*
X0019358Y0082790D01*
X0019358Y0084788D02*
X0094677Y0084788D01*
X0096786Y0090784D02*
X0080678Y0090784D01*
X0078558Y0092340D02*
X0082058Y0095840D01*
X0082058Y0106340D01*
X0084558Y0109840D01*
X0087558Y0113840D01*
X0087558Y0127840D01*
X0098558Y0138840D01*
X0099569Y0136174D02*
X0100172Y0136424D01*
X0100974Y0137226D01*
X0101408Y0138273D01*
X0101408Y0139407D01*
X0101228Y0139840D01*
X0111518Y0139840D01*
X0109858Y0139315D01*
X0109858Y0139315D01*
X0104962Y0136308D01*
X0100940Y0132207D01*
X0100940Y0132207D01*
X0098029Y0127254D01*
X0098029Y0127254D01*
X0096403Y0121744D01*
X0096158Y0116004D01*
X0096622Y0113733D01*
X0093558Y0110669D01*
X0093558Y0106012D01*
X0094729Y0104840D01*
X0106729Y0092840D01*
X0100386Y0092840D01*
X0089386Y0103840D01*
X0087729Y0103840D01*
X0087447Y0103840D01*
X0087116Y0104171D01*
X0086105Y0104590D01*
X0085011Y0104590D01*
X0084658Y0104444D01*
X0084658Y0105507D01*
X0085966Y0107339D01*
X0086172Y0107424D01*
X0086974Y0108226D01*
X0087408Y0109273D01*
X0087408Y0109307D01*
X0089527Y0112132D01*
X0089762Y0112367D01*
X0089834Y0112542D01*
X0089948Y0112694D01*
X0090031Y0113016D01*
X0090158Y0113323D01*
X0090158Y0113512D01*
X0090205Y0113696D01*
X0090158Y0114025D01*
X0090158Y0126763D01*
X0099569Y0136174D01*
X0100498Y0136749D02*
X0105680Y0136749D01*
X0104962Y0136308D02*
X0104962Y0136308D01*
X0103435Y0134751D02*
X0098145Y0134751D01*
X0096147Y0132752D02*
X0101475Y0132752D01*
X0100086Y0130754D02*
X0094148Y0130754D01*
X0092150Y0128755D02*
X0098911Y0128755D01*
X0097882Y0126757D02*
X0090158Y0126757D01*
X0090158Y0124758D02*
X0097292Y0124758D01*
X0096702Y0122760D02*
X0090158Y0122760D01*
X0090158Y0120761D02*
X0096361Y0120761D01*
X0096403Y0121744D02*
X0096403Y0121744D01*
X0096275Y0118763D02*
X0090158Y0118763D01*
X0090158Y0116764D02*
X0096190Y0116764D01*
X0096158Y0116004D02*
X0096158Y0116004D01*
X0096411Y0114766D02*
X0090158Y0114766D01*
X0089967Y0112767D02*
X0095656Y0112767D01*
X0093658Y0110769D02*
X0088504Y0110769D01*
X0087199Y0108770D02*
X0093558Y0108770D01*
X0093558Y0106772D02*
X0085561Y0106772D01*
X0084658Y0104773D02*
X0094796Y0104773D01*
X0096795Y0102775D02*
X0090452Y0102775D01*
X0092450Y0100776D02*
X0098793Y0100776D01*
X0100792Y0098778D02*
X0094449Y0098778D01*
X0096447Y0096779D02*
X0102790Y0096779D01*
X0104789Y0094781D02*
X0098446Y0094781D01*
X0094787Y0092782D02*
X0082677Y0092782D01*
X0084433Y0094781D02*
X0092789Y0094781D01*
X0090790Y0096779D02*
X0084658Y0096779D01*
X0084658Y0098778D02*
X0088792Y0098778D01*
X0079458Y0104444D02*
X0079105Y0104590D01*
X0078011Y0104590D01*
X0077818Y0104510D01*
X0078189Y0104946D01*
X0080747Y0110090D01*
X0081985Y0115700D01*
X0081829Y0121443D01*
X0080288Y0126977D01*
X0080288Y0126977D01*
X0077454Y0131975D01*
X0073496Y0136138D01*
X0073496Y0136138D01*
X0068647Y0139220D01*
X0063197Y0141038D01*
X0060236Y0141268D01*
X0060558Y0142045D01*
X0060558Y0143636D01*
X0060059Y0144840D01*
X0071597Y0144840D01*
X0074558Y0141139D01*
X0074558Y0141012D01*
X0075065Y0140504D01*
X0075514Y0139944D01*
X0075640Y0139930D01*
X0075729Y0139840D01*
X0076447Y0139840D01*
X0077160Y0139761D01*
X0077259Y0139840D01*
X0095881Y0139840D01*
X0085354Y0129313D01*
X0084958Y0128357D01*
X0084958Y0114707D01*
X0083199Y0112362D01*
X0082943Y0112256D01*
X0082142Y0111455D01*
X0081708Y0110407D01*
X0081708Y0110323D01*
X0080067Y0108026D01*
X0079854Y0107813D01*
X0079769Y0107610D01*
X0079642Y0107431D01*
X0079573Y0107136D01*
X0079458Y0106857D01*
X0079458Y0106637D01*
X0079408Y0106423D01*
X0079458Y0106125D01*
X0079458Y0104444D01*
X0079458Y0104773D02*
X0078042Y0104773D01*
X0078189Y0104946D02*
X0078189Y0104946D01*
X0079097Y0106772D02*
X0079458Y0106772D01*
X0080091Y0108770D02*
X0080598Y0108770D01*
X0080747Y0110090D02*
X0080747Y0110090D01*
X0080897Y0110769D02*
X0081858Y0110769D01*
X0081338Y0112767D02*
X0083503Y0112767D01*
X0084958Y0114766D02*
X0081779Y0114766D01*
X0081985Y0115700D02*
X0081985Y0115700D01*
X0081956Y0116764D02*
X0084958Y0116764D01*
X0084958Y0118763D02*
X0081902Y0118763D01*
X0081848Y0120761D02*
X0084958Y0120761D01*
X0084958Y0122760D02*
X0081463Y0122760D01*
X0081829Y0121443D02*
X0081829Y0121443D01*
X0080906Y0124758D02*
X0084958Y0124758D01*
X0084958Y0126757D02*
X0080350Y0126757D01*
X0079280Y0128755D02*
X0085123Y0128755D01*
X0086795Y0130754D02*
X0078147Y0130754D01*
X0077454Y0131975D02*
X0077454Y0131975D01*
X0076715Y0132752D02*
X0088793Y0132752D01*
X0090792Y0134751D02*
X0074815Y0134751D01*
X0072534Y0136749D02*
X0092790Y0136749D01*
X0094789Y0138748D02*
X0069390Y0138748D01*
X0068647Y0139220D02*
X0068647Y0139220D01*
X0064070Y0140746D02*
X0074823Y0140746D01*
X0073273Y0142745D02*
X0060558Y0142745D01*
X0060099Y0144743D02*
X0071674Y0144743D01*
X0074558Y0147542D02*
X0074558Y0147669D01*
X0074050Y0148176D01*
X0073602Y0148736D01*
X0073476Y0148750D01*
X0073386Y0148840D01*
X0073063Y0148840D01*
X0076931Y0149996D01*
X0077227Y0149282D01*
X0078000Y0148509D01*
X0079011Y0148090D01*
X0079281Y0148090D01*
X0082924Y0143840D01*
X0077519Y0143840D01*
X0074558Y0147542D01*
X0075198Y0146742D02*
X0080436Y0146742D01*
X0077769Y0148740D02*
X0073566Y0148740D01*
X0076797Y0144743D02*
X0082149Y0144743D01*
X0085705Y0146742D02*
X0132005Y0146742D01*
X0129966Y0148740D02*
X0107925Y0148740D01*
X0109768Y0150739D02*
X0127926Y0150739D01*
X0125887Y0152737D02*
X0110558Y0152737D01*
X0110558Y0154736D02*
X0123848Y0154736D01*
X0121809Y0156734D02*
X0109853Y0156734D01*
X0101191Y0148740D02*
X0083992Y0148740D01*
X0082308Y0150739D02*
X0099348Y0150739D01*
X0098558Y0152737D02*
X0081550Y0152737D01*
X0083558Y0151840D02*
X0088558Y0146840D01*
X0120558Y0146840D01*
X0131483Y0144743D02*
X0134044Y0144743D01*
X0133482Y0142745D02*
X0136084Y0142745D01*
X0135480Y0140746D02*
X0138123Y0140746D01*
X0140162Y0138748D02*
X0135558Y0138748D01*
X0136308Y0136749D02*
X0142202Y0136749D01*
X0144241Y0134751D02*
X0136024Y0134751D01*
X0136448Y0134414D02*
X0136448Y0134414D01*
X0137726Y0132752D02*
X0146280Y0132752D01*
X0148319Y0130754D02*
X0139263Y0130754D01*
X0139950Y0129860D02*
X0139950Y0129860D01*
X0140432Y0128755D02*
X0150359Y0128755D01*
X0152398Y0126757D02*
X0141303Y0126757D01*
X0142175Y0124758D02*
X0154437Y0124758D01*
X0156477Y0122760D02*
X0142555Y0122760D01*
X0142892Y0120761D02*
X0158516Y0120761D01*
X0158758Y0118763D02*
X0143187Y0118763D01*
X0143032Y0116764D02*
X0153171Y0116764D01*
X0152155Y0114766D02*
X0142877Y0114766D01*
X0142611Y0112767D02*
X0150156Y0112767D01*
X0148158Y0110769D02*
X0141944Y0110769D01*
X0141278Y0108770D02*
X0147558Y0108770D01*
X0147558Y0106772D02*
X0140315Y0106772D01*
X0140938Y0107751D02*
X0140938Y0107751D01*
X0139045Y0104773D02*
X0147558Y0104773D01*
X0147558Y0102775D02*
X0137722Y0102775D01*
X0135620Y0100776D02*
X0147558Y0100776D01*
X0144606Y0098778D02*
X0142509Y0098778D01*
X0143308Y0096779D02*
X0143668Y0096779D01*
X0145328Y0092782D02*
X0147237Y0092782D01*
X0145239Y0090784D02*
X0143330Y0090784D01*
X0142558Y0090012D02*
X0142558Y0090012D01*
X0143240Y0088785D02*
X0019358Y0088785D01*
X0019358Y0086787D02*
X0141242Y0086787D01*
X0144900Y0084788D02*
X0147558Y0084788D01*
X0147870Y0086787D02*
X0146899Y0086787D01*
X0148897Y0088785D02*
X0149017Y0088785D01*
X0150896Y0090784D02*
X0152228Y0090784D01*
X0154888Y0090784D02*
X0158758Y0090784D01*
X0158758Y0088785D02*
X0158098Y0088785D01*
X0158758Y0092782D02*
X0151558Y0092782D01*
X0151558Y0094781D02*
X0158758Y0094781D01*
X0158758Y0096779D02*
X0151558Y0096779D01*
X0151558Y0098778D02*
X0158758Y0098778D01*
X0158758Y0100776D02*
X0151558Y0100776D01*
X0151558Y0102775D02*
X0158758Y0102775D01*
X0158758Y0104773D02*
X0151558Y0104773D01*
X0151558Y0106772D02*
X0158758Y0106772D01*
X0158758Y0108770D02*
X0151816Y0108770D01*
X0153815Y0110769D02*
X0158758Y0110769D01*
X0158758Y0112767D02*
X0156532Y0112767D01*
X0158296Y0114766D02*
X0158758Y0114766D01*
X0158758Y0116764D02*
X0157945Y0116764D01*
X0147913Y0082790D02*
X0142902Y0082790D01*
X0149122Y0080791D02*
X0134496Y0080791D01*
X0135308Y0078793D02*
X0154840Y0078793D01*
X0154449Y0078463D02*
X0154449Y0078463D01*
X0154449Y0078463D01*
X0153353Y0076794D02*
X0134401Y0076794D01*
X0134600Y0074796D02*
X0152041Y0074796D01*
X0151760Y0074368D02*
X0151760Y0074368D01*
X0151291Y0072797D02*
X0136638Y0072797D01*
X0138026Y0071436D02*
X0138026Y0071436D01*
X0138417Y0070798D02*
X0150693Y0070798D01*
X0150358Y0068800D02*
X0139645Y0068800D01*
X0140872Y0066801D02*
X0150358Y0066801D01*
X0150358Y0064803D02*
X0141582Y0064803D01*
X0142215Y0062804D02*
X0150947Y0062804D01*
X0151545Y0060806D02*
X0142782Y0060806D01*
X0142766Y0061063D02*
X0142766Y0061063D01*
X0142906Y0058807D02*
X0152598Y0058807D01*
X0153910Y0056809D02*
X0143030Y0056809D01*
X0143026Y0054810D02*
X0155849Y0054810D01*
X0154449Y0055989D02*
X0154449Y0055989D01*
X0158252Y0052812D02*
X0142658Y0052812D01*
X0142290Y0050813D02*
X0158758Y0050813D01*
X0158758Y0048815D02*
X0141688Y0048815D01*
X0140780Y0046816D02*
X0158758Y0046816D01*
X0158758Y0044818D02*
X0139871Y0044818D01*
X0139704Y0044449D02*
X0139704Y0044449D01*
X0138410Y0042819D02*
X0158758Y0042819D01*
X0158758Y0040821D02*
X0136823Y0040821D01*
X0136132Y0039950D02*
X0136132Y0039950D01*
X0136132Y0039950D01*
X0134666Y0038822D02*
X0158758Y0038822D01*
X0158758Y0036824D02*
X0132067Y0036824D01*
X0127856Y0034825D02*
X0158757Y0034825D01*
X0158630Y0032827D02*
X0154057Y0032827D01*
X0155814Y0030828D02*
X0158174Y0030828D01*
X0157634Y0028830D02*
X0156558Y0028830D01*
X0156558Y0026831D02*
X0156671Y0026831D01*
X0126311Y0034152D02*
X0126311Y0034152D01*
X0120646Y0033198D02*
X0120646Y0033198D01*
X0108327Y0077447D02*
X0108327Y0077447D01*
X0078558Y0092340D02*
X0041558Y0092340D01*
X0033558Y0100340D01*
X0033558Y0134840D01*
X0037558Y0138840D01*
X0040408Y0138748D02*
X0047720Y0138748D01*
X0046538Y0138233D02*
X0046538Y0138233D01*
X0044609Y0136749D02*
X0039498Y0136749D01*
X0037145Y0134751D02*
X0042010Y0134751D01*
X0040413Y0132752D02*
X0036158Y0132752D01*
X0036158Y0130754D02*
X0038827Y0130754D01*
X0038412Y0130231D02*
X0038412Y0130231D01*
X0037741Y0128755D02*
X0036158Y0128755D01*
X0036158Y0126757D02*
X0036833Y0126757D01*
X0030958Y0126757D02*
X0019358Y0126757D01*
X0019358Y0128755D02*
X0030958Y0128755D01*
X0030958Y0130754D02*
X0019358Y0130754D01*
X0019358Y0132752D02*
X0030958Y0132752D01*
X0030958Y0134751D02*
X0019358Y0134751D01*
X0019358Y0136749D02*
X0031790Y0136749D01*
X0033789Y0138748D02*
X0019358Y0138748D01*
X0019409Y0140746D02*
X0035434Y0140746D01*
X0039682Y0140746D02*
X0053096Y0140746D01*
X0052558Y0142745D02*
X0019689Y0142745D01*
X0020146Y0144743D02*
X0025169Y0144743D01*
X0023933Y0146742D02*
X0020911Y0146742D01*
X0021873Y0148740D02*
X0023558Y0148740D01*
X0023388Y0150739D02*
X0023850Y0150739D01*
X0028097Y0154736D02*
X0028113Y0154736D01*
X0031003Y0154736D02*
X0040039Y0154736D01*
X0039952Y0156734D02*
X0033767Y0156734D01*
X0034146Y0152737D02*
X0042223Y0152737D01*
X0043555Y0150739D02*
X0037598Y0150739D01*
X0035518Y0150739D02*
X0035266Y0150739D01*
X0040100Y0148740D02*
X0044887Y0148740D01*
X0046220Y0146742D02*
X0040558Y0146742D01*
X0040019Y0144743D02*
X0048844Y0144743D01*
X0049018Y0144743D02*
X0053017Y0144743D01*
X0053057Y0148840D02*
X0049628Y0148840D01*
X0045308Y0155321D01*
X0045308Y0156387D01*
X0045037Y0157040D01*
X0055310Y0157040D01*
X0055553Y0156480D01*
X0055553Y0156480D01*
X0056932Y0154840D01*
X0055762Y0154840D01*
X0054292Y0154231D01*
X0053167Y0153106D01*
X0052558Y0151636D01*
X0052558Y0150045D01*
X0053057Y0148840D01*
X0052558Y0150739D02*
X0048362Y0150739D01*
X0047030Y0152737D02*
X0053014Y0152737D01*
X0055511Y0154736D02*
X0045698Y0154736D01*
X0045164Y0156734D02*
X0055443Y0156734D01*
X0063197Y0141038D02*
X0063197Y0141038D01*
X0082867Y0154736D02*
X0098558Y0154736D01*
X0099262Y0156734D02*
X0084445Y0156734D01*
X0084334Y0156480D02*
X0084334Y0156480D01*
X0101408Y0138748D02*
X0108934Y0138748D01*
X0066308Y0079030D02*
X0066308Y0079030D01*
X0060698Y0080268D02*
X0060698Y0080268D01*
X0054955Y0080112D02*
X0054955Y0080112D01*
X0039437Y0090784D02*
X0019358Y0090784D01*
X0019358Y0092782D02*
X0037439Y0092782D01*
X0035440Y0094781D02*
X0019358Y0094781D01*
X0019358Y0096779D02*
X0033442Y0096779D01*
X0031443Y0098778D02*
X0019358Y0098778D01*
X0019358Y0100776D02*
X0030958Y0100776D01*
X0030958Y0102775D02*
X0019358Y0102775D01*
X0019358Y0104773D02*
X0030958Y0104773D01*
X0030958Y0106772D02*
X0019358Y0106772D01*
X0019358Y0108770D02*
X0030958Y0108770D01*
X0030958Y0110769D02*
X0019358Y0110769D01*
X0019358Y0112767D02*
X0030958Y0112767D01*
X0030958Y0114766D02*
X0019358Y0114766D01*
X0019358Y0116764D02*
X0030958Y0116764D01*
X0030958Y0118763D02*
X0019358Y0118763D01*
X0019358Y0120761D02*
X0030958Y0120761D01*
X0030958Y0122760D02*
X0019358Y0122760D01*
X0019358Y0124758D02*
X0030958Y0124758D01*
D15*
X0048558Y0146840D02*
X0042558Y0155840D01*
X0048558Y0146840D02*
X0072558Y0146840D01*
X0076558Y0141840D01*
X0127558Y0141840D01*
X0130558Y0138840D01*
X0133558Y0139840D02*
X0133558Y0136840D01*
X0133558Y0139840D02*
X0129558Y0143840D01*
X0085558Y0143840D01*
X0079558Y0150840D01*
X0097558Y0111840D02*
X0099411Y0111840D01*
X0099500Y0111929D01*
X0097558Y0111840D02*
X0095558Y0109840D01*
X0095558Y0106840D01*
X0108558Y0093840D01*
X0130558Y0093840D01*
X0133558Y0096840D01*
X0140558Y0096840D01*
X0140558Y0090840D02*
X0099558Y0090840D01*
X0088558Y0101840D01*
X0085558Y0101840D01*
X0078558Y0101840D02*
X0074500Y0097783D01*
X0064469Y0097783D01*
X0090558Y0077840D02*
X0090558Y0067840D01*
X0085558Y0062840D01*
X0078704Y0062840D01*
X0078615Y0062751D01*
X0090558Y0077840D02*
X0095558Y0082840D01*
X0140124Y0082840D01*
X0149558Y0092274D01*
X0149558Y0109340D01*
X0155558Y0115340D01*
X0146558Y0096840D02*
X0140558Y0090840D01*
X0130558Y0080840D02*
X0116589Y0080840D01*
X0113647Y0076898D01*
X0130558Y0080840D02*
X0132558Y0078840D01*
M02*
