G75*
%MOIN*%
%OFA0B0*%
%FSLAX24Y24*%
%IPPOS*%
%LPD*%
%AMOC8*
5,1,8,0,0,1.08239X$1,22.5*
%
%ADD10C,0.0000*%
%ADD11C,0.0160*%
D10*
X002356Y002684D02*
X002358Y002724D01*
X002364Y002763D01*
X002374Y002802D01*
X002387Y002839D01*
X002405Y002875D01*
X002426Y002909D01*
X002450Y002941D01*
X002477Y002970D01*
X002507Y002997D01*
X002539Y003020D01*
X002574Y003040D01*
X002610Y003056D01*
X002648Y003069D01*
X002687Y003078D01*
X002726Y003083D01*
X002766Y003084D01*
X002806Y003081D01*
X002845Y003074D01*
X002883Y003063D01*
X002921Y003049D01*
X002956Y003030D01*
X002989Y003009D01*
X003021Y002984D01*
X003049Y002956D01*
X003075Y002926D01*
X003097Y002893D01*
X003116Y002858D01*
X003132Y002821D01*
X003144Y002783D01*
X003152Y002744D01*
X003156Y002704D01*
X003156Y002664D01*
X003152Y002624D01*
X003144Y002585D01*
X003132Y002547D01*
X003116Y002510D01*
X003097Y002475D01*
X003075Y002442D01*
X003049Y002412D01*
X003021Y002384D01*
X002989Y002359D01*
X002956Y002338D01*
X002921Y002319D01*
X002883Y002305D01*
X002845Y002294D01*
X002806Y002287D01*
X002766Y002284D01*
X002726Y002285D01*
X002687Y002290D01*
X002648Y002299D01*
X002610Y002312D01*
X002574Y002328D01*
X002539Y002348D01*
X002507Y002371D01*
X002477Y002398D01*
X002450Y002427D01*
X002426Y002459D01*
X002405Y002493D01*
X002387Y002529D01*
X002374Y002566D01*
X002364Y002605D01*
X002358Y002644D01*
X002356Y002684D01*
X006456Y014084D02*
X006458Y014112D01*
X006464Y014139D01*
X006473Y014165D01*
X006486Y014190D01*
X006503Y014213D01*
X006522Y014233D01*
X006544Y014250D01*
X006568Y014264D01*
X006594Y014274D01*
X006621Y014281D01*
X006649Y014284D01*
X006677Y014283D01*
X006704Y014278D01*
X006731Y014269D01*
X006756Y014257D01*
X006779Y014242D01*
X006800Y014223D01*
X006818Y014202D01*
X006833Y014178D01*
X006844Y014152D01*
X006852Y014126D01*
X006856Y014098D01*
X006856Y014070D01*
X006852Y014042D01*
X006844Y014016D01*
X006833Y013990D01*
X006818Y013966D01*
X006800Y013945D01*
X006779Y013926D01*
X006756Y013911D01*
X006731Y013899D01*
X006704Y013890D01*
X006677Y013885D01*
X006649Y013884D01*
X006621Y013887D01*
X006594Y013894D01*
X006568Y013904D01*
X006544Y013918D01*
X006522Y013935D01*
X006503Y013955D01*
X006486Y013978D01*
X006473Y014003D01*
X006464Y014029D01*
X006458Y014056D01*
X006456Y014084D01*
X006456Y014884D02*
X006458Y014912D01*
X006464Y014939D01*
X006473Y014965D01*
X006486Y014990D01*
X006503Y015013D01*
X006522Y015033D01*
X006544Y015050D01*
X006568Y015064D01*
X006594Y015074D01*
X006621Y015081D01*
X006649Y015084D01*
X006677Y015083D01*
X006704Y015078D01*
X006731Y015069D01*
X006756Y015057D01*
X006779Y015042D01*
X006800Y015023D01*
X006818Y015002D01*
X006833Y014978D01*
X006844Y014952D01*
X006852Y014926D01*
X006856Y014898D01*
X006856Y014870D01*
X006852Y014842D01*
X006844Y014816D01*
X006833Y014790D01*
X006818Y014766D01*
X006800Y014745D01*
X006779Y014726D01*
X006756Y014711D01*
X006731Y014699D01*
X006704Y014690D01*
X006677Y014685D01*
X006649Y014684D01*
X006621Y014687D01*
X006594Y014694D01*
X006568Y014704D01*
X006544Y014718D01*
X006522Y014735D01*
X006503Y014755D01*
X006486Y014778D01*
X006473Y014803D01*
X006464Y014829D01*
X006458Y014856D01*
X006456Y014884D01*
X004456Y014484D02*
X004458Y014512D01*
X004464Y014539D01*
X004473Y014565D01*
X004486Y014590D01*
X004503Y014613D01*
X004522Y014633D01*
X004544Y014650D01*
X004568Y014664D01*
X004594Y014674D01*
X004621Y014681D01*
X004649Y014684D01*
X004677Y014683D01*
X004704Y014678D01*
X004731Y014669D01*
X004756Y014657D01*
X004779Y014642D01*
X004800Y014623D01*
X004818Y014602D01*
X004833Y014578D01*
X004844Y014552D01*
X004852Y014526D01*
X004856Y014498D01*
X004856Y014470D01*
X004852Y014442D01*
X004844Y014416D01*
X004833Y014390D01*
X004818Y014366D01*
X004800Y014345D01*
X004779Y014326D01*
X004756Y014311D01*
X004731Y014299D01*
X004704Y014290D01*
X004677Y014285D01*
X004649Y014284D01*
X004621Y014287D01*
X004594Y014294D01*
X004568Y014304D01*
X004544Y014318D01*
X004522Y014335D01*
X004503Y014355D01*
X004486Y014378D01*
X004473Y014403D01*
X004464Y014429D01*
X004458Y014456D01*
X004456Y014484D01*
X002556Y014884D02*
X002558Y014924D01*
X002564Y014963D01*
X002574Y015002D01*
X002587Y015039D01*
X002605Y015075D01*
X002626Y015109D01*
X002650Y015141D01*
X002677Y015170D01*
X002707Y015197D01*
X002739Y015220D01*
X002774Y015240D01*
X002810Y015256D01*
X002848Y015269D01*
X002887Y015278D01*
X002926Y015283D01*
X002966Y015284D01*
X003006Y015281D01*
X003045Y015274D01*
X003083Y015263D01*
X003121Y015249D01*
X003156Y015230D01*
X003189Y015209D01*
X003221Y015184D01*
X003249Y015156D01*
X003275Y015126D01*
X003297Y015093D01*
X003316Y015058D01*
X003332Y015021D01*
X003344Y014983D01*
X003352Y014944D01*
X003356Y014904D01*
X003356Y014864D01*
X003352Y014824D01*
X003344Y014785D01*
X003332Y014747D01*
X003316Y014710D01*
X003297Y014675D01*
X003275Y014642D01*
X003249Y014612D01*
X003221Y014584D01*
X003189Y014559D01*
X003156Y014538D01*
X003121Y014519D01*
X003083Y014505D01*
X003045Y014494D01*
X003006Y014487D01*
X002966Y014484D01*
X002926Y014485D01*
X002887Y014490D01*
X002848Y014499D01*
X002810Y014512D01*
X002774Y014528D01*
X002739Y014548D01*
X002707Y014571D01*
X002677Y014598D01*
X002650Y014627D01*
X002626Y014659D01*
X002605Y014693D01*
X002587Y014729D01*
X002574Y014766D01*
X002564Y014805D01*
X002558Y014844D01*
X002556Y014884D01*
X010056Y015384D02*
X010058Y015424D01*
X010064Y015463D01*
X010074Y015502D01*
X010087Y015539D01*
X010105Y015575D01*
X010126Y015609D01*
X010150Y015641D01*
X010177Y015670D01*
X010207Y015697D01*
X010239Y015720D01*
X010274Y015740D01*
X010310Y015756D01*
X010348Y015769D01*
X010387Y015778D01*
X010426Y015783D01*
X010466Y015784D01*
X010506Y015781D01*
X010545Y015774D01*
X010583Y015763D01*
X010621Y015749D01*
X010656Y015730D01*
X010689Y015709D01*
X010721Y015684D01*
X010749Y015656D01*
X010775Y015626D01*
X010797Y015593D01*
X010816Y015558D01*
X010832Y015521D01*
X010844Y015483D01*
X010852Y015444D01*
X010856Y015404D01*
X010856Y015364D01*
X010852Y015324D01*
X010844Y015285D01*
X010832Y015247D01*
X010816Y015210D01*
X010797Y015175D01*
X010775Y015142D01*
X010749Y015112D01*
X010721Y015084D01*
X010689Y015059D01*
X010656Y015038D01*
X010621Y015019D01*
X010583Y015005D01*
X010545Y014994D01*
X010506Y014987D01*
X010466Y014984D01*
X010426Y014985D01*
X010387Y014990D01*
X010348Y014999D01*
X010310Y015012D01*
X010274Y015028D01*
X010239Y015048D01*
X010207Y015071D01*
X010177Y015098D01*
X010150Y015127D01*
X010126Y015159D01*
X010105Y015193D01*
X010087Y015229D01*
X010074Y015266D01*
X010064Y015305D01*
X010058Y015344D01*
X010056Y015384D01*
X014656Y007384D02*
X014658Y007424D01*
X014664Y007463D01*
X014674Y007502D01*
X014687Y007539D01*
X014705Y007575D01*
X014726Y007609D01*
X014750Y007641D01*
X014777Y007670D01*
X014807Y007697D01*
X014839Y007720D01*
X014874Y007740D01*
X014910Y007756D01*
X014948Y007769D01*
X014987Y007778D01*
X015026Y007783D01*
X015066Y007784D01*
X015106Y007781D01*
X015145Y007774D01*
X015183Y007763D01*
X015221Y007749D01*
X015256Y007730D01*
X015289Y007709D01*
X015321Y007684D01*
X015349Y007656D01*
X015375Y007626D01*
X015397Y007593D01*
X015416Y007558D01*
X015432Y007521D01*
X015444Y007483D01*
X015452Y007444D01*
X015456Y007404D01*
X015456Y007364D01*
X015452Y007324D01*
X015444Y007285D01*
X015432Y007247D01*
X015416Y007210D01*
X015397Y007175D01*
X015375Y007142D01*
X015349Y007112D01*
X015321Y007084D01*
X015289Y007059D01*
X015256Y007038D01*
X015221Y007019D01*
X015183Y007005D01*
X015145Y006994D01*
X015106Y006987D01*
X015066Y006984D01*
X015026Y006985D01*
X014987Y006990D01*
X014948Y006999D01*
X014910Y007012D01*
X014874Y007028D01*
X014839Y007048D01*
X014807Y007071D01*
X014777Y007098D01*
X014750Y007127D01*
X014726Y007159D01*
X014705Y007193D01*
X014687Y007229D01*
X014674Y007266D01*
X014664Y007305D01*
X014658Y007344D01*
X014656Y007384D01*
X014656Y002784D02*
X014658Y002824D01*
X014664Y002863D01*
X014674Y002902D01*
X014687Y002939D01*
X014705Y002975D01*
X014726Y003009D01*
X014750Y003041D01*
X014777Y003070D01*
X014807Y003097D01*
X014839Y003120D01*
X014874Y003140D01*
X014910Y003156D01*
X014948Y003169D01*
X014987Y003178D01*
X015026Y003183D01*
X015066Y003184D01*
X015106Y003181D01*
X015145Y003174D01*
X015183Y003163D01*
X015221Y003149D01*
X015256Y003130D01*
X015289Y003109D01*
X015321Y003084D01*
X015349Y003056D01*
X015375Y003026D01*
X015397Y002993D01*
X015416Y002958D01*
X015432Y002921D01*
X015444Y002883D01*
X015452Y002844D01*
X015456Y002804D01*
X015456Y002764D01*
X015452Y002724D01*
X015444Y002685D01*
X015432Y002647D01*
X015416Y002610D01*
X015397Y002575D01*
X015375Y002542D01*
X015349Y002512D01*
X015321Y002484D01*
X015289Y002459D01*
X015256Y002438D01*
X015221Y002419D01*
X015183Y002405D01*
X015145Y002394D01*
X015106Y002387D01*
X015066Y002384D01*
X015026Y002385D01*
X014987Y002390D01*
X014948Y002399D01*
X014910Y002412D01*
X014874Y002428D01*
X014839Y002448D01*
X014807Y002471D01*
X014777Y002498D01*
X014750Y002527D01*
X014726Y002559D01*
X014705Y002593D01*
X014687Y002629D01*
X014674Y002666D01*
X014664Y002705D01*
X014658Y002744D01*
X014656Y002784D01*
D11*
X014156Y001484D02*
X014243Y001486D01*
X014330Y001492D01*
X014417Y001501D01*
X014503Y001514D01*
X014589Y001531D01*
X014674Y001552D01*
X014757Y001577D01*
X014840Y001605D01*
X014921Y001636D01*
X015001Y001671D01*
X015079Y001710D01*
X015156Y001752D01*
X015231Y001797D01*
X015303Y001846D01*
X015374Y001897D01*
X015442Y001952D01*
X015507Y002009D01*
X015570Y002070D01*
X015631Y002133D01*
X015688Y002198D01*
X015743Y002266D01*
X015794Y002337D01*
X015843Y002409D01*
X015888Y002484D01*
X015930Y002561D01*
X015969Y002639D01*
X016004Y002719D01*
X016035Y002800D01*
X016063Y002883D01*
X016088Y002966D01*
X016109Y003051D01*
X016126Y003137D01*
X016139Y003223D01*
X016148Y003310D01*
X016154Y003397D01*
X016156Y003484D01*
X016156Y004043D01*
X016156Y004044D02*
X016089Y004075D01*
X016024Y004109D01*
X015961Y004147D01*
X015900Y004189D01*
X015841Y004233D01*
X015785Y004280D01*
X015731Y004331D01*
X015680Y004384D01*
X015632Y004439D01*
X015587Y004498D01*
X015545Y004558D01*
X015506Y004621D01*
X015471Y004685D01*
X015439Y004751D01*
X015410Y004819D01*
X015385Y004889D01*
X015364Y004959D01*
X015347Y005031D01*
X015333Y005103D01*
X015324Y005176D01*
X015318Y005249D01*
X015316Y005323D01*
X015318Y005397D01*
X015324Y005470D01*
X015333Y005543D01*
X015347Y005615D01*
X015364Y005687D01*
X015385Y005757D01*
X015410Y005827D01*
X015439Y005895D01*
X015471Y005961D01*
X015506Y006025D01*
X015545Y006088D01*
X015587Y006148D01*
X015632Y006207D01*
X015680Y006262D01*
X015731Y006315D01*
X015785Y006366D01*
X015841Y006413D01*
X015900Y006457D01*
X015961Y006499D01*
X016024Y006537D01*
X016089Y006571D01*
X016156Y006602D01*
X016156Y014384D01*
X016154Y014463D01*
X016148Y014541D01*
X016139Y014619D01*
X016125Y014696D01*
X016108Y014773D01*
X016087Y014848D01*
X016062Y014923D01*
X016034Y014996D01*
X016002Y015068D01*
X015967Y015138D01*
X015928Y015207D01*
X015886Y015273D01*
X015841Y015337D01*
X015793Y015399D01*
X015742Y015458D01*
X015687Y015515D01*
X015630Y015570D01*
X015571Y015621D01*
X015509Y015669D01*
X015445Y015714D01*
X015379Y015756D01*
X015310Y015795D01*
X015240Y015830D01*
X015168Y015862D01*
X015095Y015890D01*
X015020Y015915D01*
X014945Y015936D01*
X014868Y015953D01*
X014791Y015967D01*
X014713Y015976D01*
X014635Y015982D01*
X014556Y015984D01*
X006774Y015984D01*
X006773Y015984D02*
X006742Y015917D01*
X006708Y015852D01*
X006670Y015789D01*
X006628Y015728D01*
X006584Y015669D01*
X006537Y015613D01*
X006486Y015559D01*
X006433Y015508D01*
X006378Y015460D01*
X006319Y015415D01*
X006259Y015373D01*
X006196Y015334D01*
X006132Y015299D01*
X006066Y015267D01*
X005998Y015238D01*
X005928Y015213D01*
X005858Y015192D01*
X005786Y015175D01*
X005714Y015161D01*
X005641Y015152D01*
X005568Y015146D01*
X005494Y015144D01*
X005420Y015146D01*
X005347Y015152D01*
X005274Y015161D01*
X005202Y015175D01*
X005130Y015192D01*
X005060Y015213D01*
X004990Y015238D01*
X004922Y015267D01*
X004856Y015299D01*
X004792Y015334D01*
X004729Y015373D01*
X004669Y015415D01*
X004610Y015460D01*
X004555Y015508D01*
X004502Y015559D01*
X004451Y015613D01*
X004404Y015669D01*
X004360Y015728D01*
X004318Y015789D01*
X004280Y015852D01*
X004246Y015917D01*
X004215Y015984D01*
X003656Y015984D01*
X003569Y015982D01*
X003482Y015976D01*
X003395Y015967D01*
X003309Y015954D01*
X003223Y015937D01*
X003138Y015916D01*
X003055Y015891D01*
X002972Y015863D01*
X002891Y015832D01*
X002811Y015797D01*
X002733Y015758D01*
X002656Y015716D01*
X002581Y015671D01*
X002509Y015622D01*
X002438Y015571D01*
X002370Y015516D01*
X002305Y015459D01*
X002242Y015398D01*
X002181Y015335D01*
X002124Y015270D01*
X002069Y015202D01*
X002018Y015131D01*
X001969Y015059D01*
X001924Y014984D01*
X001882Y014907D01*
X001843Y014829D01*
X001808Y014749D01*
X001777Y014668D01*
X001749Y014585D01*
X001724Y014502D01*
X001703Y014417D01*
X001686Y014331D01*
X001673Y014245D01*
X001664Y014158D01*
X001658Y014071D01*
X001656Y013984D01*
X001656Y006802D01*
X001728Y006769D01*
X001799Y006732D01*
X001867Y006691D01*
X001934Y006647D01*
X001998Y006600D01*
X002060Y006550D01*
X002120Y006497D01*
X002176Y006441D01*
X002230Y006382D01*
X002281Y006321D01*
X002329Y006257D01*
X002373Y006191D01*
X002415Y006123D01*
X002452Y006053D01*
X002487Y005981D01*
X002517Y005907D01*
X002544Y005832D01*
X002568Y005756D01*
X002587Y005679D01*
X002603Y005601D01*
X002615Y005522D01*
X002623Y005442D01*
X002627Y005363D01*
X002627Y005283D01*
X002623Y005204D01*
X002615Y005124D01*
X002603Y005045D01*
X002587Y004967D01*
X002568Y004890D01*
X002544Y004814D01*
X002517Y004739D01*
X002487Y004665D01*
X002452Y004593D01*
X002415Y004523D01*
X002373Y004455D01*
X002329Y004389D01*
X002281Y004325D01*
X002230Y004264D01*
X002176Y004205D01*
X002120Y004149D01*
X002060Y004096D01*
X001998Y004046D01*
X001934Y003999D01*
X001867Y003955D01*
X001799Y003914D01*
X001728Y003877D01*
X001656Y003844D01*
X001656Y003843D02*
X001656Y003109D01*
X001667Y003025D01*
X001682Y002941D01*
X001701Y002859D01*
X001724Y002777D01*
X001750Y002696D01*
X001780Y002617D01*
X001814Y002539D01*
X001851Y002463D01*
X001892Y002389D01*
X001936Y002316D01*
X001984Y002246D01*
X002035Y002178D01*
X002088Y002113D01*
X002145Y002050D01*
X002205Y001989D01*
X002267Y001932D01*
X002332Y001877D01*
X002399Y001826D01*
X002469Y001777D01*
X002541Y001732D01*
X002615Y001690D01*
X002690Y001652D01*
X002768Y001617D01*
X002847Y001586D01*
X002927Y001559D01*
X003008Y001535D01*
X003091Y001515D01*
X003174Y001499D01*
X003258Y001487D01*
X003342Y001478D01*
X003427Y001474D01*
X003512Y001473D01*
X003597Y001477D01*
X003681Y001484D01*
X004015Y001484D01*
X004048Y001556D01*
X004085Y001627D01*
X004126Y001695D01*
X004170Y001762D01*
X004217Y001826D01*
X004267Y001888D01*
X004320Y001948D01*
X004376Y002004D01*
X004435Y002058D01*
X004496Y002109D01*
X004560Y002157D01*
X004626Y002201D01*
X004694Y002243D01*
X004764Y002280D01*
X004836Y002315D01*
X004910Y002345D01*
X004985Y002372D01*
X005061Y002396D01*
X005138Y002415D01*
X005216Y002431D01*
X005295Y002443D01*
X005375Y002451D01*
X005454Y002455D01*
X005534Y002455D01*
X005613Y002451D01*
X005693Y002443D01*
X005772Y002431D01*
X005850Y002415D01*
X005927Y002396D01*
X006003Y002372D01*
X006078Y002345D01*
X006152Y002315D01*
X006224Y002280D01*
X006294Y002243D01*
X006362Y002201D01*
X006428Y002157D01*
X006492Y002109D01*
X006553Y002058D01*
X006612Y002004D01*
X006668Y001948D01*
X006721Y001888D01*
X006771Y001826D01*
X006818Y001762D01*
X006862Y001695D01*
X006903Y001627D01*
X006940Y001556D01*
X006973Y001484D01*
X006974Y001484D02*
X014156Y001484D01*
M02*
