G75*
%MOIN*%
%OFA0B0*%
%FSLAX25Y25*%
%IPPOS*%
%LPD*%
%AMOC8*
5,1,8,0,0,1.08239X$1,22.5*
%
%ADD10C,0.00000*%
%ADD11C,0.01600*%
D10*
X0023558Y0026840D02*
X0023560Y0026966D01*
X0023566Y0027092D01*
X0023576Y0027218D01*
X0023590Y0027344D01*
X0023608Y0027469D01*
X0023630Y0027593D01*
X0023655Y0027717D01*
X0023685Y0027840D01*
X0023718Y0027961D01*
X0023756Y0028082D01*
X0023797Y0028201D01*
X0023842Y0028320D01*
X0023890Y0028436D01*
X0023942Y0028551D01*
X0023998Y0028664D01*
X0024058Y0028776D01*
X0024121Y0028885D01*
X0024187Y0028993D01*
X0024256Y0029098D01*
X0024329Y0029201D01*
X0024406Y0029302D01*
X0024485Y0029400D01*
X0024567Y0029496D01*
X0024653Y0029589D01*
X0024741Y0029680D01*
X0024832Y0029767D01*
X0024926Y0029852D01*
X0025022Y0029933D01*
X0025121Y0030012D01*
X0025222Y0030087D01*
X0025326Y0030159D01*
X0025432Y0030228D01*
X0025540Y0030294D01*
X0025650Y0030356D01*
X0025762Y0030414D01*
X0025875Y0030469D01*
X0025991Y0030520D01*
X0026108Y0030568D01*
X0026226Y0030612D01*
X0026346Y0030652D01*
X0026467Y0030688D01*
X0026589Y0030721D01*
X0026712Y0030750D01*
X0026836Y0030774D01*
X0026960Y0030795D01*
X0027085Y0030812D01*
X0027211Y0030825D01*
X0027337Y0030834D01*
X0027463Y0030839D01*
X0027590Y0030840D01*
X0027716Y0030837D01*
X0027842Y0030830D01*
X0027968Y0030819D01*
X0028093Y0030804D01*
X0028218Y0030785D01*
X0028342Y0030762D01*
X0028466Y0030736D01*
X0028588Y0030705D01*
X0028710Y0030671D01*
X0028830Y0030632D01*
X0028949Y0030590D01*
X0029067Y0030545D01*
X0029183Y0030495D01*
X0029298Y0030442D01*
X0029410Y0030385D01*
X0029521Y0030325D01*
X0029630Y0030261D01*
X0029737Y0030194D01*
X0029842Y0030124D01*
X0029945Y0030050D01*
X0030045Y0029973D01*
X0030143Y0029893D01*
X0030238Y0029810D01*
X0030330Y0029724D01*
X0030420Y0029635D01*
X0030507Y0029543D01*
X0030590Y0029449D01*
X0030671Y0029352D01*
X0030749Y0029252D01*
X0030824Y0029150D01*
X0030895Y0029046D01*
X0030963Y0028939D01*
X0031027Y0028831D01*
X0031088Y0028720D01*
X0031146Y0028608D01*
X0031200Y0028494D01*
X0031250Y0028378D01*
X0031297Y0028261D01*
X0031340Y0028142D01*
X0031379Y0028022D01*
X0031415Y0027901D01*
X0031446Y0027778D01*
X0031474Y0027655D01*
X0031498Y0027531D01*
X0031518Y0027406D01*
X0031534Y0027281D01*
X0031546Y0027155D01*
X0031554Y0027029D01*
X0031558Y0026903D01*
X0031558Y0026777D01*
X0031554Y0026651D01*
X0031546Y0026525D01*
X0031534Y0026399D01*
X0031518Y0026274D01*
X0031498Y0026149D01*
X0031474Y0026025D01*
X0031446Y0025902D01*
X0031415Y0025779D01*
X0031379Y0025658D01*
X0031340Y0025538D01*
X0031297Y0025419D01*
X0031250Y0025302D01*
X0031200Y0025186D01*
X0031146Y0025072D01*
X0031088Y0024960D01*
X0031027Y0024849D01*
X0030963Y0024741D01*
X0030895Y0024634D01*
X0030824Y0024530D01*
X0030749Y0024428D01*
X0030671Y0024328D01*
X0030590Y0024231D01*
X0030507Y0024137D01*
X0030420Y0024045D01*
X0030330Y0023956D01*
X0030238Y0023870D01*
X0030143Y0023787D01*
X0030045Y0023707D01*
X0029945Y0023630D01*
X0029842Y0023556D01*
X0029737Y0023486D01*
X0029630Y0023419D01*
X0029521Y0023355D01*
X0029410Y0023295D01*
X0029298Y0023238D01*
X0029183Y0023185D01*
X0029067Y0023135D01*
X0028949Y0023090D01*
X0028830Y0023048D01*
X0028710Y0023009D01*
X0028588Y0022975D01*
X0028466Y0022944D01*
X0028342Y0022918D01*
X0028218Y0022895D01*
X0028093Y0022876D01*
X0027968Y0022861D01*
X0027842Y0022850D01*
X0027716Y0022843D01*
X0027590Y0022840D01*
X0027463Y0022841D01*
X0027337Y0022846D01*
X0027211Y0022855D01*
X0027085Y0022868D01*
X0026960Y0022885D01*
X0026836Y0022906D01*
X0026712Y0022930D01*
X0026589Y0022959D01*
X0026467Y0022992D01*
X0026346Y0023028D01*
X0026226Y0023068D01*
X0026108Y0023112D01*
X0025991Y0023160D01*
X0025875Y0023211D01*
X0025762Y0023266D01*
X0025650Y0023324D01*
X0025540Y0023386D01*
X0025432Y0023452D01*
X0025326Y0023521D01*
X0025222Y0023593D01*
X0025121Y0023668D01*
X0025022Y0023747D01*
X0024926Y0023828D01*
X0024832Y0023913D01*
X0024741Y0024000D01*
X0024653Y0024091D01*
X0024567Y0024184D01*
X0024485Y0024280D01*
X0024406Y0024378D01*
X0024329Y0024479D01*
X0024256Y0024582D01*
X0024187Y0024687D01*
X0024121Y0024795D01*
X0024058Y0024904D01*
X0023998Y0025016D01*
X0023942Y0025129D01*
X0023890Y0025244D01*
X0023842Y0025360D01*
X0023797Y0025479D01*
X0023756Y0025598D01*
X0023718Y0025719D01*
X0023685Y0025840D01*
X0023655Y0025963D01*
X0023630Y0026087D01*
X0023608Y0026211D01*
X0023590Y0026336D01*
X0023576Y0026462D01*
X0023566Y0026588D01*
X0023560Y0026714D01*
X0023558Y0026840D01*
X0054558Y0142840D02*
X0054560Y0142929D01*
X0054566Y0143018D01*
X0054576Y0143107D01*
X0054590Y0143195D01*
X0054607Y0143282D01*
X0054629Y0143368D01*
X0054655Y0143454D01*
X0054684Y0143538D01*
X0054717Y0143621D01*
X0054753Y0143702D01*
X0054794Y0143782D01*
X0054837Y0143859D01*
X0054884Y0143935D01*
X0054935Y0144008D01*
X0054988Y0144079D01*
X0055045Y0144148D01*
X0055105Y0144214D01*
X0055168Y0144278D01*
X0055233Y0144338D01*
X0055301Y0144396D01*
X0055372Y0144450D01*
X0055445Y0144501D01*
X0055520Y0144549D01*
X0055597Y0144594D01*
X0055676Y0144635D01*
X0055757Y0144672D01*
X0055839Y0144706D01*
X0055923Y0144737D01*
X0056008Y0144763D01*
X0056094Y0144786D01*
X0056181Y0144804D01*
X0056269Y0144819D01*
X0056358Y0144830D01*
X0056447Y0144837D01*
X0056536Y0144840D01*
X0056625Y0144839D01*
X0056714Y0144834D01*
X0056802Y0144825D01*
X0056891Y0144812D01*
X0056978Y0144795D01*
X0057065Y0144775D01*
X0057151Y0144750D01*
X0057235Y0144722D01*
X0057318Y0144690D01*
X0057400Y0144654D01*
X0057480Y0144615D01*
X0057558Y0144572D01*
X0057634Y0144526D01*
X0057708Y0144476D01*
X0057780Y0144423D01*
X0057849Y0144367D01*
X0057916Y0144308D01*
X0057980Y0144246D01*
X0058041Y0144182D01*
X0058100Y0144114D01*
X0058155Y0144044D01*
X0058207Y0143972D01*
X0058256Y0143897D01*
X0058301Y0143821D01*
X0058343Y0143742D01*
X0058381Y0143662D01*
X0058416Y0143580D01*
X0058447Y0143496D01*
X0058475Y0143411D01*
X0058498Y0143325D01*
X0058518Y0143238D01*
X0058534Y0143151D01*
X0058546Y0143062D01*
X0058554Y0142974D01*
X0058558Y0142885D01*
X0058558Y0142795D01*
X0058554Y0142706D01*
X0058546Y0142618D01*
X0058534Y0142529D01*
X0058518Y0142442D01*
X0058498Y0142355D01*
X0058475Y0142269D01*
X0058447Y0142184D01*
X0058416Y0142100D01*
X0058381Y0142018D01*
X0058343Y0141938D01*
X0058301Y0141859D01*
X0058256Y0141783D01*
X0058207Y0141708D01*
X0058155Y0141636D01*
X0058100Y0141566D01*
X0058041Y0141498D01*
X0057980Y0141434D01*
X0057916Y0141372D01*
X0057849Y0141313D01*
X0057780Y0141257D01*
X0057708Y0141204D01*
X0057634Y0141154D01*
X0057558Y0141108D01*
X0057480Y0141065D01*
X0057400Y0141026D01*
X0057318Y0140990D01*
X0057235Y0140958D01*
X0057151Y0140930D01*
X0057065Y0140905D01*
X0056978Y0140885D01*
X0056891Y0140868D01*
X0056802Y0140855D01*
X0056714Y0140846D01*
X0056625Y0140841D01*
X0056536Y0140840D01*
X0056447Y0140843D01*
X0056358Y0140850D01*
X0056269Y0140861D01*
X0056181Y0140876D01*
X0056094Y0140894D01*
X0056008Y0140917D01*
X0055923Y0140943D01*
X0055839Y0140974D01*
X0055757Y0141008D01*
X0055676Y0141045D01*
X0055597Y0141086D01*
X0055520Y0141131D01*
X0055445Y0141179D01*
X0055372Y0141230D01*
X0055301Y0141284D01*
X0055233Y0141342D01*
X0055168Y0141402D01*
X0055105Y0141466D01*
X0055045Y0141532D01*
X0054988Y0141601D01*
X0054935Y0141672D01*
X0054884Y0141745D01*
X0054837Y0141821D01*
X0054794Y0141898D01*
X0054753Y0141978D01*
X0054717Y0142059D01*
X0054684Y0142142D01*
X0054655Y0142226D01*
X0054629Y0142312D01*
X0054607Y0142398D01*
X0054590Y0142485D01*
X0054576Y0142573D01*
X0054566Y0142662D01*
X0054560Y0142751D01*
X0054558Y0142840D01*
X0054558Y0150840D02*
X0054560Y0150929D01*
X0054566Y0151018D01*
X0054576Y0151107D01*
X0054590Y0151195D01*
X0054607Y0151282D01*
X0054629Y0151368D01*
X0054655Y0151454D01*
X0054684Y0151538D01*
X0054717Y0151621D01*
X0054753Y0151702D01*
X0054794Y0151782D01*
X0054837Y0151859D01*
X0054884Y0151935D01*
X0054935Y0152008D01*
X0054988Y0152079D01*
X0055045Y0152148D01*
X0055105Y0152214D01*
X0055168Y0152278D01*
X0055233Y0152338D01*
X0055301Y0152396D01*
X0055372Y0152450D01*
X0055445Y0152501D01*
X0055520Y0152549D01*
X0055597Y0152594D01*
X0055676Y0152635D01*
X0055757Y0152672D01*
X0055839Y0152706D01*
X0055923Y0152737D01*
X0056008Y0152763D01*
X0056094Y0152786D01*
X0056181Y0152804D01*
X0056269Y0152819D01*
X0056358Y0152830D01*
X0056447Y0152837D01*
X0056536Y0152840D01*
X0056625Y0152839D01*
X0056714Y0152834D01*
X0056802Y0152825D01*
X0056891Y0152812D01*
X0056978Y0152795D01*
X0057065Y0152775D01*
X0057151Y0152750D01*
X0057235Y0152722D01*
X0057318Y0152690D01*
X0057400Y0152654D01*
X0057480Y0152615D01*
X0057558Y0152572D01*
X0057634Y0152526D01*
X0057708Y0152476D01*
X0057780Y0152423D01*
X0057849Y0152367D01*
X0057916Y0152308D01*
X0057980Y0152246D01*
X0058041Y0152182D01*
X0058100Y0152114D01*
X0058155Y0152044D01*
X0058207Y0151972D01*
X0058256Y0151897D01*
X0058301Y0151821D01*
X0058343Y0151742D01*
X0058381Y0151662D01*
X0058416Y0151580D01*
X0058447Y0151496D01*
X0058475Y0151411D01*
X0058498Y0151325D01*
X0058518Y0151238D01*
X0058534Y0151151D01*
X0058546Y0151062D01*
X0058554Y0150974D01*
X0058558Y0150885D01*
X0058558Y0150795D01*
X0058554Y0150706D01*
X0058546Y0150618D01*
X0058534Y0150529D01*
X0058518Y0150442D01*
X0058498Y0150355D01*
X0058475Y0150269D01*
X0058447Y0150184D01*
X0058416Y0150100D01*
X0058381Y0150018D01*
X0058343Y0149938D01*
X0058301Y0149859D01*
X0058256Y0149783D01*
X0058207Y0149708D01*
X0058155Y0149636D01*
X0058100Y0149566D01*
X0058041Y0149498D01*
X0057980Y0149434D01*
X0057916Y0149372D01*
X0057849Y0149313D01*
X0057780Y0149257D01*
X0057708Y0149204D01*
X0057634Y0149154D01*
X0057558Y0149108D01*
X0057480Y0149065D01*
X0057400Y0149026D01*
X0057318Y0148990D01*
X0057235Y0148958D01*
X0057151Y0148930D01*
X0057065Y0148905D01*
X0056978Y0148885D01*
X0056891Y0148868D01*
X0056802Y0148855D01*
X0056714Y0148846D01*
X0056625Y0148841D01*
X0056536Y0148840D01*
X0056447Y0148843D01*
X0056358Y0148850D01*
X0056269Y0148861D01*
X0056181Y0148876D01*
X0056094Y0148894D01*
X0056008Y0148917D01*
X0055923Y0148943D01*
X0055839Y0148974D01*
X0055757Y0149008D01*
X0055676Y0149045D01*
X0055597Y0149086D01*
X0055520Y0149131D01*
X0055445Y0149179D01*
X0055372Y0149230D01*
X0055301Y0149284D01*
X0055233Y0149342D01*
X0055168Y0149402D01*
X0055105Y0149466D01*
X0055045Y0149532D01*
X0054988Y0149601D01*
X0054935Y0149672D01*
X0054884Y0149745D01*
X0054837Y0149821D01*
X0054794Y0149898D01*
X0054753Y0149978D01*
X0054717Y0150059D01*
X0054684Y0150142D01*
X0054655Y0150226D01*
X0054629Y0150312D01*
X0054607Y0150398D01*
X0054590Y0150485D01*
X0054576Y0150573D01*
X0054566Y0150662D01*
X0054560Y0150751D01*
X0054558Y0150840D01*
X0034558Y0146840D02*
X0034560Y0146929D01*
X0034566Y0147018D01*
X0034576Y0147107D01*
X0034590Y0147195D01*
X0034607Y0147282D01*
X0034629Y0147368D01*
X0034655Y0147454D01*
X0034684Y0147538D01*
X0034717Y0147621D01*
X0034753Y0147702D01*
X0034794Y0147782D01*
X0034837Y0147859D01*
X0034884Y0147935D01*
X0034935Y0148008D01*
X0034988Y0148079D01*
X0035045Y0148148D01*
X0035105Y0148214D01*
X0035168Y0148278D01*
X0035233Y0148338D01*
X0035301Y0148396D01*
X0035372Y0148450D01*
X0035445Y0148501D01*
X0035520Y0148549D01*
X0035597Y0148594D01*
X0035676Y0148635D01*
X0035757Y0148672D01*
X0035839Y0148706D01*
X0035923Y0148737D01*
X0036008Y0148763D01*
X0036094Y0148786D01*
X0036181Y0148804D01*
X0036269Y0148819D01*
X0036358Y0148830D01*
X0036447Y0148837D01*
X0036536Y0148840D01*
X0036625Y0148839D01*
X0036714Y0148834D01*
X0036802Y0148825D01*
X0036891Y0148812D01*
X0036978Y0148795D01*
X0037065Y0148775D01*
X0037151Y0148750D01*
X0037235Y0148722D01*
X0037318Y0148690D01*
X0037400Y0148654D01*
X0037480Y0148615D01*
X0037558Y0148572D01*
X0037634Y0148526D01*
X0037708Y0148476D01*
X0037780Y0148423D01*
X0037849Y0148367D01*
X0037916Y0148308D01*
X0037980Y0148246D01*
X0038041Y0148182D01*
X0038100Y0148114D01*
X0038155Y0148044D01*
X0038207Y0147972D01*
X0038256Y0147897D01*
X0038301Y0147821D01*
X0038343Y0147742D01*
X0038381Y0147662D01*
X0038416Y0147580D01*
X0038447Y0147496D01*
X0038475Y0147411D01*
X0038498Y0147325D01*
X0038518Y0147238D01*
X0038534Y0147151D01*
X0038546Y0147062D01*
X0038554Y0146974D01*
X0038558Y0146885D01*
X0038558Y0146795D01*
X0038554Y0146706D01*
X0038546Y0146618D01*
X0038534Y0146529D01*
X0038518Y0146442D01*
X0038498Y0146355D01*
X0038475Y0146269D01*
X0038447Y0146184D01*
X0038416Y0146100D01*
X0038381Y0146018D01*
X0038343Y0145938D01*
X0038301Y0145859D01*
X0038256Y0145783D01*
X0038207Y0145708D01*
X0038155Y0145636D01*
X0038100Y0145566D01*
X0038041Y0145498D01*
X0037980Y0145434D01*
X0037916Y0145372D01*
X0037849Y0145313D01*
X0037780Y0145257D01*
X0037708Y0145204D01*
X0037634Y0145154D01*
X0037558Y0145108D01*
X0037480Y0145065D01*
X0037400Y0145026D01*
X0037318Y0144990D01*
X0037235Y0144958D01*
X0037151Y0144930D01*
X0037065Y0144905D01*
X0036978Y0144885D01*
X0036891Y0144868D01*
X0036802Y0144855D01*
X0036714Y0144846D01*
X0036625Y0144841D01*
X0036536Y0144840D01*
X0036447Y0144843D01*
X0036358Y0144850D01*
X0036269Y0144861D01*
X0036181Y0144876D01*
X0036094Y0144894D01*
X0036008Y0144917D01*
X0035923Y0144943D01*
X0035839Y0144974D01*
X0035757Y0145008D01*
X0035676Y0145045D01*
X0035597Y0145086D01*
X0035520Y0145131D01*
X0035445Y0145179D01*
X0035372Y0145230D01*
X0035301Y0145284D01*
X0035233Y0145342D01*
X0035168Y0145402D01*
X0035105Y0145466D01*
X0035045Y0145532D01*
X0034988Y0145601D01*
X0034935Y0145672D01*
X0034884Y0145745D01*
X0034837Y0145821D01*
X0034794Y0145898D01*
X0034753Y0145978D01*
X0034717Y0146059D01*
X0034684Y0146142D01*
X0034655Y0146226D01*
X0034629Y0146312D01*
X0034607Y0146398D01*
X0034590Y0146485D01*
X0034576Y0146573D01*
X0034566Y0146662D01*
X0034560Y0146751D01*
X0034558Y0146840D01*
X0025558Y0148840D02*
X0025560Y0148966D01*
X0025566Y0149092D01*
X0025576Y0149218D01*
X0025590Y0149344D01*
X0025608Y0149469D01*
X0025630Y0149593D01*
X0025655Y0149717D01*
X0025685Y0149840D01*
X0025718Y0149961D01*
X0025756Y0150082D01*
X0025797Y0150201D01*
X0025842Y0150320D01*
X0025890Y0150436D01*
X0025942Y0150551D01*
X0025998Y0150664D01*
X0026058Y0150776D01*
X0026121Y0150885D01*
X0026187Y0150993D01*
X0026256Y0151098D01*
X0026329Y0151201D01*
X0026406Y0151302D01*
X0026485Y0151400D01*
X0026567Y0151496D01*
X0026653Y0151589D01*
X0026741Y0151680D01*
X0026832Y0151767D01*
X0026926Y0151852D01*
X0027022Y0151933D01*
X0027121Y0152012D01*
X0027222Y0152087D01*
X0027326Y0152159D01*
X0027432Y0152228D01*
X0027540Y0152294D01*
X0027650Y0152356D01*
X0027762Y0152414D01*
X0027875Y0152469D01*
X0027991Y0152520D01*
X0028108Y0152568D01*
X0028226Y0152612D01*
X0028346Y0152652D01*
X0028467Y0152688D01*
X0028589Y0152721D01*
X0028712Y0152750D01*
X0028836Y0152774D01*
X0028960Y0152795D01*
X0029085Y0152812D01*
X0029211Y0152825D01*
X0029337Y0152834D01*
X0029463Y0152839D01*
X0029590Y0152840D01*
X0029716Y0152837D01*
X0029842Y0152830D01*
X0029968Y0152819D01*
X0030093Y0152804D01*
X0030218Y0152785D01*
X0030342Y0152762D01*
X0030466Y0152736D01*
X0030588Y0152705D01*
X0030710Y0152671D01*
X0030830Y0152632D01*
X0030949Y0152590D01*
X0031067Y0152545D01*
X0031183Y0152495D01*
X0031298Y0152442D01*
X0031410Y0152385D01*
X0031521Y0152325D01*
X0031630Y0152261D01*
X0031737Y0152194D01*
X0031842Y0152124D01*
X0031945Y0152050D01*
X0032045Y0151973D01*
X0032143Y0151893D01*
X0032238Y0151810D01*
X0032330Y0151724D01*
X0032420Y0151635D01*
X0032507Y0151543D01*
X0032590Y0151449D01*
X0032671Y0151352D01*
X0032749Y0151252D01*
X0032824Y0151150D01*
X0032895Y0151046D01*
X0032963Y0150939D01*
X0033027Y0150831D01*
X0033088Y0150720D01*
X0033146Y0150608D01*
X0033200Y0150494D01*
X0033250Y0150378D01*
X0033297Y0150261D01*
X0033340Y0150142D01*
X0033379Y0150022D01*
X0033415Y0149901D01*
X0033446Y0149778D01*
X0033474Y0149655D01*
X0033498Y0149531D01*
X0033518Y0149406D01*
X0033534Y0149281D01*
X0033546Y0149155D01*
X0033554Y0149029D01*
X0033558Y0148903D01*
X0033558Y0148777D01*
X0033554Y0148651D01*
X0033546Y0148525D01*
X0033534Y0148399D01*
X0033518Y0148274D01*
X0033498Y0148149D01*
X0033474Y0148025D01*
X0033446Y0147902D01*
X0033415Y0147779D01*
X0033379Y0147658D01*
X0033340Y0147538D01*
X0033297Y0147419D01*
X0033250Y0147302D01*
X0033200Y0147186D01*
X0033146Y0147072D01*
X0033088Y0146960D01*
X0033027Y0146849D01*
X0032963Y0146741D01*
X0032895Y0146634D01*
X0032824Y0146530D01*
X0032749Y0146428D01*
X0032671Y0146328D01*
X0032590Y0146231D01*
X0032507Y0146137D01*
X0032420Y0146045D01*
X0032330Y0145956D01*
X0032238Y0145870D01*
X0032143Y0145787D01*
X0032045Y0145707D01*
X0031945Y0145630D01*
X0031842Y0145556D01*
X0031737Y0145486D01*
X0031630Y0145419D01*
X0031521Y0145355D01*
X0031410Y0145295D01*
X0031298Y0145238D01*
X0031183Y0145185D01*
X0031067Y0145135D01*
X0030949Y0145090D01*
X0030830Y0145048D01*
X0030710Y0145009D01*
X0030588Y0144975D01*
X0030466Y0144944D01*
X0030342Y0144918D01*
X0030218Y0144895D01*
X0030093Y0144876D01*
X0029968Y0144861D01*
X0029842Y0144850D01*
X0029716Y0144843D01*
X0029590Y0144840D01*
X0029463Y0144841D01*
X0029337Y0144846D01*
X0029211Y0144855D01*
X0029085Y0144868D01*
X0028960Y0144885D01*
X0028836Y0144906D01*
X0028712Y0144930D01*
X0028589Y0144959D01*
X0028467Y0144992D01*
X0028346Y0145028D01*
X0028226Y0145068D01*
X0028108Y0145112D01*
X0027991Y0145160D01*
X0027875Y0145211D01*
X0027762Y0145266D01*
X0027650Y0145324D01*
X0027540Y0145386D01*
X0027432Y0145452D01*
X0027326Y0145521D01*
X0027222Y0145593D01*
X0027121Y0145668D01*
X0027022Y0145747D01*
X0026926Y0145828D01*
X0026832Y0145913D01*
X0026741Y0146000D01*
X0026653Y0146091D01*
X0026567Y0146184D01*
X0026485Y0146280D01*
X0026406Y0146378D01*
X0026329Y0146479D01*
X0026256Y0146582D01*
X0026187Y0146687D01*
X0026121Y0146795D01*
X0026058Y0146904D01*
X0025998Y0147016D01*
X0025942Y0147129D01*
X0025890Y0147244D01*
X0025842Y0147360D01*
X0025797Y0147479D01*
X0025756Y0147598D01*
X0025718Y0147719D01*
X0025685Y0147840D01*
X0025655Y0147963D01*
X0025630Y0148087D01*
X0025608Y0148211D01*
X0025590Y0148336D01*
X0025576Y0148462D01*
X0025566Y0148588D01*
X0025560Y0148714D01*
X0025558Y0148840D01*
X0100558Y0153840D02*
X0100560Y0153966D01*
X0100566Y0154092D01*
X0100576Y0154218D01*
X0100590Y0154344D01*
X0100608Y0154469D01*
X0100630Y0154593D01*
X0100655Y0154717D01*
X0100685Y0154840D01*
X0100718Y0154961D01*
X0100756Y0155082D01*
X0100797Y0155201D01*
X0100842Y0155320D01*
X0100890Y0155436D01*
X0100942Y0155551D01*
X0100998Y0155664D01*
X0101058Y0155776D01*
X0101121Y0155885D01*
X0101187Y0155993D01*
X0101256Y0156098D01*
X0101329Y0156201D01*
X0101406Y0156302D01*
X0101485Y0156400D01*
X0101567Y0156496D01*
X0101653Y0156589D01*
X0101741Y0156680D01*
X0101832Y0156767D01*
X0101926Y0156852D01*
X0102022Y0156933D01*
X0102121Y0157012D01*
X0102222Y0157087D01*
X0102326Y0157159D01*
X0102432Y0157228D01*
X0102540Y0157294D01*
X0102650Y0157356D01*
X0102762Y0157414D01*
X0102875Y0157469D01*
X0102991Y0157520D01*
X0103108Y0157568D01*
X0103226Y0157612D01*
X0103346Y0157652D01*
X0103467Y0157688D01*
X0103589Y0157721D01*
X0103712Y0157750D01*
X0103836Y0157774D01*
X0103960Y0157795D01*
X0104085Y0157812D01*
X0104211Y0157825D01*
X0104337Y0157834D01*
X0104463Y0157839D01*
X0104590Y0157840D01*
X0104716Y0157837D01*
X0104842Y0157830D01*
X0104968Y0157819D01*
X0105093Y0157804D01*
X0105218Y0157785D01*
X0105342Y0157762D01*
X0105466Y0157736D01*
X0105588Y0157705D01*
X0105710Y0157671D01*
X0105830Y0157632D01*
X0105949Y0157590D01*
X0106067Y0157545D01*
X0106183Y0157495D01*
X0106298Y0157442D01*
X0106410Y0157385D01*
X0106521Y0157325D01*
X0106630Y0157261D01*
X0106737Y0157194D01*
X0106842Y0157124D01*
X0106945Y0157050D01*
X0107045Y0156973D01*
X0107143Y0156893D01*
X0107238Y0156810D01*
X0107330Y0156724D01*
X0107420Y0156635D01*
X0107507Y0156543D01*
X0107590Y0156449D01*
X0107671Y0156352D01*
X0107749Y0156252D01*
X0107824Y0156150D01*
X0107895Y0156046D01*
X0107963Y0155939D01*
X0108027Y0155831D01*
X0108088Y0155720D01*
X0108146Y0155608D01*
X0108200Y0155494D01*
X0108250Y0155378D01*
X0108297Y0155261D01*
X0108340Y0155142D01*
X0108379Y0155022D01*
X0108415Y0154901D01*
X0108446Y0154778D01*
X0108474Y0154655D01*
X0108498Y0154531D01*
X0108518Y0154406D01*
X0108534Y0154281D01*
X0108546Y0154155D01*
X0108554Y0154029D01*
X0108558Y0153903D01*
X0108558Y0153777D01*
X0108554Y0153651D01*
X0108546Y0153525D01*
X0108534Y0153399D01*
X0108518Y0153274D01*
X0108498Y0153149D01*
X0108474Y0153025D01*
X0108446Y0152902D01*
X0108415Y0152779D01*
X0108379Y0152658D01*
X0108340Y0152538D01*
X0108297Y0152419D01*
X0108250Y0152302D01*
X0108200Y0152186D01*
X0108146Y0152072D01*
X0108088Y0151960D01*
X0108027Y0151849D01*
X0107963Y0151741D01*
X0107895Y0151634D01*
X0107824Y0151530D01*
X0107749Y0151428D01*
X0107671Y0151328D01*
X0107590Y0151231D01*
X0107507Y0151137D01*
X0107420Y0151045D01*
X0107330Y0150956D01*
X0107238Y0150870D01*
X0107143Y0150787D01*
X0107045Y0150707D01*
X0106945Y0150630D01*
X0106842Y0150556D01*
X0106737Y0150486D01*
X0106630Y0150419D01*
X0106521Y0150355D01*
X0106410Y0150295D01*
X0106298Y0150238D01*
X0106183Y0150185D01*
X0106067Y0150135D01*
X0105949Y0150090D01*
X0105830Y0150048D01*
X0105710Y0150009D01*
X0105588Y0149975D01*
X0105466Y0149944D01*
X0105342Y0149918D01*
X0105218Y0149895D01*
X0105093Y0149876D01*
X0104968Y0149861D01*
X0104842Y0149850D01*
X0104716Y0149843D01*
X0104590Y0149840D01*
X0104463Y0149841D01*
X0104337Y0149846D01*
X0104211Y0149855D01*
X0104085Y0149868D01*
X0103960Y0149885D01*
X0103836Y0149906D01*
X0103712Y0149930D01*
X0103589Y0149959D01*
X0103467Y0149992D01*
X0103346Y0150028D01*
X0103226Y0150068D01*
X0103108Y0150112D01*
X0102991Y0150160D01*
X0102875Y0150211D01*
X0102762Y0150266D01*
X0102650Y0150324D01*
X0102540Y0150386D01*
X0102432Y0150452D01*
X0102326Y0150521D01*
X0102222Y0150593D01*
X0102121Y0150668D01*
X0102022Y0150747D01*
X0101926Y0150828D01*
X0101832Y0150913D01*
X0101741Y0151000D01*
X0101653Y0151091D01*
X0101567Y0151184D01*
X0101485Y0151280D01*
X0101406Y0151378D01*
X0101329Y0151479D01*
X0101256Y0151582D01*
X0101187Y0151687D01*
X0101121Y0151795D01*
X0101058Y0151904D01*
X0100998Y0152016D01*
X0100942Y0152129D01*
X0100890Y0152244D01*
X0100842Y0152360D01*
X0100797Y0152479D01*
X0100756Y0152598D01*
X0100718Y0152719D01*
X0100685Y0152840D01*
X0100655Y0152963D01*
X0100630Y0153087D01*
X0100608Y0153211D01*
X0100590Y0153336D01*
X0100576Y0153462D01*
X0100566Y0153588D01*
X0100560Y0153714D01*
X0100558Y0153840D01*
X0149558Y0084840D02*
X0149560Y0084966D01*
X0149566Y0085092D01*
X0149576Y0085218D01*
X0149590Y0085344D01*
X0149608Y0085469D01*
X0149630Y0085593D01*
X0149655Y0085717D01*
X0149685Y0085840D01*
X0149718Y0085961D01*
X0149756Y0086082D01*
X0149797Y0086201D01*
X0149842Y0086320D01*
X0149890Y0086436D01*
X0149942Y0086551D01*
X0149998Y0086664D01*
X0150058Y0086776D01*
X0150121Y0086885D01*
X0150187Y0086993D01*
X0150256Y0087098D01*
X0150329Y0087201D01*
X0150406Y0087302D01*
X0150485Y0087400D01*
X0150567Y0087496D01*
X0150653Y0087589D01*
X0150741Y0087680D01*
X0150832Y0087767D01*
X0150926Y0087852D01*
X0151022Y0087933D01*
X0151121Y0088012D01*
X0151222Y0088087D01*
X0151326Y0088159D01*
X0151432Y0088228D01*
X0151540Y0088294D01*
X0151650Y0088356D01*
X0151762Y0088414D01*
X0151875Y0088469D01*
X0151991Y0088520D01*
X0152108Y0088568D01*
X0152226Y0088612D01*
X0152346Y0088652D01*
X0152467Y0088688D01*
X0152589Y0088721D01*
X0152712Y0088750D01*
X0152836Y0088774D01*
X0152960Y0088795D01*
X0153085Y0088812D01*
X0153211Y0088825D01*
X0153337Y0088834D01*
X0153463Y0088839D01*
X0153590Y0088840D01*
X0153716Y0088837D01*
X0153842Y0088830D01*
X0153968Y0088819D01*
X0154093Y0088804D01*
X0154218Y0088785D01*
X0154342Y0088762D01*
X0154466Y0088736D01*
X0154588Y0088705D01*
X0154710Y0088671D01*
X0154830Y0088632D01*
X0154949Y0088590D01*
X0155067Y0088545D01*
X0155183Y0088495D01*
X0155298Y0088442D01*
X0155410Y0088385D01*
X0155521Y0088325D01*
X0155630Y0088261D01*
X0155737Y0088194D01*
X0155842Y0088124D01*
X0155945Y0088050D01*
X0156045Y0087973D01*
X0156143Y0087893D01*
X0156238Y0087810D01*
X0156330Y0087724D01*
X0156420Y0087635D01*
X0156507Y0087543D01*
X0156590Y0087449D01*
X0156671Y0087352D01*
X0156749Y0087252D01*
X0156824Y0087150D01*
X0156895Y0087046D01*
X0156963Y0086939D01*
X0157027Y0086831D01*
X0157088Y0086720D01*
X0157146Y0086608D01*
X0157200Y0086494D01*
X0157250Y0086378D01*
X0157297Y0086261D01*
X0157340Y0086142D01*
X0157379Y0086022D01*
X0157415Y0085901D01*
X0157446Y0085778D01*
X0157474Y0085655D01*
X0157498Y0085531D01*
X0157518Y0085406D01*
X0157534Y0085281D01*
X0157546Y0085155D01*
X0157554Y0085029D01*
X0157558Y0084903D01*
X0157558Y0084777D01*
X0157554Y0084651D01*
X0157546Y0084525D01*
X0157534Y0084399D01*
X0157518Y0084274D01*
X0157498Y0084149D01*
X0157474Y0084025D01*
X0157446Y0083902D01*
X0157415Y0083779D01*
X0157379Y0083658D01*
X0157340Y0083538D01*
X0157297Y0083419D01*
X0157250Y0083302D01*
X0157200Y0083186D01*
X0157146Y0083072D01*
X0157088Y0082960D01*
X0157027Y0082849D01*
X0156963Y0082741D01*
X0156895Y0082634D01*
X0156824Y0082530D01*
X0156749Y0082428D01*
X0156671Y0082328D01*
X0156590Y0082231D01*
X0156507Y0082137D01*
X0156420Y0082045D01*
X0156330Y0081956D01*
X0156238Y0081870D01*
X0156143Y0081787D01*
X0156045Y0081707D01*
X0155945Y0081630D01*
X0155842Y0081556D01*
X0155737Y0081486D01*
X0155630Y0081419D01*
X0155521Y0081355D01*
X0155410Y0081295D01*
X0155298Y0081238D01*
X0155183Y0081185D01*
X0155067Y0081135D01*
X0154949Y0081090D01*
X0154830Y0081048D01*
X0154710Y0081009D01*
X0154588Y0080975D01*
X0154466Y0080944D01*
X0154342Y0080918D01*
X0154218Y0080895D01*
X0154093Y0080876D01*
X0153968Y0080861D01*
X0153842Y0080850D01*
X0153716Y0080843D01*
X0153590Y0080840D01*
X0153463Y0080841D01*
X0153337Y0080846D01*
X0153211Y0080855D01*
X0153085Y0080868D01*
X0152960Y0080885D01*
X0152836Y0080906D01*
X0152712Y0080930D01*
X0152589Y0080959D01*
X0152467Y0080992D01*
X0152346Y0081028D01*
X0152226Y0081068D01*
X0152108Y0081112D01*
X0151991Y0081160D01*
X0151875Y0081211D01*
X0151762Y0081266D01*
X0151650Y0081324D01*
X0151540Y0081386D01*
X0151432Y0081452D01*
X0151326Y0081521D01*
X0151222Y0081593D01*
X0151121Y0081668D01*
X0151022Y0081747D01*
X0150926Y0081828D01*
X0150832Y0081913D01*
X0150741Y0082000D01*
X0150653Y0082091D01*
X0150567Y0082184D01*
X0150485Y0082280D01*
X0150406Y0082378D01*
X0150329Y0082479D01*
X0150256Y0082582D01*
X0150187Y0082687D01*
X0150121Y0082795D01*
X0150058Y0082904D01*
X0149998Y0083016D01*
X0149942Y0083129D01*
X0149890Y0083244D01*
X0149842Y0083360D01*
X0149797Y0083479D01*
X0149756Y0083598D01*
X0149718Y0083719D01*
X0149685Y0083840D01*
X0149655Y0083963D01*
X0149630Y0084087D01*
X0149608Y0084211D01*
X0149590Y0084336D01*
X0149576Y0084462D01*
X0149566Y0084588D01*
X0149560Y0084714D01*
X0149558Y0084840D01*
X0146558Y0027840D02*
X0146560Y0027966D01*
X0146566Y0028092D01*
X0146576Y0028218D01*
X0146590Y0028344D01*
X0146608Y0028469D01*
X0146630Y0028593D01*
X0146655Y0028717D01*
X0146685Y0028840D01*
X0146718Y0028961D01*
X0146756Y0029082D01*
X0146797Y0029201D01*
X0146842Y0029320D01*
X0146890Y0029436D01*
X0146942Y0029551D01*
X0146998Y0029664D01*
X0147058Y0029776D01*
X0147121Y0029885D01*
X0147187Y0029993D01*
X0147256Y0030098D01*
X0147329Y0030201D01*
X0147406Y0030302D01*
X0147485Y0030400D01*
X0147567Y0030496D01*
X0147653Y0030589D01*
X0147741Y0030680D01*
X0147832Y0030767D01*
X0147926Y0030852D01*
X0148022Y0030933D01*
X0148121Y0031012D01*
X0148222Y0031087D01*
X0148326Y0031159D01*
X0148432Y0031228D01*
X0148540Y0031294D01*
X0148650Y0031356D01*
X0148762Y0031414D01*
X0148875Y0031469D01*
X0148991Y0031520D01*
X0149108Y0031568D01*
X0149226Y0031612D01*
X0149346Y0031652D01*
X0149467Y0031688D01*
X0149589Y0031721D01*
X0149712Y0031750D01*
X0149836Y0031774D01*
X0149960Y0031795D01*
X0150085Y0031812D01*
X0150211Y0031825D01*
X0150337Y0031834D01*
X0150463Y0031839D01*
X0150590Y0031840D01*
X0150716Y0031837D01*
X0150842Y0031830D01*
X0150968Y0031819D01*
X0151093Y0031804D01*
X0151218Y0031785D01*
X0151342Y0031762D01*
X0151466Y0031736D01*
X0151588Y0031705D01*
X0151710Y0031671D01*
X0151830Y0031632D01*
X0151949Y0031590D01*
X0152067Y0031545D01*
X0152183Y0031495D01*
X0152298Y0031442D01*
X0152410Y0031385D01*
X0152521Y0031325D01*
X0152630Y0031261D01*
X0152737Y0031194D01*
X0152842Y0031124D01*
X0152945Y0031050D01*
X0153045Y0030973D01*
X0153143Y0030893D01*
X0153238Y0030810D01*
X0153330Y0030724D01*
X0153420Y0030635D01*
X0153507Y0030543D01*
X0153590Y0030449D01*
X0153671Y0030352D01*
X0153749Y0030252D01*
X0153824Y0030150D01*
X0153895Y0030046D01*
X0153963Y0029939D01*
X0154027Y0029831D01*
X0154088Y0029720D01*
X0154146Y0029608D01*
X0154200Y0029494D01*
X0154250Y0029378D01*
X0154297Y0029261D01*
X0154340Y0029142D01*
X0154379Y0029022D01*
X0154415Y0028901D01*
X0154446Y0028778D01*
X0154474Y0028655D01*
X0154498Y0028531D01*
X0154518Y0028406D01*
X0154534Y0028281D01*
X0154546Y0028155D01*
X0154554Y0028029D01*
X0154558Y0027903D01*
X0154558Y0027777D01*
X0154554Y0027651D01*
X0154546Y0027525D01*
X0154534Y0027399D01*
X0154518Y0027274D01*
X0154498Y0027149D01*
X0154474Y0027025D01*
X0154446Y0026902D01*
X0154415Y0026779D01*
X0154379Y0026658D01*
X0154340Y0026538D01*
X0154297Y0026419D01*
X0154250Y0026302D01*
X0154200Y0026186D01*
X0154146Y0026072D01*
X0154088Y0025960D01*
X0154027Y0025849D01*
X0153963Y0025741D01*
X0153895Y0025634D01*
X0153824Y0025530D01*
X0153749Y0025428D01*
X0153671Y0025328D01*
X0153590Y0025231D01*
X0153507Y0025137D01*
X0153420Y0025045D01*
X0153330Y0024956D01*
X0153238Y0024870D01*
X0153143Y0024787D01*
X0153045Y0024707D01*
X0152945Y0024630D01*
X0152842Y0024556D01*
X0152737Y0024486D01*
X0152630Y0024419D01*
X0152521Y0024355D01*
X0152410Y0024295D01*
X0152298Y0024238D01*
X0152183Y0024185D01*
X0152067Y0024135D01*
X0151949Y0024090D01*
X0151830Y0024048D01*
X0151710Y0024009D01*
X0151588Y0023975D01*
X0151466Y0023944D01*
X0151342Y0023918D01*
X0151218Y0023895D01*
X0151093Y0023876D01*
X0150968Y0023861D01*
X0150842Y0023850D01*
X0150716Y0023843D01*
X0150590Y0023840D01*
X0150463Y0023841D01*
X0150337Y0023846D01*
X0150211Y0023855D01*
X0150085Y0023868D01*
X0149960Y0023885D01*
X0149836Y0023906D01*
X0149712Y0023930D01*
X0149589Y0023959D01*
X0149467Y0023992D01*
X0149346Y0024028D01*
X0149226Y0024068D01*
X0149108Y0024112D01*
X0148991Y0024160D01*
X0148875Y0024211D01*
X0148762Y0024266D01*
X0148650Y0024324D01*
X0148540Y0024386D01*
X0148432Y0024452D01*
X0148326Y0024521D01*
X0148222Y0024593D01*
X0148121Y0024668D01*
X0148022Y0024747D01*
X0147926Y0024828D01*
X0147832Y0024913D01*
X0147741Y0025000D01*
X0147653Y0025091D01*
X0147567Y0025184D01*
X0147485Y0025280D01*
X0147406Y0025378D01*
X0147329Y0025479D01*
X0147256Y0025582D01*
X0147187Y0025687D01*
X0147121Y0025795D01*
X0147058Y0025904D01*
X0146998Y0026016D01*
X0146942Y0026129D01*
X0146890Y0026244D01*
X0146842Y0026360D01*
X0146797Y0026479D01*
X0146756Y0026598D01*
X0146718Y0026719D01*
X0146685Y0026840D01*
X0146655Y0026963D01*
X0146630Y0027087D01*
X0146608Y0027211D01*
X0146590Y0027336D01*
X0146576Y0027462D01*
X0146566Y0027588D01*
X0146560Y0027714D01*
X0146558Y0027840D01*
D11*
X0141558Y0014840D02*
X0142041Y0014846D01*
X0142524Y0014863D01*
X0143007Y0014893D01*
X0143488Y0014933D01*
X0143969Y0014986D01*
X0144448Y0015050D01*
X0144925Y0015125D01*
X0145401Y0015213D01*
X0145874Y0015311D01*
X0146344Y0015421D01*
X0146812Y0015542D01*
X0147277Y0015675D01*
X0147738Y0015819D01*
X0148196Y0015974D01*
X0148650Y0016140D01*
X0149100Y0016317D01*
X0149545Y0016504D01*
X0149986Y0016703D01*
X0150422Y0016911D01*
X0150852Y0017131D01*
X0151278Y0017361D01*
X0151697Y0017601D01*
X0152111Y0017851D01*
X0152518Y0018111D01*
X0152919Y0018380D01*
X0153314Y0018660D01*
X0153701Y0018948D01*
X0154082Y0019247D01*
X0154455Y0019554D01*
X0154820Y0019870D01*
X0155178Y0020195D01*
X0155528Y0020528D01*
X0155870Y0020870D01*
X0156203Y0021220D01*
X0156528Y0021578D01*
X0156844Y0021943D01*
X0157151Y0022316D01*
X0157450Y0022697D01*
X0157738Y0023084D01*
X0158018Y0023479D01*
X0158287Y0023880D01*
X0158547Y0024287D01*
X0158797Y0024701D01*
X0159037Y0025120D01*
X0159267Y0025546D01*
X0159487Y0025976D01*
X0159695Y0026412D01*
X0159894Y0026853D01*
X0160081Y0027298D01*
X0160258Y0027748D01*
X0160424Y0028202D01*
X0160579Y0028660D01*
X0160723Y0029121D01*
X0160856Y0029586D01*
X0160977Y0030054D01*
X0161087Y0030524D01*
X0161185Y0030997D01*
X0161273Y0031473D01*
X0161348Y0031950D01*
X0161412Y0032429D01*
X0161465Y0032910D01*
X0161505Y0033391D01*
X0161535Y0033874D01*
X0161552Y0034357D01*
X0161558Y0034840D01*
X0161558Y0054431D01*
X0161557Y0054431D02*
X0161246Y0054570D01*
X0160938Y0054717D01*
X0160634Y0054872D01*
X0160334Y0055034D01*
X0160038Y0055203D01*
X0159746Y0055379D01*
X0159458Y0055563D01*
X0159175Y0055753D01*
X0158897Y0055950D01*
X0158624Y0056154D01*
X0158355Y0056365D01*
X0158092Y0056582D01*
X0157835Y0056806D01*
X0157583Y0057036D01*
X0157336Y0057271D01*
X0157096Y0057513D01*
X0156861Y0057761D01*
X0156633Y0058014D01*
X0156411Y0058273D01*
X0156195Y0058537D01*
X0155986Y0058807D01*
X0155783Y0059081D01*
X0155587Y0059360D01*
X0155398Y0059644D01*
X0155216Y0059933D01*
X0155041Y0060226D01*
X0154874Y0060523D01*
X0154714Y0060824D01*
X0154561Y0061129D01*
X0154415Y0061437D01*
X0154277Y0061749D01*
X0154147Y0062065D01*
X0154025Y0062383D01*
X0153910Y0062704D01*
X0153804Y0063028D01*
X0153705Y0063355D01*
X0153614Y0063684D01*
X0153532Y0064015D01*
X0153457Y0064347D01*
X0153391Y0064682D01*
X0153333Y0065018D01*
X0153283Y0065356D01*
X0153241Y0065694D01*
X0153208Y0066034D01*
X0153183Y0066374D01*
X0153166Y0066714D01*
X0153158Y0067055D01*
X0153158Y0067397D01*
X0153166Y0067738D01*
X0153183Y0068078D01*
X0153208Y0068418D01*
X0153241Y0068758D01*
X0153283Y0069096D01*
X0153333Y0069434D01*
X0153391Y0069770D01*
X0153457Y0070105D01*
X0153532Y0070437D01*
X0153614Y0070768D01*
X0153705Y0071097D01*
X0153804Y0071424D01*
X0153910Y0071748D01*
X0154025Y0072069D01*
X0154147Y0072387D01*
X0154277Y0072703D01*
X0154415Y0073015D01*
X0154561Y0073323D01*
X0154714Y0073628D01*
X0154874Y0073929D01*
X0155041Y0074226D01*
X0155216Y0074519D01*
X0155398Y0074808D01*
X0155587Y0075092D01*
X0155783Y0075371D01*
X0155986Y0075645D01*
X0156195Y0075915D01*
X0156411Y0076179D01*
X0156633Y0076438D01*
X0156861Y0076691D01*
X0157096Y0076939D01*
X0157336Y0077181D01*
X0157583Y0077416D01*
X0157835Y0077646D01*
X0158092Y0077870D01*
X0158355Y0078087D01*
X0158624Y0078298D01*
X0158897Y0078502D01*
X0159175Y0078699D01*
X0159458Y0078889D01*
X0159746Y0079073D01*
X0160038Y0079249D01*
X0160334Y0079418D01*
X0160634Y0079580D01*
X0160938Y0079735D01*
X0161246Y0079882D01*
X0161557Y0080021D01*
X0161558Y0080021D02*
X0161558Y0143840D01*
X0161553Y0144227D01*
X0161539Y0144613D01*
X0161516Y0144999D01*
X0161483Y0145384D01*
X0161441Y0145769D01*
X0161390Y0146152D01*
X0161330Y0146534D01*
X0161260Y0146914D01*
X0161181Y0147293D01*
X0161093Y0147669D01*
X0160996Y0148043D01*
X0160890Y0148415D01*
X0160775Y0148784D01*
X0160651Y0149151D01*
X0160518Y0149514D01*
X0160377Y0149874D01*
X0160227Y0150230D01*
X0160068Y0150582D01*
X0159901Y0150931D01*
X0159725Y0151276D01*
X0159541Y0151616D01*
X0159350Y0151951D01*
X0159149Y0152282D01*
X0158942Y0152608D01*
X0158726Y0152929D01*
X0158502Y0153245D01*
X0158271Y0153555D01*
X0158033Y0153859D01*
X0157787Y0154157D01*
X0157534Y0154450D01*
X0157274Y0154736D01*
X0157008Y0155016D01*
X0156734Y0155290D01*
X0156454Y0155556D01*
X0156168Y0155816D01*
X0155875Y0156069D01*
X0155577Y0156315D01*
X0155273Y0156553D01*
X0154963Y0156784D01*
X0154647Y0157008D01*
X0154326Y0157224D01*
X0154000Y0157431D01*
X0153669Y0157632D01*
X0153334Y0157823D01*
X0152994Y0158007D01*
X0152649Y0158183D01*
X0152300Y0158350D01*
X0151948Y0158509D01*
X0151592Y0158659D01*
X0151232Y0158800D01*
X0150869Y0158933D01*
X0150502Y0159057D01*
X0150133Y0159172D01*
X0149761Y0159278D01*
X0149387Y0159375D01*
X0149011Y0159463D01*
X0148632Y0159542D01*
X0148252Y0159612D01*
X0147870Y0159672D01*
X0147487Y0159723D01*
X0147102Y0159765D01*
X0146717Y0159798D01*
X0146331Y0159821D01*
X0145945Y0159835D01*
X0145558Y0159840D01*
X0082739Y0159840D01*
X0082600Y0159529D01*
X0082453Y0159221D01*
X0082298Y0158917D01*
X0082136Y0158617D01*
X0081967Y0158321D01*
X0081791Y0158029D01*
X0081607Y0157741D01*
X0081417Y0157458D01*
X0081220Y0157180D01*
X0081016Y0156907D01*
X0080805Y0156638D01*
X0080588Y0156375D01*
X0080364Y0156118D01*
X0080134Y0155866D01*
X0079899Y0155619D01*
X0079657Y0155379D01*
X0079409Y0155144D01*
X0079156Y0154916D01*
X0078897Y0154694D01*
X0078633Y0154478D01*
X0078363Y0154269D01*
X0078089Y0154066D01*
X0077810Y0153870D01*
X0077526Y0153681D01*
X0077237Y0153499D01*
X0076944Y0153324D01*
X0076647Y0153157D01*
X0076346Y0152997D01*
X0076041Y0152844D01*
X0075733Y0152698D01*
X0075421Y0152560D01*
X0075105Y0152430D01*
X0074787Y0152308D01*
X0074466Y0152193D01*
X0074142Y0152087D01*
X0073815Y0151988D01*
X0073486Y0151897D01*
X0073155Y0151815D01*
X0072823Y0151740D01*
X0072488Y0151674D01*
X0072152Y0151616D01*
X0071814Y0151566D01*
X0071476Y0151524D01*
X0071136Y0151491D01*
X0070796Y0151466D01*
X0070456Y0151449D01*
X0070115Y0151441D01*
X0069773Y0151441D01*
X0069432Y0151449D01*
X0069092Y0151466D01*
X0068752Y0151491D01*
X0068412Y0151524D01*
X0068074Y0151566D01*
X0067736Y0151616D01*
X0067400Y0151674D01*
X0067065Y0151740D01*
X0066733Y0151815D01*
X0066402Y0151897D01*
X0066073Y0151988D01*
X0065746Y0152087D01*
X0065422Y0152193D01*
X0065101Y0152308D01*
X0064783Y0152430D01*
X0064467Y0152560D01*
X0064155Y0152698D01*
X0063847Y0152844D01*
X0063542Y0152997D01*
X0063241Y0153157D01*
X0062944Y0153324D01*
X0062651Y0153499D01*
X0062362Y0153681D01*
X0062078Y0153870D01*
X0061799Y0154066D01*
X0061525Y0154269D01*
X0061255Y0154478D01*
X0060991Y0154694D01*
X0060732Y0154916D01*
X0060479Y0155144D01*
X0060231Y0155379D01*
X0059989Y0155619D01*
X0059754Y0155866D01*
X0059524Y0156118D01*
X0059300Y0156375D01*
X0059083Y0156638D01*
X0058872Y0156907D01*
X0058668Y0157180D01*
X0058471Y0157458D01*
X0058281Y0157741D01*
X0058097Y0158029D01*
X0057921Y0158321D01*
X0057752Y0158617D01*
X0057590Y0158917D01*
X0057435Y0159221D01*
X0057288Y0159529D01*
X0057149Y0159840D01*
X0057148Y0159840D02*
X0036558Y0159840D01*
X0036075Y0159834D01*
X0035592Y0159817D01*
X0035109Y0159787D01*
X0034628Y0159747D01*
X0034147Y0159694D01*
X0033668Y0159630D01*
X0033191Y0159555D01*
X0032715Y0159467D01*
X0032242Y0159369D01*
X0031772Y0159259D01*
X0031304Y0159138D01*
X0030839Y0159005D01*
X0030378Y0158861D01*
X0029920Y0158706D01*
X0029466Y0158540D01*
X0029016Y0158363D01*
X0028571Y0158176D01*
X0028130Y0157977D01*
X0027694Y0157769D01*
X0027264Y0157549D01*
X0026838Y0157319D01*
X0026419Y0157079D01*
X0026005Y0156829D01*
X0025598Y0156569D01*
X0025197Y0156300D01*
X0024802Y0156020D01*
X0024415Y0155732D01*
X0024034Y0155433D01*
X0023661Y0155126D01*
X0023296Y0154810D01*
X0022938Y0154485D01*
X0022588Y0154152D01*
X0022246Y0153810D01*
X0021913Y0153460D01*
X0021588Y0153102D01*
X0021272Y0152737D01*
X0020965Y0152364D01*
X0020666Y0151983D01*
X0020378Y0151596D01*
X0020098Y0151201D01*
X0019829Y0150800D01*
X0019569Y0150393D01*
X0019319Y0149979D01*
X0019079Y0149560D01*
X0018849Y0149134D01*
X0018629Y0148704D01*
X0018421Y0148268D01*
X0018222Y0147827D01*
X0018035Y0147382D01*
X0017858Y0146932D01*
X0017692Y0146478D01*
X0017537Y0146020D01*
X0017393Y0145559D01*
X0017260Y0145094D01*
X0017139Y0144626D01*
X0017029Y0144156D01*
X0016931Y0143683D01*
X0016843Y0143207D01*
X0016768Y0142730D01*
X0016704Y0142251D01*
X0016651Y0141770D01*
X0016611Y0141289D01*
X0016581Y0140806D01*
X0016564Y0140323D01*
X0016558Y0139840D01*
X0016558Y0061021D01*
X0016558Y0061022D02*
X0016918Y0060860D01*
X0017274Y0060690D01*
X0017626Y0060512D01*
X0017973Y0060325D01*
X0018316Y0060129D01*
X0018653Y0059925D01*
X0018986Y0059713D01*
X0019313Y0059493D01*
X0019635Y0059264D01*
X0019951Y0059028D01*
X0020261Y0058785D01*
X0020565Y0058534D01*
X0020863Y0058275D01*
X0021154Y0058010D01*
X0021439Y0057737D01*
X0021718Y0057457D01*
X0021989Y0057171D01*
X0022253Y0056878D01*
X0022510Y0056579D01*
X0022759Y0056273D01*
X0023001Y0055962D01*
X0023236Y0055644D01*
X0023462Y0055321D01*
X0023680Y0054993D01*
X0023891Y0054659D01*
X0024093Y0054321D01*
X0024287Y0053977D01*
X0024472Y0053629D01*
X0024649Y0053276D01*
X0024817Y0052920D01*
X0024976Y0052559D01*
X0025127Y0052194D01*
X0025268Y0051826D01*
X0025401Y0051455D01*
X0025524Y0051080D01*
X0025638Y0050702D01*
X0025743Y0050322D01*
X0025839Y0049939D01*
X0025925Y0049555D01*
X0026001Y0049168D01*
X0026069Y0048779D01*
X0026126Y0048389D01*
X0026174Y0047997D01*
X0026213Y0047605D01*
X0026242Y0047211D01*
X0026261Y0046818D01*
X0026271Y0046423D01*
X0026271Y0046029D01*
X0026261Y0045634D01*
X0026242Y0045241D01*
X0026213Y0044847D01*
X0026174Y0044455D01*
X0026126Y0044063D01*
X0026069Y0043673D01*
X0026001Y0043284D01*
X0025925Y0042897D01*
X0025839Y0042513D01*
X0025743Y0042130D01*
X0025638Y0041750D01*
X0025524Y0041372D01*
X0025401Y0040997D01*
X0025268Y0040626D01*
X0025127Y0040258D01*
X0024976Y0039893D01*
X0024817Y0039532D01*
X0024649Y0039176D01*
X0024472Y0038823D01*
X0024287Y0038475D01*
X0024093Y0038131D01*
X0023891Y0037793D01*
X0023680Y0037459D01*
X0023462Y0037131D01*
X0023236Y0036808D01*
X0023001Y0036490D01*
X0022759Y0036179D01*
X0022510Y0035873D01*
X0022253Y0035574D01*
X0021989Y0035281D01*
X0021718Y0034995D01*
X0021439Y0034715D01*
X0021154Y0034442D01*
X0020863Y0034177D01*
X0020565Y0033918D01*
X0020261Y0033667D01*
X0019951Y0033424D01*
X0019635Y0033188D01*
X0019313Y0032959D01*
X0018986Y0032739D01*
X0018653Y0032527D01*
X0018316Y0032323D01*
X0017973Y0032127D01*
X0017626Y0031940D01*
X0017274Y0031762D01*
X0016918Y0031592D01*
X0016558Y0031430D01*
X0016558Y0031431D02*
X0016558Y0031089D01*
X0016550Y0030708D01*
X0016552Y0030328D01*
X0016563Y0029947D01*
X0016583Y0029567D01*
X0016612Y0029187D01*
X0016651Y0028808D01*
X0016699Y0028431D01*
X0016755Y0028054D01*
X0016821Y0027679D01*
X0016896Y0027306D01*
X0016980Y0026934D01*
X0017073Y0026565D01*
X0017174Y0026198D01*
X0017285Y0025834D01*
X0017404Y0025472D01*
X0017532Y0025114D01*
X0017669Y0024758D01*
X0017814Y0024406D01*
X0017967Y0024058D01*
X0018129Y0023713D01*
X0018300Y0023373D01*
X0018478Y0023036D01*
X0018665Y0022704D01*
X0018859Y0022377D01*
X0019062Y0022055D01*
X0019272Y0021737D01*
X0019489Y0021425D01*
X0019715Y0021118D01*
X0019947Y0020816D01*
X0020187Y0020520D01*
X0020434Y0020230D01*
X0020687Y0019947D01*
X0020948Y0019669D01*
X0021215Y0019398D01*
X0021489Y0019133D01*
X0021769Y0018875D01*
X0022055Y0018624D01*
X0022347Y0018380D01*
X0022645Y0018142D01*
X0022949Y0017913D01*
X0023258Y0017690D01*
X0023572Y0017475D01*
X0023891Y0017268D01*
X0024216Y0017069D01*
X0024545Y0016877D01*
X0024878Y0016694D01*
X0025216Y0016518D01*
X0025558Y0016351D01*
X0025904Y0016192D01*
X0026254Y0016042D01*
X0026607Y0015900D01*
X0026964Y0015766D01*
X0027324Y0015641D01*
X0027686Y0015525D01*
X0028052Y0015418D01*
X0028420Y0015320D01*
X0028790Y0015230D01*
X0029162Y0015150D01*
X0029536Y0015078D01*
X0029911Y0015016D01*
X0030288Y0014963D01*
X0030667Y0014919D01*
X0031046Y0014883D01*
X0031426Y0014858D01*
X0031806Y0014841D01*
X0031806Y0014840D02*
X0032148Y0014840D01*
X0032310Y0015200D01*
X0032480Y0015556D01*
X0032658Y0015908D01*
X0032845Y0016255D01*
X0033041Y0016598D01*
X0033245Y0016935D01*
X0033457Y0017268D01*
X0033677Y0017595D01*
X0033906Y0017917D01*
X0034142Y0018233D01*
X0034385Y0018543D01*
X0034636Y0018847D01*
X0034895Y0019145D01*
X0035160Y0019436D01*
X0035433Y0019721D01*
X0035713Y0020000D01*
X0035999Y0020271D01*
X0036292Y0020535D01*
X0036591Y0020792D01*
X0036897Y0021041D01*
X0037208Y0021283D01*
X0037526Y0021518D01*
X0037849Y0021744D01*
X0038177Y0021962D01*
X0038511Y0022173D01*
X0038849Y0022375D01*
X0039193Y0022569D01*
X0039541Y0022754D01*
X0039894Y0022931D01*
X0040250Y0023099D01*
X0040611Y0023258D01*
X0040976Y0023409D01*
X0041344Y0023550D01*
X0041715Y0023683D01*
X0042090Y0023806D01*
X0042468Y0023920D01*
X0042848Y0024025D01*
X0043231Y0024121D01*
X0043615Y0024207D01*
X0044002Y0024283D01*
X0044391Y0024351D01*
X0044781Y0024408D01*
X0045173Y0024456D01*
X0045565Y0024495D01*
X0045959Y0024524D01*
X0046352Y0024543D01*
X0046747Y0024553D01*
X0047141Y0024553D01*
X0047536Y0024543D01*
X0047929Y0024524D01*
X0048323Y0024495D01*
X0048715Y0024456D01*
X0049107Y0024408D01*
X0049497Y0024351D01*
X0049886Y0024283D01*
X0050273Y0024207D01*
X0050657Y0024121D01*
X0051040Y0024025D01*
X0051420Y0023920D01*
X0051798Y0023806D01*
X0052173Y0023683D01*
X0052544Y0023550D01*
X0052912Y0023409D01*
X0053277Y0023258D01*
X0053638Y0023099D01*
X0053994Y0022931D01*
X0054347Y0022754D01*
X0054695Y0022569D01*
X0055039Y0022375D01*
X0055377Y0022173D01*
X0055711Y0021962D01*
X0056039Y0021744D01*
X0056362Y0021518D01*
X0056680Y0021283D01*
X0056991Y0021041D01*
X0057297Y0020792D01*
X0057596Y0020535D01*
X0057889Y0020271D01*
X0058175Y0020000D01*
X0058455Y0019721D01*
X0058728Y0019436D01*
X0058993Y0019145D01*
X0059252Y0018847D01*
X0059503Y0018543D01*
X0059746Y0018233D01*
X0059982Y0017917D01*
X0060211Y0017595D01*
X0060431Y0017268D01*
X0060643Y0016935D01*
X0060847Y0016598D01*
X0061043Y0016255D01*
X0061230Y0015908D01*
X0061408Y0015556D01*
X0061578Y0015200D01*
X0061740Y0014840D01*
X0061739Y0014840D02*
X0141558Y0014840D01*
M02*
