G75*
%MOIN*%
%OFA0B0*%
%FSLAX25Y25*%
%IPPOS*%
%LPD*%
%AMOC8*
5,1,8,0,0,1.08239X$1,22.5*
%
%ADD10C,0.08400*%
%ADD11C,0.03500*%
%ADD12C,0.04400*%
%ADD13R,0.07683X0.02369*%
%ADD14R,0.02369X0.07683*%
%ADD15R,0.04731X0.04337*%
%ADD16R,0.04731X0.07880*%
%ADD17R,0.04337X0.04731*%
%ADD18C,0.70479*%
%ADD19R,0.10243X0.20479*%
D10*
X0027558Y0026840D03*
X0029558Y0148840D03*
X0104558Y0153840D03*
X0153558Y0084840D03*
X0150558Y0027840D03*
D11*
X0051558Y0144340D03*
X0046558Y0144340D03*
X0041558Y0144340D03*
X0041558Y0149340D03*
X0046558Y0149340D03*
X0051558Y0149340D03*
D12*
X0056558Y0150840D03*
X0056558Y0142840D03*
X0036558Y0146840D03*
D13*
G36*
X0096972Y0117663D02*
X0091541Y0123094D01*
X0093216Y0124769D01*
X0098647Y0119338D01*
X0096972Y0117663D01*
G37*
G36*
X0098921Y0119611D02*
X0093490Y0125042D01*
X0095165Y0126717D01*
X0100596Y0121286D01*
X0098921Y0119611D01*
G37*
G36*
X0100870Y0121560D02*
X0095439Y0126991D01*
X0097114Y0128666D01*
X0102545Y0123235D01*
X0100870Y0121560D01*
G37*
G36*
X0102819Y0123509D02*
X0097388Y0128940D01*
X0099063Y0130615D01*
X0104494Y0125184D01*
X0102819Y0123509D01*
G37*
G36*
X0104767Y0125457D02*
X0099336Y0130888D01*
X0101011Y0132563D01*
X0106442Y0127132D01*
X0104767Y0125457D01*
G37*
G36*
X0106716Y0127406D02*
X0101285Y0132837D01*
X0102960Y0134512D01*
X0108391Y0129081D01*
X0106716Y0127406D01*
G37*
G36*
X0108665Y0129355D02*
X0103234Y0134786D01*
X0104909Y0136461D01*
X0110340Y0131030D01*
X0108665Y0129355D01*
G37*
G36*
X0110613Y0131304D02*
X0105182Y0136735D01*
X0106857Y0138410D01*
X0112288Y0132979D01*
X0110613Y0131304D01*
G37*
G36*
X0112562Y0133252D02*
X0107131Y0138683D01*
X0108806Y0140358D01*
X0114237Y0134927D01*
X0112562Y0133252D01*
G37*
G36*
X0114511Y0135201D02*
X0109080Y0140632D01*
X0110755Y0142307D01*
X0116186Y0136876D01*
X0114511Y0135201D01*
G37*
G36*
X0126203Y0146893D02*
X0120772Y0152324D01*
X0122447Y0153999D01*
X0127878Y0148568D01*
X0126203Y0146893D01*
G37*
G36*
X0128152Y0148842D02*
X0122721Y0154273D01*
X0124396Y0155948D01*
X0129827Y0150517D01*
X0128152Y0148842D01*
G37*
G36*
X0155991Y0121003D02*
X0150560Y0126434D01*
X0152235Y0128109D01*
X0157666Y0122678D01*
X0155991Y0121003D01*
G37*
G36*
X0154042Y0119055D02*
X0148611Y0124486D01*
X0150286Y0126161D01*
X0155717Y0120730D01*
X0154042Y0119055D01*
G37*
G36*
X0152093Y0117106D02*
X0146662Y0122537D01*
X0148337Y0124212D01*
X0153768Y0118781D01*
X0152093Y0117106D01*
G37*
G36*
X0150145Y0115157D02*
X0144714Y0120588D01*
X0146389Y0122263D01*
X0151820Y0116832D01*
X0150145Y0115157D01*
G37*
G36*
X0148196Y0113208D02*
X0142765Y0118639D01*
X0144440Y0120314D01*
X0149871Y0114883D01*
X0148196Y0113208D01*
G37*
G36*
X0146247Y0111260D02*
X0140816Y0116691D01*
X0142491Y0118366D01*
X0147922Y0112935D01*
X0146247Y0111260D01*
G37*
G36*
X0144298Y0109311D02*
X0138867Y0114742D01*
X0140542Y0116417D01*
X0145973Y0110986D01*
X0144298Y0109311D01*
G37*
G36*
X0142350Y0107362D02*
X0136919Y0112793D01*
X0138594Y0114468D01*
X0144025Y0109037D01*
X0142350Y0107362D01*
G37*
G36*
X0140401Y0105414D02*
X0134970Y0110845D01*
X0136645Y0112520D01*
X0142076Y0107089D01*
X0140401Y0105414D01*
G37*
G36*
X0138452Y0103465D02*
X0133021Y0108896D01*
X0134696Y0110571D01*
X0140127Y0105140D01*
X0138452Y0103465D01*
G37*
G36*
X0136504Y0101516D02*
X0131073Y0106947D01*
X0132748Y0108622D01*
X0138179Y0103191D01*
X0136504Y0101516D01*
G37*
G36*
X0134555Y0099567D02*
X0129124Y0104998D01*
X0130799Y0106673D01*
X0136230Y0101242D01*
X0134555Y0099567D01*
G37*
G36*
X0132606Y0097619D02*
X0127175Y0103050D01*
X0128850Y0104725D01*
X0134281Y0099294D01*
X0132606Y0097619D01*
G37*
G36*
X0130657Y0095670D02*
X0125226Y0101101D01*
X0126901Y0102776D01*
X0132332Y0097345D01*
X0130657Y0095670D01*
G37*
G36*
X0128709Y0093721D02*
X0123278Y0099152D01*
X0124953Y0100827D01*
X0130384Y0095396D01*
X0128709Y0093721D01*
G37*
G36*
X0126760Y0091772D02*
X0121329Y0097203D01*
X0123004Y0098878D01*
X0128435Y0093447D01*
X0126760Y0091772D01*
G37*
G36*
X0124811Y0089824D02*
X0119380Y0095255D01*
X0121055Y0096930D01*
X0126486Y0091499D01*
X0124811Y0089824D01*
G37*
D14*
G36*
X0113817Y0087040D02*
X0112142Y0088715D01*
X0117573Y0094146D01*
X0119248Y0092471D01*
X0113817Y0087040D01*
G37*
G36*
X0111868Y0088989D02*
X0110193Y0090664D01*
X0115624Y0096095D01*
X0117299Y0094420D01*
X0111868Y0088989D01*
G37*
G36*
X0109920Y0090937D02*
X0108245Y0092612D01*
X0113676Y0098043D01*
X0115351Y0096368D01*
X0109920Y0090937D01*
G37*
G36*
X0107971Y0092886D02*
X0106296Y0094561D01*
X0111727Y0099992D01*
X0113402Y0098317D01*
X0107971Y0092886D01*
G37*
G36*
X0106022Y0094835D02*
X0104347Y0096510D01*
X0109778Y0101941D01*
X0111453Y0100266D01*
X0106022Y0094835D01*
G37*
G36*
X0104074Y0096783D02*
X0102399Y0098458D01*
X0107830Y0103889D01*
X0109505Y0102214D01*
X0104074Y0096783D01*
G37*
G36*
X0102125Y0098732D02*
X0100450Y0100407D01*
X0105881Y0105838D01*
X0107556Y0104163D01*
X0102125Y0098732D01*
G37*
G36*
X0100176Y0100681D02*
X0098501Y0102356D01*
X0103932Y0107787D01*
X0105607Y0106112D01*
X0100176Y0100681D01*
G37*
G36*
X0098227Y0102630D02*
X0096552Y0104305D01*
X0101983Y0109736D01*
X0103658Y0108061D01*
X0098227Y0102630D01*
G37*
G36*
X0096279Y0104578D02*
X0094604Y0106253D01*
X0100035Y0111684D01*
X0101710Y0110009D01*
X0096279Y0104578D01*
G37*
G36*
X0094330Y0106527D02*
X0092655Y0108202D01*
X0098086Y0113633D01*
X0099761Y0111958D01*
X0094330Y0106527D01*
G37*
G36*
X0092381Y0108476D02*
X0090706Y0110151D01*
X0096137Y0115582D01*
X0097812Y0113907D01*
X0092381Y0108476D01*
G37*
G36*
X0090433Y0110425D02*
X0088758Y0112100D01*
X0094189Y0117531D01*
X0095864Y0115856D01*
X0090433Y0110425D01*
G37*
D15*
G36*
X0077785Y0119679D02*
X0081129Y0116335D01*
X0078063Y0113269D01*
X0074719Y0116613D01*
X0077785Y0119679D01*
G37*
G36*
X0073053Y0124411D02*
X0076397Y0121067D01*
X0073331Y0118001D01*
X0069987Y0121345D01*
X0073053Y0124411D01*
G37*
G36*
X0068987Y0130335D02*
X0072331Y0133679D01*
X0075397Y0130613D01*
X0072053Y0127269D01*
X0068987Y0130335D01*
G37*
G36*
X0073719Y0135067D02*
X0077063Y0138411D01*
X0080129Y0135345D01*
X0076785Y0132001D01*
X0073719Y0135067D01*
G37*
G36*
X0086397Y0141613D02*
X0083053Y0138269D01*
X0079987Y0141335D01*
X0083331Y0144679D01*
X0086397Y0141613D01*
G37*
G36*
X0091129Y0146345D02*
X0087785Y0143001D01*
X0084719Y0146067D01*
X0088063Y0149411D01*
X0091129Y0146345D01*
G37*
G36*
X0098053Y0150411D02*
X0101397Y0147067D01*
X0098331Y0144001D01*
X0094987Y0147345D01*
X0098053Y0150411D01*
G37*
G36*
X0102785Y0145679D02*
X0106129Y0142335D01*
X0103063Y0139269D01*
X0099719Y0142613D01*
X0102785Y0145679D01*
G37*
G36*
X0140129Y0093345D02*
X0136785Y0090001D01*
X0133719Y0093067D01*
X0137063Y0096411D01*
X0140129Y0093345D01*
G37*
G36*
X0135397Y0088613D02*
X0132053Y0085269D01*
X0128987Y0088335D01*
X0132331Y0091679D01*
X0135397Y0088613D01*
G37*
D16*
G36*
X0086580Y0136433D02*
X0089925Y0139778D01*
X0095496Y0134207D01*
X0092151Y0130862D01*
X0086580Y0136433D01*
G37*
G36*
X0079620Y0129473D02*
X0082965Y0132818D01*
X0088536Y0127247D01*
X0085191Y0123902D01*
X0079620Y0129473D01*
G37*
D17*
X0125558Y0076187D03*
X0125558Y0069494D03*
X0139558Y0069494D03*
X0139558Y0076187D03*
X0153058Y0092494D03*
X0153058Y0099187D03*
D18*
X0066861Y0065694D03*
D19*
G36*
X0031368Y0086708D02*
X0024125Y0093951D01*
X0038604Y0108430D01*
X0045847Y0101187D01*
X0031368Y0086708D01*
G37*
G36*
X0095119Y0022957D02*
X0087876Y0030200D01*
X0102355Y0044679D01*
X0109598Y0037436D01*
X0095119Y0022957D01*
G37*
M02*
