%
M48
M72
T01C0.01300
T02C0.02000
T03C0.04000
T04C0.08000
%
T01
X29558Y19840
X35558Y24840
X42558Y28840
X36058Y34340
X29558Y41840
X27558Y34840
X20558Y29840
X30558Y52840
X27558Y62840
X20558Y70840
X20558Y80840
X28558Y84840
X20558Y90840
X20558Y101840
X30058Y105840
X30058Y115840
X30058Y123840
X37058Y128840
X30058Y132840
X32558Y139840
X37558Y138840
X42558Y134840
X37058Y151840
X37558Y155840
X42558Y155840
X48558Y155840
X31558Y155840
X22558Y147840
X20558Y140840
X25558Y139840
X20558Y132840
X20558Y123840
X20558Y113840
X67558Y142340
X72058Y138340
X79558Y145340
X79558Y150840
X83558Y151840
X85558Y156340
X92558Y156340
X96558Y152840
X98558Y156340
X105558Y146840
X112558Y146840
X112558Y151840
X111558Y156340
X116558Y156340
X121558Y156340
X118558Y151840
X120558Y146840
X130558Y147840
X134558Y143840
X138058Y140340
X142058Y136340
X146058Y132340
X149558Y128840
X145558Y124840
X142058Y128340
X138058Y132340
X133558Y136840
X130558Y138840
X155558Y115340
X158058Y119840
X158058Y110840
X158058Y103340
X158058Y97340
X158058Y90840
X146558Y96840
X144058Y100840
X140558Y96840
X137558Y99340
X146558Y80840
X149558Y77340
X148058Y71840
X150058Y65840
X150558Y57840
X142558Y63840
X142558Y49840
X150558Y47840
X156058Y48840
X155558Y39840
X157558Y29840
X150558Y20840
X141558Y18840
X132558Y18840
X123558Y18840
X114558Y18840
X104558Y18840
X95558Y18840
X88558Y18840
X81558Y18840
X85558Y26840
X72558Y18840
X65558Y25840
X53558Y28840
X103558Y78840
X109058Y88340
X101558Y95340
X95058Y102340
X85558Y101840
X78558Y101840
X84558Y109840
X83558Y120840
X83558Y135340
X93558Y138840
X98558Y138840
X102558Y136840
X99058Y133340
X132558Y78840
X136558Y39840
X145558Y37840
X141558Y27840
X123058Y32840
X108058Y30840
T02
X119558Y56840
X58558Y56840
X58558Y117840
X119558Y117840
T03
X56558Y142840
X56558Y150840
X36558Y146840
T04
X27558Y26840
X29558Y148840
X104558Y153840
X153558Y84840
X150558Y27840
M30
