G75*
%MOIN*%
%OFA0B0*%
%FSLAX25Y25*%
%IPPOS*%
%LPD*%
%AMOC8*
5,1,8,0,0,1.08239X$1,22.5*
%
%ADD10C,0.15000*%
%ADD11C,0.02500*%
%ADD12C,0.03400*%
%ADD13C,0.07000*%
%ADD14C,0.02000*%
%ADD15C,0.02700*%
%ADD16C,0.01000*%
%ADD17C,0.00748*%
D10*
X0058558Y0056840D03*
X0119558Y0056840D03*
X0119558Y0117840D03*
X0058558Y0117840D03*
D11*
X0064469Y0097783D03*
X0099500Y0111929D03*
X0113647Y0076898D03*
X0078615Y0062751D03*
D12*
X0058558Y0056840D03*
X0119558Y0056840D03*
X0119558Y0117840D03*
X0058558Y0117840D03*
D13*
X0040858Y0117840D02*
X0040863Y0118274D01*
X0040879Y0118708D01*
X0040906Y0119142D01*
X0040943Y0119575D01*
X0040991Y0120007D01*
X0041050Y0120437D01*
X0041119Y0120866D01*
X0041198Y0121293D01*
X0041288Y0121718D01*
X0041388Y0122141D01*
X0041499Y0122561D01*
X0041620Y0122978D01*
X0041751Y0123392D01*
X0041893Y0123803D01*
X0042044Y0124210D01*
X0042205Y0124613D01*
X0042376Y0125013D01*
X0042557Y0125408D01*
X0042748Y0125798D01*
X0042948Y0126184D01*
X0043157Y0126564D01*
X0043376Y0126940D01*
X0043604Y0127309D01*
X0043841Y0127674D01*
X0044087Y0128032D01*
X0044341Y0128384D01*
X0044604Y0128730D01*
X0044876Y0129069D01*
X0045155Y0129401D01*
X0045443Y0129727D01*
X0045739Y0130045D01*
X0046042Y0130356D01*
X0046353Y0130659D01*
X0046671Y0130955D01*
X0046997Y0131243D01*
X0047329Y0131522D01*
X0047668Y0131794D01*
X0048014Y0132057D01*
X0048366Y0132311D01*
X0048724Y0132557D01*
X0049089Y0132794D01*
X0049458Y0133022D01*
X0049834Y0133241D01*
X0050214Y0133450D01*
X0050600Y0133650D01*
X0050990Y0133841D01*
X0051385Y0134022D01*
X0051785Y0134193D01*
X0052188Y0134354D01*
X0052595Y0134505D01*
X0053006Y0134647D01*
X0053420Y0134778D01*
X0053837Y0134899D01*
X0054257Y0135010D01*
X0054680Y0135110D01*
X0055105Y0135200D01*
X0055532Y0135279D01*
X0055961Y0135348D01*
X0056391Y0135407D01*
X0056823Y0135455D01*
X0057256Y0135492D01*
X0057690Y0135519D01*
X0058124Y0135535D01*
X0058558Y0135540D01*
X0058992Y0135535D01*
X0059426Y0135519D01*
X0059860Y0135492D01*
X0060293Y0135455D01*
X0060725Y0135407D01*
X0061155Y0135348D01*
X0061584Y0135279D01*
X0062011Y0135200D01*
X0062436Y0135110D01*
X0062859Y0135010D01*
X0063279Y0134899D01*
X0063696Y0134778D01*
X0064110Y0134647D01*
X0064521Y0134505D01*
X0064928Y0134354D01*
X0065331Y0134193D01*
X0065731Y0134022D01*
X0066126Y0133841D01*
X0066516Y0133650D01*
X0066902Y0133450D01*
X0067282Y0133241D01*
X0067658Y0133022D01*
X0068027Y0132794D01*
X0068392Y0132557D01*
X0068750Y0132311D01*
X0069102Y0132057D01*
X0069448Y0131794D01*
X0069787Y0131522D01*
X0070119Y0131243D01*
X0070445Y0130955D01*
X0070763Y0130659D01*
X0071074Y0130356D01*
X0071377Y0130045D01*
X0071673Y0129727D01*
X0071961Y0129401D01*
X0072240Y0129069D01*
X0072512Y0128730D01*
X0072775Y0128384D01*
X0073029Y0128032D01*
X0073275Y0127674D01*
X0073512Y0127309D01*
X0073740Y0126940D01*
X0073959Y0126564D01*
X0074168Y0126184D01*
X0074368Y0125798D01*
X0074559Y0125408D01*
X0074740Y0125013D01*
X0074911Y0124613D01*
X0075072Y0124210D01*
X0075223Y0123803D01*
X0075365Y0123392D01*
X0075496Y0122978D01*
X0075617Y0122561D01*
X0075728Y0122141D01*
X0075828Y0121718D01*
X0075918Y0121293D01*
X0075997Y0120866D01*
X0076066Y0120437D01*
X0076125Y0120007D01*
X0076173Y0119575D01*
X0076210Y0119142D01*
X0076237Y0118708D01*
X0076253Y0118274D01*
X0076258Y0117840D01*
X0076253Y0117406D01*
X0076237Y0116972D01*
X0076210Y0116538D01*
X0076173Y0116105D01*
X0076125Y0115673D01*
X0076066Y0115243D01*
X0075997Y0114814D01*
X0075918Y0114387D01*
X0075828Y0113962D01*
X0075728Y0113539D01*
X0075617Y0113119D01*
X0075496Y0112702D01*
X0075365Y0112288D01*
X0075223Y0111877D01*
X0075072Y0111470D01*
X0074911Y0111067D01*
X0074740Y0110667D01*
X0074559Y0110272D01*
X0074368Y0109882D01*
X0074168Y0109496D01*
X0073959Y0109116D01*
X0073740Y0108740D01*
X0073512Y0108371D01*
X0073275Y0108006D01*
X0073029Y0107648D01*
X0072775Y0107296D01*
X0072512Y0106950D01*
X0072240Y0106611D01*
X0071961Y0106279D01*
X0071673Y0105953D01*
X0071377Y0105635D01*
X0071074Y0105324D01*
X0070763Y0105021D01*
X0070445Y0104725D01*
X0070119Y0104437D01*
X0069787Y0104158D01*
X0069448Y0103886D01*
X0069102Y0103623D01*
X0068750Y0103369D01*
X0068392Y0103123D01*
X0068027Y0102886D01*
X0067658Y0102658D01*
X0067282Y0102439D01*
X0066902Y0102230D01*
X0066516Y0102030D01*
X0066126Y0101839D01*
X0065731Y0101658D01*
X0065331Y0101487D01*
X0064928Y0101326D01*
X0064521Y0101175D01*
X0064110Y0101033D01*
X0063696Y0100902D01*
X0063279Y0100781D01*
X0062859Y0100670D01*
X0062436Y0100570D01*
X0062011Y0100480D01*
X0061584Y0100401D01*
X0061155Y0100332D01*
X0060725Y0100273D01*
X0060293Y0100225D01*
X0059860Y0100188D01*
X0059426Y0100161D01*
X0058992Y0100145D01*
X0058558Y0100140D01*
X0058124Y0100145D01*
X0057690Y0100161D01*
X0057256Y0100188D01*
X0056823Y0100225D01*
X0056391Y0100273D01*
X0055961Y0100332D01*
X0055532Y0100401D01*
X0055105Y0100480D01*
X0054680Y0100570D01*
X0054257Y0100670D01*
X0053837Y0100781D01*
X0053420Y0100902D01*
X0053006Y0101033D01*
X0052595Y0101175D01*
X0052188Y0101326D01*
X0051785Y0101487D01*
X0051385Y0101658D01*
X0050990Y0101839D01*
X0050600Y0102030D01*
X0050214Y0102230D01*
X0049834Y0102439D01*
X0049458Y0102658D01*
X0049089Y0102886D01*
X0048724Y0103123D01*
X0048366Y0103369D01*
X0048014Y0103623D01*
X0047668Y0103886D01*
X0047329Y0104158D01*
X0046997Y0104437D01*
X0046671Y0104725D01*
X0046353Y0105021D01*
X0046042Y0105324D01*
X0045739Y0105635D01*
X0045443Y0105953D01*
X0045155Y0106279D01*
X0044876Y0106611D01*
X0044604Y0106950D01*
X0044341Y0107296D01*
X0044087Y0107648D01*
X0043841Y0108006D01*
X0043604Y0108371D01*
X0043376Y0108740D01*
X0043157Y0109116D01*
X0042948Y0109496D01*
X0042748Y0109882D01*
X0042557Y0110272D01*
X0042376Y0110667D01*
X0042205Y0111067D01*
X0042044Y0111470D01*
X0041893Y0111877D01*
X0041751Y0112288D01*
X0041620Y0112702D01*
X0041499Y0113119D01*
X0041388Y0113539D01*
X0041288Y0113962D01*
X0041198Y0114387D01*
X0041119Y0114814D01*
X0041050Y0115243D01*
X0040991Y0115673D01*
X0040943Y0116105D01*
X0040906Y0116538D01*
X0040879Y0116972D01*
X0040863Y0117406D01*
X0040858Y0117840D01*
X0040858Y0056840D02*
X0040863Y0057274D01*
X0040879Y0057708D01*
X0040906Y0058142D01*
X0040943Y0058575D01*
X0040991Y0059007D01*
X0041050Y0059437D01*
X0041119Y0059866D01*
X0041198Y0060293D01*
X0041288Y0060718D01*
X0041388Y0061141D01*
X0041499Y0061561D01*
X0041620Y0061978D01*
X0041751Y0062392D01*
X0041893Y0062803D01*
X0042044Y0063210D01*
X0042205Y0063613D01*
X0042376Y0064013D01*
X0042557Y0064408D01*
X0042748Y0064798D01*
X0042948Y0065184D01*
X0043157Y0065564D01*
X0043376Y0065940D01*
X0043604Y0066309D01*
X0043841Y0066674D01*
X0044087Y0067032D01*
X0044341Y0067384D01*
X0044604Y0067730D01*
X0044876Y0068069D01*
X0045155Y0068401D01*
X0045443Y0068727D01*
X0045739Y0069045D01*
X0046042Y0069356D01*
X0046353Y0069659D01*
X0046671Y0069955D01*
X0046997Y0070243D01*
X0047329Y0070522D01*
X0047668Y0070794D01*
X0048014Y0071057D01*
X0048366Y0071311D01*
X0048724Y0071557D01*
X0049089Y0071794D01*
X0049458Y0072022D01*
X0049834Y0072241D01*
X0050214Y0072450D01*
X0050600Y0072650D01*
X0050990Y0072841D01*
X0051385Y0073022D01*
X0051785Y0073193D01*
X0052188Y0073354D01*
X0052595Y0073505D01*
X0053006Y0073647D01*
X0053420Y0073778D01*
X0053837Y0073899D01*
X0054257Y0074010D01*
X0054680Y0074110D01*
X0055105Y0074200D01*
X0055532Y0074279D01*
X0055961Y0074348D01*
X0056391Y0074407D01*
X0056823Y0074455D01*
X0057256Y0074492D01*
X0057690Y0074519D01*
X0058124Y0074535D01*
X0058558Y0074540D01*
X0058992Y0074535D01*
X0059426Y0074519D01*
X0059860Y0074492D01*
X0060293Y0074455D01*
X0060725Y0074407D01*
X0061155Y0074348D01*
X0061584Y0074279D01*
X0062011Y0074200D01*
X0062436Y0074110D01*
X0062859Y0074010D01*
X0063279Y0073899D01*
X0063696Y0073778D01*
X0064110Y0073647D01*
X0064521Y0073505D01*
X0064928Y0073354D01*
X0065331Y0073193D01*
X0065731Y0073022D01*
X0066126Y0072841D01*
X0066516Y0072650D01*
X0066902Y0072450D01*
X0067282Y0072241D01*
X0067658Y0072022D01*
X0068027Y0071794D01*
X0068392Y0071557D01*
X0068750Y0071311D01*
X0069102Y0071057D01*
X0069448Y0070794D01*
X0069787Y0070522D01*
X0070119Y0070243D01*
X0070445Y0069955D01*
X0070763Y0069659D01*
X0071074Y0069356D01*
X0071377Y0069045D01*
X0071673Y0068727D01*
X0071961Y0068401D01*
X0072240Y0068069D01*
X0072512Y0067730D01*
X0072775Y0067384D01*
X0073029Y0067032D01*
X0073275Y0066674D01*
X0073512Y0066309D01*
X0073740Y0065940D01*
X0073959Y0065564D01*
X0074168Y0065184D01*
X0074368Y0064798D01*
X0074559Y0064408D01*
X0074740Y0064013D01*
X0074911Y0063613D01*
X0075072Y0063210D01*
X0075223Y0062803D01*
X0075365Y0062392D01*
X0075496Y0061978D01*
X0075617Y0061561D01*
X0075728Y0061141D01*
X0075828Y0060718D01*
X0075918Y0060293D01*
X0075997Y0059866D01*
X0076066Y0059437D01*
X0076125Y0059007D01*
X0076173Y0058575D01*
X0076210Y0058142D01*
X0076237Y0057708D01*
X0076253Y0057274D01*
X0076258Y0056840D01*
X0076253Y0056406D01*
X0076237Y0055972D01*
X0076210Y0055538D01*
X0076173Y0055105D01*
X0076125Y0054673D01*
X0076066Y0054243D01*
X0075997Y0053814D01*
X0075918Y0053387D01*
X0075828Y0052962D01*
X0075728Y0052539D01*
X0075617Y0052119D01*
X0075496Y0051702D01*
X0075365Y0051288D01*
X0075223Y0050877D01*
X0075072Y0050470D01*
X0074911Y0050067D01*
X0074740Y0049667D01*
X0074559Y0049272D01*
X0074368Y0048882D01*
X0074168Y0048496D01*
X0073959Y0048116D01*
X0073740Y0047740D01*
X0073512Y0047371D01*
X0073275Y0047006D01*
X0073029Y0046648D01*
X0072775Y0046296D01*
X0072512Y0045950D01*
X0072240Y0045611D01*
X0071961Y0045279D01*
X0071673Y0044953D01*
X0071377Y0044635D01*
X0071074Y0044324D01*
X0070763Y0044021D01*
X0070445Y0043725D01*
X0070119Y0043437D01*
X0069787Y0043158D01*
X0069448Y0042886D01*
X0069102Y0042623D01*
X0068750Y0042369D01*
X0068392Y0042123D01*
X0068027Y0041886D01*
X0067658Y0041658D01*
X0067282Y0041439D01*
X0066902Y0041230D01*
X0066516Y0041030D01*
X0066126Y0040839D01*
X0065731Y0040658D01*
X0065331Y0040487D01*
X0064928Y0040326D01*
X0064521Y0040175D01*
X0064110Y0040033D01*
X0063696Y0039902D01*
X0063279Y0039781D01*
X0062859Y0039670D01*
X0062436Y0039570D01*
X0062011Y0039480D01*
X0061584Y0039401D01*
X0061155Y0039332D01*
X0060725Y0039273D01*
X0060293Y0039225D01*
X0059860Y0039188D01*
X0059426Y0039161D01*
X0058992Y0039145D01*
X0058558Y0039140D01*
X0058124Y0039145D01*
X0057690Y0039161D01*
X0057256Y0039188D01*
X0056823Y0039225D01*
X0056391Y0039273D01*
X0055961Y0039332D01*
X0055532Y0039401D01*
X0055105Y0039480D01*
X0054680Y0039570D01*
X0054257Y0039670D01*
X0053837Y0039781D01*
X0053420Y0039902D01*
X0053006Y0040033D01*
X0052595Y0040175D01*
X0052188Y0040326D01*
X0051785Y0040487D01*
X0051385Y0040658D01*
X0050990Y0040839D01*
X0050600Y0041030D01*
X0050214Y0041230D01*
X0049834Y0041439D01*
X0049458Y0041658D01*
X0049089Y0041886D01*
X0048724Y0042123D01*
X0048366Y0042369D01*
X0048014Y0042623D01*
X0047668Y0042886D01*
X0047329Y0043158D01*
X0046997Y0043437D01*
X0046671Y0043725D01*
X0046353Y0044021D01*
X0046042Y0044324D01*
X0045739Y0044635D01*
X0045443Y0044953D01*
X0045155Y0045279D01*
X0044876Y0045611D01*
X0044604Y0045950D01*
X0044341Y0046296D01*
X0044087Y0046648D01*
X0043841Y0047006D01*
X0043604Y0047371D01*
X0043376Y0047740D01*
X0043157Y0048116D01*
X0042948Y0048496D01*
X0042748Y0048882D01*
X0042557Y0049272D01*
X0042376Y0049667D01*
X0042205Y0050067D01*
X0042044Y0050470D01*
X0041893Y0050877D01*
X0041751Y0051288D01*
X0041620Y0051702D01*
X0041499Y0052119D01*
X0041388Y0052539D01*
X0041288Y0052962D01*
X0041198Y0053387D01*
X0041119Y0053814D01*
X0041050Y0054243D01*
X0040991Y0054673D01*
X0040943Y0055105D01*
X0040906Y0055538D01*
X0040879Y0055972D01*
X0040863Y0056406D01*
X0040858Y0056840D01*
X0101858Y0056840D02*
X0101863Y0057274D01*
X0101879Y0057708D01*
X0101906Y0058142D01*
X0101943Y0058575D01*
X0101991Y0059007D01*
X0102050Y0059437D01*
X0102119Y0059866D01*
X0102198Y0060293D01*
X0102288Y0060718D01*
X0102388Y0061141D01*
X0102499Y0061561D01*
X0102620Y0061978D01*
X0102751Y0062392D01*
X0102893Y0062803D01*
X0103044Y0063210D01*
X0103205Y0063613D01*
X0103376Y0064013D01*
X0103557Y0064408D01*
X0103748Y0064798D01*
X0103948Y0065184D01*
X0104157Y0065564D01*
X0104376Y0065940D01*
X0104604Y0066309D01*
X0104841Y0066674D01*
X0105087Y0067032D01*
X0105341Y0067384D01*
X0105604Y0067730D01*
X0105876Y0068069D01*
X0106155Y0068401D01*
X0106443Y0068727D01*
X0106739Y0069045D01*
X0107042Y0069356D01*
X0107353Y0069659D01*
X0107671Y0069955D01*
X0107997Y0070243D01*
X0108329Y0070522D01*
X0108668Y0070794D01*
X0109014Y0071057D01*
X0109366Y0071311D01*
X0109724Y0071557D01*
X0110089Y0071794D01*
X0110458Y0072022D01*
X0110834Y0072241D01*
X0111214Y0072450D01*
X0111600Y0072650D01*
X0111990Y0072841D01*
X0112385Y0073022D01*
X0112785Y0073193D01*
X0113188Y0073354D01*
X0113595Y0073505D01*
X0114006Y0073647D01*
X0114420Y0073778D01*
X0114837Y0073899D01*
X0115257Y0074010D01*
X0115680Y0074110D01*
X0116105Y0074200D01*
X0116532Y0074279D01*
X0116961Y0074348D01*
X0117391Y0074407D01*
X0117823Y0074455D01*
X0118256Y0074492D01*
X0118690Y0074519D01*
X0119124Y0074535D01*
X0119558Y0074540D01*
X0119992Y0074535D01*
X0120426Y0074519D01*
X0120860Y0074492D01*
X0121293Y0074455D01*
X0121725Y0074407D01*
X0122155Y0074348D01*
X0122584Y0074279D01*
X0123011Y0074200D01*
X0123436Y0074110D01*
X0123859Y0074010D01*
X0124279Y0073899D01*
X0124696Y0073778D01*
X0125110Y0073647D01*
X0125521Y0073505D01*
X0125928Y0073354D01*
X0126331Y0073193D01*
X0126731Y0073022D01*
X0127126Y0072841D01*
X0127516Y0072650D01*
X0127902Y0072450D01*
X0128282Y0072241D01*
X0128658Y0072022D01*
X0129027Y0071794D01*
X0129392Y0071557D01*
X0129750Y0071311D01*
X0130102Y0071057D01*
X0130448Y0070794D01*
X0130787Y0070522D01*
X0131119Y0070243D01*
X0131445Y0069955D01*
X0131763Y0069659D01*
X0132074Y0069356D01*
X0132377Y0069045D01*
X0132673Y0068727D01*
X0132961Y0068401D01*
X0133240Y0068069D01*
X0133512Y0067730D01*
X0133775Y0067384D01*
X0134029Y0067032D01*
X0134275Y0066674D01*
X0134512Y0066309D01*
X0134740Y0065940D01*
X0134959Y0065564D01*
X0135168Y0065184D01*
X0135368Y0064798D01*
X0135559Y0064408D01*
X0135740Y0064013D01*
X0135911Y0063613D01*
X0136072Y0063210D01*
X0136223Y0062803D01*
X0136365Y0062392D01*
X0136496Y0061978D01*
X0136617Y0061561D01*
X0136728Y0061141D01*
X0136828Y0060718D01*
X0136918Y0060293D01*
X0136997Y0059866D01*
X0137066Y0059437D01*
X0137125Y0059007D01*
X0137173Y0058575D01*
X0137210Y0058142D01*
X0137237Y0057708D01*
X0137253Y0057274D01*
X0137258Y0056840D01*
X0137253Y0056406D01*
X0137237Y0055972D01*
X0137210Y0055538D01*
X0137173Y0055105D01*
X0137125Y0054673D01*
X0137066Y0054243D01*
X0136997Y0053814D01*
X0136918Y0053387D01*
X0136828Y0052962D01*
X0136728Y0052539D01*
X0136617Y0052119D01*
X0136496Y0051702D01*
X0136365Y0051288D01*
X0136223Y0050877D01*
X0136072Y0050470D01*
X0135911Y0050067D01*
X0135740Y0049667D01*
X0135559Y0049272D01*
X0135368Y0048882D01*
X0135168Y0048496D01*
X0134959Y0048116D01*
X0134740Y0047740D01*
X0134512Y0047371D01*
X0134275Y0047006D01*
X0134029Y0046648D01*
X0133775Y0046296D01*
X0133512Y0045950D01*
X0133240Y0045611D01*
X0132961Y0045279D01*
X0132673Y0044953D01*
X0132377Y0044635D01*
X0132074Y0044324D01*
X0131763Y0044021D01*
X0131445Y0043725D01*
X0131119Y0043437D01*
X0130787Y0043158D01*
X0130448Y0042886D01*
X0130102Y0042623D01*
X0129750Y0042369D01*
X0129392Y0042123D01*
X0129027Y0041886D01*
X0128658Y0041658D01*
X0128282Y0041439D01*
X0127902Y0041230D01*
X0127516Y0041030D01*
X0127126Y0040839D01*
X0126731Y0040658D01*
X0126331Y0040487D01*
X0125928Y0040326D01*
X0125521Y0040175D01*
X0125110Y0040033D01*
X0124696Y0039902D01*
X0124279Y0039781D01*
X0123859Y0039670D01*
X0123436Y0039570D01*
X0123011Y0039480D01*
X0122584Y0039401D01*
X0122155Y0039332D01*
X0121725Y0039273D01*
X0121293Y0039225D01*
X0120860Y0039188D01*
X0120426Y0039161D01*
X0119992Y0039145D01*
X0119558Y0039140D01*
X0119124Y0039145D01*
X0118690Y0039161D01*
X0118256Y0039188D01*
X0117823Y0039225D01*
X0117391Y0039273D01*
X0116961Y0039332D01*
X0116532Y0039401D01*
X0116105Y0039480D01*
X0115680Y0039570D01*
X0115257Y0039670D01*
X0114837Y0039781D01*
X0114420Y0039902D01*
X0114006Y0040033D01*
X0113595Y0040175D01*
X0113188Y0040326D01*
X0112785Y0040487D01*
X0112385Y0040658D01*
X0111990Y0040839D01*
X0111600Y0041030D01*
X0111214Y0041230D01*
X0110834Y0041439D01*
X0110458Y0041658D01*
X0110089Y0041886D01*
X0109724Y0042123D01*
X0109366Y0042369D01*
X0109014Y0042623D01*
X0108668Y0042886D01*
X0108329Y0043158D01*
X0107997Y0043437D01*
X0107671Y0043725D01*
X0107353Y0044021D01*
X0107042Y0044324D01*
X0106739Y0044635D01*
X0106443Y0044953D01*
X0106155Y0045279D01*
X0105876Y0045611D01*
X0105604Y0045950D01*
X0105341Y0046296D01*
X0105087Y0046648D01*
X0104841Y0047006D01*
X0104604Y0047371D01*
X0104376Y0047740D01*
X0104157Y0048116D01*
X0103948Y0048496D01*
X0103748Y0048882D01*
X0103557Y0049272D01*
X0103376Y0049667D01*
X0103205Y0050067D01*
X0103044Y0050470D01*
X0102893Y0050877D01*
X0102751Y0051288D01*
X0102620Y0051702D01*
X0102499Y0052119D01*
X0102388Y0052539D01*
X0102288Y0052962D01*
X0102198Y0053387D01*
X0102119Y0053814D01*
X0102050Y0054243D01*
X0101991Y0054673D01*
X0101943Y0055105D01*
X0101906Y0055538D01*
X0101879Y0055972D01*
X0101863Y0056406D01*
X0101858Y0056840D01*
X0101858Y0117840D02*
X0101863Y0118274D01*
X0101879Y0118708D01*
X0101906Y0119142D01*
X0101943Y0119575D01*
X0101991Y0120007D01*
X0102050Y0120437D01*
X0102119Y0120866D01*
X0102198Y0121293D01*
X0102288Y0121718D01*
X0102388Y0122141D01*
X0102499Y0122561D01*
X0102620Y0122978D01*
X0102751Y0123392D01*
X0102893Y0123803D01*
X0103044Y0124210D01*
X0103205Y0124613D01*
X0103376Y0125013D01*
X0103557Y0125408D01*
X0103748Y0125798D01*
X0103948Y0126184D01*
X0104157Y0126564D01*
X0104376Y0126940D01*
X0104604Y0127309D01*
X0104841Y0127674D01*
X0105087Y0128032D01*
X0105341Y0128384D01*
X0105604Y0128730D01*
X0105876Y0129069D01*
X0106155Y0129401D01*
X0106443Y0129727D01*
X0106739Y0130045D01*
X0107042Y0130356D01*
X0107353Y0130659D01*
X0107671Y0130955D01*
X0107997Y0131243D01*
X0108329Y0131522D01*
X0108668Y0131794D01*
X0109014Y0132057D01*
X0109366Y0132311D01*
X0109724Y0132557D01*
X0110089Y0132794D01*
X0110458Y0133022D01*
X0110834Y0133241D01*
X0111214Y0133450D01*
X0111600Y0133650D01*
X0111990Y0133841D01*
X0112385Y0134022D01*
X0112785Y0134193D01*
X0113188Y0134354D01*
X0113595Y0134505D01*
X0114006Y0134647D01*
X0114420Y0134778D01*
X0114837Y0134899D01*
X0115257Y0135010D01*
X0115680Y0135110D01*
X0116105Y0135200D01*
X0116532Y0135279D01*
X0116961Y0135348D01*
X0117391Y0135407D01*
X0117823Y0135455D01*
X0118256Y0135492D01*
X0118690Y0135519D01*
X0119124Y0135535D01*
X0119558Y0135540D01*
X0119992Y0135535D01*
X0120426Y0135519D01*
X0120860Y0135492D01*
X0121293Y0135455D01*
X0121725Y0135407D01*
X0122155Y0135348D01*
X0122584Y0135279D01*
X0123011Y0135200D01*
X0123436Y0135110D01*
X0123859Y0135010D01*
X0124279Y0134899D01*
X0124696Y0134778D01*
X0125110Y0134647D01*
X0125521Y0134505D01*
X0125928Y0134354D01*
X0126331Y0134193D01*
X0126731Y0134022D01*
X0127126Y0133841D01*
X0127516Y0133650D01*
X0127902Y0133450D01*
X0128282Y0133241D01*
X0128658Y0133022D01*
X0129027Y0132794D01*
X0129392Y0132557D01*
X0129750Y0132311D01*
X0130102Y0132057D01*
X0130448Y0131794D01*
X0130787Y0131522D01*
X0131119Y0131243D01*
X0131445Y0130955D01*
X0131763Y0130659D01*
X0132074Y0130356D01*
X0132377Y0130045D01*
X0132673Y0129727D01*
X0132961Y0129401D01*
X0133240Y0129069D01*
X0133512Y0128730D01*
X0133775Y0128384D01*
X0134029Y0128032D01*
X0134275Y0127674D01*
X0134512Y0127309D01*
X0134740Y0126940D01*
X0134959Y0126564D01*
X0135168Y0126184D01*
X0135368Y0125798D01*
X0135559Y0125408D01*
X0135740Y0125013D01*
X0135911Y0124613D01*
X0136072Y0124210D01*
X0136223Y0123803D01*
X0136365Y0123392D01*
X0136496Y0122978D01*
X0136617Y0122561D01*
X0136728Y0122141D01*
X0136828Y0121718D01*
X0136918Y0121293D01*
X0136997Y0120866D01*
X0137066Y0120437D01*
X0137125Y0120007D01*
X0137173Y0119575D01*
X0137210Y0119142D01*
X0137237Y0118708D01*
X0137253Y0118274D01*
X0137258Y0117840D01*
X0137253Y0117406D01*
X0137237Y0116972D01*
X0137210Y0116538D01*
X0137173Y0116105D01*
X0137125Y0115673D01*
X0137066Y0115243D01*
X0136997Y0114814D01*
X0136918Y0114387D01*
X0136828Y0113962D01*
X0136728Y0113539D01*
X0136617Y0113119D01*
X0136496Y0112702D01*
X0136365Y0112288D01*
X0136223Y0111877D01*
X0136072Y0111470D01*
X0135911Y0111067D01*
X0135740Y0110667D01*
X0135559Y0110272D01*
X0135368Y0109882D01*
X0135168Y0109496D01*
X0134959Y0109116D01*
X0134740Y0108740D01*
X0134512Y0108371D01*
X0134275Y0108006D01*
X0134029Y0107648D01*
X0133775Y0107296D01*
X0133512Y0106950D01*
X0133240Y0106611D01*
X0132961Y0106279D01*
X0132673Y0105953D01*
X0132377Y0105635D01*
X0132074Y0105324D01*
X0131763Y0105021D01*
X0131445Y0104725D01*
X0131119Y0104437D01*
X0130787Y0104158D01*
X0130448Y0103886D01*
X0130102Y0103623D01*
X0129750Y0103369D01*
X0129392Y0103123D01*
X0129027Y0102886D01*
X0128658Y0102658D01*
X0128282Y0102439D01*
X0127902Y0102230D01*
X0127516Y0102030D01*
X0127126Y0101839D01*
X0126731Y0101658D01*
X0126331Y0101487D01*
X0125928Y0101326D01*
X0125521Y0101175D01*
X0125110Y0101033D01*
X0124696Y0100902D01*
X0124279Y0100781D01*
X0123859Y0100670D01*
X0123436Y0100570D01*
X0123011Y0100480D01*
X0122584Y0100401D01*
X0122155Y0100332D01*
X0121725Y0100273D01*
X0121293Y0100225D01*
X0120860Y0100188D01*
X0120426Y0100161D01*
X0119992Y0100145D01*
X0119558Y0100140D01*
X0119124Y0100145D01*
X0118690Y0100161D01*
X0118256Y0100188D01*
X0117823Y0100225D01*
X0117391Y0100273D01*
X0116961Y0100332D01*
X0116532Y0100401D01*
X0116105Y0100480D01*
X0115680Y0100570D01*
X0115257Y0100670D01*
X0114837Y0100781D01*
X0114420Y0100902D01*
X0114006Y0101033D01*
X0113595Y0101175D01*
X0113188Y0101326D01*
X0112785Y0101487D01*
X0112385Y0101658D01*
X0111990Y0101839D01*
X0111600Y0102030D01*
X0111214Y0102230D01*
X0110834Y0102439D01*
X0110458Y0102658D01*
X0110089Y0102886D01*
X0109724Y0103123D01*
X0109366Y0103369D01*
X0109014Y0103623D01*
X0108668Y0103886D01*
X0108329Y0104158D01*
X0107997Y0104437D01*
X0107671Y0104725D01*
X0107353Y0105021D01*
X0107042Y0105324D01*
X0106739Y0105635D01*
X0106443Y0105953D01*
X0106155Y0106279D01*
X0105876Y0106611D01*
X0105604Y0106950D01*
X0105341Y0107296D01*
X0105087Y0107648D01*
X0104841Y0108006D01*
X0104604Y0108371D01*
X0104376Y0108740D01*
X0104157Y0109116D01*
X0103948Y0109496D01*
X0103748Y0109882D01*
X0103557Y0110272D01*
X0103376Y0110667D01*
X0103205Y0111067D01*
X0103044Y0111470D01*
X0102893Y0111877D01*
X0102751Y0112288D01*
X0102620Y0112702D01*
X0102499Y0113119D01*
X0102388Y0113539D01*
X0102288Y0113962D01*
X0102198Y0114387D01*
X0102119Y0114814D01*
X0102050Y0115243D01*
X0101991Y0115673D01*
X0101943Y0116105D01*
X0101906Y0116538D01*
X0101879Y0116972D01*
X0101863Y0117406D01*
X0101858Y0117840D01*
D14*
X0027851Y0019340D02*
X0027011Y0019340D01*
X0027177Y0019237D01*
X0030077Y0018361D01*
X0030123Y0018466D01*
X0030123Y0018466D01*
X0033244Y0022428D01*
X0033244Y0022428D01*
X0037272Y0025462D01*
X0037272Y0025462D01*
X0041942Y0027367D01*
X0041942Y0027367D01*
X0046944Y0028017D01*
X0046944Y0028017D01*
X0051945Y0027367D01*
X0051945Y0027367D01*
X0056615Y0025462D01*
X0056615Y0025462D01*
X0060644Y0022428D01*
X0060644Y0022428D01*
X0063764Y0018466D01*
X0063764Y0018466D01*
X0063905Y0018140D01*
X0141558Y0018140D01*
X0143428Y0018245D01*
X0147073Y0019077D01*
X0148380Y0019707D01*
X0146876Y0020330D01*
X0145047Y0022158D01*
X0144058Y0024547D01*
X0144058Y0027133D01*
X0145047Y0029522D01*
X0146876Y0031351D01*
X0149265Y0032340D01*
X0151851Y0032340D01*
X0154240Y0031351D01*
X0156068Y0029522D01*
X0156691Y0028018D01*
X0157321Y0029325D01*
X0158153Y0032970D01*
X0158258Y0034840D01*
X0158258Y0052264D01*
X0157931Y0052406D01*
X0157931Y0052406D01*
X0154071Y0055653D01*
X0154071Y0055653D01*
X0151302Y0059870D01*
X0151302Y0059870D01*
X0149858Y0064704D01*
X0149858Y0069343D01*
X0149851Y0069340D01*
X0147265Y0069340D01*
X0144876Y0070330D01*
X0143047Y0072158D01*
X0142058Y0074547D01*
X0142058Y0077133D01*
X0143047Y0079522D01*
X0144876Y0081351D01*
X0147265Y0082340D01*
X0149851Y0082340D01*
X0152240Y0081351D01*
X0154068Y0079522D01*
X0154291Y0078984D01*
X0157931Y0082046D01*
X0158258Y0082188D01*
X0158258Y0114150D01*
X0158059Y0113669D01*
X0157229Y0112839D01*
X0156145Y0112390D01*
X0155578Y0112390D01*
X0151658Y0108470D01*
X0151658Y0091404D01*
X0142224Y0081970D01*
X0140994Y0080740D01*
X0134830Y0080740D01*
X0135059Y0080511D01*
X0135508Y0079427D01*
X0135508Y0078253D01*
X0135059Y0077169D01*
X0134229Y0076339D01*
X0133171Y0075901D01*
X0133924Y0075458D01*
X0133924Y0075458D01*
X0138026Y0071436D01*
X0138026Y0071436D01*
X0141033Y0066540D01*
X0141033Y0066540D01*
X0142766Y0061063D01*
X0142766Y0061063D01*
X0143122Y0055329D01*
X0143122Y0055329D01*
X0142081Y0049679D01*
X0142081Y0049679D01*
X0139704Y0044449D01*
X0139704Y0044449D01*
X0136132Y0039950D01*
X0136132Y0039950D01*
X0136132Y0039950D01*
X0131577Y0036448D01*
X0131577Y0036448D01*
X0126311Y0034152D01*
X0126311Y0034152D01*
X0120646Y0033198D01*
X0120646Y0033198D01*
X0114918Y0033643D01*
X0114918Y0033643D01*
X0109468Y0035460D01*
X0109468Y0035460D01*
X0104620Y0038542D01*
X0104620Y0038542D01*
X0100661Y0042706D01*
X0100661Y0042706D01*
X0097827Y0047703D01*
X0097827Y0047703D01*
X0096287Y0053237D01*
X0096287Y0053237D01*
X0096130Y0058980D01*
X0096130Y0058980D01*
X0097368Y0064590D01*
X0097368Y0064590D01*
X0099927Y0069734D01*
X0099927Y0069734D01*
X0103653Y0074107D01*
X0103653Y0074107D01*
X0108327Y0077447D01*
X0108327Y0077447D01*
X0110999Y0078503D01*
X0111367Y0078648D01*
X0112032Y0079314D01*
X0113080Y0079748D01*
X0113154Y0079748D01*
X0113894Y0080740D01*
X0096428Y0080740D01*
X0092658Y0076970D01*
X0092658Y0066970D01*
X0091428Y0065740D01*
X0087658Y0061970D01*
X0086428Y0060740D01*
X0081536Y0060740D01*
X0081958Y0058676D01*
X0081958Y0058676D01*
X0081713Y0052937D01*
X0081713Y0052937D01*
X0080087Y0047427D01*
X0080087Y0047427D01*
X0077176Y0042474D01*
X0077176Y0042474D01*
X0073153Y0038372D01*
X0073153Y0038372D01*
X0068258Y0035365D01*
X0068258Y0035365D01*
X0062781Y0033632D01*
X0062781Y0033632D01*
X0057047Y0033276D01*
X0057047Y0033276D01*
X0051397Y0034317D01*
X0051397Y0034317D01*
X0046167Y0036694D01*
X0046167Y0036694D01*
X0041667Y0040266D01*
X0041667Y0040266D01*
X0041667Y0040266D01*
X0038165Y0044821D01*
X0038165Y0044821D01*
X0035869Y0050087D01*
X0035869Y0050087D01*
X0034915Y0055752D01*
X0034915Y0055752D01*
X0035361Y0061480D01*
X0035361Y0061480D01*
X0037178Y0066930D01*
X0037178Y0066930D01*
X0040260Y0071778D01*
X0040260Y0071778D01*
X0044423Y0075737D01*
X0044423Y0075737D01*
X0049421Y0078571D01*
X0049421Y0078571D01*
X0054955Y0080112D01*
X0054955Y0080112D01*
X0060698Y0080268D01*
X0060698Y0080268D01*
X0066308Y0079030D01*
X0066308Y0079030D01*
X0071452Y0076471D01*
X0071452Y0076471D01*
X0075824Y0072745D01*
X0075824Y0072745D01*
X0079165Y0068071D01*
X0079165Y0068071D01*
X0080220Y0065399D01*
X0080366Y0065031D01*
X0080457Y0064940D01*
X0084688Y0064940D01*
X0088458Y0068710D01*
X0088458Y0078710D01*
X0089688Y0079940D01*
X0094688Y0084940D01*
X0139254Y0084940D01*
X0147458Y0093144D01*
X0147458Y0094020D01*
X0147145Y0093890D01*
X0146578Y0093890D01*
X0142658Y0089970D01*
X0141428Y0088740D01*
X0098688Y0088740D01*
X0087688Y0099740D01*
X0087630Y0099740D01*
X0087229Y0099339D01*
X0086145Y0098890D01*
X0084971Y0098890D01*
X0084658Y0099020D01*
X0084658Y0095323D01*
X0084262Y0094367D01*
X0083531Y0093636D01*
X0080031Y0090136D01*
X0079075Y0089740D01*
X0041041Y0089740D01*
X0040085Y0090136D01*
X0039354Y0090867D01*
X0032085Y0098136D01*
X0031354Y0098867D01*
X0030958Y0099823D01*
X0030958Y0133357D01*
X0031354Y0134313D01*
X0036707Y0139666D01*
X0037057Y0140511D01*
X0037887Y0141341D01*
X0038971Y0141790D01*
X0040145Y0141790D01*
X0041229Y0141341D01*
X0042059Y0140511D01*
X0042508Y0139427D01*
X0042508Y0138253D01*
X0042059Y0137169D01*
X0041229Y0136339D01*
X0040384Y0135989D01*
X0036158Y0131763D01*
X0036158Y0125271D01*
X0038412Y0130231D01*
X0038412Y0130231D01*
X0041984Y0134731D01*
X0041984Y0134731D01*
X0046538Y0138233D01*
X0046538Y0138233D01*
X0051494Y0140393D01*
X0051058Y0141445D01*
X0051058Y0143235D01*
X0051474Y0144240D01*
X0048622Y0144240D01*
X0048357Y0144087D01*
X0047783Y0144240D01*
X0047188Y0144240D01*
X0046972Y0144456D01*
X0046676Y0144535D01*
X0046378Y0145050D01*
X0045958Y0145470D01*
X0045958Y0145776D01*
X0041798Y0152962D01*
X0040887Y0153339D01*
X0040057Y0154169D01*
X0039608Y0155253D01*
X0039608Y0156427D01*
X0039655Y0156540D01*
X0036558Y0156540D01*
X0034688Y0156435D01*
X0031042Y0155603D01*
X0029735Y0154974D01*
X0031240Y0154351D01*
X0033068Y0152522D01*
X0033896Y0150523D01*
X0034663Y0150840D01*
X0036453Y0150840D01*
X0038107Y0150155D01*
X0039373Y0148889D01*
X0040058Y0147235D01*
X0040058Y0145445D01*
X0039373Y0143791D01*
X0038107Y0142525D01*
X0036453Y0141840D01*
X0034663Y0141840D01*
X0033009Y0142525D01*
X0031743Y0143791D01*
X0031731Y0143821D01*
X0031240Y0143330D01*
X0028851Y0142340D01*
X0026265Y0142340D01*
X0023876Y0143330D01*
X0022047Y0145158D01*
X0021424Y0146663D01*
X0020795Y0145356D01*
X0019963Y0141710D01*
X0019858Y0139840D01*
X0019858Y0063188D01*
X0020184Y0063047D01*
X0020184Y0063047D01*
X0024146Y0059926D01*
X0024146Y0059926D01*
X0027180Y0055897D01*
X0027180Y0055897D01*
X0029085Y0051227D01*
X0029085Y0051227D01*
X0029734Y0046226D01*
X0029734Y0046226D01*
X0029085Y0041225D01*
X0029085Y0041225D01*
X0027180Y0036555D01*
X0027180Y0036555D01*
X0024146Y0032526D01*
X0024146Y0032526D01*
X0024146Y0032526D01*
X0020184Y0029405D01*
X0020184Y0029405D01*
X0019926Y0029294D01*
X0020297Y0027709D01*
X0021047Y0029522D01*
X0022876Y0031351D01*
X0025265Y0032340D01*
X0027851Y0032340D01*
X0030240Y0031351D01*
X0032068Y0029522D01*
X0033058Y0027133D01*
X0033058Y0024547D01*
X0032068Y0022158D01*
X0030240Y0020330D01*
X0027851Y0019340D01*
X0028501Y0018837D02*
X0030415Y0018837D01*
X0030746Y0020836D02*
X0031989Y0020836D01*
X0033244Y0022428D02*
X0033244Y0022428D01*
X0033783Y0022834D02*
X0032348Y0022834D01*
X0033058Y0024833D02*
X0036436Y0024833D01*
X0033058Y0026831D02*
X0040628Y0026831D01*
X0032355Y0028830D02*
X0144761Y0028830D01*
X0144058Y0026831D02*
X0053259Y0026831D01*
X0057451Y0024833D02*
X0144058Y0024833D01*
X0144767Y0022834D02*
X0060105Y0022834D01*
X0060644Y0022428D02*
X0060644Y0022428D01*
X0061898Y0020836D02*
X0146370Y0020836D01*
X0146022Y0018837D02*
X0063472Y0018837D01*
X0066551Y0034825D02*
X0111373Y0034825D01*
X0107323Y0036824D02*
X0070633Y0036824D01*
X0073595Y0038822D02*
X0104354Y0038822D01*
X0102453Y0040821D02*
X0075555Y0040821D01*
X0077379Y0042819D02*
X0100597Y0042819D01*
X0099463Y0044818D02*
X0078554Y0044818D01*
X0079728Y0046816D02*
X0098330Y0046816D01*
X0097518Y0048815D02*
X0080497Y0048815D01*
X0081086Y0050813D02*
X0096961Y0050813D01*
X0096405Y0052812D02*
X0081676Y0052812D01*
X0081793Y0054810D02*
X0096244Y0054810D01*
X0096189Y0056809D02*
X0081878Y0056809D01*
X0081931Y0058807D02*
X0096135Y0058807D01*
X0096533Y0060806D02*
X0086493Y0060806D01*
X0088492Y0062804D02*
X0096974Y0062804D01*
X0097474Y0064803D02*
X0090490Y0064803D01*
X0092489Y0066801D02*
X0098468Y0066801D01*
X0099462Y0068800D02*
X0092658Y0068800D01*
X0092658Y0070798D02*
X0100834Y0070798D01*
X0102537Y0072797D02*
X0092658Y0072797D01*
X0092658Y0074796D02*
X0104617Y0074796D01*
X0107413Y0076794D02*
X0092658Y0076794D01*
X0094480Y0078793D02*
X0111511Y0078793D01*
X0106488Y0092940D02*
X0100428Y0092940D01*
X0089428Y0103940D01*
X0087688Y0103940D01*
X0087630Y0103940D01*
X0087229Y0104341D01*
X0086145Y0104790D01*
X0084971Y0104790D01*
X0084658Y0104660D01*
X0084658Y0105507D01*
X0085856Y0107185D01*
X0086229Y0107339D01*
X0087059Y0108169D01*
X0087508Y0109253D01*
X0087508Y0109440D01*
X0089527Y0112132D01*
X0089762Y0112367D01*
X0089834Y0112542D01*
X0089948Y0112694D01*
X0090031Y0113016D01*
X0090158Y0113323D01*
X0090158Y0113512D01*
X0090205Y0113696D01*
X0090158Y0114025D01*
X0090158Y0126798D01*
X0098962Y0136021D01*
X0099729Y0136339D01*
X0100559Y0137169D01*
X0101008Y0138253D01*
X0101008Y0139427D01*
X0100878Y0139740D01*
X0111202Y0139740D01*
X0109858Y0139315D01*
X0109858Y0139315D01*
X0104962Y0136308D01*
X0100940Y0132207D01*
X0100940Y0132207D01*
X0098029Y0127254D01*
X0098029Y0127254D01*
X0096403Y0121744D01*
X0096158Y0116004D01*
X0096598Y0113850D01*
X0095458Y0112710D01*
X0093458Y0110710D01*
X0093458Y0105970D01*
X0094688Y0104740D01*
X0106458Y0092970D01*
X0106488Y0092940D01*
X0106458Y0092970D02*
X0106458Y0092970D01*
X0104648Y0094781D02*
X0098587Y0094781D01*
X0096589Y0096779D02*
X0102649Y0096779D01*
X0100651Y0098778D02*
X0094590Y0098778D01*
X0092592Y0100776D02*
X0098652Y0100776D01*
X0096654Y0102775D02*
X0090593Y0102775D01*
X0088651Y0098778D02*
X0084658Y0098778D01*
X0084658Y0096779D02*
X0090649Y0096779D01*
X0092648Y0094781D02*
X0084433Y0094781D01*
X0082058Y0095840D02*
X0082058Y0106340D01*
X0084558Y0109840D01*
X0087558Y0113840D01*
X0087558Y0127840D01*
X0098058Y0138840D01*
X0100139Y0136749D02*
X0105680Y0136749D01*
X0104962Y0136308D02*
X0104962Y0136308D01*
X0103435Y0134751D02*
X0097749Y0134751D01*
X0095841Y0132752D02*
X0101475Y0132752D01*
X0100086Y0130754D02*
X0093933Y0130754D01*
X0092026Y0128755D02*
X0098911Y0128755D01*
X0097882Y0126757D02*
X0090158Y0126757D01*
X0090158Y0124758D02*
X0097292Y0124758D01*
X0096702Y0122760D02*
X0090158Y0122760D01*
X0090158Y0120761D02*
X0096361Y0120761D01*
X0096403Y0121744D02*
X0096403Y0121744D01*
X0096275Y0118763D02*
X0090158Y0118763D01*
X0090158Y0116764D02*
X0096190Y0116764D01*
X0096158Y0116004D02*
X0096158Y0116004D01*
X0096411Y0114766D02*
X0090158Y0114766D01*
X0089967Y0112767D02*
X0095515Y0112767D01*
X0093517Y0110769D02*
X0088504Y0110769D01*
X0087308Y0108770D02*
X0093458Y0108770D01*
X0093458Y0106772D02*
X0085561Y0106772D01*
X0086186Y0104773D02*
X0094655Y0104773D01*
X0094688Y0104740D02*
X0094688Y0104740D01*
X0084930Y0104773D02*
X0084658Y0104773D01*
X0079458Y0104773D02*
X0079186Y0104773D01*
X0079145Y0104790D02*
X0078056Y0104790D01*
X0078189Y0104946D01*
X0080747Y0110090D01*
X0081985Y0115700D01*
X0081829Y0121443D01*
X0080288Y0126977D01*
X0080288Y0126977D01*
X0077454Y0131975D01*
X0073496Y0136138D01*
X0073496Y0136138D01*
X0068647Y0139220D01*
X0063197Y0141038D01*
X0059992Y0141287D01*
X0060058Y0141445D01*
X0060058Y0143235D01*
X0059642Y0144240D01*
X0071188Y0144240D01*
X0075688Y0139740D01*
X0095238Y0139740D01*
X0095172Y0139583D01*
X0085698Y0129657D01*
X0085354Y0129313D01*
X0085342Y0129284D01*
X0085320Y0129261D01*
X0085144Y0128807D01*
X0084958Y0128357D01*
X0084958Y0128326D01*
X0084947Y0128297D01*
X0084958Y0127810D01*
X0084958Y0114707D01*
X0083317Y0112519D01*
X0082887Y0112341D01*
X0082057Y0111511D01*
X0081608Y0110427D01*
X0081608Y0110183D01*
X0080067Y0108026D01*
X0079854Y0107813D01*
X0079769Y0107610D01*
X0079642Y0107431D01*
X0079573Y0107136D01*
X0079458Y0106857D01*
X0079458Y0106637D01*
X0079408Y0106423D01*
X0079458Y0106125D01*
X0079458Y0104660D01*
X0079145Y0104790D01*
X0078189Y0104946D02*
X0078189Y0104946D01*
X0079097Y0106772D02*
X0079458Y0106772D01*
X0080091Y0108770D02*
X0080598Y0108770D01*
X0080747Y0110090D02*
X0080747Y0110090D01*
X0080897Y0110769D02*
X0081749Y0110769D01*
X0081338Y0112767D02*
X0083503Y0112767D01*
X0084958Y0114766D02*
X0081779Y0114766D01*
X0081985Y0115700D02*
X0081985Y0115700D01*
X0081956Y0116764D02*
X0084958Y0116764D01*
X0084958Y0118763D02*
X0081902Y0118763D01*
X0081848Y0120761D02*
X0084958Y0120761D01*
X0084958Y0122760D02*
X0081463Y0122760D01*
X0081829Y0121443D02*
X0081829Y0121443D01*
X0080906Y0124758D02*
X0084958Y0124758D01*
X0084958Y0126757D02*
X0080350Y0126757D01*
X0079280Y0128755D02*
X0085123Y0128755D01*
X0086745Y0130754D02*
X0078147Y0130754D01*
X0077454Y0131975D02*
X0077454Y0131975D01*
X0076715Y0132752D02*
X0088652Y0132752D01*
X0090560Y0134751D02*
X0074815Y0134751D01*
X0072534Y0136749D02*
X0092468Y0136749D01*
X0094375Y0138748D02*
X0069390Y0138748D01*
X0068647Y0139220D02*
X0068647Y0139220D01*
X0064070Y0140746D02*
X0074682Y0140746D01*
X0072683Y0142745D02*
X0060058Y0142745D01*
X0063197Y0141038D02*
X0063197Y0141038D01*
X0051347Y0140746D02*
X0041824Y0140746D01*
X0042508Y0138748D02*
X0047720Y0138748D01*
X0044609Y0136749D02*
X0041639Y0136749D01*
X0042010Y0134751D02*
X0039145Y0134751D01*
X0040413Y0132752D02*
X0037147Y0132752D01*
X0036158Y0130754D02*
X0038827Y0130754D01*
X0037741Y0128755D02*
X0036158Y0128755D01*
X0036158Y0126757D02*
X0036833Y0126757D01*
X0030958Y0126757D02*
X0019858Y0126757D01*
X0019858Y0128755D02*
X0030958Y0128755D01*
X0030958Y0130754D02*
X0019858Y0130754D01*
X0019858Y0132752D02*
X0030958Y0132752D01*
X0031792Y0134751D02*
X0019858Y0134751D01*
X0019858Y0136749D02*
X0033790Y0136749D01*
X0035789Y0138748D02*
X0019858Y0138748D01*
X0019909Y0140746D02*
X0037292Y0140746D01*
X0038327Y0142745D02*
X0051058Y0142745D01*
X0046556Y0144743D02*
X0039767Y0144743D01*
X0040058Y0146742D02*
X0045399Y0146742D01*
X0044242Y0148740D02*
X0039434Y0148740D01*
X0036697Y0150739D02*
X0043085Y0150739D01*
X0041928Y0152737D02*
X0032853Y0152737D01*
X0033807Y0150739D02*
X0034418Y0150739D01*
X0030309Y0154736D02*
X0039822Y0154736D01*
X0045431Y0155068D02*
X0045508Y0155253D01*
X0045508Y0156427D01*
X0045461Y0156540D01*
X0050655Y0156540D01*
X0050608Y0156427D01*
X0050608Y0155253D01*
X0051057Y0154169D01*
X0051887Y0153339D01*
X0052103Y0153250D01*
X0051743Y0152889D01*
X0051058Y0151235D01*
X0051058Y0149445D01*
X0051474Y0148440D01*
X0049269Y0148440D01*
X0045431Y0155068D01*
X0045624Y0154736D02*
X0050822Y0154736D01*
X0051680Y0152737D02*
X0046781Y0152737D01*
X0047938Y0150739D02*
X0051058Y0150739D01*
X0051350Y0148740D02*
X0049095Y0148740D01*
X0039558Y0138840D02*
X0033558Y0132840D01*
X0033558Y0100340D01*
X0041558Y0092340D01*
X0078558Y0092340D01*
X0082058Y0095840D01*
X0082677Y0092782D02*
X0094646Y0092782D01*
X0096645Y0090784D02*
X0080678Y0090784D01*
X0090539Y0080791D02*
X0019858Y0080791D01*
X0019858Y0078793D02*
X0050217Y0078793D01*
X0046288Y0076794D02*
X0019858Y0076794D01*
X0019858Y0074796D02*
X0043433Y0074796D01*
X0041332Y0072797D02*
X0019858Y0072797D01*
X0019858Y0070798D02*
X0039637Y0070798D01*
X0038367Y0068800D02*
X0019858Y0068800D01*
X0019858Y0066801D02*
X0037135Y0066801D01*
X0036469Y0064803D02*
X0019858Y0064803D01*
X0020491Y0062804D02*
X0035802Y0062804D01*
X0035308Y0060806D02*
X0023029Y0060806D01*
X0024146Y0059926D02*
X0024146Y0059926D01*
X0024988Y0058807D02*
X0035153Y0058807D01*
X0034998Y0056809D02*
X0026494Y0056809D01*
X0027623Y0054810D02*
X0035074Y0054810D01*
X0035410Y0052812D02*
X0028439Y0052812D01*
X0029139Y0050813D02*
X0035747Y0050813D01*
X0036424Y0048815D02*
X0029398Y0048815D01*
X0029658Y0046816D02*
X0037295Y0046816D01*
X0038167Y0044818D02*
X0029551Y0044818D01*
X0029292Y0042819D02*
X0039704Y0042819D01*
X0041241Y0040821D02*
X0028920Y0040821D01*
X0028105Y0038822D02*
X0043486Y0038822D01*
X0046004Y0036824D02*
X0027290Y0036824D01*
X0025878Y0034825D02*
X0050279Y0034825D01*
X0030762Y0030828D02*
X0146354Y0030828D01*
X0154762Y0030828D02*
X0157664Y0030828D01*
X0158120Y0032827D02*
X0024373Y0032827D01*
X0022354Y0030828D02*
X0021990Y0030828D01*
X0020761Y0028830D02*
X0020034Y0028830D01*
X0066785Y0078793D02*
X0088540Y0078793D01*
X0088458Y0076794D02*
X0070803Y0076794D01*
X0073418Y0074796D02*
X0088458Y0074796D01*
X0088458Y0072797D02*
X0075763Y0072797D01*
X0077215Y0070798D02*
X0088458Y0070798D01*
X0088458Y0068800D02*
X0078644Y0068800D01*
X0079667Y0066801D02*
X0086549Y0066801D01*
X0092537Y0082790D02*
X0019858Y0082790D01*
X0019858Y0084788D02*
X0094536Y0084788D01*
X0098643Y0088785D02*
X0019858Y0088785D01*
X0019858Y0086787D02*
X0141100Y0086787D01*
X0141473Y0088785D02*
X0143099Y0088785D01*
X0143471Y0090784D02*
X0145097Y0090784D01*
X0145470Y0092782D02*
X0147096Y0092782D01*
X0151037Y0090784D02*
X0158258Y0090784D01*
X0158258Y0088785D02*
X0149039Y0088785D01*
X0147040Y0086787D02*
X0158258Y0086787D01*
X0158258Y0084788D02*
X0145042Y0084788D01*
X0143043Y0082790D02*
X0158258Y0082790D01*
X0156439Y0080791D02*
X0152799Y0080791D01*
X0144316Y0080791D02*
X0141045Y0080791D01*
X0142745Y0078793D02*
X0135508Y0078793D01*
X0134684Y0076794D02*
X0142058Y0076794D01*
X0142058Y0074796D02*
X0134600Y0074796D01*
X0136638Y0072797D02*
X0142783Y0072797D01*
X0144407Y0070798D02*
X0138417Y0070798D01*
X0139645Y0068800D02*
X0149858Y0068800D01*
X0149858Y0066801D02*
X0140872Y0066801D01*
X0141582Y0064803D02*
X0149858Y0064803D01*
X0150425Y0062804D02*
X0142215Y0062804D01*
X0142782Y0060806D02*
X0151023Y0060806D01*
X0152000Y0058807D02*
X0142906Y0058807D01*
X0143030Y0056809D02*
X0153312Y0056809D01*
X0155073Y0054810D02*
X0143026Y0054810D01*
X0142658Y0052812D02*
X0157448Y0052812D01*
X0158258Y0050813D02*
X0142290Y0050813D01*
X0141688Y0048815D02*
X0158258Y0048815D01*
X0158258Y0046816D02*
X0140780Y0046816D01*
X0139871Y0044818D02*
X0158258Y0044818D01*
X0158258Y0042819D02*
X0138410Y0042819D01*
X0136823Y0040821D02*
X0158258Y0040821D01*
X0158258Y0038822D02*
X0134666Y0038822D01*
X0132067Y0036824D02*
X0158258Y0036824D01*
X0158257Y0034825D02*
X0127856Y0034825D01*
X0156355Y0028830D02*
X0157082Y0028830D01*
X0158258Y0092782D02*
X0151658Y0092782D01*
X0151658Y0094781D02*
X0158258Y0094781D01*
X0158258Y0096779D02*
X0151658Y0096779D01*
X0151658Y0098778D02*
X0158258Y0098778D01*
X0158258Y0100776D02*
X0151658Y0100776D01*
X0151658Y0102775D02*
X0158258Y0102775D01*
X0158258Y0104773D02*
X0151658Y0104773D01*
X0151658Y0106772D02*
X0158258Y0106772D01*
X0158258Y0108770D02*
X0151958Y0108770D01*
X0153956Y0110769D02*
X0158258Y0110769D01*
X0158258Y0112767D02*
X0157055Y0112767D01*
X0158258Y0116530D02*
X0158059Y0117011D01*
X0157229Y0117841D01*
X0156145Y0118290D01*
X0154971Y0118290D01*
X0153887Y0117841D01*
X0153057Y0117011D01*
X0152608Y0115927D01*
X0152608Y0115360D01*
X0148688Y0111440D01*
X0147458Y0110210D01*
X0147458Y0099660D01*
X0147145Y0099790D01*
X0145971Y0099790D01*
X0144887Y0099341D01*
X0144057Y0098511D01*
X0143765Y0097805D01*
X0143229Y0098341D01*
X0142145Y0098790D01*
X0140971Y0098790D01*
X0139887Y0098341D01*
X0139486Y0097940D01*
X0131923Y0097940D01*
X0133692Y0098944D01*
X0133692Y0098944D01*
X0137856Y0102902D01*
X0140938Y0107751D01*
X0142755Y0113201D01*
X0143200Y0118928D01*
X0142246Y0124594D01*
X0139950Y0129860D01*
X0136448Y0134414D01*
X0135810Y0134921D01*
X0136059Y0135169D01*
X0136508Y0136253D01*
X0136508Y0137427D01*
X0136059Y0138511D01*
X0135658Y0138912D01*
X0135658Y0140710D01*
X0131658Y0144710D01*
X0130428Y0145940D01*
X0086428Y0145940D01*
X0083158Y0149210D01*
X0081928Y0150440D01*
X0078602Y0150440D01*
X0081516Y0152353D01*
X0081516Y0152353D01*
X0084764Y0156214D01*
X0084905Y0156540D01*
X0098641Y0156540D01*
X0098058Y0155133D01*
X0098058Y0152547D01*
X0099047Y0150158D01*
X0100876Y0148330D01*
X0103265Y0147340D01*
X0105851Y0147340D01*
X0108240Y0148330D01*
X0110068Y0150158D01*
X0111058Y0152547D01*
X0111058Y0155133D01*
X0110475Y0156540D01*
X0122007Y0156540D01*
X0158258Y0121014D01*
X0158258Y0116530D01*
X0158258Y0116764D02*
X0158161Y0116764D01*
X0158258Y0118763D02*
X0143187Y0118763D01*
X0143032Y0116764D02*
X0152955Y0116764D01*
X0152014Y0114766D02*
X0142877Y0114766D01*
X0142611Y0112767D02*
X0150015Y0112767D01*
X0148017Y0110769D02*
X0141944Y0110769D01*
X0141278Y0108770D02*
X0147458Y0108770D01*
X0147458Y0106772D02*
X0140315Y0106772D01*
X0140938Y0107751D02*
X0140938Y0107751D01*
X0139045Y0104773D02*
X0147458Y0104773D01*
X0147458Y0102775D02*
X0137722Y0102775D01*
X0135620Y0100776D02*
X0147458Y0100776D01*
X0144323Y0098778D02*
X0142175Y0098778D01*
X0140941Y0098778D02*
X0133400Y0098778D01*
X0142892Y0120761D02*
X0158258Y0120761D01*
X0156477Y0122760D02*
X0142555Y0122760D01*
X0142175Y0124758D02*
X0154437Y0124758D01*
X0152398Y0126757D02*
X0141303Y0126757D01*
X0140432Y0128755D02*
X0150359Y0128755D01*
X0148319Y0130754D02*
X0139263Y0130754D01*
X0139950Y0129860D02*
X0139950Y0129860D01*
X0137726Y0132752D02*
X0146280Y0132752D01*
X0144241Y0134751D02*
X0136024Y0134751D01*
X0136448Y0134414D02*
X0136448Y0134414D01*
X0136508Y0136749D02*
X0142202Y0136749D01*
X0140162Y0138748D02*
X0135822Y0138748D01*
X0135621Y0140746D02*
X0138123Y0140746D01*
X0136084Y0142745D02*
X0133623Y0142745D01*
X0134044Y0144743D02*
X0131624Y0144743D01*
X0132005Y0146742D02*
X0085626Y0146742D01*
X0083627Y0148740D02*
X0100465Y0148740D01*
X0098807Y0150739D02*
X0079058Y0150739D01*
X0081840Y0152737D02*
X0098058Y0152737D01*
X0098058Y0154736D02*
X0083521Y0154736D01*
X0084764Y0156214D02*
X0084764Y0156214D01*
X0083558Y0151840D02*
X0088558Y0146840D01*
X0120558Y0146840D01*
X0125887Y0152737D02*
X0111058Y0152737D01*
X0111058Y0154736D02*
X0123848Y0154736D01*
X0127926Y0150739D02*
X0110309Y0150739D01*
X0108650Y0148740D02*
X0129966Y0148740D01*
X0108934Y0138748D02*
X0101008Y0138748D01*
X0082488Y0143940D02*
X0077428Y0143940D01*
X0075128Y0146240D01*
X0080188Y0146240D01*
X0082488Y0143940D01*
X0081685Y0144743D02*
X0076624Y0144743D01*
X0032789Y0142745D02*
X0029828Y0142745D01*
X0025288Y0142745D02*
X0020199Y0142745D01*
X0020655Y0144743D02*
X0022462Y0144743D01*
X0019858Y0124758D02*
X0030958Y0124758D01*
X0030958Y0122760D02*
X0019858Y0122760D01*
X0019858Y0120761D02*
X0030958Y0120761D01*
X0030958Y0118763D02*
X0019858Y0118763D01*
X0019858Y0116764D02*
X0030958Y0116764D01*
X0030958Y0114766D02*
X0019858Y0114766D01*
X0019858Y0112767D02*
X0030958Y0112767D01*
X0030958Y0110769D02*
X0019858Y0110769D01*
X0019858Y0108770D02*
X0030958Y0108770D01*
X0030958Y0106772D02*
X0019858Y0106772D01*
X0019858Y0104773D02*
X0030958Y0104773D01*
X0030958Y0102775D02*
X0019858Y0102775D01*
X0019858Y0100776D02*
X0030958Y0100776D01*
X0031443Y0098778D02*
X0019858Y0098778D01*
X0019858Y0096779D02*
X0033442Y0096779D01*
X0035440Y0094781D02*
X0019858Y0094781D01*
X0019858Y0092782D02*
X0037439Y0092782D01*
X0039437Y0090784D02*
X0019858Y0090784D01*
D15*
X0020558Y0090840D03*
X0028558Y0084840D03*
X0020558Y0080840D03*
X0020558Y0070840D03*
X0027558Y0062840D03*
X0030558Y0052840D03*
X0029558Y0041840D03*
X0027558Y0034840D03*
X0020558Y0029340D03*
X0029558Y0019340D03*
X0035558Y0024840D03*
X0042558Y0028840D03*
X0036058Y0034340D03*
X0053558Y0028840D03*
X0065558Y0025840D03*
X0072558Y0018840D03*
X0081558Y0018840D03*
X0088558Y0018840D03*
X0095558Y0018840D03*
X0104558Y0018840D03*
X0114558Y0018840D03*
X0123558Y0018840D03*
X0132558Y0018840D03*
X0132558Y0026840D03*
X0141558Y0027840D03*
X0141558Y0018840D03*
X0156558Y0033840D03*
X0155558Y0039840D03*
X0157058Y0045840D03*
X0145558Y0044840D03*
X0145558Y0037840D03*
X0137558Y0038840D03*
X0123058Y0032840D03*
X0108058Y0030840D03*
X0085558Y0026840D03*
X0103558Y0078840D03*
X0109058Y0087340D03*
X0101558Y0094340D03*
X0095058Y0101340D03*
X0085558Y0101840D03*
X0078558Y0101840D03*
X0084558Y0109840D03*
X0083558Y0120840D03*
X0083558Y0135340D03*
X0093558Y0138840D03*
X0098058Y0138840D03*
X0102058Y0137340D03*
X0098558Y0133840D03*
X0105558Y0146840D03*
X0112558Y0146840D03*
X0112558Y0151840D03*
X0112058Y0155840D03*
X0116558Y0155840D03*
X0121558Y0155840D03*
X0118558Y0151840D03*
X0120558Y0146840D03*
X0130558Y0147840D03*
X0134558Y0143840D03*
X0138058Y0140340D03*
X0142058Y0136340D03*
X0146058Y0132340D03*
X0149558Y0128840D03*
X0145558Y0124840D03*
X0142058Y0128340D03*
X0138058Y0132340D03*
X0133558Y0136840D03*
X0130558Y0138840D03*
X0155558Y0115340D03*
X0157558Y0118840D03*
X0157558Y0110840D03*
X0157558Y0103340D03*
X0157558Y0097340D03*
X0157558Y0090840D03*
X0157558Y0084340D03*
X0152558Y0084840D03*
X0141558Y0095840D03*
X0138558Y0099340D03*
X0144558Y0101840D03*
X0146558Y0096840D03*
X0132558Y0078840D03*
X0145058Y0069840D03*
X0148058Y0064840D03*
X0150558Y0059840D03*
X0144558Y0055840D03*
X0142558Y0063840D03*
X0072058Y0138340D03*
X0067558Y0142340D03*
X0063558Y0143340D03*
X0053558Y0155840D03*
X0046558Y0155840D03*
X0042558Y0155840D03*
X0038558Y0155840D03*
X0036058Y0152840D03*
X0033558Y0155840D03*
X0032558Y0139840D03*
X0026558Y0138840D03*
X0025558Y0133840D03*
X0021558Y0137840D03*
X0020558Y0132840D03*
X0020558Y0123840D03*
X0020558Y0113840D03*
X0030058Y0115840D03*
X0030058Y0123840D03*
X0037058Y0128840D03*
X0030058Y0132840D03*
X0039558Y0138840D03*
X0044558Y0137840D03*
X0030058Y0105840D03*
X0020558Y0101840D03*
X0079558Y0145340D03*
X0083558Y0151840D03*
X0085558Y0155840D03*
X0092558Y0155840D03*
X0097558Y0153840D03*
D16*
X0085558Y0143840D02*
X0081058Y0148340D01*
X0063058Y0148340D01*
X0056058Y0155340D02*
X0053558Y0155840D01*
X0048058Y0146340D02*
X0042558Y0155840D01*
X0048058Y0146340D02*
X0072058Y0146340D01*
X0076558Y0141840D01*
X0127558Y0141840D01*
X0130558Y0138840D01*
X0133558Y0139840D02*
X0133558Y0136840D01*
X0133558Y0139840D02*
X0129558Y0143840D01*
X0085558Y0143840D01*
X0097558Y0111840D02*
X0099411Y0111840D01*
X0099500Y0111929D01*
X0097558Y0111840D02*
X0095558Y0109840D01*
X0095558Y0106840D01*
X0108558Y0093840D01*
X0130558Y0093840D01*
X0132558Y0095840D01*
X0141558Y0095840D01*
X0140558Y0090840D02*
X0099558Y0090840D01*
X0088558Y0101840D01*
X0085558Y0101840D01*
X0078558Y0101840D02*
X0074500Y0097783D01*
X0064469Y0097783D01*
X0090558Y0077840D02*
X0090558Y0067840D01*
X0085558Y0062840D01*
X0078704Y0062840D01*
X0078615Y0062751D01*
X0090558Y0077840D02*
X0095558Y0082840D01*
X0140124Y0082840D01*
X0149558Y0092274D01*
X0149558Y0109340D01*
X0155558Y0115340D01*
X0146558Y0096840D02*
X0140558Y0090840D01*
X0130558Y0080840D02*
X0116589Y0080840D01*
X0113647Y0076898D01*
X0130558Y0080840D02*
X0132558Y0078840D01*
D17*
X0063058Y0148340D02*
X0056058Y0155340D01*
M02*
