G75*
%MOIN*%
%OFA0B0*%
%FSLAX25Y25*%
%IPPOS*%
%LPD*%
%AMOC8*
5,1,8,0,0,1.08239X$1,22.5*
%
%ADD10C,0.00300*%
%ADD11C,0.00500*%
%ADD12C,0.04000*%
%ADD13R,0.00500X0.00500*%
%ADD14R,0.01500X0.00500*%
%ADD15R,0.02500X0.00500*%
%ADD16R,0.03500X0.00500*%
%ADD17R,0.04500X0.00500*%
%ADD18R,0.05500X0.00500*%
%ADD19R,0.06500X0.00500*%
%ADD20R,0.07500X0.00500*%
%ADD21R,0.04000X0.00500*%
%ADD22R,0.07000X0.00500*%
%ADD23R,0.06000X0.00500*%
%ADD24R,0.05000X0.00500*%
%ADD25R,0.03000X0.00500*%
%ADD26R,0.02000X0.00500*%
%ADD27R,0.01000X0.00500*%
D10*
X0045070Y0079740D02*
X0046071Y0079740D01*
X0046571Y0080241D01*
X0046071Y0079740D01*
X0045070Y0079740D01*
X0044569Y0080241D01*
X0044569Y0081241D01*
X0045070Y0081742D01*
X0045570Y0081742D01*
X0046571Y0081241D01*
X0046571Y0082743D01*
X0044569Y0082743D01*
X0046571Y0082743D01*
X0046571Y0081241D01*
X0045570Y0081742D01*
X0045070Y0081742D01*
X0044569Y0081241D01*
X0044569Y0080241D01*
X0045070Y0079740D01*
X0047608Y0080241D02*
X0047608Y0080741D01*
X0048108Y0081241D01*
X0048609Y0081241D01*
X0048108Y0081241D01*
X0047608Y0081742D01*
X0047608Y0082242D01*
X0048108Y0082743D01*
X0049109Y0082743D01*
X0049610Y0082242D01*
X0049109Y0082743D01*
X0048108Y0082743D01*
X0047608Y0082242D01*
X0047608Y0081742D01*
X0048108Y0081241D01*
X0047608Y0080741D01*
X0047608Y0080241D01*
X0048108Y0079740D01*
X0049109Y0079740D01*
X0049610Y0080241D01*
X0049109Y0079740D01*
X0048108Y0079740D01*
X0047608Y0080241D01*
X0047101Y0084690D02*
X0049103Y0084690D01*
X0047101Y0086692D01*
X0047101Y0087192D01*
X0047602Y0087693D01*
X0048603Y0087693D01*
X0049103Y0087192D01*
X0048603Y0087693D01*
X0047602Y0087693D01*
X0047101Y0087192D01*
X0047101Y0086692D01*
X0049103Y0084690D01*
X0047101Y0084690D01*
X0046065Y0085191D02*
X0044063Y0087192D01*
X0044063Y0085191D01*
X0044563Y0084690D01*
X0045564Y0084690D01*
X0046065Y0085191D01*
X0046065Y0087192D01*
X0045564Y0087693D01*
X0044563Y0087693D01*
X0044063Y0087192D01*
X0046065Y0085191D01*
X0045564Y0084690D01*
X0044563Y0084690D01*
X0044063Y0085191D01*
X0044063Y0087192D01*
X0044563Y0087693D01*
X0045564Y0087693D01*
X0046065Y0087192D01*
X0046065Y0085191D01*
X0043026Y0084690D02*
X0041024Y0084690D01*
X0043026Y0084690D01*
X0042025Y0084690D02*
X0042025Y0087693D01*
X0043026Y0086692D01*
X0042025Y0087693D01*
X0042025Y0084690D01*
X0039987Y0084690D02*
X0039987Y0085191D01*
X0037986Y0087192D01*
X0037986Y0087693D01*
X0039987Y0087693D01*
X0037986Y0087693D01*
X0037986Y0087192D01*
X0039987Y0085191D01*
X0039987Y0084690D01*
X0053179Y0085191D02*
X0053679Y0084690D01*
X0054680Y0084690D01*
X0055180Y0085191D01*
X0054680Y0084690D01*
X0053679Y0084690D01*
X0053179Y0085191D01*
X0053179Y0085691D01*
X0053679Y0086191D01*
X0054180Y0086191D01*
X0053679Y0086191D01*
X0053179Y0086692D01*
X0053179Y0087192D01*
X0053679Y0087693D01*
X0054680Y0087693D01*
X0055180Y0087192D01*
X0054680Y0087693D01*
X0053679Y0087693D01*
X0053179Y0087192D01*
X0053179Y0086692D01*
X0053679Y0086191D01*
X0053179Y0085691D01*
X0053179Y0085191D01*
X0056217Y0084690D02*
X0058219Y0084690D01*
X0056217Y0084690D01*
X0057218Y0084690D02*
X0057218Y0087693D01*
X0058219Y0086692D01*
X0057218Y0087693D01*
X0057218Y0084690D01*
X0057206Y0081742D02*
X0056205Y0079740D01*
X0055204Y0081742D01*
X0056205Y0079740D01*
X0057206Y0081742D01*
X0058243Y0081241D02*
X0058243Y0080741D01*
X0060245Y0080741D01*
X0058243Y0080741D01*
X0058243Y0081241D01*
X0058743Y0081742D01*
X0059744Y0081742D01*
X0060245Y0081241D01*
X0060245Y0080241D01*
X0059744Y0079740D01*
X0058743Y0079740D01*
X0059744Y0079740D01*
X0060245Y0080241D01*
X0060245Y0081241D01*
X0059744Y0081742D01*
X0058743Y0081742D01*
X0058243Y0081241D01*
X0061282Y0081241D02*
X0061282Y0082242D01*
X0061782Y0082743D01*
X0063283Y0082743D01*
X0063283Y0079740D01*
X0063283Y0082743D01*
X0061782Y0082743D01*
X0061282Y0082242D01*
X0061282Y0081241D01*
X0061782Y0080741D01*
X0063283Y0080741D01*
X0061782Y0080741D01*
X0061282Y0081241D01*
X0062282Y0080741D02*
X0061282Y0079740D01*
X0062282Y0080741D01*
X0063790Y0084690D02*
X0063790Y0086692D01*
X0063790Y0084690D01*
X0063790Y0085691D02*
X0062789Y0086692D01*
X0062288Y0086692D01*
X0062789Y0086692D01*
X0063790Y0085691D01*
X0064827Y0085691D02*
X0066328Y0085691D01*
X0066828Y0085191D01*
X0066328Y0084690D01*
X0064827Y0084690D01*
X0064827Y0086191D01*
X0065327Y0086692D01*
X0066328Y0086692D01*
X0065327Y0086692D01*
X0064827Y0086191D01*
X0064827Y0084690D01*
X0066328Y0084690D01*
X0066828Y0085191D01*
X0066328Y0085691D01*
X0064827Y0085691D01*
X0067865Y0084690D02*
X0067865Y0087693D01*
X0068866Y0086692D01*
X0069867Y0087693D01*
X0069867Y0084690D01*
X0069867Y0087693D01*
X0068866Y0086692D01*
X0067865Y0087693D01*
X0067865Y0084690D01*
X0054168Y0080241D02*
X0053667Y0080241D01*
X0053667Y0079740D01*
X0054168Y0079740D01*
X0054168Y0080241D01*
X0053667Y0080241D01*
X0053667Y0079740D01*
X0054168Y0079740D01*
X0054168Y0080241D01*
D11*
X0028558Y0081840D02*
X0028558Y0038911D01*
X0028562Y0038619D01*
X0028572Y0038328D01*
X0028590Y0038037D01*
X0028614Y0037746D01*
X0028646Y0037456D01*
X0028685Y0037167D01*
X0028730Y0036879D01*
X0028783Y0036592D01*
X0028842Y0036306D01*
X0028909Y0036022D01*
X0028982Y0035740D01*
X0029062Y0035459D01*
X0029149Y0035181D01*
X0029242Y0034905D01*
X0029342Y0034631D01*
X0029449Y0034359D01*
X0029562Y0034090D01*
X0029682Y0033824D01*
X0029808Y0033561D01*
X0029941Y0033301D01*
X0030079Y0033045D01*
X0030224Y0032791D01*
X0030375Y0032542D01*
X0030532Y0032296D01*
X0030695Y0032054D01*
X0030863Y0031816D01*
X0031038Y0031582D01*
X0031218Y0031352D01*
X0031403Y0031127D01*
X0031594Y0030906D01*
X0031790Y0030690D01*
X0031991Y0030479D01*
X0032197Y0030273D01*
X0032408Y0030072D01*
X0032624Y0029876D01*
X0032845Y0029685D01*
X0033070Y0029500D01*
X0033300Y0029320D01*
X0033534Y0029145D01*
X0033772Y0028977D01*
X0034014Y0028814D01*
X0034260Y0028657D01*
X0034509Y0028506D01*
X0034763Y0028361D01*
X0035019Y0028223D01*
X0035279Y0028090D01*
X0035542Y0027964D01*
X0035808Y0027844D01*
X0036077Y0027731D01*
X0036349Y0027624D01*
X0036623Y0027524D01*
X0036899Y0027431D01*
X0037177Y0027344D01*
X0037458Y0027264D01*
X0037740Y0027191D01*
X0038024Y0027124D01*
X0038310Y0027065D01*
X0038597Y0027012D01*
X0038885Y0026967D01*
X0039174Y0026928D01*
X0039464Y0026896D01*
X0039755Y0026872D01*
X0040046Y0026854D01*
X0040337Y0026844D01*
X0040629Y0026840D01*
X0083558Y0026840D01*
X0083558Y0016840D01*
X0078558Y0011840D01*
X0083558Y0006840D01*
X0088558Y0011840D01*
X0088558Y0026840D01*
X0088558Y0086840D01*
X0028558Y0086840D01*
X0013558Y0086840D01*
X0008558Y0081840D01*
X0013558Y0076840D01*
X0018558Y0081840D01*
X0028558Y0081840D01*
X0028558Y0086840D01*
X0028558Y0087840D02*
X0013558Y0087840D01*
X0008558Y0092840D01*
X0013558Y0097840D01*
X0018558Y0092840D01*
X0028558Y0092840D01*
X0028558Y0087840D01*
X0088558Y0087840D01*
X0088558Y0147840D01*
X0088558Y0162840D01*
X0083558Y0167840D01*
X0078558Y0162840D01*
X0083558Y0157840D01*
X0083558Y0147840D01*
X0040629Y0147840D01*
X0040337Y0147836D01*
X0040046Y0147826D01*
X0039755Y0147808D01*
X0039464Y0147784D01*
X0039174Y0147752D01*
X0038885Y0147713D01*
X0038597Y0147668D01*
X0038310Y0147615D01*
X0038024Y0147556D01*
X0037740Y0147489D01*
X0037458Y0147416D01*
X0037177Y0147336D01*
X0036899Y0147249D01*
X0036623Y0147156D01*
X0036349Y0147056D01*
X0036077Y0146949D01*
X0035808Y0146836D01*
X0035542Y0146716D01*
X0035279Y0146590D01*
X0035019Y0146457D01*
X0034763Y0146319D01*
X0034509Y0146174D01*
X0034260Y0146023D01*
X0034014Y0145866D01*
X0033772Y0145703D01*
X0033534Y0145535D01*
X0033300Y0145360D01*
X0033070Y0145180D01*
X0032845Y0144995D01*
X0032624Y0144804D01*
X0032408Y0144608D01*
X0032197Y0144407D01*
X0031991Y0144201D01*
X0031790Y0143990D01*
X0031594Y0143774D01*
X0031403Y0143553D01*
X0031218Y0143328D01*
X0031038Y0143098D01*
X0030863Y0142864D01*
X0030695Y0142626D01*
X0030532Y0142384D01*
X0030375Y0142138D01*
X0030224Y0141889D01*
X0030079Y0141635D01*
X0029941Y0141379D01*
X0029808Y0141119D01*
X0029682Y0140856D01*
X0029562Y0140590D01*
X0029449Y0140321D01*
X0029342Y0140049D01*
X0029242Y0139775D01*
X0029149Y0139499D01*
X0029062Y0139221D01*
X0028982Y0138940D01*
X0028909Y0138658D01*
X0028842Y0138374D01*
X0028783Y0138088D01*
X0028730Y0137801D01*
X0028685Y0137513D01*
X0028646Y0137224D01*
X0028614Y0136934D01*
X0028590Y0136643D01*
X0028572Y0136352D01*
X0028562Y0136061D01*
X0028558Y0135769D01*
X0028558Y0092840D01*
X0031890Y0093342D02*
X0034892Y0093342D01*
X0036494Y0091841D02*
X0037244Y0091090D01*
X0038745Y0091090D01*
X0039496Y0091841D01*
X0039496Y0094843D01*
X0038745Y0095594D01*
X0037244Y0095594D01*
X0036494Y0094843D01*
X0034892Y0095594D02*
X0034892Y0091090D01*
X0031890Y0091090D02*
X0031890Y0095594D01*
X0041097Y0095594D02*
X0041097Y0091841D01*
X0041848Y0091090D01*
X0043349Y0091090D01*
X0044100Y0091841D01*
X0044100Y0095594D01*
X0045701Y0094843D02*
X0046452Y0095594D01*
X0047953Y0095594D01*
X0048704Y0094843D01*
X0048704Y0091841D01*
X0047953Y0091090D01*
X0046452Y0091090D01*
X0045701Y0091841D01*
X0045701Y0094843D01*
X0050305Y0095594D02*
X0053308Y0095594D01*
X0051807Y0095594D02*
X0051807Y0091090D01*
X0059513Y0091090D02*
X0059513Y0095594D01*
X0062516Y0095594D02*
X0059513Y0091090D01*
X0062516Y0091090D02*
X0062516Y0095594D01*
X0064117Y0094843D02*
X0064117Y0093342D01*
X0064868Y0092591D01*
X0067120Y0092591D01*
X0067120Y0091090D02*
X0067120Y0095594D01*
X0064868Y0095594D01*
X0064117Y0094843D01*
X0065618Y0092591D02*
X0064117Y0091090D01*
X0068721Y0091841D02*
X0068721Y0095594D01*
X0071724Y0095594D02*
X0071724Y0091841D01*
X0070973Y0091090D01*
X0069472Y0091090D01*
X0068721Y0091841D01*
X0073325Y0095594D02*
X0076328Y0095594D01*
X0074826Y0095594D02*
X0074826Y0091090D01*
X0089558Y0087840D02*
X0149558Y0087840D01*
X0164558Y0087840D01*
X0169558Y0092840D01*
X0164558Y0097840D01*
X0159558Y0092840D01*
X0149558Y0092840D01*
X0149558Y0135769D01*
X0149554Y0136061D01*
X0149544Y0136352D01*
X0149526Y0136643D01*
X0149502Y0136934D01*
X0149470Y0137224D01*
X0149431Y0137513D01*
X0149386Y0137801D01*
X0149333Y0138088D01*
X0149274Y0138374D01*
X0149207Y0138658D01*
X0149134Y0138940D01*
X0149054Y0139221D01*
X0148967Y0139499D01*
X0148874Y0139775D01*
X0148774Y0140049D01*
X0148667Y0140321D01*
X0148554Y0140590D01*
X0148434Y0140856D01*
X0148308Y0141119D01*
X0148175Y0141379D01*
X0148037Y0141635D01*
X0147892Y0141889D01*
X0147741Y0142138D01*
X0147584Y0142384D01*
X0147421Y0142626D01*
X0147253Y0142864D01*
X0147078Y0143098D01*
X0146898Y0143328D01*
X0146713Y0143553D01*
X0146522Y0143774D01*
X0146326Y0143990D01*
X0146125Y0144201D01*
X0145919Y0144407D01*
X0145708Y0144608D01*
X0145492Y0144804D01*
X0145271Y0144995D01*
X0145046Y0145180D01*
X0144816Y0145360D01*
X0144582Y0145535D01*
X0144344Y0145703D01*
X0144102Y0145866D01*
X0143856Y0146023D01*
X0143607Y0146174D01*
X0143353Y0146319D01*
X0143097Y0146457D01*
X0142837Y0146590D01*
X0142574Y0146716D01*
X0142308Y0146836D01*
X0142039Y0146949D01*
X0141767Y0147056D01*
X0141493Y0147156D01*
X0141217Y0147249D01*
X0140939Y0147336D01*
X0140658Y0147416D01*
X0140376Y0147489D01*
X0140092Y0147556D01*
X0139806Y0147615D01*
X0139519Y0147668D01*
X0139231Y0147713D01*
X0138942Y0147752D01*
X0138652Y0147784D01*
X0138361Y0147808D01*
X0138070Y0147826D01*
X0137779Y0147836D01*
X0137487Y0147840D01*
X0094558Y0147840D01*
X0094558Y0157840D01*
X0099558Y0162840D01*
X0094558Y0167840D01*
X0089558Y0162840D01*
X0089558Y0147840D01*
X0089558Y0087840D01*
X0089558Y0086840D02*
X0089558Y0026840D01*
X0089558Y0011840D01*
X0094558Y0006840D01*
X0099558Y0011840D01*
X0094558Y0016840D01*
X0094558Y0026840D01*
X0137487Y0026840D01*
X0137779Y0026844D01*
X0138070Y0026854D01*
X0138361Y0026872D01*
X0138652Y0026896D01*
X0138942Y0026928D01*
X0139231Y0026967D01*
X0139519Y0027012D01*
X0139806Y0027065D01*
X0140092Y0027124D01*
X0140376Y0027191D01*
X0140658Y0027264D01*
X0140939Y0027344D01*
X0141217Y0027431D01*
X0141493Y0027524D01*
X0141767Y0027624D01*
X0142039Y0027731D01*
X0142308Y0027844D01*
X0142574Y0027964D01*
X0142837Y0028090D01*
X0143097Y0028223D01*
X0143353Y0028361D01*
X0143607Y0028506D01*
X0143856Y0028657D01*
X0144102Y0028814D01*
X0144344Y0028977D01*
X0144582Y0029145D01*
X0144816Y0029320D01*
X0145046Y0029500D01*
X0145271Y0029685D01*
X0145492Y0029876D01*
X0145708Y0030072D01*
X0145919Y0030273D01*
X0146125Y0030479D01*
X0146326Y0030690D01*
X0146522Y0030906D01*
X0146713Y0031127D01*
X0146898Y0031352D01*
X0147078Y0031582D01*
X0147253Y0031816D01*
X0147421Y0032054D01*
X0147584Y0032296D01*
X0147741Y0032542D01*
X0147892Y0032791D01*
X0148037Y0033045D01*
X0148175Y0033301D01*
X0148308Y0033561D01*
X0148434Y0033824D01*
X0148554Y0034090D01*
X0148667Y0034359D01*
X0148774Y0034631D01*
X0148874Y0034905D01*
X0148967Y0035181D01*
X0149054Y0035459D01*
X0149134Y0035740D01*
X0149207Y0036022D01*
X0149274Y0036306D01*
X0149333Y0036592D01*
X0149386Y0036879D01*
X0149431Y0037167D01*
X0149470Y0037456D01*
X0149502Y0037746D01*
X0149526Y0038037D01*
X0149544Y0038328D01*
X0149554Y0038619D01*
X0149558Y0038911D01*
X0149558Y0081840D01*
X0159558Y0081840D01*
X0164558Y0076840D01*
X0169558Y0081840D01*
X0164558Y0086840D01*
X0149558Y0086840D01*
X0089558Y0086840D01*
X0089558Y0026840D02*
X0094558Y0026840D01*
X0088558Y0026840D02*
X0083558Y0026840D01*
X0075468Y0006840D02*
X0075470Y0006989D01*
X0075476Y0007139D01*
X0075486Y0007288D01*
X0075500Y0007437D01*
X0075518Y0007585D01*
X0075540Y0007733D01*
X0075566Y0007880D01*
X0075595Y0008027D01*
X0075629Y0008172D01*
X0075667Y0008317D01*
X0075708Y0008460D01*
X0075753Y0008603D01*
X0075802Y0008744D01*
X0075855Y0008884D01*
X0075912Y0009022D01*
X0075972Y0009159D01*
X0076036Y0009294D01*
X0076103Y0009428D01*
X0076174Y0009559D01*
X0076248Y0009689D01*
X0076326Y0009816D01*
X0076407Y0009942D01*
X0076492Y0010065D01*
X0076580Y0010186D01*
X0076671Y0010304D01*
X0076765Y0010420D01*
X0076862Y0010534D01*
X0076963Y0010645D01*
X0077066Y0010753D01*
X0077172Y0010858D01*
X0077281Y0010961D01*
X0077392Y0011060D01*
X0077506Y0011157D01*
X0077623Y0011250D01*
X0077742Y0011340D01*
X0077864Y0011427D01*
X0077987Y0011511D01*
X0078113Y0011592D01*
X0078241Y0011669D01*
X0078372Y0011742D01*
X0078504Y0011812D01*
X0078637Y0011879D01*
X0078773Y0011942D01*
X0078910Y0012001D01*
X0079049Y0012056D01*
X0079189Y0012108D01*
X0079331Y0012156D01*
X0079473Y0012201D01*
X0079617Y0012241D01*
X0079762Y0012278D01*
X0079908Y0012310D01*
X0080055Y0012339D01*
X0080202Y0012364D01*
X0080350Y0012385D01*
X0080498Y0012402D01*
X0080647Y0012415D01*
X0080797Y0012424D01*
X0080946Y0012429D01*
X0081095Y0012430D01*
X0081245Y0012427D01*
X0081394Y0012420D01*
X0081543Y0012409D01*
X0081692Y0012394D01*
X0081840Y0012375D01*
X0081988Y0012352D01*
X0082135Y0012325D01*
X0082281Y0012295D01*
X0082426Y0012260D01*
X0082571Y0012221D01*
X0082714Y0012179D01*
X0082856Y0012133D01*
X0082997Y0012083D01*
X0083137Y0012029D01*
X0083275Y0011972D01*
X0083411Y0011911D01*
X0083546Y0011846D01*
X0083679Y0011778D01*
X0083810Y0011706D01*
X0083939Y0011630D01*
X0084066Y0011552D01*
X0084191Y0011470D01*
X0084313Y0011384D01*
X0084434Y0011296D01*
X0084552Y0011204D01*
X0084667Y0011109D01*
X0084780Y0011011D01*
X0084890Y0010910D01*
X0084997Y0010806D01*
X0085102Y0010699D01*
X0085204Y0010590D01*
X0085303Y0010478D01*
X0085398Y0010363D01*
X0085491Y0010245D01*
X0085580Y0010126D01*
X0085667Y0010004D01*
X0085750Y0009879D01*
X0085829Y0009753D01*
X0085905Y0009624D01*
X0085978Y0009494D01*
X0086047Y0009361D01*
X0086113Y0009227D01*
X0086175Y0009091D01*
X0086233Y0008953D01*
X0086288Y0008814D01*
X0086339Y0008674D01*
X0086386Y0008532D01*
X0086429Y0008389D01*
X0086469Y0008245D01*
X0086504Y0008099D01*
X0086536Y0007953D01*
X0086564Y0007807D01*
X0086588Y0007659D01*
X0086608Y0007511D01*
X0086624Y0007362D01*
X0086636Y0007213D01*
X0086644Y0007064D01*
X0086648Y0006915D01*
X0086648Y0006765D01*
X0086644Y0006616D01*
X0086636Y0006467D01*
X0086624Y0006318D01*
X0086608Y0006169D01*
X0086588Y0006021D01*
X0086564Y0005873D01*
X0086536Y0005727D01*
X0086504Y0005581D01*
X0086469Y0005435D01*
X0086429Y0005291D01*
X0086386Y0005148D01*
X0086339Y0005006D01*
X0086288Y0004866D01*
X0086233Y0004727D01*
X0086175Y0004589D01*
X0086113Y0004453D01*
X0086047Y0004319D01*
X0085978Y0004186D01*
X0085905Y0004056D01*
X0085829Y0003927D01*
X0085750Y0003801D01*
X0085667Y0003676D01*
X0085580Y0003554D01*
X0085491Y0003435D01*
X0085398Y0003317D01*
X0085303Y0003202D01*
X0085204Y0003090D01*
X0085102Y0002981D01*
X0084997Y0002874D01*
X0084890Y0002770D01*
X0084780Y0002669D01*
X0084667Y0002571D01*
X0084552Y0002476D01*
X0084434Y0002384D01*
X0084313Y0002296D01*
X0084191Y0002210D01*
X0084066Y0002128D01*
X0083939Y0002050D01*
X0083810Y0001974D01*
X0083679Y0001902D01*
X0083546Y0001834D01*
X0083411Y0001769D01*
X0083275Y0001708D01*
X0083137Y0001651D01*
X0082997Y0001597D01*
X0082856Y0001547D01*
X0082714Y0001501D01*
X0082571Y0001459D01*
X0082426Y0001420D01*
X0082281Y0001385D01*
X0082135Y0001355D01*
X0081988Y0001328D01*
X0081840Y0001305D01*
X0081692Y0001286D01*
X0081543Y0001271D01*
X0081394Y0001260D01*
X0081245Y0001253D01*
X0081095Y0001250D01*
X0080946Y0001251D01*
X0080797Y0001256D01*
X0080647Y0001265D01*
X0080498Y0001278D01*
X0080350Y0001295D01*
X0080202Y0001316D01*
X0080055Y0001341D01*
X0079908Y0001370D01*
X0079762Y0001402D01*
X0079617Y0001439D01*
X0079473Y0001479D01*
X0079331Y0001524D01*
X0079189Y0001572D01*
X0079049Y0001624D01*
X0078910Y0001679D01*
X0078773Y0001738D01*
X0078637Y0001801D01*
X0078504Y0001868D01*
X0078372Y0001938D01*
X0078241Y0002011D01*
X0078113Y0002088D01*
X0077987Y0002169D01*
X0077864Y0002253D01*
X0077742Y0002340D01*
X0077623Y0002430D01*
X0077506Y0002523D01*
X0077392Y0002620D01*
X0077281Y0002719D01*
X0077172Y0002822D01*
X0077066Y0002927D01*
X0076963Y0003035D01*
X0076862Y0003146D01*
X0076765Y0003260D01*
X0076671Y0003376D01*
X0076580Y0003494D01*
X0076492Y0003615D01*
X0076407Y0003738D01*
X0076326Y0003864D01*
X0076248Y0003991D01*
X0076174Y0004121D01*
X0076103Y0004252D01*
X0076036Y0004386D01*
X0075972Y0004521D01*
X0075912Y0004658D01*
X0075855Y0004796D01*
X0075802Y0004936D01*
X0075753Y0005077D01*
X0075708Y0005220D01*
X0075667Y0005363D01*
X0075629Y0005508D01*
X0075595Y0005653D01*
X0075566Y0005800D01*
X0075540Y0005947D01*
X0075518Y0006095D01*
X0075500Y0006243D01*
X0075486Y0006392D01*
X0075476Y0006541D01*
X0075470Y0006691D01*
X0075468Y0006840D01*
X0091468Y0006840D02*
X0091470Y0006989D01*
X0091476Y0007139D01*
X0091486Y0007288D01*
X0091500Y0007437D01*
X0091518Y0007585D01*
X0091540Y0007733D01*
X0091566Y0007880D01*
X0091595Y0008027D01*
X0091629Y0008172D01*
X0091667Y0008317D01*
X0091708Y0008460D01*
X0091753Y0008603D01*
X0091802Y0008744D01*
X0091855Y0008884D01*
X0091912Y0009022D01*
X0091972Y0009159D01*
X0092036Y0009294D01*
X0092103Y0009428D01*
X0092174Y0009559D01*
X0092248Y0009689D01*
X0092326Y0009816D01*
X0092407Y0009942D01*
X0092492Y0010065D01*
X0092580Y0010186D01*
X0092671Y0010304D01*
X0092765Y0010420D01*
X0092862Y0010534D01*
X0092963Y0010645D01*
X0093066Y0010753D01*
X0093172Y0010858D01*
X0093281Y0010961D01*
X0093392Y0011060D01*
X0093506Y0011157D01*
X0093623Y0011250D01*
X0093742Y0011340D01*
X0093864Y0011427D01*
X0093987Y0011511D01*
X0094113Y0011592D01*
X0094241Y0011669D01*
X0094372Y0011742D01*
X0094504Y0011812D01*
X0094637Y0011879D01*
X0094773Y0011942D01*
X0094910Y0012001D01*
X0095049Y0012056D01*
X0095189Y0012108D01*
X0095331Y0012156D01*
X0095473Y0012201D01*
X0095617Y0012241D01*
X0095762Y0012278D01*
X0095908Y0012310D01*
X0096055Y0012339D01*
X0096202Y0012364D01*
X0096350Y0012385D01*
X0096498Y0012402D01*
X0096647Y0012415D01*
X0096797Y0012424D01*
X0096946Y0012429D01*
X0097095Y0012430D01*
X0097245Y0012427D01*
X0097394Y0012420D01*
X0097543Y0012409D01*
X0097692Y0012394D01*
X0097840Y0012375D01*
X0097988Y0012352D01*
X0098135Y0012325D01*
X0098281Y0012295D01*
X0098426Y0012260D01*
X0098571Y0012221D01*
X0098714Y0012179D01*
X0098856Y0012133D01*
X0098997Y0012083D01*
X0099137Y0012029D01*
X0099275Y0011972D01*
X0099411Y0011911D01*
X0099546Y0011846D01*
X0099679Y0011778D01*
X0099810Y0011706D01*
X0099939Y0011630D01*
X0100066Y0011552D01*
X0100191Y0011470D01*
X0100313Y0011384D01*
X0100434Y0011296D01*
X0100552Y0011204D01*
X0100667Y0011109D01*
X0100780Y0011011D01*
X0100890Y0010910D01*
X0100997Y0010806D01*
X0101102Y0010699D01*
X0101204Y0010590D01*
X0101303Y0010478D01*
X0101398Y0010363D01*
X0101491Y0010245D01*
X0101580Y0010126D01*
X0101667Y0010004D01*
X0101750Y0009879D01*
X0101829Y0009753D01*
X0101905Y0009624D01*
X0101978Y0009494D01*
X0102047Y0009361D01*
X0102113Y0009227D01*
X0102175Y0009091D01*
X0102233Y0008953D01*
X0102288Y0008814D01*
X0102339Y0008674D01*
X0102386Y0008532D01*
X0102429Y0008389D01*
X0102469Y0008245D01*
X0102504Y0008099D01*
X0102536Y0007953D01*
X0102564Y0007807D01*
X0102588Y0007659D01*
X0102608Y0007511D01*
X0102624Y0007362D01*
X0102636Y0007213D01*
X0102644Y0007064D01*
X0102648Y0006915D01*
X0102648Y0006765D01*
X0102644Y0006616D01*
X0102636Y0006467D01*
X0102624Y0006318D01*
X0102608Y0006169D01*
X0102588Y0006021D01*
X0102564Y0005873D01*
X0102536Y0005727D01*
X0102504Y0005581D01*
X0102469Y0005435D01*
X0102429Y0005291D01*
X0102386Y0005148D01*
X0102339Y0005006D01*
X0102288Y0004866D01*
X0102233Y0004727D01*
X0102175Y0004589D01*
X0102113Y0004453D01*
X0102047Y0004319D01*
X0101978Y0004186D01*
X0101905Y0004056D01*
X0101829Y0003927D01*
X0101750Y0003801D01*
X0101667Y0003676D01*
X0101580Y0003554D01*
X0101491Y0003435D01*
X0101398Y0003317D01*
X0101303Y0003202D01*
X0101204Y0003090D01*
X0101102Y0002981D01*
X0100997Y0002874D01*
X0100890Y0002770D01*
X0100780Y0002669D01*
X0100667Y0002571D01*
X0100552Y0002476D01*
X0100434Y0002384D01*
X0100313Y0002296D01*
X0100191Y0002210D01*
X0100066Y0002128D01*
X0099939Y0002050D01*
X0099810Y0001974D01*
X0099679Y0001902D01*
X0099546Y0001834D01*
X0099411Y0001769D01*
X0099275Y0001708D01*
X0099137Y0001651D01*
X0098997Y0001597D01*
X0098856Y0001547D01*
X0098714Y0001501D01*
X0098571Y0001459D01*
X0098426Y0001420D01*
X0098281Y0001385D01*
X0098135Y0001355D01*
X0097988Y0001328D01*
X0097840Y0001305D01*
X0097692Y0001286D01*
X0097543Y0001271D01*
X0097394Y0001260D01*
X0097245Y0001253D01*
X0097095Y0001250D01*
X0096946Y0001251D01*
X0096797Y0001256D01*
X0096647Y0001265D01*
X0096498Y0001278D01*
X0096350Y0001295D01*
X0096202Y0001316D01*
X0096055Y0001341D01*
X0095908Y0001370D01*
X0095762Y0001402D01*
X0095617Y0001439D01*
X0095473Y0001479D01*
X0095331Y0001524D01*
X0095189Y0001572D01*
X0095049Y0001624D01*
X0094910Y0001679D01*
X0094773Y0001738D01*
X0094637Y0001801D01*
X0094504Y0001868D01*
X0094372Y0001938D01*
X0094241Y0002011D01*
X0094113Y0002088D01*
X0093987Y0002169D01*
X0093864Y0002253D01*
X0093742Y0002340D01*
X0093623Y0002430D01*
X0093506Y0002523D01*
X0093392Y0002620D01*
X0093281Y0002719D01*
X0093172Y0002822D01*
X0093066Y0002927D01*
X0092963Y0003035D01*
X0092862Y0003146D01*
X0092765Y0003260D01*
X0092671Y0003376D01*
X0092580Y0003494D01*
X0092492Y0003615D01*
X0092407Y0003738D01*
X0092326Y0003864D01*
X0092248Y0003991D01*
X0092174Y0004121D01*
X0092103Y0004252D01*
X0092036Y0004386D01*
X0091972Y0004521D01*
X0091912Y0004658D01*
X0091855Y0004796D01*
X0091802Y0004936D01*
X0091753Y0005077D01*
X0091708Y0005220D01*
X0091667Y0005363D01*
X0091629Y0005508D01*
X0091595Y0005653D01*
X0091566Y0005800D01*
X0091540Y0005947D01*
X0091518Y0006095D01*
X0091500Y0006243D01*
X0091486Y0006392D01*
X0091476Y0006541D01*
X0091470Y0006691D01*
X0091468Y0006840D01*
X0149558Y0081840D02*
X0149558Y0086840D01*
X0149558Y0087840D02*
X0149558Y0092840D01*
X0163968Y0095340D02*
X0163970Y0095489D01*
X0163976Y0095639D01*
X0163986Y0095788D01*
X0164000Y0095937D01*
X0164018Y0096085D01*
X0164040Y0096233D01*
X0164066Y0096380D01*
X0164095Y0096527D01*
X0164129Y0096672D01*
X0164167Y0096817D01*
X0164208Y0096960D01*
X0164253Y0097103D01*
X0164302Y0097244D01*
X0164355Y0097384D01*
X0164412Y0097522D01*
X0164472Y0097659D01*
X0164536Y0097794D01*
X0164603Y0097928D01*
X0164674Y0098059D01*
X0164748Y0098189D01*
X0164826Y0098316D01*
X0164907Y0098442D01*
X0164992Y0098565D01*
X0165080Y0098686D01*
X0165171Y0098804D01*
X0165265Y0098920D01*
X0165362Y0099034D01*
X0165463Y0099145D01*
X0165566Y0099253D01*
X0165672Y0099358D01*
X0165781Y0099461D01*
X0165892Y0099560D01*
X0166006Y0099657D01*
X0166123Y0099750D01*
X0166242Y0099840D01*
X0166364Y0099927D01*
X0166487Y0100011D01*
X0166613Y0100092D01*
X0166741Y0100169D01*
X0166872Y0100242D01*
X0167004Y0100312D01*
X0167137Y0100379D01*
X0167273Y0100442D01*
X0167410Y0100501D01*
X0167549Y0100556D01*
X0167689Y0100608D01*
X0167831Y0100656D01*
X0167973Y0100701D01*
X0168117Y0100741D01*
X0168262Y0100778D01*
X0168408Y0100810D01*
X0168555Y0100839D01*
X0168702Y0100864D01*
X0168850Y0100885D01*
X0168998Y0100902D01*
X0169147Y0100915D01*
X0169297Y0100924D01*
X0169446Y0100929D01*
X0169595Y0100930D01*
X0169745Y0100927D01*
X0169894Y0100920D01*
X0170043Y0100909D01*
X0170192Y0100894D01*
X0170340Y0100875D01*
X0170488Y0100852D01*
X0170635Y0100825D01*
X0170781Y0100795D01*
X0170926Y0100760D01*
X0171071Y0100721D01*
X0171214Y0100679D01*
X0171356Y0100633D01*
X0171497Y0100583D01*
X0171637Y0100529D01*
X0171775Y0100472D01*
X0171911Y0100411D01*
X0172046Y0100346D01*
X0172179Y0100278D01*
X0172310Y0100206D01*
X0172439Y0100130D01*
X0172566Y0100052D01*
X0172691Y0099970D01*
X0172813Y0099884D01*
X0172934Y0099796D01*
X0173052Y0099704D01*
X0173167Y0099609D01*
X0173280Y0099511D01*
X0173390Y0099410D01*
X0173497Y0099306D01*
X0173602Y0099199D01*
X0173704Y0099090D01*
X0173803Y0098978D01*
X0173898Y0098863D01*
X0173991Y0098745D01*
X0174080Y0098626D01*
X0174167Y0098504D01*
X0174250Y0098379D01*
X0174329Y0098253D01*
X0174405Y0098124D01*
X0174478Y0097994D01*
X0174547Y0097861D01*
X0174613Y0097727D01*
X0174675Y0097591D01*
X0174733Y0097453D01*
X0174788Y0097314D01*
X0174839Y0097174D01*
X0174886Y0097032D01*
X0174929Y0096889D01*
X0174969Y0096745D01*
X0175004Y0096599D01*
X0175036Y0096453D01*
X0175064Y0096307D01*
X0175088Y0096159D01*
X0175108Y0096011D01*
X0175124Y0095862D01*
X0175136Y0095713D01*
X0175144Y0095564D01*
X0175148Y0095415D01*
X0175148Y0095265D01*
X0175144Y0095116D01*
X0175136Y0094967D01*
X0175124Y0094818D01*
X0175108Y0094669D01*
X0175088Y0094521D01*
X0175064Y0094373D01*
X0175036Y0094227D01*
X0175004Y0094081D01*
X0174969Y0093935D01*
X0174929Y0093791D01*
X0174886Y0093648D01*
X0174839Y0093506D01*
X0174788Y0093366D01*
X0174733Y0093227D01*
X0174675Y0093089D01*
X0174613Y0092953D01*
X0174547Y0092819D01*
X0174478Y0092686D01*
X0174405Y0092556D01*
X0174329Y0092427D01*
X0174250Y0092301D01*
X0174167Y0092176D01*
X0174080Y0092054D01*
X0173991Y0091935D01*
X0173898Y0091817D01*
X0173803Y0091702D01*
X0173704Y0091590D01*
X0173602Y0091481D01*
X0173497Y0091374D01*
X0173390Y0091270D01*
X0173280Y0091169D01*
X0173167Y0091071D01*
X0173052Y0090976D01*
X0172934Y0090884D01*
X0172813Y0090796D01*
X0172691Y0090710D01*
X0172566Y0090628D01*
X0172439Y0090550D01*
X0172310Y0090474D01*
X0172179Y0090402D01*
X0172046Y0090334D01*
X0171911Y0090269D01*
X0171775Y0090208D01*
X0171637Y0090151D01*
X0171497Y0090097D01*
X0171356Y0090047D01*
X0171214Y0090001D01*
X0171071Y0089959D01*
X0170926Y0089920D01*
X0170781Y0089885D01*
X0170635Y0089855D01*
X0170488Y0089828D01*
X0170340Y0089805D01*
X0170192Y0089786D01*
X0170043Y0089771D01*
X0169894Y0089760D01*
X0169745Y0089753D01*
X0169595Y0089750D01*
X0169446Y0089751D01*
X0169297Y0089756D01*
X0169147Y0089765D01*
X0168998Y0089778D01*
X0168850Y0089795D01*
X0168702Y0089816D01*
X0168555Y0089841D01*
X0168408Y0089870D01*
X0168262Y0089902D01*
X0168117Y0089939D01*
X0167973Y0089979D01*
X0167831Y0090024D01*
X0167689Y0090072D01*
X0167549Y0090124D01*
X0167410Y0090179D01*
X0167273Y0090238D01*
X0167137Y0090301D01*
X0167004Y0090368D01*
X0166872Y0090438D01*
X0166741Y0090511D01*
X0166613Y0090588D01*
X0166487Y0090669D01*
X0166364Y0090753D01*
X0166242Y0090840D01*
X0166123Y0090930D01*
X0166006Y0091023D01*
X0165892Y0091120D01*
X0165781Y0091219D01*
X0165672Y0091322D01*
X0165566Y0091427D01*
X0165463Y0091535D01*
X0165362Y0091646D01*
X0165265Y0091760D01*
X0165171Y0091876D01*
X0165080Y0091994D01*
X0164992Y0092115D01*
X0164907Y0092238D01*
X0164826Y0092364D01*
X0164748Y0092491D01*
X0164674Y0092621D01*
X0164603Y0092752D01*
X0164536Y0092886D01*
X0164472Y0093021D01*
X0164412Y0093158D01*
X0164355Y0093296D01*
X0164302Y0093436D01*
X0164253Y0093577D01*
X0164208Y0093720D01*
X0164167Y0093863D01*
X0164129Y0094008D01*
X0164095Y0094153D01*
X0164066Y0094300D01*
X0164040Y0094447D01*
X0164018Y0094595D01*
X0164000Y0094743D01*
X0163986Y0094892D01*
X0163976Y0095041D01*
X0163970Y0095191D01*
X0163968Y0095340D01*
X0163968Y0079340D02*
X0163970Y0079489D01*
X0163976Y0079639D01*
X0163986Y0079788D01*
X0164000Y0079937D01*
X0164018Y0080085D01*
X0164040Y0080233D01*
X0164066Y0080380D01*
X0164095Y0080527D01*
X0164129Y0080672D01*
X0164167Y0080817D01*
X0164208Y0080960D01*
X0164253Y0081103D01*
X0164302Y0081244D01*
X0164355Y0081384D01*
X0164412Y0081522D01*
X0164472Y0081659D01*
X0164536Y0081794D01*
X0164603Y0081928D01*
X0164674Y0082059D01*
X0164748Y0082189D01*
X0164826Y0082316D01*
X0164907Y0082442D01*
X0164992Y0082565D01*
X0165080Y0082686D01*
X0165171Y0082804D01*
X0165265Y0082920D01*
X0165362Y0083034D01*
X0165463Y0083145D01*
X0165566Y0083253D01*
X0165672Y0083358D01*
X0165781Y0083461D01*
X0165892Y0083560D01*
X0166006Y0083657D01*
X0166123Y0083750D01*
X0166242Y0083840D01*
X0166364Y0083927D01*
X0166487Y0084011D01*
X0166613Y0084092D01*
X0166741Y0084169D01*
X0166872Y0084242D01*
X0167004Y0084312D01*
X0167137Y0084379D01*
X0167273Y0084442D01*
X0167410Y0084501D01*
X0167549Y0084556D01*
X0167689Y0084608D01*
X0167831Y0084656D01*
X0167973Y0084701D01*
X0168117Y0084741D01*
X0168262Y0084778D01*
X0168408Y0084810D01*
X0168555Y0084839D01*
X0168702Y0084864D01*
X0168850Y0084885D01*
X0168998Y0084902D01*
X0169147Y0084915D01*
X0169297Y0084924D01*
X0169446Y0084929D01*
X0169595Y0084930D01*
X0169745Y0084927D01*
X0169894Y0084920D01*
X0170043Y0084909D01*
X0170192Y0084894D01*
X0170340Y0084875D01*
X0170488Y0084852D01*
X0170635Y0084825D01*
X0170781Y0084795D01*
X0170926Y0084760D01*
X0171071Y0084721D01*
X0171214Y0084679D01*
X0171356Y0084633D01*
X0171497Y0084583D01*
X0171637Y0084529D01*
X0171775Y0084472D01*
X0171911Y0084411D01*
X0172046Y0084346D01*
X0172179Y0084278D01*
X0172310Y0084206D01*
X0172439Y0084130D01*
X0172566Y0084052D01*
X0172691Y0083970D01*
X0172813Y0083884D01*
X0172934Y0083796D01*
X0173052Y0083704D01*
X0173167Y0083609D01*
X0173280Y0083511D01*
X0173390Y0083410D01*
X0173497Y0083306D01*
X0173602Y0083199D01*
X0173704Y0083090D01*
X0173803Y0082978D01*
X0173898Y0082863D01*
X0173991Y0082745D01*
X0174080Y0082626D01*
X0174167Y0082504D01*
X0174250Y0082379D01*
X0174329Y0082253D01*
X0174405Y0082124D01*
X0174478Y0081994D01*
X0174547Y0081861D01*
X0174613Y0081727D01*
X0174675Y0081591D01*
X0174733Y0081453D01*
X0174788Y0081314D01*
X0174839Y0081174D01*
X0174886Y0081032D01*
X0174929Y0080889D01*
X0174969Y0080745D01*
X0175004Y0080599D01*
X0175036Y0080453D01*
X0175064Y0080307D01*
X0175088Y0080159D01*
X0175108Y0080011D01*
X0175124Y0079862D01*
X0175136Y0079713D01*
X0175144Y0079564D01*
X0175148Y0079415D01*
X0175148Y0079265D01*
X0175144Y0079116D01*
X0175136Y0078967D01*
X0175124Y0078818D01*
X0175108Y0078669D01*
X0175088Y0078521D01*
X0175064Y0078373D01*
X0175036Y0078227D01*
X0175004Y0078081D01*
X0174969Y0077935D01*
X0174929Y0077791D01*
X0174886Y0077648D01*
X0174839Y0077506D01*
X0174788Y0077366D01*
X0174733Y0077227D01*
X0174675Y0077089D01*
X0174613Y0076953D01*
X0174547Y0076819D01*
X0174478Y0076686D01*
X0174405Y0076556D01*
X0174329Y0076427D01*
X0174250Y0076301D01*
X0174167Y0076176D01*
X0174080Y0076054D01*
X0173991Y0075935D01*
X0173898Y0075817D01*
X0173803Y0075702D01*
X0173704Y0075590D01*
X0173602Y0075481D01*
X0173497Y0075374D01*
X0173390Y0075270D01*
X0173280Y0075169D01*
X0173167Y0075071D01*
X0173052Y0074976D01*
X0172934Y0074884D01*
X0172813Y0074796D01*
X0172691Y0074710D01*
X0172566Y0074628D01*
X0172439Y0074550D01*
X0172310Y0074474D01*
X0172179Y0074402D01*
X0172046Y0074334D01*
X0171911Y0074269D01*
X0171775Y0074208D01*
X0171637Y0074151D01*
X0171497Y0074097D01*
X0171356Y0074047D01*
X0171214Y0074001D01*
X0171071Y0073959D01*
X0170926Y0073920D01*
X0170781Y0073885D01*
X0170635Y0073855D01*
X0170488Y0073828D01*
X0170340Y0073805D01*
X0170192Y0073786D01*
X0170043Y0073771D01*
X0169894Y0073760D01*
X0169745Y0073753D01*
X0169595Y0073750D01*
X0169446Y0073751D01*
X0169297Y0073756D01*
X0169147Y0073765D01*
X0168998Y0073778D01*
X0168850Y0073795D01*
X0168702Y0073816D01*
X0168555Y0073841D01*
X0168408Y0073870D01*
X0168262Y0073902D01*
X0168117Y0073939D01*
X0167973Y0073979D01*
X0167831Y0074024D01*
X0167689Y0074072D01*
X0167549Y0074124D01*
X0167410Y0074179D01*
X0167273Y0074238D01*
X0167137Y0074301D01*
X0167004Y0074368D01*
X0166872Y0074438D01*
X0166741Y0074511D01*
X0166613Y0074588D01*
X0166487Y0074669D01*
X0166364Y0074753D01*
X0166242Y0074840D01*
X0166123Y0074930D01*
X0166006Y0075023D01*
X0165892Y0075120D01*
X0165781Y0075219D01*
X0165672Y0075322D01*
X0165566Y0075427D01*
X0165463Y0075535D01*
X0165362Y0075646D01*
X0165265Y0075760D01*
X0165171Y0075876D01*
X0165080Y0075994D01*
X0164992Y0076115D01*
X0164907Y0076238D01*
X0164826Y0076364D01*
X0164748Y0076491D01*
X0164674Y0076621D01*
X0164603Y0076752D01*
X0164536Y0076886D01*
X0164472Y0077021D01*
X0164412Y0077158D01*
X0164355Y0077296D01*
X0164302Y0077436D01*
X0164253Y0077577D01*
X0164208Y0077720D01*
X0164167Y0077863D01*
X0164129Y0078008D01*
X0164095Y0078153D01*
X0164066Y0078300D01*
X0164040Y0078447D01*
X0164018Y0078595D01*
X0164000Y0078743D01*
X0163986Y0078892D01*
X0163976Y0079041D01*
X0163970Y0079191D01*
X0163968Y0079340D01*
X0094558Y0147840D02*
X0089558Y0147840D01*
X0088558Y0147840D02*
X0083558Y0147840D01*
X0075468Y0167840D02*
X0075470Y0167989D01*
X0075476Y0168139D01*
X0075486Y0168288D01*
X0075500Y0168437D01*
X0075518Y0168585D01*
X0075540Y0168733D01*
X0075566Y0168880D01*
X0075595Y0169027D01*
X0075629Y0169172D01*
X0075667Y0169317D01*
X0075708Y0169460D01*
X0075753Y0169603D01*
X0075802Y0169744D01*
X0075855Y0169884D01*
X0075912Y0170022D01*
X0075972Y0170159D01*
X0076036Y0170294D01*
X0076103Y0170428D01*
X0076174Y0170559D01*
X0076248Y0170689D01*
X0076326Y0170816D01*
X0076407Y0170942D01*
X0076492Y0171065D01*
X0076580Y0171186D01*
X0076671Y0171304D01*
X0076765Y0171420D01*
X0076862Y0171534D01*
X0076963Y0171645D01*
X0077066Y0171753D01*
X0077172Y0171858D01*
X0077281Y0171961D01*
X0077392Y0172060D01*
X0077506Y0172157D01*
X0077623Y0172250D01*
X0077742Y0172340D01*
X0077864Y0172427D01*
X0077987Y0172511D01*
X0078113Y0172592D01*
X0078241Y0172669D01*
X0078372Y0172742D01*
X0078504Y0172812D01*
X0078637Y0172879D01*
X0078773Y0172942D01*
X0078910Y0173001D01*
X0079049Y0173056D01*
X0079189Y0173108D01*
X0079331Y0173156D01*
X0079473Y0173201D01*
X0079617Y0173241D01*
X0079762Y0173278D01*
X0079908Y0173310D01*
X0080055Y0173339D01*
X0080202Y0173364D01*
X0080350Y0173385D01*
X0080498Y0173402D01*
X0080647Y0173415D01*
X0080797Y0173424D01*
X0080946Y0173429D01*
X0081095Y0173430D01*
X0081245Y0173427D01*
X0081394Y0173420D01*
X0081543Y0173409D01*
X0081692Y0173394D01*
X0081840Y0173375D01*
X0081988Y0173352D01*
X0082135Y0173325D01*
X0082281Y0173295D01*
X0082426Y0173260D01*
X0082571Y0173221D01*
X0082714Y0173179D01*
X0082856Y0173133D01*
X0082997Y0173083D01*
X0083137Y0173029D01*
X0083275Y0172972D01*
X0083411Y0172911D01*
X0083546Y0172846D01*
X0083679Y0172778D01*
X0083810Y0172706D01*
X0083939Y0172630D01*
X0084066Y0172552D01*
X0084191Y0172470D01*
X0084313Y0172384D01*
X0084434Y0172296D01*
X0084552Y0172204D01*
X0084667Y0172109D01*
X0084780Y0172011D01*
X0084890Y0171910D01*
X0084997Y0171806D01*
X0085102Y0171699D01*
X0085204Y0171590D01*
X0085303Y0171478D01*
X0085398Y0171363D01*
X0085491Y0171245D01*
X0085580Y0171126D01*
X0085667Y0171004D01*
X0085750Y0170879D01*
X0085829Y0170753D01*
X0085905Y0170624D01*
X0085978Y0170494D01*
X0086047Y0170361D01*
X0086113Y0170227D01*
X0086175Y0170091D01*
X0086233Y0169953D01*
X0086288Y0169814D01*
X0086339Y0169674D01*
X0086386Y0169532D01*
X0086429Y0169389D01*
X0086469Y0169245D01*
X0086504Y0169099D01*
X0086536Y0168953D01*
X0086564Y0168807D01*
X0086588Y0168659D01*
X0086608Y0168511D01*
X0086624Y0168362D01*
X0086636Y0168213D01*
X0086644Y0168064D01*
X0086648Y0167915D01*
X0086648Y0167765D01*
X0086644Y0167616D01*
X0086636Y0167467D01*
X0086624Y0167318D01*
X0086608Y0167169D01*
X0086588Y0167021D01*
X0086564Y0166873D01*
X0086536Y0166727D01*
X0086504Y0166581D01*
X0086469Y0166435D01*
X0086429Y0166291D01*
X0086386Y0166148D01*
X0086339Y0166006D01*
X0086288Y0165866D01*
X0086233Y0165727D01*
X0086175Y0165589D01*
X0086113Y0165453D01*
X0086047Y0165319D01*
X0085978Y0165186D01*
X0085905Y0165056D01*
X0085829Y0164927D01*
X0085750Y0164801D01*
X0085667Y0164676D01*
X0085580Y0164554D01*
X0085491Y0164435D01*
X0085398Y0164317D01*
X0085303Y0164202D01*
X0085204Y0164090D01*
X0085102Y0163981D01*
X0084997Y0163874D01*
X0084890Y0163770D01*
X0084780Y0163669D01*
X0084667Y0163571D01*
X0084552Y0163476D01*
X0084434Y0163384D01*
X0084313Y0163296D01*
X0084191Y0163210D01*
X0084066Y0163128D01*
X0083939Y0163050D01*
X0083810Y0162974D01*
X0083679Y0162902D01*
X0083546Y0162834D01*
X0083411Y0162769D01*
X0083275Y0162708D01*
X0083137Y0162651D01*
X0082997Y0162597D01*
X0082856Y0162547D01*
X0082714Y0162501D01*
X0082571Y0162459D01*
X0082426Y0162420D01*
X0082281Y0162385D01*
X0082135Y0162355D01*
X0081988Y0162328D01*
X0081840Y0162305D01*
X0081692Y0162286D01*
X0081543Y0162271D01*
X0081394Y0162260D01*
X0081245Y0162253D01*
X0081095Y0162250D01*
X0080946Y0162251D01*
X0080797Y0162256D01*
X0080647Y0162265D01*
X0080498Y0162278D01*
X0080350Y0162295D01*
X0080202Y0162316D01*
X0080055Y0162341D01*
X0079908Y0162370D01*
X0079762Y0162402D01*
X0079617Y0162439D01*
X0079473Y0162479D01*
X0079331Y0162524D01*
X0079189Y0162572D01*
X0079049Y0162624D01*
X0078910Y0162679D01*
X0078773Y0162738D01*
X0078637Y0162801D01*
X0078504Y0162868D01*
X0078372Y0162938D01*
X0078241Y0163011D01*
X0078113Y0163088D01*
X0077987Y0163169D01*
X0077864Y0163253D01*
X0077742Y0163340D01*
X0077623Y0163430D01*
X0077506Y0163523D01*
X0077392Y0163620D01*
X0077281Y0163719D01*
X0077172Y0163822D01*
X0077066Y0163927D01*
X0076963Y0164035D01*
X0076862Y0164146D01*
X0076765Y0164260D01*
X0076671Y0164376D01*
X0076580Y0164494D01*
X0076492Y0164615D01*
X0076407Y0164738D01*
X0076326Y0164864D01*
X0076248Y0164991D01*
X0076174Y0165121D01*
X0076103Y0165252D01*
X0076036Y0165386D01*
X0075972Y0165521D01*
X0075912Y0165658D01*
X0075855Y0165796D01*
X0075802Y0165936D01*
X0075753Y0166077D01*
X0075708Y0166220D01*
X0075667Y0166363D01*
X0075629Y0166508D01*
X0075595Y0166653D01*
X0075566Y0166800D01*
X0075540Y0166947D01*
X0075518Y0167095D01*
X0075500Y0167243D01*
X0075486Y0167392D01*
X0075476Y0167541D01*
X0075470Y0167691D01*
X0075468Y0167840D01*
X0091468Y0167840D02*
X0091470Y0167989D01*
X0091476Y0168139D01*
X0091486Y0168288D01*
X0091500Y0168437D01*
X0091518Y0168585D01*
X0091540Y0168733D01*
X0091566Y0168880D01*
X0091595Y0169027D01*
X0091629Y0169172D01*
X0091667Y0169317D01*
X0091708Y0169460D01*
X0091753Y0169603D01*
X0091802Y0169744D01*
X0091855Y0169884D01*
X0091912Y0170022D01*
X0091972Y0170159D01*
X0092036Y0170294D01*
X0092103Y0170428D01*
X0092174Y0170559D01*
X0092248Y0170689D01*
X0092326Y0170816D01*
X0092407Y0170942D01*
X0092492Y0171065D01*
X0092580Y0171186D01*
X0092671Y0171304D01*
X0092765Y0171420D01*
X0092862Y0171534D01*
X0092963Y0171645D01*
X0093066Y0171753D01*
X0093172Y0171858D01*
X0093281Y0171961D01*
X0093392Y0172060D01*
X0093506Y0172157D01*
X0093623Y0172250D01*
X0093742Y0172340D01*
X0093864Y0172427D01*
X0093987Y0172511D01*
X0094113Y0172592D01*
X0094241Y0172669D01*
X0094372Y0172742D01*
X0094504Y0172812D01*
X0094637Y0172879D01*
X0094773Y0172942D01*
X0094910Y0173001D01*
X0095049Y0173056D01*
X0095189Y0173108D01*
X0095331Y0173156D01*
X0095473Y0173201D01*
X0095617Y0173241D01*
X0095762Y0173278D01*
X0095908Y0173310D01*
X0096055Y0173339D01*
X0096202Y0173364D01*
X0096350Y0173385D01*
X0096498Y0173402D01*
X0096647Y0173415D01*
X0096797Y0173424D01*
X0096946Y0173429D01*
X0097095Y0173430D01*
X0097245Y0173427D01*
X0097394Y0173420D01*
X0097543Y0173409D01*
X0097692Y0173394D01*
X0097840Y0173375D01*
X0097988Y0173352D01*
X0098135Y0173325D01*
X0098281Y0173295D01*
X0098426Y0173260D01*
X0098571Y0173221D01*
X0098714Y0173179D01*
X0098856Y0173133D01*
X0098997Y0173083D01*
X0099137Y0173029D01*
X0099275Y0172972D01*
X0099411Y0172911D01*
X0099546Y0172846D01*
X0099679Y0172778D01*
X0099810Y0172706D01*
X0099939Y0172630D01*
X0100066Y0172552D01*
X0100191Y0172470D01*
X0100313Y0172384D01*
X0100434Y0172296D01*
X0100552Y0172204D01*
X0100667Y0172109D01*
X0100780Y0172011D01*
X0100890Y0171910D01*
X0100997Y0171806D01*
X0101102Y0171699D01*
X0101204Y0171590D01*
X0101303Y0171478D01*
X0101398Y0171363D01*
X0101491Y0171245D01*
X0101580Y0171126D01*
X0101667Y0171004D01*
X0101750Y0170879D01*
X0101829Y0170753D01*
X0101905Y0170624D01*
X0101978Y0170494D01*
X0102047Y0170361D01*
X0102113Y0170227D01*
X0102175Y0170091D01*
X0102233Y0169953D01*
X0102288Y0169814D01*
X0102339Y0169674D01*
X0102386Y0169532D01*
X0102429Y0169389D01*
X0102469Y0169245D01*
X0102504Y0169099D01*
X0102536Y0168953D01*
X0102564Y0168807D01*
X0102588Y0168659D01*
X0102608Y0168511D01*
X0102624Y0168362D01*
X0102636Y0168213D01*
X0102644Y0168064D01*
X0102648Y0167915D01*
X0102648Y0167765D01*
X0102644Y0167616D01*
X0102636Y0167467D01*
X0102624Y0167318D01*
X0102608Y0167169D01*
X0102588Y0167021D01*
X0102564Y0166873D01*
X0102536Y0166727D01*
X0102504Y0166581D01*
X0102469Y0166435D01*
X0102429Y0166291D01*
X0102386Y0166148D01*
X0102339Y0166006D01*
X0102288Y0165866D01*
X0102233Y0165727D01*
X0102175Y0165589D01*
X0102113Y0165453D01*
X0102047Y0165319D01*
X0101978Y0165186D01*
X0101905Y0165056D01*
X0101829Y0164927D01*
X0101750Y0164801D01*
X0101667Y0164676D01*
X0101580Y0164554D01*
X0101491Y0164435D01*
X0101398Y0164317D01*
X0101303Y0164202D01*
X0101204Y0164090D01*
X0101102Y0163981D01*
X0100997Y0163874D01*
X0100890Y0163770D01*
X0100780Y0163669D01*
X0100667Y0163571D01*
X0100552Y0163476D01*
X0100434Y0163384D01*
X0100313Y0163296D01*
X0100191Y0163210D01*
X0100066Y0163128D01*
X0099939Y0163050D01*
X0099810Y0162974D01*
X0099679Y0162902D01*
X0099546Y0162834D01*
X0099411Y0162769D01*
X0099275Y0162708D01*
X0099137Y0162651D01*
X0098997Y0162597D01*
X0098856Y0162547D01*
X0098714Y0162501D01*
X0098571Y0162459D01*
X0098426Y0162420D01*
X0098281Y0162385D01*
X0098135Y0162355D01*
X0097988Y0162328D01*
X0097840Y0162305D01*
X0097692Y0162286D01*
X0097543Y0162271D01*
X0097394Y0162260D01*
X0097245Y0162253D01*
X0097095Y0162250D01*
X0096946Y0162251D01*
X0096797Y0162256D01*
X0096647Y0162265D01*
X0096498Y0162278D01*
X0096350Y0162295D01*
X0096202Y0162316D01*
X0096055Y0162341D01*
X0095908Y0162370D01*
X0095762Y0162402D01*
X0095617Y0162439D01*
X0095473Y0162479D01*
X0095331Y0162524D01*
X0095189Y0162572D01*
X0095049Y0162624D01*
X0094910Y0162679D01*
X0094773Y0162738D01*
X0094637Y0162801D01*
X0094504Y0162868D01*
X0094372Y0162938D01*
X0094241Y0163011D01*
X0094113Y0163088D01*
X0093987Y0163169D01*
X0093864Y0163253D01*
X0093742Y0163340D01*
X0093623Y0163430D01*
X0093506Y0163523D01*
X0093392Y0163620D01*
X0093281Y0163719D01*
X0093172Y0163822D01*
X0093066Y0163927D01*
X0092963Y0164035D01*
X0092862Y0164146D01*
X0092765Y0164260D01*
X0092671Y0164376D01*
X0092580Y0164494D01*
X0092492Y0164615D01*
X0092407Y0164738D01*
X0092326Y0164864D01*
X0092248Y0164991D01*
X0092174Y0165121D01*
X0092103Y0165252D01*
X0092036Y0165386D01*
X0091972Y0165521D01*
X0091912Y0165658D01*
X0091855Y0165796D01*
X0091802Y0165936D01*
X0091753Y0166077D01*
X0091708Y0166220D01*
X0091667Y0166363D01*
X0091629Y0166508D01*
X0091595Y0166653D01*
X0091566Y0166800D01*
X0091540Y0166947D01*
X0091518Y0167095D01*
X0091500Y0167243D01*
X0091486Y0167392D01*
X0091476Y0167541D01*
X0091470Y0167691D01*
X0091468Y0167840D01*
X0002968Y0095340D02*
X0002970Y0095489D01*
X0002976Y0095639D01*
X0002986Y0095788D01*
X0003000Y0095937D01*
X0003018Y0096085D01*
X0003040Y0096233D01*
X0003066Y0096380D01*
X0003095Y0096527D01*
X0003129Y0096672D01*
X0003167Y0096817D01*
X0003208Y0096960D01*
X0003253Y0097103D01*
X0003302Y0097244D01*
X0003355Y0097384D01*
X0003412Y0097522D01*
X0003472Y0097659D01*
X0003536Y0097794D01*
X0003603Y0097928D01*
X0003674Y0098059D01*
X0003748Y0098189D01*
X0003826Y0098316D01*
X0003907Y0098442D01*
X0003992Y0098565D01*
X0004080Y0098686D01*
X0004171Y0098804D01*
X0004265Y0098920D01*
X0004362Y0099034D01*
X0004463Y0099145D01*
X0004566Y0099253D01*
X0004672Y0099358D01*
X0004781Y0099461D01*
X0004892Y0099560D01*
X0005006Y0099657D01*
X0005123Y0099750D01*
X0005242Y0099840D01*
X0005364Y0099927D01*
X0005487Y0100011D01*
X0005613Y0100092D01*
X0005741Y0100169D01*
X0005872Y0100242D01*
X0006004Y0100312D01*
X0006137Y0100379D01*
X0006273Y0100442D01*
X0006410Y0100501D01*
X0006549Y0100556D01*
X0006689Y0100608D01*
X0006831Y0100656D01*
X0006973Y0100701D01*
X0007117Y0100741D01*
X0007262Y0100778D01*
X0007408Y0100810D01*
X0007555Y0100839D01*
X0007702Y0100864D01*
X0007850Y0100885D01*
X0007998Y0100902D01*
X0008147Y0100915D01*
X0008297Y0100924D01*
X0008446Y0100929D01*
X0008595Y0100930D01*
X0008745Y0100927D01*
X0008894Y0100920D01*
X0009043Y0100909D01*
X0009192Y0100894D01*
X0009340Y0100875D01*
X0009488Y0100852D01*
X0009635Y0100825D01*
X0009781Y0100795D01*
X0009926Y0100760D01*
X0010071Y0100721D01*
X0010214Y0100679D01*
X0010356Y0100633D01*
X0010497Y0100583D01*
X0010637Y0100529D01*
X0010775Y0100472D01*
X0010911Y0100411D01*
X0011046Y0100346D01*
X0011179Y0100278D01*
X0011310Y0100206D01*
X0011439Y0100130D01*
X0011566Y0100052D01*
X0011691Y0099970D01*
X0011813Y0099884D01*
X0011934Y0099796D01*
X0012052Y0099704D01*
X0012167Y0099609D01*
X0012280Y0099511D01*
X0012390Y0099410D01*
X0012497Y0099306D01*
X0012602Y0099199D01*
X0012704Y0099090D01*
X0012803Y0098978D01*
X0012898Y0098863D01*
X0012991Y0098745D01*
X0013080Y0098626D01*
X0013167Y0098504D01*
X0013250Y0098379D01*
X0013329Y0098253D01*
X0013405Y0098124D01*
X0013478Y0097994D01*
X0013547Y0097861D01*
X0013613Y0097727D01*
X0013675Y0097591D01*
X0013733Y0097453D01*
X0013788Y0097314D01*
X0013839Y0097174D01*
X0013886Y0097032D01*
X0013929Y0096889D01*
X0013969Y0096745D01*
X0014004Y0096599D01*
X0014036Y0096453D01*
X0014064Y0096307D01*
X0014088Y0096159D01*
X0014108Y0096011D01*
X0014124Y0095862D01*
X0014136Y0095713D01*
X0014144Y0095564D01*
X0014148Y0095415D01*
X0014148Y0095265D01*
X0014144Y0095116D01*
X0014136Y0094967D01*
X0014124Y0094818D01*
X0014108Y0094669D01*
X0014088Y0094521D01*
X0014064Y0094373D01*
X0014036Y0094227D01*
X0014004Y0094081D01*
X0013969Y0093935D01*
X0013929Y0093791D01*
X0013886Y0093648D01*
X0013839Y0093506D01*
X0013788Y0093366D01*
X0013733Y0093227D01*
X0013675Y0093089D01*
X0013613Y0092953D01*
X0013547Y0092819D01*
X0013478Y0092686D01*
X0013405Y0092556D01*
X0013329Y0092427D01*
X0013250Y0092301D01*
X0013167Y0092176D01*
X0013080Y0092054D01*
X0012991Y0091935D01*
X0012898Y0091817D01*
X0012803Y0091702D01*
X0012704Y0091590D01*
X0012602Y0091481D01*
X0012497Y0091374D01*
X0012390Y0091270D01*
X0012280Y0091169D01*
X0012167Y0091071D01*
X0012052Y0090976D01*
X0011934Y0090884D01*
X0011813Y0090796D01*
X0011691Y0090710D01*
X0011566Y0090628D01*
X0011439Y0090550D01*
X0011310Y0090474D01*
X0011179Y0090402D01*
X0011046Y0090334D01*
X0010911Y0090269D01*
X0010775Y0090208D01*
X0010637Y0090151D01*
X0010497Y0090097D01*
X0010356Y0090047D01*
X0010214Y0090001D01*
X0010071Y0089959D01*
X0009926Y0089920D01*
X0009781Y0089885D01*
X0009635Y0089855D01*
X0009488Y0089828D01*
X0009340Y0089805D01*
X0009192Y0089786D01*
X0009043Y0089771D01*
X0008894Y0089760D01*
X0008745Y0089753D01*
X0008595Y0089750D01*
X0008446Y0089751D01*
X0008297Y0089756D01*
X0008147Y0089765D01*
X0007998Y0089778D01*
X0007850Y0089795D01*
X0007702Y0089816D01*
X0007555Y0089841D01*
X0007408Y0089870D01*
X0007262Y0089902D01*
X0007117Y0089939D01*
X0006973Y0089979D01*
X0006831Y0090024D01*
X0006689Y0090072D01*
X0006549Y0090124D01*
X0006410Y0090179D01*
X0006273Y0090238D01*
X0006137Y0090301D01*
X0006004Y0090368D01*
X0005872Y0090438D01*
X0005741Y0090511D01*
X0005613Y0090588D01*
X0005487Y0090669D01*
X0005364Y0090753D01*
X0005242Y0090840D01*
X0005123Y0090930D01*
X0005006Y0091023D01*
X0004892Y0091120D01*
X0004781Y0091219D01*
X0004672Y0091322D01*
X0004566Y0091427D01*
X0004463Y0091535D01*
X0004362Y0091646D01*
X0004265Y0091760D01*
X0004171Y0091876D01*
X0004080Y0091994D01*
X0003992Y0092115D01*
X0003907Y0092238D01*
X0003826Y0092364D01*
X0003748Y0092491D01*
X0003674Y0092621D01*
X0003603Y0092752D01*
X0003536Y0092886D01*
X0003472Y0093021D01*
X0003412Y0093158D01*
X0003355Y0093296D01*
X0003302Y0093436D01*
X0003253Y0093577D01*
X0003208Y0093720D01*
X0003167Y0093863D01*
X0003129Y0094008D01*
X0003095Y0094153D01*
X0003066Y0094300D01*
X0003040Y0094447D01*
X0003018Y0094595D01*
X0003000Y0094743D01*
X0002986Y0094892D01*
X0002976Y0095041D01*
X0002970Y0095191D01*
X0002968Y0095340D01*
X0002968Y0079340D02*
X0002970Y0079489D01*
X0002976Y0079639D01*
X0002986Y0079788D01*
X0003000Y0079937D01*
X0003018Y0080085D01*
X0003040Y0080233D01*
X0003066Y0080380D01*
X0003095Y0080527D01*
X0003129Y0080672D01*
X0003167Y0080817D01*
X0003208Y0080960D01*
X0003253Y0081103D01*
X0003302Y0081244D01*
X0003355Y0081384D01*
X0003412Y0081522D01*
X0003472Y0081659D01*
X0003536Y0081794D01*
X0003603Y0081928D01*
X0003674Y0082059D01*
X0003748Y0082189D01*
X0003826Y0082316D01*
X0003907Y0082442D01*
X0003992Y0082565D01*
X0004080Y0082686D01*
X0004171Y0082804D01*
X0004265Y0082920D01*
X0004362Y0083034D01*
X0004463Y0083145D01*
X0004566Y0083253D01*
X0004672Y0083358D01*
X0004781Y0083461D01*
X0004892Y0083560D01*
X0005006Y0083657D01*
X0005123Y0083750D01*
X0005242Y0083840D01*
X0005364Y0083927D01*
X0005487Y0084011D01*
X0005613Y0084092D01*
X0005741Y0084169D01*
X0005872Y0084242D01*
X0006004Y0084312D01*
X0006137Y0084379D01*
X0006273Y0084442D01*
X0006410Y0084501D01*
X0006549Y0084556D01*
X0006689Y0084608D01*
X0006831Y0084656D01*
X0006973Y0084701D01*
X0007117Y0084741D01*
X0007262Y0084778D01*
X0007408Y0084810D01*
X0007555Y0084839D01*
X0007702Y0084864D01*
X0007850Y0084885D01*
X0007998Y0084902D01*
X0008147Y0084915D01*
X0008297Y0084924D01*
X0008446Y0084929D01*
X0008595Y0084930D01*
X0008745Y0084927D01*
X0008894Y0084920D01*
X0009043Y0084909D01*
X0009192Y0084894D01*
X0009340Y0084875D01*
X0009488Y0084852D01*
X0009635Y0084825D01*
X0009781Y0084795D01*
X0009926Y0084760D01*
X0010071Y0084721D01*
X0010214Y0084679D01*
X0010356Y0084633D01*
X0010497Y0084583D01*
X0010637Y0084529D01*
X0010775Y0084472D01*
X0010911Y0084411D01*
X0011046Y0084346D01*
X0011179Y0084278D01*
X0011310Y0084206D01*
X0011439Y0084130D01*
X0011566Y0084052D01*
X0011691Y0083970D01*
X0011813Y0083884D01*
X0011934Y0083796D01*
X0012052Y0083704D01*
X0012167Y0083609D01*
X0012280Y0083511D01*
X0012390Y0083410D01*
X0012497Y0083306D01*
X0012602Y0083199D01*
X0012704Y0083090D01*
X0012803Y0082978D01*
X0012898Y0082863D01*
X0012991Y0082745D01*
X0013080Y0082626D01*
X0013167Y0082504D01*
X0013250Y0082379D01*
X0013329Y0082253D01*
X0013405Y0082124D01*
X0013478Y0081994D01*
X0013547Y0081861D01*
X0013613Y0081727D01*
X0013675Y0081591D01*
X0013733Y0081453D01*
X0013788Y0081314D01*
X0013839Y0081174D01*
X0013886Y0081032D01*
X0013929Y0080889D01*
X0013969Y0080745D01*
X0014004Y0080599D01*
X0014036Y0080453D01*
X0014064Y0080307D01*
X0014088Y0080159D01*
X0014108Y0080011D01*
X0014124Y0079862D01*
X0014136Y0079713D01*
X0014144Y0079564D01*
X0014148Y0079415D01*
X0014148Y0079265D01*
X0014144Y0079116D01*
X0014136Y0078967D01*
X0014124Y0078818D01*
X0014108Y0078669D01*
X0014088Y0078521D01*
X0014064Y0078373D01*
X0014036Y0078227D01*
X0014004Y0078081D01*
X0013969Y0077935D01*
X0013929Y0077791D01*
X0013886Y0077648D01*
X0013839Y0077506D01*
X0013788Y0077366D01*
X0013733Y0077227D01*
X0013675Y0077089D01*
X0013613Y0076953D01*
X0013547Y0076819D01*
X0013478Y0076686D01*
X0013405Y0076556D01*
X0013329Y0076427D01*
X0013250Y0076301D01*
X0013167Y0076176D01*
X0013080Y0076054D01*
X0012991Y0075935D01*
X0012898Y0075817D01*
X0012803Y0075702D01*
X0012704Y0075590D01*
X0012602Y0075481D01*
X0012497Y0075374D01*
X0012390Y0075270D01*
X0012280Y0075169D01*
X0012167Y0075071D01*
X0012052Y0074976D01*
X0011934Y0074884D01*
X0011813Y0074796D01*
X0011691Y0074710D01*
X0011566Y0074628D01*
X0011439Y0074550D01*
X0011310Y0074474D01*
X0011179Y0074402D01*
X0011046Y0074334D01*
X0010911Y0074269D01*
X0010775Y0074208D01*
X0010637Y0074151D01*
X0010497Y0074097D01*
X0010356Y0074047D01*
X0010214Y0074001D01*
X0010071Y0073959D01*
X0009926Y0073920D01*
X0009781Y0073885D01*
X0009635Y0073855D01*
X0009488Y0073828D01*
X0009340Y0073805D01*
X0009192Y0073786D01*
X0009043Y0073771D01*
X0008894Y0073760D01*
X0008745Y0073753D01*
X0008595Y0073750D01*
X0008446Y0073751D01*
X0008297Y0073756D01*
X0008147Y0073765D01*
X0007998Y0073778D01*
X0007850Y0073795D01*
X0007702Y0073816D01*
X0007555Y0073841D01*
X0007408Y0073870D01*
X0007262Y0073902D01*
X0007117Y0073939D01*
X0006973Y0073979D01*
X0006831Y0074024D01*
X0006689Y0074072D01*
X0006549Y0074124D01*
X0006410Y0074179D01*
X0006273Y0074238D01*
X0006137Y0074301D01*
X0006004Y0074368D01*
X0005872Y0074438D01*
X0005741Y0074511D01*
X0005613Y0074588D01*
X0005487Y0074669D01*
X0005364Y0074753D01*
X0005242Y0074840D01*
X0005123Y0074930D01*
X0005006Y0075023D01*
X0004892Y0075120D01*
X0004781Y0075219D01*
X0004672Y0075322D01*
X0004566Y0075427D01*
X0004463Y0075535D01*
X0004362Y0075646D01*
X0004265Y0075760D01*
X0004171Y0075876D01*
X0004080Y0075994D01*
X0003992Y0076115D01*
X0003907Y0076238D01*
X0003826Y0076364D01*
X0003748Y0076491D01*
X0003674Y0076621D01*
X0003603Y0076752D01*
X0003536Y0076886D01*
X0003472Y0077021D01*
X0003412Y0077158D01*
X0003355Y0077296D01*
X0003302Y0077436D01*
X0003253Y0077577D01*
X0003208Y0077720D01*
X0003167Y0077863D01*
X0003129Y0078008D01*
X0003095Y0078153D01*
X0003066Y0078300D01*
X0003040Y0078447D01*
X0003018Y0078595D01*
X0003000Y0078743D01*
X0002986Y0078892D01*
X0002976Y0079041D01*
X0002970Y0079191D01*
X0002968Y0079340D01*
D12*
X0137558Y0135840D02*
X0152558Y0150840D01*
X0152558Y0138840D01*
X0152558Y0150840D02*
X0140558Y0150840D01*
D13*
X0089058Y0100840D03*
X0089058Y0092840D03*
X0093058Y0085840D03*
X0089058Y0081840D03*
X0089058Y0073840D03*
D14*
X0089058Y0074340D03*
X0089058Y0082340D03*
X0093058Y0086340D03*
X0089058Y0092340D03*
X0089058Y0100340D03*
D15*
X0089058Y0099840D03*
X0089058Y0091840D03*
X0093058Y0086840D03*
X0089058Y0082840D03*
X0089058Y0074840D03*
D16*
X0089058Y0075340D03*
X0089058Y0083340D03*
X0093058Y0087340D03*
X0092558Y0087840D03*
X0092058Y0088340D03*
X0091558Y0088840D03*
X0089058Y0091340D03*
X0089058Y0099340D03*
D17*
X0089058Y0098840D03*
X0095058Y0092840D03*
X0083058Y0081840D03*
X0089058Y0075840D03*
D18*
X0089058Y0076340D03*
X0083058Y0082340D03*
X0095058Y0092340D03*
X0089058Y0098340D03*
D19*
X0089058Y0097840D03*
X0095058Y0091840D03*
X0083058Y0082840D03*
X0089058Y0076840D03*
D20*
X0089058Y0077340D03*
X0083058Y0083340D03*
X0095058Y0091340D03*
X0089058Y0097340D03*
D21*
X0091308Y0096840D03*
X0091808Y0096340D03*
X0092308Y0095840D03*
X0092808Y0095340D03*
X0093308Y0094840D03*
X0093808Y0094340D03*
X0094308Y0093840D03*
X0094808Y0093340D03*
X0097308Y0090840D03*
X0097808Y0090340D03*
X0098308Y0089840D03*
X0098808Y0089340D03*
X0099308Y0088840D03*
X0099808Y0088340D03*
X0100308Y0087840D03*
X0100808Y0087340D03*
X0100308Y0086840D03*
X0099808Y0086340D03*
X0099308Y0085840D03*
X0098808Y0085340D03*
X0098308Y0084840D03*
X0097808Y0084340D03*
X0097308Y0083840D03*
X0096808Y0083340D03*
X0096308Y0082840D03*
X0095808Y0082340D03*
X0095308Y0081840D03*
X0094808Y0081340D03*
X0094308Y0080840D03*
X0093808Y0080340D03*
X0093308Y0079840D03*
X0092808Y0079340D03*
X0092308Y0078840D03*
X0091808Y0078340D03*
X0091308Y0077840D03*
X0086808Y0077840D03*
X0086308Y0078340D03*
X0085808Y0078840D03*
X0085308Y0079340D03*
X0084808Y0079840D03*
X0084308Y0080340D03*
X0083808Y0080840D03*
X0083308Y0081340D03*
X0080808Y0083840D03*
X0080308Y0084340D03*
X0079808Y0084840D03*
X0079308Y0085340D03*
X0078808Y0085840D03*
X0078308Y0086340D03*
X0077808Y0086840D03*
X0077308Y0087340D03*
X0077808Y0087840D03*
X0078308Y0088340D03*
X0078808Y0088840D03*
X0079308Y0089340D03*
X0079808Y0089840D03*
X0080308Y0090340D03*
X0080808Y0090840D03*
X0081308Y0091340D03*
X0081808Y0091840D03*
X0082308Y0092340D03*
X0082808Y0092840D03*
X0083308Y0093340D03*
X0083808Y0093840D03*
X0084308Y0094340D03*
X0084808Y0094840D03*
X0085308Y0095340D03*
X0085808Y0095840D03*
X0086308Y0096340D03*
X0086808Y0096840D03*
X0091308Y0089340D03*
X0086808Y0085840D03*
X0087308Y0085340D03*
X0086308Y0086340D03*
X0085808Y0086840D03*
X0085308Y0087340D03*
D22*
X0087308Y0083840D03*
X0091308Y0090840D03*
D23*
X0091308Y0090340D03*
X0087308Y0084340D03*
D24*
X0087308Y0084840D03*
X0091308Y0089840D03*
D25*
X0085308Y0087840D03*
D26*
X0085308Y0088340D03*
D27*
X0085308Y0088840D03*
M02*
