%
M48
M72
T01C0.01300
T02C0.02000
T03C0.04000
T04C0.08000
%
T01
X29558Y19340
X35558Y24840
X42558Y28840
X36058Y34340
X29558Y41840
X27558Y34840
X20558Y29340
X30558Y52840
X27558Y62840
X20558Y70840
X20558Y80840
X28558Y84840
X20558Y90840
X20558Y101840
X24558Y108840
X20558Y113840
X20558Y123840
X20558Y132840
X21558Y137840
X25558Y133840
X30058Y132840
X26558Y138840
X32558Y139840
X39558Y138840
X44558Y137840
X37058Y128840
X30058Y123840
X30058Y115840
X30058Y105840
X67558Y142340
X63558Y143340
X72058Y138340
X81058Y137840
X79558Y145340
X83558Y151840
X85558Y155840
X92558Y155840
X97558Y153840
X101558Y155840
X102558Y151840
X105558Y146840
X106558Y155840
X111058Y155840
X115558Y155840
X118558Y152840
X121558Y155840
X120558Y146840
X130558Y147840
X134558Y143840
X138058Y140340
X142058Y136340
X146058Y132340
X149558Y128840
X145558Y124840
X142058Y128340
X138058Y132340
X133558Y136840
X130558Y138840
X155558Y115340
X157558Y118840
X157558Y110840
X157558Y105340
X146558Y96840
X141558Y95840
X138558Y99340
X144558Y101840
X157558Y93340
X157558Y88840
X157558Y84340
X152558Y84840
X145058Y69840
X142558Y63840
X144558Y55840
X150558Y59840
X152558Y51340
X157058Y45840
X155558Y39840
X156558Y33840
X145558Y37840
X145558Y44840
X137558Y38840
X141558Y27840
X141558Y18840
X132558Y18840
X132558Y26840
X123558Y18840
X114558Y18840
X104558Y18840
X95558Y18840
X88558Y18840
X81558Y18840
X85558Y26840
X72558Y18840
X65558Y25840
X53558Y28840
X103558Y78840
X109058Y87340
X101558Y94340
X95058Y101340
X85558Y101840
X78558Y101840
X84558Y109840
X83558Y120840
X98558Y133840
X97058Y137840
X102058Y137340
X53558Y155840
X42558Y155840
X38558Y155840
X36058Y152840
X33558Y155840
X132558Y78840
X123058Y32840
X108058Y30840
T02
X119558Y56840
X58558Y56840
X58558Y117840
X119558Y117840
T03
X55558Y142340
X55558Y150340
X35558Y146340
T04
X26558Y25840
X148558Y75840
X150558Y25840
X112558Y148840
X27558Y148840
M30
