G75*
%MOIN*%
%OFA0B0*%
%FSLAX25Y25*%
%IPPOS*%
%LPD*%
%AMOC8*
5,1,8,0,0,1.08239X$1,22.5*
%
%ADD10C,0.00000*%
%ADD11C,0.01600*%
D10*
X0022558Y0025840D02*
X0022560Y0025966D01*
X0022566Y0026092D01*
X0022576Y0026218D01*
X0022590Y0026344D01*
X0022608Y0026469D01*
X0022630Y0026593D01*
X0022655Y0026717D01*
X0022685Y0026840D01*
X0022718Y0026961D01*
X0022756Y0027082D01*
X0022797Y0027201D01*
X0022842Y0027320D01*
X0022890Y0027436D01*
X0022942Y0027551D01*
X0022998Y0027664D01*
X0023058Y0027776D01*
X0023121Y0027885D01*
X0023187Y0027993D01*
X0023256Y0028098D01*
X0023329Y0028201D01*
X0023406Y0028302D01*
X0023485Y0028400D01*
X0023567Y0028496D01*
X0023653Y0028589D01*
X0023741Y0028680D01*
X0023832Y0028767D01*
X0023926Y0028852D01*
X0024022Y0028933D01*
X0024121Y0029012D01*
X0024222Y0029087D01*
X0024326Y0029159D01*
X0024432Y0029228D01*
X0024540Y0029294D01*
X0024650Y0029356D01*
X0024762Y0029414D01*
X0024875Y0029469D01*
X0024991Y0029520D01*
X0025108Y0029568D01*
X0025226Y0029612D01*
X0025346Y0029652D01*
X0025467Y0029688D01*
X0025589Y0029721D01*
X0025712Y0029750D01*
X0025836Y0029774D01*
X0025960Y0029795D01*
X0026085Y0029812D01*
X0026211Y0029825D01*
X0026337Y0029834D01*
X0026463Y0029839D01*
X0026590Y0029840D01*
X0026716Y0029837D01*
X0026842Y0029830D01*
X0026968Y0029819D01*
X0027093Y0029804D01*
X0027218Y0029785D01*
X0027342Y0029762D01*
X0027466Y0029736D01*
X0027588Y0029705D01*
X0027710Y0029671D01*
X0027830Y0029632D01*
X0027949Y0029590D01*
X0028067Y0029545D01*
X0028183Y0029495D01*
X0028298Y0029442D01*
X0028410Y0029385D01*
X0028521Y0029325D01*
X0028630Y0029261D01*
X0028737Y0029194D01*
X0028842Y0029124D01*
X0028945Y0029050D01*
X0029045Y0028973D01*
X0029143Y0028893D01*
X0029238Y0028810D01*
X0029330Y0028724D01*
X0029420Y0028635D01*
X0029507Y0028543D01*
X0029590Y0028449D01*
X0029671Y0028352D01*
X0029749Y0028252D01*
X0029824Y0028150D01*
X0029895Y0028046D01*
X0029963Y0027939D01*
X0030027Y0027831D01*
X0030088Y0027720D01*
X0030146Y0027608D01*
X0030200Y0027494D01*
X0030250Y0027378D01*
X0030297Y0027261D01*
X0030340Y0027142D01*
X0030379Y0027022D01*
X0030415Y0026901D01*
X0030446Y0026778D01*
X0030474Y0026655D01*
X0030498Y0026531D01*
X0030518Y0026406D01*
X0030534Y0026281D01*
X0030546Y0026155D01*
X0030554Y0026029D01*
X0030558Y0025903D01*
X0030558Y0025777D01*
X0030554Y0025651D01*
X0030546Y0025525D01*
X0030534Y0025399D01*
X0030518Y0025274D01*
X0030498Y0025149D01*
X0030474Y0025025D01*
X0030446Y0024902D01*
X0030415Y0024779D01*
X0030379Y0024658D01*
X0030340Y0024538D01*
X0030297Y0024419D01*
X0030250Y0024302D01*
X0030200Y0024186D01*
X0030146Y0024072D01*
X0030088Y0023960D01*
X0030027Y0023849D01*
X0029963Y0023741D01*
X0029895Y0023634D01*
X0029824Y0023530D01*
X0029749Y0023428D01*
X0029671Y0023328D01*
X0029590Y0023231D01*
X0029507Y0023137D01*
X0029420Y0023045D01*
X0029330Y0022956D01*
X0029238Y0022870D01*
X0029143Y0022787D01*
X0029045Y0022707D01*
X0028945Y0022630D01*
X0028842Y0022556D01*
X0028737Y0022486D01*
X0028630Y0022419D01*
X0028521Y0022355D01*
X0028410Y0022295D01*
X0028298Y0022238D01*
X0028183Y0022185D01*
X0028067Y0022135D01*
X0027949Y0022090D01*
X0027830Y0022048D01*
X0027710Y0022009D01*
X0027588Y0021975D01*
X0027466Y0021944D01*
X0027342Y0021918D01*
X0027218Y0021895D01*
X0027093Y0021876D01*
X0026968Y0021861D01*
X0026842Y0021850D01*
X0026716Y0021843D01*
X0026590Y0021840D01*
X0026463Y0021841D01*
X0026337Y0021846D01*
X0026211Y0021855D01*
X0026085Y0021868D01*
X0025960Y0021885D01*
X0025836Y0021906D01*
X0025712Y0021930D01*
X0025589Y0021959D01*
X0025467Y0021992D01*
X0025346Y0022028D01*
X0025226Y0022068D01*
X0025108Y0022112D01*
X0024991Y0022160D01*
X0024875Y0022211D01*
X0024762Y0022266D01*
X0024650Y0022324D01*
X0024540Y0022386D01*
X0024432Y0022452D01*
X0024326Y0022521D01*
X0024222Y0022593D01*
X0024121Y0022668D01*
X0024022Y0022747D01*
X0023926Y0022828D01*
X0023832Y0022913D01*
X0023741Y0023000D01*
X0023653Y0023091D01*
X0023567Y0023184D01*
X0023485Y0023280D01*
X0023406Y0023378D01*
X0023329Y0023479D01*
X0023256Y0023582D01*
X0023187Y0023687D01*
X0023121Y0023795D01*
X0023058Y0023904D01*
X0022998Y0024016D01*
X0022942Y0024129D01*
X0022890Y0024244D01*
X0022842Y0024360D01*
X0022797Y0024479D01*
X0022756Y0024598D01*
X0022718Y0024719D01*
X0022685Y0024840D01*
X0022655Y0024963D01*
X0022630Y0025087D01*
X0022608Y0025211D01*
X0022590Y0025336D01*
X0022576Y0025462D01*
X0022566Y0025588D01*
X0022560Y0025714D01*
X0022558Y0025840D01*
X0053558Y0142340D02*
X0053560Y0142429D01*
X0053566Y0142518D01*
X0053576Y0142607D01*
X0053590Y0142695D01*
X0053607Y0142782D01*
X0053629Y0142868D01*
X0053655Y0142954D01*
X0053684Y0143038D01*
X0053717Y0143121D01*
X0053753Y0143202D01*
X0053794Y0143282D01*
X0053837Y0143359D01*
X0053884Y0143435D01*
X0053935Y0143508D01*
X0053988Y0143579D01*
X0054045Y0143648D01*
X0054105Y0143714D01*
X0054168Y0143778D01*
X0054233Y0143838D01*
X0054301Y0143896D01*
X0054372Y0143950D01*
X0054445Y0144001D01*
X0054520Y0144049D01*
X0054597Y0144094D01*
X0054676Y0144135D01*
X0054757Y0144172D01*
X0054839Y0144206D01*
X0054923Y0144237D01*
X0055008Y0144263D01*
X0055094Y0144286D01*
X0055181Y0144304D01*
X0055269Y0144319D01*
X0055358Y0144330D01*
X0055447Y0144337D01*
X0055536Y0144340D01*
X0055625Y0144339D01*
X0055714Y0144334D01*
X0055802Y0144325D01*
X0055891Y0144312D01*
X0055978Y0144295D01*
X0056065Y0144275D01*
X0056151Y0144250D01*
X0056235Y0144222D01*
X0056318Y0144190D01*
X0056400Y0144154D01*
X0056480Y0144115D01*
X0056558Y0144072D01*
X0056634Y0144026D01*
X0056708Y0143976D01*
X0056780Y0143923D01*
X0056849Y0143867D01*
X0056916Y0143808D01*
X0056980Y0143746D01*
X0057041Y0143682D01*
X0057100Y0143614D01*
X0057155Y0143544D01*
X0057207Y0143472D01*
X0057256Y0143397D01*
X0057301Y0143321D01*
X0057343Y0143242D01*
X0057381Y0143162D01*
X0057416Y0143080D01*
X0057447Y0142996D01*
X0057475Y0142911D01*
X0057498Y0142825D01*
X0057518Y0142738D01*
X0057534Y0142651D01*
X0057546Y0142562D01*
X0057554Y0142474D01*
X0057558Y0142385D01*
X0057558Y0142295D01*
X0057554Y0142206D01*
X0057546Y0142118D01*
X0057534Y0142029D01*
X0057518Y0141942D01*
X0057498Y0141855D01*
X0057475Y0141769D01*
X0057447Y0141684D01*
X0057416Y0141600D01*
X0057381Y0141518D01*
X0057343Y0141438D01*
X0057301Y0141359D01*
X0057256Y0141283D01*
X0057207Y0141208D01*
X0057155Y0141136D01*
X0057100Y0141066D01*
X0057041Y0140998D01*
X0056980Y0140934D01*
X0056916Y0140872D01*
X0056849Y0140813D01*
X0056780Y0140757D01*
X0056708Y0140704D01*
X0056634Y0140654D01*
X0056558Y0140608D01*
X0056480Y0140565D01*
X0056400Y0140526D01*
X0056318Y0140490D01*
X0056235Y0140458D01*
X0056151Y0140430D01*
X0056065Y0140405D01*
X0055978Y0140385D01*
X0055891Y0140368D01*
X0055802Y0140355D01*
X0055714Y0140346D01*
X0055625Y0140341D01*
X0055536Y0140340D01*
X0055447Y0140343D01*
X0055358Y0140350D01*
X0055269Y0140361D01*
X0055181Y0140376D01*
X0055094Y0140394D01*
X0055008Y0140417D01*
X0054923Y0140443D01*
X0054839Y0140474D01*
X0054757Y0140508D01*
X0054676Y0140545D01*
X0054597Y0140586D01*
X0054520Y0140631D01*
X0054445Y0140679D01*
X0054372Y0140730D01*
X0054301Y0140784D01*
X0054233Y0140842D01*
X0054168Y0140902D01*
X0054105Y0140966D01*
X0054045Y0141032D01*
X0053988Y0141101D01*
X0053935Y0141172D01*
X0053884Y0141245D01*
X0053837Y0141321D01*
X0053794Y0141398D01*
X0053753Y0141478D01*
X0053717Y0141559D01*
X0053684Y0141642D01*
X0053655Y0141726D01*
X0053629Y0141812D01*
X0053607Y0141898D01*
X0053590Y0141985D01*
X0053576Y0142073D01*
X0053566Y0142162D01*
X0053560Y0142251D01*
X0053558Y0142340D01*
X0053558Y0150340D02*
X0053560Y0150429D01*
X0053566Y0150518D01*
X0053576Y0150607D01*
X0053590Y0150695D01*
X0053607Y0150782D01*
X0053629Y0150868D01*
X0053655Y0150954D01*
X0053684Y0151038D01*
X0053717Y0151121D01*
X0053753Y0151202D01*
X0053794Y0151282D01*
X0053837Y0151359D01*
X0053884Y0151435D01*
X0053935Y0151508D01*
X0053988Y0151579D01*
X0054045Y0151648D01*
X0054105Y0151714D01*
X0054168Y0151778D01*
X0054233Y0151838D01*
X0054301Y0151896D01*
X0054372Y0151950D01*
X0054445Y0152001D01*
X0054520Y0152049D01*
X0054597Y0152094D01*
X0054676Y0152135D01*
X0054757Y0152172D01*
X0054839Y0152206D01*
X0054923Y0152237D01*
X0055008Y0152263D01*
X0055094Y0152286D01*
X0055181Y0152304D01*
X0055269Y0152319D01*
X0055358Y0152330D01*
X0055447Y0152337D01*
X0055536Y0152340D01*
X0055625Y0152339D01*
X0055714Y0152334D01*
X0055802Y0152325D01*
X0055891Y0152312D01*
X0055978Y0152295D01*
X0056065Y0152275D01*
X0056151Y0152250D01*
X0056235Y0152222D01*
X0056318Y0152190D01*
X0056400Y0152154D01*
X0056480Y0152115D01*
X0056558Y0152072D01*
X0056634Y0152026D01*
X0056708Y0151976D01*
X0056780Y0151923D01*
X0056849Y0151867D01*
X0056916Y0151808D01*
X0056980Y0151746D01*
X0057041Y0151682D01*
X0057100Y0151614D01*
X0057155Y0151544D01*
X0057207Y0151472D01*
X0057256Y0151397D01*
X0057301Y0151321D01*
X0057343Y0151242D01*
X0057381Y0151162D01*
X0057416Y0151080D01*
X0057447Y0150996D01*
X0057475Y0150911D01*
X0057498Y0150825D01*
X0057518Y0150738D01*
X0057534Y0150651D01*
X0057546Y0150562D01*
X0057554Y0150474D01*
X0057558Y0150385D01*
X0057558Y0150295D01*
X0057554Y0150206D01*
X0057546Y0150118D01*
X0057534Y0150029D01*
X0057518Y0149942D01*
X0057498Y0149855D01*
X0057475Y0149769D01*
X0057447Y0149684D01*
X0057416Y0149600D01*
X0057381Y0149518D01*
X0057343Y0149438D01*
X0057301Y0149359D01*
X0057256Y0149283D01*
X0057207Y0149208D01*
X0057155Y0149136D01*
X0057100Y0149066D01*
X0057041Y0148998D01*
X0056980Y0148934D01*
X0056916Y0148872D01*
X0056849Y0148813D01*
X0056780Y0148757D01*
X0056708Y0148704D01*
X0056634Y0148654D01*
X0056558Y0148608D01*
X0056480Y0148565D01*
X0056400Y0148526D01*
X0056318Y0148490D01*
X0056235Y0148458D01*
X0056151Y0148430D01*
X0056065Y0148405D01*
X0055978Y0148385D01*
X0055891Y0148368D01*
X0055802Y0148355D01*
X0055714Y0148346D01*
X0055625Y0148341D01*
X0055536Y0148340D01*
X0055447Y0148343D01*
X0055358Y0148350D01*
X0055269Y0148361D01*
X0055181Y0148376D01*
X0055094Y0148394D01*
X0055008Y0148417D01*
X0054923Y0148443D01*
X0054839Y0148474D01*
X0054757Y0148508D01*
X0054676Y0148545D01*
X0054597Y0148586D01*
X0054520Y0148631D01*
X0054445Y0148679D01*
X0054372Y0148730D01*
X0054301Y0148784D01*
X0054233Y0148842D01*
X0054168Y0148902D01*
X0054105Y0148966D01*
X0054045Y0149032D01*
X0053988Y0149101D01*
X0053935Y0149172D01*
X0053884Y0149245D01*
X0053837Y0149321D01*
X0053794Y0149398D01*
X0053753Y0149478D01*
X0053717Y0149559D01*
X0053684Y0149642D01*
X0053655Y0149726D01*
X0053629Y0149812D01*
X0053607Y0149898D01*
X0053590Y0149985D01*
X0053576Y0150073D01*
X0053566Y0150162D01*
X0053560Y0150251D01*
X0053558Y0150340D01*
X0033558Y0146340D02*
X0033560Y0146429D01*
X0033566Y0146518D01*
X0033576Y0146607D01*
X0033590Y0146695D01*
X0033607Y0146782D01*
X0033629Y0146868D01*
X0033655Y0146954D01*
X0033684Y0147038D01*
X0033717Y0147121D01*
X0033753Y0147202D01*
X0033794Y0147282D01*
X0033837Y0147359D01*
X0033884Y0147435D01*
X0033935Y0147508D01*
X0033988Y0147579D01*
X0034045Y0147648D01*
X0034105Y0147714D01*
X0034168Y0147778D01*
X0034233Y0147838D01*
X0034301Y0147896D01*
X0034372Y0147950D01*
X0034445Y0148001D01*
X0034520Y0148049D01*
X0034597Y0148094D01*
X0034676Y0148135D01*
X0034757Y0148172D01*
X0034839Y0148206D01*
X0034923Y0148237D01*
X0035008Y0148263D01*
X0035094Y0148286D01*
X0035181Y0148304D01*
X0035269Y0148319D01*
X0035358Y0148330D01*
X0035447Y0148337D01*
X0035536Y0148340D01*
X0035625Y0148339D01*
X0035714Y0148334D01*
X0035802Y0148325D01*
X0035891Y0148312D01*
X0035978Y0148295D01*
X0036065Y0148275D01*
X0036151Y0148250D01*
X0036235Y0148222D01*
X0036318Y0148190D01*
X0036400Y0148154D01*
X0036480Y0148115D01*
X0036558Y0148072D01*
X0036634Y0148026D01*
X0036708Y0147976D01*
X0036780Y0147923D01*
X0036849Y0147867D01*
X0036916Y0147808D01*
X0036980Y0147746D01*
X0037041Y0147682D01*
X0037100Y0147614D01*
X0037155Y0147544D01*
X0037207Y0147472D01*
X0037256Y0147397D01*
X0037301Y0147321D01*
X0037343Y0147242D01*
X0037381Y0147162D01*
X0037416Y0147080D01*
X0037447Y0146996D01*
X0037475Y0146911D01*
X0037498Y0146825D01*
X0037518Y0146738D01*
X0037534Y0146651D01*
X0037546Y0146562D01*
X0037554Y0146474D01*
X0037558Y0146385D01*
X0037558Y0146295D01*
X0037554Y0146206D01*
X0037546Y0146118D01*
X0037534Y0146029D01*
X0037518Y0145942D01*
X0037498Y0145855D01*
X0037475Y0145769D01*
X0037447Y0145684D01*
X0037416Y0145600D01*
X0037381Y0145518D01*
X0037343Y0145438D01*
X0037301Y0145359D01*
X0037256Y0145283D01*
X0037207Y0145208D01*
X0037155Y0145136D01*
X0037100Y0145066D01*
X0037041Y0144998D01*
X0036980Y0144934D01*
X0036916Y0144872D01*
X0036849Y0144813D01*
X0036780Y0144757D01*
X0036708Y0144704D01*
X0036634Y0144654D01*
X0036558Y0144608D01*
X0036480Y0144565D01*
X0036400Y0144526D01*
X0036318Y0144490D01*
X0036235Y0144458D01*
X0036151Y0144430D01*
X0036065Y0144405D01*
X0035978Y0144385D01*
X0035891Y0144368D01*
X0035802Y0144355D01*
X0035714Y0144346D01*
X0035625Y0144341D01*
X0035536Y0144340D01*
X0035447Y0144343D01*
X0035358Y0144350D01*
X0035269Y0144361D01*
X0035181Y0144376D01*
X0035094Y0144394D01*
X0035008Y0144417D01*
X0034923Y0144443D01*
X0034839Y0144474D01*
X0034757Y0144508D01*
X0034676Y0144545D01*
X0034597Y0144586D01*
X0034520Y0144631D01*
X0034445Y0144679D01*
X0034372Y0144730D01*
X0034301Y0144784D01*
X0034233Y0144842D01*
X0034168Y0144902D01*
X0034105Y0144966D01*
X0034045Y0145032D01*
X0033988Y0145101D01*
X0033935Y0145172D01*
X0033884Y0145245D01*
X0033837Y0145321D01*
X0033794Y0145398D01*
X0033753Y0145478D01*
X0033717Y0145559D01*
X0033684Y0145642D01*
X0033655Y0145726D01*
X0033629Y0145812D01*
X0033607Y0145898D01*
X0033590Y0145985D01*
X0033576Y0146073D01*
X0033566Y0146162D01*
X0033560Y0146251D01*
X0033558Y0146340D01*
X0023558Y0148840D02*
X0023560Y0148966D01*
X0023566Y0149092D01*
X0023576Y0149218D01*
X0023590Y0149344D01*
X0023608Y0149469D01*
X0023630Y0149593D01*
X0023655Y0149717D01*
X0023685Y0149840D01*
X0023718Y0149961D01*
X0023756Y0150082D01*
X0023797Y0150201D01*
X0023842Y0150320D01*
X0023890Y0150436D01*
X0023942Y0150551D01*
X0023998Y0150664D01*
X0024058Y0150776D01*
X0024121Y0150885D01*
X0024187Y0150993D01*
X0024256Y0151098D01*
X0024329Y0151201D01*
X0024406Y0151302D01*
X0024485Y0151400D01*
X0024567Y0151496D01*
X0024653Y0151589D01*
X0024741Y0151680D01*
X0024832Y0151767D01*
X0024926Y0151852D01*
X0025022Y0151933D01*
X0025121Y0152012D01*
X0025222Y0152087D01*
X0025326Y0152159D01*
X0025432Y0152228D01*
X0025540Y0152294D01*
X0025650Y0152356D01*
X0025762Y0152414D01*
X0025875Y0152469D01*
X0025991Y0152520D01*
X0026108Y0152568D01*
X0026226Y0152612D01*
X0026346Y0152652D01*
X0026467Y0152688D01*
X0026589Y0152721D01*
X0026712Y0152750D01*
X0026836Y0152774D01*
X0026960Y0152795D01*
X0027085Y0152812D01*
X0027211Y0152825D01*
X0027337Y0152834D01*
X0027463Y0152839D01*
X0027590Y0152840D01*
X0027716Y0152837D01*
X0027842Y0152830D01*
X0027968Y0152819D01*
X0028093Y0152804D01*
X0028218Y0152785D01*
X0028342Y0152762D01*
X0028466Y0152736D01*
X0028588Y0152705D01*
X0028710Y0152671D01*
X0028830Y0152632D01*
X0028949Y0152590D01*
X0029067Y0152545D01*
X0029183Y0152495D01*
X0029298Y0152442D01*
X0029410Y0152385D01*
X0029521Y0152325D01*
X0029630Y0152261D01*
X0029737Y0152194D01*
X0029842Y0152124D01*
X0029945Y0152050D01*
X0030045Y0151973D01*
X0030143Y0151893D01*
X0030238Y0151810D01*
X0030330Y0151724D01*
X0030420Y0151635D01*
X0030507Y0151543D01*
X0030590Y0151449D01*
X0030671Y0151352D01*
X0030749Y0151252D01*
X0030824Y0151150D01*
X0030895Y0151046D01*
X0030963Y0150939D01*
X0031027Y0150831D01*
X0031088Y0150720D01*
X0031146Y0150608D01*
X0031200Y0150494D01*
X0031250Y0150378D01*
X0031297Y0150261D01*
X0031340Y0150142D01*
X0031379Y0150022D01*
X0031415Y0149901D01*
X0031446Y0149778D01*
X0031474Y0149655D01*
X0031498Y0149531D01*
X0031518Y0149406D01*
X0031534Y0149281D01*
X0031546Y0149155D01*
X0031554Y0149029D01*
X0031558Y0148903D01*
X0031558Y0148777D01*
X0031554Y0148651D01*
X0031546Y0148525D01*
X0031534Y0148399D01*
X0031518Y0148274D01*
X0031498Y0148149D01*
X0031474Y0148025D01*
X0031446Y0147902D01*
X0031415Y0147779D01*
X0031379Y0147658D01*
X0031340Y0147538D01*
X0031297Y0147419D01*
X0031250Y0147302D01*
X0031200Y0147186D01*
X0031146Y0147072D01*
X0031088Y0146960D01*
X0031027Y0146849D01*
X0030963Y0146741D01*
X0030895Y0146634D01*
X0030824Y0146530D01*
X0030749Y0146428D01*
X0030671Y0146328D01*
X0030590Y0146231D01*
X0030507Y0146137D01*
X0030420Y0146045D01*
X0030330Y0145956D01*
X0030238Y0145870D01*
X0030143Y0145787D01*
X0030045Y0145707D01*
X0029945Y0145630D01*
X0029842Y0145556D01*
X0029737Y0145486D01*
X0029630Y0145419D01*
X0029521Y0145355D01*
X0029410Y0145295D01*
X0029298Y0145238D01*
X0029183Y0145185D01*
X0029067Y0145135D01*
X0028949Y0145090D01*
X0028830Y0145048D01*
X0028710Y0145009D01*
X0028588Y0144975D01*
X0028466Y0144944D01*
X0028342Y0144918D01*
X0028218Y0144895D01*
X0028093Y0144876D01*
X0027968Y0144861D01*
X0027842Y0144850D01*
X0027716Y0144843D01*
X0027590Y0144840D01*
X0027463Y0144841D01*
X0027337Y0144846D01*
X0027211Y0144855D01*
X0027085Y0144868D01*
X0026960Y0144885D01*
X0026836Y0144906D01*
X0026712Y0144930D01*
X0026589Y0144959D01*
X0026467Y0144992D01*
X0026346Y0145028D01*
X0026226Y0145068D01*
X0026108Y0145112D01*
X0025991Y0145160D01*
X0025875Y0145211D01*
X0025762Y0145266D01*
X0025650Y0145324D01*
X0025540Y0145386D01*
X0025432Y0145452D01*
X0025326Y0145521D01*
X0025222Y0145593D01*
X0025121Y0145668D01*
X0025022Y0145747D01*
X0024926Y0145828D01*
X0024832Y0145913D01*
X0024741Y0146000D01*
X0024653Y0146091D01*
X0024567Y0146184D01*
X0024485Y0146280D01*
X0024406Y0146378D01*
X0024329Y0146479D01*
X0024256Y0146582D01*
X0024187Y0146687D01*
X0024121Y0146795D01*
X0024058Y0146904D01*
X0023998Y0147016D01*
X0023942Y0147129D01*
X0023890Y0147244D01*
X0023842Y0147360D01*
X0023797Y0147479D01*
X0023756Y0147598D01*
X0023718Y0147719D01*
X0023685Y0147840D01*
X0023655Y0147963D01*
X0023630Y0148087D01*
X0023608Y0148211D01*
X0023590Y0148336D01*
X0023576Y0148462D01*
X0023566Y0148588D01*
X0023560Y0148714D01*
X0023558Y0148840D01*
X0108558Y0148840D02*
X0108560Y0148966D01*
X0108566Y0149092D01*
X0108576Y0149218D01*
X0108590Y0149344D01*
X0108608Y0149469D01*
X0108630Y0149593D01*
X0108655Y0149717D01*
X0108685Y0149840D01*
X0108718Y0149961D01*
X0108756Y0150082D01*
X0108797Y0150201D01*
X0108842Y0150320D01*
X0108890Y0150436D01*
X0108942Y0150551D01*
X0108998Y0150664D01*
X0109058Y0150776D01*
X0109121Y0150885D01*
X0109187Y0150993D01*
X0109256Y0151098D01*
X0109329Y0151201D01*
X0109406Y0151302D01*
X0109485Y0151400D01*
X0109567Y0151496D01*
X0109653Y0151589D01*
X0109741Y0151680D01*
X0109832Y0151767D01*
X0109926Y0151852D01*
X0110022Y0151933D01*
X0110121Y0152012D01*
X0110222Y0152087D01*
X0110326Y0152159D01*
X0110432Y0152228D01*
X0110540Y0152294D01*
X0110650Y0152356D01*
X0110762Y0152414D01*
X0110875Y0152469D01*
X0110991Y0152520D01*
X0111108Y0152568D01*
X0111226Y0152612D01*
X0111346Y0152652D01*
X0111467Y0152688D01*
X0111589Y0152721D01*
X0111712Y0152750D01*
X0111836Y0152774D01*
X0111960Y0152795D01*
X0112085Y0152812D01*
X0112211Y0152825D01*
X0112337Y0152834D01*
X0112463Y0152839D01*
X0112590Y0152840D01*
X0112716Y0152837D01*
X0112842Y0152830D01*
X0112968Y0152819D01*
X0113093Y0152804D01*
X0113218Y0152785D01*
X0113342Y0152762D01*
X0113466Y0152736D01*
X0113588Y0152705D01*
X0113710Y0152671D01*
X0113830Y0152632D01*
X0113949Y0152590D01*
X0114067Y0152545D01*
X0114183Y0152495D01*
X0114298Y0152442D01*
X0114410Y0152385D01*
X0114521Y0152325D01*
X0114630Y0152261D01*
X0114737Y0152194D01*
X0114842Y0152124D01*
X0114945Y0152050D01*
X0115045Y0151973D01*
X0115143Y0151893D01*
X0115238Y0151810D01*
X0115330Y0151724D01*
X0115420Y0151635D01*
X0115507Y0151543D01*
X0115590Y0151449D01*
X0115671Y0151352D01*
X0115749Y0151252D01*
X0115824Y0151150D01*
X0115895Y0151046D01*
X0115963Y0150939D01*
X0116027Y0150831D01*
X0116088Y0150720D01*
X0116146Y0150608D01*
X0116200Y0150494D01*
X0116250Y0150378D01*
X0116297Y0150261D01*
X0116340Y0150142D01*
X0116379Y0150022D01*
X0116415Y0149901D01*
X0116446Y0149778D01*
X0116474Y0149655D01*
X0116498Y0149531D01*
X0116518Y0149406D01*
X0116534Y0149281D01*
X0116546Y0149155D01*
X0116554Y0149029D01*
X0116558Y0148903D01*
X0116558Y0148777D01*
X0116554Y0148651D01*
X0116546Y0148525D01*
X0116534Y0148399D01*
X0116518Y0148274D01*
X0116498Y0148149D01*
X0116474Y0148025D01*
X0116446Y0147902D01*
X0116415Y0147779D01*
X0116379Y0147658D01*
X0116340Y0147538D01*
X0116297Y0147419D01*
X0116250Y0147302D01*
X0116200Y0147186D01*
X0116146Y0147072D01*
X0116088Y0146960D01*
X0116027Y0146849D01*
X0115963Y0146741D01*
X0115895Y0146634D01*
X0115824Y0146530D01*
X0115749Y0146428D01*
X0115671Y0146328D01*
X0115590Y0146231D01*
X0115507Y0146137D01*
X0115420Y0146045D01*
X0115330Y0145956D01*
X0115238Y0145870D01*
X0115143Y0145787D01*
X0115045Y0145707D01*
X0114945Y0145630D01*
X0114842Y0145556D01*
X0114737Y0145486D01*
X0114630Y0145419D01*
X0114521Y0145355D01*
X0114410Y0145295D01*
X0114298Y0145238D01*
X0114183Y0145185D01*
X0114067Y0145135D01*
X0113949Y0145090D01*
X0113830Y0145048D01*
X0113710Y0145009D01*
X0113588Y0144975D01*
X0113466Y0144944D01*
X0113342Y0144918D01*
X0113218Y0144895D01*
X0113093Y0144876D01*
X0112968Y0144861D01*
X0112842Y0144850D01*
X0112716Y0144843D01*
X0112590Y0144840D01*
X0112463Y0144841D01*
X0112337Y0144846D01*
X0112211Y0144855D01*
X0112085Y0144868D01*
X0111960Y0144885D01*
X0111836Y0144906D01*
X0111712Y0144930D01*
X0111589Y0144959D01*
X0111467Y0144992D01*
X0111346Y0145028D01*
X0111226Y0145068D01*
X0111108Y0145112D01*
X0110991Y0145160D01*
X0110875Y0145211D01*
X0110762Y0145266D01*
X0110650Y0145324D01*
X0110540Y0145386D01*
X0110432Y0145452D01*
X0110326Y0145521D01*
X0110222Y0145593D01*
X0110121Y0145668D01*
X0110022Y0145747D01*
X0109926Y0145828D01*
X0109832Y0145913D01*
X0109741Y0146000D01*
X0109653Y0146091D01*
X0109567Y0146184D01*
X0109485Y0146280D01*
X0109406Y0146378D01*
X0109329Y0146479D01*
X0109256Y0146582D01*
X0109187Y0146687D01*
X0109121Y0146795D01*
X0109058Y0146904D01*
X0108998Y0147016D01*
X0108942Y0147129D01*
X0108890Y0147244D01*
X0108842Y0147360D01*
X0108797Y0147479D01*
X0108756Y0147598D01*
X0108718Y0147719D01*
X0108685Y0147840D01*
X0108655Y0147963D01*
X0108630Y0148087D01*
X0108608Y0148211D01*
X0108590Y0148336D01*
X0108576Y0148462D01*
X0108566Y0148588D01*
X0108560Y0148714D01*
X0108558Y0148840D01*
X0144558Y0075840D02*
X0144560Y0075966D01*
X0144566Y0076092D01*
X0144576Y0076218D01*
X0144590Y0076344D01*
X0144608Y0076469D01*
X0144630Y0076593D01*
X0144655Y0076717D01*
X0144685Y0076840D01*
X0144718Y0076961D01*
X0144756Y0077082D01*
X0144797Y0077201D01*
X0144842Y0077320D01*
X0144890Y0077436D01*
X0144942Y0077551D01*
X0144998Y0077664D01*
X0145058Y0077776D01*
X0145121Y0077885D01*
X0145187Y0077993D01*
X0145256Y0078098D01*
X0145329Y0078201D01*
X0145406Y0078302D01*
X0145485Y0078400D01*
X0145567Y0078496D01*
X0145653Y0078589D01*
X0145741Y0078680D01*
X0145832Y0078767D01*
X0145926Y0078852D01*
X0146022Y0078933D01*
X0146121Y0079012D01*
X0146222Y0079087D01*
X0146326Y0079159D01*
X0146432Y0079228D01*
X0146540Y0079294D01*
X0146650Y0079356D01*
X0146762Y0079414D01*
X0146875Y0079469D01*
X0146991Y0079520D01*
X0147108Y0079568D01*
X0147226Y0079612D01*
X0147346Y0079652D01*
X0147467Y0079688D01*
X0147589Y0079721D01*
X0147712Y0079750D01*
X0147836Y0079774D01*
X0147960Y0079795D01*
X0148085Y0079812D01*
X0148211Y0079825D01*
X0148337Y0079834D01*
X0148463Y0079839D01*
X0148590Y0079840D01*
X0148716Y0079837D01*
X0148842Y0079830D01*
X0148968Y0079819D01*
X0149093Y0079804D01*
X0149218Y0079785D01*
X0149342Y0079762D01*
X0149466Y0079736D01*
X0149588Y0079705D01*
X0149710Y0079671D01*
X0149830Y0079632D01*
X0149949Y0079590D01*
X0150067Y0079545D01*
X0150183Y0079495D01*
X0150298Y0079442D01*
X0150410Y0079385D01*
X0150521Y0079325D01*
X0150630Y0079261D01*
X0150737Y0079194D01*
X0150842Y0079124D01*
X0150945Y0079050D01*
X0151045Y0078973D01*
X0151143Y0078893D01*
X0151238Y0078810D01*
X0151330Y0078724D01*
X0151420Y0078635D01*
X0151507Y0078543D01*
X0151590Y0078449D01*
X0151671Y0078352D01*
X0151749Y0078252D01*
X0151824Y0078150D01*
X0151895Y0078046D01*
X0151963Y0077939D01*
X0152027Y0077831D01*
X0152088Y0077720D01*
X0152146Y0077608D01*
X0152200Y0077494D01*
X0152250Y0077378D01*
X0152297Y0077261D01*
X0152340Y0077142D01*
X0152379Y0077022D01*
X0152415Y0076901D01*
X0152446Y0076778D01*
X0152474Y0076655D01*
X0152498Y0076531D01*
X0152518Y0076406D01*
X0152534Y0076281D01*
X0152546Y0076155D01*
X0152554Y0076029D01*
X0152558Y0075903D01*
X0152558Y0075777D01*
X0152554Y0075651D01*
X0152546Y0075525D01*
X0152534Y0075399D01*
X0152518Y0075274D01*
X0152498Y0075149D01*
X0152474Y0075025D01*
X0152446Y0074902D01*
X0152415Y0074779D01*
X0152379Y0074658D01*
X0152340Y0074538D01*
X0152297Y0074419D01*
X0152250Y0074302D01*
X0152200Y0074186D01*
X0152146Y0074072D01*
X0152088Y0073960D01*
X0152027Y0073849D01*
X0151963Y0073741D01*
X0151895Y0073634D01*
X0151824Y0073530D01*
X0151749Y0073428D01*
X0151671Y0073328D01*
X0151590Y0073231D01*
X0151507Y0073137D01*
X0151420Y0073045D01*
X0151330Y0072956D01*
X0151238Y0072870D01*
X0151143Y0072787D01*
X0151045Y0072707D01*
X0150945Y0072630D01*
X0150842Y0072556D01*
X0150737Y0072486D01*
X0150630Y0072419D01*
X0150521Y0072355D01*
X0150410Y0072295D01*
X0150298Y0072238D01*
X0150183Y0072185D01*
X0150067Y0072135D01*
X0149949Y0072090D01*
X0149830Y0072048D01*
X0149710Y0072009D01*
X0149588Y0071975D01*
X0149466Y0071944D01*
X0149342Y0071918D01*
X0149218Y0071895D01*
X0149093Y0071876D01*
X0148968Y0071861D01*
X0148842Y0071850D01*
X0148716Y0071843D01*
X0148590Y0071840D01*
X0148463Y0071841D01*
X0148337Y0071846D01*
X0148211Y0071855D01*
X0148085Y0071868D01*
X0147960Y0071885D01*
X0147836Y0071906D01*
X0147712Y0071930D01*
X0147589Y0071959D01*
X0147467Y0071992D01*
X0147346Y0072028D01*
X0147226Y0072068D01*
X0147108Y0072112D01*
X0146991Y0072160D01*
X0146875Y0072211D01*
X0146762Y0072266D01*
X0146650Y0072324D01*
X0146540Y0072386D01*
X0146432Y0072452D01*
X0146326Y0072521D01*
X0146222Y0072593D01*
X0146121Y0072668D01*
X0146022Y0072747D01*
X0145926Y0072828D01*
X0145832Y0072913D01*
X0145741Y0073000D01*
X0145653Y0073091D01*
X0145567Y0073184D01*
X0145485Y0073280D01*
X0145406Y0073378D01*
X0145329Y0073479D01*
X0145256Y0073582D01*
X0145187Y0073687D01*
X0145121Y0073795D01*
X0145058Y0073904D01*
X0144998Y0074016D01*
X0144942Y0074129D01*
X0144890Y0074244D01*
X0144842Y0074360D01*
X0144797Y0074479D01*
X0144756Y0074598D01*
X0144718Y0074719D01*
X0144685Y0074840D01*
X0144655Y0074963D01*
X0144630Y0075087D01*
X0144608Y0075211D01*
X0144590Y0075336D01*
X0144576Y0075462D01*
X0144566Y0075588D01*
X0144560Y0075714D01*
X0144558Y0075840D01*
X0146558Y0025840D02*
X0146560Y0025966D01*
X0146566Y0026092D01*
X0146576Y0026218D01*
X0146590Y0026344D01*
X0146608Y0026469D01*
X0146630Y0026593D01*
X0146655Y0026717D01*
X0146685Y0026840D01*
X0146718Y0026961D01*
X0146756Y0027082D01*
X0146797Y0027201D01*
X0146842Y0027320D01*
X0146890Y0027436D01*
X0146942Y0027551D01*
X0146998Y0027664D01*
X0147058Y0027776D01*
X0147121Y0027885D01*
X0147187Y0027993D01*
X0147256Y0028098D01*
X0147329Y0028201D01*
X0147406Y0028302D01*
X0147485Y0028400D01*
X0147567Y0028496D01*
X0147653Y0028589D01*
X0147741Y0028680D01*
X0147832Y0028767D01*
X0147926Y0028852D01*
X0148022Y0028933D01*
X0148121Y0029012D01*
X0148222Y0029087D01*
X0148326Y0029159D01*
X0148432Y0029228D01*
X0148540Y0029294D01*
X0148650Y0029356D01*
X0148762Y0029414D01*
X0148875Y0029469D01*
X0148991Y0029520D01*
X0149108Y0029568D01*
X0149226Y0029612D01*
X0149346Y0029652D01*
X0149467Y0029688D01*
X0149589Y0029721D01*
X0149712Y0029750D01*
X0149836Y0029774D01*
X0149960Y0029795D01*
X0150085Y0029812D01*
X0150211Y0029825D01*
X0150337Y0029834D01*
X0150463Y0029839D01*
X0150590Y0029840D01*
X0150716Y0029837D01*
X0150842Y0029830D01*
X0150968Y0029819D01*
X0151093Y0029804D01*
X0151218Y0029785D01*
X0151342Y0029762D01*
X0151466Y0029736D01*
X0151588Y0029705D01*
X0151710Y0029671D01*
X0151830Y0029632D01*
X0151949Y0029590D01*
X0152067Y0029545D01*
X0152183Y0029495D01*
X0152298Y0029442D01*
X0152410Y0029385D01*
X0152521Y0029325D01*
X0152630Y0029261D01*
X0152737Y0029194D01*
X0152842Y0029124D01*
X0152945Y0029050D01*
X0153045Y0028973D01*
X0153143Y0028893D01*
X0153238Y0028810D01*
X0153330Y0028724D01*
X0153420Y0028635D01*
X0153507Y0028543D01*
X0153590Y0028449D01*
X0153671Y0028352D01*
X0153749Y0028252D01*
X0153824Y0028150D01*
X0153895Y0028046D01*
X0153963Y0027939D01*
X0154027Y0027831D01*
X0154088Y0027720D01*
X0154146Y0027608D01*
X0154200Y0027494D01*
X0154250Y0027378D01*
X0154297Y0027261D01*
X0154340Y0027142D01*
X0154379Y0027022D01*
X0154415Y0026901D01*
X0154446Y0026778D01*
X0154474Y0026655D01*
X0154498Y0026531D01*
X0154518Y0026406D01*
X0154534Y0026281D01*
X0154546Y0026155D01*
X0154554Y0026029D01*
X0154558Y0025903D01*
X0154558Y0025777D01*
X0154554Y0025651D01*
X0154546Y0025525D01*
X0154534Y0025399D01*
X0154518Y0025274D01*
X0154498Y0025149D01*
X0154474Y0025025D01*
X0154446Y0024902D01*
X0154415Y0024779D01*
X0154379Y0024658D01*
X0154340Y0024538D01*
X0154297Y0024419D01*
X0154250Y0024302D01*
X0154200Y0024186D01*
X0154146Y0024072D01*
X0154088Y0023960D01*
X0154027Y0023849D01*
X0153963Y0023741D01*
X0153895Y0023634D01*
X0153824Y0023530D01*
X0153749Y0023428D01*
X0153671Y0023328D01*
X0153590Y0023231D01*
X0153507Y0023137D01*
X0153420Y0023045D01*
X0153330Y0022956D01*
X0153238Y0022870D01*
X0153143Y0022787D01*
X0153045Y0022707D01*
X0152945Y0022630D01*
X0152842Y0022556D01*
X0152737Y0022486D01*
X0152630Y0022419D01*
X0152521Y0022355D01*
X0152410Y0022295D01*
X0152298Y0022238D01*
X0152183Y0022185D01*
X0152067Y0022135D01*
X0151949Y0022090D01*
X0151830Y0022048D01*
X0151710Y0022009D01*
X0151588Y0021975D01*
X0151466Y0021944D01*
X0151342Y0021918D01*
X0151218Y0021895D01*
X0151093Y0021876D01*
X0150968Y0021861D01*
X0150842Y0021850D01*
X0150716Y0021843D01*
X0150590Y0021840D01*
X0150463Y0021841D01*
X0150337Y0021846D01*
X0150211Y0021855D01*
X0150085Y0021868D01*
X0149960Y0021885D01*
X0149836Y0021906D01*
X0149712Y0021930D01*
X0149589Y0021959D01*
X0149467Y0021992D01*
X0149346Y0022028D01*
X0149226Y0022068D01*
X0149108Y0022112D01*
X0148991Y0022160D01*
X0148875Y0022211D01*
X0148762Y0022266D01*
X0148650Y0022324D01*
X0148540Y0022386D01*
X0148432Y0022452D01*
X0148326Y0022521D01*
X0148222Y0022593D01*
X0148121Y0022668D01*
X0148022Y0022747D01*
X0147926Y0022828D01*
X0147832Y0022913D01*
X0147741Y0023000D01*
X0147653Y0023091D01*
X0147567Y0023184D01*
X0147485Y0023280D01*
X0147406Y0023378D01*
X0147329Y0023479D01*
X0147256Y0023582D01*
X0147187Y0023687D01*
X0147121Y0023795D01*
X0147058Y0023904D01*
X0146998Y0024016D01*
X0146942Y0024129D01*
X0146890Y0024244D01*
X0146842Y0024360D01*
X0146797Y0024479D01*
X0146756Y0024598D01*
X0146718Y0024719D01*
X0146685Y0024840D01*
X0146655Y0024963D01*
X0146630Y0025087D01*
X0146608Y0025211D01*
X0146590Y0025336D01*
X0146576Y0025462D01*
X0146566Y0025588D01*
X0146560Y0025714D01*
X0146558Y0025840D01*
D11*
X0141558Y0014840D02*
X0142041Y0014846D01*
X0142524Y0014863D01*
X0143007Y0014893D01*
X0143488Y0014933D01*
X0143969Y0014986D01*
X0144448Y0015050D01*
X0144925Y0015125D01*
X0145401Y0015213D01*
X0145874Y0015311D01*
X0146344Y0015421D01*
X0146812Y0015542D01*
X0147277Y0015675D01*
X0147738Y0015819D01*
X0148196Y0015974D01*
X0148650Y0016140D01*
X0149100Y0016317D01*
X0149545Y0016504D01*
X0149986Y0016703D01*
X0150422Y0016911D01*
X0150852Y0017131D01*
X0151278Y0017361D01*
X0151697Y0017601D01*
X0152111Y0017851D01*
X0152518Y0018111D01*
X0152919Y0018380D01*
X0153314Y0018660D01*
X0153701Y0018948D01*
X0154082Y0019247D01*
X0154455Y0019554D01*
X0154820Y0019870D01*
X0155178Y0020195D01*
X0155528Y0020528D01*
X0155870Y0020870D01*
X0156203Y0021220D01*
X0156528Y0021578D01*
X0156844Y0021943D01*
X0157151Y0022316D01*
X0157450Y0022697D01*
X0157738Y0023084D01*
X0158018Y0023479D01*
X0158287Y0023880D01*
X0158547Y0024287D01*
X0158797Y0024701D01*
X0159037Y0025120D01*
X0159267Y0025546D01*
X0159487Y0025976D01*
X0159695Y0026412D01*
X0159894Y0026853D01*
X0160081Y0027298D01*
X0160258Y0027748D01*
X0160424Y0028202D01*
X0160579Y0028660D01*
X0160723Y0029121D01*
X0160856Y0029586D01*
X0160977Y0030054D01*
X0161087Y0030524D01*
X0161185Y0030997D01*
X0161273Y0031473D01*
X0161348Y0031950D01*
X0161412Y0032429D01*
X0161465Y0032910D01*
X0161505Y0033391D01*
X0161535Y0033874D01*
X0161552Y0034357D01*
X0161558Y0034840D01*
X0161558Y0054431D01*
X0161557Y0054431D02*
X0161246Y0054570D01*
X0160938Y0054717D01*
X0160634Y0054872D01*
X0160334Y0055034D01*
X0160038Y0055203D01*
X0159746Y0055379D01*
X0159458Y0055563D01*
X0159175Y0055753D01*
X0158897Y0055950D01*
X0158624Y0056154D01*
X0158355Y0056365D01*
X0158092Y0056582D01*
X0157835Y0056806D01*
X0157583Y0057036D01*
X0157336Y0057271D01*
X0157096Y0057513D01*
X0156861Y0057761D01*
X0156633Y0058014D01*
X0156411Y0058273D01*
X0156195Y0058537D01*
X0155986Y0058807D01*
X0155783Y0059081D01*
X0155587Y0059360D01*
X0155398Y0059644D01*
X0155216Y0059933D01*
X0155041Y0060226D01*
X0154874Y0060523D01*
X0154714Y0060824D01*
X0154561Y0061129D01*
X0154415Y0061437D01*
X0154277Y0061749D01*
X0154147Y0062065D01*
X0154025Y0062383D01*
X0153910Y0062704D01*
X0153804Y0063028D01*
X0153705Y0063355D01*
X0153614Y0063684D01*
X0153532Y0064015D01*
X0153457Y0064347D01*
X0153391Y0064682D01*
X0153333Y0065018D01*
X0153283Y0065356D01*
X0153241Y0065694D01*
X0153208Y0066034D01*
X0153183Y0066374D01*
X0153166Y0066714D01*
X0153158Y0067055D01*
X0153158Y0067397D01*
X0153166Y0067738D01*
X0153183Y0068078D01*
X0153208Y0068418D01*
X0153241Y0068758D01*
X0153283Y0069096D01*
X0153333Y0069434D01*
X0153391Y0069770D01*
X0153457Y0070105D01*
X0153532Y0070437D01*
X0153614Y0070768D01*
X0153705Y0071097D01*
X0153804Y0071424D01*
X0153910Y0071748D01*
X0154025Y0072069D01*
X0154147Y0072387D01*
X0154277Y0072703D01*
X0154415Y0073015D01*
X0154561Y0073323D01*
X0154714Y0073628D01*
X0154874Y0073929D01*
X0155041Y0074226D01*
X0155216Y0074519D01*
X0155398Y0074808D01*
X0155587Y0075092D01*
X0155783Y0075371D01*
X0155986Y0075645D01*
X0156195Y0075915D01*
X0156411Y0076179D01*
X0156633Y0076438D01*
X0156861Y0076691D01*
X0157096Y0076939D01*
X0157336Y0077181D01*
X0157583Y0077416D01*
X0157835Y0077646D01*
X0158092Y0077870D01*
X0158355Y0078087D01*
X0158624Y0078298D01*
X0158897Y0078502D01*
X0159175Y0078699D01*
X0159458Y0078889D01*
X0159746Y0079073D01*
X0160038Y0079249D01*
X0160334Y0079418D01*
X0160634Y0079580D01*
X0160938Y0079735D01*
X0161246Y0079882D01*
X0161557Y0080021D01*
X0161558Y0080021D02*
X0161558Y0143840D01*
X0161553Y0144227D01*
X0161539Y0144613D01*
X0161516Y0144999D01*
X0161483Y0145384D01*
X0161441Y0145769D01*
X0161390Y0146152D01*
X0161330Y0146534D01*
X0161260Y0146914D01*
X0161181Y0147293D01*
X0161093Y0147669D01*
X0160996Y0148043D01*
X0160890Y0148415D01*
X0160775Y0148784D01*
X0160651Y0149151D01*
X0160518Y0149514D01*
X0160377Y0149874D01*
X0160227Y0150230D01*
X0160068Y0150582D01*
X0159901Y0150931D01*
X0159725Y0151276D01*
X0159541Y0151616D01*
X0159350Y0151951D01*
X0159149Y0152282D01*
X0158942Y0152608D01*
X0158726Y0152929D01*
X0158502Y0153245D01*
X0158271Y0153555D01*
X0158033Y0153859D01*
X0157787Y0154157D01*
X0157534Y0154450D01*
X0157274Y0154736D01*
X0157008Y0155016D01*
X0156734Y0155290D01*
X0156454Y0155556D01*
X0156168Y0155816D01*
X0155875Y0156069D01*
X0155577Y0156315D01*
X0155273Y0156553D01*
X0154963Y0156784D01*
X0154647Y0157008D01*
X0154326Y0157224D01*
X0154000Y0157431D01*
X0153669Y0157632D01*
X0153334Y0157823D01*
X0152994Y0158007D01*
X0152649Y0158183D01*
X0152300Y0158350D01*
X0151948Y0158509D01*
X0151592Y0158659D01*
X0151232Y0158800D01*
X0150869Y0158933D01*
X0150502Y0159057D01*
X0150133Y0159172D01*
X0149761Y0159278D01*
X0149387Y0159375D01*
X0149011Y0159463D01*
X0148632Y0159542D01*
X0148252Y0159612D01*
X0147870Y0159672D01*
X0147487Y0159723D01*
X0147102Y0159765D01*
X0146717Y0159798D01*
X0146331Y0159821D01*
X0145945Y0159835D01*
X0145558Y0159840D01*
X0082739Y0159840D01*
X0082600Y0159529D01*
X0082453Y0159221D01*
X0082298Y0158917D01*
X0082136Y0158617D01*
X0081967Y0158321D01*
X0081791Y0158029D01*
X0081607Y0157741D01*
X0081417Y0157458D01*
X0081220Y0157180D01*
X0081016Y0156907D01*
X0080805Y0156638D01*
X0080588Y0156375D01*
X0080364Y0156118D01*
X0080134Y0155866D01*
X0079899Y0155619D01*
X0079657Y0155379D01*
X0079409Y0155144D01*
X0079156Y0154916D01*
X0078897Y0154694D01*
X0078633Y0154478D01*
X0078363Y0154269D01*
X0078089Y0154066D01*
X0077810Y0153870D01*
X0077526Y0153681D01*
X0077237Y0153499D01*
X0076944Y0153324D01*
X0076647Y0153157D01*
X0076346Y0152997D01*
X0076041Y0152844D01*
X0075733Y0152698D01*
X0075421Y0152560D01*
X0075105Y0152430D01*
X0074787Y0152308D01*
X0074466Y0152193D01*
X0074142Y0152087D01*
X0073815Y0151988D01*
X0073486Y0151897D01*
X0073155Y0151815D01*
X0072823Y0151740D01*
X0072488Y0151674D01*
X0072152Y0151616D01*
X0071814Y0151566D01*
X0071476Y0151524D01*
X0071136Y0151491D01*
X0070796Y0151466D01*
X0070456Y0151449D01*
X0070115Y0151441D01*
X0069773Y0151441D01*
X0069432Y0151449D01*
X0069092Y0151466D01*
X0068752Y0151491D01*
X0068412Y0151524D01*
X0068074Y0151566D01*
X0067736Y0151616D01*
X0067400Y0151674D01*
X0067065Y0151740D01*
X0066733Y0151815D01*
X0066402Y0151897D01*
X0066073Y0151988D01*
X0065746Y0152087D01*
X0065422Y0152193D01*
X0065101Y0152308D01*
X0064783Y0152430D01*
X0064467Y0152560D01*
X0064155Y0152698D01*
X0063847Y0152844D01*
X0063542Y0152997D01*
X0063241Y0153157D01*
X0062944Y0153324D01*
X0062651Y0153499D01*
X0062362Y0153681D01*
X0062078Y0153870D01*
X0061799Y0154066D01*
X0061525Y0154269D01*
X0061255Y0154478D01*
X0060991Y0154694D01*
X0060732Y0154916D01*
X0060479Y0155144D01*
X0060231Y0155379D01*
X0059989Y0155619D01*
X0059754Y0155866D01*
X0059524Y0156118D01*
X0059300Y0156375D01*
X0059083Y0156638D01*
X0058872Y0156907D01*
X0058668Y0157180D01*
X0058471Y0157458D01*
X0058281Y0157741D01*
X0058097Y0158029D01*
X0057921Y0158321D01*
X0057752Y0158617D01*
X0057590Y0158917D01*
X0057435Y0159221D01*
X0057288Y0159529D01*
X0057149Y0159840D01*
X0057148Y0159840D02*
X0036558Y0159840D01*
X0036075Y0159834D01*
X0035592Y0159817D01*
X0035109Y0159787D01*
X0034628Y0159747D01*
X0034147Y0159694D01*
X0033668Y0159630D01*
X0033191Y0159555D01*
X0032715Y0159467D01*
X0032242Y0159369D01*
X0031772Y0159259D01*
X0031304Y0159138D01*
X0030839Y0159005D01*
X0030378Y0158861D01*
X0029920Y0158706D01*
X0029466Y0158540D01*
X0029016Y0158363D01*
X0028571Y0158176D01*
X0028130Y0157977D01*
X0027694Y0157769D01*
X0027264Y0157549D01*
X0026838Y0157319D01*
X0026419Y0157079D01*
X0026005Y0156829D01*
X0025598Y0156569D01*
X0025197Y0156300D01*
X0024802Y0156020D01*
X0024415Y0155732D01*
X0024034Y0155433D01*
X0023661Y0155126D01*
X0023296Y0154810D01*
X0022938Y0154485D01*
X0022588Y0154152D01*
X0022246Y0153810D01*
X0021913Y0153460D01*
X0021588Y0153102D01*
X0021272Y0152737D01*
X0020965Y0152364D01*
X0020666Y0151983D01*
X0020378Y0151596D01*
X0020098Y0151201D01*
X0019829Y0150800D01*
X0019569Y0150393D01*
X0019319Y0149979D01*
X0019079Y0149560D01*
X0018849Y0149134D01*
X0018629Y0148704D01*
X0018421Y0148268D01*
X0018222Y0147827D01*
X0018035Y0147382D01*
X0017858Y0146932D01*
X0017692Y0146478D01*
X0017537Y0146020D01*
X0017393Y0145559D01*
X0017260Y0145094D01*
X0017139Y0144626D01*
X0017029Y0144156D01*
X0016931Y0143683D01*
X0016843Y0143207D01*
X0016768Y0142730D01*
X0016704Y0142251D01*
X0016651Y0141770D01*
X0016611Y0141289D01*
X0016581Y0140806D01*
X0016564Y0140323D01*
X0016558Y0139840D01*
X0016558Y0061021D01*
X0016558Y0061022D02*
X0016918Y0060860D01*
X0017274Y0060690D01*
X0017626Y0060512D01*
X0017973Y0060325D01*
X0018316Y0060129D01*
X0018653Y0059925D01*
X0018986Y0059713D01*
X0019313Y0059493D01*
X0019635Y0059264D01*
X0019951Y0059028D01*
X0020261Y0058785D01*
X0020565Y0058534D01*
X0020863Y0058275D01*
X0021154Y0058010D01*
X0021439Y0057737D01*
X0021718Y0057457D01*
X0021989Y0057171D01*
X0022253Y0056878D01*
X0022510Y0056579D01*
X0022759Y0056273D01*
X0023001Y0055962D01*
X0023236Y0055644D01*
X0023462Y0055321D01*
X0023680Y0054993D01*
X0023891Y0054659D01*
X0024093Y0054321D01*
X0024287Y0053977D01*
X0024472Y0053629D01*
X0024649Y0053276D01*
X0024817Y0052920D01*
X0024976Y0052559D01*
X0025127Y0052194D01*
X0025268Y0051826D01*
X0025401Y0051455D01*
X0025524Y0051080D01*
X0025638Y0050702D01*
X0025743Y0050322D01*
X0025839Y0049939D01*
X0025925Y0049555D01*
X0026001Y0049168D01*
X0026069Y0048779D01*
X0026126Y0048389D01*
X0026174Y0047997D01*
X0026213Y0047605D01*
X0026242Y0047211D01*
X0026261Y0046818D01*
X0026271Y0046423D01*
X0026271Y0046029D01*
X0026261Y0045634D01*
X0026242Y0045241D01*
X0026213Y0044847D01*
X0026174Y0044455D01*
X0026126Y0044063D01*
X0026069Y0043673D01*
X0026001Y0043284D01*
X0025925Y0042897D01*
X0025839Y0042513D01*
X0025743Y0042130D01*
X0025638Y0041750D01*
X0025524Y0041372D01*
X0025401Y0040997D01*
X0025268Y0040626D01*
X0025127Y0040258D01*
X0024976Y0039893D01*
X0024817Y0039532D01*
X0024649Y0039176D01*
X0024472Y0038823D01*
X0024287Y0038475D01*
X0024093Y0038131D01*
X0023891Y0037793D01*
X0023680Y0037459D01*
X0023462Y0037131D01*
X0023236Y0036808D01*
X0023001Y0036490D01*
X0022759Y0036179D01*
X0022510Y0035873D01*
X0022253Y0035574D01*
X0021989Y0035281D01*
X0021718Y0034995D01*
X0021439Y0034715D01*
X0021154Y0034442D01*
X0020863Y0034177D01*
X0020565Y0033918D01*
X0020261Y0033667D01*
X0019951Y0033424D01*
X0019635Y0033188D01*
X0019313Y0032959D01*
X0018986Y0032739D01*
X0018653Y0032527D01*
X0018316Y0032323D01*
X0017973Y0032127D01*
X0017626Y0031940D01*
X0017274Y0031762D01*
X0016918Y0031592D01*
X0016558Y0031430D01*
X0016558Y0031431D02*
X0016558Y0031089D01*
X0016550Y0030708D01*
X0016552Y0030328D01*
X0016563Y0029947D01*
X0016583Y0029567D01*
X0016612Y0029187D01*
X0016651Y0028808D01*
X0016699Y0028431D01*
X0016755Y0028054D01*
X0016821Y0027679D01*
X0016896Y0027306D01*
X0016980Y0026934D01*
X0017073Y0026565D01*
X0017174Y0026198D01*
X0017285Y0025834D01*
X0017404Y0025472D01*
X0017532Y0025114D01*
X0017669Y0024758D01*
X0017814Y0024406D01*
X0017967Y0024058D01*
X0018129Y0023713D01*
X0018300Y0023373D01*
X0018478Y0023036D01*
X0018665Y0022704D01*
X0018859Y0022377D01*
X0019062Y0022055D01*
X0019272Y0021737D01*
X0019489Y0021425D01*
X0019715Y0021118D01*
X0019947Y0020816D01*
X0020187Y0020520D01*
X0020434Y0020230D01*
X0020687Y0019947D01*
X0020948Y0019669D01*
X0021215Y0019398D01*
X0021489Y0019133D01*
X0021769Y0018875D01*
X0022055Y0018624D01*
X0022347Y0018380D01*
X0022645Y0018142D01*
X0022949Y0017913D01*
X0023258Y0017690D01*
X0023572Y0017475D01*
X0023891Y0017268D01*
X0024216Y0017069D01*
X0024545Y0016877D01*
X0024878Y0016694D01*
X0025216Y0016518D01*
X0025558Y0016351D01*
X0025904Y0016192D01*
X0026254Y0016042D01*
X0026607Y0015900D01*
X0026964Y0015766D01*
X0027324Y0015641D01*
X0027686Y0015525D01*
X0028052Y0015418D01*
X0028420Y0015320D01*
X0028790Y0015230D01*
X0029162Y0015150D01*
X0029536Y0015078D01*
X0029911Y0015016D01*
X0030288Y0014963D01*
X0030667Y0014919D01*
X0031046Y0014883D01*
X0031426Y0014858D01*
X0031806Y0014841D01*
X0031806Y0014840D02*
X0032148Y0014840D01*
X0032310Y0015200D01*
X0032480Y0015556D01*
X0032658Y0015908D01*
X0032845Y0016255D01*
X0033041Y0016598D01*
X0033245Y0016935D01*
X0033457Y0017268D01*
X0033677Y0017595D01*
X0033906Y0017917D01*
X0034142Y0018233D01*
X0034385Y0018543D01*
X0034636Y0018847D01*
X0034895Y0019145D01*
X0035160Y0019436D01*
X0035433Y0019721D01*
X0035713Y0020000D01*
X0035999Y0020271D01*
X0036292Y0020535D01*
X0036591Y0020792D01*
X0036897Y0021041D01*
X0037208Y0021283D01*
X0037526Y0021518D01*
X0037849Y0021744D01*
X0038177Y0021962D01*
X0038511Y0022173D01*
X0038849Y0022375D01*
X0039193Y0022569D01*
X0039541Y0022754D01*
X0039894Y0022931D01*
X0040250Y0023099D01*
X0040611Y0023258D01*
X0040976Y0023409D01*
X0041344Y0023550D01*
X0041715Y0023683D01*
X0042090Y0023806D01*
X0042468Y0023920D01*
X0042848Y0024025D01*
X0043231Y0024121D01*
X0043615Y0024207D01*
X0044002Y0024283D01*
X0044391Y0024351D01*
X0044781Y0024408D01*
X0045173Y0024456D01*
X0045565Y0024495D01*
X0045959Y0024524D01*
X0046352Y0024543D01*
X0046747Y0024553D01*
X0047141Y0024553D01*
X0047536Y0024543D01*
X0047929Y0024524D01*
X0048323Y0024495D01*
X0048715Y0024456D01*
X0049107Y0024408D01*
X0049497Y0024351D01*
X0049886Y0024283D01*
X0050273Y0024207D01*
X0050657Y0024121D01*
X0051040Y0024025D01*
X0051420Y0023920D01*
X0051798Y0023806D01*
X0052173Y0023683D01*
X0052544Y0023550D01*
X0052912Y0023409D01*
X0053277Y0023258D01*
X0053638Y0023099D01*
X0053994Y0022931D01*
X0054347Y0022754D01*
X0054695Y0022569D01*
X0055039Y0022375D01*
X0055377Y0022173D01*
X0055711Y0021962D01*
X0056039Y0021744D01*
X0056362Y0021518D01*
X0056680Y0021283D01*
X0056991Y0021041D01*
X0057297Y0020792D01*
X0057596Y0020535D01*
X0057889Y0020271D01*
X0058175Y0020000D01*
X0058455Y0019721D01*
X0058728Y0019436D01*
X0058993Y0019145D01*
X0059252Y0018847D01*
X0059503Y0018543D01*
X0059746Y0018233D01*
X0059982Y0017917D01*
X0060211Y0017595D01*
X0060431Y0017268D01*
X0060643Y0016935D01*
X0060847Y0016598D01*
X0061043Y0016255D01*
X0061230Y0015908D01*
X0061408Y0015556D01*
X0061578Y0015200D01*
X0061740Y0014840D01*
X0061739Y0014840D02*
X0141558Y0014840D01*
M02*
