G75*
%MOIN*%
%OFA0B0*%
%FSLAX25Y25*%
%IPPOS*%
%LPD*%
%AMOC8*
5,1,8,0,0,1.08239X$1,22.5*
%
%ADD10C,0.08600*%
%ADD11C,0.15600*%
%ADD12C,0.07000*%
%ADD13C,0.04600*%
%ADD14C,0.03300*%
D10*
X0026558Y0025840D03*
X0148558Y0075840D03*
X0150558Y0025840D03*
X0108558Y0148840D03*
X0027558Y0148840D03*
D11*
X0058558Y0117840D03*
X0119558Y0117840D03*
X0119558Y0056840D03*
X0058558Y0056840D03*
D12*
X0040858Y0056840D02*
X0040863Y0057274D01*
X0040879Y0057708D01*
X0040906Y0058142D01*
X0040943Y0058575D01*
X0040991Y0059007D01*
X0041050Y0059437D01*
X0041119Y0059866D01*
X0041198Y0060293D01*
X0041288Y0060718D01*
X0041388Y0061141D01*
X0041499Y0061561D01*
X0041620Y0061978D01*
X0041751Y0062392D01*
X0041893Y0062803D01*
X0042044Y0063210D01*
X0042205Y0063613D01*
X0042376Y0064013D01*
X0042557Y0064408D01*
X0042748Y0064798D01*
X0042948Y0065184D01*
X0043157Y0065564D01*
X0043376Y0065940D01*
X0043604Y0066309D01*
X0043841Y0066674D01*
X0044087Y0067032D01*
X0044341Y0067384D01*
X0044604Y0067730D01*
X0044876Y0068069D01*
X0045155Y0068401D01*
X0045443Y0068727D01*
X0045739Y0069045D01*
X0046042Y0069356D01*
X0046353Y0069659D01*
X0046671Y0069955D01*
X0046997Y0070243D01*
X0047329Y0070522D01*
X0047668Y0070794D01*
X0048014Y0071057D01*
X0048366Y0071311D01*
X0048724Y0071557D01*
X0049089Y0071794D01*
X0049458Y0072022D01*
X0049834Y0072241D01*
X0050214Y0072450D01*
X0050600Y0072650D01*
X0050990Y0072841D01*
X0051385Y0073022D01*
X0051785Y0073193D01*
X0052188Y0073354D01*
X0052595Y0073505D01*
X0053006Y0073647D01*
X0053420Y0073778D01*
X0053837Y0073899D01*
X0054257Y0074010D01*
X0054680Y0074110D01*
X0055105Y0074200D01*
X0055532Y0074279D01*
X0055961Y0074348D01*
X0056391Y0074407D01*
X0056823Y0074455D01*
X0057256Y0074492D01*
X0057690Y0074519D01*
X0058124Y0074535D01*
X0058558Y0074540D01*
X0058992Y0074535D01*
X0059426Y0074519D01*
X0059860Y0074492D01*
X0060293Y0074455D01*
X0060725Y0074407D01*
X0061155Y0074348D01*
X0061584Y0074279D01*
X0062011Y0074200D01*
X0062436Y0074110D01*
X0062859Y0074010D01*
X0063279Y0073899D01*
X0063696Y0073778D01*
X0064110Y0073647D01*
X0064521Y0073505D01*
X0064928Y0073354D01*
X0065331Y0073193D01*
X0065731Y0073022D01*
X0066126Y0072841D01*
X0066516Y0072650D01*
X0066902Y0072450D01*
X0067282Y0072241D01*
X0067658Y0072022D01*
X0068027Y0071794D01*
X0068392Y0071557D01*
X0068750Y0071311D01*
X0069102Y0071057D01*
X0069448Y0070794D01*
X0069787Y0070522D01*
X0070119Y0070243D01*
X0070445Y0069955D01*
X0070763Y0069659D01*
X0071074Y0069356D01*
X0071377Y0069045D01*
X0071673Y0068727D01*
X0071961Y0068401D01*
X0072240Y0068069D01*
X0072512Y0067730D01*
X0072775Y0067384D01*
X0073029Y0067032D01*
X0073275Y0066674D01*
X0073512Y0066309D01*
X0073740Y0065940D01*
X0073959Y0065564D01*
X0074168Y0065184D01*
X0074368Y0064798D01*
X0074559Y0064408D01*
X0074740Y0064013D01*
X0074911Y0063613D01*
X0075072Y0063210D01*
X0075223Y0062803D01*
X0075365Y0062392D01*
X0075496Y0061978D01*
X0075617Y0061561D01*
X0075728Y0061141D01*
X0075828Y0060718D01*
X0075918Y0060293D01*
X0075997Y0059866D01*
X0076066Y0059437D01*
X0076125Y0059007D01*
X0076173Y0058575D01*
X0076210Y0058142D01*
X0076237Y0057708D01*
X0076253Y0057274D01*
X0076258Y0056840D01*
X0076253Y0056406D01*
X0076237Y0055972D01*
X0076210Y0055538D01*
X0076173Y0055105D01*
X0076125Y0054673D01*
X0076066Y0054243D01*
X0075997Y0053814D01*
X0075918Y0053387D01*
X0075828Y0052962D01*
X0075728Y0052539D01*
X0075617Y0052119D01*
X0075496Y0051702D01*
X0075365Y0051288D01*
X0075223Y0050877D01*
X0075072Y0050470D01*
X0074911Y0050067D01*
X0074740Y0049667D01*
X0074559Y0049272D01*
X0074368Y0048882D01*
X0074168Y0048496D01*
X0073959Y0048116D01*
X0073740Y0047740D01*
X0073512Y0047371D01*
X0073275Y0047006D01*
X0073029Y0046648D01*
X0072775Y0046296D01*
X0072512Y0045950D01*
X0072240Y0045611D01*
X0071961Y0045279D01*
X0071673Y0044953D01*
X0071377Y0044635D01*
X0071074Y0044324D01*
X0070763Y0044021D01*
X0070445Y0043725D01*
X0070119Y0043437D01*
X0069787Y0043158D01*
X0069448Y0042886D01*
X0069102Y0042623D01*
X0068750Y0042369D01*
X0068392Y0042123D01*
X0068027Y0041886D01*
X0067658Y0041658D01*
X0067282Y0041439D01*
X0066902Y0041230D01*
X0066516Y0041030D01*
X0066126Y0040839D01*
X0065731Y0040658D01*
X0065331Y0040487D01*
X0064928Y0040326D01*
X0064521Y0040175D01*
X0064110Y0040033D01*
X0063696Y0039902D01*
X0063279Y0039781D01*
X0062859Y0039670D01*
X0062436Y0039570D01*
X0062011Y0039480D01*
X0061584Y0039401D01*
X0061155Y0039332D01*
X0060725Y0039273D01*
X0060293Y0039225D01*
X0059860Y0039188D01*
X0059426Y0039161D01*
X0058992Y0039145D01*
X0058558Y0039140D01*
X0058124Y0039145D01*
X0057690Y0039161D01*
X0057256Y0039188D01*
X0056823Y0039225D01*
X0056391Y0039273D01*
X0055961Y0039332D01*
X0055532Y0039401D01*
X0055105Y0039480D01*
X0054680Y0039570D01*
X0054257Y0039670D01*
X0053837Y0039781D01*
X0053420Y0039902D01*
X0053006Y0040033D01*
X0052595Y0040175D01*
X0052188Y0040326D01*
X0051785Y0040487D01*
X0051385Y0040658D01*
X0050990Y0040839D01*
X0050600Y0041030D01*
X0050214Y0041230D01*
X0049834Y0041439D01*
X0049458Y0041658D01*
X0049089Y0041886D01*
X0048724Y0042123D01*
X0048366Y0042369D01*
X0048014Y0042623D01*
X0047668Y0042886D01*
X0047329Y0043158D01*
X0046997Y0043437D01*
X0046671Y0043725D01*
X0046353Y0044021D01*
X0046042Y0044324D01*
X0045739Y0044635D01*
X0045443Y0044953D01*
X0045155Y0045279D01*
X0044876Y0045611D01*
X0044604Y0045950D01*
X0044341Y0046296D01*
X0044087Y0046648D01*
X0043841Y0047006D01*
X0043604Y0047371D01*
X0043376Y0047740D01*
X0043157Y0048116D01*
X0042948Y0048496D01*
X0042748Y0048882D01*
X0042557Y0049272D01*
X0042376Y0049667D01*
X0042205Y0050067D01*
X0042044Y0050470D01*
X0041893Y0050877D01*
X0041751Y0051288D01*
X0041620Y0051702D01*
X0041499Y0052119D01*
X0041388Y0052539D01*
X0041288Y0052962D01*
X0041198Y0053387D01*
X0041119Y0053814D01*
X0041050Y0054243D01*
X0040991Y0054673D01*
X0040943Y0055105D01*
X0040906Y0055538D01*
X0040879Y0055972D01*
X0040863Y0056406D01*
X0040858Y0056840D01*
X0040858Y0117840D02*
X0040863Y0118274D01*
X0040879Y0118708D01*
X0040906Y0119142D01*
X0040943Y0119575D01*
X0040991Y0120007D01*
X0041050Y0120437D01*
X0041119Y0120866D01*
X0041198Y0121293D01*
X0041288Y0121718D01*
X0041388Y0122141D01*
X0041499Y0122561D01*
X0041620Y0122978D01*
X0041751Y0123392D01*
X0041893Y0123803D01*
X0042044Y0124210D01*
X0042205Y0124613D01*
X0042376Y0125013D01*
X0042557Y0125408D01*
X0042748Y0125798D01*
X0042948Y0126184D01*
X0043157Y0126564D01*
X0043376Y0126940D01*
X0043604Y0127309D01*
X0043841Y0127674D01*
X0044087Y0128032D01*
X0044341Y0128384D01*
X0044604Y0128730D01*
X0044876Y0129069D01*
X0045155Y0129401D01*
X0045443Y0129727D01*
X0045739Y0130045D01*
X0046042Y0130356D01*
X0046353Y0130659D01*
X0046671Y0130955D01*
X0046997Y0131243D01*
X0047329Y0131522D01*
X0047668Y0131794D01*
X0048014Y0132057D01*
X0048366Y0132311D01*
X0048724Y0132557D01*
X0049089Y0132794D01*
X0049458Y0133022D01*
X0049834Y0133241D01*
X0050214Y0133450D01*
X0050600Y0133650D01*
X0050990Y0133841D01*
X0051385Y0134022D01*
X0051785Y0134193D01*
X0052188Y0134354D01*
X0052595Y0134505D01*
X0053006Y0134647D01*
X0053420Y0134778D01*
X0053837Y0134899D01*
X0054257Y0135010D01*
X0054680Y0135110D01*
X0055105Y0135200D01*
X0055532Y0135279D01*
X0055961Y0135348D01*
X0056391Y0135407D01*
X0056823Y0135455D01*
X0057256Y0135492D01*
X0057690Y0135519D01*
X0058124Y0135535D01*
X0058558Y0135540D01*
X0058992Y0135535D01*
X0059426Y0135519D01*
X0059860Y0135492D01*
X0060293Y0135455D01*
X0060725Y0135407D01*
X0061155Y0135348D01*
X0061584Y0135279D01*
X0062011Y0135200D01*
X0062436Y0135110D01*
X0062859Y0135010D01*
X0063279Y0134899D01*
X0063696Y0134778D01*
X0064110Y0134647D01*
X0064521Y0134505D01*
X0064928Y0134354D01*
X0065331Y0134193D01*
X0065731Y0134022D01*
X0066126Y0133841D01*
X0066516Y0133650D01*
X0066902Y0133450D01*
X0067282Y0133241D01*
X0067658Y0133022D01*
X0068027Y0132794D01*
X0068392Y0132557D01*
X0068750Y0132311D01*
X0069102Y0132057D01*
X0069448Y0131794D01*
X0069787Y0131522D01*
X0070119Y0131243D01*
X0070445Y0130955D01*
X0070763Y0130659D01*
X0071074Y0130356D01*
X0071377Y0130045D01*
X0071673Y0129727D01*
X0071961Y0129401D01*
X0072240Y0129069D01*
X0072512Y0128730D01*
X0072775Y0128384D01*
X0073029Y0128032D01*
X0073275Y0127674D01*
X0073512Y0127309D01*
X0073740Y0126940D01*
X0073959Y0126564D01*
X0074168Y0126184D01*
X0074368Y0125798D01*
X0074559Y0125408D01*
X0074740Y0125013D01*
X0074911Y0124613D01*
X0075072Y0124210D01*
X0075223Y0123803D01*
X0075365Y0123392D01*
X0075496Y0122978D01*
X0075617Y0122561D01*
X0075728Y0122141D01*
X0075828Y0121718D01*
X0075918Y0121293D01*
X0075997Y0120866D01*
X0076066Y0120437D01*
X0076125Y0120007D01*
X0076173Y0119575D01*
X0076210Y0119142D01*
X0076237Y0118708D01*
X0076253Y0118274D01*
X0076258Y0117840D01*
X0076253Y0117406D01*
X0076237Y0116972D01*
X0076210Y0116538D01*
X0076173Y0116105D01*
X0076125Y0115673D01*
X0076066Y0115243D01*
X0075997Y0114814D01*
X0075918Y0114387D01*
X0075828Y0113962D01*
X0075728Y0113539D01*
X0075617Y0113119D01*
X0075496Y0112702D01*
X0075365Y0112288D01*
X0075223Y0111877D01*
X0075072Y0111470D01*
X0074911Y0111067D01*
X0074740Y0110667D01*
X0074559Y0110272D01*
X0074368Y0109882D01*
X0074168Y0109496D01*
X0073959Y0109116D01*
X0073740Y0108740D01*
X0073512Y0108371D01*
X0073275Y0108006D01*
X0073029Y0107648D01*
X0072775Y0107296D01*
X0072512Y0106950D01*
X0072240Y0106611D01*
X0071961Y0106279D01*
X0071673Y0105953D01*
X0071377Y0105635D01*
X0071074Y0105324D01*
X0070763Y0105021D01*
X0070445Y0104725D01*
X0070119Y0104437D01*
X0069787Y0104158D01*
X0069448Y0103886D01*
X0069102Y0103623D01*
X0068750Y0103369D01*
X0068392Y0103123D01*
X0068027Y0102886D01*
X0067658Y0102658D01*
X0067282Y0102439D01*
X0066902Y0102230D01*
X0066516Y0102030D01*
X0066126Y0101839D01*
X0065731Y0101658D01*
X0065331Y0101487D01*
X0064928Y0101326D01*
X0064521Y0101175D01*
X0064110Y0101033D01*
X0063696Y0100902D01*
X0063279Y0100781D01*
X0062859Y0100670D01*
X0062436Y0100570D01*
X0062011Y0100480D01*
X0061584Y0100401D01*
X0061155Y0100332D01*
X0060725Y0100273D01*
X0060293Y0100225D01*
X0059860Y0100188D01*
X0059426Y0100161D01*
X0058992Y0100145D01*
X0058558Y0100140D01*
X0058124Y0100145D01*
X0057690Y0100161D01*
X0057256Y0100188D01*
X0056823Y0100225D01*
X0056391Y0100273D01*
X0055961Y0100332D01*
X0055532Y0100401D01*
X0055105Y0100480D01*
X0054680Y0100570D01*
X0054257Y0100670D01*
X0053837Y0100781D01*
X0053420Y0100902D01*
X0053006Y0101033D01*
X0052595Y0101175D01*
X0052188Y0101326D01*
X0051785Y0101487D01*
X0051385Y0101658D01*
X0050990Y0101839D01*
X0050600Y0102030D01*
X0050214Y0102230D01*
X0049834Y0102439D01*
X0049458Y0102658D01*
X0049089Y0102886D01*
X0048724Y0103123D01*
X0048366Y0103369D01*
X0048014Y0103623D01*
X0047668Y0103886D01*
X0047329Y0104158D01*
X0046997Y0104437D01*
X0046671Y0104725D01*
X0046353Y0105021D01*
X0046042Y0105324D01*
X0045739Y0105635D01*
X0045443Y0105953D01*
X0045155Y0106279D01*
X0044876Y0106611D01*
X0044604Y0106950D01*
X0044341Y0107296D01*
X0044087Y0107648D01*
X0043841Y0108006D01*
X0043604Y0108371D01*
X0043376Y0108740D01*
X0043157Y0109116D01*
X0042948Y0109496D01*
X0042748Y0109882D01*
X0042557Y0110272D01*
X0042376Y0110667D01*
X0042205Y0111067D01*
X0042044Y0111470D01*
X0041893Y0111877D01*
X0041751Y0112288D01*
X0041620Y0112702D01*
X0041499Y0113119D01*
X0041388Y0113539D01*
X0041288Y0113962D01*
X0041198Y0114387D01*
X0041119Y0114814D01*
X0041050Y0115243D01*
X0040991Y0115673D01*
X0040943Y0116105D01*
X0040906Y0116538D01*
X0040879Y0116972D01*
X0040863Y0117406D01*
X0040858Y0117840D01*
X0101858Y0117840D02*
X0101863Y0118274D01*
X0101879Y0118708D01*
X0101906Y0119142D01*
X0101943Y0119575D01*
X0101991Y0120007D01*
X0102050Y0120437D01*
X0102119Y0120866D01*
X0102198Y0121293D01*
X0102288Y0121718D01*
X0102388Y0122141D01*
X0102499Y0122561D01*
X0102620Y0122978D01*
X0102751Y0123392D01*
X0102893Y0123803D01*
X0103044Y0124210D01*
X0103205Y0124613D01*
X0103376Y0125013D01*
X0103557Y0125408D01*
X0103748Y0125798D01*
X0103948Y0126184D01*
X0104157Y0126564D01*
X0104376Y0126940D01*
X0104604Y0127309D01*
X0104841Y0127674D01*
X0105087Y0128032D01*
X0105341Y0128384D01*
X0105604Y0128730D01*
X0105876Y0129069D01*
X0106155Y0129401D01*
X0106443Y0129727D01*
X0106739Y0130045D01*
X0107042Y0130356D01*
X0107353Y0130659D01*
X0107671Y0130955D01*
X0107997Y0131243D01*
X0108329Y0131522D01*
X0108668Y0131794D01*
X0109014Y0132057D01*
X0109366Y0132311D01*
X0109724Y0132557D01*
X0110089Y0132794D01*
X0110458Y0133022D01*
X0110834Y0133241D01*
X0111214Y0133450D01*
X0111600Y0133650D01*
X0111990Y0133841D01*
X0112385Y0134022D01*
X0112785Y0134193D01*
X0113188Y0134354D01*
X0113595Y0134505D01*
X0114006Y0134647D01*
X0114420Y0134778D01*
X0114837Y0134899D01*
X0115257Y0135010D01*
X0115680Y0135110D01*
X0116105Y0135200D01*
X0116532Y0135279D01*
X0116961Y0135348D01*
X0117391Y0135407D01*
X0117823Y0135455D01*
X0118256Y0135492D01*
X0118690Y0135519D01*
X0119124Y0135535D01*
X0119558Y0135540D01*
X0119992Y0135535D01*
X0120426Y0135519D01*
X0120860Y0135492D01*
X0121293Y0135455D01*
X0121725Y0135407D01*
X0122155Y0135348D01*
X0122584Y0135279D01*
X0123011Y0135200D01*
X0123436Y0135110D01*
X0123859Y0135010D01*
X0124279Y0134899D01*
X0124696Y0134778D01*
X0125110Y0134647D01*
X0125521Y0134505D01*
X0125928Y0134354D01*
X0126331Y0134193D01*
X0126731Y0134022D01*
X0127126Y0133841D01*
X0127516Y0133650D01*
X0127902Y0133450D01*
X0128282Y0133241D01*
X0128658Y0133022D01*
X0129027Y0132794D01*
X0129392Y0132557D01*
X0129750Y0132311D01*
X0130102Y0132057D01*
X0130448Y0131794D01*
X0130787Y0131522D01*
X0131119Y0131243D01*
X0131445Y0130955D01*
X0131763Y0130659D01*
X0132074Y0130356D01*
X0132377Y0130045D01*
X0132673Y0129727D01*
X0132961Y0129401D01*
X0133240Y0129069D01*
X0133512Y0128730D01*
X0133775Y0128384D01*
X0134029Y0128032D01*
X0134275Y0127674D01*
X0134512Y0127309D01*
X0134740Y0126940D01*
X0134959Y0126564D01*
X0135168Y0126184D01*
X0135368Y0125798D01*
X0135559Y0125408D01*
X0135740Y0125013D01*
X0135911Y0124613D01*
X0136072Y0124210D01*
X0136223Y0123803D01*
X0136365Y0123392D01*
X0136496Y0122978D01*
X0136617Y0122561D01*
X0136728Y0122141D01*
X0136828Y0121718D01*
X0136918Y0121293D01*
X0136997Y0120866D01*
X0137066Y0120437D01*
X0137125Y0120007D01*
X0137173Y0119575D01*
X0137210Y0119142D01*
X0137237Y0118708D01*
X0137253Y0118274D01*
X0137258Y0117840D01*
X0137253Y0117406D01*
X0137237Y0116972D01*
X0137210Y0116538D01*
X0137173Y0116105D01*
X0137125Y0115673D01*
X0137066Y0115243D01*
X0136997Y0114814D01*
X0136918Y0114387D01*
X0136828Y0113962D01*
X0136728Y0113539D01*
X0136617Y0113119D01*
X0136496Y0112702D01*
X0136365Y0112288D01*
X0136223Y0111877D01*
X0136072Y0111470D01*
X0135911Y0111067D01*
X0135740Y0110667D01*
X0135559Y0110272D01*
X0135368Y0109882D01*
X0135168Y0109496D01*
X0134959Y0109116D01*
X0134740Y0108740D01*
X0134512Y0108371D01*
X0134275Y0108006D01*
X0134029Y0107648D01*
X0133775Y0107296D01*
X0133512Y0106950D01*
X0133240Y0106611D01*
X0132961Y0106279D01*
X0132673Y0105953D01*
X0132377Y0105635D01*
X0132074Y0105324D01*
X0131763Y0105021D01*
X0131445Y0104725D01*
X0131119Y0104437D01*
X0130787Y0104158D01*
X0130448Y0103886D01*
X0130102Y0103623D01*
X0129750Y0103369D01*
X0129392Y0103123D01*
X0129027Y0102886D01*
X0128658Y0102658D01*
X0128282Y0102439D01*
X0127902Y0102230D01*
X0127516Y0102030D01*
X0127126Y0101839D01*
X0126731Y0101658D01*
X0126331Y0101487D01*
X0125928Y0101326D01*
X0125521Y0101175D01*
X0125110Y0101033D01*
X0124696Y0100902D01*
X0124279Y0100781D01*
X0123859Y0100670D01*
X0123436Y0100570D01*
X0123011Y0100480D01*
X0122584Y0100401D01*
X0122155Y0100332D01*
X0121725Y0100273D01*
X0121293Y0100225D01*
X0120860Y0100188D01*
X0120426Y0100161D01*
X0119992Y0100145D01*
X0119558Y0100140D01*
X0119124Y0100145D01*
X0118690Y0100161D01*
X0118256Y0100188D01*
X0117823Y0100225D01*
X0117391Y0100273D01*
X0116961Y0100332D01*
X0116532Y0100401D01*
X0116105Y0100480D01*
X0115680Y0100570D01*
X0115257Y0100670D01*
X0114837Y0100781D01*
X0114420Y0100902D01*
X0114006Y0101033D01*
X0113595Y0101175D01*
X0113188Y0101326D01*
X0112785Y0101487D01*
X0112385Y0101658D01*
X0111990Y0101839D01*
X0111600Y0102030D01*
X0111214Y0102230D01*
X0110834Y0102439D01*
X0110458Y0102658D01*
X0110089Y0102886D01*
X0109724Y0103123D01*
X0109366Y0103369D01*
X0109014Y0103623D01*
X0108668Y0103886D01*
X0108329Y0104158D01*
X0107997Y0104437D01*
X0107671Y0104725D01*
X0107353Y0105021D01*
X0107042Y0105324D01*
X0106739Y0105635D01*
X0106443Y0105953D01*
X0106155Y0106279D01*
X0105876Y0106611D01*
X0105604Y0106950D01*
X0105341Y0107296D01*
X0105087Y0107648D01*
X0104841Y0108006D01*
X0104604Y0108371D01*
X0104376Y0108740D01*
X0104157Y0109116D01*
X0103948Y0109496D01*
X0103748Y0109882D01*
X0103557Y0110272D01*
X0103376Y0110667D01*
X0103205Y0111067D01*
X0103044Y0111470D01*
X0102893Y0111877D01*
X0102751Y0112288D01*
X0102620Y0112702D01*
X0102499Y0113119D01*
X0102388Y0113539D01*
X0102288Y0113962D01*
X0102198Y0114387D01*
X0102119Y0114814D01*
X0102050Y0115243D01*
X0101991Y0115673D01*
X0101943Y0116105D01*
X0101906Y0116538D01*
X0101879Y0116972D01*
X0101863Y0117406D01*
X0101858Y0117840D01*
X0101858Y0056840D02*
X0101863Y0057274D01*
X0101879Y0057708D01*
X0101906Y0058142D01*
X0101943Y0058575D01*
X0101991Y0059007D01*
X0102050Y0059437D01*
X0102119Y0059866D01*
X0102198Y0060293D01*
X0102288Y0060718D01*
X0102388Y0061141D01*
X0102499Y0061561D01*
X0102620Y0061978D01*
X0102751Y0062392D01*
X0102893Y0062803D01*
X0103044Y0063210D01*
X0103205Y0063613D01*
X0103376Y0064013D01*
X0103557Y0064408D01*
X0103748Y0064798D01*
X0103948Y0065184D01*
X0104157Y0065564D01*
X0104376Y0065940D01*
X0104604Y0066309D01*
X0104841Y0066674D01*
X0105087Y0067032D01*
X0105341Y0067384D01*
X0105604Y0067730D01*
X0105876Y0068069D01*
X0106155Y0068401D01*
X0106443Y0068727D01*
X0106739Y0069045D01*
X0107042Y0069356D01*
X0107353Y0069659D01*
X0107671Y0069955D01*
X0107997Y0070243D01*
X0108329Y0070522D01*
X0108668Y0070794D01*
X0109014Y0071057D01*
X0109366Y0071311D01*
X0109724Y0071557D01*
X0110089Y0071794D01*
X0110458Y0072022D01*
X0110834Y0072241D01*
X0111214Y0072450D01*
X0111600Y0072650D01*
X0111990Y0072841D01*
X0112385Y0073022D01*
X0112785Y0073193D01*
X0113188Y0073354D01*
X0113595Y0073505D01*
X0114006Y0073647D01*
X0114420Y0073778D01*
X0114837Y0073899D01*
X0115257Y0074010D01*
X0115680Y0074110D01*
X0116105Y0074200D01*
X0116532Y0074279D01*
X0116961Y0074348D01*
X0117391Y0074407D01*
X0117823Y0074455D01*
X0118256Y0074492D01*
X0118690Y0074519D01*
X0119124Y0074535D01*
X0119558Y0074540D01*
X0119992Y0074535D01*
X0120426Y0074519D01*
X0120860Y0074492D01*
X0121293Y0074455D01*
X0121725Y0074407D01*
X0122155Y0074348D01*
X0122584Y0074279D01*
X0123011Y0074200D01*
X0123436Y0074110D01*
X0123859Y0074010D01*
X0124279Y0073899D01*
X0124696Y0073778D01*
X0125110Y0073647D01*
X0125521Y0073505D01*
X0125928Y0073354D01*
X0126331Y0073193D01*
X0126731Y0073022D01*
X0127126Y0072841D01*
X0127516Y0072650D01*
X0127902Y0072450D01*
X0128282Y0072241D01*
X0128658Y0072022D01*
X0129027Y0071794D01*
X0129392Y0071557D01*
X0129750Y0071311D01*
X0130102Y0071057D01*
X0130448Y0070794D01*
X0130787Y0070522D01*
X0131119Y0070243D01*
X0131445Y0069955D01*
X0131763Y0069659D01*
X0132074Y0069356D01*
X0132377Y0069045D01*
X0132673Y0068727D01*
X0132961Y0068401D01*
X0133240Y0068069D01*
X0133512Y0067730D01*
X0133775Y0067384D01*
X0134029Y0067032D01*
X0134275Y0066674D01*
X0134512Y0066309D01*
X0134740Y0065940D01*
X0134959Y0065564D01*
X0135168Y0065184D01*
X0135368Y0064798D01*
X0135559Y0064408D01*
X0135740Y0064013D01*
X0135911Y0063613D01*
X0136072Y0063210D01*
X0136223Y0062803D01*
X0136365Y0062392D01*
X0136496Y0061978D01*
X0136617Y0061561D01*
X0136728Y0061141D01*
X0136828Y0060718D01*
X0136918Y0060293D01*
X0136997Y0059866D01*
X0137066Y0059437D01*
X0137125Y0059007D01*
X0137173Y0058575D01*
X0137210Y0058142D01*
X0137237Y0057708D01*
X0137253Y0057274D01*
X0137258Y0056840D01*
X0137253Y0056406D01*
X0137237Y0055972D01*
X0137210Y0055538D01*
X0137173Y0055105D01*
X0137125Y0054673D01*
X0137066Y0054243D01*
X0136997Y0053814D01*
X0136918Y0053387D01*
X0136828Y0052962D01*
X0136728Y0052539D01*
X0136617Y0052119D01*
X0136496Y0051702D01*
X0136365Y0051288D01*
X0136223Y0050877D01*
X0136072Y0050470D01*
X0135911Y0050067D01*
X0135740Y0049667D01*
X0135559Y0049272D01*
X0135368Y0048882D01*
X0135168Y0048496D01*
X0134959Y0048116D01*
X0134740Y0047740D01*
X0134512Y0047371D01*
X0134275Y0047006D01*
X0134029Y0046648D01*
X0133775Y0046296D01*
X0133512Y0045950D01*
X0133240Y0045611D01*
X0132961Y0045279D01*
X0132673Y0044953D01*
X0132377Y0044635D01*
X0132074Y0044324D01*
X0131763Y0044021D01*
X0131445Y0043725D01*
X0131119Y0043437D01*
X0130787Y0043158D01*
X0130448Y0042886D01*
X0130102Y0042623D01*
X0129750Y0042369D01*
X0129392Y0042123D01*
X0129027Y0041886D01*
X0128658Y0041658D01*
X0128282Y0041439D01*
X0127902Y0041230D01*
X0127516Y0041030D01*
X0127126Y0040839D01*
X0126731Y0040658D01*
X0126331Y0040487D01*
X0125928Y0040326D01*
X0125521Y0040175D01*
X0125110Y0040033D01*
X0124696Y0039902D01*
X0124279Y0039781D01*
X0123859Y0039670D01*
X0123436Y0039570D01*
X0123011Y0039480D01*
X0122584Y0039401D01*
X0122155Y0039332D01*
X0121725Y0039273D01*
X0121293Y0039225D01*
X0120860Y0039188D01*
X0120426Y0039161D01*
X0119992Y0039145D01*
X0119558Y0039140D01*
X0119124Y0039145D01*
X0118690Y0039161D01*
X0118256Y0039188D01*
X0117823Y0039225D01*
X0117391Y0039273D01*
X0116961Y0039332D01*
X0116532Y0039401D01*
X0116105Y0039480D01*
X0115680Y0039570D01*
X0115257Y0039670D01*
X0114837Y0039781D01*
X0114420Y0039902D01*
X0114006Y0040033D01*
X0113595Y0040175D01*
X0113188Y0040326D01*
X0112785Y0040487D01*
X0112385Y0040658D01*
X0111990Y0040839D01*
X0111600Y0041030D01*
X0111214Y0041230D01*
X0110834Y0041439D01*
X0110458Y0041658D01*
X0110089Y0041886D01*
X0109724Y0042123D01*
X0109366Y0042369D01*
X0109014Y0042623D01*
X0108668Y0042886D01*
X0108329Y0043158D01*
X0107997Y0043437D01*
X0107671Y0043725D01*
X0107353Y0044021D01*
X0107042Y0044324D01*
X0106739Y0044635D01*
X0106443Y0044953D01*
X0106155Y0045279D01*
X0105876Y0045611D01*
X0105604Y0045950D01*
X0105341Y0046296D01*
X0105087Y0046648D01*
X0104841Y0047006D01*
X0104604Y0047371D01*
X0104376Y0047740D01*
X0104157Y0048116D01*
X0103948Y0048496D01*
X0103748Y0048882D01*
X0103557Y0049272D01*
X0103376Y0049667D01*
X0103205Y0050067D01*
X0103044Y0050470D01*
X0102893Y0050877D01*
X0102751Y0051288D01*
X0102620Y0051702D01*
X0102499Y0052119D01*
X0102388Y0052539D01*
X0102288Y0052962D01*
X0102198Y0053387D01*
X0102119Y0053814D01*
X0102050Y0054243D01*
X0101991Y0054673D01*
X0101943Y0055105D01*
X0101906Y0055538D01*
X0101879Y0055972D01*
X0101863Y0056406D01*
X0101858Y0056840D01*
D13*
X0055558Y0142340D03*
X0055558Y0150340D03*
X0035558Y0146340D03*
D14*
X0032558Y0139840D03*
X0026558Y0138840D03*
X0025558Y0133840D03*
X0021558Y0137840D03*
X0020558Y0132840D03*
X0020558Y0123840D03*
X0020558Y0113840D03*
X0024558Y0108840D03*
X0030058Y0105840D03*
X0030058Y0115840D03*
X0030058Y0123840D03*
X0037058Y0128840D03*
X0030058Y0132840D03*
X0039558Y0138840D03*
X0044558Y0137840D03*
X0036058Y0152840D03*
X0038558Y0155840D03*
X0033558Y0155840D03*
X0042558Y0155840D03*
X0053558Y0155840D03*
X0063558Y0143340D03*
X0067558Y0142340D03*
X0072058Y0138340D03*
X0081058Y0137840D03*
X0079558Y0145340D03*
X0083558Y0151840D03*
X0085558Y0155840D03*
X0092558Y0155840D03*
X0097558Y0153840D03*
X0099058Y0150340D03*
X0101558Y0147840D03*
X0101558Y0155840D03*
X0106558Y0155840D03*
X0111058Y0155840D03*
X0115558Y0155840D03*
X0118558Y0152840D03*
X0116558Y0149840D03*
X0115558Y0145840D03*
X0120558Y0146840D03*
X0121558Y0155840D03*
X0130558Y0147840D03*
X0134558Y0143840D03*
X0138058Y0140340D03*
X0142058Y0136340D03*
X0138058Y0133340D03*
X0142058Y0129340D03*
X0145558Y0125840D03*
X0149558Y0128840D03*
X0146058Y0132340D03*
X0133558Y0137840D03*
X0130558Y0139840D03*
X0155558Y0115340D03*
X0157558Y0118840D03*
X0157558Y0110840D03*
X0157558Y0105340D03*
X0146558Y0096840D03*
X0141558Y0095840D03*
X0138558Y0099340D03*
X0144558Y0101840D03*
X0157558Y0093340D03*
X0157558Y0088840D03*
X0157558Y0084340D03*
X0152558Y0084840D03*
X0145058Y0069840D03*
X0142558Y0063840D03*
X0144558Y0055840D03*
X0150558Y0059840D03*
X0152558Y0051340D03*
X0157058Y0045840D03*
X0155558Y0039840D03*
X0156558Y0033840D03*
X0145558Y0037840D03*
X0145558Y0044840D03*
X0137558Y0038840D03*
X0141558Y0027840D03*
X0141558Y0018840D03*
X0132558Y0018840D03*
X0132558Y0026840D03*
X0123558Y0018840D03*
X0114558Y0018840D03*
X0104558Y0018840D03*
X0095558Y0018840D03*
X0088558Y0018840D03*
X0081558Y0018840D03*
X0085558Y0026840D03*
X0072558Y0018840D03*
X0065558Y0025840D03*
X0053558Y0028840D03*
X0042558Y0028840D03*
X0035558Y0024840D03*
X0029558Y0019340D03*
X0020558Y0029340D03*
X0027558Y0034840D03*
X0029558Y0041840D03*
X0036058Y0034340D03*
X0030558Y0052840D03*
X0027558Y0062840D03*
X0020558Y0070840D03*
X0020558Y0080840D03*
X0028558Y0084840D03*
X0020558Y0090840D03*
X0020558Y0101840D03*
X0078558Y0101840D03*
X0085558Y0101840D03*
X0084558Y0109840D03*
X0083558Y0119840D03*
X0095058Y0101340D03*
X0101558Y0094340D03*
X0109058Y0087340D03*
X0103558Y0078840D03*
X0132558Y0078840D03*
X0123058Y0032840D03*
X0108058Y0030840D03*
X0097058Y0137840D03*
M02*
