G75*
%MOIN*%
%OFA0B0*%
%FSLAX25Y25*%
%IPPOS*%
%LPD*%
%AMOC8*
5,1,8,0,0,1.08239X$1,22.5*
%
%ADD10R,0.07283X0.01969*%
%ADD11R,0.01969X0.07283*%
%ADD12R,0.04331X0.03937*%
%ADD13R,0.04331X0.07480*%
%ADD14R,0.03937X0.04331*%
%ADD15C,0.70079*%
%ADD16R,0.09843X0.20079*%
D10*
G36*
X0096972Y0117946D02*
X0091824Y0123094D01*
X0093216Y0124486D01*
X0098364Y0119338D01*
X0096972Y0117946D01*
G37*
G36*
X0098921Y0119894D02*
X0093773Y0125042D01*
X0095165Y0126434D01*
X0100313Y0121286D01*
X0098921Y0119894D01*
G37*
G36*
X0100870Y0121843D02*
X0095722Y0126991D01*
X0097114Y0128383D01*
X0102262Y0123235D01*
X0100870Y0121843D01*
G37*
G36*
X0102819Y0123792D02*
X0097671Y0128940D01*
X0099063Y0130332D01*
X0104211Y0125184D01*
X0102819Y0123792D01*
G37*
G36*
X0104767Y0125740D02*
X0099619Y0130888D01*
X0101011Y0132280D01*
X0106159Y0127132D01*
X0104767Y0125740D01*
G37*
G36*
X0106716Y0127689D02*
X0101568Y0132837D01*
X0102960Y0134229D01*
X0108108Y0129081D01*
X0106716Y0127689D01*
G37*
G36*
X0108665Y0129638D02*
X0103517Y0134786D01*
X0104909Y0136178D01*
X0110057Y0131030D01*
X0108665Y0129638D01*
G37*
G36*
X0110613Y0131587D02*
X0105465Y0136735D01*
X0106857Y0138127D01*
X0112005Y0132979D01*
X0110613Y0131587D01*
G37*
G36*
X0112562Y0133535D02*
X0107414Y0138683D01*
X0108806Y0140075D01*
X0113954Y0134927D01*
X0112562Y0133535D01*
G37*
G36*
X0114511Y0135484D02*
X0109363Y0140632D01*
X0110755Y0142024D01*
X0115903Y0136876D01*
X0114511Y0135484D01*
G37*
G36*
X0126203Y0147176D02*
X0121055Y0152324D01*
X0122447Y0153716D01*
X0127595Y0148568D01*
X0126203Y0147176D01*
G37*
G36*
X0128152Y0149125D02*
X0123004Y0154273D01*
X0124396Y0155665D01*
X0129544Y0150517D01*
X0128152Y0149125D01*
G37*
G36*
X0155991Y0121286D02*
X0150843Y0126434D01*
X0152235Y0127826D01*
X0157383Y0122678D01*
X0155991Y0121286D01*
G37*
G36*
X0154042Y0119338D02*
X0148894Y0124486D01*
X0150286Y0125878D01*
X0155434Y0120730D01*
X0154042Y0119338D01*
G37*
G36*
X0152093Y0117389D02*
X0146945Y0122537D01*
X0148337Y0123929D01*
X0153485Y0118781D01*
X0152093Y0117389D01*
G37*
G36*
X0150145Y0115440D02*
X0144997Y0120588D01*
X0146389Y0121980D01*
X0151537Y0116832D01*
X0150145Y0115440D01*
G37*
G36*
X0148196Y0113491D02*
X0143048Y0118639D01*
X0144440Y0120031D01*
X0149588Y0114883D01*
X0148196Y0113491D01*
G37*
G36*
X0146247Y0111543D02*
X0141099Y0116691D01*
X0142491Y0118083D01*
X0147639Y0112935D01*
X0146247Y0111543D01*
G37*
G36*
X0144298Y0109594D02*
X0139150Y0114742D01*
X0140542Y0116134D01*
X0145690Y0110986D01*
X0144298Y0109594D01*
G37*
G36*
X0142350Y0107645D02*
X0137202Y0112793D01*
X0138594Y0114185D01*
X0143742Y0109037D01*
X0142350Y0107645D01*
G37*
G36*
X0140401Y0105697D02*
X0135253Y0110845D01*
X0136645Y0112237D01*
X0141793Y0107089D01*
X0140401Y0105697D01*
G37*
G36*
X0138452Y0103748D02*
X0133304Y0108896D01*
X0134696Y0110288D01*
X0139844Y0105140D01*
X0138452Y0103748D01*
G37*
G36*
X0136504Y0101799D02*
X0131356Y0106947D01*
X0132748Y0108339D01*
X0137896Y0103191D01*
X0136504Y0101799D01*
G37*
G36*
X0134555Y0099850D02*
X0129407Y0104998D01*
X0130799Y0106390D01*
X0135947Y0101242D01*
X0134555Y0099850D01*
G37*
G36*
X0132606Y0097902D02*
X0127458Y0103050D01*
X0128850Y0104442D01*
X0133998Y0099294D01*
X0132606Y0097902D01*
G37*
G36*
X0130657Y0095953D02*
X0125509Y0101101D01*
X0126901Y0102493D01*
X0132049Y0097345D01*
X0130657Y0095953D01*
G37*
G36*
X0128709Y0094004D02*
X0123561Y0099152D01*
X0124953Y0100544D01*
X0130101Y0095396D01*
X0128709Y0094004D01*
G37*
G36*
X0126760Y0092055D02*
X0121612Y0097203D01*
X0123004Y0098595D01*
X0128152Y0093447D01*
X0126760Y0092055D01*
G37*
G36*
X0124811Y0090107D02*
X0119663Y0095255D01*
X0121055Y0096647D01*
X0126203Y0091499D01*
X0124811Y0090107D01*
G37*
D11*
G36*
X0113817Y0087323D02*
X0112425Y0088715D01*
X0117573Y0093863D01*
X0118965Y0092471D01*
X0113817Y0087323D01*
G37*
G36*
X0111868Y0089272D02*
X0110476Y0090664D01*
X0115624Y0095812D01*
X0117016Y0094420D01*
X0111868Y0089272D01*
G37*
G36*
X0109920Y0091220D02*
X0108528Y0092612D01*
X0113676Y0097760D01*
X0115068Y0096368D01*
X0109920Y0091220D01*
G37*
G36*
X0107971Y0093169D02*
X0106579Y0094561D01*
X0111727Y0099709D01*
X0113119Y0098317D01*
X0107971Y0093169D01*
G37*
G36*
X0106022Y0095118D02*
X0104630Y0096510D01*
X0109778Y0101658D01*
X0111170Y0100266D01*
X0106022Y0095118D01*
G37*
G36*
X0104074Y0097066D02*
X0102682Y0098458D01*
X0107830Y0103606D01*
X0109222Y0102214D01*
X0104074Y0097066D01*
G37*
G36*
X0102125Y0099015D02*
X0100733Y0100407D01*
X0105881Y0105555D01*
X0107273Y0104163D01*
X0102125Y0099015D01*
G37*
G36*
X0100176Y0100964D02*
X0098784Y0102356D01*
X0103932Y0107504D01*
X0105324Y0106112D01*
X0100176Y0100964D01*
G37*
G36*
X0098227Y0102913D02*
X0096835Y0104305D01*
X0101983Y0109453D01*
X0103375Y0108061D01*
X0098227Y0102913D01*
G37*
G36*
X0096279Y0104861D02*
X0094887Y0106253D01*
X0100035Y0111401D01*
X0101427Y0110009D01*
X0096279Y0104861D01*
G37*
G36*
X0094330Y0106810D02*
X0092938Y0108202D01*
X0098086Y0113350D01*
X0099478Y0111958D01*
X0094330Y0106810D01*
G37*
G36*
X0092381Y0108759D02*
X0090989Y0110151D01*
X0096137Y0115299D01*
X0097529Y0113907D01*
X0092381Y0108759D01*
G37*
G36*
X0090433Y0110708D02*
X0089041Y0112100D01*
X0094189Y0117248D01*
X0095581Y0115856D01*
X0090433Y0110708D01*
G37*
D12*
G36*
X0077785Y0120396D02*
X0080846Y0117335D01*
X0078063Y0114552D01*
X0075002Y0117613D01*
X0077785Y0120396D01*
G37*
G36*
X0073053Y0125128D02*
X0076114Y0122067D01*
X0073331Y0119284D01*
X0070270Y0122345D01*
X0073053Y0125128D01*
G37*
G36*
X0068270Y0129335D02*
X0071331Y0132396D01*
X0074114Y0129613D01*
X0071053Y0126552D01*
X0068270Y0129335D01*
G37*
G36*
X0073002Y0134067D02*
X0076063Y0137128D01*
X0078846Y0134345D01*
X0075785Y0131284D01*
X0073002Y0134067D01*
G37*
G36*
X0088114Y0143613D02*
X0085053Y0140552D01*
X0082270Y0143335D01*
X0085331Y0146396D01*
X0088114Y0143613D01*
G37*
G36*
X0092846Y0148345D02*
X0089785Y0145284D01*
X0087002Y0148067D01*
X0090063Y0151128D01*
X0092846Y0148345D01*
G37*
G36*
X0096053Y0149128D02*
X0099114Y0146067D01*
X0096331Y0143284D01*
X0093270Y0146345D01*
X0096053Y0149128D01*
G37*
G36*
X0100785Y0144396D02*
X0103846Y0141335D01*
X0101063Y0138552D01*
X0098002Y0141613D01*
X0100785Y0144396D01*
G37*
G36*
X0139846Y0093345D02*
X0136785Y0090284D01*
X0134002Y0093067D01*
X0137063Y0096128D01*
X0139846Y0093345D01*
G37*
G36*
X0135114Y0088613D02*
X0132053Y0085552D01*
X0129270Y0088335D01*
X0132331Y0091396D01*
X0135114Y0088613D01*
G37*
D13*
G36*
X0086863Y0136433D02*
X0089925Y0139495D01*
X0095213Y0134207D01*
X0092151Y0131145D01*
X0086863Y0136433D01*
G37*
G36*
X0079903Y0129473D02*
X0082965Y0132535D01*
X0088253Y0127247D01*
X0085191Y0124185D01*
X0079903Y0129473D01*
G37*
D14*
X0125558Y0076187D03*
X0125558Y0069494D03*
X0137558Y0069494D03*
X0137558Y0076187D03*
X0153058Y0092494D03*
X0153058Y0099187D03*
D15*
X0066861Y0065694D02*
X0066863Y0065694D01*
X0066862Y0065693D01*
X0066861Y0065692D01*
X0066860Y0065693D01*
X0066859Y0065694D01*
X0066860Y0065695D01*
X0066861Y0065696D01*
X0066862Y0065695D01*
X0066863Y0065694D01*
D16*
G36*
X0095119Y0023240D02*
X0088159Y0030200D01*
X0102355Y0044396D01*
X0109315Y0037436D01*
X0095119Y0023240D01*
G37*
G36*
X0031368Y0086991D02*
X0024408Y0093951D01*
X0038604Y0108147D01*
X0045564Y0101187D01*
X0031368Y0086991D01*
G37*
M02*
