G75*
%MOIN*%
%OFA0B0*%
%FSLAX24Y24*%
%IPPOS*%
%LPD*%
%AMOC8*
5,1,8,0,0,1.08239X$1,22.5*
%
%ADD10R,0.0400X0.0400*%
%ADD11C,0.0310*%
%ADD12R,0.0728X0.0197*%
%ADD13R,0.0197X0.0728*%
%ADD14R,0.0433X0.0394*%
%ADD15R,0.0433X0.0748*%
%ADD16R,0.0394X0.0433*%
%ADD17C,0.7008*%
%ADD18R,0.0984X0.2008*%
%ADD19C,0.0160*%
%ADD20C,0.0200*%
%ADD21C,0.0100*%
%ADD22C,0.0250*%
%ADD23C,0.0060*%
D10*
X005856Y005684D03*
X011956Y005684D03*
X011956Y011784D03*
X005856Y011784D03*
D11*
X005656Y014234D03*
X006156Y014234D03*
X006156Y014734D03*
X005656Y014734D03*
X005156Y014734D03*
X005156Y014234D03*
D12*
G36*
X009697Y011796D02*
X009183Y012310D01*
X009321Y012448D01*
X009835Y011934D01*
X009697Y011796D01*
G37*
G36*
X009892Y011990D02*
X009378Y012504D01*
X009516Y012642D01*
X010030Y012128D01*
X009892Y011990D01*
G37*
G36*
X010087Y012185D02*
X009573Y012699D01*
X009711Y012837D01*
X010225Y012323D01*
X010087Y012185D01*
G37*
G36*
X010282Y012380D02*
X009768Y012894D01*
X009906Y013032D01*
X010420Y012518D01*
X010282Y012380D01*
G37*
G36*
X010477Y012575D02*
X009963Y013089D01*
X010101Y013227D01*
X010615Y012713D01*
X010477Y012575D01*
G37*
G36*
X010672Y012770D02*
X010158Y013284D01*
X010296Y013422D01*
X010810Y012908D01*
X010672Y012770D01*
G37*
G36*
X010867Y012965D02*
X010353Y013479D01*
X010491Y013617D01*
X011005Y013103D01*
X010867Y012965D01*
G37*
G36*
X011062Y013160D02*
X010548Y013674D01*
X010686Y013812D01*
X011200Y013298D01*
X011062Y013160D01*
G37*
G36*
X011256Y013355D02*
X010742Y013869D01*
X010880Y014007D01*
X011394Y013493D01*
X011256Y013355D01*
G37*
G36*
X011451Y013549D02*
X010937Y014063D01*
X011075Y014201D01*
X011589Y013687D01*
X011451Y013549D01*
G37*
G36*
X012621Y014719D02*
X012107Y015233D01*
X012245Y015371D01*
X012759Y014857D01*
X012621Y014719D01*
G37*
G36*
X012815Y014914D02*
X012301Y015428D01*
X012439Y015566D01*
X012953Y015052D01*
X012815Y014914D01*
G37*
G36*
X015599Y012130D02*
X015085Y012644D01*
X015223Y012782D01*
X015737Y012268D01*
X015599Y012130D01*
G37*
G36*
X015404Y011935D02*
X014890Y012449D01*
X015028Y012587D01*
X015542Y012073D01*
X015404Y011935D01*
G37*
G36*
X015210Y011740D02*
X014696Y012254D01*
X014834Y012392D01*
X015348Y011878D01*
X015210Y011740D01*
G37*
G36*
X015015Y011545D02*
X014501Y012059D01*
X014639Y012197D01*
X015153Y011683D01*
X015015Y011545D01*
G37*
G36*
X014820Y011350D02*
X014306Y011864D01*
X014444Y012002D01*
X014958Y011488D01*
X014820Y011350D01*
G37*
G36*
X014625Y011155D02*
X014111Y011669D01*
X014249Y011807D01*
X014763Y011293D01*
X014625Y011155D01*
G37*
G36*
X014430Y010960D02*
X013916Y011474D01*
X014054Y011612D01*
X014568Y011098D01*
X014430Y010960D01*
G37*
G36*
X014235Y010766D02*
X013721Y011280D01*
X013859Y011418D01*
X014373Y010904D01*
X014235Y010766D01*
G37*
G36*
X014040Y010571D02*
X013526Y011085D01*
X013664Y011223D01*
X014178Y010709D01*
X014040Y010571D01*
G37*
G36*
X013845Y010376D02*
X013331Y010890D01*
X013469Y011028D01*
X013983Y010514D01*
X013845Y010376D01*
G37*
G36*
X013651Y010181D02*
X013137Y010695D01*
X013275Y010833D01*
X013789Y010319D01*
X013651Y010181D01*
G37*
G36*
X013456Y009986D02*
X012942Y010500D01*
X013080Y010638D01*
X013594Y010124D01*
X013456Y009986D01*
G37*
G36*
X013261Y009791D02*
X012747Y010305D01*
X012885Y010443D01*
X013399Y009929D01*
X013261Y009791D01*
G37*
G36*
X013066Y009596D02*
X012552Y010110D01*
X012690Y010248D01*
X013204Y009734D01*
X013066Y009596D01*
G37*
G36*
X012871Y009401D02*
X012357Y009915D01*
X012495Y010053D01*
X013009Y009539D01*
X012871Y009401D01*
G37*
G36*
X012676Y009207D02*
X012162Y009721D01*
X012300Y009859D01*
X012814Y009345D01*
X012676Y009207D01*
G37*
G36*
X012481Y009012D02*
X011967Y009526D01*
X012105Y009664D01*
X012619Y009150D01*
X012481Y009012D01*
G37*
D13*
G36*
X011382Y008733D02*
X011244Y008871D01*
X011758Y009385D01*
X011896Y009247D01*
X011382Y008733D01*
G37*
G36*
X011187Y008928D02*
X011049Y009066D01*
X011563Y009580D01*
X011701Y009442D01*
X011187Y008928D01*
G37*
G36*
X010992Y009123D02*
X010854Y009261D01*
X011368Y009775D01*
X011506Y009637D01*
X010992Y009123D01*
G37*
G36*
X010797Y009318D02*
X010659Y009456D01*
X011173Y009970D01*
X011311Y009832D01*
X010797Y009318D01*
G37*
G36*
X010602Y009513D02*
X010464Y009651D01*
X010978Y010165D01*
X011116Y010027D01*
X010602Y009513D01*
G37*
G36*
X010407Y009708D02*
X010269Y009846D01*
X010783Y010360D01*
X010921Y010222D01*
X010407Y009708D01*
G37*
G36*
X010212Y009903D02*
X010074Y010041D01*
X010588Y010555D01*
X010726Y010417D01*
X010212Y009903D01*
G37*
G36*
X010017Y010097D02*
X009879Y010235D01*
X010393Y010749D01*
X010531Y010611D01*
X010017Y010097D01*
G37*
G36*
X009823Y010292D02*
X009685Y010430D01*
X010199Y010944D01*
X010337Y010806D01*
X009823Y010292D01*
G37*
G36*
X009628Y010487D02*
X009490Y010625D01*
X010004Y011139D01*
X010142Y011001D01*
X009628Y010487D01*
G37*
G36*
X009433Y010682D02*
X009295Y010820D01*
X009809Y011334D01*
X009947Y011196D01*
X009433Y010682D01*
G37*
G36*
X009238Y010877D02*
X009100Y011015D01*
X009614Y011529D01*
X009752Y011391D01*
X009238Y010877D01*
G37*
G36*
X009043Y011072D02*
X008905Y011210D01*
X009419Y011724D01*
X009557Y011586D01*
X009043Y011072D01*
G37*
D14*
G36*
X007779Y011939D02*
X008084Y011634D01*
X007805Y011355D01*
X007500Y011660D01*
X007779Y011939D01*
G37*
G36*
X007306Y012413D02*
X007611Y012108D01*
X007332Y011829D01*
X007027Y012134D01*
X007306Y012413D01*
G37*
G36*
X006927Y013034D02*
X007232Y013339D01*
X007511Y013060D01*
X007206Y012755D01*
X006927Y013034D01*
G37*
G36*
X007400Y013508D02*
X007705Y013813D01*
X007984Y013534D01*
X007679Y013229D01*
X007400Y013508D01*
G37*
G36*
X008611Y014160D02*
X008306Y013855D01*
X008027Y014134D01*
X008332Y014439D01*
X008611Y014160D01*
G37*
G36*
X009084Y014634D02*
X008779Y014329D01*
X008500Y014608D01*
X008805Y014913D01*
X009084Y014634D01*
G37*
G36*
X009806Y015013D02*
X010111Y014708D01*
X009832Y014429D01*
X009527Y014734D01*
X009806Y015013D01*
G37*
G36*
X010279Y014539D02*
X010584Y014234D01*
X010305Y013955D01*
X010000Y014260D01*
X010279Y014539D01*
G37*
G36*
X013984Y009334D02*
X013679Y009029D01*
X013400Y009308D01*
X013705Y009613D01*
X013984Y009334D01*
G37*
G36*
X013511Y008860D02*
X013206Y008555D01*
X012927Y008834D01*
X013232Y009139D01*
X013511Y008860D01*
G37*
D15*
G36*
X008687Y013643D02*
X008993Y013949D01*
X009521Y013421D01*
X009215Y013115D01*
X008687Y013643D01*
G37*
G36*
X007991Y012947D02*
X008297Y013253D01*
X008825Y012725D01*
X008519Y012419D01*
X007991Y012947D01*
G37*
D16*
X012556Y007619D03*
X012556Y006949D03*
X013956Y006949D03*
X013956Y007619D03*
X015306Y009249D03*
X015306Y009919D03*
D17*
X006686Y006569D02*
X006686Y006569D01*
X006686Y006569D01*
X006686Y006569D01*
X006686Y006569D01*
X006686Y006569D01*
X006686Y006569D01*
X006686Y006569D01*
X006686Y006569D01*
X006686Y006569D01*
D18*
G36*
X009512Y002325D02*
X008817Y003020D01*
X010236Y004439D01*
X010931Y003744D01*
X009512Y002325D01*
G37*
G36*
X003137Y008700D02*
X002442Y009395D01*
X003861Y010814D01*
X004556Y010119D01*
X003137Y008700D01*
G37*
D19*
X002099Y002551D02*
X002342Y002219D01*
X002663Y001962D01*
X003040Y001796D01*
X003446Y001733D01*
X003622Y001741D01*
X003629Y001744D01*
X003666Y001744D01*
X003704Y001748D01*
X003718Y001744D01*
X003844Y001744D01*
X003873Y001810D01*
X003873Y001810D01*
X004174Y002192D01*
X004174Y002192D01*
X004174Y002192D01*
X004562Y002485D01*
X004562Y002485D01*
X005012Y002668D01*
X005012Y002668D01*
X005494Y002731D01*
X005494Y002731D01*
X005976Y002668D01*
X005976Y002668D01*
X006427Y002485D01*
X006427Y002485D01*
X006815Y002192D01*
X006815Y002192D01*
X007116Y001810D01*
X007116Y001810D01*
X007145Y001744D01*
X014156Y001744D01*
X014351Y001755D01*
X014730Y001842D01*
X015082Y002011D01*
X015386Y002254D01*
X015546Y002454D01*
X015384Y002292D01*
X015171Y002204D01*
X014940Y002204D01*
X014727Y002292D01*
X014564Y002455D01*
X014476Y002669D01*
X014476Y002899D01*
X014564Y003113D01*
X014727Y003276D01*
X014940Y003364D01*
X015171Y003364D01*
X015384Y003276D01*
X015547Y003113D01*
X015636Y002899D01*
X015636Y002669D01*
X015548Y002456D01*
X015629Y002558D01*
X015798Y002909D01*
X015885Y003289D01*
X015896Y003484D01*
X015896Y003872D01*
X015830Y003901D01*
X015830Y003901D01*
X015460Y004212D01*
X015460Y004212D01*
X015194Y004617D01*
X015194Y004617D01*
X015056Y005081D01*
X015056Y005565D01*
X015194Y006028D01*
X015194Y006028D01*
X015460Y006433D01*
X015460Y006433D01*
X015460Y006433D01*
X015830Y006744D01*
X015896Y006773D01*
X015896Y012130D01*
X015875Y012150D01*
X015796Y012071D01*
X015411Y012456D01*
X015411Y012456D01*
X015026Y012840D01*
X014940Y012754D01*
X014916Y012713D01*
X014904Y012667D01*
X014904Y012647D01*
X014780Y012523D01*
X014780Y012523D01*
X014585Y012328D01*
X014370Y012113D01*
X014175Y011918D01*
X014026Y011769D01*
X013536Y012259D01*
X013536Y013503D01*
X013572Y013540D01*
X013611Y013633D01*
X013611Y013735D01*
X013572Y013828D01*
X013500Y013900D01*
X013407Y013939D01*
X013309Y013939D01*
X013272Y014028D01*
X013200Y014100D01*
X013107Y014139D01*
X013005Y014139D01*
X012911Y014100D01*
X012840Y014028D01*
X012801Y013935D01*
X012801Y013833D01*
X012840Y013740D01*
X012876Y013703D01*
X012876Y012009D01*
X012981Y011904D01*
X013571Y011314D01*
X013395Y011138D01*
X013200Y010944D01*
X013005Y010749D01*
X012811Y010554D01*
X012616Y010359D01*
X012421Y010164D01*
X012246Y009990D01*
X012031Y009774D01*
X011836Y009579D01*
X011836Y009549D01*
X011827Y009554D01*
X011781Y009566D01*
X011761Y009566D01*
X011616Y009711D01*
X011422Y009906D01*
X011227Y010101D01*
X011032Y010296D01*
X010837Y010491D01*
X010642Y010686D01*
X010447Y010880D01*
X010252Y011075D01*
X010057Y011270D01*
X009893Y011435D01*
X009893Y011449D01*
X009738Y011604D01*
X009738Y011609D01*
X009726Y011655D01*
X009721Y011664D01*
X009751Y011664D01*
X009946Y011859D01*
X009946Y011859D01*
X010161Y012075D01*
X010336Y012249D01*
X010531Y012444D01*
X010726Y012639D01*
X010920Y012834D01*
X011115Y013029D01*
X011310Y013223D01*
X011495Y013408D01*
X011509Y013408D01*
X011730Y013630D01*
X011730Y013745D01*
X011469Y014007D01*
X011467Y014012D01*
X010959Y014520D01*
X010892Y014587D01*
X010804Y014624D01*
X010392Y014624D01*
X010336Y014680D01*
X010291Y014680D01*
X010291Y014683D01*
X010291Y014730D01*
X010279Y014776D01*
X010255Y014817D01*
X010218Y014855D01*
X010340Y014804D01*
X010571Y014804D01*
X010784Y014892D01*
X010947Y015055D01*
X011036Y015269D01*
X011036Y015499D01*
X010947Y015713D01*
X010936Y015724D01*
X012234Y015724D01*
X012289Y015670D01*
X012243Y015624D01*
X012346Y015521D01*
X012346Y015521D01*
X012243Y015624D01*
X012156Y015538D01*
X012148Y015524D01*
X012134Y015516D01*
X012048Y015429D01*
X011961Y015343D01*
X011938Y015302D01*
X011925Y015256D01*
X011925Y015209D01*
X011938Y015163D01*
X011961Y015122D01*
X012236Y014848D01*
X012510Y014573D01*
X012551Y014550D01*
X012597Y014538D01*
X012644Y014538D01*
X012690Y014550D01*
X012731Y014573D01*
X012817Y014660D01*
X012714Y014763D01*
X012714Y014763D01*
X012817Y014660D01*
X012904Y014746D01*
X012912Y014760D01*
X012926Y014768D01*
X013012Y014855D01*
X013065Y014908D01*
X015099Y012912D01*
X015026Y012840D01*
X015411Y012456D01*
X015411Y012456D01*
X015796Y012071D01*
X015710Y011984D01*
X015669Y011961D01*
X015623Y011949D01*
X015603Y011949D01*
X015499Y011844D01*
X015554Y011789D01*
X015607Y011789D01*
X015700Y011750D01*
X015772Y011678D01*
X015811Y011585D01*
X015811Y011483D01*
X015772Y011390D01*
X015700Y011318D01*
X015636Y011291D01*
X015636Y009994D01*
X015633Y009991D01*
X015633Y009648D01*
X015601Y009617D01*
X015613Y009610D01*
X015647Y009576D01*
X015670Y009535D01*
X015683Y009490D01*
X015683Y009268D01*
X015324Y009268D01*
X015324Y009231D01*
X015324Y008853D01*
X015526Y008853D01*
X015572Y008865D01*
X015613Y008889D01*
X015647Y008922D01*
X015670Y008963D01*
X015683Y009009D01*
X015683Y009231D01*
X015324Y009231D01*
X015287Y009231D01*
X014929Y009231D01*
X014929Y009009D01*
X014941Y008963D01*
X014965Y008922D01*
X014998Y008889D01*
X015039Y008865D01*
X015085Y008853D01*
X015287Y008853D01*
X015287Y009231D01*
X015287Y009268D01*
X014929Y009268D01*
X014929Y009303D01*
X013511Y007884D01*
X013511Y007884D01*
X013596Y007799D01*
X013629Y007799D01*
X013629Y007889D01*
X013705Y007965D01*
X014206Y007965D01*
X014283Y007889D01*
X014283Y007348D01*
X014251Y007317D01*
X014263Y007310D01*
X014297Y007276D01*
X014320Y007235D01*
X014333Y007190D01*
X014508Y007190D01*
X014476Y007269D02*
X014564Y007055D01*
X014727Y006892D01*
X014940Y006804D01*
X015171Y006804D01*
X015384Y006892D01*
X015547Y007055D01*
X015636Y007269D01*
X015636Y007499D01*
X015547Y007713D01*
X015384Y007876D01*
X015171Y007964D01*
X014940Y007964D01*
X014727Y007876D01*
X014564Y007713D01*
X014476Y007499D01*
X014476Y007269D01*
X014476Y007349D02*
X014283Y007349D01*
X014283Y007507D02*
X014479Y007507D01*
X014545Y007666D02*
X014283Y007666D01*
X014283Y007824D02*
X014676Y007824D01*
X014333Y007190D02*
X014333Y006968D01*
X013974Y006968D01*
X013974Y006931D01*
X013974Y006553D01*
X014176Y006553D01*
X014222Y006565D01*
X014263Y006589D01*
X014297Y006622D01*
X014320Y006663D01*
X014333Y006709D01*
X014333Y006931D01*
X013974Y006931D01*
X013937Y006931D01*
X013579Y006931D01*
X013579Y006709D01*
X013591Y006663D01*
X013615Y006622D01*
X013648Y006589D01*
X013689Y006565D01*
X013735Y006553D01*
X013937Y006553D01*
X013937Y006931D01*
X013937Y006968D01*
X013579Y006968D01*
X013579Y007190D01*
X012933Y007190D01*
X012920Y007235D01*
X012897Y007276D01*
X012863Y007310D01*
X012851Y007317D01*
X012883Y007348D01*
X012883Y007889D01*
X012806Y007965D01*
X012792Y007965D01*
X012830Y008004D01*
X013029Y008004D01*
X013001Y007935D01*
X013001Y007833D01*
X013040Y007740D01*
X013111Y007668D01*
X013205Y007629D01*
X013256Y007629D01*
X013447Y007439D01*
X013629Y007439D01*
X013629Y007348D01*
X013660Y007317D01*
X013648Y007310D01*
X013615Y007276D01*
X013591Y007235D01*
X013579Y007190D01*
X013579Y007032D02*
X012933Y007032D01*
X012933Y006968D02*
X012933Y007190D01*
X012883Y007349D02*
X013629Y007349D01*
X013378Y007507D02*
X012883Y007507D01*
X012883Y007666D02*
X013117Y007666D01*
X013005Y007824D02*
X012883Y007824D01*
X012809Y007983D02*
X013021Y007983D01*
X013081Y008364D02*
X012681Y008364D01*
X012576Y008259D01*
X012376Y008059D01*
X012376Y007965D01*
X012305Y007965D01*
X012229Y007889D01*
X012229Y007348D01*
X012260Y007317D01*
X012248Y007310D01*
X012215Y007276D01*
X012191Y007235D01*
X012179Y007190D01*
X011046Y007190D01*
X011046Y007032D02*
X012179Y007032D01*
X012179Y006968D02*
X012537Y006968D01*
X012537Y006931D01*
X012179Y006931D01*
X012179Y006709D01*
X012191Y006663D01*
X012215Y006622D01*
X012248Y006589D01*
X012289Y006565D01*
X012335Y006553D01*
X012537Y006553D01*
X012537Y006931D01*
X012574Y006931D01*
X012574Y006553D01*
X012776Y006553D01*
X012822Y006565D01*
X012863Y006589D01*
X012897Y006622D01*
X012920Y006663D01*
X012933Y006709D01*
X012933Y006931D01*
X012574Y006931D01*
X012574Y006968D01*
X012933Y006968D01*
X012933Y006873D02*
X013579Y006873D01*
X013579Y006715D02*
X012933Y006715D01*
X012788Y006556D02*
X013723Y006556D01*
X013937Y006556D02*
X013974Y006556D01*
X013974Y006715D02*
X013937Y006715D01*
X013937Y006873D02*
X013974Y006873D01*
X014333Y006873D02*
X014774Y006873D01*
X014588Y007032D02*
X014333Y007032D01*
X014333Y006715D02*
X015795Y006715D01*
X015896Y006873D02*
X015338Y006873D01*
X015524Y007032D02*
X015896Y007032D01*
X015896Y007190D02*
X015603Y007190D01*
X015636Y007349D02*
X015896Y007349D01*
X015896Y007507D02*
X015633Y007507D01*
X015567Y007666D02*
X015896Y007666D01*
X015896Y007824D02*
X015436Y007824D01*
X015896Y007983D02*
X013609Y007983D01*
X013629Y007824D02*
X013570Y007824D01*
X013767Y008141D02*
X015896Y008141D01*
X015896Y008300D02*
X013926Y008300D01*
X014084Y008458D02*
X015896Y008458D01*
X015896Y008617D02*
X014243Y008617D01*
X014401Y008775D02*
X015896Y008775D01*
X015896Y008934D02*
X015653Y008934D01*
X015683Y009092D02*
X015896Y009092D01*
X015896Y009251D02*
X015324Y009251D01*
X015287Y009251D02*
X014877Y009251D01*
X014929Y009092D02*
X014718Y009092D01*
X014560Y008934D02*
X014958Y008934D01*
X015287Y008934D02*
X015324Y008934D01*
X015324Y009092D02*
X015287Y009092D01*
X015683Y009409D02*
X015896Y009409D01*
X015896Y009568D02*
X015652Y009568D01*
X015633Y009726D02*
X015896Y009726D01*
X015896Y009885D02*
X015633Y009885D01*
X015636Y010043D02*
X015896Y010043D01*
X015896Y010202D02*
X015636Y010202D01*
X015636Y010360D02*
X015896Y010360D01*
X015896Y010519D02*
X015636Y010519D01*
X015636Y010677D02*
X015896Y010677D01*
X015896Y010836D02*
X015636Y010836D01*
X015636Y010994D02*
X015896Y010994D01*
X015896Y011153D02*
X015636Y011153D01*
X015684Y011311D02*
X015896Y011311D01*
X015896Y011470D02*
X015805Y011470D01*
X015793Y011628D02*
X015896Y011628D01*
X015896Y011787D02*
X015613Y011787D01*
X015600Y011945D02*
X015896Y011945D01*
X015896Y012104D02*
X015829Y012104D01*
X015763Y012104D02*
X015763Y012104D01*
X015605Y012262D02*
X015605Y012262D01*
X015446Y012421D02*
X015446Y012421D01*
X015288Y012579D02*
X015288Y012579D01*
X015129Y012738D02*
X015129Y012738D01*
X015082Y012896D02*
X013536Y012896D01*
X013536Y012738D02*
X014931Y012738D01*
X014836Y012579D02*
X013536Y012579D01*
X013536Y012421D02*
X014677Y012421D01*
X014585Y012328D02*
X014585Y012328D01*
X014519Y012262D02*
X013536Y012262D01*
X013691Y012104D02*
X014360Y012104D01*
X014202Y011945D02*
X013849Y011945D01*
X014008Y011787D02*
X014043Y011787D01*
X013568Y011311D02*
X010017Y011311D01*
X009872Y011470D02*
X013416Y011470D01*
X013257Y011628D02*
X009733Y011628D01*
X009873Y011787D02*
X013099Y011787D01*
X012940Y011945D02*
X010032Y011945D01*
X010161Y012075D02*
X010161Y012075D01*
X010190Y012104D02*
X012876Y012104D01*
X012876Y012262D02*
X010349Y012262D01*
X010507Y012421D02*
X012876Y012421D01*
X012876Y012579D02*
X010666Y012579D01*
X010824Y012738D02*
X012876Y012738D01*
X012876Y012896D02*
X010983Y012896D01*
X011141Y013055D02*
X012876Y013055D01*
X012876Y013213D02*
X011300Y013213D01*
X011458Y013372D02*
X012876Y013372D01*
X012876Y013530D02*
X011631Y013530D01*
X011730Y013689D02*
X012876Y013689D01*
X012801Y013847D02*
X011629Y013847D01*
X011470Y014006D02*
X012830Y014006D01*
X013281Y014006D02*
X013985Y014006D01*
X013823Y014164D02*
X011315Y014164D01*
X011157Y014323D02*
X013662Y014323D01*
X013500Y014481D02*
X010998Y014481D01*
X010675Y014126D02*
X010745Y014056D01*
X010611Y013922D01*
X010416Y013727D01*
X010222Y013533D01*
X010027Y013338D01*
X009872Y013183D01*
X009651Y013403D01*
X009651Y013474D01*
X009046Y014080D01*
X008939Y014080D01*
X008790Y013931D01*
X008678Y014044D01*
X008741Y014107D01*
X008741Y014152D01*
X008755Y014148D01*
X008802Y014148D01*
X008848Y014161D01*
X008889Y014184D01*
X009046Y014341D01*
X008792Y014595D01*
X008818Y014621D01*
X008792Y014647D01*
X008766Y014621D01*
X008513Y014874D01*
X008356Y014717D01*
X008332Y014676D01*
X008320Y014630D01*
X008320Y014583D01*
X008324Y014570D01*
X008279Y014570D01*
X007897Y014187D01*
X007897Y014080D01*
X008251Y013725D01*
X008359Y013725D01*
X008423Y013789D01*
X008556Y013656D01*
X008556Y013590D01*
X009161Y012984D01*
X009269Y012984D01*
X009415Y013131D01*
X009582Y012964D01*
X008770Y012964D01*
X008350Y013384D01*
X008243Y013384D01*
X008179Y013320D01*
X008066Y013432D01*
X008115Y013481D01*
X008115Y013588D01*
X007760Y013943D01*
X007652Y013943D01*
X007270Y013561D01*
X007270Y013516D01*
X007257Y013520D01*
X007209Y013520D01*
X007164Y013507D01*
X007123Y013484D01*
X006966Y013327D01*
X007219Y013073D01*
X007193Y013047D01*
X007219Y013021D01*
X006952Y012754D01*
X007095Y012611D01*
X007136Y012587D01*
X007182Y012575D01*
X007226Y012575D01*
X007195Y012557D01*
X007052Y012414D01*
X007319Y012147D01*
X007293Y012121D01*
X007026Y012388D01*
X006883Y012245D01*
X006859Y012204D01*
X006847Y012158D01*
X006847Y012111D01*
X006859Y012065D01*
X006883Y012024D01*
X007040Y011867D01*
X007293Y012121D01*
X007319Y012095D01*
X007066Y011841D01*
X007223Y011684D01*
X007264Y011661D01*
X007309Y011648D01*
X007357Y011648D01*
X007360Y011649D01*
X007360Y011603D01*
X007748Y011215D01*
X007864Y011215D01*
X007875Y011226D01*
X008076Y011024D01*
X004458Y011024D01*
X004370Y010987D01*
X004302Y010920D01*
X004128Y010745D01*
X003918Y010955D01*
X003802Y010955D01*
X002301Y009453D01*
X002301Y009337D01*
X003079Y008559D01*
X003195Y008559D01*
X004696Y010061D01*
X004696Y010177D01*
X004467Y010406D01*
X004605Y010544D01*
X008304Y010544D01*
X008392Y010581D01*
X008471Y010659D01*
X008508Y010644D01*
X008616Y010644D01*
X008616Y010435D01*
X008607Y010439D01*
X008505Y010439D01*
X008411Y010400D01*
X008375Y010364D01*
X008036Y010364D01*
X008000Y010400D01*
X007907Y010439D01*
X007805Y010439D01*
X007711Y010400D01*
X007640Y010328D01*
X007601Y010235D01*
X007601Y010138D01*
X007460Y010173D01*
X007241Y010213D01*
X007020Y010240D01*
X006797Y010253D01*
X006575Y010253D01*
X006353Y010240D01*
X006132Y010213D01*
X005913Y010173D01*
X005696Y010120D01*
X005484Y010053D01*
X005276Y009974D01*
X005073Y009883D01*
X004876Y009780D01*
X004685Y009664D01*
X004502Y009538D01*
X004327Y009401D01*
X004160Y009253D01*
X004138Y009231D01*
X006686Y006683D01*
X006573Y006569D01*
X006686Y006456D01*
X004138Y003908D01*
X004160Y003886D01*
X004327Y003738D01*
X004502Y003601D01*
X004685Y003474D01*
X004876Y003359D01*
X005073Y003256D01*
X005276Y003164D01*
X005484Y003085D01*
X005696Y003019D01*
X005913Y002966D01*
X006132Y002926D01*
X006353Y002899D01*
X006575Y002885D01*
X006797Y002885D01*
X007020Y002899D01*
X007241Y002926D01*
X007460Y002966D01*
X007676Y003019D01*
X007888Y003085D01*
X008097Y003164D01*
X008300Y003256D01*
X008497Y003359D01*
X008687Y003474D01*
X008870Y003601D01*
X009046Y003738D01*
X009212Y003886D01*
X009234Y003908D01*
X006686Y006456D01*
X006799Y006569D01*
X009348Y004021D01*
X009370Y004043D01*
X009517Y004210D01*
X009655Y004385D01*
X009781Y004568D01*
X009896Y004759D01*
X010000Y004956D01*
X010091Y005159D01*
X010170Y005367D01*
X010236Y005580D01*
X010290Y005796D01*
X010330Y006015D01*
X010357Y006236D01*
X010370Y006458D01*
X010370Y006681D01*
X010357Y006903D01*
X010330Y007124D01*
X010290Y007343D01*
X010236Y007559D01*
X010170Y007772D01*
X010091Y007980D01*
X010000Y008183D01*
X009896Y008380D01*
X009781Y008570D01*
X009655Y008754D01*
X009517Y008929D01*
X009370Y009096D01*
X009348Y009118D01*
X006799Y006569D01*
X006686Y006683D01*
X009234Y009231D01*
X009212Y009253D01*
X009046Y009401D01*
X008870Y009538D01*
X008687Y009664D01*
X008497Y009780D01*
X008300Y009883D01*
X008097Y009974D01*
X008031Y009999D01*
X008036Y010004D01*
X008375Y010004D01*
X008411Y009968D01*
X008505Y009929D01*
X008607Y009929D01*
X008700Y009968D01*
X008772Y010040D01*
X008783Y010067D01*
X010566Y008285D01*
X010566Y004533D01*
X010453Y004420D01*
X010294Y004580D01*
X010178Y004580D01*
X008676Y003078D01*
X008676Y002962D01*
X009454Y002184D01*
X009570Y002184D01*
X011072Y003686D01*
X011072Y003802D01*
X010792Y004081D01*
X010942Y004231D01*
X011009Y004298D01*
X011046Y004386D01*
X011046Y008432D01*
X011009Y008520D01*
X009096Y010433D01*
X009096Y010644D01*
X009155Y010644D01*
X009243Y010681D01*
X009246Y010684D01*
X009359Y010571D01*
X009553Y010377D01*
X009748Y010182D01*
X009943Y009987D01*
X010138Y009792D01*
X010333Y009597D01*
X010528Y009402D01*
X010723Y009207D01*
X010918Y009012D01*
X011062Y008868D01*
X011062Y008848D01*
X011075Y008802D01*
X011098Y008761D01*
X011185Y008675D01*
X011570Y009059D01*
X011766Y008862D01*
X011570Y009059D01*
X011570Y009059D01*
X011185Y008674D01*
X011271Y008588D01*
X011312Y008564D01*
X011358Y008552D01*
X011405Y008552D01*
X011451Y008564D01*
X011492Y008588D01*
X011766Y008862D01*
X012041Y009137D01*
X012064Y009178D01*
X012077Y009224D01*
X012077Y009231D01*
X012427Y008881D01*
X012535Y008881D01*
X012730Y009075D01*
X012925Y009270D01*
X013120Y009465D01*
X013315Y009660D01*
X013509Y009855D01*
X013704Y010050D01*
X013876Y010221D01*
X013876Y009865D01*
X013840Y009828D01*
X013801Y009735D01*
X013801Y009702D01*
X013760Y009743D01*
X013652Y009743D01*
X013270Y009361D01*
X013270Y009316D01*
X013257Y009320D01*
X013209Y009320D01*
X013164Y009307D01*
X013123Y009284D01*
X012966Y009127D01*
X013219Y008873D01*
X013193Y008847D01*
X013219Y008821D01*
X012952Y008554D01*
X013095Y008411D01*
X013116Y008399D01*
X013081Y008364D01*
X013048Y008458D02*
X011035Y008458D01*
X011046Y008300D02*
X012617Y008300D01*
X012458Y008141D02*
X011046Y008141D01*
X011046Y007983D02*
X012376Y007983D01*
X012229Y007824D02*
X011046Y007824D01*
X011046Y007666D02*
X012229Y007666D01*
X012229Y007507D02*
X011046Y007507D01*
X011046Y007349D02*
X012229Y007349D01*
X012179Y007190D02*
X012179Y006968D01*
X012179Y006873D02*
X011046Y006873D01*
X011046Y006715D02*
X012179Y006715D01*
X012323Y006556D02*
X011046Y006556D01*
X011046Y006398D02*
X015437Y006398D01*
X015333Y006239D02*
X011046Y006239D01*
X011046Y006081D02*
X015229Y006081D01*
X015163Y005922D02*
X011046Y005922D01*
X011046Y005764D02*
X015115Y005764D01*
X015068Y005605D02*
X011046Y005605D01*
X011046Y005447D02*
X015056Y005447D01*
X015056Y005288D02*
X011046Y005288D01*
X011046Y005130D02*
X015056Y005130D01*
X015089Y004971D02*
X011046Y004971D01*
X011046Y004813D02*
X015136Y004813D01*
X015183Y004654D02*
X011046Y004654D01*
X011046Y004496D02*
X015274Y004496D01*
X015378Y004337D02*
X011025Y004337D01*
X010890Y004179D02*
X015500Y004179D01*
X015689Y004020D02*
X010853Y004020D01*
X011012Y003862D02*
X015896Y003862D01*
X015896Y003703D02*
X011072Y003703D01*
X010930Y003545D02*
X015896Y003545D01*
X015890Y003386D02*
X010772Y003386D01*
X010613Y003228D02*
X014679Y003228D01*
X014546Y003069D02*
X010455Y003069D01*
X010296Y002911D02*
X014480Y002911D01*
X014476Y002752D02*
X010138Y002752D01*
X009979Y002594D02*
X014507Y002594D01*
X014585Y002435D02*
X009821Y002435D01*
X009662Y002277D02*
X014765Y002277D01*
X014975Y001960D02*
X006998Y001960D01*
X007120Y001801D02*
X014552Y001801D01*
X015216Y002118D02*
X006874Y002118D01*
X006815Y002192D02*
X006815Y002192D01*
X006703Y002277D02*
X009361Y002277D01*
X009203Y002435D02*
X006493Y002435D01*
X006160Y002594D02*
X009044Y002594D01*
X008886Y002752D02*
X003336Y002752D01*
X003336Y002799D02*
X003336Y002569D01*
X003247Y002355D01*
X003084Y002192D01*
X002871Y002104D01*
X002640Y002104D01*
X002427Y002192D01*
X002264Y002355D01*
X002176Y002569D01*
X002176Y002799D01*
X002264Y003013D01*
X002427Y003176D01*
X002640Y003264D01*
X002871Y003264D01*
X003084Y003176D01*
X003247Y003013D01*
X003336Y002799D01*
X003290Y002911D02*
X006257Y002911D01*
X005536Y003069D02*
X003191Y003069D01*
X002959Y003228D02*
X005135Y003228D01*
X004831Y003386D02*
X001916Y003386D01*
X001916Y003228D02*
X002552Y003228D01*
X002321Y003069D02*
X001926Y003069D01*
X001916Y003128D02*
X001916Y003672D01*
X001982Y003701D01*
X001982Y003701D01*
X002364Y004002D01*
X002364Y004002D01*
X002657Y004390D01*
X002657Y004390D01*
X002840Y004840D01*
X002840Y004840D01*
X002903Y005323D01*
X002840Y005805D01*
X002657Y006255D01*
X002364Y006643D01*
X002364Y006643D01*
X001982Y006944D01*
X001916Y006973D01*
X001916Y013984D01*
X001927Y014179D01*
X002013Y014559D01*
X002182Y014910D01*
X002425Y015214D01*
X002625Y015374D01*
X002464Y015213D01*
X002376Y014999D01*
X002376Y014769D01*
X002464Y014555D01*
X002627Y014392D01*
X002840Y014304D01*
X003071Y014304D01*
X003284Y014392D01*
X003447Y014555D01*
X003536Y014769D01*
X003536Y014999D01*
X003447Y015213D01*
X003284Y015376D01*
X003071Y015464D01*
X002840Y015464D01*
X002628Y015376D01*
X002730Y015457D01*
X003081Y015626D01*
X003461Y015713D01*
X003656Y015724D01*
X004044Y015724D01*
X004072Y015659D01*
X004072Y015659D01*
X004384Y015288D01*
X004384Y015288D01*
X004384Y015288D01*
X004516Y015202D01*
X004511Y015200D01*
X004440Y015128D01*
X004401Y015035D01*
X004401Y014933D01*
X004440Y014840D01*
X004464Y014816D01*
X004441Y014806D01*
X004334Y014699D01*
X004276Y014560D01*
X004276Y014408D01*
X004334Y014269D01*
X004441Y014162D01*
X004532Y014124D01*
X003869Y014124D01*
X003808Y014149D01*
X003703Y014149D01*
X003606Y014109D01*
X003531Y014034D01*
X003491Y013937D01*
X003491Y013831D01*
X003531Y013734D01*
X003606Y013659D01*
X003703Y013619D01*
X003808Y013619D01*
X003869Y013644D01*
X004691Y013644D01*
X004723Y013640D01*
X004738Y013644D01*
X004754Y013644D01*
X004784Y013657D01*
X004815Y013665D01*
X004828Y013675D01*
X004842Y013681D01*
X004865Y013704D01*
X005167Y013939D01*
X005214Y013939D01*
X005323Y013984D01*
X005406Y014067D01*
X005411Y014080D01*
X005414Y014073D01*
X005494Y013992D01*
X005599Y013949D01*
X005712Y013949D01*
X005817Y013992D01*
X005875Y014051D01*
X005896Y014020D01*
X005942Y013974D01*
X005997Y013937D01*
X006058Y013912D01*
X006123Y013899D01*
X006156Y013899D01*
X006189Y013899D01*
X006254Y013912D01*
X006307Y013934D01*
X006334Y013869D01*
X006441Y013762D01*
X006580Y013704D01*
X006731Y013704D01*
X006871Y013762D01*
X006978Y013869D01*
X007036Y014008D01*
X007036Y014160D01*
X006978Y014299D01*
X006871Y014406D01*
X006731Y014464D01*
X006580Y014464D01*
X006443Y014407D01*
X006416Y014448D01*
X006369Y014494D01*
X006339Y014514D01*
X006397Y014573D01*
X006407Y014596D01*
X006441Y014562D01*
X006580Y014504D01*
X006731Y014504D01*
X006871Y014562D01*
X006978Y014669D01*
X007036Y014808D01*
X007036Y014960D01*
X006978Y015099D01*
X006873Y015204D01*
X007375Y015204D01*
X007411Y015168D01*
X007505Y015129D01*
X007607Y015129D01*
X007700Y015168D01*
X007772Y015240D01*
X007811Y015333D01*
X007811Y015435D01*
X007772Y015528D01*
X007700Y015600D01*
X007607Y015639D01*
X007505Y015639D01*
X007411Y015600D01*
X007375Y015564D01*
X006837Y015564D01*
X006916Y015659D01*
X006945Y015724D01*
X009976Y015724D01*
X009964Y015713D01*
X009876Y015499D01*
X009876Y015269D01*
X009926Y015146D01*
X009916Y015157D01*
X009875Y015181D01*
X009829Y015193D01*
X009782Y015193D01*
X009736Y015181D01*
X009695Y015157D01*
X009552Y015014D01*
X009819Y014747D01*
X009793Y014721D01*
X009526Y014988D01*
X009383Y014845D01*
X009359Y014804D01*
X009347Y014758D01*
X009347Y014711D01*
X009359Y014665D01*
X009383Y014624D01*
X009540Y014467D01*
X009793Y014721D01*
X009819Y014695D01*
X009566Y014441D01*
X009723Y014284D01*
X009764Y014261D01*
X009809Y014248D01*
X009857Y014248D01*
X009860Y014249D01*
X009860Y014228D01*
X009766Y014134D01*
X009706Y014109D01*
X009631Y014034D01*
X009591Y013937D01*
X009591Y013831D01*
X009631Y013734D01*
X009706Y013659D01*
X009803Y013619D01*
X009908Y013619D01*
X010006Y013659D01*
X010080Y013734D01*
X010105Y013794D01*
X010187Y013876D01*
X010248Y013815D01*
X010364Y013815D01*
X010675Y014126D01*
X010695Y014006D02*
X010555Y014006D01*
X010536Y013847D02*
X010396Y013847D01*
X010378Y013689D02*
X010035Y013689D01*
X010158Y013847D02*
X010216Y013847D01*
X010219Y013530D02*
X009596Y013530D01*
X009676Y013689D02*
X009437Y013689D01*
X009591Y013847D02*
X009279Y013847D01*
X009120Y014006D02*
X009619Y014006D01*
X009796Y014164D02*
X008854Y014164D01*
X008865Y014006D02*
X008716Y014006D01*
X008523Y013689D02*
X008015Y013689D01*
X008115Y013530D02*
X008616Y013530D01*
X008774Y013372D02*
X008362Y013372D01*
X008231Y013372D02*
X008127Y013372D01*
X007924Y013065D02*
X007860Y013001D01*
X007860Y012894D01*
X008465Y012288D01*
X008573Y012288D01*
X008889Y012604D01*
X009293Y012604D01*
X009247Y012558D01*
X009052Y012363D01*
X009052Y012256D01*
X009403Y011905D01*
X009395Y011905D01*
X009349Y011893D01*
X009308Y011869D01*
X009034Y011595D01*
X009231Y011398D01*
X009231Y011398D01*
X009034Y011595D01*
X008760Y011320D01*
X008736Y011279D01*
X008724Y011234D01*
X008724Y011186D01*
X008736Y011140D01*
X008746Y011124D01*
X008685Y011124D01*
X008680Y011134D01*
X008606Y011209D01*
X008546Y011234D01*
X008214Y011565D01*
X008225Y011575D01*
X008225Y011691D01*
X007836Y012080D01*
X007791Y012080D01*
X007791Y012083D01*
X007791Y012130D01*
X007779Y012176D01*
X007755Y012217D01*
X007599Y012374D01*
X007345Y012121D01*
X007319Y012147D01*
X007573Y012400D01*
X007416Y012557D01*
X007375Y012581D01*
X007329Y012593D01*
X007284Y012593D01*
X007316Y012611D01*
X007473Y012768D01*
X007219Y013021D01*
X007245Y013047D01*
X007499Y012794D01*
X007655Y012951D01*
X007679Y012992D01*
X007691Y013038D01*
X007691Y013085D01*
X007688Y013098D01*
X007732Y013098D01*
X007812Y013178D01*
X007924Y013065D01*
X007914Y013055D02*
X007691Y013055D01*
X007601Y012896D02*
X007860Y012896D01*
X008016Y012738D02*
X007442Y012738D01*
X007397Y012896D02*
X007344Y012896D01*
X007193Y013047D02*
X006926Y012780D01*
X006783Y012923D01*
X006759Y012964D01*
X006747Y013010D01*
X006747Y013057D01*
X006759Y013103D01*
X006783Y013144D01*
X006940Y013301D01*
X007193Y013047D01*
X007186Y013055D02*
X007200Y013055D01*
X007094Y012896D02*
X007042Y012896D01*
X006968Y012738D02*
X001916Y012738D01*
X001916Y012896D02*
X006810Y012896D01*
X006747Y013055D02*
X001916Y013055D01*
X001916Y013213D02*
X006852Y013213D01*
X007027Y013213D02*
X007080Y013213D01*
X007010Y013372D02*
X001916Y013372D01*
X001916Y013530D02*
X007270Y013530D01*
X007398Y013689D02*
X004850Y013689D01*
X005049Y013847D02*
X006355Y013847D01*
X006156Y013899D02*
X006156Y014234D01*
X006156Y014234D01*
X006156Y013899D01*
X006156Y014006D02*
X006156Y014006D01*
X006156Y014164D02*
X006156Y014164D01*
X005911Y014006D02*
X005830Y014006D01*
X005481Y014006D02*
X005344Y014006D01*
X004438Y014164D02*
X001926Y014164D01*
X001917Y014006D02*
X003519Y014006D01*
X003491Y013847D02*
X001916Y013847D01*
X001916Y013689D02*
X003576Y013689D01*
X003116Y014323D02*
X004311Y014323D01*
X004276Y014481D02*
X003373Y014481D01*
X003482Y014640D02*
X004309Y014640D01*
X004432Y014798D02*
X003536Y014798D01*
X003536Y014957D02*
X004401Y014957D01*
X004434Y015115D02*
X003488Y015115D01*
X003387Y015274D02*
X004406Y015274D01*
X004263Y015432D02*
X003148Y015432D01*
X003007Y015591D02*
X004130Y015591D01*
X002763Y015432D02*
X002698Y015432D01*
X002525Y015274D02*
X002500Y015274D01*
X002424Y015115D02*
X002346Y015115D01*
X002376Y014957D02*
X002220Y014957D01*
X002129Y014798D02*
X002376Y014798D01*
X002429Y014640D02*
X002052Y014640D01*
X001996Y014481D02*
X002539Y014481D01*
X002796Y014323D02*
X001960Y014323D01*
X001916Y012579D02*
X007167Y012579D01*
X007058Y012421D02*
X001916Y012421D01*
X001916Y012262D02*
X006900Y012262D01*
X006849Y012104D02*
X001916Y012104D01*
X001916Y011945D02*
X006962Y011945D01*
X007117Y011945D02*
X007170Y011945D01*
X007120Y011787D02*
X001916Y011787D01*
X001916Y011628D02*
X007360Y011628D01*
X007494Y011470D02*
X001916Y011470D01*
X001916Y011311D02*
X007652Y011311D01*
X007948Y011153D02*
X001916Y011153D01*
X001916Y010994D02*
X004386Y010994D01*
X004218Y010836D02*
X004038Y010836D01*
X003683Y010836D02*
X001916Y010836D01*
X001916Y010677D02*
X003525Y010677D01*
X003366Y010519D02*
X001916Y010519D01*
X001916Y010360D02*
X003208Y010360D01*
X003049Y010202D02*
X001916Y010202D01*
X001916Y010043D02*
X002891Y010043D01*
X002732Y009885D02*
X001916Y009885D01*
X001916Y009726D02*
X002574Y009726D01*
X002415Y009568D02*
X001916Y009568D01*
X001916Y009409D02*
X002301Y009409D01*
X002387Y009251D02*
X001916Y009251D01*
X001916Y009092D02*
X002546Y009092D01*
X002704Y008934D02*
X001916Y008934D01*
X001916Y008775D02*
X002863Y008775D01*
X003021Y008617D02*
X001916Y008617D01*
X001916Y008458D02*
X003523Y008458D01*
X003476Y008380D02*
X003372Y008183D01*
X003281Y007980D01*
X003202Y007772D01*
X003136Y007559D01*
X003083Y007343D01*
X003042Y007124D01*
X003016Y006903D01*
X003002Y006681D01*
X003002Y006458D01*
X003016Y006236D01*
X003042Y006015D01*
X003083Y005796D01*
X003136Y005580D01*
X003202Y005367D01*
X003281Y005159D01*
X003372Y004956D01*
X003476Y004759D01*
X003591Y004568D01*
X003718Y004385D01*
X003855Y004210D01*
X004002Y004043D01*
X004025Y004021D01*
X006573Y006569D01*
X004025Y009118D01*
X004002Y009096D01*
X003855Y008929D01*
X003718Y008754D01*
X003591Y008570D01*
X003476Y008380D01*
X003434Y008300D02*
X001916Y008300D01*
X001916Y008141D02*
X003354Y008141D01*
X003282Y007983D02*
X001916Y007983D01*
X001916Y007824D02*
X003222Y007824D01*
X003169Y007666D02*
X001916Y007666D01*
X001916Y007507D02*
X003123Y007507D01*
X003084Y007349D02*
X001916Y007349D01*
X001916Y007190D02*
X003055Y007190D01*
X003031Y007032D02*
X001916Y007032D01*
X001982Y006944D02*
X001982Y006944D01*
X002072Y006873D02*
X003014Y006873D01*
X003004Y006715D02*
X002274Y006715D01*
X002364Y006643D02*
X002364Y006643D01*
X002430Y006556D02*
X003002Y006556D01*
X003006Y006398D02*
X002549Y006398D01*
X002657Y006255D02*
X002657Y006255D01*
X002663Y006239D02*
X003015Y006239D01*
X003034Y006081D02*
X002728Y006081D01*
X002792Y005922D02*
X003059Y005922D01*
X003091Y005764D02*
X002846Y005764D01*
X002840Y005805D02*
X002840Y005805D01*
X002866Y005605D02*
X003130Y005605D01*
X003177Y005447D02*
X002887Y005447D01*
X002903Y005323D02*
X002903Y005323D01*
X002898Y005288D02*
X003232Y005288D01*
X003294Y005130D02*
X002878Y005130D01*
X002857Y004971D02*
X003366Y004971D01*
X003448Y004813D02*
X002829Y004813D01*
X002764Y004654D02*
X003539Y004654D01*
X003641Y004496D02*
X002700Y004496D01*
X002616Y004337D02*
X003755Y004337D01*
X003883Y004179D02*
X002497Y004179D01*
X002378Y004020D02*
X004250Y004020D01*
X004187Y003862D02*
X002186Y003862D01*
X002364Y004002D02*
X002364Y004002D01*
X001985Y003703D02*
X004371Y003703D01*
X004583Y003545D02*
X001916Y003545D01*
X001916Y003128D02*
X001950Y002934D01*
X002099Y002551D01*
X002083Y002594D02*
X002176Y002594D01*
X002176Y002752D02*
X002021Y002752D01*
X001959Y002911D02*
X002222Y002911D01*
X002231Y002435D02*
X002184Y002435D01*
X002300Y002277D02*
X002343Y002277D01*
X002468Y002118D02*
X002607Y002118D01*
X002668Y001960D02*
X003990Y001960D01*
X003869Y001801D02*
X003028Y001801D01*
X002905Y002118D02*
X004115Y002118D01*
X004285Y002277D02*
X003169Y002277D01*
X003280Y002435D02*
X004496Y002435D01*
X004828Y002594D02*
X003336Y002594D01*
X004182Y004179D02*
X004408Y004179D01*
X004341Y004337D02*
X004567Y004337D01*
X004499Y004496D02*
X004725Y004496D01*
X004658Y004654D02*
X004884Y004654D01*
X004816Y004813D02*
X005042Y004813D01*
X004975Y004971D02*
X005201Y004971D01*
X005133Y005130D02*
X005359Y005130D01*
X005292Y005288D02*
X005518Y005288D01*
X005450Y005447D02*
X005676Y005447D01*
X005609Y005605D02*
X005835Y005605D01*
X005767Y005764D02*
X005993Y005764D01*
X005926Y005922D02*
X006152Y005922D01*
X006084Y006081D02*
X006310Y006081D01*
X006243Y006239D02*
X006469Y006239D01*
X006401Y006398D02*
X006627Y006398D01*
X006745Y006398D02*
X006971Y006398D01*
X006903Y006239D02*
X007130Y006239D01*
X007062Y006081D02*
X007288Y006081D01*
X007220Y005922D02*
X007447Y005922D01*
X007379Y005764D02*
X007605Y005764D01*
X007537Y005605D02*
X007764Y005605D01*
X007696Y005447D02*
X007922Y005447D01*
X007854Y005288D02*
X008081Y005288D01*
X008013Y005130D02*
X008239Y005130D01*
X008171Y004971D02*
X008398Y004971D01*
X008330Y004813D02*
X008556Y004813D01*
X008488Y004654D02*
X008715Y004654D01*
X008647Y004496D02*
X008873Y004496D01*
X008805Y004337D02*
X009032Y004337D01*
X008964Y004179D02*
X009190Y004179D01*
X009122Y004020D02*
X009618Y004020D01*
X009490Y004179D02*
X009776Y004179D01*
X009617Y004337D02*
X009935Y004337D01*
X010093Y004496D02*
X009731Y004496D01*
X009833Y004654D02*
X010566Y004654D01*
X010566Y004813D02*
X009925Y004813D01*
X010007Y004971D02*
X010566Y004971D01*
X010566Y005130D02*
X010078Y005130D01*
X010140Y005288D02*
X010566Y005288D01*
X010566Y005447D02*
X010195Y005447D01*
X010243Y005605D02*
X010566Y005605D01*
X010566Y005764D02*
X010282Y005764D01*
X010313Y005922D02*
X010566Y005922D01*
X010566Y006081D02*
X010338Y006081D01*
X010357Y006239D02*
X010566Y006239D01*
X010566Y006398D02*
X010366Y006398D01*
X010370Y006556D02*
X010566Y006556D01*
X010566Y006715D02*
X010368Y006715D01*
X010358Y006873D02*
X010566Y006873D01*
X010566Y007032D02*
X010341Y007032D01*
X010318Y007190D02*
X010566Y007190D01*
X010566Y007349D02*
X010288Y007349D01*
X010249Y007507D02*
X010566Y007507D01*
X010566Y007666D02*
X010203Y007666D01*
X010150Y007824D02*
X010566Y007824D01*
X010566Y007983D02*
X010090Y007983D01*
X010019Y008141D02*
X010566Y008141D01*
X010551Y008300D02*
X009939Y008300D01*
X009849Y008458D02*
X010392Y008458D01*
X010234Y008617D02*
X009749Y008617D01*
X009638Y008775D02*
X010075Y008775D01*
X009917Y008934D02*
X009513Y008934D01*
X009373Y009092D02*
X009758Y009092D01*
X009600Y009251D02*
X009215Y009251D01*
X009322Y009092D02*
X009096Y009092D01*
X009163Y008934D02*
X008937Y008934D01*
X009005Y008775D02*
X008779Y008775D01*
X008846Y008617D02*
X008620Y008617D01*
X008688Y008458D02*
X008462Y008458D01*
X008529Y008300D02*
X008303Y008300D01*
X008371Y008141D02*
X008145Y008141D01*
X008212Y007983D02*
X007986Y007983D01*
X008054Y007824D02*
X007828Y007824D01*
X007895Y007666D02*
X007669Y007666D01*
X007737Y007507D02*
X007511Y007507D01*
X007578Y007349D02*
X007352Y007349D01*
X007420Y007190D02*
X007194Y007190D01*
X007261Y007032D02*
X007035Y007032D01*
X007103Y006873D02*
X006877Y006873D01*
X006944Y006715D02*
X006718Y006715D01*
X006654Y006715D02*
X006428Y006715D01*
X006496Y006873D02*
X006269Y006873D01*
X006337Y007032D02*
X006111Y007032D01*
X006179Y007190D02*
X005952Y007190D01*
X006020Y007349D02*
X005794Y007349D01*
X005862Y007507D02*
X005635Y007507D01*
X005703Y007666D02*
X005477Y007666D01*
X005545Y007824D02*
X005318Y007824D01*
X005386Y007983D02*
X005160Y007983D01*
X005228Y008141D02*
X005001Y008141D01*
X005069Y008300D02*
X004843Y008300D01*
X004911Y008458D02*
X004684Y008458D01*
X004752Y008617D02*
X004526Y008617D01*
X004594Y008775D02*
X004367Y008775D01*
X004435Y008934D02*
X004209Y008934D01*
X004277Y009092D02*
X004050Y009092D01*
X003999Y009092D02*
X003728Y009092D01*
X003859Y008934D02*
X003569Y008934D01*
X003411Y008775D02*
X003734Y008775D01*
X003623Y008617D02*
X003252Y008617D01*
X003886Y009251D02*
X004157Y009251D01*
X004045Y009409D02*
X004337Y009409D01*
X004203Y009568D02*
X004545Y009568D01*
X004362Y009726D02*
X004787Y009726D01*
X004520Y009885D02*
X005076Y009885D01*
X005457Y010043D02*
X004679Y010043D01*
X004672Y010202D02*
X006069Y010202D01*
X007303Y010202D02*
X007601Y010202D01*
X007671Y010360D02*
X004513Y010360D01*
X004580Y010519D02*
X008616Y010519D01*
X009096Y010519D02*
X009411Y010519D01*
X009253Y010677D02*
X009235Y010677D01*
X009169Y010360D02*
X009570Y010360D01*
X009728Y010202D02*
X009328Y010202D01*
X009486Y010043D02*
X009887Y010043D01*
X010045Y009885D02*
X009645Y009885D01*
X009803Y009726D02*
X010204Y009726D01*
X010362Y009568D02*
X009962Y009568D01*
X010120Y009409D02*
X010521Y009409D01*
X010679Y009251D02*
X010279Y009251D01*
X010437Y009092D02*
X010838Y009092D01*
X010996Y008934D02*
X010596Y008934D01*
X010754Y008775D02*
X011090Y008775D01*
X011285Y008775D02*
X011285Y008775D01*
X011243Y008617D02*
X010913Y008617D01*
X011444Y008934D02*
X011444Y008934D01*
X011570Y009059D02*
X011570Y009059D01*
X011695Y008934D02*
X011695Y008934D01*
X011838Y008934D02*
X012374Y008934D01*
X012588Y008934D02*
X012777Y008934D01*
X012783Y008944D02*
X012759Y008903D01*
X012747Y008857D01*
X012747Y008810D01*
X012759Y008764D01*
X012783Y008723D01*
X012926Y008580D01*
X013193Y008847D01*
X012940Y009101D01*
X012783Y008944D01*
X012747Y009092D02*
X012931Y009092D01*
X012948Y009092D02*
X013001Y009092D01*
X013089Y009251D02*
X012905Y009251D01*
X012925Y009270D02*
X012925Y009270D01*
X013064Y009409D02*
X013319Y009409D01*
X013222Y009568D02*
X013477Y009568D01*
X013381Y009726D02*
X013636Y009726D01*
X013777Y009726D02*
X013801Y009726D01*
X013876Y009885D02*
X013539Y009885D01*
X013698Y010043D02*
X013876Y010043D01*
X013876Y010202D02*
X013856Y010202D01*
X014236Y010109D02*
X014236Y009865D01*
X014272Y009828D01*
X014311Y009735D01*
X014311Y009633D01*
X014283Y009565D01*
X014401Y009684D01*
X014401Y009735D01*
X014440Y009828D01*
X014511Y009900D01*
X014576Y009927D01*
X014576Y010449D01*
X014236Y010109D01*
X014236Y010043D02*
X014576Y010043D01*
X014576Y010202D02*
X014328Y010202D01*
X014486Y010360D02*
X014576Y010360D01*
X014496Y009885D02*
X014236Y009885D01*
X014311Y009726D02*
X014401Y009726D01*
X014284Y009568D02*
X014285Y009568D01*
X013159Y008934D02*
X013107Y008934D01*
X013121Y008775D02*
X013173Y008775D01*
X013014Y008617D02*
X012962Y008617D01*
X012889Y008617D02*
X011521Y008617D01*
X011679Y008775D02*
X012756Y008775D01*
X012216Y009092D02*
X011996Y009092D01*
X011836Y009568D02*
X011760Y009568D01*
X011602Y009726D02*
X011983Y009726D01*
X012141Y009885D02*
X011443Y009885D01*
X011285Y010043D02*
X012300Y010043D01*
X012246Y009990D02*
X012246Y009990D01*
X012458Y010202D02*
X011126Y010202D01*
X010968Y010360D02*
X012617Y010360D01*
X012775Y010519D02*
X010809Y010519D01*
X010651Y010677D02*
X012934Y010677D01*
X013092Y010836D02*
X010492Y010836D01*
X010334Y010994D02*
X013251Y010994D01*
X013409Y011153D02*
X010175Y011153D01*
X009363Y011945D02*
X007971Y011945D01*
X008130Y011787D02*
X009226Y011787D01*
X009068Y011628D02*
X008225Y011628D01*
X008310Y011470D02*
X008909Y011470D01*
X008755Y011311D02*
X008468Y011311D01*
X008662Y011153D02*
X008733Y011153D01*
X009159Y011470D02*
X009159Y011470D01*
X009204Y012104D02*
X007791Y012104D01*
X007711Y012262D02*
X009052Y012262D01*
X009110Y012421D02*
X008705Y012421D01*
X008864Y012579D02*
X009268Y012579D01*
X009247Y012558D02*
X009247Y012558D01*
X009339Y013055D02*
X009491Y013055D01*
X009683Y013372D02*
X010061Y013372D01*
X009902Y013213D02*
X009842Y013213D01*
X009091Y013055D02*
X008679Y013055D01*
X008521Y013213D02*
X008933Y013213D01*
X008175Y012579D02*
X007378Y012579D01*
X007552Y012421D02*
X008333Y012421D01*
X007487Y012262D02*
X007434Y012262D01*
X007310Y012104D02*
X007276Y012104D01*
X007204Y012262D02*
X007152Y012262D01*
X006956Y013847D02*
X007557Y013847D01*
X007856Y013847D02*
X008129Y013847D01*
X007971Y014006D02*
X007035Y014006D01*
X007034Y014164D02*
X007897Y014164D01*
X008032Y014323D02*
X006955Y014323D01*
X006949Y014640D02*
X008323Y014640D01*
X008437Y014798D02*
X007031Y014798D01*
X007036Y014957D02*
X008595Y014957D01*
X008539Y014900D02*
X008696Y015057D01*
X008737Y015081D01*
X008783Y015093D01*
X008830Y015093D01*
X008876Y015081D01*
X008917Y015057D01*
X009060Y014914D01*
X008792Y014647D01*
X008539Y014900D01*
X008589Y014798D02*
X008641Y014798D01*
X008747Y014640D02*
X008785Y014640D01*
X008800Y014640D02*
X008837Y014640D01*
X008818Y014621D02*
X009086Y014888D01*
X009229Y014745D01*
X009252Y014704D01*
X009265Y014658D01*
X009265Y014611D01*
X009252Y014565D01*
X009229Y014524D01*
X009072Y014367D01*
X008818Y014621D01*
X008906Y014481D02*
X008958Y014481D01*
X009027Y014323D02*
X009684Y014323D01*
X009606Y014481D02*
X009553Y014481D01*
X009526Y014481D02*
X009186Y014481D01*
X009265Y014640D02*
X009374Y014640D01*
X009358Y014798D02*
X009176Y014798D01*
X009017Y014957D02*
X009494Y014957D01*
X009557Y014957D02*
X009609Y014957D01*
X009653Y015115D02*
X006962Y015115D01*
X006859Y015591D02*
X007402Y015591D01*
X007710Y015591D02*
X009914Y015591D01*
X009876Y015432D02*
X007811Y015432D01*
X007786Y015274D02*
X009876Y015274D01*
X009768Y014798D02*
X009716Y014798D01*
X009712Y014640D02*
X009764Y014640D01*
X010267Y014798D02*
X012285Y014798D01*
X012236Y014848D02*
X012433Y015045D01*
X012433Y015045D01*
X012526Y015138D01*
X012627Y015239D01*
X012627Y015240D01*
X012526Y015138D01*
X012433Y015045D01*
X012433Y015045D01*
X012236Y014848D01*
X012344Y014957D02*
X012344Y014957D01*
X012127Y014957D02*
X010849Y014957D01*
X010972Y015115D02*
X011968Y015115D01*
X011930Y015274D02*
X011036Y015274D01*
X011036Y015432D02*
X012050Y015432D01*
X012048Y015429D02*
X012151Y015326D01*
X012048Y015429D01*
X012151Y015326D02*
X012151Y015326D01*
X012209Y015591D02*
X010998Y015591D01*
X010377Y014640D02*
X012444Y014640D01*
X012797Y014640D02*
X013339Y014640D01*
X013177Y014798D02*
X012955Y014798D01*
X013012Y014855D02*
X012909Y014958D01*
X013012Y014855D01*
X012910Y014957D02*
X012910Y014957D01*
X012909Y014958D02*
X012909Y014958D01*
X012503Y015115D02*
X012503Y015115D01*
X012276Y015591D02*
X012276Y015591D01*
X013553Y013847D02*
X014146Y013847D01*
X014308Y013689D02*
X013611Y013689D01*
X013562Y013530D02*
X014469Y013530D01*
X014631Y013372D02*
X013536Y013372D01*
X013536Y013213D02*
X014792Y013213D01*
X014954Y013055D02*
X013536Y013055D01*
X009441Y009409D02*
X009035Y009409D01*
X008828Y009568D02*
X009283Y009568D01*
X009124Y009726D02*
X008585Y009726D01*
X008296Y009885D02*
X008966Y009885D01*
X008807Y010043D02*
X008773Y010043D01*
X006813Y006556D02*
X006786Y006556D01*
X006586Y006556D02*
X006560Y006556D01*
X009185Y003862D02*
X009459Y003862D01*
X009301Y003703D02*
X009001Y003703D01*
X009142Y003545D02*
X008789Y003545D01*
X008984Y003386D02*
X008541Y003386D01*
X008825Y003228D02*
X008237Y003228D01*
X007836Y003069D02*
X008676Y003069D01*
X008727Y002911D02*
X007116Y002911D01*
X010378Y004496D02*
X010528Y004496D01*
X012537Y006556D02*
X012574Y006556D01*
X012574Y006715D02*
X012537Y006715D01*
X012537Y006873D02*
X012574Y006873D01*
X014188Y006556D02*
X015606Y006556D01*
X015433Y003228D02*
X015871Y003228D01*
X015835Y003069D02*
X015566Y003069D01*
X015631Y002911D02*
X015798Y002911D01*
X015722Y002752D02*
X015636Y002752D01*
X015646Y002594D02*
X015605Y002594D01*
X015531Y002435D02*
X015527Y002435D01*
X015404Y002277D02*
X015346Y002277D01*
X008191Y014481D02*
X006383Y014481D01*
X006916Y015659D02*
X006916Y015659D01*
X008944Y014798D02*
X008996Y014798D01*
D20*
X008792Y014621D02*
X009256Y015084D01*
X009456Y015084D01*
X009785Y014755D01*
X009785Y014621D01*
X010256Y014349D02*
X010256Y014284D01*
X009856Y013884D01*
X010292Y014247D02*
X010256Y014349D01*
X010292Y014247D02*
X010429Y014384D01*
X010756Y014384D01*
X011263Y013877D01*
X011263Y013875D01*
X012056Y014684D02*
X012056Y012034D01*
X011956Y011784D01*
X009426Y011203D02*
X009131Y010908D01*
X009107Y010884D02*
X008856Y010884D01*
X008856Y010334D01*
X010806Y008384D01*
X010806Y004434D01*
X009874Y003502D01*
X009874Y003382D01*
X011756Y005684D02*
X011956Y005684D01*
X011756Y005684D02*
X011556Y005884D01*
X011556Y006784D01*
X011556Y008484D01*
X011570Y008498D01*
X011570Y008584D01*
X011570Y009059D01*
X009231Y011398D02*
X008631Y012009D01*
X008059Y011988D01*
X007559Y012488D01*
X007319Y012247D01*
X007319Y012121D01*
X007559Y012488D02*
X007219Y012828D01*
X007219Y013047D01*
X007192Y013047D01*
X006806Y013434D01*
X006756Y013384D01*
X006156Y013384D01*
X006156Y014234D01*
X006156Y013384D02*
X005856Y012784D01*
X005856Y011784D01*
X004506Y010784D02*
X008256Y010784D01*
X008456Y010984D01*
X007792Y011647D01*
X007792Y011647D01*
X008456Y010984D02*
X008556Y010884D01*
X008856Y010884D01*
X006806Y013434D02*
X008342Y014971D01*
X008442Y014971D01*
X008792Y014621D01*
X008442Y014971D02*
X008356Y015057D01*
X008356Y015184D01*
X005156Y014234D02*
X004706Y013884D01*
X003756Y013884D01*
X004506Y010784D02*
X003499Y009777D01*
X003499Y009757D01*
X006686Y006569D02*
X008401Y008284D01*
X012056Y014684D02*
X012416Y015045D01*
X012433Y015045D01*
X012627Y015240D02*
X015384Y012483D01*
X015384Y012456D01*
D21*
X015411Y012456D01*
X015022Y012066D02*
X015256Y011832D01*
X015556Y011534D01*
X015556Y011484D01*
X015456Y011384D01*
X015456Y010069D01*
X015306Y009919D01*
X014956Y009584D02*
X013256Y007884D01*
X013521Y007619D01*
X013956Y007619D01*
X014356Y008084D02*
X014356Y007084D01*
X014156Y006884D01*
X014021Y006884D01*
X013956Y006949D01*
X013921Y006949D01*
X013856Y006884D01*
X012621Y006884D01*
X012556Y006949D01*
X012490Y006884D01*
X011656Y006884D01*
X011556Y006784D01*
X012556Y007619D02*
X012556Y007984D01*
X012756Y008184D01*
X013156Y008184D01*
X014656Y009684D01*
X014756Y009784D01*
X014756Y010434D01*
X014956Y010634D01*
X014956Y011284D01*
X014632Y011608D01*
X014459Y011481D02*
X014756Y011184D01*
X014756Y010884D01*
X014056Y010184D01*
X014056Y009684D01*
X013692Y009321D01*
X013219Y008847D02*
X012956Y008584D01*
X011570Y008584D01*
X011570Y009059D02*
X011570Y009098D01*
X009426Y011154D02*
X009426Y011203D01*
X009426Y011154D02*
X009156Y010884D01*
X009107Y010884D01*
X009131Y010908D01*
X008556Y010184D02*
X007856Y010184D01*
X009899Y012511D02*
X009899Y012541D01*
X009656Y012784D01*
X008560Y012784D01*
X008408Y012836D01*
X007723Y013521D01*
X007692Y013521D01*
X008319Y014147D02*
X008935Y013532D01*
X009104Y013532D01*
X008808Y013632D01*
X009056Y013384D01*
X009416Y013384D01*
X010094Y012706D01*
X008419Y014047D02*
X008319Y014147D01*
X007556Y015384D02*
X006756Y015384D01*
X005156Y014734D02*
X005106Y014784D01*
X005056Y014784D01*
X004856Y014984D01*
X004656Y014984D01*
X009785Y014621D02*
X009819Y014721D01*
X012433Y015045D02*
X012433Y015061D01*
X012456Y015084D01*
X012472Y015084D01*
X012627Y015240D01*
X013056Y013884D02*
X013056Y012084D01*
X014047Y011093D01*
X014047Y011092D01*
X014253Y011286D02*
X013356Y012184D01*
X013356Y013684D01*
X014827Y011871D02*
X015156Y011542D01*
X015156Y010484D01*
X014956Y010284D01*
X014956Y009584D01*
X015306Y009249D02*
X015256Y008984D01*
X014356Y008084D01*
D22*
X014456Y007884D03*
X015156Y008334D03*
X015806Y008284D03*
X015806Y009084D03*
X015806Y009734D03*
X015806Y010334D03*
X015806Y011084D03*
X015556Y011534D03*
X015806Y011984D03*
X014956Y012884D03*
X014606Y013234D03*
X014206Y012834D03*
X014556Y012484D03*
X013806Y013234D03*
X014206Y013634D03*
X013806Y014034D03*
X013456Y014384D03*
X013056Y014784D03*
X013056Y013884D03*
X013356Y013684D03*
X012056Y014684D03*
X011856Y015184D03*
X011656Y015634D03*
X012156Y015634D03*
X011156Y015634D03*
X011256Y015184D03*
X011256Y014684D03*
X010556Y014684D03*
X009856Y013884D03*
X009356Y013884D03*
X009906Y013334D03*
X010256Y013684D03*
X009656Y015284D03*
X009856Y015634D03*
X008956Y015634D03*
X008356Y015184D03*
X007956Y015634D03*
X007556Y015384D03*
X007106Y015084D03*
X007056Y015634D03*
X007956Y014534D03*
X007206Y013834D03*
X008356Y013534D03*
X008356Y012084D03*
X008456Y010984D03*
X008556Y010184D03*
X007856Y010184D03*
X009506Y010234D03*
X010156Y009534D03*
X010906Y008834D03*
X010356Y007884D03*
X013256Y007884D03*
X014256Y006384D03*
X015006Y006584D03*
X015556Y006684D03*
X015806Y007384D03*
X015056Y005784D03*
X014256Y004984D03*
X015056Y004784D03*
X015556Y003984D03*
X015756Y002984D03*
X015056Y002084D03*
X014156Y001884D03*
X014156Y002784D03*
X013256Y001884D03*
X012356Y001884D03*
X011456Y001884D03*
X010456Y001884D03*
X009556Y001884D03*
X008856Y001884D03*
X008156Y001884D03*
X008556Y002684D03*
X007256Y001884D03*
X006556Y002584D03*
X005356Y002884D03*
X004356Y002584D03*
X003656Y001884D03*
X002956Y001984D03*
X002056Y003084D03*
X002056Y003584D03*
X002756Y004184D03*
X003606Y003434D03*
X003056Y005284D03*
X002756Y006284D03*
X002056Y007084D03*
X002056Y008084D03*
X002856Y008484D03*
X002056Y009084D03*
X002056Y010184D03*
X003006Y010584D03*
X003006Y011584D03*
X003006Y012384D03*
X003706Y012884D03*
X003006Y013284D03*
X003256Y013984D03*
X003756Y013884D03*
X004156Y014284D03*
X004256Y013484D03*
X004656Y014984D03*
X004256Y015084D03*
X003956Y015584D03*
X003156Y015584D03*
X002256Y014784D03*
X002056Y014084D03*
X002056Y013284D03*
X002056Y012384D03*
X002056Y011384D03*
X010806Y003084D03*
X012306Y003284D03*
X013656Y003984D03*
X014056Y009684D03*
X013756Y009934D03*
X014406Y010084D03*
X014656Y009684D03*
D23*
X014253Y011286D02*
X014242Y011286D01*
X014437Y011481D02*
X014459Y011481D01*
X014632Y011608D02*
X014632Y011676D01*
X006756Y015384D02*
X006706Y015384D01*
X006256Y015034D01*
X006056Y015034D01*
X005906Y014984D01*
X005656Y014734D01*
M02*
