G75*
%MOIN*%
%OFA0B0*%
%FSLAX25Y25*%
%IPPOS*%
%LPD*%
%AMOC8*
5,1,8,0,0,1.08239X$1,22.5*
%
%ADD10C,0.03400*%
%ADD11C,0.03100*%
%ADD12R,0.07283X0.01969*%
%ADD13R,0.01969X0.07283*%
%ADD14R,0.04331X0.03937*%
%ADD15R,0.04331X0.07480*%
%ADD16R,0.03937X0.04331*%
%ADD17C,0.70079*%
%ADD18R,0.09843X0.20079*%
%ADD19C,0.01600*%
%ADD20C,0.02000*%
%ADD21C,0.01000*%
%ADD22C,0.02700*%
%ADD23C,0.00600*%
%ADD24C,0.01200*%
D10*
X0058558Y0056840D03*
X0119558Y0056840D03*
X0119558Y0117840D03*
X0058558Y0117840D03*
D11*
X0050558Y0143840D03*
X0045558Y0143840D03*
X0040558Y0143840D03*
X0040558Y0148840D03*
X0045558Y0148840D03*
X0050558Y0148840D03*
D12*
G36*
X0096972Y0117946D02*
X0091824Y0123094D01*
X0093216Y0124486D01*
X0098364Y0119338D01*
X0096972Y0117946D01*
G37*
G36*
X0098921Y0119894D02*
X0093773Y0125042D01*
X0095165Y0126434D01*
X0100313Y0121286D01*
X0098921Y0119894D01*
G37*
G36*
X0100870Y0121843D02*
X0095722Y0126991D01*
X0097114Y0128383D01*
X0102262Y0123235D01*
X0100870Y0121843D01*
G37*
G36*
X0102819Y0123792D02*
X0097671Y0128940D01*
X0099063Y0130332D01*
X0104211Y0125184D01*
X0102819Y0123792D01*
G37*
G36*
X0104767Y0125740D02*
X0099619Y0130888D01*
X0101011Y0132280D01*
X0106159Y0127132D01*
X0104767Y0125740D01*
G37*
G36*
X0106716Y0127689D02*
X0101568Y0132837D01*
X0102960Y0134229D01*
X0108108Y0129081D01*
X0106716Y0127689D01*
G37*
G36*
X0108665Y0129638D02*
X0103517Y0134786D01*
X0104909Y0136178D01*
X0110057Y0131030D01*
X0108665Y0129638D01*
G37*
G36*
X0110613Y0131587D02*
X0105465Y0136735D01*
X0106857Y0138127D01*
X0112005Y0132979D01*
X0110613Y0131587D01*
G37*
G36*
X0112562Y0133535D02*
X0107414Y0138683D01*
X0108806Y0140075D01*
X0113954Y0134927D01*
X0112562Y0133535D01*
G37*
G36*
X0114511Y0135484D02*
X0109363Y0140632D01*
X0110755Y0142024D01*
X0115903Y0136876D01*
X0114511Y0135484D01*
G37*
G36*
X0126203Y0147176D02*
X0121055Y0152324D01*
X0122447Y0153716D01*
X0127595Y0148568D01*
X0126203Y0147176D01*
G37*
G36*
X0128152Y0149125D02*
X0123004Y0154273D01*
X0124396Y0155665D01*
X0129544Y0150517D01*
X0128152Y0149125D01*
G37*
G36*
X0155991Y0121286D02*
X0150843Y0126434D01*
X0152235Y0127826D01*
X0157383Y0122678D01*
X0155991Y0121286D01*
G37*
G36*
X0154042Y0119338D02*
X0148894Y0124486D01*
X0150286Y0125878D01*
X0155434Y0120730D01*
X0154042Y0119338D01*
G37*
G36*
X0152093Y0117389D02*
X0146945Y0122537D01*
X0148337Y0123929D01*
X0153485Y0118781D01*
X0152093Y0117389D01*
G37*
G36*
X0150145Y0115440D02*
X0144997Y0120588D01*
X0146389Y0121980D01*
X0151537Y0116832D01*
X0150145Y0115440D01*
G37*
G36*
X0148196Y0113491D02*
X0143048Y0118639D01*
X0144440Y0120031D01*
X0149588Y0114883D01*
X0148196Y0113491D01*
G37*
G36*
X0146247Y0111543D02*
X0141099Y0116691D01*
X0142491Y0118083D01*
X0147639Y0112935D01*
X0146247Y0111543D01*
G37*
G36*
X0144298Y0109594D02*
X0139150Y0114742D01*
X0140542Y0116134D01*
X0145690Y0110986D01*
X0144298Y0109594D01*
G37*
G36*
X0142350Y0107645D02*
X0137202Y0112793D01*
X0138594Y0114185D01*
X0143742Y0109037D01*
X0142350Y0107645D01*
G37*
G36*
X0140401Y0105697D02*
X0135253Y0110845D01*
X0136645Y0112237D01*
X0141793Y0107089D01*
X0140401Y0105697D01*
G37*
G36*
X0138452Y0103748D02*
X0133304Y0108896D01*
X0134696Y0110288D01*
X0139844Y0105140D01*
X0138452Y0103748D01*
G37*
G36*
X0136504Y0101799D02*
X0131356Y0106947D01*
X0132748Y0108339D01*
X0137896Y0103191D01*
X0136504Y0101799D01*
G37*
G36*
X0134555Y0099850D02*
X0129407Y0104998D01*
X0130799Y0106390D01*
X0135947Y0101242D01*
X0134555Y0099850D01*
G37*
G36*
X0132606Y0097902D02*
X0127458Y0103050D01*
X0128850Y0104442D01*
X0133998Y0099294D01*
X0132606Y0097902D01*
G37*
G36*
X0130657Y0095953D02*
X0125509Y0101101D01*
X0126901Y0102493D01*
X0132049Y0097345D01*
X0130657Y0095953D01*
G37*
G36*
X0128709Y0094004D02*
X0123561Y0099152D01*
X0124953Y0100544D01*
X0130101Y0095396D01*
X0128709Y0094004D01*
G37*
G36*
X0126760Y0092055D02*
X0121612Y0097203D01*
X0123004Y0098595D01*
X0128152Y0093447D01*
X0126760Y0092055D01*
G37*
G36*
X0124811Y0090107D02*
X0119663Y0095255D01*
X0121055Y0096647D01*
X0126203Y0091499D01*
X0124811Y0090107D01*
G37*
D13*
G36*
X0113817Y0087323D02*
X0112425Y0088715D01*
X0117573Y0093863D01*
X0118965Y0092471D01*
X0113817Y0087323D01*
G37*
G36*
X0111868Y0089272D02*
X0110476Y0090664D01*
X0115624Y0095812D01*
X0117016Y0094420D01*
X0111868Y0089272D01*
G37*
G36*
X0109920Y0091220D02*
X0108528Y0092612D01*
X0113676Y0097760D01*
X0115068Y0096368D01*
X0109920Y0091220D01*
G37*
G36*
X0107971Y0093169D02*
X0106579Y0094561D01*
X0111727Y0099709D01*
X0113119Y0098317D01*
X0107971Y0093169D01*
G37*
G36*
X0106022Y0095118D02*
X0104630Y0096510D01*
X0109778Y0101658D01*
X0111170Y0100266D01*
X0106022Y0095118D01*
G37*
G36*
X0104074Y0097066D02*
X0102682Y0098458D01*
X0107830Y0103606D01*
X0109222Y0102214D01*
X0104074Y0097066D01*
G37*
G36*
X0102125Y0099015D02*
X0100733Y0100407D01*
X0105881Y0105555D01*
X0107273Y0104163D01*
X0102125Y0099015D01*
G37*
G36*
X0100176Y0100964D02*
X0098784Y0102356D01*
X0103932Y0107504D01*
X0105324Y0106112D01*
X0100176Y0100964D01*
G37*
G36*
X0098227Y0102913D02*
X0096835Y0104305D01*
X0101983Y0109453D01*
X0103375Y0108061D01*
X0098227Y0102913D01*
G37*
G36*
X0096279Y0104861D02*
X0094887Y0106253D01*
X0100035Y0111401D01*
X0101427Y0110009D01*
X0096279Y0104861D01*
G37*
G36*
X0094330Y0106810D02*
X0092938Y0108202D01*
X0098086Y0113350D01*
X0099478Y0111958D01*
X0094330Y0106810D01*
G37*
G36*
X0092381Y0108759D02*
X0090989Y0110151D01*
X0096137Y0115299D01*
X0097529Y0113907D01*
X0092381Y0108759D01*
G37*
G36*
X0090433Y0110708D02*
X0089041Y0112100D01*
X0094189Y0117248D01*
X0095581Y0115856D01*
X0090433Y0110708D01*
G37*
D14*
G36*
X0077785Y0120396D02*
X0080846Y0117335D01*
X0078063Y0114552D01*
X0075002Y0117613D01*
X0077785Y0120396D01*
G37*
G36*
X0073053Y0125128D02*
X0076114Y0122067D01*
X0073331Y0119284D01*
X0070270Y0122345D01*
X0073053Y0125128D01*
G37*
G36*
X0068270Y0129335D02*
X0071331Y0132396D01*
X0074114Y0129613D01*
X0071053Y0126552D01*
X0068270Y0129335D01*
G37*
G36*
X0073002Y0134067D02*
X0076063Y0137128D01*
X0078846Y0134345D01*
X0075785Y0131284D01*
X0073002Y0134067D01*
G37*
G36*
X0088114Y0143613D02*
X0085053Y0140552D01*
X0082270Y0143335D01*
X0085331Y0146396D01*
X0088114Y0143613D01*
G37*
G36*
X0092846Y0148345D02*
X0089785Y0145284D01*
X0087002Y0148067D01*
X0090063Y0151128D01*
X0092846Y0148345D01*
G37*
G36*
X0096053Y0149128D02*
X0099114Y0146067D01*
X0096331Y0143284D01*
X0093270Y0146345D01*
X0096053Y0149128D01*
G37*
G36*
X0100785Y0144396D02*
X0103846Y0141335D01*
X0101063Y0138552D01*
X0098002Y0141613D01*
X0100785Y0144396D01*
G37*
G36*
X0139846Y0093345D02*
X0136785Y0090284D01*
X0134002Y0093067D01*
X0137063Y0096128D01*
X0139846Y0093345D01*
G37*
G36*
X0135114Y0088613D02*
X0132053Y0085552D01*
X0129270Y0088335D01*
X0132331Y0091396D01*
X0135114Y0088613D01*
G37*
D15*
G36*
X0086863Y0136433D02*
X0089925Y0139495D01*
X0095213Y0134207D01*
X0092151Y0131145D01*
X0086863Y0136433D01*
G37*
G36*
X0079903Y0129473D02*
X0082965Y0132535D01*
X0088253Y0127247D01*
X0085191Y0124185D01*
X0079903Y0129473D01*
G37*
D16*
X0125558Y0076187D03*
X0125558Y0069494D03*
X0137558Y0069494D03*
X0137558Y0076187D03*
X0153058Y0092494D03*
X0153058Y0099187D03*
D17*
X0066861Y0065694D02*
X0066863Y0065694D01*
X0066862Y0065693D01*
X0066861Y0065692D01*
X0066860Y0065693D01*
X0066859Y0065694D01*
X0066860Y0065695D01*
X0066861Y0065696D01*
X0066862Y0065695D01*
X0066863Y0065694D01*
D18*
G36*
X0095119Y0023240D02*
X0088159Y0030200D01*
X0102355Y0044396D01*
X0109315Y0037436D01*
X0095119Y0023240D01*
G37*
G36*
X0031368Y0086991D02*
X0024408Y0093951D01*
X0038604Y0108147D01*
X0045564Y0101187D01*
X0031368Y0086991D01*
G37*
D19*
X0027811Y0019540D02*
X0026313Y0019540D01*
X0027094Y0019055D01*
X0030191Y0018119D01*
X0030296Y0018363D01*
X0030296Y0018363D01*
X0033385Y0022284D01*
X0033385Y0022284D01*
X0037372Y0025287D01*
X0037372Y0025287D01*
X0041994Y0027172D01*
X0041994Y0027172D01*
X0046944Y0027815D01*
X0046944Y0027815D01*
X0051894Y0027172D01*
X0051894Y0027172D01*
X0056515Y0025287D01*
X0056515Y0025287D01*
X0060503Y0022284D01*
X0060503Y0022284D01*
X0063591Y0018363D01*
X0063591Y0018363D01*
X0063774Y0017940D01*
X0141558Y0017940D01*
X0143450Y0018046D01*
X0147140Y0018889D01*
X0148868Y0019721D01*
X0146989Y0020499D01*
X0145217Y0022272D01*
X0144258Y0024587D01*
X0144258Y0027093D01*
X0145217Y0029409D01*
X0146989Y0031181D01*
X0149305Y0032140D01*
X0151811Y0032140D01*
X0154127Y0031181D01*
X0155899Y0029409D01*
X0156677Y0027530D01*
X0157509Y0029258D01*
X0158352Y0032948D01*
X0158458Y0034840D01*
X0158458Y0052396D01*
X0158038Y0052578D01*
X0158038Y0052578D01*
X0154222Y0055787D01*
X0154222Y0055787D01*
X0151486Y0059956D01*
X0151486Y0059956D01*
X0150058Y0064733D01*
X0150058Y0069642D01*
X0149811Y0069540D01*
X0147305Y0069540D01*
X0144989Y0070499D01*
X0143217Y0072272D01*
X0142258Y0074587D01*
X0142258Y0077093D01*
X0143217Y0079409D01*
X0144989Y0081181D01*
X0147305Y0082140D01*
X0149811Y0082140D01*
X0152127Y0081181D01*
X0153899Y0079409D01*
X0154213Y0078650D01*
X0154222Y0078665D01*
X0154222Y0078665D01*
X0154222Y0078665D01*
X0158038Y0081874D01*
X0158458Y0082056D01*
X0158458Y0121206D01*
X0157961Y0120708D01*
X0154113Y0124556D01*
X0154113Y0124556D01*
X0157961Y0120708D01*
X0157097Y0119845D01*
X0156687Y0119608D01*
X0156229Y0119485D01*
X0156172Y0119485D01*
X0155129Y0118442D01*
X0155484Y0118090D01*
X0156105Y0118090D01*
X0157116Y0117671D01*
X0157889Y0116898D01*
X0158308Y0115887D01*
X0158308Y0114793D01*
X0157889Y0113782D01*
X0157116Y0113009D01*
X0156458Y0112736D01*
X0156458Y0099900D01*
X0156426Y0099868D01*
X0156426Y0096441D01*
X0156102Y0096117D01*
X0156132Y0096099D01*
X0156467Y0095764D01*
X0156704Y0095354D01*
X0156826Y0094896D01*
X0156826Y0092678D01*
X0153242Y0092678D01*
X0153242Y0092309D01*
X0153242Y0088528D01*
X0155263Y0088528D01*
X0155721Y0088651D01*
X0156132Y0088888D01*
X0156467Y0089223D01*
X0156704Y0089634D01*
X0156826Y0090091D01*
X0156826Y0092309D01*
X0153242Y0092309D01*
X0152874Y0092309D01*
X0152874Y0088528D01*
X0150852Y0088528D01*
X0150395Y0088651D01*
X0149984Y0088888D01*
X0149649Y0089223D01*
X0149412Y0089634D01*
X0149289Y0090091D01*
X0149289Y0092309D01*
X0152874Y0092309D01*
X0152874Y0092678D01*
X0149289Y0092678D01*
X0149289Y0092885D01*
X0136157Y0079752D01*
X0140106Y0079752D01*
X0140926Y0078932D01*
X0140926Y0073441D01*
X0140602Y0073117D01*
X0140632Y0073099D01*
X0140967Y0072764D01*
X0141204Y0072354D01*
X0141326Y0071896D01*
X0141326Y0069678D01*
X0137742Y0069678D01*
X0137742Y0069309D01*
X0137742Y0065528D01*
X0139763Y0065528D01*
X0140221Y0065651D01*
X0140632Y0065888D01*
X0140967Y0066223D01*
X0141204Y0066634D01*
X0141326Y0067091D01*
X0141326Y0069309D01*
X0137742Y0069309D01*
X0137374Y0069309D01*
X0137374Y0065528D01*
X0135352Y0065528D01*
X0134895Y0065651D01*
X0134484Y0065888D01*
X0134149Y0066223D01*
X0133912Y0066634D01*
X0133789Y0067091D01*
X0133789Y0069309D01*
X0137374Y0069309D01*
X0137374Y0069678D01*
X0133789Y0069678D01*
X0133789Y0071896D01*
X0133912Y0072354D01*
X0134149Y0072764D01*
X0134484Y0073099D01*
X0134514Y0073117D01*
X0134189Y0073441D01*
X0134189Y0074522D01*
X0132621Y0076090D01*
X0132011Y0076090D01*
X0131000Y0076509D01*
X0130227Y0077282D01*
X0129808Y0078293D01*
X0129808Y0079387D01*
X0130037Y0079940D01*
X0128345Y0079940D01*
X0128131Y0079727D01*
X0128926Y0078932D01*
X0128926Y0073441D01*
X0128602Y0073117D01*
X0128632Y0073099D01*
X0128967Y0072764D01*
X0129204Y0072354D01*
X0129326Y0071896D01*
X0129326Y0069678D01*
X0125742Y0069678D01*
X0125742Y0069309D01*
X0125742Y0065528D01*
X0127763Y0065528D01*
X0128221Y0065651D01*
X0128632Y0065888D01*
X0128967Y0066223D01*
X0129204Y0066634D01*
X0129326Y0067091D01*
X0129326Y0069309D01*
X0125742Y0069309D01*
X0125374Y0069309D01*
X0125374Y0065528D01*
X0123352Y0065528D01*
X0122895Y0065651D01*
X0122484Y0065888D01*
X0122149Y0066223D01*
X0121912Y0066634D01*
X0121789Y0067091D01*
X0121789Y0069309D01*
X0125374Y0069309D01*
X0125374Y0069678D01*
X0121789Y0069678D01*
X0121789Y0071896D01*
X0121912Y0072354D01*
X0122149Y0072764D01*
X0122484Y0073099D01*
X0122514Y0073117D01*
X0122189Y0073441D01*
X0122189Y0078932D01*
X0123009Y0079752D01*
X0123658Y0079752D01*
X0123658Y0080627D01*
X0125658Y0082627D01*
X0125658Y0082627D01*
X0126771Y0083740D01*
X0130771Y0083740D01*
X0131070Y0084039D01*
X0130947Y0084110D01*
X0129518Y0085540D01*
X0132191Y0088213D01*
X0131931Y0088474D01*
X0129397Y0091008D01*
X0127828Y0089440D01*
X0127591Y0089029D01*
X0127468Y0088572D01*
X0127468Y0088098D01*
X0127591Y0087640D01*
X0127828Y0087229D01*
X0129257Y0085800D01*
X0131931Y0088474D01*
X0132191Y0088734D01*
X0129657Y0091269D01*
X0131225Y0092837D01*
X0131636Y0093074D01*
X0132094Y0093197D01*
X0132568Y0093197D01*
X0132601Y0093188D01*
X0132601Y0093647D01*
X0136483Y0097530D01*
X0137643Y0097530D01*
X0138102Y0097071D01*
X0138771Y0097740D01*
X0139569Y0097740D01*
X0139658Y0097829D01*
X0139658Y0102971D01*
X0139033Y0102347D01*
X0137085Y0100398D01*
X0135136Y0098449D01*
X0133187Y0096501D01*
X0131238Y0094552D01*
X0129290Y0092603D01*
X0129290Y0092603D01*
X0127341Y0090654D01*
X0125392Y0088706D01*
X0124233Y0088706D01*
X0120753Y0092185D01*
X0120644Y0091777D01*
X0120407Y0091367D01*
X0117664Y0088624D01*
X0115695Y0090593D01*
X0115695Y0090593D01*
X0111847Y0086745D01*
X0110984Y0087609D01*
X0110747Y0088019D01*
X0110624Y0088477D01*
X0110624Y0088534D01*
X0109075Y0090083D01*
X0107127Y0092031D01*
X0105178Y0093980D01*
X0103229Y0095929D01*
X0101281Y0097877D01*
X0099332Y0099826D01*
X0097383Y0101775D01*
X0095434Y0103724D01*
X0093486Y0105672D01*
X0092958Y0106200D01*
X0092958Y0101334D01*
X0111417Y0082875D01*
X0111417Y0082875D01*
X0112092Y0082200D01*
X0112458Y0081318D01*
X0112458Y0047391D01*
X0112476Y0046965D01*
X0112458Y0046915D01*
X0112458Y0046863D01*
X0112295Y0046469D01*
X0112148Y0046068D01*
X0112113Y0046029D01*
X0112092Y0045981D01*
X0111791Y0045679D01*
X0107607Y0041126D01*
X0110715Y0038017D01*
X0110715Y0036857D01*
X0095697Y0021839D01*
X0094538Y0021839D01*
X0086758Y0029619D01*
X0086758Y0030779D01*
X0101776Y0045797D01*
X0102936Y0045797D01*
X0104210Y0044523D01*
X0107658Y0048275D01*
X0107658Y0079846D01*
X0089198Y0098306D01*
X0089198Y0098306D01*
X0088523Y0098981D01*
X0088158Y0099863D01*
X0088158Y0100931D01*
X0087889Y0100282D01*
X0087116Y0099509D01*
X0086105Y0099090D01*
X0085011Y0099090D01*
X0084000Y0099509D01*
X0083569Y0099940D01*
X0080547Y0099940D01*
X0080520Y0099913D01*
X0080965Y0099744D01*
X0082996Y0098831D01*
X0084967Y0097796D01*
X0086872Y0096644D01*
X0088704Y0095380D01*
X0090457Y0094007D01*
X0092123Y0092530D01*
X0092345Y0092309D01*
X0066861Y0066825D01*
X0065730Y0065694D01*
X0040246Y0091177D01*
X0040025Y0090956D01*
X0038548Y0089290D01*
X0037175Y0087537D01*
X0035911Y0085705D01*
X0034759Y0083799D01*
X0033724Y0081828D01*
X0032810Y0079798D01*
X0032021Y0077716D01*
X0031359Y0075591D01*
X0030826Y0073429D01*
X0030425Y0071239D01*
X0030156Y0069029D01*
X0030022Y0066807D01*
X0030022Y0064581D01*
X0030156Y0062358D01*
X0030425Y0060148D01*
X0030826Y0057958D01*
X0031359Y0055797D01*
X0032021Y0053671D01*
X0032810Y0051589D01*
X0033724Y0049559D01*
X0034759Y0047588D01*
X0035911Y0045683D01*
X0037175Y0043850D01*
X0038548Y0042098D01*
X0040025Y0040431D01*
X0040246Y0040210D01*
X0065730Y0065694D01*
X0066861Y0064562D01*
X0041377Y0039079D01*
X0041599Y0038857D01*
X0043265Y0037381D01*
X0045018Y0036008D01*
X0046850Y0034743D01*
X0048755Y0033591D01*
X0050727Y0032557D01*
X0052757Y0031643D01*
X0054839Y0030854D01*
X0056964Y0030191D01*
X0059126Y0029658D01*
X0061316Y0029257D01*
X0063526Y0028989D01*
X0065748Y0028854D01*
X0067974Y0028854D01*
X0070197Y0028989D01*
X0072407Y0029257D01*
X0074597Y0029658D01*
X0076758Y0030191D01*
X0078884Y0030854D01*
X0080965Y0031643D01*
X0082996Y0032557D01*
X0084967Y0033591D01*
X0086872Y0034743D01*
X0088704Y0036008D01*
X0090457Y0037381D01*
X0092123Y0038857D01*
X0092345Y0039079D01*
X0066861Y0064562D01*
X0067993Y0065694D01*
X0066861Y0066825D01*
X0041377Y0092309D01*
X0041599Y0092530D01*
X0043265Y0094007D01*
X0045018Y0095380D01*
X0046850Y0096644D01*
X0048755Y0097796D01*
X0050727Y0098831D01*
X0052757Y0099744D01*
X0054839Y0100534D01*
X0056964Y0101196D01*
X0059126Y0101729D01*
X0061316Y0102130D01*
X0063526Y0102399D01*
X0065748Y0102533D01*
X0067974Y0102533D01*
X0070197Y0102399D01*
X0072407Y0102130D01*
X0074597Y0101729D01*
X0075808Y0101430D01*
X0075808Y0102387D01*
X0076227Y0103398D01*
X0077000Y0104171D01*
X0078011Y0104590D01*
X0079105Y0104590D01*
X0080116Y0104171D01*
X0080547Y0103740D01*
X0083569Y0103740D01*
X0084000Y0104171D01*
X0085011Y0104590D01*
X0086105Y0104590D01*
X0087116Y0104171D01*
X0087889Y0103398D01*
X0088158Y0102749D01*
X0088158Y0105440D01*
X0086080Y0105440D01*
X0085198Y0105806D01*
X0084558Y0106446D01*
X0083917Y0105806D01*
X0083035Y0105440D01*
X0046052Y0105440D01*
X0044672Y0104060D01*
X0046964Y0101768D01*
X0046964Y0100608D01*
X0031947Y0085590D01*
X0030787Y0085590D01*
X0023007Y0093370D01*
X0023007Y0094530D01*
X0038025Y0109548D01*
X0039185Y0109548D01*
X0041278Y0107454D01*
X0043023Y0109200D01*
X0043698Y0109875D01*
X0044580Y0110240D01*
X0080764Y0110240D01*
X0077853Y0113151D01*
X0077483Y0113151D01*
X0073601Y0117033D01*
X0073601Y0117492D01*
X0073568Y0117483D01*
X0073094Y0117483D01*
X0072636Y0117606D01*
X0072225Y0117843D01*
X0070657Y0119411D01*
X0073191Y0121946D01*
X0072931Y0122206D01*
X0070396Y0119672D01*
X0068828Y0121240D01*
X0068591Y0121651D01*
X0068468Y0122109D01*
X0068468Y0122583D01*
X0068591Y0123040D01*
X0068828Y0123451D01*
X0070257Y0124880D01*
X0072931Y0122206D01*
X0073191Y0122467D01*
X0070908Y0124751D01*
X0070815Y0124751D01*
X0070358Y0124873D01*
X0069947Y0125110D01*
X0068518Y0126540D01*
X0071191Y0129213D01*
X0070931Y0129474D01*
X0068397Y0132008D01*
X0066828Y0130440D01*
X0066591Y0130029D01*
X0066468Y0129572D01*
X0066468Y0129098D01*
X0066591Y0128640D01*
X0066828Y0128229D01*
X0068257Y0126800D01*
X0070931Y0129474D01*
X0071191Y0129734D01*
X0068657Y0132269D01*
X0070225Y0133837D01*
X0070636Y0134074D01*
X0071094Y0134197D01*
X0071568Y0134197D01*
X0071601Y0134188D01*
X0071601Y0134647D01*
X0075483Y0138530D01*
X0076643Y0138530D01*
X0077966Y0137206D01*
X0078060Y0137206D01*
X0079232Y0136035D01*
X0079232Y0135995D01*
X0080386Y0134840D01*
X0080427Y0134840D01*
X0081858Y0133409D01*
X0082385Y0133936D01*
X0083544Y0133936D01*
X0087740Y0129740D01*
X0095575Y0129740D01*
X0094151Y0131164D01*
X0092731Y0129744D01*
X0091571Y0129744D01*
X0085462Y0135854D01*
X0085462Y0137013D01*
X0085989Y0137540D01*
X0084631Y0138899D01*
X0084121Y0139217D01*
X0084064Y0139465D01*
X0083884Y0139645D01*
X0083884Y0139739D01*
X0080868Y0142755D01*
X0080868Y0143915D01*
X0084751Y0147797D01*
X0085210Y0147797D01*
X0085201Y0147830D01*
X0085201Y0148304D01*
X0085324Y0148762D01*
X0085561Y0149173D01*
X0087129Y0150741D01*
X0089664Y0148206D01*
X0089924Y0148467D01*
X0087390Y0151001D01*
X0088958Y0152570D01*
X0089369Y0152807D01*
X0089826Y0152930D01*
X0090300Y0152930D01*
X0090758Y0152807D01*
X0091169Y0152570D01*
X0092598Y0151141D01*
X0089924Y0148467D01*
X0090185Y0148206D01*
X0092858Y0150880D01*
X0094058Y0149681D01*
X0094947Y0150570D01*
X0095358Y0150807D01*
X0095815Y0150930D01*
X0096289Y0150930D01*
X0096747Y0150807D01*
X0097158Y0150570D01*
X0098726Y0149001D01*
X0096192Y0146467D01*
X0096452Y0146207D01*
X0098987Y0148741D01*
X0100555Y0147173D01*
X0100792Y0146762D01*
X0100915Y0146304D01*
X0100915Y0145830D01*
X0100906Y0145797D01*
X0101365Y0145797D01*
X0102679Y0144483D01*
X0104006Y0144483D01*
X0103217Y0145272D01*
X0102258Y0147587D01*
X0102258Y0150093D01*
X0103217Y0152409D01*
X0104989Y0154181D01*
X0107305Y0155140D01*
X0109811Y0155140D01*
X0112127Y0154181D01*
X0113899Y0152409D01*
X0114858Y0150093D01*
X0114858Y0147587D01*
X0113899Y0145272D01*
X0112127Y0143499D01*
X0111537Y0143255D01*
X0114668Y0140125D01*
X0114691Y0140068D01*
X0117304Y0137455D01*
X0117304Y0136295D01*
X0115092Y0134083D01*
X0113143Y0132134D01*
X0111195Y0130186D01*
X0109246Y0128237D01*
X0107297Y0126288D01*
X0105348Y0124339D01*
X0103400Y0122391D01*
X0101714Y0120705D01*
X0101714Y0120705D01*
X0099502Y0118493D01*
X0099502Y0118493D01*
X0097553Y0116545D01*
X0097261Y0116545D01*
X0097382Y0116094D01*
X0097382Y0116037D01*
X0098667Y0114751D01*
X0100616Y0112802D01*
X0102564Y0110854D01*
X0104513Y0108905D01*
X0106462Y0106956D01*
X0108411Y0105008D01*
X0110359Y0103059D01*
X0112308Y0101110D01*
X0114257Y0099161D01*
X0116205Y0097213D01*
X0117754Y0095664D01*
X0117811Y0095664D01*
X0118262Y0095543D01*
X0118262Y0095836D01*
X0120211Y0097785D01*
X0122423Y0099997D01*
X0122423Y0099997D01*
X0124108Y0101682D01*
X0126057Y0103631D01*
X0128006Y0105579D01*
X0129955Y0107528D01*
X0131903Y0109477D01*
X0133852Y0111426D01*
X0135569Y0113142D01*
X0129771Y0118940D01*
X0128658Y0120053D01*
X0128658Y0137851D01*
X0128227Y0138282D01*
X0127808Y0139293D01*
X0127808Y0140387D01*
X0128227Y0141398D01*
X0129000Y0142171D01*
X0130011Y0142590D01*
X0131105Y0142590D01*
X0132116Y0142171D01*
X0132889Y0141398D01*
X0133224Y0140590D01*
X0134105Y0140590D01*
X0135116Y0140171D01*
X0135889Y0139398D01*
X0136308Y0138387D01*
X0136308Y0137293D01*
X0135889Y0136282D01*
X0135458Y0135851D01*
X0135458Y0122627D01*
X0140256Y0117829D01*
X0141647Y0119220D01*
X0143596Y0121169D01*
X0145808Y0123381D01*
X0145808Y0123381D01*
X0147756Y0125330D01*
X0147756Y0125330D01*
X0149042Y0126615D01*
X0149042Y0126672D01*
X0149164Y0127130D01*
X0149401Y0127541D01*
X0150265Y0128404D01*
X0154113Y0124556D01*
X0154113Y0124556D01*
X0150265Y0128404D01*
X0150985Y0129124D01*
X0130654Y0149079D01*
X0130122Y0148547D01*
X0129092Y0149577D01*
X0129091Y0149578D01*
X0130122Y0148547D01*
X0129258Y0147684D01*
X0129118Y0147603D01*
X0129037Y0147462D01*
X0128173Y0146599D01*
X0127143Y0147629D01*
X0127142Y0147629D01*
X0128173Y0146598D01*
X0127310Y0145735D01*
X0126899Y0145498D01*
X0126441Y0145375D01*
X0125967Y0145375D01*
X0125510Y0145498D01*
X0125099Y0145735D01*
X0122357Y0148478D01*
X0124325Y0150446D01*
X0124325Y0150446D01*
X0122356Y0148478D01*
X0119614Y0151220D01*
X0119377Y0151631D01*
X0119254Y0152089D01*
X0119254Y0152563D01*
X0119377Y0153020D01*
X0119614Y0153431D01*
X0120477Y0154294D01*
X0121508Y0153264D01*
X0121508Y0153264D01*
X0120477Y0154294D01*
X0121341Y0155158D01*
X0121481Y0155239D01*
X0121563Y0155379D01*
X0122426Y0156243D01*
X0123456Y0155213D01*
X0123457Y0155212D01*
X0122426Y0156243D01*
X0122886Y0156703D01*
X0122848Y0156740D01*
X0084774Y0156740D01*
X0084592Y0156320D01*
X0084592Y0156320D01*
X0081382Y0152504D01*
X0081382Y0152504D01*
X0077214Y0149768D01*
X0077214Y0149768D01*
X0072437Y0148340D01*
X0067451Y0148340D01*
X0062673Y0149768D01*
X0062673Y0149768D01*
X0059618Y0151773D01*
X0059858Y0151195D01*
X0059858Y0149485D01*
X0059203Y0147904D01*
X0057994Y0146695D01*
X0057137Y0146340D01*
X0057994Y0145986D01*
X0059203Y0144776D01*
X0059858Y0143195D01*
X0059858Y0141485D01*
X0059203Y0139904D01*
X0057994Y0138695D01*
X0056413Y0138040D01*
X0054703Y0138040D01*
X0053122Y0138695D01*
X0051912Y0139904D01*
X0051605Y0140648D01*
X0051535Y0140619D01*
X0050888Y0140490D01*
X0050558Y0140490D01*
X0050558Y0143840D01*
X0050558Y0143840D01*
X0050558Y0140490D01*
X0050228Y0140490D01*
X0049581Y0140619D01*
X0048971Y0140871D01*
X0048422Y0141238D01*
X0047956Y0141705D01*
X0047811Y0141921D01*
X0047229Y0141339D01*
X0046145Y0140890D01*
X0044971Y0140890D01*
X0043887Y0141339D01*
X0043058Y0142168D01*
X0042774Y0141885D01*
X0042458Y0138720D01*
X0042458Y0138363D01*
X0042411Y0138249D01*
X0042398Y0138126D01*
X0042229Y0137811D01*
X0042092Y0137481D01*
X0042005Y0137394D01*
X0041947Y0137285D01*
X0041670Y0137058D01*
X0041417Y0136806D01*
X0041409Y0136802D01*
X0041116Y0136509D01*
X0040105Y0136090D01*
X0039011Y0136090D01*
X0038000Y0136509D01*
X0037227Y0137282D01*
X0036808Y0138293D01*
X0036808Y0139387D01*
X0037227Y0140398D01*
X0037866Y0141037D01*
X0037994Y0142321D01*
X0037862Y0142640D01*
X0036413Y0142040D01*
X0034703Y0142040D01*
X0033122Y0142695D01*
X0031912Y0143904D01*
X0031801Y0144174D01*
X0031127Y0143499D01*
X0028811Y0142540D01*
X0026305Y0142540D01*
X0023989Y0143499D01*
X0022217Y0145272D01*
X0021439Y0147151D01*
X0020606Y0145422D01*
X0019764Y0141732D01*
X0019658Y0139840D01*
X0019658Y0063056D01*
X0020080Y0062873D01*
X0020080Y0062873D01*
X0024002Y0059785D01*
X0024002Y0059785D01*
X0024002Y0059785D01*
X0027005Y0055798D01*
X0027005Y0055798D01*
X0028890Y0051176D01*
X0028890Y0051176D01*
X0029533Y0046226D01*
X0029533Y0046226D01*
X0028890Y0041276D01*
X0028890Y0041276D01*
X0027005Y0036654D01*
X0027005Y0036654D01*
X0024002Y0032667D01*
X0024002Y0032667D01*
X0024002Y0032667D01*
X0020080Y0029579D01*
X0020080Y0029579D01*
X0019709Y0029418D01*
X0019712Y0029336D01*
X0020258Y0027005D01*
X0020258Y0027093D01*
X0021217Y0029409D01*
X0022989Y0031181D01*
X0025305Y0032140D01*
X0027811Y0032140D01*
X0030127Y0031181D01*
X0031899Y0029409D01*
X0032858Y0027093D01*
X0032858Y0024587D01*
X0031899Y0022272D01*
X0030127Y0020499D01*
X0027811Y0019540D01*
X0028042Y0019636D02*
X0031299Y0019636D01*
X0030861Y0021234D02*
X0032558Y0021234D01*
X0033385Y0022284D02*
X0033385Y0022284D01*
X0034113Y0022833D02*
X0032131Y0022833D01*
X0032793Y0024431D02*
X0036236Y0024431D01*
X0039193Y0026030D02*
X0032858Y0026030D01*
X0032636Y0027628D02*
X0045506Y0027628D01*
X0048381Y0027628D02*
X0088749Y0027628D01*
X0090347Y0026030D02*
X0054695Y0026030D01*
X0057652Y0024431D02*
X0091946Y0024431D01*
X0093544Y0022833D02*
X0059774Y0022833D01*
X0060503Y0022284D02*
X0060503Y0022284D01*
X0061330Y0021234D02*
X0146254Y0021234D01*
X0144984Y0022833D02*
X0096691Y0022833D01*
X0098289Y0024431D02*
X0144322Y0024431D01*
X0144258Y0026030D02*
X0099888Y0026030D01*
X0101486Y0027628D02*
X0144479Y0027628D01*
X0145142Y0029227D02*
X0103085Y0029227D01*
X0104683Y0030825D02*
X0146633Y0030825D01*
X0154482Y0030825D02*
X0157867Y0030825D01*
X0158232Y0032424D02*
X0106282Y0032424D01*
X0107880Y0034022D02*
X0158412Y0034022D01*
X0158458Y0035621D02*
X0109479Y0035621D01*
X0110715Y0037219D02*
X0158458Y0037219D01*
X0158458Y0038818D02*
X0109915Y0038818D01*
X0108316Y0040416D02*
X0158458Y0040416D01*
X0158458Y0042015D02*
X0108424Y0042015D01*
X0109893Y0043613D02*
X0158458Y0043613D01*
X0158458Y0045212D02*
X0111362Y0045212D01*
X0112436Y0046810D02*
X0158458Y0046810D01*
X0158458Y0048409D02*
X0112458Y0048409D01*
X0112458Y0050007D02*
X0158458Y0050007D01*
X0158458Y0051606D02*
X0112458Y0051606D01*
X0112458Y0053204D02*
X0157293Y0053204D01*
X0155392Y0054803D02*
X0112458Y0054803D01*
X0112458Y0056401D02*
X0153819Y0056401D01*
X0152769Y0058000D02*
X0112458Y0058000D01*
X0112458Y0059598D02*
X0151720Y0059598D01*
X0151114Y0061197D02*
X0112458Y0061197D01*
X0112458Y0062796D02*
X0150637Y0062796D01*
X0150159Y0064394D02*
X0112458Y0064394D01*
X0112458Y0065993D02*
X0122380Y0065993D01*
X0121789Y0067591D02*
X0112458Y0067591D01*
X0112458Y0069190D02*
X0121789Y0069190D01*
X0121789Y0070788D02*
X0112458Y0070788D01*
X0112458Y0072387D02*
X0121931Y0072387D01*
X0122189Y0073985D02*
X0112458Y0073985D01*
X0112458Y0075584D02*
X0122189Y0075584D01*
X0122189Y0077182D02*
X0112458Y0077182D01*
X0112458Y0078781D02*
X0122189Y0078781D01*
X0123658Y0080379D02*
X0112458Y0080379D01*
X0112184Y0081978D02*
X0125008Y0081978D01*
X0126607Y0083576D02*
X0110716Y0083576D01*
X0109117Y0085175D02*
X0129883Y0085175D01*
X0130230Y0086773D02*
X0130751Y0086773D01*
X0131829Y0088372D02*
X0132033Y0088372D01*
X0130956Y0089970D02*
X0130435Y0089970D01*
X0129957Y0091569D02*
X0128255Y0091569D01*
X0128358Y0089970D02*
X0126657Y0089970D01*
X0127468Y0088372D02*
X0117412Y0088372D01*
X0117664Y0088624D02*
X0114921Y0085881D01*
X0114511Y0085644D01*
X0114053Y0085522D01*
X0113579Y0085522D01*
X0113121Y0085644D01*
X0112711Y0085881D01*
X0111847Y0086745D01*
X0115695Y0090593D01*
X0115695Y0090593D01*
X0117664Y0088624D01*
X0119010Y0089970D02*
X0122968Y0089970D01*
X0121370Y0091569D02*
X0120523Y0091569D01*
X0116318Y0089970D02*
X0116318Y0089970D01*
X0115073Y0089970D02*
X0115072Y0089970D01*
X0113474Y0088372D02*
X0113474Y0088372D01*
X0111876Y0086773D02*
X0111875Y0086773D01*
X0111819Y0086773D02*
X0107519Y0086773D01*
X0105920Y0088372D02*
X0110652Y0088372D01*
X0109188Y0089970D02*
X0104322Y0089970D01*
X0102723Y0091569D02*
X0107589Y0091569D01*
X0105991Y0093167D02*
X0101125Y0093167D01*
X0099526Y0094766D02*
X0104392Y0094766D01*
X0102794Y0096364D02*
X0097928Y0096364D01*
X0096329Y0097963D02*
X0101195Y0097963D01*
X0099597Y0099561D02*
X0094731Y0099561D01*
X0093132Y0101160D02*
X0097998Y0101160D01*
X0096400Y0102758D02*
X0092958Y0102758D01*
X0092958Y0104357D02*
X0094801Y0104357D01*
X0093203Y0105955D02*
X0092958Y0105955D01*
X0088158Y0104357D02*
X0086668Y0104357D01*
X0088154Y0102758D02*
X0088158Y0102758D01*
X0088283Y0099561D02*
X0087168Y0099561D01*
X0089541Y0097963D02*
X0084649Y0097963D01*
X0083948Y0099561D02*
X0081372Y0099561D01*
X0079668Y0104357D02*
X0084447Y0104357D01*
X0084067Y0105955D02*
X0085049Y0105955D01*
X0087552Y0110240D02*
X0087239Y0110553D01*
X0086889Y0111398D01*
X0086116Y0112171D01*
X0085271Y0112521D01*
X0081642Y0116150D01*
X0082247Y0116755D01*
X0082247Y0117915D01*
X0078365Y0121797D01*
X0077906Y0121797D01*
X0077915Y0121830D01*
X0077915Y0122304D01*
X0077792Y0122762D01*
X0077555Y0123173D01*
X0075987Y0124741D01*
X0073452Y0122207D01*
X0073192Y0122467D01*
X0075726Y0125001D01*
X0074158Y0126570D01*
X0073747Y0126807D01*
X0073543Y0126861D01*
X0071192Y0129213D01*
X0071452Y0129474D01*
X0073987Y0126939D01*
X0075555Y0128508D01*
X0075792Y0128918D01*
X0075915Y0129376D01*
X0075915Y0129850D01*
X0075906Y0129883D01*
X0076365Y0129883D01*
X0078026Y0131544D01*
X0078729Y0130840D01*
X0078770Y0130840D01*
X0079029Y0130581D01*
X0078502Y0130054D01*
X0078502Y0128894D01*
X0084612Y0122784D01*
X0085771Y0122784D01*
X0088927Y0125940D01*
X0092689Y0125940D01*
X0092372Y0125623D01*
X0090423Y0123675D01*
X0090423Y0122515D01*
X0093903Y0119035D01*
X0093495Y0118926D01*
X0093084Y0118689D01*
X0090342Y0115946D01*
X0087599Y0113204D01*
X0087362Y0112793D01*
X0087239Y0112335D01*
X0087239Y0111861D01*
X0087362Y0111404D01*
X0087599Y0110993D01*
X0088352Y0110240D01*
X0087552Y0110240D01*
X0087841Y0110751D02*
X0087157Y0110751D01*
X0087243Y0112349D02*
X0085686Y0112349D01*
X0083844Y0113948D02*
X0088343Y0113948D01*
X0089942Y0115546D02*
X0082246Y0115546D01*
X0082247Y0117145D02*
X0091540Y0117145D01*
X0090342Y0115946D02*
X0092311Y0113978D01*
X0092310Y0113978D01*
X0090342Y0115946D01*
X0090742Y0115546D02*
X0090742Y0115546D01*
X0093179Y0118743D02*
X0081418Y0118743D01*
X0079820Y0120342D02*
X0092596Y0120342D01*
X0090998Y0121940D02*
X0077915Y0121940D01*
X0077189Y0123539D02*
X0083857Y0123539D01*
X0082259Y0125137D02*
X0075590Y0125137D01*
X0074785Y0123539D02*
X0074263Y0123539D01*
X0073186Y0121940D02*
X0072665Y0121940D01*
X0072120Y0123539D02*
X0071598Y0123539D01*
X0069920Y0125137D02*
X0019658Y0125137D01*
X0019658Y0123539D02*
X0068916Y0123539D01*
X0068514Y0121940D02*
X0019658Y0121940D01*
X0019658Y0120342D02*
X0069727Y0120342D01*
X0071066Y0120342D02*
X0071588Y0120342D01*
X0071325Y0118743D02*
X0019658Y0118743D01*
X0019658Y0117145D02*
X0073601Y0117145D01*
X0075088Y0115546D02*
X0019658Y0115546D01*
X0019658Y0113948D02*
X0076686Y0113948D01*
X0078655Y0112349D02*
X0019658Y0112349D01*
X0019658Y0110751D02*
X0080253Y0110751D01*
X0077447Y0104357D02*
X0044969Y0104357D01*
X0045974Y0102758D02*
X0075962Y0102758D01*
X0087278Y0096364D02*
X0091140Y0096364D01*
X0092738Y0094766D02*
X0089488Y0094766D01*
X0091404Y0093167D02*
X0094337Y0093167D01*
X0093476Y0091177D02*
X0067993Y0065694D01*
X0093476Y0040210D01*
X0093698Y0040431D01*
X0095174Y0042098D01*
X0096547Y0043850D01*
X0097812Y0045683D01*
X0098963Y0047588D01*
X0099998Y0049559D01*
X0100912Y0051589D01*
X0101701Y0053671D01*
X0102364Y0055797D01*
X0102896Y0057958D01*
X0103298Y0060148D01*
X0103566Y0062358D01*
X0103701Y0064581D01*
X0103701Y0066807D01*
X0103566Y0069029D01*
X0103298Y0071239D01*
X0102896Y0073429D01*
X0102364Y0075591D01*
X0101701Y0077716D01*
X0100912Y0079798D01*
X0099998Y0081828D01*
X0098963Y0083799D01*
X0097812Y0085705D01*
X0096547Y0087537D01*
X0095174Y0089290D01*
X0093698Y0090956D01*
X0093476Y0091177D01*
X0094571Y0089970D02*
X0097534Y0089970D01*
X0099132Y0088372D02*
X0095893Y0088372D01*
X0097074Y0086773D02*
X0100731Y0086773D01*
X0102329Y0085175D02*
X0098132Y0085175D01*
X0099081Y0083576D02*
X0103928Y0083576D01*
X0105526Y0081978D02*
X0099920Y0081978D01*
X0100650Y0080379D02*
X0107125Y0080379D01*
X0107658Y0078781D02*
X0101298Y0078781D01*
X0101868Y0077182D02*
X0107658Y0077182D01*
X0107658Y0075584D02*
X0102365Y0075584D01*
X0102759Y0073985D02*
X0107658Y0073985D01*
X0107658Y0072387D02*
X0103087Y0072387D01*
X0103353Y0070788D02*
X0107658Y0070788D01*
X0107658Y0069190D02*
X0103547Y0069190D01*
X0103653Y0067591D02*
X0107658Y0067591D01*
X0107658Y0065993D02*
X0103701Y0065993D01*
X0103689Y0064394D02*
X0107658Y0064394D01*
X0107658Y0062796D02*
X0103593Y0062796D01*
X0103425Y0061197D02*
X0107658Y0061197D01*
X0107658Y0059598D02*
X0103197Y0059598D01*
X0102904Y0058000D02*
X0107658Y0058000D01*
X0107658Y0056401D02*
X0102513Y0056401D01*
X0102054Y0054803D02*
X0107658Y0054803D01*
X0107658Y0053204D02*
X0101524Y0053204D01*
X0100918Y0051606D02*
X0107658Y0051606D01*
X0107658Y0050007D02*
X0100200Y0050007D01*
X0099394Y0048409D02*
X0107658Y0048409D01*
X0106312Y0046810D02*
X0098493Y0046810D01*
X0097487Y0045212D02*
X0101191Y0045212D01*
X0099592Y0043613D02*
X0096361Y0043613D01*
X0095100Y0042015D02*
X0097994Y0042015D01*
X0096395Y0040416D02*
X0093682Y0040416D01*
X0093270Y0040416D02*
X0091007Y0040416D01*
X0091671Y0042015D02*
X0089409Y0042015D01*
X0090073Y0043613D02*
X0087810Y0043613D01*
X0088474Y0045212D02*
X0086212Y0045212D01*
X0086876Y0046810D02*
X0084613Y0046810D01*
X0085277Y0048409D02*
X0083015Y0048409D01*
X0083679Y0050007D02*
X0081416Y0050007D01*
X0082080Y0051606D02*
X0079818Y0051606D01*
X0080482Y0053204D02*
X0078219Y0053204D01*
X0078883Y0054803D02*
X0076621Y0054803D01*
X0077285Y0056401D02*
X0075022Y0056401D01*
X0075686Y0058000D02*
X0073424Y0058000D01*
X0074088Y0059598D02*
X0071825Y0059598D01*
X0072489Y0061197D02*
X0070227Y0061197D01*
X0070891Y0062796D02*
X0068628Y0062796D01*
X0069292Y0064394D02*
X0067029Y0064394D01*
X0066693Y0064394D02*
X0064430Y0064394D01*
X0065094Y0062796D02*
X0062832Y0062796D01*
X0063496Y0061197D02*
X0061233Y0061197D01*
X0061897Y0059598D02*
X0059635Y0059598D01*
X0060299Y0058000D02*
X0058036Y0058000D01*
X0058700Y0056401D02*
X0056438Y0056401D01*
X0057102Y0054803D02*
X0054839Y0054803D01*
X0055503Y0053204D02*
X0053241Y0053204D01*
X0053905Y0051606D02*
X0051642Y0051606D01*
X0052306Y0050007D02*
X0050044Y0050007D01*
X0050708Y0048409D02*
X0048445Y0048409D01*
X0049109Y0046810D02*
X0046846Y0046810D01*
X0047511Y0045212D02*
X0045248Y0045212D01*
X0045912Y0043613D02*
X0043649Y0043613D01*
X0044314Y0042015D02*
X0042051Y0042015D01*
X0042715Y0040416D02*
X0040452Y0040416D01*
X0040040Y0040416D02*
X0028539Y0040416D01*
X0028986Y0042015D02*
X0038622Y0042015D01*
X0037361Y0043613D02*
X0029193Y0043613D01*
X0029401Y0045212D02*
X0036236Y0045212D01*
X0035229Y0046810D02*
X0029457Y0046810D01*
X0029249Y0048409D02*
X0034328Y0048409D01*
X0033522Y0050007D02*
X0029042Y0050007D01*
X0028715Y0051606D02*
X0032804Y0051606D01*
X0032198Y0053204D02*
X0028063Y0053204D01*
X0027410Y0054803D02*
X0031668Y0054803D01*
X0031210Y0056401D02*
X0026550Y0056401D01*
X0025346Y0058000D02*
X0030818Y0058000D01*
X0030525Y0059598D02*
X0024142Y0059598D01*
X0022209Y0061197D02*
X0030297Y0061197D01*
X0030130Y0062796D02*
X0020179Y0062796D01*
X0019658Y0064394D02*
X0030033Y0064394D01*
X0030022Y0065993D02*
X0019658Y0065993D01*
X0019658Y0067591D02*
X0030069Y0067591D01*
X0030176Y0069190D02*
X0019658Y0069190D01*
X0019658Y0070788D02*
X0030370Y0070788D01*
X0030635Y0072387D02*
X0019658Y0072387D01*
X0019658Y0073985D02*
X0030963Y0073985D01*
X0031357Y0075584D02*
X0019658Y0075584D01*
X0019658Y0077182D02*
X0031855Y0077182D01*
X0032425Y0078781D02*
X0019658Y0078781D01*
X0019658Y0080379D02*
X0033072Y0080379D01*
X0033803Y0081978D02*
X0019658Y0081978D01*
X0019658Y0083576D02*
X0034642Y0083576D01*
X0035590Y0085175D02*
X0019658Y0085175D01*
X0019658Y0086773D02*
X0029604Y0086773D01*
X0028005Y0088372D02*
X0019658Y0088372D01*
X0019658Y0089970D02*
X0026407Y0089970D01*
X0024808Y0091569D02*
X0019658Y0091569D01*
X0019658Y0093167D02*
X0023210Y0093167D01*
X0023243Y0094766D02*
X0019658Y0094766D01*
X0019658Y0096364D02*
X0024841Y0096364D01*
X0026440Y0097963D02*
X0019658Y0097963D01*
X0019658Y0099561D02*
X0028038Y0099561D01*
X0029637Y0101160D02*
X0019658Y0101160D01*
X0019658Y0102758D02*
X0031235Y0102758D01*
X0032834Y0104357D02*
X0019658Y0104357D01*
X0019658Y0105955D02*
X0034432Y0105955D01*
X0036031Y0107554D02*
X0019658Y0107554D01*
X0019658Y0109152D02*
X0037629Y0109152D01*
X0039580Y0109152D02*
X0042976Y0109152D01*
X0041377Y0107554D02*
X0041179Y0107554D01*
X0046964Y0101160D02*
X0056847Y0101160D01*
X0052350Y0099561D02*
X0045917Y0099561D01*
X0044319Y0097963D02*
X0049073Y0097963D01*
X0046444Y0096364D02*
X0042720Y0096364D01*
X0044234Y0094766D02*
X0041122Y0094766D01*
X0042318Y0093167D02*
X0039523Y0093167D01*
X0037925Y0091569D02*
X0042117Y0091569D01*
X0041453Y0089970D02*
X0043716Y0089970D01*
X0043052Y0088372D02*
X0045314Y0088372D01*
X0044650Y0086773D02*
X0046913Y0086773D01*
X0046249Y0085175D02*
X0048512Y0085175D01*
X0047847Y0083576D02*
X0050110Y0083576D01*
X0049446Y0081978D02*
X0051709Y0081978D01*
X0051044Y0080379D02*
X0053307Y0080379D01*
X0052643Y0078781D02*
X0054906Y0078781D01*
X0054241Y0077182D02*
X0056504Y0077182D01*
X0055840Y0075584D02*
X0058103Y0075584D01*
X0057438Y0073985D02*
X0059701Y0073985D01*
X0059037Y0072387D02*
X0061300Y0072387D01*
X0060635Y0070788D02*
X0062898Y0070788D01*
X0062234Y0069190D02*
X0064497Y0069190D01*
X0063832Y0067591D02*
X0066095Y0067591D01*
X0067627Y0067591D02*
X0069890Y0067591D01*
X0069226Y0069190D02*
X0071488Y0069190D01*
X0070824Y0070788D02*
X0073087Y0070788D01*
X0072423Y0072387D02*
X0074685Y0072387D01*
X0074021Y0073985D02*
X0076284Y0073985D01*
X0075620Y0075584D02*
X0077882Y0075584D01*
X0077218Y0077182D02*
X0079481Y0077182D01*
X0078817Y0078781D02*
X0081079Y0078781D01*
X0080415Y0080379D02*
X0082678Y0080379D01*
X0082014Y0081978D02*
X0084276Y0081978D01*
X0083612Y0083576D02*
X0085875Y0083576D01*
X0085211Y0085175D02*
X0087473Y0085175D01*
X0086809Y0086773D02*
X0089072Y0086773D01*
X0088408Y0088372D02*
X0090670Y0088372D01*
X0090006Y0089970D02*
X0092269Y0089970D01*
X0091605Y0091569D02*
X0095935Y0091569D01*
X0109061Y0104357D02*
X0126783Y0104357D01*
X0125185Y0102758D02*
X0110660Y0102758D01*
X0112258Y0101160D02*
X0123586Y0101160D01*
X0121988Y0099561D02*
X0113857Y0099561D01*
X0115455Y0097963D02*
X0120389Y0097963D01*
X0118791Y0096364D02*
X0117054Y0096364D01*
X0115813Y0086773D02*
X0128284Y0086773D01*
X0129854Y0093167D02*
X0131983Y0093167D01*
X0131452Y0094766D02*
X0133720Y0094766D01*
X0133051Y0096364D02*
X0135318Y0096364D01*
X0134649Y0097963D02*
X0139658Y0097963D01*
X0139658Y0099561D02*
X0136248Y0099561D01*
X0137846Y0101160D02*
X0139658Y0101160D01*
X0139658Y0102758D02*
X0139445Y0102758D01*
X0143458Y0102053D02*
X0143458Y0097829D01*
X0143835Y0097452D01*
X0144227Y0098398D01*
X0145000Y0099171D01*
X0145658Y0099444D01*
X0145658Y0104253D01*
X0143458Y0102053D01*
X0143458Y0101160D02*
X0145658Y0101160D01*
X0145658Y0102758D02*
X0144163Y0102758D01*
X0143458Y0099561D02*
X0145658Y0099561D01*
X0144046Y0097963D02*
X0143458Y0097963D01*
X0147973Y0091569D02*
X0149289Y0091569D01*
X0149322Y0089970D02*
X0146375Y0089970D01*
X0144776Y0088372D02*
X0158458Y0088372D01*
X0158458Y0089970D02*
X0156794Y0089970D01*
X0156826Y0091569D02*
X0158458Y0091569D01*
X0158458Y0093167D02*
X0156826Y0093167D01*
X0156826Y0094766D02*
X0158458Y0094766D01*
X0158458Y0096364D02*
X0156349Y0096364D01*
X0156426Y0097963D02*
X0158458Y0097963D01*
X0158458Y0099561D02*
X0156426Y0099561D01*
X0156458Y0101160D02*
X0158458Y0101160D01*
X0158458Y0102758D02*
X0156458Y0102758D01*
X0156458Y0104357D02*
X0158458Y0104357D01*
X0158458Y0105955D02*
X0156458Y0105955D01*
X0156458Y0107554D02*
X0158458Y0107554D01*
X0158458Y0109152D02*
X0156458Y0109152D01*
X0156458Y0110751D02*
X0158458Y0110751D01*
X0158458Y0112349D02*
X0156458Y0112349D01*
X0157958Y0113948D02*
X0158458Y0113948D01*
X0158458Y0115546D02*
X0158308Y0115546D01*
X0158458Y0117145D02*
X0157642Y0117145D01*
X0158458Y0118743D02*
X0155430Y0118743D01*
X0157594Y0120342D02*
X0158458Y0120342D01*
X0156729Y0121940D02*
X0156729Y0121940D01*
X0155130Y0123539D02*
X0155130Y0123539D01*
X0153532Y0125137D02*
X0153532Y0125137D01*
X0151933Y0126736D02*
X0151933Y0126736D01*
X0150335Y0128334D02*
X0150334Y0128334D01*
X0150195Y0128334D02*
X0135458Y0128334D01*
X0135458Y0126736D02*
X0149059Y0126736D01*
X0147564Y0125137D02*
X0135458Y0125137D01*
X0135458Y0123539D02*
X0145965Y0123539D01*
X0144367Y0121940D02*
X0136145Y0121940D01*
X0137743Y0120342D02*
X0142768Y0120342D01*
X0141170Y0118743D02*
X0139342Y0118743D01*
X0134763Y0113948D02*
X0099470Y0113948D01*
X0097872Y0115546D02*
X0133165Y0115546D01*
X0131566Y0117145D02*
X0098154Y0117145D01*
X0099752Y0118743D02*
X0129968Y0118743D01*
X0128658Y0120342D02*
X0101351Y0120342D01*
X0102949Y0121940D02*
X0128658Y0121940D01*
X0128658Y0123539D02*
X0104548Y0123539D01*
X0106146Y0125137D02*
X0128658Y0125137D01*
X0128658Y0126736D02*
X0107745Y0126736D01*
X0109343Y0128334D02*
X0128658Y0128334D01*
X0128658Y0129933D02*
X0110942Y0129933D01*
X0112540Y0131531D02*
X0128658Y0131531D01*
X0128658Y0133130D02*
X0114139Y0133130D01*
X0115737Y0134729D02*
X0128658Y0134729D01*
X0128658Y0136327D02*
X0117304Y0136327D01*
X0116833Y0137926D02*
X0128583Y0137926D01*
X0127808Y0139524D02*
X0115235Y0139524D01*
X0113670Y0141123D02*
X0128112Y0141123D01*
X0127493Y0145918D02*
X0133875Y0145918D01*
X0135503Y0144320D02*
X0112947Y0144320D01*
X0112071Y0142721D02*
X0137132Y0142721D01*
X0138761Y0141123D02*
X0133003Y0141123D01*
X0135763Y0139524D02*
X0140389Y0139524D01*
X0142018Y0137926D02*
X0136308Y0137926D01*
X0135908Y0136327D02*
X0143647Y0136327D01*
X0145275Y0134729D02*
X0135458Y0134729D01*
X0135458Y0133130D02*
X0146904Y0133130D01*
X0148533Y0131531D02*
X0135458Y0131531D01*
X0135458Y0129933D02*
X0150161Y0129933D01*
X0134776Y0112349D02*
X0101069Y0112349D01*
X0102667Y0110751D02*
X0133177Y0110751D01*
X0131579Y0109152D02*
X0104266Y0109152D01*
X0105864Y0107554D02*
X0129980Y0107554D01*
X0128382Y0105955D02*
X0107463Y0105955D01*
X0090423Y0123539D02*
X0086526Y0123539D01*
X0088124Y0125137D02*
X0091886Y0125137D01*
X0092372Y0125623D02*
X0092372Y0125623D01*
X0092920Y0129933D02*
X0095382Y0129933D01*
X0091383Y0129933D02*
X0087547Y0129933D01*
X0085949Y0131531D02*
X0089784Y0131531D01*
X0088186Y0133130D02*
X0084350Y0133130D01*
X0086587Y0134729D02*
X0080538Y0134729D01*
X0078940Y0136327D02*
X0085462Y0136327D01*
X0085604Y0137926D02*
X0077247Y0137926D01*
X0074879Y0137926D02*
X0042291Y0137926D01*
X0042538Y0139524D02*
X0052293Y0139524D01*
X0050558Y0141123D02*
X0050558Y0141123D01*
X0050558Y0142721D02*
X0050558Y0142721D01*
X0048595Y0141123D02*
X0046706Y0141123D01*
X0044410Y0141123D02*
X0042698Y0141123D01*
X0040677Y0136327D02*
X0073281Y0136327D01*
X0071682Y0134729D02*
X0019658Y0134729D01*
X0019658Y0136327D02*
X0038439Y0136327D01*
X0036960Y0137926D02*
X0019658Y0137926D01*
X0019658Y0139524D02*
X0036865Y0139524D01*
X0037874Y0141123D02*
X0019730Y0141123D01*
X0019990Y0142721D02*
X0025868Y0142721D01*
X0023169Y0144320D02*
X0020355Y0144320D01*
X0020845Y0145918D02*
X0021949Y0145918D01*
X0029248Y0142721D02*
X0033096Y0142721D01*
X0036413Y0150640D02*
X0037862Y0150040D01*
X0038057Y0150511D01*
X0038887Y0151341D01*
X0039060Y0151413D01*
X0039658Y0154997D01*
X0039658Y0155627D01*
X0039784Y0155753D01*
X0039808Y0155897D01*
X0039808Y0156387D01*
X0039954Y0156740D01*
X0036558Y0156740D01*
X0034666Y0156634D01*
X0030976Y0155792D01*
X0029248Y0154959D01*
X0031127Y0154181D01*
X0032899Y0152409D01*
X0033788Y0150261D01*
X0034703Y0150640D01*
X0036413Y0150640D01*
X0038259Y0150714D02*
X0033601Y0150714D01*
X0032939Y0152312D02*
X0039210Y0152312D01*
X0039477Y0153911D02*
X0031397Y0153911D01*
X0030389Y0155509D02*
X0039658Y0155509D01*
X0058061Y0145918D02*
X0082872Y0145918D01*
X0081273Y0144320D02*
X0059392Y0144320D01*
X0059858Y0142721D02*
X0080902Y0142721D01*
X0082501Y0141123D02*
X0059708Y0141123D01*
X0058823Y0139524D02*
X0084005Y0139524D01*
X0087834Y0141352D02*
X0089515Y0143033D01*
X0089515Y0143492D01*
X0089548Y0143483D01*
X0090022Y0143483D01*
X0090480Y0143606D01*
X0090890Y0143843D01*
X0092058Y0145011D01*
X0093396Y0143672D01*
X0095931Y0146206D01*
X0096191Y0145946D01*
X0093657Y0143411D01*
X0095225Y0141843D01*
X0095636Y0141606D01*
X0096094Y0141483D01*
X0096568Y0141483D01*
X0096601Y0141492D01*
X0096601Y0141033D01*
X0096729Y0140905D01*
X0096345Y0140521D01*
X0095500Y0140171D01*
X0094727Y0139398D01*
X0094308Y0138387D01*
X0094308Y0137293D01*
X0094450Y0136950D01*
X0090504Y0140896D01*
X0089344Y0140896D01*
X0088817Y0140369D01*
X0087834Y0141352D01*
X0088064Y0141123D02*
X0096601Y0141123D01*
X0094853Y0139524D02*
X0091876Y0139524D01*
X0093474Y0137926D02*
X0094308Y0137926D01*
X0094347Y0142721D02*
X0089203Y0142721D01*
X0091367Y0144320D02*
X0092749Y0144320D01*
X0094044Y0144320D02*
X0094565Y0144320D01*
X0095643Y0145918D02*
X0096164Y0145918D01*
X0097241Y0147517D02*
X0097762Y0147517D01*
X0098612Y0149115D02*
X0102258Y0149115D01*
X0102287Y0147517D02*
X0100211Y0147517D01*
X0100915Y0145918D02*
X0102949Y0145918D01*
X0102515Y0150714D02*
X0096909Y0150714D01*
X0095196Y0150714D02*
X0093025Y0150714D01*
X0092692Y0150714D02*
X0092171Y0150714D01*
X0091426Y0152312D02*
X0103177Y0152312D01*
X0104719Y0153911D02*
X0082565Y0153911D01*
X0083910Y0155509D02*
X0121692Y0155509D01*
X0123160Y0155509D02*
X0123160Y0155509D01*
X0120861Y0153911D02*
X0120861Y0153911D01*
X0120094Y0153911D02*
X0112397Y0153911D01*
X0113939Y0152312D02*
X0119254Y0152312D01*
X0120120Y0150714D02*
X0114601Y0150714D01*
X0114858Y0149115D02*
X0121719Y0149115D01*
X0122994Y0149115D02*
X0122994Y0149115D01*
X0123317Y0147517D02*
X0114829Y0147517D01*
X0114167Y0145918D02*
X0124916Y0145918D01*
X0127255Y0147517D02*
X0127255Y0147517D01*
X0129068Y0147517D02*
X0132246Y0147517D01*
X0129554Y0149115D02*
X0129554Y0149115D01*
X0126274Y0152395D02*
X0125256Y0151377D01*
X0124325Y0150446D01*
X0124325Y0150447D01*
X0125256Y0151377D01*
X0126274Y0152395D01*
X0126274Y0152395D01*
X0126191Y0152312D02*
X0126191Y0152312D01*
X0124593Y0150714D02*
X0124592Y0150714D01*
X0091093Y0149115D02*
X0090572Y0149115D01*
X0089276Y0149115D02*
X0088755Y0149115D01*
X0087678Y0150714D02*
X0087156Y0150714D01*
X0087102Y0150714D02*
X0078655Y0150714D01*
X0081089Y0152312D02*
X0088700Y0152312D01*
X0085528Y0149115D02*
X0075030Y0149115D01*
X0084471Y0147517D02*
X0058815Y0147517D01*
X0059705Y0149115D02*
X0064857Y0149115D01*
X0061233Y0150714D02*
X0059858Y0150714D01*
X0069518Y0133130D02*
X0019658Y0133130D01*
X0019658Y0131531D02*
X0067920Y0131531D01*
X0068873Y0131531D02*
X0069394Y0131531D01*
X0070472Y0129933D02*
X0070993Y0129933D01*
X0070313Y0128334D02*
X0069792Y0128334D01*
X0068714Y0126736D02*
X0019658Y0126736D01*
X0019658Y0128334D02*
X0066767Y0128334D01*
X0066565Y0129933D02*
X0019658Y0129933D01*
X0036326Y0089970D02*
X0039151Y0089970D01*
X0037829Y0088372D02*
X0034728Y0088372D01*
X0033129Y0086773D02*
X0036648Y0086773D01*
X0065431Y0065993D02*
X0066029Y0065993D01*
X0067694Y0065993D02*
X0068291Y0065993D01*
X0092079Y0038818D02*
X0094797Y0038818D01*
X0093198Y0037219D02*
X0090251Y0037219D01*
X0091600Y0035621D02*
X0088144Y0035621D01*
X0090001Y0034022D02*
X0085680Y0034022D01*
X0088403Y0032424D02*
X0082700Y0032424D01*
X0078793Y0030825D02*
X0086804Y0030825D01*
X0087150Y0029227D02*
X0072157Y0029227D01*
X0062589Y0019636D02*
X0148691Y0019636D01*
X0143286Y0018037D02*
X0063732Y0018037D01*
X0061566Y0029227D02*
X0031974Y0029227D01*
X0030482Y0030825D02*
X0054929Y0030825D01*
X0051022Y0032424D02*
X0023693Y0032424D01*
X0022633Y0030825D02*
X0021663Y0030825D01*
X0021142Y0029227D02*
X0019738Y0029227D01*
X0020112Y0027628D02*
X0020479Y0027628D01*
X0025023Y0034022D02*
X0048043Y0034022D01*
X0045579Y0035621D02*
X0026226Y0035621D01*
X0027235Y0037219D02*
X0043472Y0037219D01*
X0041643Y0038818D02*
X0027887Y0038818D01*
X0103521Y0045212D02*
X0104843Y0045212D01*
X0125374Y0065993D02*
X0125742Y0065993D01*
X0125742Y0067591D02*
X0125374Y0067591D01*
X0125374Y0069190D02*
X0125742Y0069190D01*
X0129326Y0069190D02*
X0133789Y0069190D01*
X0133789Y0070788D02*
X0129326Y0070788D01*
X0129185Y0072387D02*
X0133931Y0072387D01*
X0134189Y0073985D02*
X0128926Y0073985D01*
X0128926Y0075584D02*
X0133127Y0075584D01*
X0130327Y0077182D02*
X0128926Y0077182D01*
X0128926Y0078781D02*
X0129808Y0078781D01*
X0136784Y0080379D02*
X0144187Y0080379D01*
X0142957Y0078781D02*
X0140926Y0078781D01*
X0140926Y0077182D02*
X0142295Y0077182D01*
X0142258Y0075584D02*
X0140926Y0075584D01*
X0140926Y0073985D02*
X0142507Y0073985D01*
X0143169Y0072387D02*
X0141185Y0072387D01*
X0141326Y0070788D02*
X0144700Y0070788D01*
X0141326Y0069190D02*
X0150058Y0069190D01*
X0150058Y0067591D02*
X0141326Y0067591D01*
X0140736Y0065993D02*
X0150058Y0065993D01*
X0137742Y0065993D02*
X0137374Y0065993D01*
X0137374Y0067591D02*
X0137742Y0067591D01*
X0137742Y0069190D02*
X0137374Y0069190D01*
X0133789Y0067591D02*
X0129326Y0067591D01*
X0128736Y0065993D02*
X0134380Y0065993D01*
X0138382Y0081978D02*
X0146912Y0081978D01*
X0150203Y0081978D02*
X0158276Y0081978D01*
X0158458Y0083576D02*
X0139981Y0083576D01*
X0141579Y0085175D02*
X0158458Y0085175D01*
X0158458Y0086773D02*
X0143178Y0086773D01*
X0152874Y0089970D02*
X0153242Y0089970D01*
X0153242Y0091569D02*
X0152874Y0091569D01*
X0152928Y0080379D02*
X0156260Y0080379D01*
X0154360Y0078781D02*
X0154159Y0078781D01*
X0155974Y0029227D02*
X0157494Y0029227D01*
X0156724Y0027628D02*
X0156636Y0027628D01*
X0080660Y0126736D02*
X0073870Y0126736D01*
X0072591Y0128334D02*
X0072070Y0128334D01*
X0075382Y0128334D02*
X0079062Y0128334D01*
X0078502Y0129933D02*
X0076414Y0129933D01*
X0078013Y0131531D02*
X0078038Y0131531D01*
X0084078Y0128360D02*
X0085598Y0128360D01*
X0085598Y0127840D01*
D20*
X0079558Y0123840D02*
X0083558Y0119840D01*
X0083593Y0119878D02*
X0086311Y0120087D01*
X0092311Y0113978D01*
X0094259Y0112029D02*
X0091314Y0109084D01*
X0091071Y0108840D02*
X0090558Y0107840D01*
X0090558Y0100340D01*
X0110058Y0080840D01*
X0110058Y0047340D01*
X0098737Y0035019D01*
X0098737Y0033818D01*
X0117558Y0056840D02*
X0119558Y0056840D01*
X0117558Y0056840D02*
X0115558Y0058840D01*
X0115558Y0067840D01*
X0115558Y0084840D01*
X0115695Y0084978D01*
X0115695Y0085840D01*
X0115695Y0090593D01*
X0090558Y0107840D02*
X0086558Y0107840D01*
X0084558Y0109840D01*
X0077924Y0116474D01*
X0077924Y0117474D01*
X0079558Y0123840D02*
X0074825Y0123840D01*
X0073192Y0122206D01*
X0071594Y0123804D01*
X0071594Y0128877D01*
X0071192Y0129280D01*
X0071192Y0129474D01*
X0071924Y0130474D01*
X0068058Y0134340D01*
X0067558Y0133840D01*
X0061558Y0133840D01*
X0057558Y0137840D01*
X0052794Y0137840D01*
X0050558Y0140076D01*
X0050558Y0143840D01*
X0040558Y0143840D02*
X0040058Y0138840D01*
X0039558Y0138840D01*
X0058558Y0130840D02*
X0061558Y0133840D01*
X0058558Y0130840D02*
X0058558Y0117840D01*
X0073192Y0122206D02*
X0073192Y0122474D01*
X0068058Y0134340D02*
X0084424Y0149706D01*
X0089924Y0148206D01*
X0091558Y0148840D01*
X0094845Y0148553D01*
X0097845Y0146206D01*
X0101533Y0142083D02*
X0109315Y0142083D01*
X0112633Y0138765D01*
X0112633Y0138754D01*
X0120558Y0146840D02*
X0120558Y0120340D01*
X0119558Y0117840D01*
X0097058Y0137840D02*
X0100692Y0141474D01*
X0100924Y0141474D01*
X0101533Y0142083D01*
X0084424Y0149706D02*
X0083558Y0150573D01*
X0083558Y0151840D01*
X0120558Y0146840D02*
X0124164Y0150446D01*
X0124325Y0150446D01*
X0126274Y0152395D02*
X0153842Y0124827D01*
X0084558Y0109840D02*
X0082558Y0107840D01*
X0045058Y0107840D01*
X0034986Y0097768D01*
X0034986Y0097569D01*
X0066861Y0065694D02*
X0084008Y0082840D01*
D21*
X0085558Y0101840D02*
X0078558Y0101840D01*
X0091071Y0108840D02*
X0091558Y0108840D01*
X0094259Y0111542D01*
X0094259Y0112029D01*
X0091314Y0109084D02*
X0091071Y0108840D01*
X0098992Y0125113D02*
X0098992Y0125406D01*
X0096558Y0127840D01*
X0085598Y0127840D01*
X0091038Y0135320D02*
X0092682Y0135320D01*
X0100941Y0127062D01*
X0097845Y0146206D02*
X0096192Y0146206D01*
X0077232Y0135206D02*
X0075924Y0134206D01*
X0042558Y0155840D02*
X0041558Y0154840D01*
X0040558Y0148840D01*
X0115695Y0090978D02*
X0115695Y0090593D01*
X0115695Y0085840D02*
X0129558Y0085840D01*
X0132192Y0088474D01*
X0136924Y0093206D02*
X0139558Y0095840D01*
X0141558Y0095840D01*
X0141558Y0102840D01*
X0147558Y0108840D01*
X0147558Y0111840D01*
X0144585Y0114813D01*
X0146318Y0116080D02*
X0149558Y0112840D01*
X0149558Y0106340D01*
X0147558Y0104340D01*
X0147558Y0097840D01*
X0146558Y0096840D01*
X0131558Y0081840D01*
X0127558Y0081840D01*
X0125558Y0079840D01*
X0125558Y0076187D01*
X0125558Y0069494D02*
X0124904Y0068840D01*
X0116558Y0068840D01*
X0115558Y0067840D01*
X0125558Y0069494D02*
X0126211Y0068840D01*
X0138558Y0068840D01*
X0139211Y0069494D01*
X0137558Y0069494D01*
X0139714Y0068963D01*
X0141558Y0070596D01*
X0141558Y0080840D01*
X0153058Y0092494D01*
X0149558Y0095840D02*
X0132558Y0078840D01*
X0135211Y0076187D01*
X0137558Y0076187D01*
X0149558Y0095840D02*
X0149558Y0102840D01*
X0151558Y0104840D01*
X0151558Y0115419D01*
X0148267Y0118710D01*
X0150215Y0120659D02*
X0152558Y0118316D01*
X0155558Y0115340D01*
X0155558Y0114840D01*
X0154558Y0113840D01*
X0154558Y0100687D01*
X0153058Y0099187D01*
X0140472Y0110915D02*
X0140472Y0110926D01*
X0130558Y0120840D01*
X0130558Y0139840D01*
X0133558Y0137840D02*
X0133558Y0121840D01*
X0142534Y0112864D01*
X0153842Y0124556D02*
X0154113Y0124556D01*
X0126274Y0152395D02*
X0124719Y0150840D01*
X0124558Y0150840D01*
X0124325Y0150608D01*
X0124325Y0150446D01*
D22*
X0120558Y0146840D03*
X0116558Y0149840D03*
X0118558Y0152840D03*
X0121558Y0155840D03*
X0115558Y0155840D03*
X0111058Y0155840D03*
X0106558Y0155840D03*
X0101558Y0155840D03*
X0097558Y0153840D03*
X0099058Y0150340D03*
X0101558Y0147840D03*
X0092558Y0155840D03*
X0085558Y0155840D03*
X0083558Y0151840D03*
X0079558Y0145340D03*
X0081058Y0137840D03*
X0072058Y0138340D03*
X0067558Y0142340D03*
X0063558Y0143340D03*
X0053558Y0155840D03*
X0042558Y0155840D03*
X0038558Y0155840D03*
X0036058Y0152840D03*
X0033558Y0155840D03*
X0032558Y0139840D03*
X0026558Y0138840D03*
X0025558Y0133840D03*
X0021558Y0137840D03*
X0020558Y0132840D03*
X0020558Y0123840D03*
X0020558Y0113840D03*
X0024558Y0108840D03*
X0030058Y0105840D03*
X0030058Y0115840D03*
X0030058Y0123840D03*
X0037058Y0128840D03*
X0030058Y0132840D03*
X0039558Y0138840D03*
X0044558Y0137840D03*
X0020558Y0101840D03*
X0020558Y0090840D03*
X0028558Y0084840D03*
X0020558Y0080840D03*
X0020558Y0070840D03*
X0027558Y0062840D03*
X0030558Y0052840D03*
X0029558Y0041840D03*
X0027558Y0034840D03*
X0020558Y0029340D03*
X0029558Y0019340D03*
X0035558Y0024840D03*
X0042558Y0028840D03*
X0036058Y0034340D03*
X0053558Y0028840D03*
X0065558Y0025840D03*
X0072558Y0018840D03*
X0081558Y0018840D03*
X0088558Y0018840D03*
X0095558Y0018840D03*
X0104558Y0018840D03*
X0114558Y0018840D03*
X0123558Y0018840D03*
X0132558Y0018840D03*
X0132558Y0026840D03*
X0141558Y0027840D03*
X0141558Y0018840D03*
X0156558Y0033840D03*
X0155558Y0039840D03*
X0157058Y0045840D03*
X0152558Y0051340D03*
X0145558Y0044840D03*
X0145558Y0037840D03*
X0137558Y0038840D03*
X0123058Y0032840D03*
X0108058Y0030840D03*
X0085558Y0026840D03*
X0103558Y0078840D03*
X0109058Y0087340D03*
X0101558Y0094340D03*
X0095058Y0101340D03*
X0085558Y0101840D03*
X0078558Y0101840D03*
X0084558Y0109840D03*
X0083558Y0119840D03*
X0097058Y0137840D03*
X0115558Y0145840D03*
X0130558Y0147840D03*
X0134558Y0143840D03*
X0138058Y0140340D03*
X0142058Y0136340D03*
X0138058Y0133340D03*
X0142058Y0129340D03*
X0145558Y0125840D03*
X0149558Y0128840D03*
X0146058Y0132340D03*
X0133558Y0137840D03*
X0130558Y0139840D03*
X0155558Y0115340D03*
X0157558Y0118840D03*
X0157558Y0110840D03*
X0157558Y0105340D03*
X0146558Y0096840D03*
X0141558Y0095840D03*
X0138558Y0099340D03*
X0144558Y0101840D03*
X0157558Y0093340D03*
X0157558Y0088840D03*
X0157558Y0084340D03*
X0152558Y0084840D03*
X0145058Y0069840D03*
X0142558Y0063840D03*
X0144558Y0055840D03*
X0150558Y0059840D03*
X0132558Y0078840D03*
D23*
X0142420Y0112864D02*
X0142534Y0112864D01*
X0144369Y0114813D02*
X0144585Y0114813D01*
X0146318Y0116080D02*
X0146318Y0116761D01*
D24*
X0091038Y0135320D02*
X0085884Y0140474D01*
X0085192Y0143474D01*
X0077232Y0135206D02*
X0077232Y0135166D01*
X0079558Y0132840D01*
X0079598Y0132840D01*
X0084078Y0128360D01*
X0053558Y0155840D02*
X0052558Y0155340D01*
X0051058Y0155340D01*
X0045558Y0148840D01*
M02*
