G75*
%MOIN*%
%OFA0B0*%
%FSLAX25Y25*%
%IPPOS*%
%LPD*%
%AMOC8*
5,1,8,0,0,1.08239X$1,22.5*
%
%ADD10R,0.04331X0.03937*%
%ADD11R,0.04331X0.07480*%
%ADD12R,0.09843X0.20079*%
%ADD13R,0.05512X0.01575*%
D10*
G36*
X0077785Y0120396D02*
X0080846Y0117335D01*
X0078063Y0114552D01*
X0075002Y0117613D01*
X0077785Y0120396D01*
G37*
G36*
X0073053Y0125128D02*
X0076114Y0122067D01*
X0073331Y0119284D01*
X0070270Y0122345D01*
X0073053Y0125128D01*
G37*
G36*
X0068270Y0129335D02*
X0071331Y0132396D01*
X0074114Y0129613D01*
X0071053Y0126552D01*
X0068270Y0129335D01*
G37*
G36*
X0073002Y0134067D02*
X0076063Y0137128D01*
X0078846Y0134345D01*
X0075785Y0131284D01*
X0073002Y0134067D01*
G37*
G36*
X0088114Y0143613D02*
X0085053Y0140552D01*
X0082270Y0143335D01*
X0085331Y0146396D01*
X0088114Y0143613D01*
G37*
G36*
X0092846Y0148345D02*
X0089785Y0145284D01*
X0087002Y0148067D01*
X0090063Y0151128D01*
X0092846Y0148345D01*
G37*
G36*
X0096053Y0149128D02*
X0099114Y0146067D01*
X0096331Y0143284D01*
X0093270Y0146345D01*
X0096053Y0149128D01*
G37*
G36*
X0100785Y0144396D02*
X0103846Y0141335D01*
X0101063Y0138552D01*
X0098002Y0141613D01*
X0100785Y0144396D01*
G37*
G36*
X0139846Y0093345D02*
X0136785Y0090284D01*
X0134002Y0093067D01*
X0137063Y0096128D01*
X0139846Y0093345D01*
G37*
G36*
X0135114Y0088613D02*
X0132053Y0085552D01*
X0129270Y0088335D01*
X0132331Y0091396D01*
X0135114Y0088613D01*
G37*
G36*
X0128846Y0081345D02*
X0125785Y0078284D01*
X0123002Y0081067D01*
X0126063Y0084128D01*
X0128846Y0081345D01*
G37*
G36*
X0134846Y0075345D02*
X0131785Y0072284D01*
X0129002Y0075067D01*
X0132063Y0078128D01*
X0134846Y0075345D01*
G37*
G36*
X0130114Y0070613D02*
X0127053Y0067552D01*
X0124270Y0070335D01*
X0127331Y0073396D01*
X0130114Y0070613D01*
G37*
G36*
X0135346Y0065345D02*
X0132285Y0062284D01*
X0129502Y0065067D01*
X0132563Y0068128D01*
X0135346Y0065345D01*
G37*
G36*
X0130614Y0060613D02*
X0127553Y0057552D01*
X0124770Y0060335D01*
X0127831Y0063396D01*
X0130614Y0060613D01*
G37*
G36*
X0124114Y0076613D02*
X0121053Y0073552D01*
X0118270Y0076335D01*
X0121331Y0079396D01*
X0124114Y0076613D01*
G37*
D11*
G36*
X0079903Y0129473D02*
X0082965Y0132535D01*
X0088253Y0127247D01*
X0085191Y0124185D01*
X0079903Y0129473D01*
G37*
G36*
X0086863Y0136433D02*
X0089925Y0139495D01*
X0095213Y0134207D01*
X0092151Y0131145D01*
X0086863Y0136433D01*
G37*
D12*
G36*
X0031368Y0086991D02*
X0024408Y0093951D01*
X0038604Y0108147D01*
X0045564Y0101187D01*
X0031368Y0086991D01*
G37*
G36*
X0095119Y0023240D02*
X0088159Y0030200D01*
X0102355Y0044396D01*
X0109315Y0037436D01*
X0095119Y0023240D01*
G37*
D13*
G36*
X0119814Y0092598D02*
X0115917Y0088701D01*
X0114804Y0089814D01*
X0118701Y0093711D01*
X0119814Y0092598D01*
G37*
G36*
X0123712Y0091485D02*
X0119815Y0095382D01*
X0120928Y0096495D01*
X0124825Y0092598D01*
X0123712Y0091485D01*
G37*
G36*
X0125660Y0093434D02*
X0121763Y0097331D01*
X0122876Y0098444D01*
X0126773Y0094547D01*
X0125660Y0093434D01*
G37*
G36*
X0127609Y0095383D02*
X0123712Y0099280D01*
X0124825Y0100393D01*
X0128722Y0096496D01*
X0127609Y0095383D01*
G37*
G36*
X0129558Y0097331D02*
X0125661Y0101228D01*
X0126774Y0102341D01*
X0130671Y0098444D01*
X0129558Y0097331D01*
G37*
G36*
X0131507Y0099280D02*
X0127610Y0103177D01*
X0128723Y0104290D01*
X0132620Y0100393D01*
X0131507Y0099280D01*
G37*
G36*
X0133455Y0101229D02*
X0129558Y0105126D01*
X0130671Y0106239D01*
X0134568Y0102342D01*
X0133455Y0101229D01*
G37*
G36*
X0135404Y0103178D02*
X0131507Y0107075D01*
X0132620Y0108188D01*
X0136517Y0104291D01*
X0135404Y0103178D01*
G37*
G36*
X0137353Y0105126D02*
X0133456Y0109023D01*
X0134569Y0110136D01*
X0138466Y0106239D01*
X0137353Y0105126D01*
G37*
G36*
X0139301Y0107075D02*
X0135404Y0110972D01*
X0136517Y0112085D01*
X0140414Y0108188D01*
X0139301Y0107075D01*
G37*
G36*
X0141250Y0109024D02*
X0137353Y0112921D01*
X0138466Y0114034D01*
X0142363Y0110137D01*
X0141250Y0109024D01*
G37*
G36*
X0143199Y0110973D02*
X0139302Y0114870D01*
X0140415Y0115983D01*
X0144312Y0112086D01*
X0143199Y0110973D01*
G37*
G36*
X0145148Y0112921D02*
X0141251Y0116818D01*
X0142364Y0117931D01*
X0146261Y0114034D01*
X0145148Y0112921D01*
G37*
G36*
X0147096Y0114870D02*
X0143199Y0118767D01*
X0144312Y0119880D01*
X0148209Y0115983D01*
X0147096Y0114870D01*
G37*
G36*
X0149045Y0116819D02*
X0145148Y0120716D01*
X0146261Y0121829D01*
X0150158Y0117932D01*
X0149045Y0116819D01*
G37*
G36*
X0150994Y0118767D02*
X0147097Y0122664D01*
X0148210Y0123777D01*
X0152107Y0119880D01*
X0150994Y0118767D01*
G37*
G36*
X0152943Y0120716D02*
X0149046Y0124613D01*
X0150159Y0125726D01*
X0154056Y0121829D01*
X0152943Y0120716D01*
G37*
G36*
X0154891Y0122665D02*
X0150994Y0126562D01*
X0152107Y0127675D01*
X0156004Y0123778D01*
X0154891Y0122665D01*
G37*
G36*
X0129280Y0148277D02*
X0125383Y0152174D01*
X0126496Y0153287D01*
X0130393Y0149390D01*
X0129280Y0148277D01*
G37*
G36*
X0127331Y0146328D02*
X0123434Y0150225D01*
X0124547Y0151338D01*
X0128444Y0147441D01*
X0127331Y0146328D01*
G37*
G36*
X0115638Y0134636D02*
X0111741Y0138533D01*
X0112854Y0139646D01*
X0116751Y0135749D01*
X0115638Y0134636D01*
G37*
G36*
X0113690Y0132687D02*
X0109793Y0136584D01*
X0110906Y0137697D01*
X0114803Y0133800D01*
X0113690Y0132687D01*
G37*
G36*
X0111741Y0130738D02*
X0107844Y0134635D01*
X0108957Y0135748D01*
X0112854Y0131851D01*
X0111741Y0130738D01*
G37*
G36*
X0109792Y0128789D02*
X0105895Y0132686D01*
X0107008Y0133799D01*
X0110905Y0129902D01*
X0109792Y0128789D01*
G37*
G36*
X0107844Y0126841D02*
X0103947Y0130738D01*
X0105060Y0131851D01*
X0108957Y0127954D01*
X0107844Y0126841D01*
G37*
G36*
X0105895Y0124892D02*
X0101998Y0128789D01*
X0103111Y0129902D01*
X0107008Y0126005D01*
X0105895Y0124892D01*
G37*
G36*
X0103946Y0122943D02*
X0100049Y0126840D01*
X0101162Y0127953D01*
X0105059Y0124056D01*
X0103946Y0122943D01*
G37*
G36*
X0101997Y0120994D02*
X0098100Y0124891D01*
X0099213Y0126004D01*
X0103110Y0122107D01*
X0101997Y0120994D01*
G37*
G36*
X0100049Y0119046D02*
X0096152Y0122943D01*
X0097265Y0124056D01*
X0101162Y0120159D01*
X0100049Y0119046D01*
G37*
G36*
X0098100Y0117097D02*
X0094203Y0120994D01*
X0095316Y0122107D01*
X0099213Y0118210D01*
X0098100Y0117097D01*
G37*
G36*
X0096429Y0115983D02*
X0092532Y0112086D01*
X0091419Y0113199D01*
X0095316Y0117096D01*
X0096429Y0115983D01*
G37*
G36*
X0098378Y0114034D02*
X0094481Y0110137D01*
X0093368Y0111250D01*
X0097265Y0115147D01*
X0098378Y0114034D01*
G37*
G36*
X0100327Y0112086D02*
X0096430Y0108189D01*
X0095317Y0109302D01*
X0099214Y0113199D01*
X0100327Y0112086D01*
G37*
G36*
X0102275Y0110137D02*
X0098378Y0106240D01*
X0097265Y0107353D01*
X0101162Y0111250D01*
X0102275Y0110137D01*
G37*
G36*
X0104224Y0108188D02*
X0100327Y0104291D01*
X0099214Y0105404D01*
X0103111Y0109301D01*
X0104224Y0108188D01*
G37*
G36*
X0106173Y0106239D02*
X0102276Y0102342D01*
X0101163Y0103455D01*
X0105060Y0107352D01*
X0106173Y0106239D01*
G37*
G36*
X0108121Y0104291D02*
X0104224Y0100394D01*
X0103111Y0101507D01*
X0107008Y0105404D01*
X0108121Y0104291D01*
G37*
G36*
X0110070Y0102342D02*
X0106173Y0098445D01*
X0105060Y0099558D01*
X0108957Y0103455D01*
X0110070Y0102342D01*
G37*
G36*
X0112019Y0100393D02*
X0108122Y0096496D01*
X0107009Y0097609D01*
X0110906Y0101506D01*
X0112019Y0100393D01*
G37*
G36*
X0113968Y0098445D02*
X0110071Y0094548D01*
X0108958Y0095661D01*
X0112855Y0099558D01*
X0113968Y0098445D01*
G37*
G36*
X0115916Y0096496D02*
X0112019Y0092599D01*
X0110906Y0093712D01*
X0114803Y0097609D01*
X0115916Y0096496D01*
G37*
G36*
X0117865Y0094547D02*
X0113968Y0090650D01*
X0112855Y0091763D01*
X0116752Y0095660D01*
X0117865Y0094547D01*
G37*
M02*
