G04 This is an RS-274x file exported by *
G04 gerbv version 2.6.0 *
G04 More information is available about gerbv at *
G04 http://gerbv.gpleda.org/ *
G04 --End of header info--*
%MOIN*%
%FSLAX34Y34*%
%IPPOS*%
G04 --Define apertures--*
%ADD10C,0.0050*%
%ADD11C,0.0020*%
%ADD12C,0.0059*%
%ADD13C,0.0220*%
%ADD14C,0.0039*%
%ADD15C,0.0098*%
G04 --Start main section--*
G54D10*
G01X0004397Y0014046D02*
G01X0005053Y0013729D01*
G01X0005270Y0013679D02*
G01X0006556Y0013679D01*
G01X0006556Y0013679D02*
G01X0006600Y0013681D01*
G01X0006600Y0013681D02*
G01X0006643Y0013687D01*
G01X0006643Y0013687D02*
G01X0006685Y0013696D01*
G01X0006685Y0013696D02*
G01X0006727Y0013709D01*
G01X0006727Y0013709D02*
G01X0006767Y0013726D01*
G01X0006767Y0013726D02*
G01X0006806Y0013746D01*
G01X0006806Y0013746D02*
G01X0006843Y0013769D01*
G01X0006843Y0013769D02*
G01X0006877Y0013796D01*
G01X0006877Y0013796D02*
G01X0006910Y0013825D01*
G01X0006910Y0013825D02*
G01X0006939Y0013858D01*
G01X0006939Y0013858D02*
G01X0006966Y0013892D01*
G01X0006966Y0013892D02*
G01X0006989Y0013929D01*
G01X0006989Y0013929D02*
G01X0007009Y0013968D01*
G01X0007009Y0013968D02*
G01X0007026Y0014008D01*
G01X0007026Y0014008D02*
G01X0007039Y0014050D01*
G01X0007039Y0014050D02*
G01X0007048Y0014092D01*
G01X0007048Y0014092D02*
G01X0007054Y0014135D01*
G01X0007054Y0014135D02*
G01X0007056Y0014179D01*
G01X0007056Y0014179D02*
G01X0007056Y0014789D01*
G01X0007056Y0014789D02*
G01X0007054Y0014833D01*
G01X0007054Y0014833D02*
G01X0007048Y0014876D01*
G01X0007048Y0014876D02*
G01X0007039Y0014918D01*
G01X0007039Y0014918D02*
G01X0007026Y0014960D01*
G01X0007026Y0014960D02*
G01X0007009Y0015000D01*
G01X0007009Y0015000D02*
G01X0006989Y0015039D01*
G01X0006989Y0015039D02*
G01X0006966Y0015076D01*
G01X0006966Y0015076D02*
G01X0006939Y0015110D01*
G01X0006939Y0015110D02*
G01X0006910Y0015143D01*
G01X0006910Y0015143D02*
G01X0006877Y0015172D01*
G01X0006877Y0015172D02*
G01X0006843Y0015199D01*
G01X0006843Y0015199D02*
G01X0006806Y0015222D01*
G01X0006806Y0015222D02*
G01X0006767Y0015242D01*
G01X0006767Y0015242D02*
G01X0006727Y0015259D01*
G01X0006727Y0015259D02*
G01X0006685Y0015272D01*
G01X0006685Y0015272D02*
G01X0006643Y0015281D01*
G01X0006643Y0015281D02*
G01X0006600Y0015287D01*
G01X0006600Y0015287D02*
G01X0006556Y0015289D01*
G01X0006556Y0015289D02*
G01X0005270Y0015289D01*
G01X0005053Y0015239D02*
G01X0004397Y0014922D01*
G01X0004397Y0014922D02*
G01X0004370Y0014907D01*
G01X0004370Y0014907D02*
G01X0004345Y0014888D01*
G01X0004345Y0014888D02*
G01X0004323Y0014867D01*
G01X0004323Y0014867D02*
G01X0004303Y0014843D01*
G01X0004303Y0014843D02*
G01X0004286Y0014816D01*
G01X0004286Y0014816D02*
G01X0004273Y0014788D01*
G01X0004273Y0014788D02*
G01X0004264Y0014759D01*
G01X0004264Y0014759D02*
G01X0004258Y0014728D01*
G01X0004258Y0014728D02*
G01X0004256Y0014697D01*
G01X0004256Y0014697D02*
G01X0004256Y0014271D01*
G01X0004256Y0014271D02*
G01X0004258Y0014240D01*
G01X0004258Y0014240D02*
G01X0004264Y0014209D01*
G01X0004264Y0014209D02*
G01X0004273Y0014180D01*
G01X0004273Y0014180D02*
G01X0004286Y0014152D01*
G01X0004286Y0014152D02*
G01X0004303Y0014125D01*
G01X0004303Y0014125D02*
G01X0004323Y0014101D01*
G01X0004323Y0014101D02*
G01X0004345Y0014080D01*
G01X0004345Y0014080D02*
G01X0004370Y0014061D01*
G01X0004370Y0014061D02*
G01X0004397Y0014046D01*
G01X0004906Y0014234D02*
G01X0004908Y0014265D01*
G01X0004908Y0014265D02*
G01X0004914Y0014296D01*
G01X0004914Y0014296D02*
G01X0004924Y0014326D01*
G01X0004924Y0014326D02*
G01X0004937Y0014354D01*
G01X0004937Y0014354D02*
G01X0004954Y0014381D01*
G01X0004954Y0014381D02*
G01X0004974Y0014405D01*
G01X0004974Y0014405D02*
G01X0004997Y0014427D01*
G01X0004997Y0014427D02*
G01X0005022Y0014445D01*
G01X0005022Y0014445D02*
G01X0005050Y0014460D01*
G01X0005050Y0014460D02*
G01X0005079Y0014472D01*
G01X0005079Y0014472D02*
G01X0005109Y0014480D01*
G01X0005109Y0014480D02*
G01X0005140Y0014484D01*
G01X0005140Y0014484D02*
G01X0005172Y0014484D01*
G01X0005172Y0014484D02*
G01X0005203Y0014480D01*
G01X0005203Y0014480D02*
G01X0005233Y0014472D01*
G01X0005233Y0014472D02*
G01X0005262Y0014460D01*
G01X0005262Y0014460D02*
G01X0005290Y0014445D01*
G01X0005290Y0014445D02*
G01X0005315Y0014427D01*
G01X0005315Y0014427D02*
G01X0005338Y0014405D01*
G01X0005338Y0014405D02*
G01X0005358Y0014381D01*
G01X0005358Y0014381D02*
G01X0005375Y0014354D01*
G01X0005375Y0014354D02*
G01X0005388Y0014326D01*
G01X0005388Y0014326D02*
G01X0005398Y0014296D01*
G01X0005398Y0014296D02*
G01X0005404Y0014265D01*
G01X0005404Y0014265D02*
G01X0005406Y0014234D01*
G01X0005406Y0014234D02*
G01X0005404Y0014203D01*
G01X0005404Y0014203D02*
G01X0005398Y0014172D01*
G01X0005398Y0014172D02*
G01X0005388Y0014142D01*
G01X0005388Y0014142D02*
G01X0005375Y0014114D01*
G01X0005375Y0014114D02*
G01X0005358Y0014087D01*
G01X0005358Y0014087D02*
G01X0005338Y0014063D01*
G01X0005338Y0014063D02*
G01X0005315Y0014041D01*
G01X0005315Y0014041D02*
G01X0005290Y0014023D01*
G01X0005290Y0014023D02*
G01X0005262Y0014008D01*
G01X0005262Y0014008D02*
G01X0005233Y0013996D01*
G01X0005233Y0013996D02*
G01X0005203Y0013988D01*
G01X0005203Y0013988D02*
G01X0005172Y0013984D01*
G01X0005172Y0013984D02*
G01X0005140Y0013984D01*
G01X0005140Y0013984D02*
G01X0005109Y0013988D01*
G01X0005109Y0013988D02*
G01X0005079Y0013996D01*
G01X0005079Y0013996D02*
G01X0005050Y0014008D01*
G01X0005050Y0014008D02*
G01X0005022Y0014023D01*
G01X0005022Y0014023D02*
G01X0004997Y0014041D01*
G01X0004997Y0014041D02*
G01X0004974Y0014063D01*
G01X0004974Y0014063D02*
G01X0004954Y0014087D01*
G01X0004954Y0014087D02*
G01X0004937Y0014114D01*
G01X0004937Y0014114D02*
G01X0004924Y0014142D01*
G01X0004924Y0014142D02*
G01X0004914Y0014172D01*
G01X0004914Y0014172D02*
G01X0004908Y0014203D01*
G01X0004908Y0014203D02*
G01X0004906Y0014234D01*
G01X0005052Y0013729D02*
G01X0005087Y0013714D01*
G01X0005087Y0013714D02*
G01X0005122Y0013701D01*
G01X0005122Y0013701D02*
G01X0005158Y0013692D01*
G01X0005158Y0013692D02*
G01X0005195Y0013685D01*
G01X0005195Y0013685D02*
G01X0005233Y0013680D01*
G01X0005233Y0013680D02*
G01X0005270Y0013679D01*
G01X0005052Y0015239D02*
G01X0005087Y0015254D01*
G01X0005087Y0015254D02*
G01X0005122Y0015267D01*
G01X0005122Y0015267D02*
G01X0005158Y0015276D01*
G01X0005158Y0015276D02*
G01X0005195Y0015283D01*
G01X0005195Y0015283D02*
G01X0005233Y0015288D01*
G01X0005233Y0015288D02*
G01X0005270Y0015289D01*
G54D11*
G01X0007248Y0014830D02*
G01X0007284Y0014794D01*
G01X0007284Y0014794D02*
G01X0007320Y0014794D01*
G01X0007320Y0014794D02*
G01X0007356Y0014830D01*
G01X0007356Y0014830D02*
G01X0007356Y0015010D01*
G01X0007320Y0015010D02*
G01X0007393Y0015010D01*
G01X0007466Y0014938D02*
G01X0007538Y0015010D01*
G01X0007538Y0015010D02*
G01X0007538Y0014794D01*
G01X0007466Y0014794D02*
G01X0007610Y0014794D01*
G01X0008803Y0015109D02*
G01X0008854Y0015058D01*
G01X0008854Y0015058D02*
G01X0008905Y0015058D01*
G01X0008956Y0015006D02*
G01X0008956Y0014955D01*
G01X0008956Y0014955D02*
G01X0009007Y0014904D01*
G01X0009007Y0014904D02*
G01X0009058Y0014904D01*
G01X0009058Y0014904D02*
G01X0009084Y0014929D01*
G01X0009084Y0014929D02*
G01X0009084Y0014980D01*
G01X0009084Y0014980D02*
G01X0009058Y0015006D01*
G01X0009084Y0014980D02*
G01X0009135Y0014980D01*
G01X0009135Y0014980D02*
G01X0009160Y0015006D01*
G01X0009160Y0015006D02*
G01X0009160Y0015057D01*
G01X0009160Y0015057D02*
G01X0009109Y0015108D01*
G01X0009109Y0015108D02*
G01X0009058Y0015108D01*
G01X0009007Y0015160D02*
G01X0009007Y0015211D01*
G01X0009007Y0015211D02*
G01X0008956Y0015262D01*
G01X0008956Y0015262D02*
G01X0008905Y0015262D01*
G01X0008905Y0015262D02*
G01X0008803Y0015160D01*
G01X0008803Y0015160D02*
G01X0008803Y0015109D01*
G01X0009405Y0014434D02*
G01X0009303Y0014332D01*
G01X0009303Y0014332D02*
G01X0009303Y0014281D01*
G01X0009303Y0014281D02*
G01X0009354Y0014230D01*
G01X0009354Y0014230D02*
G01X0009405Y0014230D01*
G01X0009431Y0014153D02*
G01X0009635Y0014153D01*
G01X0009635Y0014153D02*
G01X0009660Y0014178D01*
G01X0009660Y0014178D02*
G01X0009660Y0014229D01*
G01X0009660Y0014229D02*
G01X0009609Y0014280D01*
G01X0009609Y0014280D02*
G01X0009558Y0014280D01*
G01X0009507Y0014332D02*
G01X0009507Y0014383D01*
G01X0009507Y0014383D02*
G01X0009456Y0014434D01*
G01X0009456Y0014434D02*
G01X0009405Y0014434D01*
G01X0009431Y0014153D02*
G01X0009533Y0014051D01*
G01X0008887Y0012607D02*
G01X0009040Y0012454D01*
G01X0008989Y0012403D02*
G01X0009091Y0012505D01*
G01X0008887Y0012505D02*
G01X0008887Y0012607D01*
G01X0008810Y0012479D02*
G01X0008912Y0012377D01*
G01X0008912Y0012377D02*
G01X0008912Y0012326D01*
G01X0008912Y0012326D02*
G01X0008861Y0012275D01*
G01X0008861Y0012275D02*
G01X0008810Y0012275D01*
G01X0008810Y0012275D02*
G01X0008708Y0012377D01*
G01X0008708Y0012377D02*
G01X0008708Y0012428D01*
G01X0008708Y0012428D02*
G01X0008759Y0012479D01*
G01X0008759Y0012479D02*
G01X0008810Y0012479D01*
G01X0008835Y0012352D02*
G01X0008937Y0012352D01*
G01X0007114Y0011553D02*
G01X0006961Y0011400D01*
G01X0006910Y0011451D02*
G01X0007012Y0011349D01*
G01X0006884Y0011528D02*
G01X0006833Y0011528D01*
G01X0006833Y0011528D02*
G01X0006782Y0011579D01*
G01X0006782Y0011579D02*
G01X0006782Y0011630D01*
G01X0006782Y0011630D02*
G01X0006884Y0011732D01*
G01X0006884Y0011732D02*
G01X0006935Y0011732D01*
G01X0006935Y0011732D02*
G01X0006986Y0011681D01*
G01X0006986Y0011681D02*
G01X0006986Y0011630D01*
G01X0007012Y0011553D02*
G01X0007114Y0011553D01*
G01X0006809Y0012452D02*
G01X0006963Y0012605D01*
G01X0006963Y0012605D02*
G01X0006809Y0012605D01*
G01X0006809Y0012605D02*
G01X0006911Y0012503D01*
G01X0006707Y0012606D02*
G01X0006656Y0012606D01*
G01X0006656Y0012606D02*
G01X0006605Y0012657D01*
G01X0006605Y0012657D02*
G01X0006605Y0012708D01*
G01X0006605Y0012708D02*
G01X0006707Y0012810D01*
G01X0006707Y0012810D02*
G01X0006758Y0012810D01*
G01X0006758Y0012810D02*
G01X0006809Y0012759D01*
G01X0006809Y0012759D02*
G01X0006809Y0012708D01*
G01X0004628Y0010902D02*
G01X0004524Y0011006D01*
G01X0004576Y0010954D02*
G01X0004420Y0010798D01*
G01X0004316Y0010903D02*
G01X0004419Y0011007D01*
G01X0004419Y0011007D02*
G01X0004419Y0011110D01*
G01X0004419Y0011110D02*
G01X0004316Y0011110D01*
G01X0004316Y0011110D02*
G01X0004212Y0011007D01*
G01X0004185Y0011085D02*
G01X0004133Y0011085D01*
G01X0004133Y0011085D02*
G01X0004056Y0011163D01*
G01X0004056Y0011163D02*
G01X0004211Y0011318D01*
G01X0004211Y0011318D02*
G01X0004289Y0011241D01*
G01X0004289Y0011241D02*
G01X0004289Y0011189D01*
G01X0004289Y0011189D02*
G01X0004263Y0011163D01*
G01X0004263Y0011163D02*
G01X0004211Y0011163D01*
G01X0004211Y0011163D02*
G01X0004133Y0011241D01*
G01X0004211Y0011163D02*
G01X0004211Y0011111D01*
G01X0004211Y0011111D02*
G01X0004185Y0011085D01*
G01X0004290Y0011084D02*
G01X0004393Y0010981D01*
G01X0012029Y0007356D02*
G01X0012029Y0007212D01*
G01X0012065Y0007138D02*
G01X0012029Y0007102D01*
G01X0012029Y0007102D02*
G01X0012029Y0007030D01*
G01X0012029Y0007030D02*
G01X0012065Y0006994D01*
G01X0012065Y0006994D02*
G01X0012210Y0006994D01*
G01X0012210Y0006994D02*
G01X0012246Y0007030D01*
G01X0012246Y0007030D02*
G01X0012246Y0007102D01*
G01X0012246Y0007102D02*
G01X0012210Y0007138D01*
G01X0012210Y0007212D02*
G01X0012246Y0007212D01*
G01X0012210Y0007212D02*
G01X0012065Y0007356D01*
G01X0012065Y0007356D02*
G01X0012029Y0007356D01*
G01X0013429Y0007356D02*
G01X0013465Y0007284D01*
G01X0013465Y0007284D02*
G01X0013538Y0007212D01*
G01X0013538Y0007212D02*
G01X0013538Y0007320D01*
G01X0013538Y0007320D02*
G01X0013574Y0007356D01*
G01X0013574Y0007356D02*
G01X0013610Y0007356D01*
G01X0013610Y0007356D02*
G01X0013646Y0007320D01*
G01X0013646Y0007320D02*
G01X0013646Y0007248D01*
G01X0013646Y0007248D02*
G01X0013610Y0007212D01*
G01X0013610Y0007212D02*
G01X0013538Y0007212D01*
G01X0013610Y0007138D02*
G01X0013646Y0007102D01*
G01X0013646Y0007102D02*
G01X0013646Y0007030D01*
G01X0013646Y0007030D02*
G01X0013610Y0006994D01*
G01X0013610Y0006994D02*
G01X0013465Y0006994D01*
G01X0013465Y0006994D02*
G01X0013429Y0007030D01*
G01X0013429Y0007030D02*
G01X0013429Y0007102D01*
G01X0013429Y0007102D02*
G01X0013465Y0007138D01*
G01X0013022Y0009088D02*
G01X0013073Y0009139D01*
G01X0013073Y0009139D02*
G01X0013073Y0009190D01*
G01X0013124Y0009242D02*
G01X0013099Y0009268D01*
G01X0013099Y0009268D02*
G01X0013099Y0009319D01*
G01X0013099Y0009319D02*
G01X0013150Y0009370D01*
G01X0013150Y0009370D02*
G01X0013201Y0009370D01*
G01X0013201Y0009370D02*
G01X0013226Y0009344D01*
G01X0013226Y0009344D02*
G01X0013226Y0009293D01*
G01X0013226Y0009293D02*
G01X0013175Y0009242D01*
G01X0013175Y0009242D02*
G01X0013124Y0009242D01*
G01X0013099Y0009319D02*
G01X0013048Y0009319D01*
G01X0013048Y0009319D02*
G01X0013022Y0009344D01*
G01X0013022Y0009344D02*
G01X0013022Y0009395D01*
G01X0013022Y0009395D02*
G01X0013073Y0009446D01*
G01X0013073Y0009446D02*
G01X0013124Y0009446D01*
G01X0013124Y0009446D02*
G01X0013150Y0009421D01*
G01X0013150Y0009421D02*
G01X0013150Y0009370D01*
G01X0012971Y0009292D02*
G01X0012920Y0009292D01*
G01X0012920Y0009292D02*
G01X0012869Y0009241D01*
G01X0012869Y0009241D02*
G01X0012869Y0009190D01*
G01X0012869Y0009190D02*
G01X0012971Y0009088D01*
G01X0012971Y0009088D02*
G01X0013022Y0009088D01*
G01X0014729Y0009580D02*
G01X0014765Y0009544D01*
G01X0014765Y0009544D02*
G01X0014910Y0009544D01*
G01X0014910Y0009544D02*
G01X0014946Y0009580D01*
G01X0014946Y0009580D02*
G01X0014946Y0009652D01*
G01X0014946Y0009652D02*
G01X0014910Y0009688D01*
G01X0014910Y0009762D02*
G01X0014946Y0009798D01*
G01X0014946Y0009798D02*
G01X0014946Y0009870D01*
G01X0014946Y0009870D02*
G01X0014910Y0009906D01*
G01X0014910Y0009906D02*
G01X0014838Y0009906D01*
G01X0014838Y0009906D02*
G01X0014802Y0009870D01*
G01X0014802Y0009870D02*
G01X0014802Y0009834D01*
G01X0014802Y0009834D02*
G01X0014838Y0009762D01*
G01X0014838Y0009762D02*
G01X0014729Y0009762D01*
G01X0014729Y0009762D02*
G01X0014729Y0009906D01*
G01X0014765Y0009688D02*
G01X0014729Y0009652D01*
G01X0014729Y0009652D02*
G01X0014729Y0009580D01*
G54D12*
G01X0012071Y0009115D02*
G01X0011792Y0008837D01*
G01X0011792Y0008837D02*
G01X0011681Y0008948D01*
G01X0009120Y0011509D02*
G01X0009008Y0011620D01*
G01X0009008Y0011620D02*
G01X0009287Y0011899D01*
G01X0012822Y0015434D02*
G01X0015606Y0012650D01*
G01X0015606Y0012650D02*
G01X0016525Y0013569D01*
G01X0016525Y0013569D02*
G01X0013741Y0016353D01*
G01X0013741Y0016353D02*
G01X0012822Y0015434D01*
G54D13*
G01X0010064Y0014493D02*
G01X0010047Y0014476D01*
G01X0008564Y0014376D02*
G01X0008547Y0014393D01*
G01X0007464Y0013276D02*
G01X0007447Y0013293D01*
G01X0007564Y0011893D02*
G01X0007547Y0011876D01*
G01X0012544Y0007284D02*
G01X0012568Y0007284D01*
G01X0013944Y0007284D02*
G01X0013968Y0007284D01*
G01X0013464Y0009076D02*
G01X0013447Y0009093D01*
G01X0015294Y0009584D02*
G01X0015318Y0009584D01*
G54D14*
G01X0009410Y0013421D02*
G01X0008992Y0013838D01*
G01X0008992Y0013838D02*
G01X0008102Y0012947D01*
G01X0008102Y0012947D02*
G01X0008519Y0012530D01*
G01X0008519Y0012530D02*
G01X0009410Y0013421D01*
G54D15*
G01X0002417Y0007590D02*
G01X0002093Y0007265D01*
G01X0002696Y0007869D02*
G01X0003021Y0008193D01*
G01X0003299Y0008472D02*
G01X0003624Y0008796D01*
G01X0003902Y0009075D02*
G01X0004227Y0009400D01*
G01X0004505Y0009678D02*
G01X0004830Y0010003D01*
G01X0005109Y0010281D02*
G01X0005433Y0010606D01*
G01X0005433Y0010606D02*
G01X0005960Y0010637D01*
G01X0006353Y0010660D02*
G01X0006880Y0010691D01*
G01X0007273Y0010714D02*
G01X0007800Y0010745D01*
G01X0007800Y0010745D02*
G01X0008078Y0010467D01*
G01X0008356Y0010188D02*
G01X0008635Y0009910D01*
G01X0008913Y0009632D02*
G01X0009192Y0009353D01*
G01X0009470Y0009075D02*
G01X0009748Y0008796D01*
G01X0010027Y0008518D02*
G01X0010305Y0008240D01*
G01X0010584Y0007961D02*
G01X0010862Y0007683D01*
G01X0010862Y0007683D02*
G01X0010831Y0007156D01*
G01X0010808Y0006763D02*
G01X0010777Y0006236D01*
G01X0010754Y0005843D02*
G01X0010723Y0005317D01*
G01X0010723Y0005317D02*
G01X0010398Y0004992D01*
G01X0010120Y0004713D02*
G01X0009795Y0004389D01*
G01X0009516Y0004110D02*
G01X0009192Y0003785D01*
G01X0008913Y0003507D02*
G01X0008588Y0003182D01*
G01X0008310Y0002904D02*
G01X0007985Y0002579D01*
G01X0007707Y0002301D02*
G01X0007382Y0001976D01*
M02*
