  0
SECTION
  2
HEADER
  9
$ACADVER
  1
AC1009
  9
$FILLMODE
 70
1
  9
$EXTMIN
 10
-3.9517
 20
-3.5154
 30
0.0000
  9
$EXTMAX
 10
40.3454
 20
40.3454
 30
0.0000
  0
ENDSEC
  0
SECTION
  2
TABLES
  0
TABLE
  2
LTYPE
 70
1
  0
LTYPE
  2
CONTINUOUS
 70
64
  3
Solid line
 72
65
 73
0
 40
0
  0
ENDTAB
  0
TABLE
  2
LAYER
 70
255
  0
LAYER
  2
16
 70
64
 62
174
  6
CONTINUOUS
  0
LAYER
  2
17
 70
64
 62
94
  6
CONTINUOUS
  0
LAYER
  2
20
 70
64
 62
178
  6
CONTINUOUS
  0
LAYER
  2
32
 70
64
 62
251
  6
CONTINUOUS
  0
LAYER
  2
34
 70
64
 62
54
  6
CONTINUOUS
  0
ENDTAB
  0
ENDSEC
  0
SECTION
  2
BLOCKS
  0
BLOCK
  8
0
  2
RECT
 70
64
 10
0.0000
 20
0.0000
 30
0.0000
  3
RECT
  0
SOLID
  8
0
 10
-0.5000
 20
-0.5000
 30
0.0000
 11
0.5000
 21
-0.5000
 31
0.0000
 12
-0.5000
 22
0.5000
 32
0.0000
 13
0.5000
 23
0.5000
 33
0.0000
  0
ENDBLK
  8
0
  0
BLOCK
  8
0
  2
PIE
 70
64
 10
0.0000
 20
0.0000
 30
0.0000
  3
PIE
  0
POLYLINE
  8
0
 66
1
 10
0.0000
 20
0.0000
 30
0.0000
 40
0.5000
 41
0.5000
 70
0
  0
VERTEX
  8
0
 10
0.0000
 20
-0.2500
 30
0.0000
 42
1.0000
  0
VERTEX
  8
0
 10
0.0000
 20
0.2500
 30
0.0000
 42
1.0000
  0
VERTEX
  8
0
 10
0.0000
 20
-0.2500
 30
0.0000
  0
SEQEND
  8
0
  0
ENDBLK
  8
0
  0
BLOCK
  8
0
  2
OCTAGONP
 70
64
 10
0.0000
 20
0.0000
 30
0.0000
  3
OCTAGONP
  0
POLYLINE
  8
0
 66
1
 10
0.0000
 20
0.0000
 30
0.0000
 40
0.5000
 41
0.5000
 70
0
  0
VERTEX
  8
0
 10
-0.2500
 20
-0.1036
 30
0.0000
  0
VERTEX
  8
0
 10
-0.2500
 20
0.1036
 30
0.0000
  0
VERTEX
  8
0
 10
-0.1036
 20
0.2500
 30
0.0000
  0
VERTEX
  8
0
 10
0.1036
 20
0.2500
 30
0.0000
  0
VERTEX
  8
0
 10
0.2500
 20
0.1036
 30
0.0000
  0
VERTEX
  8
0
 10
0.2500
 20
-0.1036
 30
0.0000
  0
VERTEX
  8
0
 10
0.1036
 20
-0.2500
 30
0.0000
  0
VERTEX
  8
0
 10
-0.1036
 20
-0.2500
 30
0.0000
  0
VERTEX
  8
0
 10
-0.2500
 20
-0.1036
 30
0.0000
  0
VERTEX
  8
0
 10
-0.2500
 20
0.1036
 30
0.0000
  0
SEQEND
  8
0
  0
ENDBLK
  8
0
  0
BLOCK
  8
0
  2
SQUAREP
 70
64
 10
0.0000
 20
0.0000
 30
0.0000
  3
SQUAREP
  0
SOLID
  8
0
 10
-0.5000
 20
-0.5000
 30
0.0000
 11
0.5000
 21
-0.5000
 31
0.0000
 12
-0.5000
 22
0.5000
 32
0.0000
 13
0.5000
 23
0.5000
 33
0.0000
  0
ENDBLK
  8
0
  0
BLOCK
  8
0
  2
ROUNDP
 70
64
 10
0.0000
 20
0.0000
 30
0.0000
  3
ROUNDP
  0
POLYLINE
  8
0
 66
1
 10
0.0000
 20
0.0000
 30
0.0000
 40
0.5000
 41
0.5000
 70
0
  0
VERTEX
  8
0
 10
0.0000
 20
-0.2500
 30
0.0000
 42
1.0000
  0
VERTEX
  8
0
 10
0.0000
 20
0.2500
 30
0.0000
 42
1.0000
  0
VERTEX
  8
0
 10
0.0000
 20
-0.2500
 30
0.0000
  0
SEQEND
  8
0
  0
ENDBLK
  8
0
  0
BLOCK
  8
0
  2
ANNULUSP
 70
64
 10
0.0000
 20
0.0000
 30
0.0000
  3
ANNULUSP
  0
POLYLINE
  8
0
 66
1
 10
0.0000
 20
0.0000
 30
0.0000
 40
0.5000
 41
0.5000
 70
0
  0
VERTEX
  8
0
 10
0.0000
 20
-0.2500
 30
0.0000
 42
1.0000
  0
VERTEX
  8
0
 10
0.0000
 20
0.2500
 30
0.0000
 42
1.0000
  0
VERTEX
  8
0
 10
0.0000
 20
-0.2500
 30
0.0000
  0
SEQEND
  8
0
  0
ENDBLK
  8
0
  0
BLOCK
  8
0
  2
THERMALP
 70
64
 10
0.0000
 20
0.0000
 30
0.0000
  3
THERMALP
  0
POLYLINE
  8
0
 66
1
 10
0.0000
 20
0.0000
 30
0.0000
 40
0.1000
 41
0.1000
 70
0
  0
VERTEX
  8
0
 10
-0.2379
 20
0.4500
 30
0.0000
  0
VERTEX
  8
0
 10
0.2379
 20
0.4500
 30
0.0000
  0
SEQEND
  8
0
  0
POLYLINE
  8
0
 66
1
 10
0.0000
 20
0.0000
 30
0.0000
 40
0.0500
 41
0.0500
 70
0
  0
VERTEX
  8
0
 10
0.2379
 20
0.4250
 30
0.0000
 42
1.0000
  0
VERTEX
  8
0
 10
0.2379
 20
0.4750
 30
0.0000
  0
SEQEND
  8
0
  0
POLYLINE
  8
0
 66
1
 10
0.0000
 20
0.0000
 30
0.0000
 40
0.0500
 41
0.0500
 70
0
  0
VERTEX
  8
0
 10
-0.2379
 20
0.4750
 30
0.0000
 42
1.0000
  0
VERTEX
  8
0
 10
-0.2379
 20
0.4250
 30
0.0000
  0
SEQEND
  8
0
  0
POLYLINE
  8
0
 66
1
 10
0.0000
 20
0.0000
 30
0.0000
 40
0.1000
 41
0.1000
 70
0
  0
VERTEX
  8
0
 10
0.4500
 20
0.2379
 30
0.0000
  0
VERTEX
  8
0
 10
0.4500
 20
-0.2379
 30
0.0000
  0
SEQEND
  8
0
  0
POLYLINE
  8
0
 66
1
 10
0.0000
 20
0.0000
 30
0.0000
 40
0.0500
 41
0.0500
 70
0
  0
VERTEX
  8
0
 10
0.4250
 20
-0.2379
 30
0.0000
 42
1.0000
  0
VERTEX
  8
0
 10
0.4750
 20
-0.2379
 30
0.0000
  0
SEQEND
  8
0
  0
POLYLINE
  8
0
 66
1
 10
0.0000
 20
0.0000
 30
0.0000
 40
0.0500
 41
0.0500
 70
0
  0
VERTEX
  8
0
 10
0.4750
 20
0.2379
 30
0.0000
 42
1.0000
  0
VERTEX
  8
0
 10
0.4250
 20
0.2379
 30
0.0000
  0
SEQEND
  8
0
  0
POLYLINE
  8
0
 66
1
 10
0.0000
 20
0.0000
 30
0.0000
 40
0.1000
 41
0.1000
 70
0
  0
VERTEX
  8
0
 10
0.2379
 20
-0.4500
 30
0.0000
  0
VERTEX
  8
0
 10
-0.2379
 20
-0.4500
 30
0.0000
  0
SEQEND
  8
0
  0
POLYLINE
  8
0
 66
1
 10
0.0000
 20
0.0000
 30
0.0000
 40
0.0500
 41
0.0500
 70
0
  0
VERTEX
  8
0
 10
-0.2379
 20
-0.4250
 30
0.0000
 42
1.0000
  0
VERTEX
  8
0
 10
-0.2379
 20
-0.4750
 30
0.0000
  0
SEQEND
  8
0
  0
POLYLINE
  8
0
 66
1
 10
0.0000
 20
0.0000
 30
0.0000
 40
0.0500
 41
0.0500
 70
0
  0
VERTEX
  8
0
 10
0.2379
 20
-0.4750
 30
0.0000
 42
1.0000
  0
VERTEX
  8
0
 10
0.2379
 20
-0.4250
 30
0.0000
  0
SEQEND
  8
0
  0
POLYLINE
  8
0
 66
1
 10
0.0000
 20
0.0000
 30
0.0000
 40
0.1000
 41
0.1000
 70
0
  0
VERTEX
  8
0
 10
-0.4500
 20
-0.2379
 30
0.0000
  0
VERTEX
  8
0
 10
-0.4500
 20
0.2379
 30
0.0000
  0
SEQEND
  8
0
  0
POLYLINE
  8
0
 66
1
 10
0.0000
 20
0.0000
 30
0.0000
 40
0.0500
 41
0.0500
 70
0
  0
VERTEX
  8
0
 10
-0.4250
 20
0.2379
 30
0.0000
 42
1.0000
  0
VERTEX
  8
0
 10
-0.4750
 20
0.2379
 30
0.0000
  0
SEQEND
  8
0
  0
POLYLINE
  8
0
 66
1
 10
0.0000
 20
0.0000
 30
0.0000
 40
0.0500
 41
0.0500
 70
0
  0
VERTEX
  8
0
 10
-0.4750
 20
-0.2379
 30
0.0000
 42
1.0000
  0
VERTEX
  8
0
 10
-0.4250
 20
-0.2379
 30
0.0000
  0
SEQEND
  8
0
  0
ENDBLK
  8
0
  0
BLOCK
  8
0
  2
OCTAGONV
 70
64
 10
0.0000
 20
0.0000
 30
0.0000
  3
OCTAGONV
  0
POLYLINE
  8
0
 66
1
 10
0.0000
 20
0.0000
 30
0.0000
 40
0.5000
 41
0.5000
 70
0
  0
VERTEX
  8
0
 10
-0.2500
 20
-0.1036
 30
0.0000
  0
VERTEX
  8
0
 10
-0.2500
 20
0.1036
 30
0.0000
  0
VERTEX
  8
0
 10
-0.1036
 20
0.2500
 30
0.0000
  0
VERTEX
  8
0
 10
0.1036
 20
0.2500
 30
0.0000
  0
VERTEX
  8
0
 10
0.2500
 20
0.1036
 30
0.0000
  0
VERTEX
  8
0
 10
0.2500
 20
-0.1036
 30
0.0000
  0
VERTEX
  8
0
 10
0.1036
 20
-0.2500
 30
0.0000
  0
VERTEX
  8
0
 10
-0.1036
 20
-0.2500
 30
0.0000
  0
VERTEX
  8
0
 10
-0.2500
 20
-0.1036
 30
0.0000
  0
VERTEX
  8
0
 10
-0.2500
 20
0.1036
 30
0.0000
  0
SEQEND
  8
0
  0
ENDBLK
  8
0
  0
BLOCK
  8
0
  2
SQUAREV
 70
64
 10
0.0000
 20
0.0000
 30
0.0000
  3
SQUAREV
  0
SOLID
  8
0
 10
-0.5000
 20
-0.5000
 30
0.0000
 11
0.5000
 21
-0.5000
 31
0.0000
 12
-0.5000
 22
0.5000
 32
0.0000
 13
0.5000
 23
0.5000
 33
0.0000
  0
ENDBLK
  8
0
  0
BLOCK
  8
0
  2
ROUNDV
 70
64
 10
0.0000
 20
0.0000
 30
0.0000
  3
ROUNDV
  0
POLYLINE
  8
0
 66
1
 10
0.0000
 20
0.0000
 30
0.0000
 40
0.5000
 41
0.5000
 70
0
  0
VERTEX
  8
0
 10
0.0000
 20
-0.2500
 30
0.0000
 42
1.0000
  0
VERTEX
  8
0
 10
0.0000
 20
0.2500
 30
0.0000
 42
1.0000
  0
VERTEX
  8
0
 10
0.0000
 20
-0.2500
 30
0.0000
  0
SEQEND
  8
0
  0
ENDBLK
  8
0
  0
BLOCK
  8
0
  2
ANNULUSV
 70
64
 10
0.0000
 20
0.0000
 30
0.0000
  3
ANNULUSV
  0
POLYLINE
  8
0
 66
1
 10
0.0000
 20
0.0000
 30
0.0000
 40
0.5000
 41
0.5000
 70
0
  0
VERTEX
  8
0
 10
0.0000
 20
-0.2500
 30
0.0000
 42
1.0000
  0
VERTEX
  8
0
 10
0.0000
 20
0.2500
 30
0.0000
 42
1.0000
  0
VERTEX
  8
0
 10
0.0000
 20
-0.2500
 30
0.0000
  0
SEQEND
  8
0
  0
ENDBLK
  8
0
  0
BLOCK
  8
0
  2
THERMALV
 70
64
 10
0.0000
 20
0.0000
 30
0.0000
  3
THERMALV
  0
POLYLINE
  8
0
 66
1
 10
0.0000
 20
0.0000
 30
0.0000
 40
0.1000
 41
0.1000
 70
0
  0
VERTEX
  8
0
 10
-0.2379
 20
0.4500
 30
0.0000
  0
VERTEX
  8
0
 10
0.2379
 20
0.4500
 30
0.0000
  0
SEQEND
  8
0
  0
POLYLINE
  8
0
 66
1
 10
0.0000
 20
0.0000
 30
0.0000
 40
0.0500
 41
0.0500
 70
0
  0
VERTEX
  8
0
 10
0.2379
 20
0.4250
 30
0.0000
 42
1.0000
  0
VERTEX
  8
0
 10
0.2379
 20
0.4750
 30
0.0000
  0
SEQEND
  8
0
  0
POLYLINE
  8
0
 66
1
 10
0.0000
 20
0.0000
 30
0.0000
 40
0.0500
 41
0.0500
 70
0
  0
VERTEX
  8
0
 10
-0.2379
 20
0.4750
 30
0.0000
 42
1.0000
  0
VERTEX
  8
0
 10
-0.2379
 20
0.4250
 30
0.0000
  0
SEQEND
  8
0
  0
POLYLINE
  8
0
 66
1
 10
0.0000
 20
0.0000
 30
0.0000
 40
0.1000
 41
0.1000
 70
0
  0
VERTEX
  8
0
 10
0.4500
 20
0.2379
 30
0.0000
  0
VERTEX
  8
0
 10
0.4500
 20
-0.2379
 30
0.0000
  0
SEQEND
  8
0
  0
POLYLINE
  8
0
 66
1
 10
0.0000
 20
0.0000
 30
0.0000
 40
0.0500
 41
0.0500
 70
0
  0
VERTEX
  8
0
 10
0.4250
 20
-0.2379
 30
0.0000
 42
1.0000
  0
VERTEX
  8
0
 10
0.4750
 20
-0.2379
 30
0.0000
  0
SEQEND
  8
0
  0
POLYLINE
  8
0
 66
1
 10
0.0000
 20
0.0000
 30
0.0000
 40
0.0500
 41
0.0500
 70
0
  0
VERTEX
  8
0
 10
0.4750
 20
0.2379
 30
0.0000
 42
1.0000
  0
VERTEX
  8
0
 10
0.4250
 20
0.2379
 30
0.0000
  0
SEQEND
  8
0
  0
POLYLINE
  8
0
 66
1
 10
0.0000
 20
0.0000
 30
0.0000
 40
0.1000
 41
0.1000
 70
0
  0
VERTEX
  8
0
 10
0.2379
 20
-0.4500
 30
0.0000
  0
VERTEX
  8
0
 10
-0.2379
 20
-0.4500
 30
0.0000
  0
SEQEND
  8
0
  0
POLYLINE
  8
0
 66
1
 10
0.0000
 20
0.0000
 30
0.0000
 40
0.0500
 41
0.0500
 70
0
  0
VERTEX
  8
0
 10
-0.2379
 20
-0.4250
 30
0.0000
 42
1.0000
  0
VERTEX
  8
0
 10
-0.2379
 20
-0.4750
 30
0.0000
  0
SEQEND
  8
0
  0
POLYLINE
  8
0
 66
1
 10
0.0000
 20
0.0000
 30
0.0000
 40
0.0500
 41
0.0500
 70
0
  0
VERTEX
  8
0
 10
0.2379
 20
-0.4750
 30
0.0000
 42
1.0000
  0
VERTEX
  8
0
 10
0.2379
 20
-0.4250
 30
0.0000
  0
SEQEND
  8
0
  0
POLYLINE
  8
0
 66
1
 10
0.0000
 20
0.0000
 30
0.0000
 40
0.1000
 41
0.1000
 70
0
  0
VERTEX
  8
0
 10
-0.4500
 20
-0.2379
 30
0.0000
  0
VERTEX
  8
0
 10
-0.4500
 20
0.2379
 30
0.0000
  0
SEQEND
  8
0
  0
POLYLINE
  8
0
 66
1
 10
0.0000
 20
0.0000
 30
0.0000
 40
0.0500
 41
0.0500
 70
0
  0
VERTEX
  8
0
 10
-0.4250
 20
0.2379
 30
0.0000
 42
1.0000
  0
VERTEX
  8
0
 10
-0.4750
 20
0.2379
 30
0.0000
  0
SEQEND
  8
0
  0
POLYLINE
  8
0
 66
1
 10
0.0000
 20
0.0000
 30
0.0000
 40
0.0500
 41
0.0500
 70
0
  0
VERTEX
  8
0
 10
-0.4750
 20
-0.2379
 30
0.0000
 42
1.0000
  0
VERTEX
  8
0
 10
-0.4250
 20
-0.2379
 30
0.0000
  0
SEQEND
  8
0
  0
ENDBLK
  8
0
  0
BLOCK
  8
0
  2
RECT609600X609600R100
 70
64
 10
0.0000
 20
0.0000
 30
0.0000
  3
RECT609600X609600R100
  0
POLYLINE
  8
0
 66
1
 10
0.0000
 20
0.0000
 30
0.0000
 40
1.9050
 41
1.9050
 70
1
  0
VERTEX
  8
0
 10
0.9525
 20
0.0000
 30
0.0000
  0
VERTEX
  8
0
 10
0.9525
 20
0.0000
 30
0.0000
 42
0.4142
  0
VERTEX
  8
0
 10
0.0000
 20
0.9525
 30
0.0000
  0
VERTEX
  8
0
 10
0.0000
 20
0.9525
 30
0.0000
 42
0.4142
  0
VERTEX
  8
0
 10
-0.9525
 20
0.0000
 30
0.0000
  0
VERTEX
  8
0
 10
-0.9525
 20
0.0000
 30
0.0000
 42
0.4142
  0
VERTEX
  8
0
 10
0.0000
 20
-0.9525
 30
0.0000
  0
VERTEX
  8
0
 10
0.0000
 20
-0.9525
 30
0.0000
 42
0.4142
  0
SEQEND
  8
0
  0
SOLID
  8
0
 10
-0.0254
 20
-0.0254
 30
0.0000
 11
0.0254
 21
-0.0254
 31
0.0000
 12
-0.0254
 22
0.0254
 32
0.0000
 13
0.0254
 23
0.0254
 33
0.0000
  0
ENDBLK
  8
0
  0
BLOCK
  8
0
  2
RECT101600X101600R100
 70
64
 10
0.0000
 20
0.0000
 30
0.0000
  3
RECT101600X101600R100
  0
POLYLINE
  8
0
 66
1
 10
0.0000
 20
0.0000
 30
0.0000
 40
0.3175
 41
0.3175
 70
1
  0
VERTEX
  8
0
 10
0.1588
 20
0.0000
 30
0.0000
  0
VERTEX
  8
0
 10
0.1588
 20
0.0000
 30
0.0000
 42
0.4142
  0
VERTEX
  8
0
 10
0.0000
 20
0.1588
 30
0.0000
  0
VERTEX
  8
0
 10
0.0000
 20
0.1588
 30
0.0000
 42
0.4142
  0
VERTEX
  8
0
 10
-0.1588
 20
0.0000
 30
0.0000
  0
VERTEX
  8
0
 10
-0.1588
 20
0.0000
 30
0.0000
 42
0.4142
  0
VERTEX
  8
0
 10
0.0000
 20
-0.1588
 30
0.0000
  0
VERTEX
  8
0
 10
0.0000
 20
-0.1588
 30
0.0000
 42
0.4142
  0
SEQEND
  8
0
  0
SOLID
  8
0
 10
-0.0254
 20
-0.0254
 30
0.0000
 11
0.0254
 21
-0.0254
 31
0.0000
 12
-0.0254
 22
0.0254
 32
0.0000
 13
0.0254
 23
0.0254
 33
0.0000
  0
ENDBLK
  8
0
  0
BLOCK
  8
0
  2
RECT0X0R100
 70
64
 10
0.0000
 20
0.0000
 30
0.0000
  3
RECT0X0R100
  0
POLYLINE
  8
0
 66
1
 10
0.0000
 20
0.0000
 30
0.0000
 40
0.0000
 41
0.0000
 70
1
  0
VERTEX
  8
0
 10
0.0000
 20
0.0000
 30
0.0000
  0
VERTEX
  8
0
 10
0.0000
 20
0.0000
 30
0.0000
 42
0.4142
  0
VERTEX
  8
0
 10
0.0000
 20
0.0000
 30
0.0000
  0
VERTEX
  8
0
 10
0.0000
 20
0.0000
 30
0.0000
 42
0.4142
  0
VERTEX
  8
0
 10
0.0000
 20
0.0000
 30
0.0000
  0
VERTEX
  8
0
 10
0.0000
 20
0.0000
 30
0.0000
 42
0.4142
  0
VERTEX
  8
0
 10
0.0000
 20
0.0000
 30
0.0000
  0
VERTEX
  8
0
 10
0.0000
 20
0.0000
 30
0.0000
 42
0.4142
  0
SEQEND
  8
0
  0
SOLID
  8
0
 10
0.0000
 20
0.0000
 30
0.0000
 11
0.0000
 21
0.0000
 31
0.0000
 12
0.0000
 22
0.0000
 32
0.0000
 13
0.0000
 23
0.0000
 33
0.0000
  0
ENDBLK
  8
0
  0
ENDSEC
  0
SECTION
  2
ENTITIES
  0
POLYLINE
  8
20
 66
1
 10
0.0000
 20
0.0000
 30
0.0000
 40
0.4064
 41
0.4064
 70
0
  0
VERTEX
  8
20
 10
0.0000
 20
31.7500
 30
0.0000
  0
VERTEX
  8
20
 10
0.0000
 20
11.7300
 30
0.0000
  0
SEQEND
  8
0
  0
POLYLINE
  8
20
 66
1
 10
0.0000
 20
0.0000
 30
0.0000
 40
0.2032
 41
0.2032
 70
0
  0
VERTEX
  8
20
 10
-0.1016
 20
11.7300
 30
0.0000
 42
1.0000
  0
VERTEX
  8
20
 10
0.1016
 20
11.7300
 30
0.0000
  0
SEQEND
  8
0
  0
POLYLINE
  8
20
 66
1
 10
0.0000
 20
0.0000
 30
0.0000
 40
0.2032
 41
0.2032
 70
0
  0
VERTEX
  8
20
 10
0.1016
 20
31.7500
 30
0.0000
 42
1.0000
  0
VERTEX
  8
20
 10
-0.1016
 20
31.7500
 30
0.0000
  0
SEQEND
  8
0
  0
POLYLINE
  8
20
 66
1
 10
0.0000
 20
0.0000
 30
0.0000
 40
0.4064
 41
0.4064
 70
0
  0
VERTEX
  8
20
 10
0.0000
 20
4.2140
 30
0.0000
  0
VERTEX
  8
20
 10
0.0000
 20
4.1271
 30
0.0000
  0
SEQEND
  8
0
  0
POLYLINE
  8
20
 66
1
 10
0.0000
 20
0.0000
 30
0.0000
 40
0.2032
 41
0.2032
 70
0
  0
VERTEX
  8
20
 10
-0.1016
 20
4.1271
 30
0.0000
 42
1.0000
  0
VERTEX
  8
20
 10
0.1016
 20
4.1271
 30
0.0000
  0
SEQEND
  8
0
  0
POLYLINE
  8
20
 66
1
 10
0.0000
 20
0.0000
 30
0.0000
 40
0.2032
 41
0.2032
 70
0
  0
VERTEX
  8
20
 10
0.1016
 20
4.2140
 30
0.0000
 42
1.0000
  0
VERTEX
  8
20
 10
-0.1016
 20
4.2140
 30
0.0000
  0
SEQEND
  8
0
  0
POLYLINE
  8
20
 66
1
 10
0.0000
 20
0.0000
 30
0.0000
 40
0.4064
 41
0.4064
 70
0
  0
VERTEX
  8
20
 10
0.0000
 20
4.1271
 30
0.0000
 42
0.4142
  0
VERTEX
  8
20
 10
3.8731
 20
0.0000
 30
0.0000
  0
SEQEND
  8
0
  0
POLYLINE
  8
20
 66
1
 10
0.0000
 20
0.0000
 30
0.0000
 40
0.2032
 41
0.2032
 70
0
  0
VERTEX
  8
20
 10
0.1015
 20
4.1239
 30
0.0000
 42
1.0000
  0
VERTEX
  8
20
 10
-0.1015
 20
4.1303
 30
0.0000
  0
SEQEND
  8
0
  0
POLYLINE
  8
20
 66
1
 10
0.0000
 20
0.0000
 30
0.0000
 40
0.2032
 41
0.2032
 70
0
  0
VERTEX
  8
20
 10
3.8699
 20
-0.1015
 30
0.0000
 42
1.0000
  0
VERTEX
  8
20
 10
3.8763
 20
0.1015
 30
0.0000
  0
SEQEND
  8
0
  0
POLYLINE
  8
20
 66
1
 10
0.0000
 20
0.0000
 30
0.0000
 40
0.4064
 41
0.4064
 70
0
  0
VERTEX
  8
20
 10
3.8731
 20
0.0000
 30
0.0000
  0
VERTEX
  8
20
 10
3.9600
 20
0.0000
 30
0.0000
  0
SEQEND
  8
0
  0
POLYLINE
  8
20
 66
1
 10
0.0000
 20
0.0000
 30
0.0000
 40
0.2032
 41
0.2032
 70
0
  0
VERTEX
  8
20
 10
3.9600
 20
-0.1016
 30
0.0000
 42
1.0000
  0
VERTEX
  8
20
 10
3.9600
 20
0.1016
 30
0.0000
  0
SEQEND
  8
0
  0
POLYLINE
  8
20
 66
1
 10
0.0000
 20
0.0000
 30
0.0000
 40
0.2032
 41
0.2032
 70
0
  0
VERTEX
  8
20
 10
3.8731
 20
0.1016
 30
0.0000
 42
1.0000
  0
VERTEX
  8
20
 10
3.8731
 20
-0.1016
 30
0.0000
  0
SEQEND
  8
0
  0
POLYLINE
  8
20
 66
1
 10
0.0000
 20
0.0000
 30
0.0000
 40
0.4064
 41
0.4064
 70
0
  0
VERTEX
  8
20
 10
11.4760
 20
0.0000
 30
0.0000
  0
VERTEX
  8
20
 10
31.7500
 20
0.0000
 30
0.0000
  0
SEQEND
  8
0
  0
POLYLINE
  8
20
 66
1
 10
0.0000
 20
0.0000
 30
0.0000
 40
0.2032
 41
0.2032
 70
0
  0
VERTEX
  8
20
 10
31.7500
 20
-0.1016
 30
0.0000
 42
1.0000
  0
VERTEX
  8
20
 10
31.7500
 20
0.1016
 30
0.0000
  0
SEQEND
  8
0
  0
POLYLINE
  8
20
 66
1
 10
0.0000
 20
0.0000
 30
0.0000
 40
0.2032
 41
0.2032
 70
0
  0
VERTEX
  8
20
 10
11.4760
 20
0.1016
 30
0.0000
 42
1.0000
  0
VERTEX
  8
20
 10
11.4760
 20
-0.1016
 30
0.0000
  0
SEQEND
  8
0
  0
POLYLINE
  8
20
 66
1
 10
0.0000
 20
0.0000
 30
0.0000
 40
0.4064
 41
0.4064
 70
0
  0
VERTEX
  8
20
 10
31.7500
 20
0.0000
 30
0.0000
 42
0.4142
  0
VERTEX
  8
20
 10
36.8300
 20
5.0800
 30
0.0000
  0
SEQEND
  8
0
  0
POLYLINE
  8
20
 66
1
 10
0.0000
 20
0.0000
 30
0.0000
 40
0.2032
 41
0.2032
 70
0
  0
VERTEX
  8
20
 10
31.7500
 20
0.1016
 30
0.0000
 42
1.0000
  0
VERTEX
  8
20
 10
31.7500
 20
-0.1016
 30
0.0000
  0
SEQEND
  8
0
  0
POLYLINE
  8
20
 66
1
 10
0.0000
 20
0.0000
 30
0.0000
 40
0.2032
 41
0.2032
 70
0
  0
VERTEX
  8
20
 10
36.9316
 20
5.0800
 30
0.0000
 42
1.0000
  0
VERTEX
  8
20
 10
36.7284
 20
5.0800
 30
0.0000
  0
SEQEND
  8
0
  0
POLYLINE
  8
20
 66
1
 10
0.0000
 20
0.0000
 30
0.0000
 40
0.4064
 41
0.4064
 70
0
  0
VERTEX
  8
20
 10
36.8300
 20
5.0800
 30
0.0000
  0
VERTEX
  8
20
 10
36.8300
 20
10.0560
 30
0.0000
  0
SEQEND
  8
0
  0
POLYLINE
  8
20
 66
1
 10
0.0000
 20
0.0000
 30
0.0000
 40
0.2032
 41
0.2032
 70
0
  0
VERTEX
  8
20
 10
36.9316
 20
10.0560
 30
0.0000
 42
1.0000
  0
VERTEX
  8
20
 10
36.7284
 20
10.0560
 30
0.0000
  0
SEQEND
  8
0
  0
POLYLINE
  8
20
 66
1
 10
0.0000
 20
0.0000
 30
0.0000
 40
0.2032
 41
0.2032
 70
0
  0
VERTEX
  8
20
 10
36.7284
 20
5.0800
 30
0.0000
 42
1.0000
  0
VERTEX
  8
20
 10
36.9316
 20
5.0800
 30
0.0000
  0
SEQEND
  8
0
  0
POLYLINE
  8
20
 66
1
 10
0.0000
 20
0.0000
 30
0.0000
 40
0.4064
 41
0.4064
 70
0
  0
VERTEX
  8
20
 10
36.8300
 20
16.5560
 30
0.0000
  0
VERTEX
  8
20
 10
36.8300
 20
32.7660
 30
0.0000
  0
SEQEND
  8
0
  0
POLYLINE
  8
20
 66
1
 10
0.0000
 20
0.0000
 30
0.0000
 40
0.2032
 41
0.2032
 70
0
  0
VERTEX
  8
20
 10
36.9316
 20
32.7660
 30
0.0000
 42
1.0000
  0
VERTEX
  8
20
 10
36.7284
 20
32.7660
 30
0.0000
  0
SEQEND
  8
0
  0
POLYLINE
  8
20
 66
1
 10
0.0000
 20
0.0000
 30
0.0000
 40
0.2032
 41
0.2032
 70
0
  0
VERTEX
  8
20
 10
36.7284
 20
16.5560
 30
0.0000
 42
1.0000
  0
VERTEX
  8
20
 10
36.9316
 20
16.5560
 30
0.0000
  0
SEQEND
  8
0
  0
POLYLINE
  8
20
 66
1
 10
0.0000
 20
0.0000
 30
0.0000
 40
0.4064
 41
0.4064
 70
0
  0
VERTEX
  8
20
 10
36.8300
 20
32.7660
 30
0.0000
 42
0.4142
  0
VERTEX
  8
20
 10
32.7660
 20
36.8300
 30
0.0000
  0
SEQEND
  8
0
  0
POLYLINE
  8
20
 66
1
 10
0.0000
 20
0.0000
 30
0.0000
 40
0.2032
 41
0.2032
 70
0
  0
VERTEX
  8
20
 10
36.7284
 20
32.7660
 30
0.0000
 42
1.0000
  0
VERTEX
  8
20
 10
36.9316
 20
32.7660
 30
0.0000
  0
SEQEND
  8
0
  0
POLYLINE
  8
20
 66
1
 10
0.0000
 20
0.0000
 30
0.0000
 40
0.2032
 41
0.2032
 70
0
  0
VERTEX
  8
20
 10
32.7660
 20
36.9316
 30
0.0000
 42
1.0000
  0
VERTEX
  8
20
 10
32.7660
 20
36.7284
 30
0.0000
  0
SEQEND
  8
0
  0
POLYLINE
  8
20
 66
1
 10
0.0000
 20
0.0000
 30
0.0000
 40
0.4064
 41
0.4064
 70
0
  0
VERTEX
  8
20
 10
32.7660
 20
36.8300
 30
0.0000
  0
VERTEX
  8
20
 10
16.8100
 20
36.8300
 30
0.0000
  0
SEQEND
  8
0
  0
POLYLINE
  8
20
 66
1
 10
0.0000
 20
0.0000
 30
0.0000
 40
0.2032
 41
0.2032
 70
0
  0
VERTEX
  8
20
 10
16.8100
 20
36.9316
 30
0.0000
 42
1.0000
  0
VERTEX
  8
20
 10
16.8100
 20
36.7284
 30
0.0000
  0
SEQEND
  8
0
  0
POLYLINE
  8
20
 66
1
 10
0.0000
 20
0.0000
 30
0.0000
 40
0.2032
 41
0.2032
 70
0
  0
VERTEX
  8
20
 10
32.7660
 20
36.7284
 30
0.0000
 42
1.0000
  0
VERTEX
  8
20
 10
32.7660
 20
36.9316
 30
0.0000
  0
SEQEND
  8
0
  0
POLYLINE
  8
20
 66
1
 10
0.0000
 20
0.0000
 30
0.0000
 40
0.4064
 41
0.4064
 70
0
  0
VERTEX
  8
20
 10
10.3100
 20
36.8300
 30
0.0000
  0
VERTEX
  8
20
 10
5.0800
 20
36.8300
 30
0.0000
  0
SEQEND
  8
0
  0
POLYLINE
  8
20
 66
1
 10
0.0000
 20
0.0000
 30
0.0000
 40
0.2032
 41
0.2032
 70
0
  0
VERTEX
  8
20
 10
5.0800
 20
36.9316
 30
0.0000
 42
1.0000
  0
VERTEX
  8
20
 10
5.0800
 20
36.7284
 30
0.0000
  0
SEQEND
  8
0
  0
POLYLINE
  8
20
 66
1
 10
0.0000
 20
0.0000
 30
0.0000
 40
0.2032
 41
0.2032
 70
0
  0
VERTEX
  8
20
 10
10.3100
 20
36.7284
 30
0.0000
 42
1.0000
  0
VERTEX
  8
20
 10
10.3100
 20
36.9316
 30
0.0000
  0
SEQEND
  8
0
  0
POLYLINE
  8
20
 66
1
 10
0.0000
 20
0.0000
 30
0.0000
 40
0.4064
 41
0.4064
 70
0
  0
VERTEX
  8
20
 10
5.0800
 20
36.8300
 30
0.0000
 42
0.4142
  0
VERTEX
  8
20
 10
0.0000
 20
31.7500
 30
0.0000
  0
SEQEND
  8
0
  0
POLYLINE
  8
20
 66
1
 10
0.0000
 20
0.0000
 30
0.0000
 40
0.2032
 41
0.2032
 70
0
  0
VERTEX
  8
20
 10
5.0800
 20
36.7284
 30
0.0000
 42
1.0000
  0
VERTEX
  8
20
 10
5.0800
 20
36.9316
 30
0.0000
  0
SEQEND
  8
0
  0
POLYLINE
  8
20
 66
1
 10
0.0000
 20
0.0000
 30
0.0000
 40
0.2032
 41
0.2032
 70
0
  0
VERTEX
  8
20
 10
-0.1016
 20
31.7500
 30
0.0000
 42
1.0000
  0
VERTEX
  8
20
 10
0.1016
 20
31.7500
 30
0.0000
  0
SEQEND
  8
0
  0
POLYLINE
  8
20
 66
1
 10
0.0000
 20
0.0000
 30
0.0000
 40
0.4064
 41
0.4064
 70
0
  0
VERTEX
  8
20
 10
0.0000
 20
4.2140
 30
0.0000
 42
0.6565
  0
VERTEX
  8
20
 10
0.0000
 20
11.7300
 30
0.0000
  0
SEQEND
  8
0
  0
POLYLINE
  8
20
 66
1
 10
0.0000
 20
0.0000
 30
0.0000
 40
0.2032
 41
0.2032
 70
0
  0
VERTEX
  8
20
 10
-0.0404
 20
4.3072
 30
0.0000
 42
1.0000
  0
VERTEX
  8
20
 10
0.0404
 20
4.1208
 30
0.0000
  0
SEQEND
  8
0
  0
POLYLINE
  8
20
 66
1
 10
0.0000
 20
0.0000
 30
0.0000
 40
0.2032
 41
0.2032
 70
0
  0
VERTEX
  8
20
 10
0.0404
 20
11.8232
 30
0.0000
 42
1.0000
  0
VERTEX
  8
20
 10
-0.0404
 20
11.6368
 30
0.0000
  0
SEQEND
  8
0
  0
POLYLINE
  8
20
 66
1
 10
0.0000
 20
0.0000
 30
0.0000
 40
0.4064
 41
0.4064
 70
0
  0
VERTEX
  8
20
 10
11.4760
 20
0.0000
 30
0.0000
 42
0.6565
  0
VERTEX
  8
20
 10
3.9600
 20
0.0000
 30
0.0000
  0
SEQEND
  8
0
  0
POLYLINE
  8
20
 66
1
 10
0.0000
 20
0.0000
 30
0.0000
 40
0.2032
 41
0.2032
 70
0
  0
VERTEX
  8
20
 10
11.3828
 20
-0.0404
 30
0.0000
 42
1.0000
  0
VERTEX
  8
20
 10
11.5692
 20
0.0404
 30
0.0000
  0
SEQEND
  8
0
  0
POLYLINE
  8
20
 66
1
 10
0.0000
 20
0.0000
 30
0.0000
 40
0.2032
 41
0.2032
 70
0
  0
VERTEX
  8
20
 10
3.8668
 20
0.0404
 30
0.0000
 42
1.0000
  0
VERTEX
  8
20
 10
4.0532
 20
-0.0404
 30
0.0000
  0
SEQEND
  8
0
  0
POLYLINE
  8
20
 66
1
 10
0.0000
 20
0.0000
 30
0.0000
 40
0.4064
 41
0.4064
 70
0
  0
VERTEX
  8
20
 10
36.8300
 20
16.5560
 30
0.0000
 42
0.6565
  0
VERTEX
  8
20
 10
36.8300
 20
10.0560
 30
0.0000
  0
SEQEND
  8
0
  0
POLYLINE
  8
20
 66
1
 10
0.0000
 20
0.0000
 30
0.0000
 40
0.2032
 41
0.2032
 70
0
  0
VERTEX
  8
20
 10
36.8704
 20
16.4628
 30
0.0000
 42
1.0000
  0
VERTEX
  8
20
 10
36.7896
 20
16.6492
 30
0.0000
  0
SEQEND
  8
0
  0
POLYLINE
  8
20
 66
1
 10
0.0000
 20
0.0000
 30
0.0000
 40
0.2032
 41
0.2032
 70
0
  0
VERTEX
  8
20
 10
36.7896
 20
9.9628
 30
0.0000
 42
1.0000
  0
VERTEX
  8
20
 10
36.8704
 20
10.1492
 30
0.0000
  0
SEQEND
  8
0
  0
POLYLINE
  8
20
 66
1
 10
0.0000
 20
0.0000
 30
0.0000
 40
0.4064
 41
0.4064
 70
0
  0
VERTEX
  8
20
 10
10.3100
 20
36.8300
 30
0.0000
 42
0.6565
  0
VERTEX
  8
20
 10
16.8100
 20
36.8300
 30
0.0000
  0
SEQEND
  8
0
  0
POLYLINE
  8
20
 66
1
 10
0.0000
 20
0.0000
 30
0.0000
 40
0.2032
 41
0.2032
 70
0
  0
VERTEX
  8
20
 10
10.4032
 20
36.8704
 30
0.0000
 42
1.0000
  0
VERTEX
  8
20
 10
10.2168
 20
36.7896
 30
0.0000
  0
SEQEND
  8
0
  0
POLYLINE
  8
20
 66
1
 10
0.0000
 20
0.0000
 30
0.0000
 40
0.2032
 41
0.2032
 70
0
  0
VERTEX
  8
20
 10
16.9032
 20
36.7896
 30
0.0000
 42
1.0000
  0
VERTEX
  8
20
 10
16.7168
 20
36.8704
 30
0.0000
  0
SEQEND
  8
0
  0
CIRCLE
  8
20
 10
2.7940
 20
34.0360
 30
0.0000
 40
1.0160
  0
CIRCLE
  8
20
 10
34.0360
 20
2.7940
 30
0.0000
 40
1.0160
  0
CIRCLE
  8
20
 10
23.3680
 20
34.0360
 30
0.0000
 40
1.0160
  0
CIRCLE
  8
20
 10
2.5400
 20
2.7940
 30
0.0000
 40
1.0160
  0
CIRCLE
  8
20
 10
33.5280
 20
15.4940
 30
0.0000
 40
1.0160
  0
CIRCLE
  8
20
 10
4.8260
 20
33.4010
 30
0.0000
 40
0.5080
  0
CIRCLE
  8
20
 10
9.9060
 20
34.4170
 30
0.0000
 40
0.5080
  0
CIRCLE
  8
20
 10
9.9060
 20
32.3850
 30
0.0000
 40
0.5080
  0
POLYLINE
  8
16
 66
1
 10
0.0000
 20
0.0000
 30
0.0000
 40
1.7780
 41
1.7780
 70
0
  0
VERTEX
  8
16
 10
26.1620
 20
21.6662
 30
0.0000
 42
1.0000
  0
VERTEX
  8
16
 10
26.1620
 20
30.6578
 30
0.0000
 42
1.0000
  0
VERTEX
  8
16
 10
26.1620
 20
21.6662
 30
0.0000
  0
SEQEND
  8
0
  0
INSERT
  8
16
  2
PIE
 10
26.1620
 20
26.1620
 30
0.0000
 41
3.8100
 42
3.8100
 43
1.0000
 50
0.0000
  0
INSERT
  8
32
  2
PIE
 10
26.1620
 20
26.1620
 30
0.0000
 41
3.8100
 42
3.8100
 43
1.0000
 50
0.0000
  0
INSERT
  8
17
  2
ROUNDP
 10
26.1620
 20
26.1620
 30
0.0000
 41
0.8636
 42
0.8636
 43
1.0000
 50
180.0000
  0
INSERT
  8
16
  2
PIE
 10
21.0674
 20
24.6606
 30
0.0000
 41
0.6350
 42
0.6350
 43
1.0000
 50
0.0000
  0
POLYLINE
  8
16
 66
1
 10
0.0000
 20
0.0000
 30
0.0000
 40
1.7780
 41
1.7780
 70
0
  0
VERTEX
  8
16
 10
10.6680
 20
21.6662
 30
0.0000
 42
1.0000
  0
VERTEX
  8
16
 10
10.6680
 20
30.6578
 30
0.0000
 42
1.0000
  0
VERTEX
  8
16
 10
10.6680
 20
21.6662
 30
0.0000
  0
SEQEND
  8
0
  0
INSERT
  8
16
  2
PIE
 10
10.6680
 20
26.1620
 30
0.0000
 41
3.8100
 42
3.8100
 43
1.0000
 50
0.0000
  0
INSERT
  8
32
  2
PIE
 10
10.6680
 20
26.1620
 30
0.0000
 41
3.8100
 42
3.8100
 43
1.0000
 50
0.0000
  0
INSERT
  8
17
  2
ROUNDP
 10
10.6680
 20
26.1620
 30
0.0000
 41
0.8636
 42
0.8636
 43
1.0000
 50
270.0000
  0
INSERT
  8
16
  2
PIE
 10
12.1694
 20
21.0674
 30
0.0000
 41
0.6350
 42
0.6350
 43
1.0000
 50
0.0000
  0
POLYLINE
  8
16
 66
1
 10
0.0000
 20
0.0000
 30
0.0000
 40
1.7780
 41
1.7780
 70
0
  0
VERTEX
  8
16
 10
26.1620
 20
6.1722
 30
0.0000
 42
1.0000
  0
VERTEX
  8
16
 10
26.1620
 20
15.1638
 30
0.0000
 42
1.0000
  0
VERTEX
  8
16
 10
26.1620
 20
6.1722
 30
0.0000
  0
SEQEND
  8
0
  0
INSERT
  8
16
  2
PIE
 10
26.1620
 20
10.6680
 30
0.0000
 41
3.8100
 42
3.8100
 43
1.0000
 50
0.0000
  0
INSERT
  8
32
  2
PIE
 10
26.1620
 20
10.6680
 30
0.0000
 41
3.8100
 42
3.8100
 43
1.0000
 50
0.0000
  0
INSERT
  8
17
  2
ROUNDP
 10
26.1620
 20
10.6680
 30
0.0000
 41
0.8636
 42
0.8636
 43
1.0000
 50
90.0000
  0
INSERT
  8
16
  2
PIE
 10
24.6606
 20
15.7626
 30
0.0000
 41
0.6350
 42
0.6350
 43
1.0000
 50
0.0000
  0
POLYLINE
  8
16
 66
1
 10
0.0000
 20
0.0000
 30
0.0000
 40
1.7780
 41
1.7780
 70
0
  0
VERTEX
  8
16
 10
10.6680
 20
6.1722
 30
0.0000
 42
1.0000
  0
VERTEX
  8
16
 10
10.6680
 20
15.1638
 30
0.0000
 42
1.0000
  0
VERTEX
  8
16
 10
10.6680
 20
6.1722
 30
0.0000
  0
SEQEND
  8
0
  0
INSERT
  8
16
  2
PIE
 10
10.6680
 20
10.6680
 30
0.0000
 41
3.8100
 42
3.8100
 43
1.0000
 50
0.0000
  0
INSERT
  8
32
  2
PIE
 10
10.6680
 20
10.6680
 30
0.0000
 41
3.8100
 42
3.8100
 43
1.0000
 50
0.0000
  0
INSERT
  8
17
  2
ROUNDP
 10
10.6680
 20
10.6680
 30
0.0000
 41
0.8636
 42
0.8636
 43
1.0000
 50
0.0000
  0
INSERT
  8
16
  2
PIE
 10
15.7626
 20
12.1694
 30
0.0000
 41
0.6350
 42
0.6350
 43
1.0000
 50
0.0000
  0
POLYLINE
  8
16
 66
1
 10
0.0000
 20
0.0000
 30
0.0000
 40
0.5080
 41
0.5080
 70
0
  0
VERTEX
  8
16
 10
18.0340
 20
28.7020
 30
0.0000
  0
VERTEX
  8
16
 10
18.0340
 20
25.1460
 30
0.0000
  0
SEQEND
  8
0
  0
POLYLINE
  8
16
 66
1
 10
0.0000
 20
0.0000
 30
0.0000
 40
0.2540
 41
0.2540
 70
0
  0
VERTEX
  8
16
 10
17.9070
 20
25.1460
 30
0.0000
 42
1.0000
  0
VERTEX
  8
16
 10
18.1610
 20
25.1460
 30
0.0000
  0
SEQEND
  8
0
  0
POLYLINE
  8
16
 66
1
 10
0.0000
 20
0.0000
 30
0.0000
 40
0.2540
 41
0.2540
 70
0
  0
VERTEX
  8
16
 10
18.1610
 20
28.7020
 30
0.0000
 42
1.0000
  0
VERTEX
  8
16
 10
17.9070
 20
28.7020
 30
0.0000
  0
SEQEND
  8
0
  0
POLYLINE
  8
16
 66
1
 10
0.0000
 20
0.0000
 30
0.0000
 40
0.5080
 41
0.5080
 70
0
  0
VERTEX
  8
16
 10
18.0340
 20
25.1460
 30
0.0000
  0
VERTEX
  8
16
 10
17.2720
 20
24.1300
 30
0.0000
  0
SEQEND
  8
0
  0
POLYLINE
  8
16
 66
1
 10
0.0000
 20
0.0000
 30
0.0000
 40
0.2540
 41
0.2540
 70
0
  0
VERTEX
  8
16
 10
17.1704
 20
24.2062
 30
0.0000
 42
1.0000
  0
VERTEX
  8
16
 10
17.3736
 20
24.0538
 30
0.0000
  0
SEQEND
  8
0
  0
POLYLINE
  8
16
 66
1
 10
0.0000
 20
0.0000
 30
0.0000
 40
0.2540
 41
0.2540
 70
0
  0
VERTEX
  8
16
 10
18.1356
 20
25.0698
 30
0.0000
 42
1.0000
  0
VERTEX
  8
16
 10
17.9324
 20
25.2222
 30
0.0000
  0
SEQEND
  8
0
  0
POLYLINE
  8
16
 66
1
 10
0.0000
 20
0.0000
 30
0.0000
 40
0.5080
 41
0.5080
 70
0
  0
VERTEX
  8
16
 10
20.4470
 20
31.2420
 30
0.0000
  0
VERTEX
  8
16
 10
18.0340
 20
28.7020
 30
0.0000
  0
SEQEND
  8
0
  0
POLYLINE
  8
16
 66
1
 10
0.0000
 20
0.0000
 30
0.0000
 40
0.2540
 41
0.2540
 70
0
  0
VERTEX
  8
16
 10
17.9419
 20
28.7895
 30
0.0000
 42
1.0000
  0
VERTEX
  8
16
 10
18.1261
 20
28.6145
 30
0.0000
  0
SEQEND
  8
0
  0
POLYLINE
  8
16
 66
1
 10
0.0000
 20
0.0000
 30
0.0000
 40
0.2540
 41
0.2540
 70
0
  0
VERTEX
  8
16
 10
20.5391
 20
31.1545
 30
0.0000
 42
1.0000
  0
VERTEX
  8
16
 10
20.3549
 20
31.3295
 30
0.0000
  0
SEQEND
  8
0
  0
POLYLINE
  8
16
 66
1
 10
0.0000
 20
0.0000
 30
0.0000
 40
0.5080
 41
0.5080
 70
0
  0
VERTEX
  8
16
 10
4.3180
 20
21.7170
 30
0.0000
  0
VERTEX
  8
16
 10
6.3500
 20
19.6850
 30
0.0000
  0
SEQEND
  8
0
  0
POLYLINE
  8
16
 66
1
 10
0.0000
 20
0.0000
 30
0.0000
 40
0.2540
 41
0.2540
 70
0
  0
VERTEX
  8
16
 10
6.2602
 20
19.5952
 30
0.0000
 42
1.0000
  0
VERTEX
  8
16
 10
6.4398
 20
19.7748
 30
0.0000
  0
SEQEND
  8
0
  0
POLYLINE
  8
16
 66
1
 10
0.0000
 20
0.0000
 30
0.0000
 40
0.2540
 41
0.2540
 70
0
  0
VERTEX
  8
16
 10
4.4078
 20
21.8068
 30
0.0000
 42
1.0000
  0
VERTEX
  8
16
 10
4.2282
 20
21.6272
 30
0.0000
  0
SEQEND
  8
0
  0
POLYLINE
  8
16
 66
1
 10
0.0000
 20
0.0000
 30
0.0000
 40
0.5080
 41
0.5080
 70
0
  0
VERTEX
  8
16
 10
6.3500
 20
19.6850
 30
0.0000
  0
VERTEX
  8
16
 10
15.7480
 20
19.6850
 30
0.0000
  0
SEQEND
  8
0
  0
POLYLINE
  8
16
 66
1
 10
0.0000
 20
0.0000
 30
0.0000
 40
0.2540
 41
0.2540
 70
0
  0
VERTEX
  8
16
 10
15.7480
 20
19.5580
 30
0.0000
 42
1.0000
  0
VERTEX
  8
16
 10
15.7480
 20
19.8120
 30
0.0000
  0
SEQEND
  8
0
  0
POLYLINE
  8
16
 66
1
 10
0.0000
 20
0.0000
 30
0.0000
 40
0.2540
 41
0.2540
 70
0
  0
VERTEX
  8
16
 10
6.3500
 20
19.8120
 30
0.0000
 42
1.0000
  0
VERTEX
  8
16
 10
6.3500
 20
19.5580
 30
0.0000
  0
SEQEND
  8
0
  0
POLYLINE
  8
16
 66
1
 10
0.0000
 20
0.0000
 30
0.0000
 40
0.5080
 41
0.5080
 70
0
  0
VERTEX
  8
16
 10
15.7480
 20
19.6850
 30
0.0000
  0
VERTEX
  8
16
 10
16.6370
 20
20.5740
 30
0.0000
  0
SEQEND
  8
0
  0
POLYLINE
  8
16
 66
1
 10
0.0000
 20
0.0000
 30
0.0000
 40
0.2540
 41
0.2540
 70
0
  0
VERTEX
  8
16
 10
16.7268
 20
20.4842
 30
0.0000
 42
1.0000
  0
VERTEX
  8
16
 10
16.5472
 20
20.6638
 30
0.0000
  0
SEQEND
  8
0
  0
POLYLINE
  8
16
 66
1
 10
0.0000
 20
0.0000
 30
0.0000
 40
0.2540
 41
0.2540
 70
0
  0
VERTEX
  8
16
 10
15.6582
 20
19.7748
 30
0.0000
 42
1.0000
  0
VERTEX
  8
16
 10
15.8378
 20
19.5952
 30
0.0000
  0
SEQEND
  8
0
  0
POLYLINE
  8
16
 66
1
 10
0.0000
 20
0.0000
 30
0.0000
 40
0.5080
 41
0.5080
 70
0
  0
VERTEX
  8
16
 10
4.3180
 20
21.7170
 30
0.0000
  0
VERTEX
  8
16
 10
4.3180
 20
29.9720
 30
0.0000
  0
SEQEND
  8
0
  0
POLYLINE
  8
16
 66
1
 10
0.0000
 20
0.0000
 30
0.0000
 40
0.2540
 41
0.2540
 70
0
  0
VERTEX
  8
16
 10
4.4450
 20
29.9720
 30
0.0000
 42
1.0000
  0
VERTEX
  8
16
 10
4.1910
 20
29.9720
 30
0.0000
  0
SEQEND
  8
0
  0
POLYLINE
  8
16
 66
1
 10
0.0000
 20
0.0000
 30
0.0000
 40
0.2540
 41
0.2540
 70
0
  0
VERTEX
  8
16
 10
4.1910
 20
21.7170
 30
0.0000
 42
1.0000
  0
VERTEX
  8
16
 10
4.4450
 20
21.7170
 30
0.0000
  0
SEQEND
  8
0
  0
POLYLINE
  8
16
 66
1
 10
0.0000
 20
0.0000
 30
0.0000
 40
0.5080
 41
0.5080
 70
0
  0
VERTEX
  8
16
 10
4.3180
 20
29.9720
 30
0.0000
  0
VERTEX
  8
16
 10
5.8420
 20
31.4960
 30
0.0000
  0
SEQEND
  8
0
  0
POLYLINE
  8
16
 66
1
 10
0.0000
 20
0.0000
 30
0.0000
 40
0.2540
 41
0.2540
 70
0
  0
VERTEX
  8
16
 10
5.9318
 20
31.4062
 30
0.0000
 42
1.0000
  0
VERTEX
  8
16
 10
5.7522
 20
31.5858
 30
0.0000
  0
SEQEND
  8
0
  0
POLYLINE
  8
16
 66
1
 10
0.0000
 20
0.0000
 30
0.0000
 40
0.2540
 41
0.2540
 70
0
  0
VERTEX
  8
16
 10
4.2282
 20
30.0618
 30
0.0000
 42
1.0000
  0
VERTEX
  8
16
 10
4.4078
 20
29.8822
 30
0.0000
  0
SEQEND
  8
0
  0
POLYLINE
  8
16
 66
1
 10
0.0000
 20
0.0000
 30
0.0000
 40
0.5080
 41
0.5080
 70
0
  0
VERTEX
  8
16
 10
16.6370
 20
20.5740
 30
0.0000
  0
VERTEX
  8
16
 10
16.6370
 20
23.2410
 30
0.0000
  0
SEQEND
  8
0
  0
POLYLINE
  8
16
 66
1
 10
0.0000
 20
0.0000
 30
0.0000
 40
0.2540
 41
0.2540
 70
0
  0
VERTEX
  8
16
 10
16.7640
 20
23.2410
 30
0.0000
 42
1.0000
  0
VERTEX
  8
16
 10
16.5100
 20
23.2410
 30
0.0000
  0
SEQEND
  8
0
  0
POLYLINE
  8
16
 66
1
 10
0.0000
 20
0.0000
 30
0.0000
 40
0.2540
 41
0.2540
 70
0
  0
VERTEX
  8
16
 10
16.5100
 20
20.5740
 30
0.0000
 42
1.0000
  0
VERTEX
  8
16
 10
16.7640
 20
20.5740
 30
0.0000
  0
SEQEND
  8
0
  0
POLYLINE
  8
16
 66
1
 10
0.0000
 20
0.0000
 30
0.0000
 40
0.5080
 41
0.5080
 70
0
  0
VERTEX
  8
16
 10
16.6370
 20
23.2410
 30
0.0000
  0
VERTEX
  8
16
 10
17.2720
 20
24.1300
 30
0.0000
  0
SEQEND
  8
0
  0
POLYLINE
  8
16
 66
1
 10
0.0000
 20
0.0000
 30
0.0000
 40
0.2540
 41
0.2540
 70
0
  0
VERTEX
  8
16
 10
17.3753
 20
24.0562
 30
0.0000
 42
1.0000
  0
VERTEX
  8
16
 10
17.1687
 20
24.2038
 30
0.0000
  0
SEQEND
  8
0
  0
POLYLINE
  8
16
 66
1
 10
0.0000
 20
0.0000
 30
0.0000
 40
0.2540
 41
0.2540
 70
0
  0
VERTEX
  8
16
 10
16.5337
 20
23.3148
 30
0.0000
 42
1.0000
  0
VERTEX
  8
16
 10
16.7403
 20
23.1672
 30
0.0000
  0
SEQEND
  8
0
  0
POLYLINE
  8
16
 66
1
 10
0.0000
 20
0.0000
 30
0.0000
 40
0.2540
 41
0.2540
 70
0
  0
VERTEX
  8
16
 10
29.7180
 20
31.2420
 30
0.0000
  0
VERTEX
  8
16
 10
29.7180
 20
32.0040
 30
0.0000
  0
SEQEND
  8
0
  0
POLYLINE
  8
16
 66
1
 10
0.0000
 20
0.0000
 30
0.0000
 40
0.1270
 41
0.1270
 70
0
  0
VERTEX
  8
16
 10
29.7815
 20
32.0040
 30
0.0000
 42
1.0000
  0
VERTEX
  8
16
 10
29.6545
 20
32.0040
 30
0.0000
  0
SEQEND
  8
0
  0
POLYLINE
  8
16
 66
1
 10
0.0000
 20
0.0000
 30
0.0000
 40
0.1270
 41
0.1270
 70
0
  0
VERTEX
  8
16
 10
29.6545
 20
31.2420
 30
0.0000
 42
1.0000
  0
VERTEX
  8
16
 10
29.7815
 20
31.2420
 30
0.0000
  0
SEQEND
  8
0
  0
POLYLINE
  8
16
 66
1
 10
0.0000
 20
0.0000
 30
0.0000
 40
0.2540
 41
0.2540
 70
0
  0
VERTEX
  8
16
 10
29.7180
 20
32.0040
 30
0.0000
  0
VERTEX
  8
16
 10
29.2100
 20
32.5120
 30
0.0000
  0
SEQEND
  8
0
  0
POLYLINE
  8
16
 66
1
 10
0.0000
 20
0.0000
 30
0.0000
 40
0.1270
 41
0.1270
 70
0
  0
VERTEX
  8
16
 10
29.2549
 20
32.5569
 30
0.0000
 42
1.0000
  0
VERTEX
  8
16
 10
29.1651
 20
32.4671
 30
0.0000
  0
SEQEND
  8
0
  0
POLYLINE
  8
16
 66
1
 10
0.0000
 20
0.0000
 30
0.0000
 40
0.1270
 41
0.1270
 70
0
  0
VERTEX
  8
16
 10
29.6731
 20
31.9591
 30
0.0000
 42
1.0000
  0
VERTEX
  8
16
 10
29.7629
 20
32.0489
 30
0.0000
  0
SEQEND
  8
0
  0
POLYLINE
  8
16
 66
1
 10
0.0000
 20
0.0000
 30
0.0000
 40
0.2540
 41
0.2540
 70
0
  0
VERTEX
  8
16
 10
29.2100
 20
32.5120
 30
0.0000
  0
VERTEX
  8
16
 10
17.7800
 20
32.5120
 30
0.0000
  0
SEQEND
  8
0
  0
POLYLINE
  8
16
 66
1
 10
0.0000
 20
0.0000
 30
0.0000
 40
0.1270
 41
0.1270
 70
0
  0
VERTEX
  8
16
 10
17.7800
 20
32.5755
 30
0.0000
 42
1.0000
  0
VERTEX
  8
16
 10
17.7800
 20
32.4485
 30
0.0000
  0
SEQEND
  8
0
  0
POLYLINE
  8
16
 66
1
 10
0.0000
 20
0.0000
 30
0.0000
 40
0.1270
 41
0.1270
 70
0
  0
VERTEX
  8
16
 10
29.2100
 20
32.4485
 30
0.0000
 42
1.0000
  0
VERTEX
  8
16
 10
29.2100
 20
32.5755
 30
0.0000
  0
SEQEND
  8
0
  0
POLYLINE
  8
16
 66
1
 10
0.0000
 20
0.0000
 30
0.0000
 40
0.2540
 41
0.2540
 70
0
  0
VERTEX
  8
16
 10
17.7800
 20
32.5120
 30
0.0000
  0
VERTEX
  8
16
 10
16.3830
 20
33.9090
 30
0.0000
  0
SEQEND
  8
0
  0
POLYLINE
  8
16
 66
1
 10
0.0000
 20
0.0000
 30
0.0000
 40
0.1270
 41
0.1270
 70
0
  0
VERTEX
  8
16
 10
16.4279
 20
33.9539
 30
0.0000
 42
1.0000
  0
VERTEX
  8
16
 10
16.3381
 20
33.8641
 30
0.0000
  0
SEQEND
  8
0
  0
POLYLINE
  8
16
 66
1
 10
0.0000
 20
0.0000
 30
0.0000
 40
0.1270
 41
0.1270
 70
0
  0
VERTEX
  8
16
 10
17.7351
 20
32.4671
 30
0.0000
 42
1.0000
  0
VERTEX
  8
16
 10
17.8249
 20
32.5569
 30
0.0000
  0
SEQEND
  8
0
  0
POLYLINE
  8
16
 66
1
 10
0.0000
 20
0.0000
 30
0.0000
 40
0.2540
 41
0.2540
 70
0
  0
VERTEX
  8
16
 10
16.3830
 20
33.9090
 30
0.0000
  0
VERTEX
  8
16
 10
11.8110
 20
33.9090
 30
0.0000
  0
SEQEND
  8
0
  0
POLYLINE
  8
16
 66
1
 10
0.0000
 20
0.0000
 30
0.0000
 40
0.1270
 41
0.1270
 70
0
  0
VERTEX
  8
16
 10
11.8110
 20
33.9725
 30
0.0000
 42
1.0000
  0
VERTEX
  8
16
 10
11.8110
 20
33.8455
 30
0.0000
  0
SEQEND
  8
0
  0
POLYLINE
  8
16
 66
1
 10
0.0000
 20
0.0000
 30
0.0000
 40
0.1270
 41
0.1270
 70
0
  0
VERTEX
  8
16
 10
16.3830
 20
33.8455
 30
0.0000
 42
1.0000
  0
VERTEX
  8
16
 10
16.3830
 20
33.9725
 30
0.0000
  0
SEQEND
  8
0
  0
POLYLINE
  8
16
 66
1
 10
0.0000
 20
0.0000
 30
0.0000
 40
0.1900
 41
0.1900
 70
0
  0
VERTEX
  8
16
 10
11.8110
 20
33.9090
 30
0.0000
  0
VERTEX
  8
16
 10
10.0330
 20
35.6870
 30
0.0000
  0
SEQEND
  8
0
  0
POLYLINE
  8
16
 66
1
 10
0.0000
 20
0.0000
 30
0.0000
 40
0.0950
 41
0.0950
 70
0
  0
VERTEX
  8
16
 10
10.0666
 20
35.7206
 30
0.0000
 42
1.0000
  0
VERTEX
  8
16
 10
9.9994
 20
35.6534
 30
0.0000
  0
SEQEND
  8
0
  0
POLYLINE
  8
16
 66
1
 10
0.0000
 20
0.0000
 30
0.0000
 40
0.0950
 41
0.0950
 70
0
  0
VERTEX
  8
16
 10
11.7774
 20
33.8754
 30
0.0000
 42
1.0000
  0
VERTEX
  8
16
 10
11.8446
 20
33.9426
 30
0.0000
  0
SEQEND
  8
0
  0
POLYLINE
  8
16
 66
1
 10
0.0000
 20
0.0000
 30
0.0000
 40
0.2540
 41
0.2540
 70
0
  0
VERTEX
  8
16
 10
10.0330
 20
35.6870
 30
0.0000
  0
VERTEX
  8
16
 10
9.3980
 20
35.8140
 30
0.0000
  0
SEQEND
  8
0
  0
POLYLINE
  8
16
 66
1
 10
0.0000
 20
0.0000
 30
0.0000
 40
0.1270
 41
0.1270
 70
0
  0
VERTEX
  8
16
 10
9.4105
 20
35.8763
 30
0.0000
 42
1.0000
  0
VERTEX
  8
16
 10
9.3855
 20
35.7517
 30
0.0000
  0
SEQEND
  8
0
  0
POLYLINE
  8
16
 66
1
 10
0.0000
 20
0.0000
 30
0.0000
 40
0.1270
 41
0.1270
 70
0
  0
VERTEX
  8
16
 10
10.0205
 20
35.6247
 30
0.0000
 42
1.0000
  0
VERTEX
  8
16
 10
10.0455
 20
35.7493
 30
0.0000
  0
SEQEND
  8
0
  0
POLYLINE
  8
16
 66
1
 10
0.0000
 20
0.0000
 30
0.0000
 40
0.2540
 41
0.2540
 70
0
  0
VERTEX
  8
16
 10
28.9560
 20
31.7500
 30
0.0000
  0
VERTEX
  8
16
 10
28.7020
 20
32.0040
 30
0.0000
  0
SEQEND
  8
0
  0
POLYLINE
  8
16
 66
1
 10
0.0000
 20
0.0000
 30
0.0000
 40
0.1270
 41
0.1270
 70
0
  0
VERTEX
  8
16
 10
28.7469
 20
32.0489
 30
0.0000
 42
1.0000
  0
VERTEX
  8
16
 10
28.6571
 20
31.9591
 30
0.0000
  0
SEQEND
  8
0
  0
POLYLINE
  8
16
 66
1
 10
0.0000
 20
0.0000
 30
0.0000
 40
0.1270
 41
0.1270
 70
0
  0
VERTEX
  8
16
 10
28.9111
 20
31.7051
 30
0.0000
 42
1.0000
  0
VERTEX
  8
16
 10
29.0009
 20
31.7949
 30
0.0000
  0
SEQEND
  8
0
  0
POLYLINE
  8
16
 66
1
 10
0.0000
 20
0.0000
 30
0.0000
 40
0.2540
 41
0.2540
 70
0
  0
VERTEX
  8
16
 10
28.7020
 20
32.0040
 30
0.0000
  0
VERTEX
  8
16
 10
15.4940
 20
32.0040
 30
0.0000
  0
SEQEND
  8
0
  0
POLYLINE
  8
16
 66
1
 10
0.0000
 20
0.0000
 30
0.0000
 40
0.1270
 41
0.1270
 70
0
  0
VERTEX
  8
16
 10
15.4940
 20
32.0675
 30
0.0000
 42
1.0000
  0
VERTEX
  8
16
 10
15.4940
 20
31.9405
 30
0.0000
  0
SEQEND
  8
0
  0
POLYLINE
  8
16
 66
1
 10
0.0000
 20
0.0000
 30
0.0000
 40
0.1270
 41
0.1270
 70
0
  0
VERTEX
  8
16
 10
28.7020
 20
31.9405
 30
0.0000
 42
1.0000
  0
VERTEX
  8
16
 10
28.7020
 20
32.0675
 30
0.0000
  0
SEQEND
  8
0
  0
POLYLINE
  8
16
 66
1
 10
0.0000
 20
0.0000
 30
0.0000
 40
0.2540
 41
0.2540
 70
0
  0
VERTEX
  8
16
 10
15.4940
 20
32.0040
 30
0.0000
  0
VERTEX
  8
16
 10
14.0970
 20
33.4010
 30
0.0000
  0
SEQEND
  8
0
  0
POLYLINE
  8
16
 66
1
 10
0.0000
 20
0.0000
 30
0.0000
 40
0.1270
 41
0.1270
 70
0
  0
VERTEX
  8
16
 10
14.1419
 20
33.4459
 30
0.0000
 42
1.0000
  0
VERTEX
  8
16
 10
14.0521
 20
33.3561
 30
0.0000
  0
SEQEND
  8
0
  0
POLYLINE
  8
16
 66
1
 10
0.0000
 20
0.0000
 30
0.0000
 40
0.1270
 41
0.1270
 70
0
  0
VERTEX
  8
16
 10
15.4491
 20
31.9591
 30
0.0000
 42
1.0000
  0
VERTEX
  8
16
 10
15.5389
 20
32.0489
 30
0.0000
  0
SEQEND
  8
0
  0
POLYLINE
  8
16
 66
1
 10
0.0000
 20
0.0000
 30
0.0000
 40
0.2540
 41
0.2540
 70
0
  0
VERTEX
  8
16
 10
14.0970
 20
33.4010
 30
0.0000
  0
VERTEX
  8
16
 10
8.0010
 20
33.4010
 30
0.0000
  0
SEQEND
  8
0
  0
POLYLINE
  8
16
 66
1
 10
0.0000
 20
0.0000
 30
0.0000
 40
0.1270
 41
0.1270
 70
0
  0
VERTEX
  8
16
 10
8.0010
 20
33.4645
 30
0.0000
 42
1.0000
  0
VERTEX
  8
16
 10
8.0010
 20
33.3375
 30
0.0000
  0
SEQEND
  8
0
  0
POLYLINE
  8
16
 66
1
 10
0.0000
 20
0.0000
 30
0.0000
 40
0.1270
 41
0.1270
 70
0
  0
VERTEX
  8
16
 10
14.0970
 20
33.3375
 30
0.0000
 42
1.0000
  0
VERTEX
  8
16
 10
14.0970
 20
33.4645
 30
0.0000
  0
SEQEND
  8
0
  0
POLYLINE
  8
16
 66
1
 10
0.0000
 20
0.0000
 30
0.0000
 40
0.2540
 41
0.2540
 70
0
  0
VERTEX
  8
16
 10
8.0010
 20
33.4010
 30
0.0000
  0
VERTEX
  8
16
 10
6.6040
 20
35.8140
 30
0.0000
  0
SEQEND
  8
0
  0
POLYLINE
  8
16
 66
1
 10
0.0000
 20
0.0000
 30
0.0000
 40
0.1270
 41
0.1270
 70
0
  0
VERTEX
  8
16
 10
6.6590
 20
35.8458
 30
0.0000
 42
1.0000
  0
VERTEX
  8
16
 10
6.5490
 20
35.7822
 30
0.0000
  0
SEQEND
  8
0
  0
POLYLINE
  8
16
 66
1
 10
0.0000
 20
0.0000
 30
0.0000
 40
0.1270
 41
0.1270
 70
0
  0
VERTEX
  8
16
 10
7.9460
 20
33.3692
 30
0.0000
 42
1.0000
  0
VERTEX
  8
16
 10
8.0560
 20
33.4328
 30
0.0000
  0
SEQEND
  8
0
  0
POLYLINE
  8
16
 66
1
 10
0.0000
 20
0.0000
 30
0.0000
 40
0.5080
 41
0.5080
 70
0
  0
VERTEX
  8
16
 10
-1.0160
 20
-0.7620
 30
0.0000
  0
VERTEX
  8
16
 10
37.5920
 20
-0.7620
 30
0.0000
  0
SEQEND
  8
0
  0
POLYLINE
  8
16
 66
1
 10
0.0000
 20
0.0000
 30
0.0000
 40
0.2540
 41
0.2540
 70
0
  0
VERTEX
  8
16
 10
37.5920
 20
-0.8890
 30
0.0000
 42
1.0000
  0
VERTEX
  8
16
 10
37.5920
 20
-0.6350
 30
0.0000
  0
SEQEND
  8
0
  0
POLYLINE
  8
16
 66
1
 10
0.0000
 20
0.0000
 30
0.0000
 40
0.2540
 41
0.2540
 70
0
  0
VERTEX
  8
16
 10
-1.0160
 20
-0.6350
 30
0.0000
 42
1.0000
  0
VERTEX
  8
16
 10
-1.0160
 20
-0.8890
 30
0.0000
  0
SEQEND
  8
0
  0
POLYLINE
  8
16
 66
1
 10
0.0000
 20
0.0000
 30
0.0000
 40
0.5080
 41
0.5080
 70
0
  0
VERTEX
  8
16
 10
37.5920
 20
-0.7620
 30
0.0000
  0
VERTEX
  8
16
 10
37.5920
 20
25.4000
 30
0.0000
  0
SEQEND
  8
0
  0
POLYLINE
  8
16
 66
1
 10
0.0000
 20
0.0000
 30
0.0000
 40
0.2540
 41
0.2540
 70
0
  0
VERTEX
  8
16
 10
37.7190
 20
25.4000
 30
0.0000
 42
1.0000
  0
VERTEX
  8
16
 10
37.4650
 20
25.4000
 30
0.0000
  0
SEQEND
  8
0
  0
POLYLINE
  8
16
 66
1
 10
0.0000
 20
0.0000
 30
0.0000
 40
0.2540
 41
0.2540
 70
0
  0
VERTEX
  8
16
 10
37.4650
 20
-0.7620
 30
0.0000
 42
1.0000
  0
VERTEX
  8
16
 10
37.7190
 20
-0.7620
 30
0.0000
  0
SEQEND
  8
0
  0
POLYLINE
  8
16
 66
1
 10
0.0000
 20
0.0000
 30
0.0000
 40
0.5080
 41
0.5080
 70
0
  0
VERTEX
  8
16
 10
37.5920
 20
25.4000
 30
0.0000
  0
VERTEX
  8
16
 10
24.8920
 20
37.8460
 30
0.0000
  0
SEQEND
  8
0
  0
POLYLINE
  8
16
 66
1
 10
0.0000
 20
0.0000
 30
0.0000
 40
0.2540
 41
0.2540
 70
0
  0
VERTEX
  8
16
 10
24.9809
 20
37.9367
 30
0.0000
 42
1.0000
  0
VERTEX
  8
16
 10
24.8031
 20
37.7553
 30
0.0000
  0
SEQEND
  8
0
  0
POLYLINE
  8
16
 66
1
 10
0.0000
 20
0.0000
 30
0.0000
 40
0.2540
 41
0.2540
 70
0
  0
VERTEX
  8
16
 10
37.5031
 20
25.3093
 30
0.0000
 42
1.0000
  0
VERTEX
  8
16
 10
37.6809
 20
25.4907
 30
0.0000
  0
SEQEND
  8
0
  0
POLYLINE
  8
16
 66
1
 10
0.0000
 20
0.0000
 30
0.0000
 40
0.5080
 41
0.5080
 70
0
  0
VERTEX
  8
16
 10
24.8920
 20
37.8460
 30
0.0000
  0
VERTEX
  8
16
 10
-1.0160
 20
37.8460
 30
0.0000
  0
SEQEND
  8
0
  0
POLYLINE
  8
16
 66
1
 10
0.0000
 20
0.0000
 30
0.0000
 40
0.2540
 41
0.2540
 70
0
  0
VERTEX
  8
16
 10
-1.0160
 20
37.9730
 30
0.0000
 42
1.0000
  0
VERTEX
  8
16
 10
-1.0160
 20
37.7190
 30
0.0000
  0
SEQEND
  8
0
  0
POLYLINE
  8
16
 66
1
 10
0.0000
 20
0.0000
 30
0.0000
 40
0.2540
 41
0.2540
 70
0
  0
VERTEX
  8
16
 10
24.8920
 20
37.7190
 30
0.0000
 42
1.0000
  0
VERTEX
  8
16
 10
24.8920
 20
37.9730
 30
0.0000
  0
SEQEND
  8
0
  0
POLYLINE
  8
16
 66
1
 10
0.0000
 20
0.0000
 30
0.0000
 40
0.5080
 41
0.5080
 70
0
  0
VERTEX
  8
16
 10
-1.0160
 20
37.8460
 30
0.0000
  0
VERTEX
  8
16
 10
-1.0160
 20
-0.7620
 30
0.0000
  0
SEQEND
  8
0
  0
POLYLINE
  8
16
 66
1
 10
0.0000
 20
0.0000
 30
0.0000
 40
0.2540
 41
0.2540
 70
0
  0
VERTEX
  8
16
 10
-1.1430
 20
-0.7620
 30
0.0000
 42
1.0000
  0
VERTEX
  8
16
 10
-0.8890
 20
-0.7620
 30
0.0000
  0
SEQEND
  8
0
  0
POLYLINE
  8
16
 66
1
 10
0.0000
 20
0.0000
 30
0.0000
 40
0.2540
 41
0.2540
 70
0
  0
VERTEX
  8
16
 10
-0.8890
 20
37.8460
 30
0.0000
 42
1.0000
  0
VERTEX
  8
16
 10
-1.1430
 20
37.8460
 30
0.0000
  0
SEQEND
  8
0
  0
POLYLINE
  8
16
 66
1
 10
0.0000
 20
0.0000
 30
0.0000
 40
0.5080
 41
0.5080
 70
0
  0
VERTEX
  8
16
 10
26.4160
 20
33.5280
 30
0.0000
  0
VERTEX
  8
16
 10
26.4160
 20
34.5440
 30
0.0000
  0
SEQEND
  8
0
  0
POLYLINE
  8
16
 66
1
 10
0.0000
 20
0.0000
 30
0.0000
 40
0.2540
 41
0.2540
 70
0
  0
VERTEX
  8
16
 10
26.5430
 20
34.5440
 30
0.0000
 42
1.0000
  0
VERTEX
  8
16
 10
26.2890
 20
34.5440
 30
0.0000
  0
SEQEND
  8
0
  0
POLYLINE
  8
16
 66
1
 10
0.0000
 20
0.0000
 30
0.0000
 40
0.2540
 41
0.2540
 70
0
  0
VERTEX
  8
16
 10
26.2890
 20
33.5280
 30
0.0000
 42
1.0000
  0
VERTEX
  8
16
 10
26.5430
 20
33.5280
 30
0.0000
  0
SEQEND
  8
0
  0
POLYLINE
  8
16
 66
1
 10
0.0000
 20
0.0000
 30
0.0000
 40
0.5080
 41
0.5080
 70
0
  0
VERTEX
  8
16
 10
26.4160
 20
34.5440
 30
0.0000
  0
VERTEX
  8
16
 10
25.1460
 20
35.8140
 30
0.0000
  0
SEQEND
  8
0
  0
POLYLINE
  8
16
 66
1
 10
0.0000
 20
0.0000
 30
0.0000
 40
0.2540
 41
0.2540
 70
0
  0
VERTEX
  8
16
 10
25.2358
 20
35.9038
 30
0.0000
 42
1.0000
  0
VERTEX
  8
16
 10
25.0562
 20
35.7242
 30
0.0000
  0
SEQEND
  8
0
  0
POLYLINE
  8
16
 66
1
 10
0.0000
 20
0.0000
 30
0.0000
 40
0.2540
 41
0.2540
 70
0
  0
VERTEX
  8
16
 10
26.3262
 20
34.4542
 30
0.0000
 42
1.0000
  0
VERTEX
  8
16
 10
26.5058
 20
34.6338
 30
0.0000
  0
SEQEND
  8
0
  0
POLYLINE
  8
16
 66
1
 10
0.0000
 20
0.0000
 30
0.0000
 40
0.5080
 41
0.5080
 70
0
  0
VERTEX
  8
16
 10
25.1460
 20
35.8140
 30
0.0000
  0
VERTEX
  8
16
 10
20.8280
 20
35.8140
 30
0.0000
  0
SEQEND
  8
0
  0
POLYLINE
  8
16
 66
1
 10
0.0000
 20
0.0000
 30
0.0000
 40
0.2540
 41
0.2540
 70
0
  0
VERTEX
  8
16
 10
20.8280
 20
35.9410
 30
0.0000
 42
1.0000
  0
VERTEX
  8
16
 10
20.8280
 20
35.6870
 30
0.0000
  0
SEQEND
  8
0
  0
POLYLINE
  8
16
 66
1
 10
0.0000
 20
0.0000
 30
0.0000
 40
0.2540
 41
0.2540
 70
0
  0
VERTEX
  8
16
 10
25.1460
 20
35.6870
 30
0.0000
 42
1.0000
  0
VERTEX
  8
16
 10
25.1460
 20
35.9410
 30
0.0000
  0
SEQEND
  8
0
  0
POLYLINE
  8
16
 66
1
 10
0.0000
 20
0.0000
 30
0.0000
 40
0.5080
 41
0.5080
 70
0
  0
VERTEX
  8
16
 10
20.8280
 20
35.8140
 30
0.0000
  0
VERTEX
  8
16
 10
20.5740
 20
35.5600
 30
0.0000
  0
SEQEND
  8
0
  0
POLYLINE
  8
16
 66
1
 10
0.0000
 20
0.0000
 30
0.0000
 40
0.2540
 41
0.2540
 70
0
  0
VERTEX
  8
16
 10
20.4842
 20
35.6498
 30
0.0000
 42
1.0000
  0
VERTEX
  8
16
 10
20.6638
 20
35.4702
 30
0.0000
  0
SEQEND
  8
0
  0
POLYLINE
  8
16
 66
1
 10
0.0000
 20
0.0000
 30
0.0000
 40
0.2540
 41
0.2540
 70
0
  0
VERTEX
  8
16
 10
20.9178
 20
35.7242
 30
0.0000
 42
1.0000
  0
VERTEX
  8
16
 10
20.7382
 20
35.9038
 30
0.0000
  0
SEQEND
  8
0
  0
POLYLINE
  8
16
 66
1
 10
0.0000
 20
0.0000
 30
0.0000
 40
0.5080
 41
0.5080
 70
0
  0
VERTEX
  8
16
 10
20.5740
 20
35.5600
 30
0.0000
  0
VERTEX
  8
16
 10
18.2880
 20
33.5280
 30
0.0000
  0
SEQEND
  8
0
  0
POLYLINE
  8
16
 66
1
 10
0.0000
 20
0.0000
 30
0.0000
 40
0.2540
 41
0.2540
 70
0
  0
VERTEX
  8
16
 10
18.2036
 20
33.6229
 30
0.0000
 42
1.0000
  0
VERTEX
  8
16
 10
18.3724
 20
33.4331
 30
0.0000
  0
SEQEND
  8
0
  0
POLYLINE
  8
16
 66
1
 10
0.0000
 20
0.0000
 30
0.0000
 40
0.2540
 41
0.2540
 70
0
  0
VERTEX
  8
16
 10
20.6584
 20
35.4651
 30
0.0000
 42
1.0000
  0
VERTEX
  8
16
 10
20.4896
 20
35.6549
 30
0.0000
  0
SEQEND
  8
0
  0
POLYLINE
  8
16
 66
1
 10
0.0000
 20
0.0000
 30
0.0000
 40
0.5080
 41
0.5080
 70
0
  0
VERTEX
  8
16
 10
18.2880
 20
33.5280
 30
0.0000
  0
VERTEX
  8
16
 10
17.0180
 20
34.7980
 30
0.0000
  0
SEQEND
  8
0
  0
POLYLINE
  8
16
 66
1
 10
0.0000
 20
0.0000
 30
0.0000
 40
0.2540
 41
0.2540
 70
0
  0
VERTEX
  8
16
 10
17.1078
 20
34.8878
 30
0.0000
 42
1.0000
  0
VERTEX
  8
16
 10
16.9282
 20
34.7082
 30
0.0000
  0
SEQEND
  8
0
  0
POLYLINE
  8
16
 66
1
 10
0.0000
 20
0.0000
 30
0.0000
 40
0.2540
 41
0.2540
 70
0
  0
VERTEX
  8
16
 10
18.1982
 20
33.4382
 30
0.0000
 42
1.0000
  0
VERTEX
  8
16
 10
18.3778
 20
33.6178
 30
0.0000
  0
SEQEND
  8
0
  0
POLYLINE
  8
16
 66
1
 10
0.0000
 20
0.0000
 30
0.0000
 40
0.2540
 41
0.2540
 70
0
  0
VERTEX
  8
16
 10
31.7500
 20
20.5740
 30
0.0000
  0
VERTEX
  8
16
 10
29.4640
 20
20.5740
 30
0.0000
  0
SEQEND
  8
0
  0
POLYLINE
  8
16
 66
1
 10
0.0000
 20
0.0000
 30
0.0000
 40
0.1270
 41
0.1270
 70
0
  0
VERTEX
  8
16
 10
29.4640
 20
20.6375
 30
0.0000
 42
1.0000
  0
VERTEX
  8
16
 10
29.4640
 20
20.5105
 30
0.0000
  0
SEQEND
  8
0
  0
POLYLINE
  8
16
 66
1
 10
0.0000
 20
0.0000
 30
0.0000
 40
0.1270
 41
0.1270
 70
0
  0
VERTEX
  8
16
 10
31.7500
 20
20.5105
 30
0.0000
 42
1.0000
  0
VERTEX
  8
16
 10
31.7500
 20
20.6375
 30
0.0000
  0
SEQEND
  8
0
  0
POLYLINE
  8
16
 66
1
 10
0.0000
 20
0.0000
 30
0.0000
 40
0.2540
 41
0.2540
 70
0
  0
VERTEX
  8
16
 10
29.4640
 20
20.5740
 30
0.0000
  0
VERTEX
  8
16
 10
28.9560
 20
20.0660
 30
0.0000
  0
SEQEND
  8
0
  0
POLYLINE
  8
16
 66
1
 10
0.0000
 20
0.0000
 30
0.0000
 40
0.1270
 41
0.1270
 70
0
  0
VERTEX
  8
16
 10
28.9111
 20
20.1109
 30
0.0000
 42
1.0000
  0
VERTEX
  8
16
 10
29.0009
 20
20.0211
 30
0.0000
  0
SEQEND
  8
0
  0
POLYLINE
  8
16
 66
1
 10
0.0000
 20
0.0000
 30
0.0000
 40
0.1270
 41
0.1270
 70
0
  0
VERTEX
  8
16
 10
29.5089
 20
20.5291
 30
0.0000
 42
1.0000
  0
VERTEX
  8
16
 10
29.4191
 20
20.6189
 30
0.0000
  0
SEQEND
  8
0
  0
POLYLINE
  8
16
 66
1
 10
0.0000
 20
0.0000
 30
0.0000
 40
0.2540
 41
0.2540
 70
0
  0
VERTEX
  8
16
 10
28.9560
 20
20.0660
 30
0.0000
  0
VERTEX
  8
16
 10
23.3680
 20
20.0660
 30
0.0000
  0
SEQEND
  8
0
  0
POLYLINE
  8
16
 66
1
 10
0.0000
 20
0.0000
 30
0.0000
 40
0.1270
 41
0.1270
 70
0
  0
VERTEX
  8
16
 10
23.3680
 20
20.1295
 30
0.0000
 42
1.0000
  0
VERTEX
  8
16
 10
23.3680
 20
20.0025
 30
0.0000
  0
SEQEND
  8
0
  0
POLYLINE
  8
16
 66
1
 10
0.0000
 20
0.0000
 30
0.0000
 40
0.1270
 41
0.1270
 70
0
  0
VERTEX
  8
16
 10
28.9560
 20
20.0025
 30
0.0000
 42
1.0000
  0
VERTEX
  8
16
 10
28.9560
 20
20.1295
 30
0.0000
  0
SEQEND
  8
0
  0
POLYLINE
  8
16
 66
1
 10
0.0000
 20
0.0000
 30
0.0000
 40
0.2540
 41
0.2540
 70
0
  0
VERTEX
  8
16
 10
23.3680
 20
20.0660
 30
0.0000
  0
VERTEX
  8
16
 10
20.0660
 20
23.3680
 30
0.0000
  0
SEQEND
  8
0
  0
POLYLINE
  8
16
 66
1
 10
0.0000
 20
0.0000
 30
0.0000
 40
0.1270
 41
0.1270
 70
0
  0
VERTEX
  8
16
 10
20.1109
 20
23.4129
 30
0.0000
 42
1.0000
  0
VERTEX
  8
16
 10
20.0211
 20
23.3231
 30
0.0000
  0
SEQEND
  8
0
  0
POLYLINE
  8
16
 66
1
 10
0.0000
 20
0.0000
 30
0.0000
 40
0.1270
 41
0.1270
 70
0
  0
VERTEX
  8
16
 10
23.3231
 20
20.0211
 30
0.0000
 42
1.0000
  0
VERTEX
  8
16
 10
23.4129
 20
20.1109
 30
0.0000
  0
SEQEND
  8
0
  0
POLYLINE
  8
16
 66
1
 10
0.0000
 20
0.0000
 30
0.0000
 40
0.2540
 41
0.2540
 70
0
  0
VERTEX
  8
16
 10
20.0660
 20
23.3680
 30
0.0000
  0
VERTEX
  8
16
 10
20.0660
 20
24.1300
 30
0.0000
  0
SEQEND
  8
0
  0
POLYLINE
  8
16
 66
1
 10
0.0000
 20
0.0000
 30
0.0000
 40
0.1270
 41
0.1270
 70
0
  0
VERTEX
  8
16
 10
20.1295
 20
24.1300
 30
0.0000
 42
1.0000
  0
VERTEX
  8
16
 10
20.0025
 20
24.1300
 30
0.0000
  0
SEQEND
  8
0
  0
POLYLINE
  8
16
 66
1
 10
0.0000
 20
0.0000
 30
0.0000
 40
0.1270
 41
0.1270
 70
0
  0
VERTEX
  8
16
 10
20.0025
 20
23.3680
 30
0.0000
 42
1.0000
  0
VERTEX
  8
16
 10
20.1295
 20
23.3680
 30
0.0000
  0
SEQEND
  8
0
  0
POLYLINE
  8
16
 66
1
 10
0.0000
 20
0.0000
 30
0.0000
 40
0.2540
 41
0.2540
 70
0
  0
VERTEX
  8
16
 10
20.0660
 20
24.1300
 30
0.0000
  0
VERTEX
  8
16
 10
20.5740
 20
24.6380
 30
0.0000
  0
SEQEND
  8
0
  0
POLYLINE
  8
16
 66
1
 10
0.0000
 20
0.0000
 30
0.0000
 40
0.1270
 41
0.1270
 70
0
  0
VERTEX
  8
16
 10
20.6189
 20
24.5931
 30
0.0000
 42
1.0000
  0
VERTEX
  8
16
 10
20.5291
 20
24.6829
 30
0.0000
  0
SEQEND
  8
0
  0
POLYLINE
  8
16
 66
1
 10
0.0000
 20
0.0000
 30
0.0000
 40
0.1270
 41
0.1270
 70
0
  0
VERTEX
  8
16
 10
20.0211
 20
24.1749
 30
0.0000
 42
1.0000
  0
VERTEX
  8
16
 10
20.1109
 20
24.0851
 30
0.0000
  0
SEQEND
  8
0
  0
POLYLINE
  8
16
 66
1
 10
0.0000
 20
0.0000
 30
0.0000
 40
0.2540
 41
0.2540
 70
0
  0
VERTEX
  8
16
 10
20.5740
 20
24.6380
 30
0.0000
  0
VERTEX
  8
16
 10
21.0448
 20
24.6380
 30
0.0000
  0
SEQEND
  8
0
  0
POLYLINE
  8
16
 66
1
 10
0.0000
 20
0.0000
 30
0.0000
 40
0.1270
 41
0.1270
 70
0
  0
VERTEX
  8
16
 10
21.0448
 20
24.5745
 30
0.0000
 42
1.0000
  0
VERTEX
  8
16
 10
21.0448
 20
24.7015
 30
0.0000
  0
SEQEND
  8
0
  0
POLYLINE
  8
16
 66
1
 10
0.0000
 20
0.0000
 30
0.0000
 40
0.1270
 41
0.1270
 70
0
  0
VERTEX
  8
16
 10
20.5740
 20
24.7015
 30
0.0000
 42
1.0000
  0
VERTEX
  8
16
 10
20.5740
 20
24.5745
 30
0.0000
  0
SEQEND
  8
0
  0
POLYLINE
  8
16
 66
1
 10
0.0000
 20
0.0000
 30
0.0000
 40
0.2540
 41
0.2540
 70
0
  0
VERTEX
  8
16
 10
21.0448
 20
24.6380
 30
0.0000
  0
VERTEX
  8
16
 10
21.0674
 20
24.6606
 30
0.0000
  0
SEQEND
  8
0
  0
POLYLINE
  8
16
 66
1
 10
0.0000
 20
0.0000
 30
0.0000
 40
0.1270
 41
0.1270
 70
0
  0
VERTEX
  8
16
 10
21.1123
 20
24.6157
 30
0.0000
 42
1.0000
  0
VERTEX
  8
16
 10
21.0225
 20
24.7055
 30
0.0000
  0
SEQEND
  8
0
  0
POLYLINE
  8
16
 66
1
 10
0.0000
 20
0.0000
 30
0.0000
 40
0.1270
 41
0.1270
 70
0
  0
VERTEX
  8
16
 10
20.9999
 20
24.6829
 30
0.0000
 42
1.0000
  0
VERTEX
  8
16
 10
21.0897
 20
24.5931
 30
0.0000
  0
SEQEND
  8
0
  0
POLYLINE
  8
16
 66
1
 10
0.0000
 20
0.0000
 30
0.0000
 40
0.2540
 41
0.2540
 70
0
  0
VERTEX
  8
16
 10
31.4960
 20
19.3040
 30
0.0000
  0
VERTEX
  8
16
 10
33.0200
 20
20.8280
 30
0.0000
  0
SEQEND
  8
0
  0
POLYLINE
  8
16
 66
1
 10
0.0000
 20
0.0000
 30
0.0000
 40
0.1270
 41
0.1270
 70
0
  0
VERTEX
  8
16
 10
33.0649
 20
20.7831
 30
0.0000
 42
1.0000
  0
VERTEX
  8
16
 10
32.9751
 20
20.8729
 30
0.0000
  0
SEQEND
  8
0
  0
POLYLINE
  8
16
 66
1
 10
0.0000
 20
0.0000
 30
0.0000
 40
0.1270
 41
0.1270
 70
0
  0
VERTEX
  8
16
 10
31.4511
 20
19.3489
 30
0.0000
 42
1.0000
  0
VERTEX
  8
16
 10
31.5409
 20
19.2591
 30
0.0000
  0
SEQEND
  8
0
  0
POLYLINE
  8
16
 66
1
 10
0.0000
 20
0.0000
 30
0.0000
 40
0.2540
 41
0.2540
 70
0
  0
VERTEX
  8
16
 10
21.0820
 20
19.3040
 30
0.0000
  0
VERTEX
  8
16
 10
31.4960
 20
19.3040
 30
0.0000
  0
SEQEND
  8
0
  0
POLYLINE
  8
16
 66
1
 10
0.0000
 20
0.0000
 30
0.0000
 40
0.1270
 41
0.1270
 70
0
  0
VERTEX
  8
16
 10
31.4960
 20
19.2405
 30
0.0000
 42
1.0000
  0
VERTEX
  8
16
 10
31.4960
 20
19.3675
 30
0.0000
  0
SEQEND
  8
0
  0
POLYLINE
  8
16
 66
1
 10
0.0000
 20
0.0000
 30
0.0000
 40
0.1270
 41
0.1270
 70
0
  0
VERTEX
  8
16
 10
21.0820
 20
19.3675
 30
0.0000
 42
1.0000
  0
VERTEX
  8
16
 10
21.0820
 20
19.2405
 30
0.0000
  0
SEQEND
  8
0
  0
POLYLINE
  8
16
 66
1
 10
0.0000
 20
0.0000
 30
0.0000
 40
0.2540
 41
0.2540
 70
0
  0
VERTEX
  8
16
 10
12.1694
 20
21.0674
 30
0.0000
  0
VERTEX
  8
16
 10
14.7174
 20
21.0674
 30
0.0000
  0
SEQEND
  8
0
  0
POLYLINE
  8
16
 66
1
 10
0.0000
 20
0.0000
 30
0.0000
 40
0.1270
 41
0.1270
 70
0
  0
VERTEX
  8
16
 10
14.7174
 20
21.0039
 30
0.0000
 42
1.0000
  0
VERTEX
  8
16
 10
14.7174
 20
21.1309
 30
0.0000
  0
SEQEND
  8
0
  0
POLYLINE
  8
16
 66
1
 10
0.0000
 20
0.0000
 30
0.0000
 40
0.1270
 41
0.1270
 70
0
  0
VERTEX
  8
16
 10
12.1694
 20
21.1309
 30
0.0000
 42
1.0000
  0
VERTEX
  8
16
 10
12.1694
 20
21.0039
 30
0.0000
  0
SEQEND
  8
0
  0
POLYLINE
  8
16
 66
1
 10
0.0000
 20
0.0000
 30
0.0000
 40
0.2540
 41
0.2540
 70
0
  0
VERTEX
  8
16
 10
14.7174
 20
21.0674
 30
0.0000
  0
VERTEX
  8
16
 10
15.7480
 20
22.0980
 30
0.0000
  0
SEQEND
  8
0
  0
POLYLINE
  8
16
 66
1
 10
0.0000
 20
0.0000
 30
0.0000
 40
0.1270
 41
0.1270
 70
0
  0
VERTEX
  8
16
 10
15.7929
 20
22.0531
 30
0.0000
 42
1.0000
  0
VERTEX
  8
16
 10
15.7031
 20
22.1429
 30
0.0000
  0
SEQEND
  8
0
  0
POLYLINE
  8
16
 66
1
 10
0.0000
 20
0.0000
 30
0.0000
 40
0.1270
 41
0.1270
 70
0
  0
VERTEX
  8
16
 10
14.6725
 20
21.1123
 30
0.0000
 42
1.0000
  0
VERTEX
  8
16
 10
14.7623
 20
21.0225
 30
0.0000
  0
SEQEND
  8
0
  0
POLYLINE
  8
16
 66
1
 10
0.0000
 20
0.0000
 30
0.0000
 40
0.2540
 41
0.2540
 70
0
  0
VERTEX
  8
16
 10
17.5260
 20
22.0980
 30
0.0000
  0
VERTEX
  8
16
 10
18.2880
 20
22.0980
 30
0.0000
  0
SEQEND
  8
0
  0
POLYLINE
  8
16
 66
1
 10
0.0000
 20
0.0000
 30
0.0000
 40
0.1270
 41
0.1270
 70
0
  0
VERTEX
  8
16
 10
18.2880
 20
22.0345
 30
0.0000
 42
1.0000
  0
VERTEX
  8
16
 10
18.2880
 20
22.1615
 30
0.0000
  0
SEQEND
  8
0
  0
POLYLINE
  8
16
 66
1
 10
0.0000
 20
0.0000
 30
0.0000
 40
0.1270
 41
0.1270
 70
0
  0
VERTEX
  8
16
 10
17.5260
 20
22.1615
 30
0.0000
 42
1.0000
  0
VERTEX
  8
16
 10
17.5260
 20
22.0345
 30
0.0000
  0
SEQEND
  8
0
  0
POLYLINE
  8
16
 66
1
 10
0.0000
 20
0.0000
 30
0.0000
 40
0.2540
 41
0.2540
 70
0
  0
VERTEX
  8
16
 10
18.2880
 20
22.0980
 30
0.0000
  0
VERTEX
  8
16
 10
21.0820
 20
19.3040
 30
0.0000
  0
SEQEND
  8
0
  0
POLYLINE
  8
16
 66
1
 10
0.0000
 20
0.0000
 30
0.0000
 40
0.1270
 41
0.1270
 70
0
  0
VERTEX
  8
16
 10
21.0371
 20
19.2591
 30
0.0000
 42
1.0000
  0
VERTEX
  8
16
 10
21.1269
 20
19.3489
 30
0.0000
  0
SEQEND
  8
0
  0
POLYLINE
  8
16
 66
1
 10
0.0000
 20
0.0000
 30
0.0000
 40
0.1270
 41
0.1270
 70
0
  0
VERTEX
  8
16
 10
18.3329
 20
22.1429
 30
0.0000
 42
1.0000
  0
VERTEX
  8
16
 10
18.2431
 20
22.0531
 30
0.0000
  0
SEQEND
  8
0
  0
POLYLINE
  8
16
 66
1
 10
0.0000
 20
0.0000
 30
0.0000
 40
0.2540
 41
0.2540
 70
0
  0
VERTEX
  8
16
 10
29.4640
 20
16.2560
 30
0.0000
  0
VERTEX
  8
16
 10
28.9560
 20
16.7640
 30
0.0000
  0
SEQEND
  8
0
  0
POLYLINE
  8
16
 66
1
 10
0.0000
 20
0.0000
 30
0.0000
 40
0.1270
 41
0.1270
 70
0
  0
VERTEX
  8
16
 10
29.0009
 20
16.8089
 30
0.0000
 42
1.0000
  0
VERTEX
  8
16
 10
28.9111
 20
16.7191
 30
0.0000
  0
SEQEND
  8
0
  0
POLYLINE
  8
16
 66
1
 10
0.0000
 20
0.0000
 30
0.0000
 40
0.1270
 41
0.1270
 70
0
  0
VERTEX
  8
16
 10
29.4191
 20
16.2111
 30
0.0000
 42
1.0000
  0
VERTEX
  8
16
 10
29.5089
 20
16.3009
 30
0.0000
  0
SEQEND
  8
0
  0
POLYLINE
  8
16
 66
1
 10
0.0000
 20
0.0000
 30
0.0000
 40
0.2540
 41
0.2540
 70
0
  0
VERTEX
  8
16
 10
28.9560
 20
16.7640
 30
0.0000
  0
VERTEX
  8
16
 10
25.4080
 20
16.7640
 30
0.0000
  0
SEQEND
  8
0
  0
POLYLINE
  8
16
 66
1
 10
0.0000
 20
0.0000
 30
0.0000
 40
0.1270
 41
0.1270
 70
0
  0
VERTEX
  8
16
 10
25.4080
 20
16.8275
 30
0.0000
 42
1.0000
  0
VERTEX
  8
16
 10
25.4080
 20
16.7005
 30
0.0000
  0
SEQEND
  8
0
  0
POLYLINE
  8
16
 66
1
 10
0.0000
 20
0.0000
 30
0.0000
 40
0.1270
 41
0.1270
 70
0
  0
VERTEX
  8
16
 10
28.9560
 20
16.7005
 30
0.0000
 42
1.0000
  0
VERTEX
  8
16
 10
28.9560
 20
16.8275
 30
0.0000
  0
SEQEND
  8
0
  0
POLYLINE
  8
16
 66
1
 10
0.0000
 20
0.0000
 30
0.0000
 40
0.2540
 41
0.2540
 70
0
  0
VERTEX
  8
16
 10
25.4080
 20
16.7640
 30
0.0000
  0
VERTEX
  8
16
 10
24.6606
 20
15.7626
 30
0.0000
  0
SEQEND
  8
0
  0
POLYLINE
  8
16
 66
1
 10
0.0000
 20
0.0000
 30
0.0000
 40
0.1270
 41
0.1270
 70
0
  0
VERTEX
  8
16
 10
24.6097
 20
15.8006
 30
0.0000
 42
1.0000
  0
VERTEX
  8
16
 10
24.7115
 20
15.7246
 30
0.0000
  0
SEQEND
  8
0
  0
POLYLINE
  8
16
 66
1
 10
0.0000
 20
0.0000
 30
0.0000
 40
0.1270
 41
0.1270
 70
0
  0
VERTEX
  8
16
 10
25.4589
 20
16.7260
 30
0.0000
 42
1.0000
  0
VERTEX
  8
16
 10
25.3571
 20
16.8020
 30
0.0000
  0
SEQEND
  8
0
  0
POLYLINE
  8
16
 66
1
 10
0.0000
 20
0.0000
 30
0.0000
 40
0.2540
 41
0.2540
 70
0
  0
VERTEX
  8
16
 10
35.3060
 20
25.5270
 30
0.0000
  0
VERTEX
  8
16
 10
33.7820
 20
24.0030
 30
0.0000
  0
SEQEND
  8
0
  0
POLYLINE
  8
16
 66
1
 10
0.0000
 20
0.0000
 30
0.0000
 40
0.1270
 41
0.1270
 70
0
  0
VERTEX
  8
16
 10
33.7371
 20
24.0479
 30
0.0000
 42
1.0000
  0
VERTEX
  8
16
 10
33.8269
 20
23.9581
 30
0.0000
  0
SEQEND
  8
0
  0
POLYLINE
  8
16
 66
1
 10
0.0000
 20
0.0000
 30
0.0000
 40
0.1270
 41
0.1270
 70
0
  0
VERTEX
  8
16
 10
35.3509
 20
25.4821
 30
0.0000
 42
1.0000
  0
VERTEX
  8
16
 10
35.2611
 20
25.5719
 30
0.0000
  0
SEQEND
  8
0
  0
POLYLINE
  8
16
 66
1
 10
0.0000
 20
0.0000
 30
0.0000
 40
0.2540
 41
0.2540
 70
0
  0
VERTEX
  8
16
 10
33.7820
 20
24.0030
 30
0.0000
  0
VERTEX
  8
16
 10
33.7820
 20
19.6682
 30
0.0000
  0
SEQEND
  8
0
  0
POLYLINE
  8
16
 66
1
 10
0.0000
 20
0.0000
 30
0.0000
 40
0.1270
 41
0.1270
 70
0
  0
VERTEX
  8
16
 10
33.7185
 20
19.6682
 30
0.0000
 42
1.0000
  0
VERTEX
  8
16
 10
33.8455
 20
19.6682
 30
0.0000
  0
SEQEND
  8
0
  0
POLYLINE
  8
16
 66
1
 10
0.0000
 20
0.0000
 30
0.0000
 40
0.1270
 41
0.1270
 70
0
  0
VERTEX
  8
16
 10
33.8455
 20
24.0030
 30
0.0000
 42
1.0000
  0
VERTEX
  8
16
 10
33.7185
 20
24.0030
 30
0.0000
  0
SEQEND
  8
0
  0
POLYLINE
  8
16
 66
1
 10
0.0000
 20
0.0000
 30
0.0000
 40
0.2540
 41
0.2540
 70
0
  0
VERTEX
  8
16
 10
33.7820
 20
19.6682
 30
0.0000
  0
VERTEX
  8
16
 10
31.3858
 20
17.2720
 30
0.0000
  0
SEQEND
  8
0
  0
POLYLINE
  8
16
 66
1
 10
0.0000
 20
0.0000
 30
0.0000
 40
0.1270
 41
0.1270
 70
0
  0
VERTEX
  8
16
 10
31.3409
 20
17.3169
 30
0.0000
 42
1.0000
  0
VERTEX
  8
16
 10
31.4307
 20
17.2271
 30
0.0000
  0
SEQEND
  8
0
  0
POLYLINE
  8
16
 66
1
 10
0.0000
 20
0.0000
 30
0.0000
 40
0.1270
 41
0.1270
 70
0
  0
VERTEX
  8
16
 10
33.8269
 20
19.6233
 30
0.0000
 42
1.0000
  0
VERTEX
  8
16
 10
33.7371
 20
19.7131
 30
0.0000
  0
SEQEND
  8
0
  0
POLYLINE
  8
16
 66
1
 10
0.0000
 20
0.0000
 30
0.0000
 40
0.2540
 41
0.2540
 70
0
  0
VERTEX
  8
16
 10
31.3858
 20
17.2720
 30
0.0000
  0
VERTEX
  8
16
 10
20.0660
 20
17.2720
 30
0.0000
  0
SEQEND
  8
0
  0
POLYLINE
  8
16
 66
1
 10
0.0000
 20
0.0000
 30
0.0000
 40
0.1270
 41
0.1270
 70
0
  0
VERTEX
  8
16
 10
20.0660
 20
17.3355
 30
0.0000
 42
1.0000
  0
VERTEX
  8
16
 10
20.0660
 20
17.2085
 30
0.0000
  0
SEQEND
  8
0
  0
POLYLINE
  8
16
 66
1
 10
0.0000
 20
0.0000
 30
0.0000
 40
0.1270
 41
0.1270
 70
0
  0
VERTEX
  8
16
 10
31.3858
 20
17.2085
 30
0.0000
 42
1.0000
  0
VERTEX
  8
16
 10
31.3858
 20
17.3355
 30
0.0000
  0
SEQEND
  8
0
  0
POLYLINE
  8
16
 66
1
 10
0.0000
 20
0.0000
 30
0.0000
 40
0.2540
 41
0.2540
 70
0
  0
VERTEX
  8
16
 10
18.7960
 20
13.4620
 30
0.0000
  0
VERTEX
  8
16
 10
17.5260
 20
12.1920
 30
0.0000
  0
SEQEND
  8
0
  0
POLYLINE
  8
16
 66
1
 10
0.0000
 20
0.0000
 30
0.0000
 40
0.1270
 41
0.1270
 70
0
  0
VERTEX
  8
16
 10
17.4811
 20
12.2369
 30
0.0000
 42
1.0000
  0
VERTEX
  8
16
 10
17.5709
 20
12.1471
 30
0.0000
  0
SEQEND
  8
0
  0
POLYLINE
  8
16
 66
1
 10
0.0000
 20
0.0000
 30
0.0000
 40
0.1270
 41
0.1270
 70
0
  0
VERTEX
  8
16
 10
18.8409
 20
13.4171
 30
0.0000
 42
1.0000
  0
VERTEX
  8
16
 10
18.7511
 20
13.5069
 30
0.0000
  0
SEQEND
  8
0
  0
POLYLINE
  8
16
 66
1
 10
0.0000
 20
0.0000
 30
0.0000
 40
0.2540
 41
0.2540
 70
0
  0
VERTEX
  8
16
 10
17.5260
 20
12.1920
 30
0.0000
  0
VERTEX
  8
16
 10
15.7852
 20
12.1920
 30
0.0000
  0
SEQEND
  8
0
  0
POLYLINE
  8
16
 66
1
 10
0.0000
 20
0.0000
 30
0.0000
 40
0.1270
 41
0.1270
 70
0
  0
VERTEX
  8
16
 10
15.7852
 20
12.2555
 30
0.0000
 42
1.0000
  0
VERTEX
  8
16
 10
15.7852
 20
12.1285
 30
0.0000
  0
SEQEND
  8
0
  0
POLYLINE
  8
16
 66
1
 10
0.0000
 20
0.0000
 30
0.0000
 40
0.1270
 41
0.1270
 70
0
  0
VERTEX
  8
16
 10
17.5260
 20
12.1285
 30
0.0000
 42
1.0000
  0
VERTEX
  8
16
 10
17.5260
 20
12.2555
 30
0.0000
  0
SEQEND
  8
0
  0
POLYLINE
  8
16
 66
1
 10
0.0000
 20
0.0000
 30
0.0000
 40
0.2540
 41
0.2540
 70
0
  0
VERTEX
  8
16
 10
15.7852
 20
12.1920
 30
0.0000
  0
VERTEX
  8
16
 10
15.7626
 20
12.1694
 30
0.0000
  0
SEQEND
  8
0
  0
POLYLINE
  8
16
 66
1
 10
0.0000
 20
0.0000
 30
0.0000
 40
0.1270
 41
0.1270
 70
0
  0
VERTEX
  8
16
 10
15.7177
 20
12.2143
 30
0.0000
 42
1.0000
  0
VERTEX
  8
16
 10
15.8075
 20
12.1245
 30
0.0000
  0
SEQEND
  8
0
  0
POLYLINE
  8
16
 66
1
 10
0.0000
 20
0.0000
 30
0.0000
 40
0.1270
 41
0.1270
 70
0
  0
VERTEX
  8
16
 10
15.8301
 20
12.1471
 30
0.0000
 42
1.0000
  0
VERTEX
  8
16
 10
15.7403
 20
12.2369
 30
0.0000
  0
SEQEND
  8
0
  0
POLYLINE
  8
16
 66
1
 10
0.0000
 20
0.0000
 30
0.0000
 40
0.2540
 41
0.2540
 70
0
  0
VERTEX
  8
16
 10
20.0660
 20
17.2720
 30
0.0000
  0
VERTEX
  8
16
 10
18.7960
 20
16.0020
 30
0.0000
  0
SEQEND
  8
0
  0
POLYLINE
  8
16
 66
1
 10
0.0000
 20
0.0000
 30
0.0000
 40
0.1270
 41
0.1270
 70
0
  0
VERTEX
  8
16
 10
18.7511
 20
16.0469
 30
0.0000
 42
1.0000
  0
VERTEX
  8
16
 10
18.8409
 20
15.9571
 30
0.0000
  0
SEQEND
  8
0
  0
POLYLINE
  8
16
 66
1
 10
0.0000
 20
0.0000
 30
0.0000
 40
0.1270
 41
0.1270
 70
0
  0
VERTEX
  8
16
 10
20.1109
 20
17.2271
 30
0.0000
 42
1.0000
  0
VERTEX
  8
16
 10
20.0211
 20
17.3169
 30
0.0000
  0
SEQEND
  8
0
  0
POLYLINE
  8
16
 66
1
 10
0.0000
 20
0.0000
 30
0.0000
 40
0.2540
 41
0.2540
 70
0
  0
VERTEX
  8
16
 10
18.7960
 20
16.0020
 30
0.0000
  0
VERTEX
  8
16
 10
18.7960
 20
13.4620
 30
0.0000
  0
SEQEND
  8
0
  0
POLYLINE
  8
16
 66
1
 10
0.0000
 20
0.0000
 30
0.0000
 40
0.1270
 41
0.1270
 70
0
  0
VERTEX
  8
16
 10
18.7325
 20
13.4620
 30
0.0000
 42
1.0000
  0
VERTEX
  8
16
 10
18.8595
 20
13.4620
 30
0.0000
  0
SEQEND
  8
0
  0
POLYLINE
  8
16
 66
1
 10
0.0000
 20
0.0000
 30
0.0000
 40
0.1270
 41
0.1270
 70
0
  0
VERTEX
  8
16
 10
18.8595
 20
16.0020
 30
0.0000
 42
1.0000
  0
VERTEX
  8
16
 10
18.7325
 20
16.0020
 30
0.0000
  0
SEQEND
  8
0
  0
ENDSEC
  0
EOF
