<?xml version="1.0" encoding="UTF-8" standalone="no"?>
<!DOCTYPE svg PUBLIC "-//W3C//DTD SVG 1.1//EN" "http://www.w3.org/Graphics/SVG/1.1/DTD/svg11.dtd">
<!-- Generated by Microsoft Visio, SVG Export bledfu_bonding.svg Page-1 -->
<svg xmlns="http://www.w3.org/2000/svg" xmlns:xlink="http://www.w3.org/1999/xlink" xmlns:ev="http://www.w3.org/2001/xml-events"
		width="10in" height="12.919in" viewBox="0 0 963.495 1244.57" xml:space="preserve" color-interpolation-filters="sRGB"
		class="st18">
	<style type="text/css">
	<![CDATA[
		.st1 {fill:#ffffff;stroke:#000000;stroke-linecap:round;stroke-linejoin:round;stroke-width:0.75}
		.st2 {fill:#000000;font-family:Calibri;font-size:1.5em}
		.st3 {font-size:1em}
		.st4 {stroke:#000000;stroke-linecap:round;stroke-linejoin:round;stroke-width:1}
		.st5 {stroke:#000000;stroke-dasharray:7,5;stroke-linecap:round;stroke-linejoin:round;stroke-width:1}
		.st6 {fill:#ffffff}
		.st7 {stroke:#000000;stroke-linecap:round;stroke-linejoin:round;stroke-width:0.24}
		.st8 {fill:#000000;font-family:Calibri;font-size:1.33333em;font-weight:bold}
		.st9 {stroke:#000000;stroke-dasharray:3.6,2.16;stroke-linecap:round;stroke-linejoin:round;stroke-width:0.24}
		.st10 {marker-end:url(#mrkr12-122);stroke:#000000;stroke-linecap:round;stroke-linejoin:round;stroke-width:0.24}
		.st11 {fill:#000000;fill-opacity:1;stroke:#000000;stroke-opacity:1;stroke-width:0.08695652173913}
		.st12 {fill:#000000;font-family:Calibri;font-size:1.33333em}
		.st13 {marker-end:url(#mrkr13-129);stroke:#000000;stroke-linecap:round;stroke-linejoin:round;stroke-width:0.24}
		.st14 {stroke:#000000;stroke-dasharray:3.5,2.5;stroke-linecap:round;stroke-linejoin:round;stroke-width:0.5}
		.st15 {marker-end:url(#mrkr12-122);stroke:#000000;stroke-dasharray:1.68,1.2;stroke-linecap:round;stroke-linejoin:round;stroke-width:0.24}
		.st16 {fill:#ffffff;stroke:#000000;stroke-linecap:round;stroke-linejoin:round;stroke-width:0.5}
		.st17 {fill:none;stroke:none;stroke-linecap:round;stroke-linejoin:round;stroke-width:0.75}
		.st18 {fill:none;fill-rule:evenodd;font-size:12px;overflow:visible;stroke-linecap:square;stroke-miterlimit:3}
	]]>
	</style>

	<defs id="Markers">
		<g id="lend12">
			<path d="M 3 1 L 0 0 L 3 -1 " style="stroke-linecap:round;stroke-linejoin:round;fill:none"/>
		</g>
		<marker id="mrkr12-122" class="st11" orient="auto" markerUnits="strokeWidth" overflow="visible">
			<use xlink:href="#lend12" transform="scale(-11.5,-11.5) "/>
		</marker>
		<g id="lend13">
			<path d="M 3 1 L 0 0 L 3 -1 L 3 1 " style="stroke:none"/>
		</g>
		<marker id="mrkr13-129" class="st11" refX="-34.5" orient="auto" markerUnits="strokeWidth" overflow="visible">
			<use xlink:href="#lend13" transform="scale(-11.5,-11.5) "/>
		</marker>
	</defs>
	<g>
		<title>Page-1</title>
		<g id="shape1-1" transform="translate(0.375,-1159.16)">
			<title>Sheet.1</title>
			<desc>Central C1</desc>
			<rect x="0" y="1159.54" width="186.378" height="85.0394" class="st1"/>
			<text x="66.65" y="1196.66" class="st2">Central <tspan x="83.83" dy="1.2em" class="st3">C</tspan>1</text>		</g>
		<g id="shape2-5" transform="translate(640.296,-1159.16)">
			<title>Sheet.2</title>
			<desc>Central C2</desc>
			<rect x="0" y="1159.54" width="170.079" height="85.0394" class="st1"/>
			<text x="58.51" y="1196.66" class="st2">Central<tspan x="75.68" dy="1.2em" class="st3">C</tspan>2</text>		</g>
		<g id="shape3-9" transform="translate(328.485,-1159.16)">
			<title>Sheet.3</title>
			<desc>Peripheral</desc>
			<rect x="0" y="1159.54" width="170.079" height="85.0394" class="st1"/>
			<text x="47.26" y="1207.46" class="st2">Peripheral</text>		</g>
		<g id="shape4-12" transform="translate(186.753,-1192.68)">
			<title>Dynamic connector</title>
			<desc>Connected Bonded</desc>
			<path d="M0 1235.57 L141.73 1235.57" class="st4"/>
			<text x="31.36" y="1230.17" class="st2">Connected <tspan x="42.56" dy="1.2em" class="st3">Bonded</tspan></text>		</g>
		<g id="shape5-17" transform="translate(498.564,-1192.68)">
			<title>Dynamic connector.5</title>
			<desc>Not connected Not bonded</desc>
			<path d="M0 1235.57 L141.73 1235.57" class="st5"/>
			<text x="16.75" y="1230.17" class="st2">Not connected <tspan x="27.12" dy="1.2em" class="st3">Not bonded</tspan></text>		</g>
		<g id="group6-22" transform="translate(216.375,-1026.12)">
			<title>Class</title>
			<g id="shape7-23" transform="translate(144,0)">
				<title>Sheet.7</title>
				<path d="M0 1244.57 L0 1172.57 L0 1244.57 Z" class="st6"/>
			</g>
			<g id="shape8-26">
				<title>Sheet.8</title>
				<path d="M144 1244.57 L0 1244.57 L144 1244.57 Z" class="st6"/>
			</g>
			<g id="shape9-29">
				<title>Sheet.9</title>
				<path d="M144 1244.57 L0 1244.57 L144 1244.57 Z" class="st6"/>
			</g>
			<g id="shape10-32">
				<title>Sheet.10</title>
				<path d="M144 1244.57 L0 1244.57 L144 1244.57 Z" class="st6"/>
			</g>
			<g id="shape11-35">
				<title>Sheet.11</title>
				<desc>Peripheral application</desc>
				<path d="M144 1244.57 L144 1172.57 L0 1172.57 L0 1244.57 L144 1244.57 ZM0 1244.57 L0 1172.57 L0 1244.57 ZM144 1172.57
							 L144 1244.57 L144 1172.57 Z" class="st6"/>
				<path d="M144 1244.57 L144 1172.57" class="st7"/>
				<path d="M0 1244.57 L0 1172.57" class="st7"/>
				<path d="M0 1172.57 L144 1172.57" class="st7"/>
				<path d="M0 1244.57 L144 1244.57" class="st7"/>
				<text x="37.54" y="1203.77" class="st8">Peripheral <tspan x="34.91" dy="1.2em" class="st3">a</tspan>pplication</text>			</g>
		</g>
		<g id="shape12-43" transform="translate(288.375,1463.03) scale(1,-1)">
			<title>Lifeline</title>
			<path d="M0 1244.57 L0 1063.82" class="st9"/>
		</g>
		<g id="group14-46" transform="translate(603.375,-1026.12)">
			<title>Class.16</title>
			<g id="shape15-47" transform="translate(144,0)">
				<title>Sheet.15</title>
				<path d="M0 1244.57 L0 1172.57 L0 1244.57 Z" class="st6"/>
			</g>
			<g id="shape16-50">
				<title>Sheet.16</title>
				<path d="M144 1244.57 L0 1244.57 L144 1244.57 Z" class="st6"/>
			</g>
			<g id="shape17-53">
				<title>Sheet.17</title>
				<path d="M144 1244.57 L0 1244.57 L144 1244.57 Z" class="st6"/>
			</g>
			<g id="shape18-56">
				<title>Sheet.18</title>
				<path d="M144 1244.57 L0 1244.57 L144 1244.57 Z" class="st6"/>
			</g>
			<g id="shape19-59">
				<title>Sheet.19</title>
				<desc>Central C1</desc>
				<path d="M144 1244.57 L144 1172.57 L0 1172.57 L0 1244.57 L144 1244.57 ZM0 1244.57 L0 1172.57 L0 1244.57 ZM144 1172.57
							 L144 1244.57 L144 1172.57 Z" class="st6"/>
				<path d="M144 1244.57 L144 1172.57" class="st7"/>
				<path d="M0 1244.57 L0 1172.57" class="st7"/>
				<path d="M0 1172.57 L144 1172.57" class="st7"/>
				<path d="M0 1244.57 L144 1244.57" class="st7"/>
				<text x="47.91" y="1203.77" class="st8">Central <tspan x="63.71" dy="1.2em" class="st3">C</tspan>1</text>			</g>
		</g>
		<g id="shape20-67" transform="translate(675.375,1463.03) scale(1,-1)">
			<title>Lifeline.22</title>
			<path d="M0 1244.57 L0 675.15" class="st9"/>
		</g>
		<g id="group21-70" transform="translate(414.375,-864.12)">
			<title>Class.23</title>
			<g id="shape22-71" transform="translate(144,0)">
				<title>Sheet.22</title>
				<path d="M0 1244.57 L0 1172.57 L0 1244.57 Z" class="st6"/>
			</g>
			<g id="shape23-74">
				<title>Sheet.23</title>
				<path d="M144 1244.57 L0 1244.57 L144 1244.57 Z" class="st6"/>
			</g>
			<g id="shape24-77">
				<title>Sheet.24</title>
				<path d="M144 1244.57 L0 1244.57 L144 1244.57 Z" class="st6"/>
			</g>
			<g id="shape25-80">
				<title>Sheet.25</title>
				<path d="M144 1244.57 L0 1244.57 L144 1244.57 Z" class="st6"/>
			</g>
			<g id="shape26-83">
				<title>Sheet.26</title>
				<desc>Peripheral DFU</desc>
				<path d="M144 1244.57 L144 1172.57 L0 1172.57 L0 1244.57 L144 1244.57 ZM0 1244.57 L0 1172.57 L0 1244.57 ZM144 1172.57
							 L144 1244.57 L144 1172.57 Z" class="st6"/>
				<path d="M144 1244.57 L144 1172.57" class="st7"/>
				<path d="M0 1244.57 L0 1172.57" class="st7"/>
				<path d="M0 1172.57 L144 1172.57" class="st7"/>
				<path d="M0 1244.57 L144 1244.57" class="st7"/>
				<text x="37.54" y="1203.77" class="st8">Peripheral <tspan x="58.06" dy="1.2em" class="st3">DFU</tspan></text>			</g>
		</g>
		<g id="shape27-91" transform="translate(486.375,1625.03) scale(1,-1)">
			<title>Lifeline.29</title>
			<path d="M0 1244.57 L0 740.57" class="st9"/>
		</g>
		<g id="group28-94" transform="translate(18.375,-1026.12)">
			<title>Class.30</title>
			<g id="shape29-95" transform="translate(144,0)">
				<title>Sheet.29</title>
				<path d="M0 1244.57 L0 1172.57 L0 1244.57 Z" class="st6"/>
			</g>
			<g id="shape30-98">
				<title>Sheet.30</title>
				<path d="M144 1244.57 L0 1244.57 L144 1244.57 Z" class="st6"/>
			</g>
			<g id="shape31-101">
				<title>Sheet.31</title>
				<path d="M144 1244.57 L0 1244.57 L144 1244.57 Z" class="st6"/>
			</g>
			<g id="shape32-104">
				<title>Sheet.32</title>
				<path d="M144 1244.57 L0 1244.57 L144 1244.57 Z" class="st6"/>
			</g>
			<g id="shape33-107">
				<title>Sheet.33</title>
				<desc>RAM</desc>
				<path d="M144 1244.57 L144 1172.57 L0 1172.57 L0 1244.57 L144 1244.57 ZM0 1244.57 L0 1172.57 L0 1244.57 ZM144 1172.57
							 L144 1244.57 L144 1172.57 Z" class="st6"/>
				<path d="M144 1244.57 L144 1172.57" class="st7"/>
				<path d="M0 1244.57 L0 1172.57" class="st7"/>
				<path d="M0 1172.57 L144 1172.57" class="st7"/>
				<path d="M0 1244.57 L144 1244.57" class="st7"/>
				<text x="55.66" y="1213.38" class="st8">RAM</text>			</g>
		</g>
		<g id="shape34-114" transform="translate(90.375,1463.03) scale(1,-1)">
			<title>Lifeline.36</title>
			<path d="M0 1244.57 L0 731.92" class="st9"/>
		</g>
		<g id="shape35-117" transform="translate(675.375,-999.12) scale(-1,1)">
			<title>Message (seq.diag)</title>
			<desc>Start DFU</desc>
			<path d="M0 1244.57 L387 1244.57" class="st10"/>
			<text x="-226.51" y="1240.38" transform="scale(-1,1)" class="st12">Start DFU</text>		</g>
		<g id="shape36-124" transform="translate(283.661,-963.111) rotate(-0.217028) scale(-1,1)">
			<title>Message (seq.diag).36</title>
			<desc>dfu_ble_set_peer_data(...) LTK and IRK (if available)</desc>
			<path d="M0 1244.57 L189.72 1244.57" class="st13"/>
			<text x="-183.13" y="1239.14" transform="rotate(-0.217028) scale(-1,1)" class="st12">dfu_ble_set_peer_data(...) <tspan
						x="-183.13" dy="1.2em" class="st3">LTK</tspan> and IRK (if available)</text>		</g>
		<g id="shape37-132" transform="translate(486.375,-819.12) scale(-1,1)">
			<title>Message (seq.diag).47</title>
			<desc>dfu_ble_get_peer_data(…)</desc>
			<path d="M0 1244.57 L387.72 1244.57" class="st13"/>
			<text x="-286.92" y="1240.38" transform="scale(-1,1)" class="st12">dfu_ble_get_peer_data(…)</text>		</g>
		<g id="shape38-138" transform="translate(486.375,-765.12)">
			<title>Message (seq.diag).38</title>
			<desc>Directed advertising</desc>
			<path d="M0 1244.57 L189 1244.57" class="st10"/>
			<text x="27.24" y="1240.38" class="st12">Directed advertising</text>		</g>
		<g id="shape39-144" transform="translate(288.375,-900.12)">
			<title>Message (seq.diag).39</title>
			<desc>Soft reset DFU mode</desc>
			<path d="M0 1244.57 L117.72 1244.57" class="st13"/>
			<text x="26.86" y="1238.78" class="st12">Soft reset <tspan x="26.86" dy="1.2em" class="st3">DFU mode</tspan></text>		</g>
		<g id="shape40-151" transform="translate(486.375,-729.12)">
			<title>Message (seq.diag).40</title>
			<path d="M0 1244.57 L189 1244.57" class="st10"/>
		</g>
		<g id="shape41-156" transform="translate(486.375,-675.12)">
			<title>Message (seq.diag).44</title>
			<path d="M0 1244.57 L189 1244.57" class="st10"/>
		</g>
		<g id="shape44-161" transform="translate(1825.45,515.455) rotate(90)">
			<title>Sheet.44</title>
			<path d="M0 1244.57 L54 1244.57" class="st14"/>
		</g>
		<g id="shape45-164" transform="translate(675.375,-483.7) scale(-1,1)">
			<title>Message (seq.diag).50</title>
			<desc>Service discovery</desc>
			<path d="M0 1244.57 L189 1244.57" class="st10"/>
			<text x="-152.15" y="1240.38" transform="scale(-1,1)" class="st12">Service discovery</text>		</g>
		<g id="shape48-170" transform="translate(90.375,-792.12)">
			<title>Message (seq.diag).53</title>
			<path d="M0 1244.57 L396 1244.57" class="st15"/>
		</g>
		<g id="group55-175" transform="translate(819.375,-1026.12)">
			<title>Class.55</title>
			<g id="shape56-176" transform="translate(144,0)">
				<title>Sheet.56</title>
				<path d="M0 1244.57 L0 1172.57 L0 1244.57 Z" class="st6"/>
			</g>
			<g id="shape57-179">
				<title>Sheet.57</title>
				<path d="M144 1244.57 L0 1244.57 L144 1244.57 Z" class="st6"/>
			</g>
			<g id="shape58-182">
				<title>Sheet.58</title>
				<path d="M144 1244.57 L0 1244.57 L144 1244.57 Z" class="st6"/>
			</g>
			<g id="shape59-185">
				<title>Sheet.59</title>
				<path d="M144 1244.57 L0 1244.57 L144 1244.57 Z" class="st6"/>
			</g>
			<g id="shape60-188">
				<title>Sheet.60</title>
				<desc>Central C2</desc>
				<path d="M144 1244.57 L144 1172.57 L0 1172.57 L0 1244.57 L144 1244.57 ZM0 1244.57 L0 1172.57 L0 1244.57 ZM144 1172.57
							 L144 1244.57 L144 1172.57 Z" class="st6"/>
				<path d="M144 1244.57 L144 1172.57" class="st7"/>
				<path d="M0 1244.57 L0 1172.57" class="st7"/>
				<path d="M0 1172.57 L144 1172.57" class="st7"/>
				<path d="M0 1244.57 L144 1244.57" class="st7"/>
				<text x="47.91" y="1203.77" class="st8">Central <tspan x="63.71" dy="1.2em" class="st3">C</tspan>2</text>			</g>
		</g>
		<g id="shape61-196" transform="translate(891.375,1463.03) scale(1,-1)">
			<title>Lifeline.61</title>
			<path d="M0 1244.57 L0 434.57" class="st9"/>
		</g>
		<g id="shape66-199" transform="translate(486.375,-519.7)">
			<title>Message (seq.diag).66</title>
			<desc>Service Changed indication</desc>
			<path d="M0 1244.57 L189 1244.57" class="st10"/>
			<text x="5.13" y="1240.38" class="st12">Service Changed indication</text>		</g>
		<g id="shape67-205" transform="translate(451.77,-573.7)">
			<title>Sheet.67</title>
			<desc>Establish secure link</desc>
			<rect x="0" y="1208.57" width="258.21" height="36" rx="18" ry="18" class="st16"/>
			<text x="63.76" y="1231.38" class="st12">Establish secure link</text>		</g>
		<g id="shape127-208" transform="translate(451.77,-420.7)">
			<title>Sheet.127</title>
			<desc>Device Firmware Update</desc>
			<rect x="0" y="1208.57" width="258.21" height="36" rx="18" ry="18" class="st16"/>
			<text x="48.73" y="1231.38" class="st12">Device Firmware Update</text>		</g>
		<g id="shape132-211" transform="translate(675.375,-636.7) scale(-1,1)">
			<title>Message (seq.diag).132</title>
			<desc>Connect req.</desc>
			<path d="M0 1244.57 L189 1244.57" class="st10"/>
			<text x="-138.04" y="1240.38" transform="scale(-1,1)" class="st12">Connect req.</text>		</g>
		<g id="shape133-217" transform="translate(675.375,2045.78) scale(1,-1)">
			<title>Lifeline.133</title>
			<path d="M0 1244.57 L0 801.32" class="st9"/>
		</g>
		<g id="group134-220" transform="translate(216.375,-362.37)">
			<title>Class.134</title>
			<g id="shape135-221" transform="translate(144,0)">
				<title>Sheet.135</title>
				<path d="M0 1244.57 L0 1172.57 L0 1244.57 Z" class="st6"/>
			</g>
			<g id="shape136-224">
				<title>Sheet.136</title>
				<path d="M144 1244.57 L0 1244.57 L144 1244.57 Z" class="st6"/>
			</g>
			<g id="shape137-227">
				<title>Sheet.137</title>
				<path d="M144 1244.57 L0 1244.57 L144 1244.57 Z" class="st6"/>
			</g>
			<g id="shape138-230">
				<title>Sheet.138</title>
				<path d="M144 1244.57 L0 1244.57 L144 1244.57 Z" class="st6"/>
			</g>
			<g id="shape139-233">
				<title>Sheet.139</title>
				<desc>Peripheral application</desc>
				<path d="M144 1244.57 L144 1172.57 L0 1172.57 L0 1244.57 L144 1244.57 ZM0 1244.57 L0 1172.57 L0 1244.57 ZM144 1172.57
							 L144 1244.57 L144 1172.57 Z" class="st6"/>
				<path d="M144 1244.57 L144 1172.57" class="st7"/>
				<path d="M0 1244.57 L0 1172.57" class="st7"/>
				<path d="M0 1172.57 L144 1172.57" class="st7"/>
				<path d="M0 1244.57 L144 1244.57" class="st7"/>
				<text x="37.54" y="1203.77" class="st8">Peripheral <tspan x="34.91" dy="1.2em" class="st3">a</tspan>pplication</text>			</g>
		</g>
		<g id="shape140-241" transform="translate(486.375,-396.29) scale(-1,1)">
			<title>Message (seq.diag).140</title>
			<desc>Soft reset Application start</desc>
			<path d="M0 1244.57 L117.72 1244.57" class="st13"/>
			<text x="-118.59" y="1238.78" transform="scale(-1,1)" class="st12">Soft reset <tspan x="-118.59" dy="1.2em" class="st3">Application </tspan>start</text>		</g>
		<g id="shape141-248" transform="translate(288.375,2126.78) scale(1,-1)">
			<title>Lifeline.141</title>
			<path d="M0 1244.57 L0 891.32" class="st9"/>
		</g>
		<g id="shape142-251" transform="translate(288.375,-328.62)">
			<title>Message (seq.diag).142</title>
			<desc>General discoverable advertising</desc>
			<path d="M0 1244.57 L387 1244.57" class="st10"/>
			<text x="83.72" y="1240.38" class="st12">General discoverable advertising </text>		</g>
		<g id="shape143-257" transform="translate(288.375,-301.62)">
			<title>Message (seq.diag).143</title>
			<path d="M0 1244.57 L387 1244.57" class="st10"/>
		</g>
		<g id="shape144-262" transform="translate(1730.95,951.955) rotate(90)">
			<title>Sheet.144</title>
			<path d="M0 1244.57 L45 1244.57" class="st14"/>
		</g>
		<g id="shape145-265" transform="translate(549.375,-301.62)">
			<title>Message (seq.diag).129</title>
			<path d="M0 1244.57 L342 1244.57" class="st10"/>
		</g>
		<g id="shape146-270" transform="translate(549.375,-328.62)">
			<title>Message (seq.diag).146</title>
			<path d="M0 1244.57 L342 1244.57" class="st10"/>
		</g>
		<g id="shape147-275" transform="translate(288.375,-238.62)">
			<title>Message (seq.diag).147</title>
			<path d="M0 1244.57 L387 1244.57" class="st10"/>
		</g>
		<g id="shape148-280" transform="translate(549.375,-238.62)">
			<title>Message (seq.diag).148</title>
			<path d="M0 1244.57 L342 1244.57" class="st10"/>
		</g>
		<g id="shape149-285" transform="translate(675.375,-72.12) scale(-1,1)">
			<title>Message (seq.diag).153</title>
			<desc>Service discovery</desc>
			<path d="M0 1244.57 L387 1244.57" class="st10"/>
			<text x="-251.15" y="1240.38" transform="scale(-1,1)" class="st12">Service discovery</text>		</g>
		<g id="shape150-291" transform="translate(675.375,-198.12) scale(-1,1)">
			<title>Message (seq.diag).154</title>
			<desc>Connect req.</desc>
			<path d="M0 1244.57 L387 1244.57" class="st10"/>
			<text x="-237.04" y="1240.38" transform="scale(-1,1)" class="st12">Connect req.</text>		</g>
		<g id="shape151-297" transform="translate(288.375,-103.62)">
			<title>Message (seq.diag).151</title>
			<desc>Service Changed indication</desc>
			<path d="M0 1244.57 L387 1244.57" class="st10"/>
			<text x="104.13" y="1240.38" class="st12">Service Changed indication</text>		</g>
		<g id="shape152-303" transform="translate(261.375,-135.12)">
			<title>Sheet.152</title>
			<desc>Establish secure link</desc>
			<rect x="0" y="1208.57" width="450" height="36" rx="18" ry="18" class="st16"/>
			<text x="159.65" y="1231.38" class="st12">Establish secure link</text>		</g>
		<g id="shape154-306" transform="translate(486.875,-745.12)">
			<title>Sheet.154</title>
			<desc>OR whitelist advertising</desc>
			<rect x="0" y="1224.57" width="188" height="20" class="st17"/>
			<text x="16.98" y="1239.38" class="st12">OR whitelist advertising </text>		</g>
	</g>
</svg>
