<?xml version="1.0" encoding="UTF-8" standalone="no"?>
<!DOCTYPE svg PUBLIC "-//W3C//DTD SVG 1.1//EN" "http://www.w3.org/Graphics/SVG/1.1/DTD/svg11.dtd">
<!-- Generated by Microsoft Visio, SVG Export DFU_state_machine.svg Page-1 -->
<svg xmlns="http://www.w3.org/2000/svg" xmlns:xlink="http://www.w3.org/1999/xlink" xmlns:ev="http://www.w3.org/2001/xml-events"
		width="7.31736in" height="4.54954in" viewBox="0 0 526.85 327.567" xml:space="preserve" color-interpolation-filters="sRGB"
		class="st13">
	<style type="text/css">
	<![CDATA[
		.st1 {fill:#ffffff;stroke:#000000;stroke-linecap:round;stroke-linejoin:round;stroke-width:0.24}
		.st2 {fill:#000000;font-family:Arial;font-size:0.833336em;font-weight:bold}
		.st3 {fill:#000000;fill-opacity:1;stroke:#000000;stroke-opacity:1;stroke-width:0.08695652173913}
		.st4 {fill:#000000}
		.st5 {stroke:#000000;stroke-linecap:round;stroke-linejoin:round;stroke-width:0.24}
		.st6 {marker-end:url(#mrkr12-21);stroke:#000000;stroke-linecap:round;stroke-linejoin:round;stroke-width:0.24}
		.st7 {fill:#ffffff;visibility:hidden}
		.st8 {stroke:none;stroke-linecap:round;stroke-linejoin:round;stroke-width:0.24}
		.st9 {fill:#ffffff;stroke:none;stroke-linecap:butt;stroke-width:7.2}
		.st10 {fill:#000000;font-family:Arial;font-size:0.833336em}
		.st11 {fill:none;stroke:none;stroke-linecap:round;stroke-linejoin:round;stroke-width:0.72}
		.st12 {font-size:1em}
		.st13 {fill:none;fill-rule:evenodd;font-size:12px;overflow:visible;stroke-linecap:square;stroke-miterlimit:3}
	]]>
	</style>

	<defs id="Markers">
		<g id="lend12">
			<path d="M 3 1 L 0 0 L 3 -1 " style="stroke-linecap:round;stroke-linejoin:round;fill:none"/>
		</g>
		<marker id="mrkr12-21" class="st3" orient="auto" markerUnits="strokeWidth" overflow="visible">
			<use xlink:href="#lend12" transform="scale(-11.5,-11.5) "/>
		</marker>
	</defs>
	<g>
		<title>Page-1</title>
		<g id="group1-1" transform="translate(171.787,362.212) scale(1,-1)">
			<title>State, Act.Region</title>
			<g id="shape2-2" transform="translate(0,-36)">
				<title>Sheet.2</title>
			</g>
			<g id="shape3-4" transform="translate(0,-36)">
				<title>Sheet.3</title>
			</g>
			<g id="shape4-6">
				<title>Sheet.4</title>
				<desc>IDLE</desc>
				<path d="M-0 318.57 A9 9 -180 0 0 9 327.57 L63 327.57 A9 9 -180 0 0 72 318.57 L72 300.57 A9 9 -180 0 0 63 291.57
							 L9 291.57 A9 9 -180 0 0 -0 300.57 L0 318.57 Z" class="st1"/>
				<text x="24.61" y="-306.57" transform="scale(1,-1)" class="st2">IDLE</text>			</g>
		</g>
		<g id="group5-9" transform="translate(171.787,457.013) scale(1,-1)">
			<title>State, Act.Region.5</title>
			<g id="shape6-10" transform="translate(0,-36)">
				<title>Sheet.6</title>
			</g>
			<g id="shape7-12" transform="translate(0,-36)">
				<title>Sheet.7</title>
			</g>
			<g id="shape8-14">
				<title>Sheet.8</title>
				<desc>INIT_ERROR</desc>
				<path d="M-0 318.57 A9 9 -180 0 0 9 327.57 L63 327.57 A9 9 -180 0 0 72 318.57 L72 300.57 A9 9 -180 0 0 63 291.57
							 L9 291.57 A9 9 -180 0 0 -0 300.57 L0 318.57 Z" class="st1"/>
				<text x="5.72" y="-306.57" transform="scale(1,-1)" class="st2">INIT_ERROR</text>			</g>
		</g>
		<g id="group9-17" transform="translate(50.585,-220.918)">
			<title>Pseudo- state</title>
			<g id="shape10-18">
				<title>Sheet.10</title>
			</g>
			<g id="shape11-22" transform="translate(3.2632,-3.2632)">
				<title>Sheet.11</title>
				<desc>H</desc>
				<path d="M0 322.13 A5.43866 5.43866 0 1 1 10.88 322.13 A5.43866 5.43866 0 0 1 0 322.13 Z" class="st4"/>
				<path d="M0 322.13 A5.43866 5.43866 0 1 1 10.88 322.13 A5.43866 5.43866 0 0 1 0 322.13" class="st5"/>
				<path d="M5.44 322.13 L43.69 322.13" class="st6"/>
			</g>
		</g>
		<g id="group12-28" transform="translate(97.5369,-220.62)">
			<title>Decision, Merge</title>
			<g id="shape13-29">
				<title>Sheet.13</title>
				<path d="M0 318.57 L9 309.57 L18 318.57 L9 327.57 L0 318.57 Z" class="st1"/>
			</g>
			<g id="shape14-31" transform="translate(5,-7.2)">
				<title>Sheet.14</title>
				<rect x="0" y="323.967" width="8" height="3.6" class="st7"/>
				<rect x="0" y="323.967" width="8" height="3.6" class="st8"/>
			</g>
			<g id="shape15-34" transform="translate(5,-7.2)">
				<title>Sheet.15</title>
				<rect x="0" y="323.967" width="8" height="3.6" class="st7"/>
				<rect x="0" y="323.967" width="8" height="3.6" class="st8"/>
			</g>
			<g id="shape16-37" transform="translate(5,-7.2)">
				<title>Sheet.16</title>
				<rect x="0" y="323.967" width="8" height="3.6" class="st7"/>
				<rect x="0" y="323.967" width="8" height="3.6" class="st8"/>
			</g>
			<g id="shape17-40" transform="translate(32,-25.2)">
				<title>Sheet.17</title>
				<rect x="0" y="323.967" width="8" height="3.6" class="st7"/>
				<rect x="0" y="323.967" width="8" height="3.6" class="st8"/>
			</g>
		</g>
		<g id="group18-43" transform="translate(106.537,-238.62)">
			<title>Transition, Edge.19</title>
			<desc>dfu_init(...)[success]</desc>
			<g id="shape19-44" transform="translate(65.25,-28.2994)">
				<title>Straight Edge.28</title>
				<desc>N</desc>
			</g>
			<g id="shape20-47" transform="translate(-319.565,343.57) rotate(-90)">
				<title>Straight Edge.29</title>
				<desc>N</desc>
			</g>
			<g id="shape18-50">
				<path d="M0 327.57 L0 309.27 A18 18 0 0 1 18 291.27 L65.25 291.27" class="st6"/>
				<rect x="-31.3777" y="285.266" width="88.9225" height="12.0001" class="st9"/>
				<text x="-31.38" y="294.27" class="st10">dfu_init(...)[success]</text>			</g>
		</g>
		<g id="group21-57" transform="translate(106.537,-220.62)">
			<title>Transition, Edge.18</title>
			<desc>dfu_init(...)[failure]</desc>
			<g id="shape22-58" transform="translate(65.25,48.5018)">
				<title>Straight Edge.28</title>
				<desc>N</desc>
			</g>
			<g id="shape23-61" transform="translate(319.565,311.563) rotate(90)">
				<title>Straight Edge.29</title>
				<desc>N</desc>
			</g>
			<g id="shape21-64">
				<path d="M0 327.57 L0 350.07 A18 18 -180 0 0 18 368.07 L65.25 368.07" class="st6"/>
				<rect x="-29.0335" y="362.067" width="80.0351" height="12.0001" class="st9"/>
				<text x="-29.03" y="371.07" class="st10">dfu_init(...)[failure]</text>			</g>
		</g>
		<g id="group24-71" transform="translate(200.7,-198.12)">
			<title>Transition, Edge.21</title>
			<desc>dfu_init(...)[success]</desc>
			<g id="shape25-72" transform="translate(-312.478,268.766) rotate(-90)">
				<title>Straight Edge.28</title>
				<desc>N</desc>
			</g>
			<g id="shape26-75" transform="translate(-312.478,343.57) rotate(-90)">
				<title>Straight Edge.29</title>
				<desc>N</desc>
			</g>
			<g id="shape24-78">
				<path d="M7.09 327.57 L7.09 268.77" class="st6"/>
				<rect x="-38.7655" y="292.166" width="88.9225" height="12.0001" class="st9"/>
				<text x="-38.77" y="301.17" class="st10">dfu_init(...)[success]</text>			</g>
		</g>
		<g id="group27-85" transform="translate(365.287,362.212) scale(1,-1)">
			<title>State, Act.Region.27</title>
			<g id="shape28-86" transform="translate(0,-36)">
				<title>Sheet.28</title>
			</g>
			<g id="shape29-88" transform="translate(0,-36)">
				<title>Sheet.29</title>
			</g>
			<g id="shape30-90">
				<title>Sheet.30</title>
				<desc>RDY</desc>
				<path d="M-0 318.57 A9 9 -180 0 0 9 327.57 L63 327.57 A9 9 -180 0 0 72 318.57 L72 300.57 A9 9 -180 0 0 63 291.57
							 L9 291.57 A9 9 -180 0 0 -0 300.57 L0 318.57 Z" class="st1"/>
				<text x="25.44" y="-306.57" transform="scale(1,-1)" class="st2">RDY</text>			</g>
		</g>
		<g id="group31-93" transform="translate(207.787,-285.835)">
			<title>Transition, Edge.31</title>
			<desc>dfu_image_size_set(...)</desc>
			<g id="shape32-94" transform="translate(512.69,320.48) rotate(90)">
				<title>Straight Edge.28</title>
				<desc>N</desc>
			</g>
			<g id="shape33-97" transform="translate(-319.19,337.233) rotate(-90)">
				<title>Straight Edge.29</title>
				<desc>N</desc>
			</g>
			<g id="shape31-100">
				<path d="M0 320.48 L0 308.16 A12.3219 12.3219 0 0 1 12.32 295.84 L181.18 295.84 A12.3219 12.3219 0 0 1 193.5 308.16
							 L193.5 320.48" class="st6"/>
				<rect x="43.3883" y="289.837" width="103.942" height="12.0001" class="st9"/>
				<text x="43.39" y="298.84" class="st10">dfu_image_size_set(...)</text>			</g>
		</g>
		<g id="group34-107" transform="translate(365.287,457.013) scale(1,-1)">
			<title>State, Act.Region.34</title>
			<g id="shape35-108" transform="translate(0,-36)">
				<title>Sheet.35</title>
			</g>
			<g id="shape36-110" transform="translate(0,-36)">
				<title>Sheet.36</title>
			</g>
			<g id="shape37-112">
				<title>Sheet.37</title>
				<desc>RX_INIT_PKT</desc>
				<path d="M-0 318.57 A9 9 -180 0 0 9 327.57 L63 327.57 A9 9 -180 0 0 72 318.57 L72 300.57 A9 9 -180 0 0 63 291.57
							 L9 291.57 A9 9 -180 0 0 -0 300.57 L0 318.57 Z" class="st1"/>
				<text x="4.05" y="-306.57" transform="scale(1,-1)" class="st2">RX_INIT_PKT</text>			</g>
		</g>
		<g id="group38-115" transform="translate(394.2,-256.921)">
			<title>Transition, Edge.38</title>
			<desc>dfu_init_pkt_handle(...)</desc>
			<g id="shape39-116" transform="translate(326.652,386.368) rotate(90)">
				<title>Straight Edge.28</title>
				<desc>N</desc>
			</g>
			<g id="shape40-119" transform="translate(326.652,311.563) rotate(90)">
				<title>Straight Edge.29</title>
				<desc>N</desc>
			</g>
			<g id="shape38-122">
				<path d="M7.09 327.57 L7.09 386.37" class="st6"/>
				<rect x="-45.1715" y="350.968" width="101.734" height="12.0001" class="st9"/>
				<text x="-45.17" y="359.97" class="st10">dfu_init_pkt_handle(...)</text>			</g>
		</g>
		<g id="group41-129" transform="translate(419.287,-162.12)">
			<title>Transition, Edge.41</title>
			<desc>dfu_init_pkt_handle(...)</desc>
			<g id="shape42-130" transform="translate(18,619.757) rotate(180)">
				<title>Straight Edge.28</title>
				<desc>N</desc>
			</g>
			<g id="shape43-133" transform="translate(315.002,302.437) rotate(90)">
				<title>Straight Edge.29</title>
				<desc>N</desc>
			</g>
			<g id="shape41-136">
				<path d="M0 327.57 L0 339.84 A12.2687 12.2687 -180 0 0 12.27 352.1 L25.45 352.1 A18 18 -180 0 0 43.45 334.1 L43.45
							 313.29 A12.7251 12.7251 -180 0 0 30.73 300.57 L18 300.57" class="st6"/>
				<rect x="-8.80805" y="341.604" width="101.734" height="12.0001" class="st9"/>
				<text x="-8.81" y="350.6" class="st10">dfu_init_pkt_handle(...)</text>			</g>
		</g>
		<g id="group44-143" transform="translate(241.635,529.013) scale(1,-1)">
			<title>State, Act.Region.44</title>
			<g id="shape45-144" transform="translate(0,-36)">
				<title>Sheet.45</title>
			</g>
			<g id="shape46-146" transform="translate(0,-36)">
				<title>Sheet.46</title>
			</g>
			<g id="shape47-148">
				<title>Sheet.47</title>
				<desc>RX_DATA_PKT</desc>
				<path d="M-0 318.57 A9 9 -180 0 0 9 327.57 L71.9 327.57 A9 9 -180 0 0 80.9 318.57 L80.9 300.57 A9 9 -180 0 0 71.9
							 291.57 L9 291.57 A9 9 -180 0 0 -0 300.57 L0 318.57 Z" class="st1"/>
				<text x="4.06" y="-306.57" transform="scale(1,-1)" class="st2">RX_DATA_PKT</text>			</g>
		</g>
		<g id="group48-151" transform="translate(401.287,-162.12)">
			<title>Transition, Edge.48</title>
			<desc>dfu_data_pkt_handle(...)</desc>
			<g id="shape49-152" transform="translate(-78.75,701.132) rotate(180)">
				<title>Straight Edge.28</title>
				<desc>N</desc>
			</g>
			<g id="shape50-155" transform="translate(319.565,311.563) rotate(90)">
				<title>Straight Edge.29</title>
				<desc>N</desc>
			</g>
			<g id="shape48-158">
				<path d="M0 327.57 L0 363.57 A18 18 0 0 1 -18 381.57 L-78.75 381.57" class="st6"/>
				<rect x="-56.5101" y="372.183" width="108.414" height="12.0001" class="st9"/>
				<text x="-56.51" y="381.18" class="st10">dfu_data_pkt_handle(...)</text>			</g>
		</g>
		<g id="group51-165" transform="translate(365.287,-265.921)">
			<title>Transition, Edge.51</title>
			<desc>dfu_data_pkt_handle(...)</desc>
			<g id="shape52-166" transform="translate(236.364,467.368) rotate(90)">
				<title>Straight Edge.28</title>
				<desc>N</desc>
			</g>
			<g id="shape53-169" transform="translate(-258.777,515.748) rotate(-123.157)">
				<title>Straight Edge.29</title>
				<desc>N</desc>
			</g>
			<g id="shape51-172">
				<path d="M0 327.57 L0 325.47 A2.09941 2.09941 -180 0 0 -2.1 323.37 L-65.2 323.37 A18 18 -180 0 0 -83.2 341.37 L-83.2
							 467.37" class="st6"/>
				<rect x="-139.565" y="379.606" width="108.414" height="12.0001" class="st9"/>
				<text x="-139.57" y="388.61" class="st10">dfu_data_pkt_handle(...)</text>			</g>
		</g>
		<g id="group54-179" transform="translate(241.635,-114.533)">
			<title>Transition, Edge.54</title>
			<desc>dfu_data_pkt_handle(...)</desc>
			<g id="shape55-180" transform="translate(341.641,315.98) rotate(90)">
				<title>Straight Edge.28</title>
				<desc>N</desc>
			</g>
			<g id="shape56-183" transform="translate(16.7534,644.17) rotate(180)">
				<title>Straight Edge.29</title>
				<desc>N</desc>
			</g>
			<g id="shape54-186">
				<path d="M0 324.98 L-11.33 324.98 A11.3346 11.3346 0 0 1 -22.67 313.65 L-22.67 309.38 A18 18 0 0 1 -4.67 291.38 L10.15
							 291.38 A12.2982 12.2982 0 0 1 22.45 303.68 L22.45 315.98" class="st6"/>
				<rect x="-89.6137" y="287.746" width="108.414" height="12.0001" class="st9"/>
				<text x="-89.61" y="296.75" class="st10">dfu_data_pkt_handle(...)</text>			</g>
		</g>
		<g id="group57-193" transform="translate(246.17,619.013) scale(1,-1)">
			<title>State, Act.Region.57</title>
			<g id="shape58-194" transform="translate(0,-36)">
				<title>Sheet.58</title>
			</g>
			<g id="shape59-196" transform="translate(0,-36)">
				<title>Sheet.59</title>
			</g>
			<g id="shape60-198">
				<title>Sheet.60</title>
				<desc>VALIDATE</desc>
				<path d="M-0 318.57 A9 9 -180 0 0 9 327.57 L63 327.57 A9 9 -180 0 0 72 318.57 L72 300.57 A9 9 -180 0 0 63 291.57
							 L9 291.57 A9 9 -180 0 0 -0 300.57 L0 318.57 Z" class="st1"/>
				<text x="11" y="-306.57" transform="scale(1,-1)" class="st2">VALIDATE</text>			</g>
		</g>
		<g id="group61-201" transform="translate(275.041,-90.12)">
			<title>Transition, Edge.61</title>
			<desc>dfu_image_validate()[validation failure]</desc>
			<g id="shape62-202" transform="translate(326.694,381.567) rotate(90)">
				<title>Straight Edge.28</title>
				<desc>N</desc>
			</g>
			<g id="shape63-205" transform="translate(326.609,311.563) rotate(90)">
				<title>Straight Edge.29</title>
				<desc>N</desc>
			</g>
			<g id="shape61-208">
				<path d="M7.04 327.57 L7.13 381.57" class="st6"/>
				<rect x="-79.9106" y="348.567" width="171.213" height="12.0001" class="st9"/>
				<text x="-79.91" y="357.57" class="st10">dfu_image_validate()[validation failure]</text>			</g>
		</g>
		<g id="group64-215" transform="translate(105.414,619.013) scale(1,-1)">
			<title>State, Act.Region.64</title>
			<g id="shape65-216" transform="translate(0,-36)">
				<title>Sheet.65</title>
			</g>
			<g id="shape66-218" transform="translate(0,-36)">
				<title>Sheet.66</title>
			</g>
			<g id="shape67-220">
				<title>Sheet.67</title>
				<desc>WAIT_4_ACTIVATE</desc>
				<path d="M-0 318.57 A9 9 -180 0 0 9 327.57 L96.37 327.57 A9 9 -180 0 0 105.37 318.57 L105.37 300.57 A9 9 -180 0 0
							 96.37 291.57 L9 291.57 A9 9 -180 0 0 -0 300.57 L0 318.57 Z" class="st1"/>
				<text x="6.57" y="-306.57" transform="scale(1,-1)" class="st2">WAIT_4_ACTIVATE</text>			</g>
		</g>
		<g id="shape71-223" transform="translate(0.36,-3.78732)">
			<title>Sheet.71</title>
			<desc>dfu_image_activate() / activate the image</desc>
			<rect x="0" y="302.817" width="102.392" height="24.75" class="st11"/>
			<text x="4" y="312.19" class="st10">dfu_image_activate()  <tspan x="4" dy="1.2em" class="st12">/ </tspan>activate the image</text>		</g>
		<g id="shape72-227" transform="translate(329.509,-6.87)">
			<title>Sheet.72</title>
			<desc>dfu_image_validate() / return NRF_ERROR_INVALID_STATE</desc>
			<rect x="0" y="300.567" width="196.982" height="27" class="st11"/>
			<text x="4" y="311.07" class="st10">dfu_image_validate() <tspan x="4" dy="1.2em" class="st12">/ </tspan>return NRF_ERROR_INVALID_STATE</text>		</g>
		<g id="group68-231" transform="translate(241.635,-108.12)">
			<title>Transition, Edge.68</title>
			<desc>dfu_image_validate()[validation success]</desc>
			<g id="shape69-232" transform="translate(236.029,399.567) rotate(90)">
				<title>Straight Edge.28</title>
				<desc>N</desc>
			</g>
			<g id="shape70-235" transform="translate(16.0036,647.132) rotate(180)">
				<title>Straight Edge.29</title>
				<desc>N</desc>
			</g>
			<g id="shape68-238">
				<path d="M0 327.57 L-65.54 327.57 A18 18 -180 0 0 -83.54 345.57 L-83.54 399.57" class="st6"/>
				<rect x="-173.646" y="346.53" width="180.1" height="12.0001" class="st9"/>
				<text x="-173.65" y="355.53" class="st10">dfu_image_validate()[validation success]</text>			</g>
		</g>
	</g>
</svg>
