<?xml version="1.0" encoding="UTF-8" standalone="no"?>
<!DOCTYPE svg PUBLIC "-//W3C//DTD SVG 1.1//EN" "http://www.w3.org/Graphics/SVG/1.1/DTD/svg11.dtd">
<!-- Generated by Microsoft Visio, SVG Export exp_ota_dfu_transfer.svg Page-1 -->
<svg xmlns="http://www.w3.org/2000/svg" xmlns:xlink="http://www.w3.org/1999/xlink" xmlns:ev="http://www.w3.org/2001/xml-events"
		width="6.42853in" height="7.92705in" viewBox="0 0 462.854 570.748" xml:space="preserve" color-interpolation-filters="sRGB"
		class="st18">
	<style type="text/css">
	<![CDATA[
		.st1 {fill:#ffffff}
		.st2 {stroke:#000000;stroke-linecap:round;stroke-linejoin:round;stroke-width:0.24}
		.st3 {fill:#000000;font-family:Arial;font-size:0.666664em;font-weight:bold}
		.st4 {stroke:#000000;stroke-dasharray:3.6,2.16;stroke-linecap:round;stroke-linejoin:round;stroke-width:0.24}
		.st5 {marker-end:url(#mrkr12-52);stroke:#000000;stroke-linecap:round;stroke-linejoin:round;stroke-width:0.24}
		.st6 {fill:#000000;fill-opacity:1;stroke:#000000;stroke-opacity:1;stroke-width:0.08695652173913}
		.st7 {fill:#ffffff;stroke:none;stroke-linecap:butt;stroke-width:7.2}
		.st8 {fill:#000000;font-family:Arial;font-size:0.666664em}
		.st9 {fill:#808000;font-size:1em}
		.st10 {fill:#800000;font-size:1em}
		.st11 {fill:#e8eef7;stroke:#000000;stroke-linecap:round;stroke-linejoin:round;stroke-width:0.24}
		.st12 {marker-start:url(#mrkr7-101);stroke:#000000;stroke-linecap:round;stroke-linejoin:round;stroke-width:0.24}
		.st13 {fill:#ffffff;stroke:#000000;stroke-linecap:round;stroke-linejoin:round;stroke-width:0.24}
		.st14 {font-size:1em}
		.st15 {marker-end:url(#mrkr12-52);stroke:#000000;stroke-dasharray:1.68,1.2;stroke-linecap:round;stroke-linejoin:round;stroke-width:0.24}
		.st16 {fill:#ffffff;stroke:none;stroke-linecap:butt}
		.st17 {stroke:none;stroke-linecap:round;stroke-linejoin:round;stroke-width:0.75}
		.st18 {fill:none;fill-rule:evenodd;font-size:12px;overflow:visible;stroke-linecap:square;stroke-miterlimit:3}
	]]>
	</style>

	<defs id="Markers">
		<g id="lend12">
			<path d="M 3 1 L 0 0 L 3 -1 " style="stroke-linecap:round;stroke-linejoin:round;fill:none"/>
		</g>
		<marker id="mrkr12-52" class="st6" orient="auto" markerUnits="strokeWidth" overflow="visible">
			<use xlink:href="#lend12" transform="scale(-11.5,-11.5) "/>
		</marker>
		<g id="lend7">
			<path
					d="M 1.84309 -0.959455 C 1.43792 -0.3808 0.784502 -0.0260248 0.0785258 -0.00137083 L 0.0785228 0.00137063 C 0.784499 0.0260235 1.43791 0.380798 1.84309 0.959452 "
					style="stroke-linecap:round;stroke-linejoin:round;fill:none"/>
		</g>
		<marker id="mrkr7-101" class="st6" orient="auto" markerUnits="strokeWidth" overflow="visible">
			<use xlink:href="#lend7" transform="scale(11.5) "/>
		</marker>
	</defs>
	<g>
		<title>Page-1</title>
		<g id="group2-1" transform="translate(0.12,-534.628)">
			<title>Class</title>
			<g id="shape3-2" transform="translate(72,1.13687E-013)">
				<title>Sheet.3</title>
				<path d="M0 570.75 L0 534.75 L0 570.75 Z" class="st1"/>
			</g>
			<g id="shape4-5">
				<title>Sheet.4</title>
				<path d="M72 570.75 L0 570.75 L72 570.75 Z" class="st1"/>
			</g>
			<g id="shape5-8">
				<title>Sheet.5</title>
				<path d="M72 570.75 L0 570.75 L72 570.75 Z" class="st1"/>
			</g>
			<g id="shape6-11">
				<title>Sheet.6</title>
				<path d="M72 570.75 L0 570.75 L72 570.75 Z" class="st1"/>
			</g>
			<g id="shape7-14">
				<title>Sheet.7</title>
				<desc>DFU controller</desc>
				<path d="M72 570.75 L72 534.75 L0 534.75 L0 570.75 L72 570.75 ZM0 570.75 L0 534.75 L0 570.75 ZM72 534.75 L72 570.75
							 L72 534.75 Z" class="st1"/>
				<path d="M72 570.75 L72 534.75" class="st2"/>
				<path d="M0 570.75 L0 534.75" class="st2"/>
				<path d="M0 534.75 L72 534.75" class="st2"/>
				<path d="M0 570.75 L72 570.75" class="st2"/>
				<text x="8.22" y="555.15" class="st3">DFU controller</text>			</g>
		</g>
		<g id="shape8-21" transform="translate(36.3876,606.868) scale(1,-1)">
			<title>Lifeline</title>
			<path d="M0 570.75 L0 73.83" class="st4"/>
		</g>
		<g id="group9-24" transform="translate(353.884,-534.628)">
			<title>Class.9</title>
			<g id="shape10-25" transform="translate(72,1.13687E-013)">
				<title>Sheet.10</title>
				<path d="M0 570.75 L0 534.75 L0 570.75 Z" class="st1"/>
			</g>
			<g id="shape11-28">
				<title>Sheet.11</title>
				<path d="M72 570.75 L0 570.75 L72 570.75 Z" class="st1"/>
			</g>
			<g id="shape12-31">
				<title>Sheet.12</title>
				<path d="M72 570.75 L0 570.75 L72 570.75 Z" class="st1"/>
			</g>
			<g id="shape13-34">
				<title>Sheet.13</title>
				<path d="M72 570.75 L0 570.75 L72 570.75 Z" class="st1"/>
			</g>
			<g id="shape14-37">
				<title>Sheet.14</title>
				<desc>DFU target</desc>
				<path d="M72 570.75 L72 534.75 L0 534.75 L0 570.75 L72 570.75 ZM0 570.75 L0 534.75 L0 570.75 ZM72 534.75 L72 570.75
							 L72 534.75 Z" class="st1"/>
				<path d="M72 570.75 L72 534.75" class="st2"/>
				<path d="M0 570.75 L0 534.75" class="st2"/>
				<path d="M0 534.75 L72 534.75" class="st2"/>
				<path d="M0 570.75 L72 570.75" class="st2"/>
				<text x="15.55" y="555.15" class="st3">DFU target</text>			</g>
		</g>
		<g id="shape15-44" transform="translate(389.884,606.868) scale(1,-1)">
			<title>Lifeline.15</title>
			<path d="M0 570.75 L0 73.83" class="st4"/>
		</g>
		<g id="shape22-47" transform="translate(37.1328,-308.423)">
			<title>Message (seq.diag).22</title>
			<desc>Write : DFU Control Point – OpCode = 3 (Receive Firmware Image)</desc>
			<path d="M0 570.75 L352.53 570.75" class="st5"/>
			<rect x="55.668" y="556.95" width="238.963" height="9.59985" class="st7"/>
			<text x="55.67" y="564.15" class="st8">Write : <tspan class="st9">DFU Control Point </tspan>– OpCode = 3 (Receive Firmware Image)</text>		</g>
		<g id="shape23-56" transform="translate(36.3876,-280.077)">
			<title>Message (seq.diag).23</title>
			<desc>Write : DFU Packet – first part of the firmware image</desc>
			<path d="M0 570.75 L352.53 570.75" class="st5"/>
			<rect x="82.4593" y="556.948" width="185.381" height="9.59985" class="st7"/>
			<text x="82.46" y="564.15" class="st8">Write : <tspan class="st10">DFU Packet</tspan><tspan class="st10"> </tspan>– first part of the firmware image</text>		</g>
		<g id="shape28-65" transform="translate(37.5055,-152.518)">
			<title>Message (seq.diag).28</title>
			<desc>Write : DFU Control Point – OpCode = 4 (Validate Firmware)</desc>
			<path d="M0 570.75 L352.53 570.75" class="st5"/>
			<rect x="66.7815" y="556.948" width="216.736" height="9.59985" class="st7"/>
			<text x="66.78" y="564.15" class="st8">Write : <tspan class="st9">DFU Control Point </tspan> – OpCode = 4 (Validate Firmware)</text>		</g>
		<g id="shape29-73" transform="translate(36.3876,-78.8169)">
			<title>Message (seq.diag).29</title>
			<desc>Write :DFU Control Point – OpCode = 5 (Activate Image and Res...</desc>
			<path d="M0 570.75 L352.53 570.75" class="st5"/>
			<rect x="55.434" y="556.948" width="239.431" height="9.59985" class="st7"/>
			<text x="55.43" y="564.15" class="st8">Write :<tspan class="st9">DFU Control Point </tspan>– OpCode = 5 (Activate Image and Reset)</text>		</g>
		<g id="shape20-81" transform="translate(37.5055,-206.376)">
			<title>Message (seq.diag).20</title>
			<desc>Write : DFU Packet – final part of the firmware image</desc>
			<path d="M0 570.75 L352.53 570.75" class="st5"/>
			<rect x="80.4536" y="556.948" width="187.17" height="9.59985" class="st7"/>
			<text x="80.45" y="564.15" class="st8">Write : <tspan class="st10">DFU Packet</tspan><tspan class="st10"> </tspan>– final part of the firmware image </text>		</g>
		<g id="shape21-90" transform="translate(992.805,275.081) rotate(90)">
			<title>60 degree double</title>
			<desc>Firmware update</desc>
			<path d="M0 552.75 L10.39 534.75 L10.39 546.63 L117.17 546.63 L117.17 534.75 L127.56 552.75 L117.17 570.75 L117.17 558.87
						 L10.39 558.87 L10.39 570.75 L0 552.75 Z" class="st11"/>
			<text x="-93.79" y="-550.35" transform="rotate(180)" class="st8">Firmware update</text>		</g>
		<g id="shape25-93" transform="translate(988.128,425.317) rotate(90)">
			<title>60 degree double.25</title>
			<desc>Validation</desc>
			<path d="M0 548.07 L13.09 525.39 L13.09 540.36 L63.44 540.36 L63.44 525.39 L76.54 548.07 L63.44 570.75 L63.44 555.78
						 L13.09 555.78 L13.09 570.75 L0 548.07 Z" class="st11"/>
			<text x="-55.84" y="-545.67" transform="rotate(180)" class="st8">Validation</text>		</g>
		<g id="shape31-96" transform="translate(36.3876,-50.4704)">
			<title>Message (seq.diag).31</title>
			<desc>GAP Disconnect</desc>
			<path d="M0 570.75 L352.53 570.75" class="st12"/>
			<rect x="144.693" y="556.948" width="58.6912" height="9.59985" class="st7"/>
			<text x="144.69" y="564.15" class="st8">GAP Disconnect </text>		</g>
		<g id="shape33-104" transform="translate(355.018,-0.12)">
			<title>Process</title>
			<desc>Activate new image, reset, and run</desc>
			<rect x="0" y="535.244" width="72" height="35.5039" class="st13"/>
			<text x="13.32" y="545.8" class="st8">Activate new <tspan x="5.09" dy="1.2em" class="st14">image</tspan>, reset, and <tspan
						x="30.22" dy="1.2em" class="st14">run </tspan></text>		</g>
		<g id="shape1-109" transform="translate(992.805,76.6554) rotate(90)">
			<title>60 degree double.1</title>
			<desc>Start and initialization</desc>
			<path d="M0 552.75 L10.39 534.75 L10.39 546.63 L97.32 546.63 L97.32 534.75 L107.72 552.75 L97.32 570.75 L97.32 558.87
						 L10.39 558.87 L10.39 570.75 L0 552.75 Z" class="st11"/>
			<text x="-91.88" y="-550.35" transform="rotate(180)" class="st8">Start and initialization</text>		</g>
		<g id="shape16-112" transform="translate(36.9465,-496.927)">
			<title>Message (seq.diag)</title>
			<desc>Write : DFU Control Point – Op Code = 1 (Start DFU) ReqOpCode...</desc>
			<path d="M0 570.75 L352.53 570.75" class="st15"/>
			<rect x="-6.91723" y="556.948" width="364.134" height="9.59985" class="st7"/>
			<text x="-6.92" y="564.15" class="st8">Write : <tspan class="st9">DFU Control Point </tspan>– Op Code = 1 (Start DFU) ReqOpCode = 0x01 (SD), 0x02 (BL), 0x04 (APP)</text>		</g>
		<g id="shape17-120" transform="translate(36.9465,-435.274)">
			<title>Message (seq.diag).1</title>
			<desc>Write : DFU Control Point - OpCode = 2 (Initialize DFU Parame...</desc>
			<path d="M0 570.75 L352.53 570.75" class="st5"/>
			<rect x="-12.6932" y="556.948" width="377.912" height="9.59985" class="st7"/>
			<text x="-12.69" y="564.15" class="st8">Write : <tspan class="st9">DFU Control Point </tspan>- OpCode = 2 (Initialize DFU Parameters), ReqOpCode = 0 (Receive Init Packet)</text>		</g>
		<g id="shape18-128" transform="translate(36.9465,-409.762)">
			<title>Message (seq.diag).16</title>
			<desc>Write : DFU Packet – init data</desc>
			<path d="M0 570.75 L352.53 570.75" class="st5"/>
			<rect x="122.467" y="556.948" width="105.366" height="9.59985" class="st7"/>
			<text x="122.47" y="564.15" class="st8">Write : <tspan class="st10">DFU Packet</tspan> – init data</text>		</g>
		<g id="shape19-136" transform="translate(38.0645,-477.085)">
			<title>Message (seq.diag).19</title>
			<desc>Write image size to the DFU Packet characteristic</desc>
			<path d="M0 570.75 L352.53 570.75" class="st5"/>
			<rect x="88.2358" y="556.948" width="176.054" height="9.59985" class="st7"/>
			<text x="88.24" y="564.15" class="st8">Write image size to the <tspan class="st10">DFU Packet</tspan> characteristic</text>		</g>
		<g id="shape24-144" transform="translate(391.301,-457.242) scale(-1,1)">
			<title>Message (seq.diag).48</title>
			<desc>Notification :DFU Control Point – OpCode = 16 ReqOpCode = 1 R...</desc>
			<path d="M0 570.75 L352.53 570.75" class="st5"/>
			<rect x="36.9647" y="556.948" width="280.822" height="9.59985" class="st7"/>
			<text x="-317.79" y="564.15" transform="scale(-1,1)" class="st8">Notification :<tspan class="st9">DFU Control Point </tspan>– OpCode = 16 ReqOpCode = 1 RespValue = 1</text>		</g>
		<g id="shape26-152" transform="translate(388.913,-348.108) scale(-1,1)">
			<title>Message (seq.diag).49</title>
			<desc>Notification :DFU Control Point – OpCode = 16 ReqOpCode = 2 R...</desc>
			<path d="M0 570.75 L352.53 570.75" class="st5"/>
			<rect x="36.9647" y="556.948" width="280.822" height="9.59985" class="st7"/>
			<text x="-317.79" y="564.15" transform="scale(-1,1)" class="st8">Notification :<tspan class="st9">DFU Control Point </tspan>– OpCode = 16 ReqOpCode = 2 RespValue = 1</text>		</g>
		<g id="shape30-160" transform="translate(387.795,-180.864) scale(-1,1)">
			<title>Message (seq.diag).30</title>
			<desc>Notification :DFU Control Point – OpCode = 16 ReqOpCode = 3 R...</desc>
			<path d="M0 570.75 L352.53 570.75" class="st5"/>
			<rect x="36.9647" y="556.948" width="280.822" height="9.59985" class="st7"/>
			<text x="-317.79" y="564.15" transform="scale(-1,1)" class="st8">Notification :<tspan class="st9">DFU Control Point </tspan>– OpCode = 16 ReqOpCode = 3 RespValue = 1</text>		</g>
		<g id="shape32-168" transform="translate(390.031,-118.502) scale(-1,1)">
			<title>Message (seq.diag).32</title>
			<desc>Notification :DFU Control Point – OpCode = 16 ReqOpCode = 4 R...</desc>
			<path d="M0 570.75 L352.53 570.75" class="st5"/>
			<rect x="36.9647" y="556.948" width="280.822" height="9.59985" class="st7"/>
			<text x="-317.79" y="564.15" transform="scale(-1,1)" class="st8">Notification :<tspan class="st9">DFU Control Point </tspan>– OpCode = 16 ReqOpCode = 4 RespValue = 1</text>		</g>
		<g id="shape34-176" transform="translate(36.3876,-513.935)">
			<title>Message (seq.diag).34</title>
			<desc>Enable DFU Control Point notification (Write 0x0001 to CCCD)</desc>
			<path d="M0 570.75 L352.53 570.75" class="st15"/>
			<rect x="64.4397" y="556.948" width="221.42" height="9.59985" class="st16"/>
			<text x="64.44" y="564.15" class="st8">Enable DFU Control Point notification (Write 0x0001 to CCCD)</text>		</g>
		<g id="shape36-183" transform="translate(36.3876,-380.707)">
			<title>Message (seq.diag).36</title>
			<desc>Write : DFU Control Point - OpCode = 2 (Initialize DFU Parame...</desc>
			<path d="M0 570.75 L352.53 570.75" class="st5"/>
			<rect x="-15.3609" y="556.948" width="383.247" height="9.59985" class="st7"/>
			<text x="-15.36" y="564.15" class="st8">Write : <tspan class="st9">DFU Control Point </tspan>- OpCode = 2 (Initialize DFU Parameters), ReqOpCode = 1 (Init Packet Complete)</text>		</g>
		<g id="shape37-191" transform="translate(205.632,-270.155)">
			<title>Dynamic connector</title>
			<desc>...</desc>
			<path d="M7.09 570.75 L7.09 613.27" class="st17"/>
			<text x="3.75" y="594.41" class="st8">...</text>		</g>
	</g>
</svg>
