<?xml version="1.0" encoding="UTF-8" standalone="no"?>
<!DOCTYPE svg PUBLIC "-//W3C//DTD SVG 1.1//EN" "http://www.w3.org/Graphics/SVG/1.1/DTD/svg11.dtd">
<!-- Generated by Microsoft Visio, SVG Export exp_dfu_ota_pkt_rcpt_notif_procedure.svg Page-1 -->
<svg xmlns="http://www.w3.org/2000/svg" xmlns:xlink="http://www.w3.org/1999/xlink" xmlns:ev="http://www.w3.org/2001/xml-events"
		width="7.73918in" height="10.8006in" viewBox="0 0 557.221 777.642" xml:space="preserve" color-interpolation-filters="sRGB"
		class="st22">
	<style type="text/css">
	<![CDATA[
		.st1 {fill:#ffffff}
		.st2 {stroke:#000000;stroke-linecap:round;stroke-linejoin:round;stroke-width:0.24}
		.st3 {fill:#000000;font-family:Arial;font-size:0.666664em;font-weight:bold}
		.st4 {stroke:#000000;stroke-dasharray:3.6,2.16;stroke-linecap:round;stroke-linejoin:round;stroke-width:0.24}
		.st5 {marker-end:url(#mrkr12-52);stroke:#000000;stroke-linecap:round;stroke-linejoin:round;stroke-width:0.24}
		.st6 {fill:#000000;fill-opacity:1;stroke:#000000;stroke-opacity:1;stroke-width:0.08695652173913}
		.st7 {fill:#ffffff;stroke:none;stroke-linecap:butt;stroke-width:7.2}
		.st8 {fill:#000000;font-family:Arial;font-size:0.666664em}
		.st9 {fill:#808000;font-size:1em}
		.st10 {fill:#800000;font-size:1em}
		.st11 {fill:#e8eef7;stroke:#000000;stroke-linecap:round;stroke-linejoin:round;stroke-width:0.24}
		.st12 {marker-start:url(#mrkr7-101);stroke:#000000;stroke-linecap:round;stroke-linejoin:round;stroke-width:0.24}
		.st13 {fill:#ffffff;stroke:#000000;stroke-linecap:round;stroke-linejoin:round;stroke-width:0.24}
		.st14 {font-size:1em}
		.st15 {fill:#ffffff;stroke:none;stroke-linecap:butt}
		.st16 {fill:#000000;font-family:Arial;font-size:0.583328em}
		.st17 {marker-end:url(#mrkr20-192);stroke:#000000;stroke-dasharray:1.68,1.2;stroke-linecap:round;stroke-linejoin:round;stroke-width:0.24}
		.st18 {marker-end:url(#mrkr12-218);stroke:#008000;stroke-linecap:round;stroke-linejoin:round;stroke-width:0.24}
		.st19 {fill:#008000;fill-opacity:1;stroke:#008000;stroke-opacity:1;stroke-width:0.08695652173913}
		.st20 {fill:#000000;font-family:Arial;font-size:0.499992em}
		.st21 {stroke:none;stroke-linecap:round;stroke-linejoin:round;stroke-width:0.24}
		.st22 {fill:none;fill-rule:evenodd;font-size:12px;overflow:visible;stroke-linecap:square;stroke-miterlimit:3}
	]]>
	</style>

	<defs id="Markers">
		<g id="lend12">
			<path d="M 3 1 L 0 0 L 3 -1 " style="stroke-linecap:round;stroke-linejoin:round;fill:none"/>
		</g>
		<marker id="mrkr12-52" class="st6" orient="auto" markerUnits="strokeWidth" overflow="visible">
			<use xlink:href="#lend12" transform="scale(-11.5,-11.5) "/>
		</marker>
		<g id="lend7">
			<path
					d="M 1.84309 -0.959455 C 1.43792 -0.3808 0.784502 -0.0260248 0.0785258 -0.00137083 L 0.0785228 0.00137063 C 0.784499 0.0260235 1.43791 0.380798 1.84309 0.959452 "
					style="stroke-linecap:round;stroke-linejoin:round;fill:none"/>
		</g>
		<marker id="mrkr7-101" class="st6" orient="auto" markerUnits="strokeWidth" overflow="visible">
			<use xlink:href="#lend7" transform="scale(11.5) "/>
		</marker>
		<g id="lend20">
			<path
					d="M 0 0.75 C -0.414214 0.75 -0.75 0.414214 -0.75 0 -0.75 -0.414214 -0.414214 -0.75 0 -0.75 0.414214 -0.75 0.75 -0.414214 0.75 0 0.75 0.414214 0.414214 0.75 0 0.75 Z "
					style="stroke-linecap:round;stroke-linejoin:round;fill:none"/>
		</g>
		<marker id="mrkr20-192" class="st6" refX="-8.625" orient="auto" markerUnits="strokeWidth" overflow="visible">
			<use xlink:href="#lend20" transform="scale(-11.5,-11.5) "/>
		</marker>
		<marker id="mrkr12-218" class="st19" orient="auto" markerUnits="strokeWidth" overflow="visible">
			<use xlink:href="#lend12" transform="scale(-11.5,-11.5) "/>
		</marker>
	</defs>
	<g>
		<title>Page-1</title>
		<g id="group1-1" transform="translate(0.12,-741.522)">
			<title>Class</title>
			<g id="shape2-2" transform="translate(72,0)">
				<title>Sheet.2</title>
				<path d="M0 777.64 L0 741.64 L0 777.64 Z" class="st1"/>
			</g>
			<g id="shape3-5">
				<title>Sheet.3</title>
				<path d="M72 777.64 L0 777.64 L72 777.64 Z" class="st1"/>
			</g>
			<g id="shape4-8">
				<title>Sheet.4</title>
				<path d="M72 777.64 L0 777.64 L72 777.64 Z" class="st1"/>
			</g>
			<g id="shape5-11">
				<title>Sheet.5</title>
				<path d="M72 777.64 L0 777.64 L72 777.64 Z" class="st1"/>
			</g>
			<g id="shape6-14">
				<title>Sheet.6</title>
				<desc>DFU controller</desc>
				<path d="M72 777.64 L72 741.64 L0 741.64 L0 777.64 L72 777.64 ZM0 777.64 L0 741.64 L0 777.64 ZM72 741.64 L72 777.64
							 L72 741.64 Z" class="st1"/>
				<path d="M72 777.64 L72 741.64" class="st2"/>
				<path d="M0 777.64 L0 741.64" class="st2"/>
				<path d="M0 741.64 L72 741.64" class="st2"/>
				<path d="M0 777.64 L72 777.64" class="st2"/>
				<text x="8.22" y="762.04" class="st3">DFU controller</text>			</g>
		</g>
		<g id="shape7-21" transform="translate(36.3831,813.762) scale(1,-1)">
			<title>Lifeline</title>
			<path d="M0 777.64 L0 92.22" class="st4"/>
		</g>
		<g id="group8-24" transform="translate(350.482,-741.522)">
			<title>Class.9</title>
			<g id="shape9-25" transform="translate(72,0)">
				<title>Sheet.9</title>
				<path d="M0 777.64 L0 741.64 L0 777.64 Z" class="st1"/>
			</g>
			<g id="shape10-28">
				<title>Sheet.10</title>
				<path d="M72 777.64 L0 777.64 L72 777.64 Z" class="st1"/>
			</g>
			<g id="shape11-31">
				<title>Sheet.11</title>
				<path d="M72 777.64 L0 777.64 L72 777.64 Z" class="st1"/>
			</g>
			<g id="shape12-34">
				<title>Sheet.12</title>
				<path d="M72 777.64 L0 777.64 L72 777.64 Z" class="st1"/>
			</g>
			<g id="shape13-37">
				<title>Sheet.13</title>
				<desc>DFU target</desc>
				<path d="M72 777.64 L72 741.64 L0 741.64 L0 777.64 L72 777.64 ZM0 777.64 L0 741.64 L0 777.64 ZM72 741.64 L72 777.64
							 L72 741.64 Z" class="st1"/>
				<path d="M72 777.64 L72 741.64" class="st2"/>
				<path d="M0 777.64 L0 741.64" class="st2"/>
				<path d="M0 741.64 L72 741.64" class="st2"/>
				<path d="M0 777.64 L72 777.64" class="st2"/>
				<text x="15.55" y="762.04" class="st3">DFU target</text>			</g>
		</g>
		<g id="shape14-44" transform="translate(386.482,813.762) scale(1,-1)">
			<title>Lifeline.15</title>
			<path d="M0 777.64 L0 71.74" class="st4"/>
		</g>
		<g id="shape15-47" transform="translate(37.1254,-499.726)">
			<title>Message (seq.diag).22</title>
			<desc>Write : DFU Control Point – OpCode = 3 (Receive Firmware Image)</desc>
			<path d="M0 777.64 L349.45 777.64" class="st5"/>
			<rect x="54.131" y="763.843" width="238.963" height="9.59985" class="st7"/>
			<text x="54.13" y="771.04" class="st8">Write : <tspan class="st9">DFU Control Point </tspan>– OpCode = 3 (Receive Firmware Image)</text>		</g>
		<g id="shape16-56" transform="translate(36.3831,-471.38)">
			<title>Message (seq.diag).16</title>
			<desc>Write : DFU Packet – first part of the firmware image</desc>
			<path d="M0 777.64 L350.19 777.64" class="st5"/>
			<rect x="81.2934" y="763.842" width="185.381" height="9.59985" class="st7"/>
			<text x="81.29" y="771.04" class="st8">Write : <tspan class="st10">DFU Packet</tspan><tspan class="st10"> </tspan>– first part of the firmware image</text>		</g>
		<g id="shape18-65" transform="translate(37.4966,-165.947)">
			<title>Message (seq.diag).18</title>
			<desc>Write : DFU Control Point – OpCode = 4 (Validate Firmware)</desc>
			<path d="M0 777.64 L348.61 777.64" class="st5"/>
			<rect x="64.8227" y="763.842" width="216.736" height="9.59985" class="st7"/>
			<text x="64.82" y="771.04" class="st8">Write : <tspan class="st9">DFU Control Point </tspan> – OpCode = 4 (Validate Firmware)</text>		</g>
		<g id="shape19-73" transform="translate(36.3831,-92.246)">
			<title>Message (seq.diag).19</title>
			<desc>Write :DFU Control Point – OpCode = 5 (Activate Image and Res...</desc>
			<path d="M0 777.64 L351.14 777.64" class="st5"/>
			<rect x="54.7406" y="763.842" width="239.431" height="9.59985" class="st7"/>
			<text x="54.74" y="771.04" class="st8">Write :<tspan class="st9">DFU Control Point </tspan>– OpCode = 5 (Activate Image and Reset)</text>		</g>
		<g id="shape20-81" transform="translate(37.4966,-219.805)">
			<title>Message (seq.diag).20</title>
			<desc>Write : DFU Packet – final part of the firmware image</desc>
			<path d="M0 777.64 L349.55 777.64" class="st5"/>
			<rect x="78.9672" y="763.842" width="187.17" height="9.59985" class="st7"/>
			<text x="78.97" y="771.04" class="st8">Write : <tspan class="st10">DFU Packet</tspan><tspan class="st10"> </tspan>– final part of the firmware image </text>		</g>
		<g id="shape21-90" transform="translate(1196.29,238.626) rotate(89.7092)">
			<title>60 degree double</title>
			<desc>Firmware update</desc>
			<path d="M0 759.64 L10.39 741.64 L10.39 753.52 L268.82 753.52 L268.82 741.64 L279.22 759.64 L268.82 777.64 L268.82 765.76
						 L10.39 765.76 L10.39 777.64 L0 759.64 Z" class="st11"/>
			<text x="-169.62" y="-757.24" transform="rotate(180)" class="st8">Firmware update</text>		</g>
		<g id="shape22-93" transform="translate(1193.04,570.592) rotate(90)">
			<title>60 degree double.22</title>
			<desc>Validation</desc>
			<path d="M0 754.96 L13.09 732.29 L13.09 747.25 L34.39 747.25 L34.39 732.29 L47.48 754.96 L34.39 777.64 L34.39 762.67
						 L13.09 762.67 L13.09 777.64 L0 754.96 Z" class="st11"/>
			<text x="-41.31" y="-752.56" transform="rotate(180)" class="st8">Validation</text>		</g>
		<g id="shape23-96" transform="translate(36.3831,-63.8995)">
			<title>Message (seq.diag).23</title>
			<desc>GAP Disconnect</desc>
			<path d="M0 777.64 L351.14 777.64" class="st12"/>
			<rect x="143.999" y="763.842" width="58.6912" height="9.59985" class="st7"/>
			<text x="144" y="771.04" class="st8">GAP Disconnect </text>		</g>
		<g id="shape24-104" transform="translate(347.648,-0.12)">
			<title>Process</title>
			<desc>Activate new image, reset, and run</desc>
			<rect x="0" y="742.138" width="72" height="35.5039" class="st13"/>
			<text x="13.32" y="752.69" class="st8">Activate new <tspan x="5.09" dy="1.2em" class="st14">image</tspan>, reset, and <tspan
						x="30.22" dy="1.2em" class="st14">run </tspan></text>		</g>
		<g id="shape25-109" transform="translate(1196.3,76.6554) rotate(90)">
			<title>60 degree double.1</title>
			<desc>Start and initialization</desc>
			<path d="M0 759.64 L10.39 741.64 L10.39 753.52 L97.32 753.52 L97.32 741.64 L107.72 759.64 L97.32 777.64 L97.32 765.76
						 L10.39 765.76 L10.39 777.64 L0 759.64 Z" class="st11"/>
			<text x="-91.88" y="-757.24" transform="rotate(180)" class="st8">Start and initialization</text>		</g>
		<g id="shape26-112" transform="translate(36.9398,-703.821)">
			<title>Message (seq.diag)</title>
			<desc>Write : DFU Control Point – OpCode = 1 (Start DFU) ReqOpCode ...</desc>
			<path d="M0 777.64 L349.16 777.64" class="st5"/>
			<rect x="-7.48642" y="763.842" width="361.911" height="9.59985" class="st7"/>
			<text x="-7.49" y="771.04" class="st8">Write : <tspan class="st9">DFU Control Point </tspan>– OpCode = 1 (Start DFU) ReqOpCode = 0x01 (SD), 0x02 (BL), 0x04 (APP)</text>		</g>
		<g id="shape29-120" transform="translate(38.0533,-683.978)">
			<title>Message (seq.diag).29</title>
			<desc>Write image size to the DFU Packet characteristic</desc>
			<path d="M0 777.64 L347.58 777.64" class="st5"/>
			<rect x="85.7623" y="763.842" width="176.054" height="9.59985" class="st7"/>
			<text x="85.76" y="771.04" class="st8">Write image size to the <tspan class="st10">DFU Packet</tspan> characteristic</text>		</g>
		<g id="shape30-128" transform="translate(388.092,-664.136) scale(-1,1)">
			<title>Message (seq.diag).48</title>
			<desc>Notification :DFU Control Point – OpCode = 16 ReqOpCode = 1 R...</desc>
			<path d="M0 777.64 L351.12 777.64" class="st5"/>
			<rect x="36.263" y="763.842" width="280.822" height="9.59985" class="st7"/>
			<text x="-317.08" y="771.04" transform="scale(-1,1)" class="st8">Notification :<tspan class="st9">DFU Control Point </tspan>– OpCode = 16 ReqOpCode = 1 RespValue = 1</text>		</g>
		<g id="shape31-136" transform="translate(387.505,-555.002) scale(-1,1)">
			<title>Message (seq.diag).49</title>
			<desc>Notification :DFU Control Point – OpCode = 16 ReqOpCode = 2 R...</desc>
			<path d="M0 777.64 L351.12 777.64" class="st5"/>
			<rect x="36.263" y="763.842" width="280.822" height="9.59985" class="st7"/>
			<text x="-317.08" y="771.04" transform="scale(-1,1)" class="st8">Notification :<tspan class="st9">DFU Control Point </tspan>– OpCode = 16 ReqOpCode = 2 RespValue = 1</text>		</g>
		<g id="shape32-144" transform="translate(386.392,-194.293) scale(-1,1)">
			<title>Message (seq.diag).30</title>
			<desc>Notification :DFU Control Point – OpCode = 16 ReqOpCode = 3 R...</desc>
			<path d="M0 777.64 L348.95 777.64" class="st5"/>
			<rect x="35.1764" y="763.842" width="280.822" height="9.59985" class="st7"/>
			<text x="-316" y="771.04" transform="scale(-1,1)" class="st8">Notification :<tspan class="st9">DFU Control Point </tspan>– OpCode = 16 ReqOpCode = 3 RespValue = 1</text>		</g>
		<g id="shape33-152" transform="translate(386.104,-119.884) scale(-1,1)">
			<title>Message (seq.diag).32</title>
			<desc>Notification :DFU Control Point – OpCode = 16 ReqOpCode = 4 R...</desc>
			<path d="M0 777.64 L348.61 777.64" class="st5"/>
			<rect x="35.0059" y="763.842" width="280.822" height="9.59985" class="st7"/>
			<text x="-315.83" y="771.04" transform="scale(-1,1)" class="st8">Notification :<tspan class="st9">DFU Control Point </tspan>– OpCode = 16 ReqOpCode = 4 RespValue = 1</text>		</g>
		<g id="shape34-160" transform="translate(36.3831,-720.829)">
			<title>Message (seq.diag).34</title>
			<desc>Enable DFU Control Point notification (Write 0x0001 to CCCD)</desc>
			<path d="M0 777.64 L350.67 777.64" class="st5"/>
			<rect x="63.51" y="763.842" width="221.42" height="9.59985" class="st15"/>
			<text x="63.51" y="771.04" class="st8">Enable DFU Control Point notification (Write 0x0001 to CCCD)</text>		</g>
		<g id="shape35-167" transform="translate(36.3831,-526.655)">
			<title>Message (seq.diag).35</title>
			<desc>Write : DFU Control Point - OpCode = 8 (Packet Receipt Notifi...</desc>
			<path d="M0 777.64 L349.72 777.64" class="st5"/>
			<rect x="15.9386" y="764.444" width="317.844" height="8.39987" class="st7"/>
			<text x="15.94" y="770.74" class="st16">Write : <tspan class="st9">DFU Control Point </tspan>- OpCode = 8 (Packet Receipt Notification Request), Number of Packets = N</text>		</g>
		<g id="group36-175" transform="translate(511.774,983.273) rotate(180)">
			<title>Note, Constraint</title>
			<g id="shape37-176" transform="translate(32.4567,-10.6299)">
				<title>Sheet.37</title>
			</g>
			<g id="shape38-177" transform="translate(32.4567,-10.6299)">
				<title>Sheet.38</title>
			</g>
			<g id="shape39-178" transform="translate(32.4567,-10.6299)">
				<title>Sheet.39</title>
			</g>
			<g id="shape40-179" transform="translate(32.4567,-10.6299)">
				<title>Sheet.40</title>
			</g>
			<g id="shape41-180" transform="translate(32.4567,-10.6299)">
				<title>Sheet.41</title>
			</g>
			<g id="shape42-181" transform="translate(32.4567,-10.6299)">
				<title>Sheet.42</title>
			</g>
			<g id="shape43-182" transform="translate(32.4567,-10.6299)">
				<title>Sheet.43</title>
			</g>
			<g id="shape44-183" transform="translate(32.4567,-10.6299)">
				<title>Sheet.44</title>
			</g>
			<g id="shape45-184" transform="translate(32.4567,-10.6299)">
				<title>Sheet.45</title>
			</g>
			<g id="shape46-185" transform="translate(32.4567,-10.6299)">
				<title>Sheet.46</title>
			</g>
			<g id="shape47-186" transform="translate(32.4567,-10.6299)">
				<title>Sheet.47</title>
			</g>
			<g id="shape48-187" transform="translate(69.962,-9.72496) rotate(2.76442)">
				<title>Sheet.48</title>
				<path d="M0 777.64 L90.76 777.64" class="st17"/>
			</g>
			<g id="shape49-193" transform="translate(83.9196,1520.65) rotate(180)">
				<title>Sheet.49</title>
			</g>
			<g id="shape50-196" transform="translate(-42.5197,13.3718)">
				<title>Sheet.50</title>
				<desc>Subscription for packet receipt notification. There will be n...</desc>
				<path d="M0 768.64 L9 777.64 L9 768.64 L0 768.64 ZM0 768.64 L9 768.64 L9 777.64 L107.43 777.64 L107.43 729.64 L0
							 729.64 L0 768.64 Z" class="st13"/>
				<text x="-103.43" y="-770.44" transform="rotate(180)" class="st8">Subscription for packet <tspan x="-103.43"
							dy="1.2em" class="st14">receipt notification</tspan>. There <tspan x="-103.43" dy="1.2em" class="st14">will be no response for this </tspan><tspan
							x="-103.43" dy="1.2em" class="st14">command from </tspan>The DFU <tspan x="-103.43" dy="1.2em"
							class="st14">t</tspan>arget.</text>			</g>
		</g>
		<g id="shape51-204" transform="translate(36.3831,-440.199)">
			<title>Message (seq.diag).51</title>
			<desc>Write : DFU Packet – Nth part of the firmware image</desc>
			<path d="M0 777.64 L350.19 777.64" class="st5"/>
			<rect x="81.5122" y="763.842" width="184.943" height="9.59985" class="st7"/>
			<text x="81.51" y="771.04" class="st8">Write : <tspan class="st10">DFU Packet</tspan><tspan class="st10"> </tspan>– Nth part of the firmware image</text>		</g>
		<g id="shape52-213" transform="translate(386.577,-391.301) scale(-1,1)">
			<title>Message (seq.diag).52</title>
			<desc>Notification :DFU Control Point – OpCode = 17 (Packet Receipt...</desc>
			<path d="M0 777.64 L349.45 777.64" class="st18"/>
			<rect x="41.4452" y="763.842" width="268.787" height="9.59985" class="st7"/>
			<text x="-310.23" y="771.04" transform="scale(-1,1)" class="st8">Notification :<tspan class="st9">DFU Control Point </tspan>– OpCode = 17 (Packet Receipt Notification)</text>		</g>
		<g id="shape53-222" transform="translate(36.3831,-366.449)">
			<title>Message (seq.diag).53</title>
			<desc>Write : DFU Packet – (N+1)th part of the firmware image</desc>
			<path d="M0 777.64 L350.67 777.64" class="st5"/>
			<rect x="74.5237" y="763.842" width="199.393" height="9.59985" class="st7"/>
			<text x="74.52" y="771.04" class="st8">Write : <tspan class="st10">DFU Packet</tspan><tspan class="st10"> </tspan>– (N+1)th part of the firmware image</text>		</g>
		<g id="shape69-231" transform="translate(36.3831,-336.026)">
			<title>Message (seq.diag).69</title>
			<desc>Write : DFU Packet – (2 x N)th part of the firmware image</desc>
			<path d="M0 777.64 L349.72 777.64" class="st5"/>
			<rect x="72.1646" y="763.842" width="203.166" height="9.59985" class="st7"/>
			<text x="72.16" y="771.04" class="st8">Write : <tspan class="st10">DFU Packet</tspan><tspan class="st10"> </tspan>– (2 x N)th part of the firmware image</text>		</g>
		<g id="shape70-240" transform="translate(387.049,-277.207) scale(-1,1)">
			<title>Message (seq.diag).70</title>
			<desc>Notification :DFU Control Point – OpCode = 17 (Packet Receipt...</desc>
			<path d="M0 777.64 L350.67 777.64" class="st18"/>
			<rect x="42.0525" y="763.842" width="268.787" height="9.59985" class="st7"/>
			<text x="-310.84" y="771.04" transform="scale(-1,1)" class="st8">Notification :<tspan class="st9">DFU Control Point </tspan>– OpCode = 17 (Packet Receipt Notification)</text>		</g>
		<g id="shape85-248" transform="translate(36.3831,-254.529)">
			<title>Message (seq.diag).85</title>
			<desc>Write : DFU Packet – ((2 x N)+1)th part of the firmware image</desc>
			<path d="M0 777.64 L350.19 777.64" class="st5"/>
			<rect x="65.1761" y="763.842" width="217.616" height="9.59985" class="st7"/>
			<text x="65.18" y="771.04" class="st8">Write : <tspan class="st10">DFU Packet</tspan><tspan class="st10"> </tspan>– ((2 x N)+1)th part of the firmware image</text>		</g>
		<g id="shape86-257" transform="translate(3.23889,-301.735)">
			<title>Action</title>
			<desc>Wait for the packet receipt notification</desc>
			<path d="M0 770.84 A6.80088 6.80088 -180 0 0 6.8 777.64 L58.77 777.64 A6.80088 6.80088 -180 0 0 65.57 770.84 L65.57 757.24
						 A6.80088 6.80088 -180 0 0 58.77 750.44 L6.8 750.44 A6.80088 6.80088 -180 0 0 0 757.24 L0 770.84 Z"
					class="st13"/>
			<rect x="6.10795" y="756.84" width="50.0202" height="14.4001" class="st7"/>
			<text x="6.11" y="762.24" class="st20">Wait for the packet  <tspan x="6.11" dy="1.2em" class="st14">r</tspan>eceipt notification</text>		</g>
		<g id="shape54-262" transform="translate(3.42709,-408.545)">
			<title>Action.54</title>
			<desc>Wait for the packet receipt notification</desc>
			<path d="M0 770.84 A6.80088 6.80088 -180 0 0 6.8 777.64 L58.77 777.64 A6.80088 6.80088 -180 0 0 65.57 770.84 L65.57 757.24
						 A6.80088 6.80088 -180 0 0 58.77 750.44 L6.8 750.44 A6.80088 6.80088 -180 0 0 0 757.24 L0 770.84 Z"
					class="st13"/>
			<rect x="6.10795" y="756.84" width="50.0202" height="14.4001" class="st7"/>
			<text x="6.11" y="762.24" class="st20">Wait for the packet  <tspan x="6.11" dy="1.2em" class="st14">r</tspan>eceipt notification</text>		</g>
		<g id="shape87-267" transform="translate(36.7353,-644.293)">
			<title>Message (seq.diag).1</title>
			<desc>Write : DFU Control Point - OpCode = 2 (Initialize DFU Parame...</desc>
			<path d="M0 777.64 L349.75 777.64" class="st5"/>
			<rect x="-14.0823" y="763.842" width="377.912" height="9.59985" class="st7"/>
			<text x="-14.08" y="771.04" class="st8">Write : <tspan class="st9">DFU Control Point </tspan>- OpCode = 2 (Initialize DFU Parameters), ReqOpCode = 0 (Receive Init Packet)</text>		</g>
		<g id="shape88-275" transform="translate(36.7353,-618.781)">
			<title>Message (seq.diag).88</title>
			<desc>Write : DFU Packet – init data</desc>
			<path d="M0 777.64 L349.75 777.64" class="st5"/>
			<rect x="121.078" y="763.842" width="105.366" height="9.59985" class="st7"/>
			<text x="121.08" y="771.04" class="st8">Write : <tspan class="st10">DFU Packet</tspan> – init data</text>		</g>
		<g id="shape89-283" transform="translate(36.3831,-590.435)">
			<title>Message (seq.diag).36</title>
			<desc>Write : DFU Control Point - OpCode = 2 (Initialize DFU Parame...</desc>
			<path d="M0 777.64 L350.1 777.64" class="st5"/>
			<rect x="-16.574" y="763.842" width="383.247" height="9.59985" class="st7"/>
			<text x="-16.57" y="771.04" class="st8">Write : <tspan class="st9">DFU Control Point </tspan>- OpCode = 2 (Initialize DFU Parameters), ReqOpCode = 1 (Init Packet Complete)</text>		</g>
		<g id="shape90-291" transform="translate(218.567,-471.38)">
			<title>Dynamic connector</title>
			<desc>...</desc>
			<path d="M-7.09 777.64 L-7.09 808.82" class="st21"/>
			<rect x="-10.5991" y="781.346" width="6.6676" height="9.59985" class="st7"/>
			<text x="-10.6" y="788.55" class="st8">...</text>		</g>
		<g id="shape91-296" transform="translate(204.393,-336.026)">
			<title>Dynamic connector.91</title>
			<desc>...</desc>
			<path d="M6.85 777.64 L7.32 747.22" class="st21"/>
			<rect x="4.45519" y="752.615" width="6.6676" height="9.59985" class="st7"/>
			<text x="4.46" y="759.81" class="st8">...</text>		</g>
		<g id="shape92-301" transform="translate(204.79,-254.529)">
			<title>Dynamic connector.92</title>
			<desc>...</desc>
			<path d="M6.69 777.64 L7.48 812.37" class="st21"/>
			<rect x="3.39391" y="782.316" width="6.6676" height="9.59985" class="st7"/>
			<text x="3.39" y="789.52" class="st8">...</text>		</g>
	</g>
</svg>
