<?xml version="1.0" encoding="UTF-8" standalone="no"?>
<!DOCTYPE svg PUBLIC "-//W3C//DTD SVG 1.1//EN" "http://www.w3.org/Graphics/SVG/1.1/DTD/svg11.dtd">
<!-- Generated by Microsoft Visio, SVG Export exp_dfu_ota_link_loss.svg Page-1 -->
<svg xmlns="http://www.w3.org/2000/svg" xmlns:xlink="http://www.w3.org/1999/xlink" xmlns:ev="http://www.w3.org/2001/xml-events"
		width="6.5801in" height="9.47184in" viewBox="0 0 473.768 681.972" xml:space="preserve" color-interpolation-filters="sRGB"
		class="st16">
	<style type="text/css">
	<![CDATA[
		.st1 {fill:#ffffff}
		.st2 {stroke:#000000;stroke-linecap:round;stroke-linejoin:round;stroke-width:0.24}
		.st3 {fill:#000000;font-family:Arial;font-size:0.666664em;font-weight:bold}
		.st4 {stroke:#000000;stroke-dasharray:3.6,2.16;stroke-linecap:round;stroke-linejoin:round;stroke-width:0.24}
		.st5 {marker-end:url(#mrkr12-49);stroke:#000000;stroke-linecap:round;stroke-linejoin:round;stroke-width:0.24}
		.st6 {fill:#000000;fill-opacity:1;stroke:#000000;stroke-opacity:1;stroke-width:0.08695652173913}
		.st7 {fill:#ffffff;stroke:none;stroke-linecap:butt;stroke-width:7.2}
		.st8 {fill:#000000;font-family:Arial;font-size:0.666664em}
		.st9 {fill:#800000;font-size:1em}
		.st10 {stroke:#000000;stroke-dasharray:0,2.16;stroke-linecap:round;stroke-linejoin:round;stroke-width:0.24}
		.st11 {fill:#e8eef7;stroke:#000000;stroke-linecap:round;stroke-linejoin:round;stroke-width:0.24}
		.st12 {fill:#ffffff;stroke:#000000;stroke-linecap:round;stroke-linejoin:round;stroke-width:0.24}
		.st13 {fill:#ffffff;stroke:none;stroke-linecap:butt}
		.st14 {fill:#808000;font-size:1em}
		.st15 {stroke:none;stroke-linecap:round;stroke-linejoin:round;stroke-width:0.24}
		.st16 {fill:none;fill-rule:evenodd;font-size:12px;overflow:visible;stroke-linecap:square;stroke-miterlimit:3}
	]]>
	</style>

	<defs id="Markers">
		<g id="lend12">
			<path d="M 3 1 L 0 0 L 3 -1 " style="stroke-linecap:round;stroke-linejoin:round;fill:none"/>
		</g>
		<marker id="mrkr12-49" class="st6" orient="auto" markerUnits="strokeWidth" overflow="visible">
			<use xlink:href="#lend12" transform="scale(-11.5,-11.5) "/>
		</marker>
	</defs>
	<g>
		<title>Page-1</title>
		<g id="group1-1" transform="translate(0.12,-645.852)">
			<title>Class</title>
			<g id="shape2-2" transform="translate(72,0)">
				<title>Sheet.2</title>
				<path d="M0 681.97 L0 645.97 L0 681.97 Z" class="st1"/>
			</g>
			<g id="shape3-5">
				<title>Sheet.3</title>
				<path d="M72 681.97 L0 681.97 L72 681.97 Z" class="st1"/>
			</g>
			<g id="shape4-8">
				<title>Sheet.4</title>
				<path d="M72 681.97 L0 681.97 L72 681.97 Z" class="st1"/>
			</g>
			<g id="shape5-11">
				<title>Sheet.5</title>
				<path d="M72 681.97 L0 681.97 L72 681.97 Z" class="st1"/>
			</g>
			<g id="shape6-14">
				<title>Sheet.6</title>
				<desc>DFU controller</desc>
				<path d="M72 681.97 L72 645.97 L0 645.97 L0 681.97 L72 681.97 ZM0 681.97 L0 645.97 L0 681.97 ZM72 645.97 L72 681.97
							 L72 645.97 Z" class="st1"/>
				<path d="M72 681.97 L72 645.97" class="st2"/>
				<path d="M0 681.97 L0 645.97" class="st2"/>
				<path d="M0 645.97 L72 645.97" class="st2"/>
				<path d="M0 681.97 L72 681.97" class="st2"/>
				<text x="8.22" y="666.37" class="st3">DFU controller</text>			</g>
		</g>
		<g id="group8-21" transform="translate(355.301,-645.852)">
			<title>Class.9</title>
			<g id="shape9-22" transform="translate(72,0)">
				<title>Sheet.9</title>
				<path d="M0 681.97 L0 645.97 L0 681.97 Z" class="st1"/>
			</g>
			<g id="shape10-25">
				<title>Sheet.10</title>
				<path d="M72 681.97 L0 681.97 L72 681.97 Z" class="st1"/>
			</g>
			<g id="shape11-28">
				<title>Sheet.11</title>
				<path d="M72 681.97 L0 681.97 L72 681.97 Z" class="st1"/>
			</g>
			<g id="shape12-31">
				<title>Sheet.12</title>
				<path d="M72 681.97 L0 681.97 L72 681.97 Z" class="st1"/>
			</g>
			<g id="shape13-34">
				<title>Sheet.13</title>
				<desc>DFU target</desc>
				<path d="M72 681.97 L72 645.97 L0 645.97 L0 681.97 L72 681.97 ZM0 681.97 L0 645.97 L0 681.97 ZM72 645.97 L72 681.97
							 L72 645.97 Z" class="st1"/>
				<path d="M72 681.97 L72 645.97" class="st2"/>
				<path d="M0 681.97 L0 645.97" class="st2"/>
				<path d="M0 645.97 L72 645.97" class="st2"/>
				<path d="M0 681.97 L72 681.97" class="st2"/>
				<text x="15.55" y="666.37" class="st3">DFU target</text>			</g>
		</g>
		<g id="shape14-41" transform="translate(391.301,718.092) scale(1,-1)">
			<title>Lifeline.15</title>
			<path d="M0 681.97 L0 632.53" class="st4"/>
		</g>
		<g id="shape20-44" transform="translate(35.373,-335.315) rotate(-0.114516)">
			<title>Message (seq.diag).20</title>
			<desc>Write : DFU Packet – Nth part of the firmware image</desc>
			<path d="M0 681.97 L354.57 681.97" class="st5"/>
			<rect x="85.043" y="667.817" width="184.943" height="9.59985" transform="rotate(0.114516)" class="st7"/>
			<text x="85.04" y="675.02" transform="rotate(0.114516)" class="st8">Write : <tspan class="st9">DFU Packet</tspan><tspan
						class="st9"> </tspan>– Nth part of the firmware image</text>		</g>
		<g id="shape21-54" transform="translate(897.012,553.585) rotate(90)">
			<title>Sheet.21</title>
			<path d="M0 681.97 L42.52 681.97" class="st10"/>
		</g>
		<g id="shape25-57" transform="translate(34.0441,-115.985) rotate(-0.114086)">
			<title>Message (seq.diag).25</title>
			<desc>Write : DFU Packet – (N+1)th part firmware image</desc>
			<path d="M0 681.97 L355.9 681.97" class="st5"/>
			<rect x="88.4878" y="667.817" width="177.155" height="9.59985" transform="rotate(0.114086)" class="st7"/>
			<text x="88.49" y="675.02" transform="rotate(0.114086)" class="st8">Write : <tspan class="st9">DFU Packet</tspan><tspan
						class="st9"> </tspan>– (N+1)th part firmware image </text>		</g>
		<g id="shape26-66" transform="translate(1119.62,72.4035) rotate(90)">
			<title>60 degree double</title>
			<desc>Start and initialization</desc>
			<path d="M0 663.97 L10.39 645.97 L10.39 657.85 L91.65 657.85 L91.65 645.97 L102.05 663.97 L91.65 681.97 L91.65 670.09
						 L10.39 670.09 L10.39 681.97 L0 663.97 Z" class="st11"/>
			<text x="-89.04" y="-661.57" transform="rotate(180)" class="st8">Start and initialization</text>		</g>
		<g id="shape27-69" transform="translate(1123.16,307.515) rotate(90)">
			<title>60 degree double.24</title>
			<desc>Link loss</desc>
			<path d="M0 667.8 L8.18 653.63 L8.18 662.98 L105.2 662.98 L105.2 653.63 L113.39 667.8 L105.2 681.97 L105.2 672.62 L8.18
						 672.62 L8.18 681.97 L0 667.8 Z" class="st11"/>
			<text x="-72.26" y="-665.4" transform="rotate(180)" class="st8">Link loss</text>		</g>
		<g id="shape37-72" transform="translate(391.301,762.88) scale(1,-1)">
			<title>Lifeline.37</title>
			<path d="M0 681.97 L0 385.18" class="st4"/>
		</g>
		<g id="shape16-75" transform="translate(355.301,-236.104)">
			<title>Process.16</title>
			<desc>Advertise</desc>
			<rect x="0" y="656.319" width="72" height="25.6535" class="st12"/>
			<text x="19.33" y="671.55" class="st8">Advertise</text>		</g>
		<g id="shape17-78" transform="translate(391.301,1127.84) scale(1,-1)">
			<title>Lifeline.17</title>
			<path d="M0 681.97 L0 445.99" class="st4"/>
		</g>
		<g id="shape18-81" transform="translate(34.2628,-169.843) rotate(-0.114157)">
			<title>Message (seq.diag).18</title>
			<desc>Write : DFU Control Point – OpCode = 7 (Report Received Image...</desc>
			<path d="M0 681.97 L355.68 681.97" class="st5"/>
			<rect x="52.1292" y="667.817" width="251.877" height="9.59985" transform="rotate(0.114157)" class="st13"/>
			<text x="52.13" y="675.02" transform="rotate(0.114157)" class="st8">Write : <tspan class="st14">DFU Control Point </tspan>– OpCode = 7 (Report Received Image Size)</text>		</g>
		<g id="shape24-89" transform="translate(391.301,-145.041) scale(-1,1)">
			<title>Message (seq.diag).24</title>
			<desc>Notification :DFU Control Point – OpCode = 16 ReqOpCode = 7 R...</desc>
			<path d="M0 681.97 L355.9 681.97" class="st5"/>
			<rect x="11.7492" y="668.173" width="336.849" height="9.59985" class="st7"/>
			<text x="-348.6" y="675.37" transform="scale(-1,1)" class="st8">Notification :<tspan class="st14">DFU Control Point </tspan>– OpCode = 16 ReqOpCode = 7 RespValue = 1, bytes received</text>		</g>
		<g id="shape19-97" transform="translate(35.402,721.069) scale(1,-1)">
			<title>Lifeline.19</title>
			<path d="M0 681.97 L0 40.63" class="st4"/>
		</g>
		<g id="shape29-100" transform="translate(1119.62,222.64) rotate(90)">
			<title>60 degree double.29</title>
			<desc>Firmware update</desc>
			<path d="M0 663.97 L10.39 645.97 L10.39 657.85 L74.65 657.85 L74.65 645.97 L85.04 663.97 L74.65 681.97 L74.65 670.09
						 L10.39 670.09 L10.39 681.97 L0 663.97 Z" class="st11"/>
			<text x="-72.53" y="-661.57" transform="rotate(180)" class="st8">Firmware update</text>		</g>
		<g id="shape15-103" transform="translate(119.573,-266.577)">
			<title>Ellipse</title>
			<desc>Link loss</desc>
			<path d="M0 658.59 A83.58 23.3858 0 0 1 167.16 658.59 A83.58 23.3858 0 1 1 0 658.59 Z" class="st12"/>
			<text x="68.02" y="660.99" class="st8">Link loss</text>		</g>
		<g id="shape7-106" transform="translate(34.0441,-214.134) rotate(-0.114086)">
			<title>Message (seq.diag).7</title>
			<desc>Reconnect</desc>
			<path d="M0 681.97 L355.9 681.97" class="st5"/>
			<rect x="159.054" y="667.817" width="38.2462" height="9.59985" transform="rotate(0.114086)" class="st7"/>
			<text x="159.05" y="675.02" transform="rotate(0.114086)" class="st8">Reconnect</text>		</g>
		<g id="shape38-113" transform="translate(131.46,-39.0964)">
			<title>Ellipse.38</title>
			<desc>Continue firmware update</desc>
			<path d="M0 658.59 A83.58 23.3858 0 0 1 167.16 658.59 A83.58 23.3858 0 1 1 0 658.59 Z" class="st12"/>
			<text x="37.78" y="660.99" class="st8">Continue firmware update</text>		</g>
		<g id="shape43-116" transform="translate(32.9238,-418.225) rotate(-0.228326)">
			<title>Message (seq.diag).22</title>
			<desc>Write : DFU Control Point – OpCode = 3 (Receive Firmware Image)</desc>
			<path d="M0 681.97 L355.66 681.97" class="st5"/>
			<rect x="59.917" y="667.46" width="238.963" height="9.59985" transform="rotate(0.228326)" class="st7"/>
			<text x="59.92" y="674.66" transform="rotate(0.228326)" class="st8">Write : <tspan class="st14">DFU Control Point </tspan>– OpCode = 3 (Receive Firmware Image)</text>		</g>
		<g id="shape44-124" transform="translate(38.1179,-389.878) rotate(0.228172)">
			<title>Message (seq.diag).23</title>
			<desc>Write : DFU Packet – first part of the firmware image</desc>
			<path d="M0 681.97 L355.9 681.97" class="st5"/>
			<rect x="81.4662" y="668.876" width="185.381" height="9.59985" transform="rotate(-0.228172)" class="st7"/>
			<text x="81.47" y="676.08" transform="rotate(-0.228172)" class="st8">Write : <tspan class="st9">DFU Packet</tspan><tspan
						class="st9"> </tspan>– first part of the firmware image</text>		</g>
		<g id="shape42-133" transform="translate(1119.62,423.9) rotate(90)">
			<title>60 degree double.42</title>
			<desc>Recovery</desc>
			<path d="M0 663.97 L10.39 645.97 L10.39 657.85 L74.65 657.85 L74.65 645.97 L85.04 663.97 L74.65 681.97 L74.65 670.09
						 L10.39 670.09 L10.39 681.97 L0 663.97 Z" class="st11"/>
			<text x="-59.41" y="-661.57" transform="rotate(180)" class="st8">Recovery</text>		</g>
		<g id="shape47-136" transform="translate(1119.62,517.443) rotate(90)">
			<title>60 degree double.47</title>
			<desc>Firmware update</desc>
			<path d="M0 663.97 L10.39 645.97 L10.39 657.85 L91.65 657.85 L91.65 645.97 L102.05 663.97 L91.65 681.97 L91.65 670.09
						 L10.39 670.09 L10.39 681.97 L0 663.97 Z" class="st11"/>
			<text x="-81.04" y="-661.57" transform="rotate(180)" class="st8">Firmware update</text>		</g>
		<g id="shape40-139" transform="translate(37.2932,-612.403)">
			<title>Message (seq.diag)</title>
			<desc>Write : DFU Control Point – Op Code = 1 (Start DFU) ReqOpCode...</desc>
			<path d="M0 681.97 L354.01 681.97" class="st5"/>
			<rect x="-6.17452" y="668.173" width="364.134" height="9.59985" class="st7"/>
			<text x="-6.17" y="675.37" class="st8">Write : <tspan class="st14">DFU Control Point </tspan>– Op Code = 1 (Start DFU) ReqOpCode = 0x01 (SD), 0x02 (BL), 0x04 (APP)</text>		</g>
		<g id="shape48-147" transform="translate(38.4076,-592.561)">
			<title>Message (seq.diag).30</title>
			<desc>Write image size to the DFU Packet characteristic</desc>
			<path d="M0 681.97 L351.41 681.97" class="st5"/>
			<rect x="87.6769" y="668.173" width="176.054" height="9.59985" class="st7"/>
			<text x="87.68" y="675.37" class="st8">Write image size to the <tspan class="st9">DFU Packet</tspan> characteristic</text>		</g>
		<g id="shape50-155" transform="translate(388.144,-459.333) scale(-1,1)">
			<title>Message (seq.diag).49</title>
			<desc>Notification :DFU Control Point – OpCode = 16 ReqOpCode = 2 R...</desc>
			<path d="M0 681.97 L351.41 681.97" class="st5"/>
			<rect x="36.4059" y="668.173" width="280.822" height="9.59985" class="st7"/>
			<text x="-317.23" y="675.37" transform="scale(-1,1)" class="st8">Notification :<tspan class="st14">DFU Control Point </tspan>– OpCode = 16 ReqOpCode = 2 RespValue = 1</text>		</g>
		<g id="shape39-163" transform="translate(36.736,-630.829)">
			<title>Message (seq.diag).34</title>
			<desc>Enable DFU Control Point notification (Write 0x0001 to CCCD)</desc>
			<path d="M0 681.97 L354.57 681.97" class="st5"/>
			<rect x="65.4595" y="668.173" width="221.42" height="9.59985" class="st13"/>
			<text x="65.46" y="675.37" class="st8">Enable DFU Control Point notification (Write 0x0001 to CCCD)</text>		</g>
		<g id="shape54-170" transform="translate(29.9705,-191.437) rotate(-0.456337)">
			<title>Message (seq.diag).54</title>
			<desc>Enable DFU Control Point notification (Write 0x0001 to CCCD)</desc>
			<path d="M0 681.97 L355.91 681.97" class="st5"/>
			<rect x="71.4864" y="666.734" width="221.42" height="9.59985" transform="rotate(0.456337)" class="st7"/>
			<text x="71.49" y="673.93" transform="rotate(0.456337)" class="st8">Enable DFU Control Point notification (Write 0x0001 to CCCD)</text>		</g>
		<g id="shape55-177" transform="translate(391.301,-571.301) scale(-1,1)">
			<title>Message (seq.diag).55</title>
			<desc>Notification :DFU Control Point – OpCode = 16 ReqOpCode = 1 R...</desc>
			<path d="M0 681.97 L355.16 681.97" class="st5"/>
			<rect x="38.2824" y="668.173" width="280.822" height="9.59985" class="st7"/>
			<text x="-319.1" y="675.37" transform="scale(-1,1)" class="st8">Notification :<tspan class="st14">DFU Control Point </tspan>– OpCode = 16 ReqOpCode = 1 RespValue = 1</text>		</g>
		<g id="shape56-185" transform="translate(35.9052,-551.459)">
			<title>Message (seq.diag).1</title>
			<desc>Write : DFU Control Point - OpCode = 2 (Initialize DFU Parame...</desc>
			<path d="M0 681.97 L355.4 681.97" class="st5"/>
			<rect x="-11.2579" y="668.173" width="377.912" height="9.59985" class="st13"/>
			<text x="-11.26" y="675.37" class="st8">Write : <tspan class="st14">DFU Control Point </tspan>- OpCode = 2 (Initialize DFU Parameters), ReqOpCode = 0 (Receive Init Packet)</text>		</g>
		<g id="shape57-193" transform="translate(35.9052,-525.947)">
			<title>Message (seq.diag).88</title>
			<desc>Write : DFU Packet – init data</desc>
			<path d="M0 681.97 L355.4 681.97" class="st5"/>
			<rect x="123.902" y="668.173" width="105.366" height="9.59985" class="st7"/>
			<text x="123.9" y="675.37" class="st8">Write : <tspan class="st9">DFU Packet</tspan> – init data</text>		</g>
		<g id="shape58-201" transform="translate(35.402,-496.183)">
			<title>Message (seq.diag).36</title>
			<desc>Write : DFU Control Point - OpCode = 2 (Initialize DFU Parame...</desc>
			<path d="M0 681.97 L355.75 681.97" class="st5"/>
			<rect x="-13.7495" y="668.173" width="383.247" height="9.59985" class="st13"/>
			<text x="-13.75" y="675.37" class="st8">Write : <tspan class="st14">DFU Control Point </tspan>- OpCode = 2 (Initialize DFU Parameters), ReqOpCode = 1 (Init Packet Complete)</text>		</g>
		<g id="shape59-209" transform="translate(205.632,-381.38)">
			<title>Dynamic connector</title>
			<desc>...</desc>
			<path d="M7.09 681.97 L7.09 707.48" class="st15"/>
			<rect x="3.75287" y="689.928" width="6.6676" height="9.59985" class="st7"/>
			<text x="3.75" y="697.13" class="st8">...</text>		</g>
	</g>
</svg>
