<?xml version="1.0" encoding="UTF-8" standalone="no"?>
<!DOCTYPE svg PUBLIC "-//W3C//DTD SVG 1.1//EN" "http://www.w3.org/Graphics/SVG/1.1/DTD/svg11.dtd">
<!-- Generated by Microsoft Visio, SVG Export hci_start_packet_header.svg Page-1 -->
<svg xmlns="http://www.w3.org/2000/svg" xmlns:xlink="http://www.w3.org/1999/xlink" xmlns:ev="http://www.w3.org/2001/xml-events"
		width="9.45972in" height="1.57655in" viewBox="0 0 681.1 113.511" xml:space="preserve" color-interpolation-filters="sRGB"
		class="st10">
	<style type="text/css">
	<![CDATA[
		.st1 {fill:none;stroke:none;stroke-linecap:round;stroke-linejoin:round;stroke-width:0.72}
		.st2 {fill:#000000;font-family:Arial;font-size:0.666664em}
		.st3 {font-size:1em}
		.st4 {fill:#ffcc99;stroke:#000000;stroke-linecap:round;stroke-linejoin:round;stroke-width:0.24}
		.st5 {fill:#e8eef7;stroke:#000000;stroke-linecap:round;stroke-linejoin:round;stroke-width:0.24}
		.st6 {stroke:#000000;stroke-linecap:round;stroke-linejoin:round;stroke-width:0.24}
		.st7 {fill:#bfbfbf;stroke:#7f7f7f;stroke-linecap:round;stroke-linejoin:round;stroke-width:0.24}
		.st8 {fill:#7f7f7f;font-family:Arial;font-size:0.666664em}
		.st9 {fill:#bfbfbf;stroke:#000000;stroke-linecap:round;stroke-linejoin:round;stroke-width:0.24}
		.st10 {fill:none;fill-rule:evenodd;font-size:12px;overflow:visible;stroke-linecap:square;stroke-miterlimit:3}
	]]>
	</style>

	<g>
		<title>Page-1</title>
		<g id="shape1-1" transform="translate(14.4076,107.837) rotate(-90)">
			<title>Sheet.1</title>
			<desc>Reliable Packet</desc>
			<rect x="0" y="104.693" width="65.1969" height="8.8189" class="st1"/>
			<text x="5.61" y="111.5" class="st2">Reliable Packet</text>		</g>
		<g id="shape2-4" transform="translate(142.092,-40.9506)">
			<title>Sheet.2</title>
			<desc>Ack Number</desc>
			<rect x="0" y="83.5902" width="44.0945" height="29.9213" class="st1"/>
			<text x="15.38" y="96.15" class="st2">Ack <tspan x="7.82" dy="1.2em" class="st3">Number</tspan></text>		</g>
		<g id="shape3-8" transform="translate(184.612,-38.1159)">
			<title>Sheet.3</title>
			<desc>Seq Number</desc>
			<rect x="0" y="80.7556" width="42.5197" height="32.7559" class="st1"/>
			<text x="14.14" y="94.73" class="st2">Seq <tspan x="7.03" dy="1.2em" class="st3">Number</tspan></text>		</g>
		<g id="shape4-12" transform="translate(227.132,-38.1159)">
			<title>Sheet.4</title>
			<desc>Payload Length</desc>
			<rect x="0" y="80.7556" width="56.6929" height="32.7559" class="st1"/>
			<text x="13.89" y="94.73" class="st2">Payload <tspan x="16.11" dy="1.2em" class="st3">Length</tspan></text>		</g>
		<g id="shape5-16" transform="translate(340.517,-52.2891)">
			<title>Sheet.5</title>
			<desc>Payload Length Continued</desc>
			<rect x="0" y="104.693" width="113.386" height="8.8189" class="st1"/>
			<text x="9.54" y="111.5" class="st2">Payload Length Continued</text>		</g>
		<g id="shape6-19" transform="translate(283.825,-53.549)">
			<title>Sheet.6</title>
			<desc>Packet Type</desc>
			<rect x="0" y="104.693" width="56.6929" height="8.8189" class="st1"/>
			<text x="4" y="111.5" class="st2">Packet Type</text>		</g>
		<g id="shape7-22" transform="translate(453.903,-53.549)">
			<title>Sheet.7</title>
			<desc>Header Checksum</desc>
			<rect x="0" y="104.693" width="113.386" height="8.8189" class="st1"/>
			<text x="23.57" y="111.5" class="st2">Header Checksum</text>		</g>
		<g id="shape8-25" transform="translate(113.746,-85.045)">
			<title>Sheet.8</title>
			<desc>Byte 2 0xD1</desc>
			<rect x="0" y="85.165" width="113.386" height="28.3465" class="st4"/>
			<text x="45.35" y="96.37" class="st2">Byte 2 <tspan x="47.35" dy="1.2em" class="st3">0</tspan>xD1</text>		</g>
		<g id="shape9-29" transform="translate(113.746,-70.8718)">
			<title>Sheet.9</title>
			<desc>1</desc>
			<rect x="0" y="99.3383" width="14.1732" height="14.1732" class="st5"/>
			<text x="4.86" y="108.82" class="st2">1</text>		</g>
		<g id="shape10-32" transform="translate(142.092,-70.8718)">
			<title>Sheet.10</title>
			<desc>0</desc>
			<rect x="0" y="99.3383" width="14.1732" height="14.1732" class="st5"/>
			<text x="4.86" y="108.82" class="st2">0</text>		</g>
		<g id="shape11-35" transform="translate(127.919,-70.8718)">
			<title>Sheet.11</title>
			<desc>1</desc>
			<rect x="0" y="99.3383" width="14.1732" height="14.1732" class="st5"/>
			<text x="4.86" y="108.82" class="st2">1</text>		</g>
		<g id="shape12-38" transform="translate(156.266,-70.8718)">
			<title>Sheet.12</title>
			<desc>1</desc>
			<rect x="0" y="99.3383" width="14.1732" height="14.1732" class="st5"/>
			<text x="4.86" y="108.82" class="st2">1</text>		</g>
		<g id="shape13-41" transform="translate(170.439,-70.8718)">
			<title>Sheet.13</title>
			<desc>0</desc>
			<rect x="0" y="99.3383" width="14.1732" height="14.1732" class="st5"/>
			<text x="4.86" y="108.82" class="st2">0</text>		</g>
		<g id="shape14-44" transform="translate(184.612,-70.8718)">
			<title>Sheet.14</title>
			<desc>0</desc>
			<rect x="0" y="99.3383" width="14.1732" height="14.1732" class="st5"/>
			<text x="4.86" y="108.82" class="st2">0</text>		</g>
		<g id="shape15-47" transform="translate(198.785,-70.8718)">
			<title>Sheet.15</title>
			<desc>0</desc>
			<rect x="0" y="99.3383" width="14.1732" height="14.1732" class="st5"/>
			<text x="4.86" y="108.82" class="st2">0</text>		</g>
		<g id="shape16-50" transform="translate(212.958,-70.8718)">
			<title>Sheet.16</title>
			<desc>1</desc>
			<rect x="0" y="99.3383" width="14.1732" height="14.1732" class="st5"/>
			<text x="4.86" y="108.82" class="st2">1</text>		</g>
		<g id="shape17-53" transform="translate(227.132,-85.045)">
			<title>Sheet.17</title>
			<desc>Byte 3 0x4E</desc>
			<rect x="0" y="85.165" width="113.386" height="28.3465" class="st4"/>
			<text x="45.35" y="96.37" class="st2">Byte 3 <tspan x="47.58" dy="1.2em" class="st3">0</tspan>x4E</text>		</g>
		<g id="shape18-57" transform="translate(227.132,-70.8718)">
			<title>Sheet.18</title>
			<desc>0</desc>
			<rect x="0" y="99.3383" width="14.1732" height="14.1732" class="st5"/>
			<text x="4.86" y="108.82" class="st2">0</text>		</g>
		<g id="shape19-60" transform="translate(255.478,-70.8718)">
			<title>Sheet.19</title>
			<desc>0</desc>
			<rect x="0" y="99.3383" width="14.1732" height="14.1732" class="st5"/>
			<text x="4.86" y="108.82" class="st2">0</text>		</g>
		<g id="shape20-63" transform="translate(241.305,-70.8718)">
			<title>Sheet.20</title>
			<desc>1</desc>
			<rect x="0" y="99.3383" width="14.1732" height="14.1732" class="st5"/>
			<text x="4.86" y="108.82" class="st2">1</text>		</g>
		<g id="shape21-66" transform="translate(269.651,-70.8718)">
			<title>Sheet.21</title>
			<desc>0</desc>
			<rect x="0" y="99.3383" width="14.1732" height="14.1732" class="st5"/>
			<text x="4.86" y="108.82" class="st2">0</text>		</g>
		<g id="shape22-69" transform="translate(283.825,-70.8718)">
			<title>Sheet.22</title>
			<desc>1</desc>
			<rect x="0" y="99.3383" width="14.1732" height="14.1732" class="st5"/>
			<text x="4.86" y="108.82" class="st2">1</text>		</g>
		<g id="shape23-72" transform="translate(297.998,-70.8718)">
			<title>Sheet.23</title>
			<desc>1</desc>
			<rect x="0" y="99.3383" width="14.1732" height="14.1732" class="st5"/>
			<text x="4.86" y="108.82" class="st2">1</text>		</g>
		<g id="shape24-75" transform="translate(312.171,-70.8718)">
			<title>Sheet.24</title>
			<desc>1</desc>
			<rect x="0" y="99.3383" width="14.1732" height="14.1732" class="st5"/>
			<text x="4.86" y="108.82" class="st2">1</text>		</g>
		<g id="shape25-78" transform="translate(326.344,-70.8718)">
			<title>Sheet.25</title>
			<desc>0</desc>
			<rect x="0" y="99.3383" width="14.1732" height="14.1732" class="st5"/>
			<text x="4.86" y="108.82" class="st2">0</text>		</g>
		<g id="shape26-81" transform="translate(340.517,-85.045)">
			<title>Sheet.26</title>
			<desc>Byte 4 0x01</desc>
			<rect x="0" y="85.165" width="113.386" height="28.3465" class="st4"/>
			<text x="45.35" y="96.37" class="st2">Byte 4 <tspan x="48.02" dy="1.2em" class="st3">0</tspan>x01</text>		</g>
		<g id="shape27-85" transform="translate(340.517,-70.8718)">
			<title>Sheet.27</title>
			<desc>0</desc>
			<rect x="0" y="99.3383" width="14.1732" height="14.1732" class="st5"/>
			<text x="4.86" y="108.82" class="st2">0</text>		</g>
		<g id="shape28-88" transform="translate(368.864,-70.8718)">
			<title>Sheet.28</title>
			<desc>0</desc>
			<rect x="0" y="99.3383" width="14.1732" height="14.1732" class="st5"/>
			<text x="4.86" y="108.82" class="st2">0</text>		</g>
		<g id="shape29-91" transform="translate(354.691,-70.8718)">
			<title>Sheet.29</title>
			<desc>0</desc>
			<rect x="0" y="99.3383" width="14.1732" height="14.1732" class="st5"/>
			<text x="4.86" y="108.82" class="st2">0</text>		</g>
		<g id="shape30-94" transform="translate(383.037,-70.8718)">
			<title>Sheet.30</title>
			<desc>0</desc>
			<rect x="0" y="99.3383" width="14.1732" height="14.1732" class="st5"/>
			<text x="4.86" y="108.82" class="st2">0</text>		</g>
		<g id="shape31-97" transform="translate(397.21,-70.8718)">
			<title>Sheet.31</title>
			<desc>0</desc>
			<rect x="0" y="99.3383" width="14.1732" height="14.1732" class="st5"/>
			<text x="4.86" y="108.82" class="st2">0</text>		</g>
		<g id="shape32-100" transform="translate(411.384,-70.8718)">
			<title>Sheet.32</title>
			<desc>0</desc>
			<rect x="0" y="99.3383" width="14.1732" height="14.1732" class="st5"/>
			<text x="4.86" y="108.82" class="st2">0</text>		</g>
		<g id="shape33-103" transform="translate(425.557,-70.8718)">
			<title>Sheet.33</title>
			<desc>0</desc>
			<rect x="0" y="99.3383" width="14.1732" height="14.1732" class="st5"/>
			<text x="4.86" y="108.82" class="st2">0</text>		</g>
		<g id="shape34-106" transform="translate(439.73,-70.8718)">
			<title>Sheet.34</title>
			<desc>1</desc>
			<rect x="0" y="99.3383" width="14.1732" height="14.1732" class="st5"/>
			<text x="4.86" y="108.82" class="st2">1</text>		</g>
		<g id="shape35-109" transform="translate(453.903,-85.045)">
			<title>Sheet.35</title>
			<desc>Byte 5 0xE0</desc>
			<rect x="0" y="85.165" width="113.386" height="28.3465" class="st4"/>
			<text x="45.35" y="96.37" class="st2">Byte 5 <tspan x="47.58" dy="1.2em" class="st3">0</tspan>xE0</text>		</g>
		<g id="shape36-113" transform="translate(453.903,-70.8718)">
			<title>Sheet.36</title>
			<desc>1</desc>
			<rect x="0" y="99.3383" width="14.1732" height="14.1732" class="st5"/>
			<text x="4.86" y="108.82" class="st2">1</text>		</g>
		<g id="shape37-116" transform="translate(482.25,-70.8718)">
			<title>Sheet.37</title>
			<desc>1</desc>
			<rect x="0" y="99.3383" width="14.1732" height="14.1732" class="st5"/>
			<text x="4.86" y="108.82" class="st2">1</text>		</g>
		<g id="shape38-119" transform="translate(468.077,-70.8718)">
			<title>Sheet.38</title>
			<desc>1</desc>
			<rect x="0" y="99.3383" width="14.1732" height="14.1732" class="st5"/>
			<text x="4.86" y="108.82" class="st2">1</text>		</g>
		<g id="shape39-122" transform="translate(496.423,-70.8718)">
			<title>Sheet.39</title>
			<desc>0</desc>
			<rect x="0" y="99.3383" width="14.1732" height="14.1732" class="st5"/>
			<text x="4.86" y="108.82" class="st2">0</text>		</g>
		<g id="shape40-125" transform="translate(510.596,-70.8718)">
			<title>Sheet.40</title>
			<desc>0</desc>
			<rect x="0" y="99.3383" width="14.1732" height="14.1732" class="st5"/>
			<text x="4.86" y="108.82" class="st2">0</text>		</g>
		<g id="shape41-128" transform="translate(524.769,-70.8718)">
			<title>Sheet.41</title>
			<desc>0</desc>
			<rect x="0" y="99.3383" width="14.1732" height="14.1732" class="st5"/>
			<text x="4.86" y="108.82" class="st2">0</text>		</g>
		<g id="shape42-131" transform="translate(538.943,-70.8718)">
			<title>Sheet.42</title>
			<desc>0</desc>
			<rect x="0" y="99.3383" width="14.1732" height="14.1732" class="st5"/>
			<text x="4.86" y="108.82" class="st2">0</text>		</g>
		<g id="shape43-134" transform="translate(553.116,-70.8718)">
			<title>Sheet.43</title>
			<desc>0</desc>
			<rect x="0" y="99.3383" width="14.1732" height="14.1732" class="st5"/>
			<text x="4.86" y="108.82" class="st2">0</text>		</g>
		<g id="shape44-137" transform="translate(255.604,42.6397) rotate(90)">
			<title>Sheet.44</title>
			<path d="M0 113.51 L6.38 113.51" class="st6"/>
		</g>
		<g id="shape45-140" transform="translate(298.123,42.6397) rotate(90)">
			<title>Sheet.45</title>
			<path d="M0 113.51 L7.09 113.51" class="st6"/>
		</g>
		<g id="shape46-143" transform="translate(241.431,42.6397) rotate(90)">
			<title>Sheet.46</title>
			<path d="M0 113.51 L6.38 113.51" class="st6"/>
		</g>
		<g id="shape47-146" transform="translate(340.643,42.6397) rotate(90)">
			<title>Sheet.47</title>
			<path d="M0 113.51 L6.38 113.51" class="st6"/>
		</g>
		<g id="shape48-149" transform="translate(397.336,42.6397) rotate(90)">
			<title>Sheet.48</title>
			<path d="M0 113.51 L6.38 113.51" class="st6"/>
		</g>
		<g id="shape49-152" transform="translate(454.029,42.6397) rotate(90)">
			<title>Sheet.49</title>
			<path d="M0 113.51 L6.38 113.51" class="st6"/>
		</g>
		<g id="shape50-155" transform="translate(567.415,41.6161) rotate(90)">
			<title>Sheet.50</title>
			<path d="M0 113.51 L6.38 113.51" class="st6"/>
		</g>
		<g id="shape51-158" transform="translate(0.36,-85.045)">
			<title>Sheet.51</title>
			<desc>Byte 1 0xC0</desc>
			<rect x="0" y="85.165" width="113.386" height="28.3465" class="st7"/>
			<text x="45.35" y="96.37" class="st8">Byte 1 <tspan x="47.35" dy="1.2em" class="st3">0</tspan>xC0</text>		</g>
		<g id="shape52-162" transform="translate(0.36,-70.8718)">
			<title>Sheet.52</title>
			<desc>1</desc>
			<rect x="0" y="99.3383" width="14.1732" height="14.1732" class="st9"/>
			<text x="4.86" y="108.82" class="st8">1</text>		</g>
		<g id="shape53-165" transform="translate(28.7065,-70.8718)">
			<title>Sheet.53</title>
			<desc>0</desc>
			<rect x="0" y="99.3383" width="14.1732" height="14.1732" class="st9"/>
			<text x="4.86" y="108.82" class="st8">0</text>		</g>
		<g id="shape54-168" transform="translate(14.5332,-70.8718)">
			<title>Sheet.54</title>
			<desc>1</desc>
			<rect x="0" y="99.3383" width="14.1732" height="14.1732" class="st9"/>
			<text x="4.86" y="108.82" class="st8">1</text>		</g>
		<g id="shape55-171" transform="translate(42.8797,-70.8718)">
			<title>Sheet.55</title>
			<desc>0</desc>
			<rect x="0" y="99.3383" width="14.1732" height="14.1732" class="st9"/>
			<text x="4.86" y="108.82" class="st8">0</text>		</g>
		<g id="shape56-174" transform="translate(57.0529,-70.8718)">
			<title>Sheet.56</title>
			<desc>0</desc>
			<rect x="0" y="99.3383" width="14.1732" height="14.1732" class="st9"/>
			<text x="4.86" y="108.82" class="st8">0</text>		</g>
		<g id="shape57-177" transform="translate(71.2261,-70.8718)">
			<title>Sheet.57</title>
			<desc>0</desc>
			<rect x="0" y="99.3383" width="14.1732" height="14.1732" class="st9"/>
			<text x="4.86" y="108.82" class="st8">0</text>		</g>
		<g id="shape58-180" transform="translate(85.3994,-70.8718)">
			<title>Sheet.58</title>
			<desc>0</desc>
			<rect x="0" y="99.3383" width="14.1732" height="14.1732" class="st9"/>
			<text x="4.86" y="108.82" class="st8">0</text>		</g>
		<g id="shape59-183" transform="translate(99.5726,-70.8718)">
			<title>Sheet.59</title>
			<desc>0</desc>
			<rect x="0" y="99.3383" width="14.1732" height="14.1732" class="st9"/>
			<text x="4.86" y="108.82" class="st8">0</text>		</g>
		<g id="shape60-186" transform="translate(0.36,-52.8661)">
			<title>Sheet.60</title>
			<desc>Slip Start</desc>
			<rect x="0" y="99.3383" width="113.386" height="14.1732" class="st1"/>
			<text x="40.46" y="108.82" class="st8">Slip Start</text>		</g>
		<g id="shape61-189" transform="translate(567.289,-85.045)">
			<title>Sheet.61</title>
			<desc>Byte 6- ...</desc>
			<rect x="0" y="85.165" width="113.386" height="28.3465" class="st9"/>
			<text x="39.58" y="96.37" class="st8">Byte 6- ...</text>		</g>
		<g id="shape62-192" transform="translate(567.289,-70.8718)">
			<title>Sheet.62</title>
			<rect x="0" y="99.3383" width="113.386" height="14.1732" class="st9"/>
		</g>
		<g id="shape63-194" transform="translate(25.9036,113.151) rotate(-90)">
			<title>Sheet.63</title>
			<desc>Integrety Check</desc>
			<rect x="0" y="104.693" width="70.8661" height="8.8189" class="st1"/>
			<text x="10.84" y="111.5" class="st2">Integrety Check</text>		</g>
		<g id="shape64-197" transform="translate(567.354,-50.0315)">
			<title>Sheet.64</title>
			<desc>...</desc>
			<rect x="0" y="97.9209" width="113.386" height="15.5906" class="st1"/>
			<text x="53.36" y="108.12" class="st8">...</text>		</g>
	</g>
</svg>
