<?xml version="1.0" encoding="UTF-8" standalone="no"?>
<!DOCTYPE svg PUBLIC "-//W3C//DTD SVG 1.1//EN" "http://www.w3.org/Graphics/SVG/1.1/DTD/svg11.dtd">
<!-- Generated by Microsoft Visio, SVG Export ota_roles_overview.svg Page-1 -->
<svg xmlns="http://www.w3.org/2000/svg" xmlns:xlink="http://www.w3.org/1999/xlink" xmlns:ev="http://www.w3.org/2001/xml-events"
		width="4.43202in" height="1.40912in" viewBox="0 0 319.106 101.457" xml:space="preserve" color-interpolation-filters="sRGB"
		class="st8">
	<style type="text/css">
	<![CDATA[
		.st1 {fill:#ffff00;fill-opacity:0.3;stroke:#000000;stroke-linecap:round;stroke-linejoin:round;stroke-width:0.24}
		.st2 {fill:#000000;fill-opacity:1;stroke:#000000;stroke-opacity:1;stroke-width:0.08695652173913}
		.st3 {marker-end:url(#mrkr5-8);marker-start:url(#mrkr5-15);stroke:#000000;stroke-linecap:round;stroke-linejoin:round;stroke-width:0.24}
		.st4 {fill:#ff9900;fill-opacity:0.3;stroke:#000000;stroke-linecap:round;stroke-linejoin:round;stroke-width:0.24}
		.st5 {fill:#000000;font-family:Arial;font-size:0.666664em}
		.st6 {fill:none;marker-end:url(#mrkr13-25);marker-start:url(#mrkr13-23);stroke:none;stroke-linecap:round;stroke-linejoin:round;stroke-width:0.72}
		.st7 {fill:#000000;fill-opacity:1;stroke:#000000;stroke-opacity:1;stroke-width:0.22222222222222}
		.st8 {fill:none;fill-rule:evenodd;font-size:12px;overflow:visible;stroke-linecap:square;stroke-miterlimit:3}
	]]>
	</style>

	<defs id="Markers">
		<g id="lend5">
			<path d="M 2 1 L 0 0 L 1.98117 -0.993387 C 1.67173 -0.364515 1.67301 0.372641 1.98465 1.00043 " style="stroke:none"/>
		</g>
		<marker id="mrkr5-6" class="st2" refX="20.125" orient="auto" markerUnits="strokeWidth" overflow="visible">
			<use xlink:href="#lend5" transform="scale(11.5) "/>
		</marker>
		<marker id="mrkr5-8" class="st2" refX="-20.125" orient="auto" markerUnits="strokeWidth" overflow="visible">
			<use xlink:href="#lend5" transform="scale(-11.5,-11.5) "/>
		</marker>
		<marker id="mrkr5-15" class="st2" refX="18.625" orient="auto" markerUnits="strokeWidth" overflow="visible">
			<use xlink:href="#lend5" transform="scale(11.5) "/>
		</marker>
		<g id="lend13">
			<path d="M 3 1 L 0 0 L 3 -1 L 3 1 " style="stroke:none"/>
		</g>
		<marker id="mrkr13-23" class="st7" refX="13.5" orient="auto" markerUnits="strokeWidth" overflow="visible">
			<use xlink:href="#lend13" transform="scale(4.5) "/>
		</marker>
		<marker id="mrkr13-25" class="st7" refX="-13.5" orient="auto" markerUnits="strokeWidth" overflow="visible">
			<use xlink:href="#lend13" transform="scale(-4.5,-4.5) "/>
		</marker>
	</defs>
	<g>
		<title>Page-1</title>
		<g id="shape3-1" transform="translate(5.55287,-6.17155)">
			<title>Rounded rectangle</title>
			<path d="M99.21 101.46 A14.1733 14.1733 -180 0 0 113.39 87.28 L113.39 30.59 A14.1733 14.1733 -180 0 0 99.21 16.42 L14.17
						 16.42 A14.1733 14.1733 -180 0 0 -0 30.59 L0 87.28 A14.1733 14.1733 -180 0 0 14.17 101.46 L99.21 101.46 Z"
					class="st1"/>
		</g>
		<g id="shape1-3" transform="translate(175.632,-6.17155)">
			<title>Rounded rectangle.1</title>
			<path d="M119.06 101.46 A14.1733 14.1733 -180 0 0 133.23 87.28 L133.23 30.59 A14.1733 14.1733 -180 0 0 119.06 16.42 L14.17
						 16.42 A14.1733 14.1733 -180 0 0 -0 30.59 L0 87.28 A14.1733 14.1733 -180 0 0 14.17 101.46 L119.06 101.46
						 Z" class="st1"/>
		</g>
		<g id="shape5-9" transform="translate(118.939,-48.6912)">
			<title>Sheet.5</title>
			<path d="M4.47 101.46 L4.83 101.46 L51.86 101.46" class="st3"/>
		</g>
		<g id="shape2-17" transform="translate(181.301,-34.518)">
			<title>Rounded rectangle.2</title>
			<desc>DFU Service</desc>
			<path d="M107.72 101.46 A14.1733 14.1733 -180 0 0 121.89 87.28 L121.89 87.28 A14.1733 14.1733 -180 0 0 107.72 73.11 L14.17
						 73.11 A14.1733 14.1733 -180 0 0 -0 87.28 L0 87.28 A14.1733 14.1733 -180 0 0 14.17 101.46 L107.72 101.46
						 Z" class="st4"/>
			<text x="38.27" y="89.68" class="st5">DFU Service</text>		</g>
		<g id="shape4-20" transform="translate(175.632,-75.2109)">
			<title>Sheet.4</title>
			<desc>DFU target</desc>
			<rect x="0" y="85.4567" width="133.228" height="16" class="st6"/>
			<text x="47.05" y="95.86" class="st5">DFU target</text>		</g>
		<g id="shape7-27" transform="translate(10.2458,-40.6912)">
			<title>Sheet.7</title>
			<desc>DFU controller</desc>
			<rect x="0" y="85.4567" width="104" height="16" class="st6"/>
			<text x="26.22" y="95.86" class="st5">DFU controller</text>		</g>
	</g>
</svg>
