<?xml version="1.0" encoding="UTF-8" standalone="no"?>
<!DOCTYPE svg PUBLIC "-//W3C//DTD SVG 1.1//EN" "http://www.w3.org/Graphics/SVG/1.1/DTD/svg11.dtd">
<!-- Generated by Microsoft Visio, SVG Export dfu_bootloader_overview.svg Page-1 -->
<svg xmlns="http://www.w3.org/2000/svg" xmlns:xlink="http://www.w3.org/1999/xlink" xmlns:ev="http://www.w3.org/2001/xml-events"
		width="5.81709in" height="4.77378in" viewBox="0 0 418.83 343.712" xml:space="preserve" color-interpolation-filters="sRGB"
		class="st10">
	<style type="text/css">
	<![CDATA[
		.st1 {fill:#e8eef7;stroke:#000000;stroke-linecap:round;stroke-linejoin:round;stroke-width:0.24}
		.st2 {fill:#000000;font-family:Arial;font-size:0.666664em}
		.st3 {font-size:1em}
		.st4 {marker-end:url(#mrkr4-22);stroke:#4677bf;stroke-linecap:round;stroke-linejoin:round;stroke-width:0.24}
		.st5 {fill:#4677bf;fill-opacity:1;stroke:#4677bf;stroke-opacity:1;stroke-width:0.08695652173913}
		.st6 {fill:#ffffff;stroke:none;stroke-linecap:butt;stroke-width:7.2}
		.st7 {stroke:#000000;stroke-linecap:round;stroke-linejoin:round;stroke-width:0.72}
		.st8 {fill:url(#grad0-32);stroke:#000000;stroke-linecap:round;stroke-linejoin:round;stroke-width:0.72}
		.st9 {fill:#000000;font-family:Arial;font-size:0.833336em}
		.st10 {fill:none;fill-rule:evenodd;font-size:12px;overflow:visible;stroke-linecap:square;stroke-miterlimit:3}
	]]>
	</style>

	<defs id="Patterns_And_Gradients">
		<linearGradient id="grad0-32" x1="0" y1="0" x2="1" y2="0" gradientTransform="rotate(90 0.5 0.5)">
			<stop offset="0" stop-color="#eff1e7" stop-opacity="1"/>
			<stop offset="1" stop-color="#ffffff" stop-opacity="1"/>
		</linearGradient>
	</defs>
	<defs id="Markers">
		<g id="lend4">
			<path d="M 2 1 L 0 0 L 2 -1 L 2 1 " style="stroke:none"/>
		</g>
		<marker id="mrkr4-22" class="st5" refX="-23" orient="auto" markerUnits="strokeWidth" overflow="visible">
			<use xlink:href="#lend4" transform="scale(-11.5,-11.5) "/>
		</marker>
	</defs>
	<g>
		<title>Page-1</title>
		<g id="shape1-1" transform="translate(21.6198,-255.478)">
			<title>Process</title>
			<desc>Bootloader main.c</desc>
			<rect x="0" y="301.192" width="70.8661" height="42.5197" class="st1"/>
			<text x="16.09" y="320.05" class="st2">Bootloader <tspan x="23.65" dy="1.2em" class="st3">main</tspan>.c</text>		</g>
		<g id="shape2-5" transform="translate(21.6198,-177.525)">
			<title>Process.2</title>
			<desc>bootloader.c</desc>
			<rect x="0" y="301.192" width="70.8661" height="42.5197" class="st1"/>
			<text x="13.42" y="324.85" class="st2">bootloader.c</text>		</g>
		<g id="shape3-8" transform="translate(21.6198,-99.5726)">
			<title>Process.3</title>
			<desc>DFU transport layer</desc>
			<rect x="0" y="301.192" width="70.8661" height="42.5197" class="st1"/>
			<text x="27.21" y="315.25" class="st2">DFU <tspan x="19.65" dy="1.2em" class="st3">transport</tspan><tspan x="26.76"
						dy="1.2em" class="st3">layer</tspan></text>		</g>
		<g id="shape6-13" transform="translate(23.0372,-21.6198)">
			<title>Process.6</title>
			<desc>dfu_single_bank.c dfu_dual_bank.c</desc>
			<rect x="0" y="301.192" width="70.8661" height="42.5197" class="st1"/>
			<text x="3.19" y="320.05" class="st2">dfu_single_bank.c <tspan x="6.08" dy="1.2em" class="st3">dfu</tspan>_dual_bank.c</text>		</g>
		<g id="shape11-17" transform="translate(49.9663,-255.478)">
			<title>Dynamic connector.24</title>
			<desc>Bootloader calls</desc>
			<path d="M7.09 343.71 L7.09 373.63" class="st4"/>
			<rect x="-21.3742" y="356.629" width="56.9215" height="9.59985" class="st6"/>
			<text x="-21.37" y="363.83" class="st2">Bootloader calls</text>		</g>
		<g id="group16-25" transform="translate(0.36,-0.36)">
			<title>Border small</title>
			<g id="shape17-26">
				<title>Sheet.17</title>
				<path d="M0 20.72 L0 323.71 A20.0036 20.0036 -180 0 0 20 343.71 L228.03 343.71 A20.0036 20.0036 -180 0 0 248.03 323.71
							 L248.03 20.72 L0 20.72" class="st7"/>
			</g>
			<g id="shape18-29" transform="translate(0,-322.988)">
				<title>Sheet.18</title>
				<desc>DFU bootloader</desc>
				<path d="M248.03 343.71 L0 343.71 A20.0036 20.0036 0 0 1 20 323.71 L228.03 323.71 A20.0036 20.0036 0 0 1 248.03 343.71
							 Z" class="st8"/>
				<text x="88.72" y="336.71" class="st9">DFU bootloader</text>			</g>
		</g>
		<g id="shape5-34" transform="translate(140.675,-99.5726)">
			<title>Process.5</title>
			<desc>bootloader_util_arm.c</desc>
			<rect x="0" y="301.192" width="100.63" height="42.5197" class="st1"/>
			<text x="11.85" y="324.85" class="st2">bootloader_util_arm.c</text>		</g>
		<g id="shape12-37" transform="translate(326.344,-99.5726)">
			<title>Process.12</title>
			<desc>Reset handler</desc>
			<rect x="0" y="301.192" width="70.8661" height="42.5197" class="st1"/>
			<text x="10.53" y="324.85" class="st2">Reset handler</text>		</g>
		<g id="group13-40" transform="translate(305.084,-7.44661)">
			<title>Border small.13</title>
			<g id="shape19-41">
				<title>Sheet.19</title>
				<path d="M0 172.38 L0 323.71 A20.0036 20.0036 -180 0 0 20 343.71 L93.38 343.71 A20.0036 20.0036 -180 0 0 113.39 323.71
							 L113.39 172.38 L0 172.38" class="st7"/>
			</g>
			<g id="shape20-44" transform="translate(0,-171.335)">
				<title>Sheet.20</title>
				<desc>Application</desc>
				<path d="M113.39 343.71 L0 343.71 A20.0036 20.0036 0 0 1 20 323.71 L93.38 323.71 A20.0036 20.0036 0 0 1 113.39 343.71
							 Z" class="st8"/>
				<text x="32.23" y="336.71" class="st9">Application </text>			</g>
		</g>
		<g id="shape21-48" transform="translate(326.344,-35.7931)">
			<title>Process.21</title>
			<desc>Application main.c</desc>
			<rect x="0" y="301.192" width="70.8661" height="42.5197" class="st1"/>
			<text x="15.86" y="320.05" class="st2">Application <tspan x="23.65" dy="1.2em" class="st3">main</tspan>.c</text>		</g>
		<g id="shape14-52" transform="translate(49.9663,-177.525)">
			<title>Dynamic connector.14</title>
			<desc>Start DFU procedure</desc>
			<path d="M7.09 343.71 L7.09 373.63" class="st4"/>
			<rect x="-29.8157" y="356.629" width="73.8045" height="9.59985" class="st6"/>
			<text x="-29.82" y="363.83" class="st2">Start DFU procedure</text>		</g>
		<g id="shape15-59" transform="translate(93.9033,-42.8797)">
			<title>Dynamic connector.15</title>
			<desc>Start new application</desc>
			<path d="M0 343.71 L97.09 343.71 L97.09 292.54" class="st4"/>
			<rect x="39.7573" y="338.912" width="74.2648" height="9.59985" class="st6"/>
			<text x="39.76" y="346.11" class="st2">Start new application</text>		</g>
		<g id="shape22-66" transform="translate(92.486,-198.785)">
			<title>Dynamic connector.22</title>
			<desc>Start application, if present</desc>
			<path d="M0 343.71 L98.5 343.71 L98.5 394.89" class="st4"/>
			<rect x="30.2396" y="338.91" width="94.7175" height="9.59985" class="st6"/>
			<text x="30.24" y="346.11" class="st2">Start application, if present</text>		</g>
		<g id="shape4-73" transform="translate(49.9663,-99.5726)">
			<title>Dynamic connector.4</title>
			<desc>DFU packet</desc>
			<path d="M7.09 343.71 L7.09 373.63" class="st4"/>
			<rect x="-14.0306" y="356.629" width="42.2345" height="9.59985" class="st6"/>
			<text x="-14.03" y="363.83" class="st2">DFU packet </text>		</g>
		<g id="shape7-80" transform="translate(241.305,-113.746)">
			<title>Dynamic connector.7</title>
			<desc>Boot application</desc>
			<path d="M0 336.63 L79.52 336.63" class="st4"/>
			<rect x="14.0552" y="331.826" width="56.929" height="9.59985" class="st6"/>
			<text x="14.06" y="339.03" class="st2">Boot application</text>		</g>
		<g id="shape8-87" transform="translate(354.691,-99.5726)">
			<title>Dynamic connector.8</title>
			<path d="M7.09 343.71 L7.09 359.45" class="st4"/>
		</g>
	</g>
</svg>
