<?xml version="1.0" encoding="UTF-8" standalone="no"?>
<!DOCTYPE svg PUBLIC "-//W3C//DTD SVG 1.1//EN" "http://www.w3.org/Graphics/SVG/1.1/DTD/svg11.dtd">
<!-- Generated by Microsoft Visio, SVG Export dfu_transfer_serial_overview.svg Page-1 -->
<svg xmlns="http://www.w3.org/2000/svg" xmlns:xlink="http://www.w3.org/1999/xlink" xmlns:ev="http://www.w3.org/2001/xml-events"
		width="5.42339in" height="5.84661in" viewBox="0 0 390.484 420.956" xml:space="preserve" color-interpolation-filters="sRGB"
		class="st11">
	<style type="text/css">
	<![CDATA[
		.st1 {fill:#e8eef7;stroke:#000000;stroke-linecap:round;stroke-linejoin:round;stroke-width:0.24}
		.st2 {fill:#000000;font-family:Arial;font-size:0.666664em}
		.st3 {font-size:1em}
		.st4 {stroke:#000000;stroke-linecap:round;stroke-linejoin:round;stroke-width:0.72}
		.st5 {fill:url(#grad0-19);stroke:#000000;stroke-linecap:round;stroke-linejoin:round;stroke-width:0.72}
		.st6 {fill:#000000;font-family:Arial;font-size:0.833336em}
		.st7 {marker-end:url(#mrkr4-38);stroke:#4677bf;stroke-linecap:round;stroke-linejoin:round;stroke-width:0.24}
		.st8 {fill:#4677bf;fill-opacity:1;stroke:#4677bf;stroke-opacity:1;stroke-width:0.08695652173913}
		.st9 {fill:#ffffff;stroke:none;stroke-linecap:butt;stroke-width:7.2}
		.st10 {fill:none;stroke:none;stroke-linecap:round;stroke-linejoin:round;stroke-width:0.72}
		.st11 {fill:none;fill-rule:evenodd;font-size:12px;overflow:visible;stroke-linecap:square;stroke-miterlimit:3}
	]]>
	</style>

	<defs id="Patterns_And_Gradients">
		<linearGradient id="grad0-19" x1="0" y1="0" x2="1" y2="0" gradientTransform="rotate(90 0.5 0.5)">
			<stop offset="0" stop-color="#eff1e7" stop-opacity="1"/>
			<stop offset="1" stop-color="#ffffff" stop-opacity="1"/>
		</linearGradient>
	</defs>
	<defs id="Markers">
		<g id="lend4">
			<path d="M 2 1 L 0 0 L 2 -1 L 2 1 " style="stroke:none"/>
		</g>
		<marker id="mrkr4-38" class="st8" refX="-23" orient="auto" markerUnits="strokeWidth" overflow="visible">
			<use xlink:href="#lend4" transform="scale(-11.5,-11.5) "/>
		</marker>
	</defs>
	<g>
		<title>Page-1</title>
		<g id="shape2-1" transform="translate(21.6198,-339.809)">
			<title>Process.2</title>
			<desc>Bootloader</desc>
			<rect x="0" y="378.437" width="70.8661" height="42.5197" class="st1"/>
			<text x="16.09" y="402.1" class="st2">Bootloader</text>		</g>
		<g id="shape3-4" transform="translate(21.6198,-261.856)">
			<title>Process.3</title>
			<desc>DFU transport: Serial</desc>
			<rect x="0" y="378.437" width="70.8661" height="42.5197" class="st1"/>
			<text x="9.2" y="397.3" class="st2">DFU transport: <tspan x="25.21" dy="1.2em" class="st3">Serial</tspan></text>		</g>
		<g id="shape4-8" transform="translate(163.352,-261.856)">
			<title>Process.6</title>
			<desc>DFU bank handling</desc>
			<rect x="0" y="378.437" width="70.8661" height="42.5197" class="st1"/>
			<text x="17.43" y="397.3" class="st2">DFU bank <tspan x="20.31" dy="1.2em" class="st3">handling</tspan></text>		</g>
		<g id="group6-12" transform="translate(0.36,-6.73795)">
			<title>Border small</title>
			<g id="shape7-13">
				<title>Sheet.7</title>
				<path d="M0 27.1 L0 400.95 A20.0036 20.0036 -180 0 0 20 420.96 L228.03 420.96 A20.0036 20.0036 -180 0 0 248.03 400.95
							 L248.03 27.1 L0 27.1" class="st4"/>
			</g>
			<g id="shape8-16" transform="translate(0,-393.855)">
				<title>Sheet.8</title>
				<desc>DFU bootloader</desc>
				<path d="M248.03 420.96 L0 420.96 A20.0036 20.0036 0 0 1 20 400.95 L228.03 400.95 A20.0036 20.0036 0 0 1 248.03 420.96
							 Z" class="st5"/>
				<text x="88.72" y="413.95" class="st6">DFU bootloader</text>			</g>
		</g>
		<g id="shape10-21" transform="translate(297.998,-27.9978)">
			<title>Process.12</title>
			<desc>DFU transfer application</desc>
			<rect x="0" y="378.437" width="70.8661" height="42.5197" class="st1"/>
			<text x="12.54" y="397.3" class="st2">DFU transfer <tspan x="16.31" dy="1.2em" class="st3">application</tspan></text>		</g>
		<g id="group11-25" transform="translate(276.738,-0.36)">
			<title>Border small.13</title>
			<g id="shape12-26">
				<title>Sheet.12</title>
				<path d="M0 332.53 L0 400.95 A20.0036 20.0036 -180 0 0 20 420.96 L93.38 420.96 A20.0036 20.0036 -180 0 0 113.39 400.95
							 L113.39 332.53 L0 332.53" class="st4"/>
			</g>
			<g id="shape13-29" transform="translate(0,-88.4216)">
				<title>Sheet.13</title>
				<desc>Peer side</desc>
				<path d="M113.39 420.96 L0 420.96 A20.0036 20.0036 0 0 1 20 400.95 L93.38 400.95 A20.0036 20.0036 0 0 1 113.39 420.96
							 Z" class="st5"/>
				<text x="35.57" y="413.95" class="st6">Peer side</text>			</g>
		</g>
		<g id="shape15-33" transform="translate(49.9663,-339.809)">
			<title>Dynamic connector.15</title>
			<desc>Start DFU procedure</desc>
			<path d="M7.09 420.96 L7.09 450.87" class="st7"/>
			<rect x="-29.8157" y="433.873" width="73.8045" height="9.59985" class="st9"/>
			<text x="-29.82" y="441.07" class="st2">Start DFU procedure</text>		</g>
		<g id="shape18-41" transform="translate(92.486,-276.029)">
			<title>Dynamic connector.4</title>
			<desc>DFU packet</desc>
			<path d="M0 413.87 L65.35 413.87" class="st7"/>
			<rect x="14.3158" y="409.07" width="42.2345" height="9.59985" class="st9"/>
			<text x="14.32" y="416.27" class="st2">DFU packet </text>		</g>
		<g id="shape1-48" transform="translate(21.6198,-183.903)">
			<title>Process.1</title>
			<desc>HCI transport</desc>
			<rect x="0" y="378.437" width="70.8661" height="42.5197" class="st1"/>
			<text x="11.65" y="402.1" class="st2">HCI transport</text>		</g>
		<g id="shape17-51" transform="translate(21.6198,-105.951)">
			<title>Process.17</title>
			<desc>Driver (UART)</desc>
			<rect x="0" y="378.437" width="70.8661" height="42.5197" class="st1"/>
			<text x="10.1" y="402.1" class="st2">Driver (UART)</text>		</g>
		<g id="shape21-54" transform="translate(21.6198,-27.9978)">
			<title>Process.21</title>
			<desc>Physical layer</desc>
			<rect x="0" y="378.437" width="70.8661" height="42.5197" class="st1"/>
			<text x="20.54" y="397.3" class="st2">Physical  <tspan x="26.76" dy="1.2em" class="st3">layer</tspan></text>		</g>
		<g id="shape22-58" transform="translate(163.352,-183.903)">
			<title>Process.22</title>
			<desc>Flash</desc>
			<rect x="0" y="378.437" width="70.8661" height="42.5197" class="st1"/>
			<text x="25.65" y="402.1" class="st2">Flash</text>		</g>
		<g id="shape23-61" transform="translate(205.872,-261.856)">
			<title>Dynamic connector.23</title>
			<desc>Flash handling</desc>
			<path d="M-7.09 420.96 L-7.09 450.87" class="st7"/>
			<rect x="-33.1041" y="433.873" width="52.0348" height="9.59985" class="st9"/>
			<text x="-33.1" y="441.07" class="st2">Flash handling</text>		</g>
		<g id="shape9-68" transform="translate(92.486,-49.2576)">
			<title>Dynamic connector</title>
			<desc>TX</desc>
			<path d="M0 428.04 L199.99 428.04" class="st7"/>
			<rect x="97.6446" y="423.243" width="10.2225" height="9.59985" class="st9"/>
			<text x="97.64" y="430.44" class="st2">TX</text>		</g>
		<g id="shape16-75" transform="translate(297.998,-49.2694)">
			<title>Dynamic connector.13</title>
			<desc>RX</desc>
			<path d="M0 413.88 L-199.99 413.86" class="st7"/>
			<rect x="-108.312" y="409.07" width="11.1132" height="9.59985" class="st9"/>
			<text x="-108.31" y="416.27" class="st2">RX</text>		</g>
		<g id="shape19-82" transform="translate(123.667,-63.4309)">
			<title>Sheet.19</title>
			<desc>UART</desc>
			<rect x="0" y="408.956" width="142.857" height="12" class="st10"/>
			<text x="60.54" y="417.36" class="st2">UART</text>		</g>
		<g id="shape5-85" transform="translate(35.7931,-70.5175)">
			<title>Dynamic connector.19</title>
			<desc>RX</desc>
			<path d="M7.09 420.96 L7.09 391.04" class="st7"/>
			<rect x="1.53007" y="398.44" width="11.1132" height="9.59985" class="st9"/>
			<text x="1.53" y="405.64" class="st2">RX</text>		</g>
		<g id="shape14-92" transform="translate(64.1395,-105.951)">
			<title>Dynamic connector.14</title>
			<desc>TX</desc>
			<path d="M7.09 420.96 L7.09 450.87" class="st7"/>
			<rect x="1.97529" y="433.873" width="10.2225" height="9.59985" class="st9"/>
			<text x="1.98" y="441.07" class="st2">TX</text>		</g>
		<g id="shape20-99" transform="translate(64.1395,-226.423)">
			<title>Dynamic connector.16</title>
			<desc>DFU packet</desc>
			<path d="M-7.09 420.96 L-7.09 391.04" class="st7"/>
			<rect x="-28.2039" y="398.44" width="42.2345" height="9.59985" class="st9"/>
			<text x="-28.2" y="405.64" class="st2">DFU packet</text>		</g>
		<g id="shape24-106" transform="translate(35.7931,-148.47)">
			<title>Dynamic connector.24</title>
			<desc>RX</desc>
			<path d="M7.09 420.96 L7.09 391.04" class="st7"/>
			<rect x="1.53007" y="398.44" width="11.1132" height="9.59985" class="st9"/>
			<text x="1.53" y="405.64" class="st2">RX</text>		</g>
		<g id="shape25-113" transform="translate(64.1395,-183.903)">
			<title>Dynamic connector.20</title>
			<desc>TX</desc>
			<path d="M7.09 420.96 L7.09 450.87" class="st7"/>
			<rect x="1.97529" y="433.873" width="10.2225" height="9.59985" class="st9"/>
			<text x="1.98" y="441.07" class="st2">TX</text>		</g>
	</g>
</svg>
