<?xml version="1.0" encoding="UTF-8" standalone="no"?>
<!DOCTYPE svg PUBLIC "-//W3C//DTD SVG 1.1//EN" "http://www.w3.org/Graphics/SVG/1.1/DTD/svg11.dtd">
<!-- Generated by Microsoft Visio, SVG Export ota_dfu_typical_ctrl_pt_procedure.svg Page-1 -->
<svg xmlns="http://www.w3.org/2000/svg" xmlns:xlink="http://www.w3.org/1999/xlink" xmlns:ev="http://www.w3.org/2001/xml-events"
		width="5.7928in" height="3.44118in" viewBox="0 0 417.082 247.765" xml:space="preserve" color-interpolation-filters="sRGB"
		class="st13">
	<style type="text/css">
	<![CDATA[
		.st1 {fill:#ffffff}
		.st2 {stroke:#000000;stroke-linecap:round;stroke-linejoin:round;stroke-width:0.24}
		.st3 {fill:#000000;font-family:Arial;font-size:0.666664em;font-weight:bold}
		.st4 {stroke:#000000;stroke-dasharray:3.6,2.16;stroke-linecap:round;stroke-linejoin:round;stroke-width:0.24}
		.st5 {marker-end:url(#mrkr12-55);stroke:#000000;stroke-linecap:round;stroke-linejoin:round;stroke-width:0.24}
		.st6 {fill:#000000;fill-opacity:1;stroke:#000000;stroke-opacity:1;stroke-width:0.08695652173913}
		.st7 {fill:#ffffff;stroke:none;stroke-linecap:butt;stroke-width:7.2}
		.st8 {fill:#000000;font-family:Arial;font-size:0.666664em}
		.st9 {fill:#e8eef7;stroke:#000000;stroke-linecap:round;stroke-linejoin:round;stroke-width:0.24}
		.st10 {fill:none;stroke:none;stroke-linecap:round;stroke-linejoin:round;stroke-width:0.72}
		.st11 {fill:#000000;font-family:Arial;font-size:0.833336em}
		.st12 {font-size:1em}
		.st13 {fill:none;fill-rule:evenodd;font-size:12px;overflow:visible;stroke-linecap:square;stroke-miterlimit:3}
	]]>
	</style>

	<defs id="Markers">
		<g id="lend12">
			<path d="M 3 1 L 0 0 L 3 -1 " style="stroke-linecap:round;stroke-linejoin:round;fill:none"/>
		</g>
		<marker id="mrkr12-55" class="st6" orient="auto" markerUnits="strokeWidth" overflow="visible">
			<use xlink:href="#lend12" transform="scale(-11.5,-11.5) "/>
		</marker>
	</defs>
	<g>
		<title>Page-1</title>
		<g id="group1-1" transform="translate(76.8043,-211.645)">
			<title>Class</title>
			<g id="shape2-2" transform="translate(72,8.52651E-014)">
				<title>Sheet.2</title>
				<path d="M0 247.77 L0 211.77 L0 247.77 Z" class="st1"/>
			</g>
			<g id="shape3-5">
				<title>Sheet.3</title>
				<path d="M72 247.77 L0 247.77 L72 247.77 Z" class="st1"/>
			</g>
			<g id="shape4-8">
				<title>Sheet.4</title>
				<path d="M72 247.77 L0 247.77 L72 247.77 Z" class="st1"/>
			</g>
			<g id="shape5-11">
				<title>Sheet.5</title>
				<path d="M72 247.77 L0 247.77 L72 247.77 Z" class="st1"/>
			</g>
			<g id="shape6-14">
				<title>Sheet.6</title>
				<desc>DFU controller</desc>
				<path d="M72 247.77 L72 211.77 L0 211.77 L0 247.77 L72 247.77 ZM0 247.77 L0 211.77 L0 247.77 ZM72 211.77 L72 247.77
							 L72 211.77 Z" class="st1"/>
				<path d="M72 247.77 L72 211.77" class="st2"/>
				<path d="M0 247.77 L0 211.77" class="st2"/>
				<path d="M0 211.77 L72 211.77" class="st2"/>
				<path d="M0 247.77 L72 247.77" class="st2"/>
				<text x="8.22" y="232.17" class="st3">DFU controller</text>			</g>
		</g>
		<g id="group7-21" transform="translate(344.962,-211.645)">
			<title>Class.9</title>
			<g id="shape8-22" transform="translate(72,8.52651E-014)">
				<title>Sheet.8</title>
				<path d="M0 247.77 L0 211.77 L0 247.77 Z" class="st1"/>
			</g>
			<g id="shape9-25">
				<title>Sheet.9</title>
				<path d="M72 247.77 L0 247.77 L72 247.77 Z" class="st1"/>
			</g>
			<g id="shape10-28">
				<title>Sheet.10</title>
				<path d="M72 247.77 L0 247.77 L72 247.77 Z" class="st1"/>
			</g>
			<g id="shape11-31">
				<title>Sheet.11</title>
				<path d="M72 247.77 L0 247.77 L72 247.77 Z" class="st1"/>
			</g>
			<g id="shape12-34">
				<title>Sheet.12</title>
				<desc>DFU target</desc>
				<path d="M72 247.77 L72 211.77 L0 211.77 L0 247.77 L72 247.77 ZM0 247.77 L0 211.77 L0 247.77 ZM72 211.77 L72 247.77
							 L72 211.77 Z" class="st1"/>
				<path d="M72 247.77 L72 211.77" class="st2"/>
				<path d="M0 247.77 L0 211.77" class="st2"/>
				<path d="M0 211.77 L72 211.77" class="st2"/>
				<path d="M0 247.77 L72 247.77" class="st2"/>
				<text x="15.55" y="232.17" class="st3">DFU target</text>			</g>
		</g>
		<g id="shape13-41" transform="translate(380.962,283.885) scale(1,-1)">
			<title>Lifeline.13</title>
			<path d="M0 247.77 L0 198.32" class="st4"/>
		</g>
		<g id="shape14-44" transform="translate(380.962,328.673) scale(1,-1)">
			<title>Lifeline.37</title>
			<path d="M0 247.77 L0 83.86" class="st4"/>
		</g>
		<g id="shape15-47" transform="translate(111.786,286.862) scale(1,-1)">
			<title>Lifeline.19</title>
			<path d="M0 247.77 L0 39.22" class="st4"/>
		</g>
		<g id="shape16-50" transform="translate(380.962,-67.6453) scale(-1,1)">
			<title>Message (seq.diag).49</title>
			<desc>DFU response (GATT Notification on DFU Control Point)</desc>
			<path d="M0 247.77 L268.16 247.77" class="st5"/>
			<rect x="34.9383" y="233.966" width="200.507" height="9.59985" class="st7"/>
			<text x="-235.45" y="241.17" transform="scale(-1,1)" class="st8">DFU response (GATT Notification on DFU Control Point)</text>		</g>
		<g id="shape17-58" transform="translate(112.804,-181.537)">
			<title>Message (seq.diag).34</title>
			<desc>DFU procedure request (GATT Write on DFU Control Point)</desc>
			<path d="M0 247.77 L268.16 247.77" class="st5"/>
			<rect x="27.1577" y="233.966" width="211.616" height="9.59985" class="st7"/>
			<text x="27.16" y="241.17" class="st8">DFU procedure request (GATT Write on DFU Control Point)</text>		</g>
		<g id="shape18-65" transform="translate(380.962,-112.514) scale(-1,1)">
			<title>45 degree single</title>
			<desc>Data packet exchange (GATT Write on DFU Packet Characteristic)</desc>
			<path d="M0 229.77 L18 211.77 L18 223.65 L269.18 223.65 L269.18 235.89 L18 235.89 L18 247.77 L0 229.77 Z" class="st9"/>
			<text x="-253.07" y="232.17" transform="scale(-1,1)" class="st8">Data packet exchange (GATT Write on DFU Packet Characteristic)</text>		</g>
		<g id="shape19-68" transform="translate(7.44661,-155.728)">
			<title>Sheet.19</title>
			<desc>Procedure start.</desc>
			<rect x="0" y="187.94" width="99.2126" height="59.8254" class="st10"/>
			<text x="14.03" y="220.85" class="st11">Procedure start.</text>		</g>
		<g id="shape20-71" transform="translate(7.44661,-104.704)">
			<title>Sheet.20</title>
			<desc>This exchange depends on the procedure that was requested.</desc>
			<rect x="0" y="187.94" width="99.2126" height="59.8254" class="st10"/>
			<text x="17.09" y="202.85" class="st11">This exchange <tspan x="15.13" dy="1.2em" class="st12">depends on the </tspan><tspan
						x="7.08" dy="1.2em" class="st12">procedure that was </tspan><tspan x="25.98" dy="1.2em" class="st12">requested</tspan>.</text>		</g>
		<g id="shape21-77" transform="translate(0.36,-31.3011)">
			<title>Sheet.21</title>
			<desc>Procedure end. Success / failure is determined by the respons...</desc>
			<rect x="0" y="187.94" width="99.2126" height="59.8254" class="st10"/>
			<text x="15.42" y="202.85" class="st11">Procedure end. <tspan x="7.92" dy="1.2em" class="st12">Success </tspan>/ failure is <tspan
						x="9.58" dy="1.2em" class="st12">determined by the </tspan><tspan x="14.31" dy="1.2em" class="st12">response value</tspan>.</text>		</g>
	</g>
</svg>
