G75*
%MOIN*%
%OFA0B0*%
%FSLAX25Y25*%
%IPPOS*%
%LPD*%
%AMOC8*
5,1,8,0,0,1.08239X$1,22.5*
%
%ADD10C,0.00000*%
%ADD11C,0.01600*%
D10*
X0027475Y0032412D02*
X0027477Y0032538D01*
X0027483Y0032664D01*
X0027493Y0032790D01*
X0027507Y0032916D01*
X0027525Y0033041D01*
X0027547Y0033165D01*
X0027572Y0033289D01*
X0027602Y0033412D01*
X0027635Y0033533D01*
X0027673Y0033654D01*
X0027714Y0033773D01*
X0027759Y0033892D01*
X0027807Y0034008D01*
X0027859Y0034123D01*
X0027915Y0034236D01*
X0027975Y0034348D01*
X0028038Y0034457D01*
X0028104Y0034565D01*
X0028173Y0034670D01*
X0028246Y0034773D01*
X0028323Y0034874D01*
X0028402Y0034972D01*
X0028484Y0035068D01*
X0028570Y0035161D01*
X0028658Y0035252D01*
X0028749Y0035339D01*
X0028843Y0035424D01*
X0028939Y0035505D01*
X0029038Y0035584D01*
X0029139Y0035659D01*
X0029243Y0035731D01*
X0029349Y0035800D01*
X0029457Y0035866D01*
X0029567Y0035928D01*
X0029679Y0035986D01*
X0029792Y0036041D01*
X0029908Y0036092D01*
X0030025Y0036140D01*
X0030143Y0036184D01*
X0030263Y0036224D01*
X0030384Y0036260D01*
X0030506Y0036293D01*
X0030629Y0036322D01*
X0030753Y0036346D01*
X0030877Y0036367D01*
X0031002Y0036384D01*
X0031128Y0036397D01*
X0031254Y0036406D01*
X0031380Y0036411D01*
X0031507Y0036412D01*
X0031633Y0036409D01*
X0031759Y0036402D01*
X0031885Y0036391D01*
X0032010Y0036376D01*
X0032135Y0036357D01*
X0032259Y0036334D01*
X0032383Y0036308D01*
X0032505Y0036277D01*
X0032627Y0036243D01*
X0032747Y0036204D01*
X0032866Y0036162D01*
X0032984Y0036117D01*
X0033100Y0036067D01*
X0033215Y0036014D01*
X0033327Y0035957D01*
X0033438Y0035897D01*
X0033547Y0035833D01*
X0033654Y0035766D01*
X0033759Y0035696D01*
X0033862Y0035622D01*
X0033962Y0035545D01*
X0034060Y0035465D01*
X0034155Y0035382D01*
X0034247Y0035296D01*
X0034337Y0035207D01*
X0034424Y0035115D01*
X0034507Y0035021D01*
X0034588Y0034924D01*
X0034666Y0034824D01*
X0034741Y0034722D01*
X0034812Y0034618D01*
X0034880Y0034511D01*
X0034944Y0034403D01*
X0035005Y0034292D01*
X0035063Y0034180D01*
X0035117Y0034066D01*
X0035167Y0033950D01*
X0035214Y0033833D01*
X0035257Y0033714D01*
X0035296Y0033594D01*
X0035332Y0033473D01*
X0035363Y0033350D01*
X0035391Y0033227D01*
X0035415Y0033103D01*
X0035435Y0032978D01*
X0035451Y0032853D01*
X0035463Y0032727D01*
X0035471Y0032601D01*
X0035475Y0032475D01*
X0035475Y0032349D01*
X0035471Y0032223D01*
X0035463Y0032097D01*
X0035451Y0031971D01*
X0035435Y0031846D01*
X0035415Y0031721D01*
X0035391Y0031597D01*
X0035363Y0031474D01*
X0035332Y0031351D01*
X0035296Y0031230D01*
X0035257Y0031110D01*
X0035214Y0030991D01*
X0035167Y0030874D01*
X0035117Y0030758D01*
X0035063Y0030644D01*
X0035005Y0030532D01*
X0034944Y0030421D01*
X0034880Y0030313D01*
X0034812Y0030206D01*
X0034741Y0030102D01*
X0034666Y0030000D01*
X0034588Y0029900D01*
X0034507Y0029803D01*
X0034424Y0029709D01*
X0034337Y0029617D01*
X0034247Y0029528D01*
X0034155Y0029442D01*
X0034060Y0029359D01*
X0033962Y0029279D01*
X0033862Y0029202D01*
X0033759Y0029128D01*
X0033654Y0029058D01*
X0033547Y0028991D01*
X0033438Y0028927D01*
X0033327Y0028867D01*
X0033215Y0028810D01*
X0033100Y0028757D01*
X0032984Y0028707D01*
X0032866Y0028662D01*
X0032747Y0028620D01*
X0032627Y0028581D01*
X0032505Y0028547D01*
X0032383Y0028516D01*
X0032259Y0028490D01*
X0032135Y0028467D01*
X0032010Y0028448D01*
X0031885Y0028433D01*
X0031759Y0028422D01*
X0031633Y0028415D01*
X0031507Y0028412D01*
X0031380Y0028413D01*
X0031254Y0028418D01*
X0031128Y0028427D01*
X0031002Y0028440D01*
X0030877Y0028457D01*
X0030753Y0028478D01*
X0030629Y0028502D01*
X0030506Y0028531D01*
X0030384Y0028564D01*
X0030263Y0028600D01*
X0030143Y0028640D01*
X0030025Y0028684D01*
X0029908Y0028732D01*
X0029792Y0028783D01*
X0029679Y0028838D01*
X0029567Y0028896D01*
X0029457Y0028958D01*
X0029349Y0029024D01*
X0029243Y0029093D01*
X0029139Y0029165D01*
X0029038Y0029240D01*
X0028939Y0029319D01*
X0028843Y0029400D01*
X0028749Y0029485D01*
X0028658Y0029572D01*
X0028570Y0029663D01*
X0028484Y0029756D01*
X0028402Y0029852D01*
X0028323Y0029950D01*
X0028246Y0030051D01*
X0028173Y0030154D01*
X0028104Y0030259D01*
X0028038Y0030367D01*
X0027975Y0030476D01*
X0027915Y0030588D01*
X0027859Y0030701D01*
X0027807Y0030816D01*
X0027759Y0030932D01*
X0027714Y0031051D01*
X0027673Y0031170D01*
X0027635Y0031291D01*
X0027602Y0031412D01*
X0027572Y0031535D01*
X0027547Y0031659D01*
X0027525Y0031783D01*
X0027507Y0031908D01*
X0027493Y0032034D01*
X0027483Y0032160D01*
X0027477Y0032286D01*
X0027475Y0032412D01*
X0068475Y0146412D02*
X0068477Y0146501D01*
X0068483Y0146590D01*
X0068493Y0146679D01*
X0068507Y0146767D01*
X0068524Y0146854D01*
X0068546Y0146940D01*
X0068572Y0147026D01*
X0068601Y0147110D01*
X0068634Y0147193D01*
X0068670Y0147274D01*
X0068711Y0147354D01*
X0068754Y0147431D01*
X0068801Y0147507D01*
X0068852Y0147580D01*
X0068905Y0147651D01*
X0068962Y0147720D01*
X0069022Y0147786D01*
X0069085Y0147850D01*
X0069150Y0147910D01*
X0069218Y0147968D01*
X0069289Y0148022D01*
X0069362Y0148073D01*
X0069437Y0148121D01*
X0069514Y0148166D01*
X0069593Y0148207D01*
X0069674Y0148244D01*
X0069756Y0148278D01*
X0069840Y0148309D01*
X0069925Y0148335D01*
X0070011Y0148358D01*
X0070098Y0148376D01*
X0070186Y0148391D01*
X0070275Y0148402D01*
X0070364Y0148409D01*
X0070453Y0148412D01*
X0070542Y0148411D01*
X0070631Y0148406D01*
X0070719Y0148397D01*
X0070808Y0148384D01*
X0070895Y0148367D01*
X0070982Y0148347D01*
X0071068Y0148322D01*
X0071152Y0148294D01*
X0071235Y0148262D01*
X0071317Y0148226D01*
X0071397Y0148187D01*
X0071475Y0148144D01*
X0071551Y0148098D01*
X0071625Y0148048D01*
X0071697Y0147995D01*
X0071766Y0147939D01*
X0071833Y0147880D01*
X0071897Y0147818D01*
X0071958Y0147754D01*
X0072017Y0147686D01*
X0072072Y0147616D01*
X0072124Y0147544D01*
X0072173Y0147469D01*
X0072218Y0147393D01*
X0072260Y0147314D01*
X0072298Y0147234D01*
X0072333Y0147152D01*
X0072364Y0147068D01*
X0072392Y0146983D01*
X0072415Y0146897D01*
X0072435Y0146810D01*
X0072451Y0146723D01*
X0072463Y0146634D01*
X0072471Y0146546D01*
X0072475Y0146457D01*
X0072475Y0146367D01*
X0072471Y0146278D01*
X0072463Y0146190D01*
X0072451Y0146101D01*
X0072435Y0146014D01*
X0072415Y0145927D01*
X0072392Y0145841D01*
X0072364Y0145756D01*
X0072333Y0145672D01*
X0072298Y0145590D01*
X0072260Y0145510D01*
X0072218Y0145431D01*
X0072173Y0145355D01*
X0072124Y0145280D01*
X0072072Y0145208D01*
X0072017Y0145138D01*
X0071958Y0145070D01*
X0071897Y0145006D01*
X0071833Y0144944D01*
X0071766Y0144885D01*
X0071697Y0144829D01*
X0071625Y0144776D01*
X0071551Y0144726D01*
X0071475Y0144680D01*
X0071397Y0144637D01*
X0071317Y0144598D01*
X0071235Y0144562D01*
X0071152Y0144530D01*
X0071068Y0144502D01*
X0070982Y0144477D01*
X0070895Y0144457D01*
X0070808Y0144440D01*
X0070719Y0144427D01*
X0070631Y0144418D01*
X0070542Y0144413D01*
X0070453Y0144412D01*
X0070364Y0144415D01*
X0070275Y0144422D01*
X0070186Y0144433D01*
X0070098Y0144448D01*
X0070011Y0144466D01*
X0069925Y0144489D01*
X0069840Y0144515D01*
X0069756Y0144546D01*
X0069674Y0144580D01*
X0069593Y0144617D01*
X0069514Y0144658D01*
X0069437Y0144703D01*
X0069362Y0144751D01*
X0069289Y0144802D01*
X0069218Y0144856D01*
X0069150Y0144914D01*
X0069085Y0144974D01*
X0069022Y0145038D01*
X0068962Y0145104D01*
X0068905Y0145173D01*
X0068852Y0145244D01*
X0068801Y0145317D01*
X0068754Y0145393D01*
X0068711Y0145470D01*
X0068670Y0145550D01*
X0068634Y0145631D01*
X0068601Y0145714D01*
X0068572Y0145798D01*
X0068546Y0145884D01*
X0068524Y0145970D01*
X0068507Y0146057D01*
X0068493Y0146145D01*
X0068483Y0146234D01*
X0068477Y0146323D01*
X0068475Y0146412D01*
X0068475Y0154412D02*
X0068477Y0154501D01*
X0068483Y0154590D01*
X0068493Y0154679D01*
X0068507Y0154767D01*
X0068524Y0154854D01*
X0068546Y0154940D01*
X0068572Y0155026D01*
X0068601Y0155110D01*
X0068634Y0155193D01*
X0068670Y0155274D01*
X0068711Y0155354D01*
X0068754Y0155431D01*
X0068801Y0155507D01*
X0068852Y0155580D01*
X0068905Y0155651D01*
X0068962Y0155720D01*
X0069022Y0155786D01*
X0069085Y0155850D01*
X0069150Y0155910D01*
X0069218Y0155968D01*
X0069289Y0156022D01*
X0069362Y0156073D01*
X0069437Y0156121D01*
X0069514Y0156166D01*
X0069593Y0156207D01*
X0069674Y0156244D01*
X0069756Y0156278D01*
X0069840Y0156309D01*
X0069925Y0156335D01*
X0070011Y0156358D01*
X0070098Y0156376D01*
X0070186Y0156391D01*
X0070275Y0156402D01*
X0070364Y0156409D01*
X0070453Y0156412D01*
X0070542Y0156411D01*
X0070631Y0156406D01*
X0070719Y0156397D01*
X0070808Y0156384D01*
X0070895Y0156367D01*
X0070982Y0156347D01*
X0071068Y0156322D01*
X0071152Y0156294D01*
X0071235Y0156262D01*
X0071317Y0156226D01*
X0071397Y0156187D01*
X0071475Y0156144D01*
X0071551Y0156098D01*
X0071625Y0156048D01*
X0071697Y0155995D01*
X0071766Y0155939D01*
X0071833Y0155880D01*
X0071897Y0155818D01*
X0071958Y0155754D01*
X0072017Y0155686D01*
X0072072Y0155616D01*
X0072124Y0155544D01*
X0072173Y0155469D01*
X0072218Y0155393D01*
X0072260Y0155314D01*
X0072298Y0155234D01*
X0072333Y0155152D01*
X0072364Y0155068D01*
X0072392Y0154983D01*
X0072415Y0154897D01*
X0072435Y0154810D01*
X0072451Y0154723D01*
X0072463Y0154634D01*
X0072471Y0154546D01*
X0072475Y0154457D01*
X0072475Y0154367D01*
X0072471Y0154278D01*
X0072463Y0154190D01*
X0072451Y0154101D01*
X0072435Y0154014D01*
X0072415Y0153927D01*
X0072392Y0153841D01*
X0072364Y0153756D01*
X0072333Y0153672D01*
X0072298Y0153590D01*
X0072260Y0153510D01*
X0072218Y0153431D01*
X0072173Y0153355D01*
X0072124Y0153280D01*
X0072072Y0153208D01*
X0072017Y0153138D01*
X0071958Y0153070D01*
X0071897Y0153006D01*
X0071833Y0152944D01*
X0071766Y0152885D01*
X0071697Y0152829D01*
X0071625Y0152776D01*
X0071551Y0152726D01*
X0071475Y0152680D01*
X0071397Y0152637D01*
X0071317Y0152598D01*
X0071235Y0152562D01*
X0071152Y0152530D01*
X0071068Y0152502D01*
X0070982Y0152477D01*
X0070895Y0152457D01*
X0070808Y0152440D01*
X0070719Y0152427D01*
X0070631Y0152418D01*
X0070542Y0152413D01*
X0070453Y0152412D01*
X0070364Y0152415D01*
X0070275Y0152422D01*
X0070186Y0152433D01*
X0070098Y0152448D01*
X0070011Y0152466D01*
X0069925Y0152489D01*
X0069840Y0152515D01*
X0069756Y0152546D01*
X0069674Y0152580D01*
X0069593Y0152617D01*
X0069514Y0152658D01*
X0069437Y0152703D01*
X0069362Y0152751D01*
X0069289Y0152802D01*
X0069218Y0152856D01*
X0069150Y0152914D01*
X0069085Y0152974D01*
X0069022Y0153038D01*
X0068962Y0153104D01*
X0068905Y0153173D01*
X0068852Y0153244D01*
X0068801Y0153317D01*
X0068754Y0153393D01*
X0068711Y0153470D01*
X0068670Y0153550D01*
X0068634Y0153631D01*
X0068601Y0153714D01*
X0068572Y0153798D01*
X0068546Y0153884D01*
X0068524Y0153970D01*
X0068507Y0154057D01*
X0068493Y0154145D01*
X0068483Y0154234D01*
X0068477Y0154323D01*
X0068475Y0154412D01*
X0048475Y0150412D02*
X0048477Y0150501D01*
X0048483Y0150590D01*
X0048493Y0150679D01*
X0048507Y0150767D01*
X0048524Y0150854D01*
X0048546Y0150940D01*
X0048572Y0151026D01*
X0048601Y0151110D01*
X0048634Y0151193D01*
X0048670Y0151274D01*
X0048711Y0151354D01*
X0048754Y0151431D01*
X0048801Y0151507D01*
X0048852Y0151580D01*
X0048905Y0151651D01*
X0048962Y0151720D01*
X0049022Y0151786D01*
X0049085Y0151850D01*
X0049150Y0151910D01*
X0049218Y0151968D01*
X0049289Y0152022D01*
X0049362Y0152073D01*
X0049437Y0152121D01*
X0049514Y0152166D01*
X0049593Y0152207D01*
X0049674Y0152244D01*
X0049756Y0152278D01*
X0049840Y0152309D01*
X0049925Y0152335D01*
X0050011Y0152358D01*
X0050098Y0152376D01*
X0050186Y0152391D01*
X0050275Y0152402D01*
X0050364Y0152409D01*
X0050453Y0152412D01*
X0050542Y0152411D01*
X0050631Y0152406D01*
X0050719Y0152397D01*
X0050808Y0152384D01*
X0050895Y0152367D01*
X0050982Y0152347D01*
X0051068Y0152322D01*
X0051152Y0152294D01*
X0051235Y0152262D01*
X0051317Y0152226D01*
X0051397Y0152187D01*
X0051475Y0152144D01*
X0051551Y0152098D01*
X0051625Y0152048D01*
X0051697Y0151995D01*
X0051766Y0151939D01*
X0051833Y0151880D01*
X0051897Y0151818D01*
X0051958Y0151754D01*
X0052017Y0151686D01*
X0052072Y0151616D01*
X0052124Y0151544D01*
X0052173Y0151469D01*
X0052218Y0151393D01*
X0052260Y0151314D01*
X0052298Y0151234D01*
X0052333Y0151152D01*
X0052364Y0151068D01*
X0052392Y0150983D01*
X0052415Y0150897D01*
X0052435Y0150810D01*
X0052451Y0150723D01*
X0052463Y0150634D01*
X0052471Y0150546D01*
X0052475Y0150457D01*
X0052475Y0150367D01*
X0052471Y0150278D01*
X0052463Y0150190D01*
X0052451Y0150101D01*
X0052435Y0150014D01*
X0052415Y0149927D01*
X0052392Y0149841D01*
X0052364Y0149756D01*
X0052333Y0149672D01*
X0052298Y0149590D01*
X0052260Y0149510D01*
X0052218Y0149431D01*
X0052173Y0149355D01*
X0052124Y0149280D01*
X0052072Y0149208D01*
X0052017Y0149138D01*
X0051958Y0149070D01*
X0051897Y0149006D01*
X0051833Y0148944D01*
X0051766Y0148885D01*
X0051697Y0148829D01*
X0051625Y0148776D01*
X0051551Y0148726D01*
X0051475Y0148680D01*
X0051397Y0148637D01*
X0051317Y0148598D01*
X0051235Y0148562D01*
X0051152Y0148530D01*
X0051068Y0148502D01*
X0050982Y0148477D01*
X0050895Y0148457D01*
X0050808Y0148440D01*
X0050719Y0148427D01*
X0050631Y0148418D01*
X0050542Y0148413D01*
X0050453Y0148412D01*
X0050364Y0148415D01*
X0050275Y0148422D01*
X0050186Y0148433D01*
X0050098Y0148448D01*
X0050011Y0148466D01*
X0049925Y0148489D01*
X0049840Y0148515D01*
X0049756Y0148546D01*
X0049674Y0148580D01*
X0049593Y0148617D01*
X0049514Y0148658D01*
X0049437Y0148703D01*
X0049362Y0148751D01*
X0049289Y0148802D01*
X0049218Y0148856D01*
X0049150Y0148914D01*
X0049085Y0148974D01*
X0049022Y0149038D01*
X0048962Y0149104D01*
X0048905Y0149173D01*
X0048852Y0149244D01*
X0048801Y0149317D01*
X0048754Y0149393D01*
X0048711Y0149470D01*
X0048670Y0149550D01*
X0048634Y0149631D01*
X0048601Y0149714D01*
X0048572Y0149798D01*
X0048546Y0149884D01*
X0048524Y0149970D01*
X0048507Y0150057D01*
X0048493Y0150145D01*
X0048483Y0150234D01*
X0048477Y0150323D01*
X0048475Y0150412D01*
X0029475Y0154412D02*
X0029477Y0154538D01*
X0029483Y0154664D01*
X0029493Y0154790D01*
X0029507Y0154916D01*
X0029525Y0155041D01*
X0029547Y0155165D01*
X0029572Y0155289D01*
X0029602Y0155412D01*
X0029635Y0155533D01*
X0029673Y0155654D01*
X0029714Y0155773D01*
X0029759Y0155892D01*
X0029807Y0156008D01*
X0029859Y0156123D01*
X0029915Y0156236D01*
X0029975Y0156348D01*
X0030038Y0156457D01*
X0030104Y0156565D01*
X0030173Y0156670D01*
X0030246Y0156773D01*
X0030323Y0156874D01*
X0030402Y0156972D01*
X0030484Y0157068D01*
X0030570Y0157161D01*
X0030658Y0157252D01*
X0030749Y0157339D01*
X0030843Y0157424D01*
X0030939Y0157505D01*
X0031038Y0157584D01*
X0031139Y0157659D01*
X0031243Y0157731D01*
X0031349Y0157800D01*
X0031457Y0157866D01*
X0031567Y0157928D01*
X0031679Y0157986D01*
X0031792Y0158041D01*
X0031908Y0158092D01*
X0032025Y0158140D01*
X0032143Y0158184D01*
X0032263Y0158224D01*
X0032384Y0158260D01*
X0032506Y0158293D01*
X0032629Y0158322D01*
X0032753Y0158346D01*
X0032877Y0158367D01*
X0033002Y0158384D01*
X0033128Y0158397D01*
X0033254Y0158406D01*
X0033380Y0158411D01*
X0033507Y0158412D01*
X0033633Y0158409D01*
X0033759Y0158402D01*
X0033885Y0158391D01*
X0034010Y0158376D01*
X0034135Y0158357D01*
X0034259Y0158334D01*
X0034383Y0158308D01*
X0034505Y0158277D01*
X0034627Y0158243D01*
X0034747Y0158204D01*
X0034866Y0158162D01*
X0034984Y0158117D01*
X0035100Y0158067D01*
X0035215Y0158014D01*
X0035327Y0157957D01*
X0035438Y0157897D01*
X0035547Y0157833D01*
X0035654Y0157766D01*
X0035759Y0157696D01*
X0035862Y0157622D01*
X0035962Y0157545D01*
X0036060Y0157465D01*
X0036155Y0157382D01*
X0036247Y0157296D01*
X0036337Y0157207D01*
X0036424Y0157115D01*
X0036507Y0157021D01*
X0036588Y0156924D01*
X0036666Y0156824D01*
X0036741Y0156722D01*
X0036812Y0156618D01*
X0036880Y0156511D01*
X0036944Y0156403D01*
X0037005Y0156292D01*
X0037063Y0156180D01*
X0037117Y0156066D01*
X0037167Y0155950D01*
X0037214Y0155833D01*
X0037257Y0155714D01*
X0037296Y0155594D01*
X0037332Y0155473D01*
X0037363Y0155350D01*
X0037391Y0155227D01*
X0037415Y0155103D01*
X0037435Y0154978D01*
X0037451Y0154853D01*
X0037463Y0154727D01*
X0037471Y0154601D01*
X0037475Y0154475D01*
X0037475Y0154349D01*
X0037471Y0154223D01*
X0037463Y0154097D01*
X0037451Y0153971D01*
X0037435Y0153846D01*
X0037415Y0153721D01*
X0037391Y0153597D01*
X0037363Y0153474D01*
X0037332Y0153351D01*
X0037296Y0153230D01*
X0037257Y0153110D01*
X0037214Y0152991D01*
X0037167Y0152874D01*
X0037117Y0152758D01*
X0037063Y0152644D01*
X0037005Y0152532D01*
X0036944Y0152421D01*
X0036880Y0152313D01*
X0036812Y0152206D01*
X0036741Y0152102D01*
X0036666Y0152000D01*
X0036588Y0151900D01*
X0036507Y0151803D01*
X0036424Y0151709D01*
X0036337Y0151617D01*
X0036247Y0151528D01*
X0036155Y0151442D01*
X0036060Y0151359D01*
X0035962Y0151279D01*
X0035862Y0151202D01*
X0035759Y0151128D01*
X0035654Y0151058D01*
X0035547Y0150991D01*
X0035438Y0150927D01*
X0035327Y0150867D01*
X0035215Y0150810D01*
X0035100Y0150757D01*
X0034984Y0150707D01*
X0034866Y0150662D01*
X0034747Y0150620D01*
X0034627Y0150581D01*
X0034505Y0150547D01*
X0034383Y0150516D01*
X0034259Y0150490D01*
X0034135Y0150467D01*
X0034010Y0150448D01*
X0033885Y0150433D01*
X0033759Y0150422D01*
X0033633Y0150415D01*
X0033507Y0150412D01*
X0033380Y0150413D01*
X0033254Y0150418D01*
X0033128Y0150427D01*
X0033002Y0150440D01*
X0032877Y0150457D01*
X0032753Y0150478D01*
X0032629Y0150502D01*
X0032506Y0150531D01*
X0032384Y0150564D01*
X0032263Y0150600D01*
X0032143Y0150640D01*
X0032025Y0150684D01*
X0031908Y0150732D01*
X0031792Y0150783D01*
X0031679Y0150838D01*
X0031567Y0150896D01*
X0031457Y0150958D01*
X0031349Y0151024D01*
X0031243Y0151093D01*
X0031139Y0151165D01*
X0031038Y0151240D01*
X0030939Y0151319D01*
X0030843Y0151400D01*
X0030749Y0151485D01*
X0030658Y0151572D01*
X0030570Y0151663D01*
X0030484Y0151756D01*
X0030402Y0151852D01*
X0030323Y0151950D01*
X0030246Y0152051D01*
X0030173Y0152154D01*
X0030104Y0152259D01*
X0030038Y0152367D01*
X0029975Y0152476D01*
X0029915Y0152588D01*
X0029859Y0152701D01*
X0029807Y0152816D01*
X0029759Y0152932D01*
X0029714Y0153051D01*
X0029673Y0153170D01*
X0029635Y0153291D01*
X0029602Y0153412D01*
X0029572Y0153535D01*
X0029547Y0153659D01*
X0029525Y0153783D01*
X0029507Y0153908D01*
X0029493Y0154034D01*
X0029483Y0154160D01*
X0029477Y0154286D01*
X0029475Y0154412D01*
X0104475Y0159412D02*
X0104477Y0159538D01*
X0104483Y0159664D01*
X0104493Y0159790D01*
X0104507Y0159916D01*
X0104525Y0160041D01*
X0104547Y0160165D01*
X0104572Y0160289D01*
X0104602Y0160412D01*
X0104635Y0160533D01*
X0104673Y0160654D01*
X0104714Y0160773D01*
X0104759Y0160892D01*
X0104807Y0161008D01*
X0104859Y0161123D01*
X0104915Y0161236D01*
X0104975Y0161348D01*
X0105038Y0161457D01*
X0105104Y0161565D01*
X0105173Y0161670D01*
X0105246Y0161773D01*
X0105323Y0161874D01*
X0105402Y0161972D01*
X0105484Y0162068D01*
X0105570Y0162161D01*
X0105658Y0162252D01*
X0105749Y0162339D01*
X0105843Y0162424D01*
X0105939Y0162505D01*
X0106038Y0162584D01*
X0106139Y0162659D01*
X0106243Y0162731D01*
X0106349Y0162800D01*
X0106457Y0162866D01*
X0106567Y0162928D01*
X0106679Y0162986D01*
X0106792Y0163041D01*
X0106908Y0163092D01*
X0107025Y0163140D01*
X0107143Y0163184D01*
X0107263Y0163224D01*
X0107384Y0163260D01*
X0107506Y0163293D01*
X0107629Y0163322D01*
X0107753Y0163346D01*
X0107877Y0163367D01*
X0108002Y0163384D01*
X0108128Y0163397D01*
X0108254Y0163406D01*
X0108380Y0163411D01*
X0108507Y0163412D01*
X0108633Y0163409D01*
X0108759Y0163402D01*
X0108885Y0163391D01*
X0109010Y0163376D01*
X0109135Y0163357D01*
X0109259Y0163334D01*
X0109383Y0163308D01*
X0109505Y0163277D01*
X0109627Y0163243D01*
X0109747Y0163204D01*
X0109866Y0163162D01*
X0109984Y0163117D01*
X0110100Y0163067D01*
X0110215Y0163014D01*
X0110327Y0162957D01*
X0110438Y0162897D01*
X0110547Y0162833D01*
X0110654Y0162766D01*
X0110759Y0162696D01*
X0110862Y0162622D01*
X0110962Y0162545D01*
X0111060Y0162465D01*
X0111155Y0162382D01*
X0111247Y0162296D01*
X0111337Y0162207D01*
X0111424Y0162115D01*
X0111507Y0162021D01*
X0111588Y0161924D01*
X0111666Y0161824D01*
X0111741Y0161722D01*
X0111812Y0161618D01*
X0111880Y0161511D01*
X0111944Y0161403D01*
X0112005Y0161292D01*
X0112063Y0161180D01*
X0112117Y0161066D01*
X0112167Y0160950D01*
X0112214Y0160833D01*
X0112257Y0160714D01*
X0112296Y0160594D01*
X0112332Y0160473D01*
X0112363Y0160350D01*
X0112391Y0160227D01*
X0112415Y0160103D01*
X0112435Y0159978D01*
X0112451Y0159853D01*
X0112463Y0159727D01*
X0112471Y0159601D01*
X0112475Y0159475D01*
X0112475Y0159349D01*
X0112471Y0159223D01*
X0112463Y0159097D01*
X0112451Y0158971D01*
X0112435Y0158846D01*
X0112415Y0158721D01*
X0112391Y0158597D01*
X0112363Y0158474D01*
X0112332Y0158351D01*
X0112296Y0158230D01*
X0112257Y0158110D01*
X0112214Y0157991D01*
X0112167Y0157874D01*
X0112117Y0157758D01*
X0112063Y0157644D01*
X0112005Y0157532D01*
X0111944Y0157421D01*
X0111880Y0157313D01*
X0111812Y0157206D01*
X0111741Y0157102D01*
X0111666Y0157000D01*
X0111588Y0156900D01*
X0111507Y0156803D01*
X0111424Y0156709D01*
X0111337Y0156617D01*
X0111247Y0156528D01*
X0111155Y0156442D01*
X0111060Y0156359D01*
X0110962Y0156279D01*
X0110862Y0156202D01*
X0110759Y0156128D01*
X0110654Y0156058D01*
X0110547Y0155991D01*
X0110438Y0155927D01*
X0110327Y0155867D01*
X0110215Y0155810D01*
X0110100Y0155757D01*
X0109984Y0155707D01*
X0109866Y0155662D01*
X0109747Y0155620D01*
X0109627Y0155581D01*
X0109505Y0155547D01*
X0109383Y0155516D01*
X0109259Y0155490D01*
X0109135Y0155467D01*
X0109010Y0155448D01*
X0108885Y0155433D01*
X0108759Y0155422D01*
X0108633Y0155415D01*
X0108507Y0155412D01*
X0108380Y0155413D01*
X0108254Y0155418D01*
X0108128Y0155427D01*
X0108002Y0155440D01*
X0107877Y0155457D01*
X0107753Y0155478D01*
X0107629Y0155502D01*
X0107506Y0155531D01*
X0107384Y0155564D01*
X0107263Y0155600D01*
X0107143Y0155640D01*
X0107025Y0155684D01*
X0106908Y0155732D01*
X0106792Y0155783D01*
X0106679Y0155838D01*
X0106567Y0155896D01*
X0106457Y0155958D01*
X0106349Y0156024D01*
X0106243Y0156093D01*
X0106139Y0156165D01*
X0106038Y0156240D01*
X0105939Y0156319D01*
X0105843Y0156400D01*
X0105749Y0156485D01*
X0105658Y0156572D01*
X0105570Y0156663D01*
X0105484Y0156756D01*
X0105402Y0156852D01*
X0105323Y0156950D01*
X0105246Y0157051D01*
X0105173Y0157154D01*
X0105104Y0157259D01*
X0105038Y0157367D01*
X0104975Y0157476D01*
X0104915Y0157588D01*
X0104859Y0157701D01*
X0104807Y0157816D01*
X0104759Y0157932D01*
X0104714Y0158051D01*
X0104673Y0158170D01*
X0104635Y0158291D01*
X0104602Y0158412D01*
X0104572Y0158535D01*
X0104547Y0158659D01*
X0104525Y0158783D01*
X0104507Y0158908D01*
X0104493Y0159034D01*
X0104483Y0159160D01*
X0104477Y0159286D01*
X0104475Y0159412D01*
X0150475Y0079412D02*
X0150477Y0079538D01*
X0150483Y0079664D01*
X0150493Y0079790D01*
X0150507Y0079916D01*
X0150525Y0080041D01*
X0150547Y0080165D01*
X0150572Y0080289D01*
X0150602Y0080412D01*
X0150635Y0080533D01*
X0150673Y0080654D01*
X0150714Y0080773D01*
X0150759Y0080892D01*
X0150807Y0081008D01*
X0150859Y0081123D01*
X0150915Y0081236D01*
X0150975Y0081348D01*
X0151038Y0081457D01*
X0151104Y0081565D01*
X0151173Y0081670D01*
X0151246Y0081773D01*
X0151323Y0081874D01*
X0151402Y0081972D01*
X0151484Y0082068D01*
X0151570Y0082161D01*
X0151658Y0082252D01*
X0151749Y0082339D01*
X0151843Y0082424D01*
X0151939Y0082505D01*
X0152038Y0082584D01*
X0152139Y0082659D01*
X0152243Y0082731D01*
X0152349Y0082800D01*
X0152457Y0082866D01*
X0152567Y0082928D01*
X0152679Y0082986D01*
X0152792Y0083041D01*
X0152908Y0083092D01*
X0153025Y0083140D01*
X0153143Y0083184D01*
X0153263Y0083224D01*
X0153384Y0083260D01*
X0153506Y0083293D01*
X0153629Y0083322D01*
X0153753Y0083346D01*
X0153877Y0083367D01*
X0154002Y0083384D01*
X0154128Y0083397D01*
X0154254Y0083406D01*
X0154380Y0083411D01*
X0154507Y0083412D01*
X0154633Y0083409D01*
X0154759Y0083402D01*
X0154885Y0083391D01*
X0155010Y0083376D01*
X0155135Y0083357D01*
X0155259Y0083334D01*
X0155383Y0083308D01*
X0155505Y0083277D01*
X0155627Y0083243D01*
X0155747Y0083204D01*
X0155866Y0083162D01*
X0155984Y0083117D01*
X0156100Y0083067D01*
X0156215Y0083014D01*
X0156327Y0082957D01*
X0156438Y0082897D01*
X0156547Y0082833D01*
X0156654Y0082766D01*
X0156759Y0082696D01*
X0156862Y0082622D01*
X0156962Y0082545D01*
X0157060Y0082465D01*
X0157155Y0082382D01*
X0157247Y0082296D01*
X0157337Y0082207D01*
X0157424Y0082115D01*
X0157507Y0082021D01*
X0157588Y0081924D01*
X0157666Y0081824D01*
X0157741Y0081722D01*
X0157812Y0081618D01*
X0157880Y0081511D01*
X0157944Y0081403D01*
X0158005Y0081292D01*
X0158063Y0081180D01*
X0158117Y0081066D01*
X0158167Y0080950D01*
X0158214Y0080833D01*
X0158257Y0080714D01*
X0158296Y0080594D01*
X0158332Y0080473D01*
X0158363Y0080350D01*
X0158391Y0080227D01*
X0158415Y0080103D01*
X0158435Y0079978D01*
X0158451Y0079853D01*
X0158463Y0079727D01*
X0158471Y0079601D01*
X0158475Y0079475D01*
X0158475Y0079349D01*
X0158471Y0079223D01*
X0158463Y0079097D01*
X0158451Y0078971D01*
X0158435Y0078846D01*
X0158415Y0078721D01*
X0158391Y0078597D01*
X0158363Y0078474D01*
X0158332Y0078351D01*
X0158296Y0078230D01*
X0158257Y0078110D01*
X0158214Y0077991D01*
X0158167Y0077874D01*
X0158117Y0077758D01*
X0158063Y0077644D01*
X0158005Y0077532D01*
X0157944Y0077421D01*
X0157880Y0077313D01*
X0157812Y0077206D01*
X0157741Y0077102D01*
X0157666Y0077000D01*
X0157588Y0076900D01*
X0157507Y0076803D01*
X0157424Y0076709D01*
X0157337Y0076617D01*
X0157247Y0076528D01*
X0157155Y0076442D01*
X0157060Y0076359D01*
X0156962Y0076279D01*
X0156862Y0076202D01*
X0156759Y0076128D01*
X0156654Y0076058D01*
X0156547Y0075991D01*
X0156438Y0075927D01*
X0156327Y0075867D01*
X0156215Y0075810D01*
X0156100Y0075757D01*
X0155984Y0075707D01*
X0155866Y0075662D01*
X0155747Y0075620D01*
X0155627Y0075581D01*
X0155505Y0075547D01*
X0155383Y0075516D01*
X0155259Y0075490D01*
X0155135Y0075467D01*
X0155010Y0075448D01*
X0154885Y0075433D01*
X0154759Y0075422D01*
X0154633Y0075415D01*
X0154507Y0075412D01*
X0154380Y0075413D01*
X0154254Y0075418D01*
X0154128Y0075427D01*
X0154002Y0075440D01*
X0153877Y0075457D01*
X0153753Y0075478D01*
X0153629Y0075502D01*
X0153506Y0075531D01*
X0153384Y0075564D01*
X0153263Y0075600D01*
X0153143Y0075640D01*
X0153025Y0075684D01*
X0152908Y0075732D01*
X0152792Y0075783D01*
X0152679Y0075838D01*
X0152567Y0075896D01*
X0152457Y0075958D01*
X0152349Y0076024D01*
X0152243Y0076093D01*
X0152139Y0076165D01*
X0152038Y0076240D01*
X0151939Y0076319D01*
X0151843Y0076400D01*
X0151749Y0076485D01*
X0151658Y0076572D01*
X0151570Y0076663D01*
X0151484Y0076756D01*
X0151402Y0076852D01*
X0151323Y0076950D01*
X0151246Y0077051D01*
X0151173Y0077154D01*
X0151104Y0077259D01*
X0151038Y0077367D01*
X0150975Y0077476D01*
X0150915Y0077588D01*
X0150859Y0077701D01*
X0150807Y0077816D01*
X0150759Y0077932D01*
X0150714Y0078051D01*
X0150673Y0078170D01*
X0150635Y0078291D01*
X0150602Y0078412D01*
X0150572Y0078535D01*
X0150547Y0078659D01*
X0150525Y0078783D01*
X0150507Y0078908D01*
X0150493Y0079034D01*
X0150483Y0079160D01*
X0150477Y0079286D01*
X0150475Y0079412D01*
X0150475Y0033412D02*
X0150477Y0033538D01*
X0150483Y0033664D01*
X0150493Y0033790D01*
X0150507Y0033916D01*
X0150525Y0034041D01*
X0150547Y0034165D01*
X0150572Y0034289D01*
X0150602Y0034412D01*
X0150635Y0034533D01*
X0150673Y0034654D01*
X0150714Y0034773D01*
X0150759Y0034892D01*
X0150807Y0035008D01*
X0150859Y0035123D01*
X0150915Y0035236D01*
X0150975Y0035348D01*
X0151038Y0035457D01*
X0151104Y0035565D01*
X0151173Y0035670D01*
X0151246Y0035773D01*
X0151323Y0035874D01*
X0151402Y0035972D01*
X0151484Y0036068D01*
X0151570Y0036161D01*
X0151658Y0036252D01*
X0151749Y0036339D01*
X0151843Y0036424D01*
X0151939Y0036505D01*
X0152038Y0036584D01*
X0152139Y0036659D01*
X0152243Y0036731D01*
X0152349Y0036800D01*
X0152457Y0036866D01*
X0152567Y0036928D01*
X0152679Y0036986D01*
X0152792Y0037041D01*
X0152908Y0037092D01*
X0153025Y0037140D01*
X0153143Y0037184D01*
X0153263Y0037224D01*
X0153384Y0037260D01*
X0153506Y0037293D01*
X0153629Y0037322D01*
X0153753Y0037346D01*
X0153877Y0037367D01*
X0154002Y0037384D01*
X0154128Y0037397D01*
X0154254Y0037406D01*
X0154380Y0037411D01*
X0154507Y0037412D01*
X0154633Y0037409D01*
X0154759Y0037402D01*
X0154885Y0037391D01*
X0155010Y0037376D01*
X0155135Y0037357D01*
X0155259Y0037334D01*
X0155383Y0037308D01*
X0155505Y0037277D01*
X0155627Y0037243D01*
X0155747Y0037204D01*
X0155866Y0037162D01*
X0155984Y0037117D01*
X0156100Y0037067D01*
X0156215Y0037014D01*
X0156327Y0036957D01*
X0156438Y0036897D01*
X0156547Y0036833D01*
X0156654Y0036766D01*
X0156759Y0036696D01*
X0156862Y0036622D01*
X0156962Y0036545D01*
X0157060Y0036465D01*
X0157155Y0036382D01*
X0157247Y0036296D01*
X0157337Y0036207D01*
X0157424Y0036115D01*
X0157507Y0036021D01*
X0157588Y0035924D01*
X0157666Y0035824D01*
X0157741Y0035722D01*
X0157812Y0035618D01*
X0157880Y0035511D01*
X0157944Y0035403D01*
X0158005Y0035292D01*
X0158063Y0035180D01*
X0158117Y0035066D01*
X0158167Y0034950D01*
X0158214Y0034833D01*
X0158257Y0034714D01*
X0158296Y0034594D01*
X0158332Y0034473D01*
X0158363Y0034350D01*
X0158391Y0034227D01*
X0158415Y0034103D01*
X0158435Y0033978D01*
X0158451Y0033853D01*
X0158463Y0033727D01*
X0158471Y0033601D01*
X0158475Y0033475D01*
X0158475Y0033349D01*
X0158471Y0033223D01*
X0158463Y0033097D01*
X0158451Y0032971D01*
X0158435Y0032846D01*
X0158415Y0032721D01*
X0158391Y0032597D01*
X0158363Y0032474D01*
X0158332Y0032351D01*
X0158296Y0032230D01*
X0158257Y0032110D01*
X0158214Y0031991D01*
X0158167Y0031874D01*
X0158117Y0031758D01*
X0158063Y0031644D01*
X0158005Y0031532D01*
X0157944Y0031421D01*
X0157880Y0031313D01*
X0157812Y0031206D01*
X0157741Y0031102D01*
X0157666Y0031000D01*
X0157588Y0030900D01*
X0157507Y0030803D01*
X0157424Y0030709D01*
X0157337Y0030617D01*
X0157247Y0030528D01*
X0157155Y0030442D01*
X0157060Y0030359D01*
X0156962Y0030279D01*
X0156862Y0030202D01*
X0156759Y0030128D01*
X0156654Y0030058D01*
X0156547Y0029991D01*
X0156438Y0029927D01*
X0156327Y0029867D01*
X0156215Y0029810D01*
X0156100Y0029757D01*
X0155984Y0029707D01*
X0155866Y0029662D01*
X0155747Y0029620D01*
X0155627Y0029581D01*
X0155505Y0029547D01*
X0155383Y0029516D01*
X0155259Y0029490D01*
X0155135Y0029467D01*
X0155010Y0029448D01*
X0154885Y0029433D01*
X0154759Y0029422D01*
X0154633Y0029415D01*
X0154507Y0029412D01*
X0154380Y0029413D01*
X0154254Y0029418D01*
X0154128Y0029427D01*
X0154002Y0029440D01*
X0153877Y0029457D01*
X0153753Y0029478D01*
X0153629Y0029502D01*
X0153506Y0029531D01*
X0153384Y0029564D01*
X0153263Y0029600D01*
X0153143Y0029640D01*
X0153025Y0029684D01*
X0152908Y0029732D01*
X0152792Y0029783D01*
X0152679Y0029838D01*
X0152567Y0029896D01*
X0152457Y0029958D01*
X0152349Y0030024D01*
X0152243Y0030093D01*
X0152139Y0030165D01*
X0152038Y0030240D01*
X0151939Y0030319D01*
X0151843Y0030400D01*
X0151749Y0030485D01*
X0151658Y0030572D01*
X0151570Y0030663D01*
X0151484Y0030756D01*
X0151402Y0030852D01*
X0151323Y0030950D01*
X0151246Y0031051D01*
X0151173Y0031154D01*
X0151104Y0031259D01*
X0151038Y0031367D01*
X0150975Y0031476D01*
X0150915Y0031588D01*
X0150859Y0031701D01*
X0150807Y0031816D01*
X0150759Y0031932D01*
X0150714Y0032051D01*
X0150673Y0032170D01*
X0150635Y0032291D01*
X0150602Y0032412D01*
X0150572Y0032535D01*
X0150547Y0032659D01*
X0150525Y0032783D01*
X0150507Y0032908D01*
X0150493Y0033034D01*
X0150483Y0033160D01*
X0150477Y0033286D01*
X0150475Y0033412D01*
D11*
X0145475Y0020412D02*
X0145958Y0020418D01*
X0146441Y0020435D01*
X0146924Y0020465D01*
X0147405Y0020505D01*
X0147886Y0020558D01*
X0148365Y0020622D01*
X0148842Y0020697D01*
X0149318Y0020785D01*
X0149791Y0020883D01*
X0150261Y0020993D01*
X0150729Y0021114D01*
X0151194Y0021247D01*
X0151655Y0021391D01*
X0152113Y0021546D01*
X0152567Y0021712D01*
X0153017Y0021889D01*
X0153462Y0022076D01*
X0153903Y0022275D01*
X0154339Y0022483D01*
X0154769Y0022703D01*
X0155195Y0022933D01*
X0155614Y0023173D01*
X0156028Y0023423D01*
X0156435Y0023683D01*
X0156836Y0023952D01*
X0157231Y0024232D01*
X0157618Y0024520D01*
X0157999Y0024819D01*
X0158372Y0025126D01*
X0158737Y0025442D01*
X0159095Y0025767D01*
X0159445Y0026100D01*
X0159787Y0026442D01*
X0160120Y0026792D01*
X0160445Y0027150D01*
X0160761Y0027515D01*
X0161068Y0027888D01*
X0161367Y0028269D01*
X0161655Y0028656D01*
X0161935Y0029051D01*
X0162204Y0029452D01*
X0162464Y0029859D01*
X0162714Y0030273D01*
X0162954Y0030692D01*
X0163184Y0031118D01*
X0163404Y0031548D01*
X0163612Y0031984D01*
X0163811Y0032425D01*
X0163998Y0032870D01*
X0164175Y0033320D01*
X0164341Y0033774D01*
X0164496Y0034232D01*
X0164640Y0034693D01*
X0164773Y0035158D01*
X0164894Y0035626D01*
X0165004Y0036096D01*
X0165102Y0036569D01*
X0165190Y0037045D01*
X0165265Y0037522D01*
X0165329Y0038001D01*
X0165382Y0038482D01*
X0165422Y0038963D01*
X0165452Y0039446D01*
X0165469Y0039929D01*
X0165475Y0040412D01*
X0165475Y0046002D01*
X0165474Y0046003D02*
X0165163Y0046142D01*
X0164855Y0046289D01*
X0164551Y0046444D01*
X0164251Y0046606D01*
X0163955Y0046775D01*
X0163663Y0046951D01*
X0163375Y0047135D01*
X0163092Y0047325D01*
X0162814Y0047522D01*
X0162541Y0047726D01*
X0162272Y0047937D01*
X0162009Y0048154D01*
X0161752Y0048378D01*
X0161500Y0048608D01*
X0161253Y0048843D01*
X0161013Y0049085D01*
X0160778Y0049333D01*
X0160550Y0049586D01*
X0160328Y0049845D01*
X0160112Y0050109D01*
X0159903Y0050379D01*
X0159700Y0050653D01*
X0159504Y0050932D01*
X0159315Y0051216D01*
X0159133Y0051505D01*
X0158958Y0051798D01*
X0158791Y0052095D01*
X0158631Y0052396D01*
X0158478Y0052701D01*
X0158332Y0053009D01*
X0158194Y0053321D01*
X0158064Y0053637D01*
X0157942Y0053955D01*
X0157827Y0054276D01*
X0157721Y0054600D01*
X0157622Y0054927D01*
X0157531Y0055256D01*
X0157449Y0055587D01*
X0157374Y0055919D01*
X0157308Y0056254D01*
X0157250Y0056590D01*
X0157200Y0056928D01*
X0157158Y0057266D01*
X0157125Y0057606D01*
X0157100Y0057946D01*
X0157083Y0058286D01*
X0157075Y0058627D01*
X0157075Y0058969D01*
X0157083Y0059310D01*
X0157100Y0059650D01*
X0157125Y0059990D01*
X0157158Y0060330D01*
X0157200Y0060668D01*
X0157250Y0061006D01*
X0157308Y0061342D01*
X0157374Y0061677D01*
X0157449Y0062009D01*
X0157531Y0062340D01*
X0157622Y0062669D01*
X0157721Y0062996D01*
X0157827Y0063320D01*
X0157942Y0063641D01*
X0158064Y0063959D01*
X0158194Y0064275D01*
X0158332Y0064587D01*
X0158478Y0064895D01*
X0158631Y0065200D01*
X0158791Y0065501D01*
X0158958Y0065798D01*
X0159133Y0066091D01*
X0159315Y0066380D01*
X0159504Y0066664D01*
X0159700Y0066943D01*
X0159903Y0067217D01*
X0160112Y0067487D01*
X0160328Y0067751D01*
X0160550Y0068010D01*
X0160778Y0068263D01*
X0161013Y0068511D01*
X0161253Y0068753D01*
X0161500Y0068988D01*
X0161752Y0069218D01*
X0162009Y0069442D01*
X0162272Y0069659D01*
X0162541Y0069870D01*
X0162814Y0070074D01*
X0163092Y0070271D01*
X0163375Y0070461D01*
X0163663Y0070645D01*
X0163955Y0070821D01*
X0164251Y0070990D01*
X0164551Y0071152D01*
X0164855Y0071307D01*
X0165163Y0071454D01*
X0165474Y0071593D01*
X0165475Y0071593D02*
X0165475Y0149412D01*
X0165470Y0149799D01*
X0165456Y0150185D01*
X0165433Y0150571D01*
X0165400Y0150956D01*
X0165358Y0151341D01*
X0165307Y0151724D01*
X0165247Y0152106D01*
X0165177Y0152486D01*
X0165098Y0152865D01*
X0165010Y0153241D01*
X0164913Y0153615D01*
X0164807Y0153987D01*
X0164692Y0154356D01*
X0164568Y0154723D01*
X0164435Y0155086D01*
X0164294Y0155446D01*
X0164144Y0155802D01*
X0163985Y0156154D01*
X0163818Y0156503D01*
X0163642Y0156848D01*
X0163458Y0157188D01*
X0163267Y0157523D01*
X0163066Y0157854D01*
X0162859Y0158180D01*
X0162643Y0158501D01*
X0162419Y0158817D01*
X0162188Y0159127D01*
X0161950Y0159431D01*
X0161704Y0159729D01*
X0161451Y0160022D01*
X0161191Y0160308D01*
X0160925Y0160588D01*
X0160651Y0160862D01*
X0160371Y0161128D01*
X0160085Y0161388D01*
X0159792Y0161641D01*
X0159494Y0161887D01*
X0159190Y0162125D01*
X0158880Y0162356D01*
X0158564Y0162580D01*
X0158243Y0162796D01*
X0157917Y0163003D01*
X0157586Y0163204D01*
X0157251Y0163395D01*
X0156911Y0163579D01*
X0156566Y0163755D01*
X0156217Y0163922D01*
X0155865Y0164081D01*
X0155509Y0164231D01*
X0155149Y0164372D01*
X0154786Y0164505D01*
X0154419Y0164629D01*
X0154050Y0164744D01*
X0153678Y0164850D01*
X0153304Y0164947D01*
X0152928Y0165035D01*
X0152549Y0165114D01*
X0152169Y0165184D01*
X0151787Y0165244D01*
X0151404Y0165295D01*
X0151019Y0165337D01*
X0150634Y0165370D01*
X0150248Y0165393D01*
X0149862Y0165407D01*
X0149475Y0165412D01*
X0071656Y0165412D01*
X0071656Y0165411D02*
X0071517Y0165100D01*
X0071370Y0164792D01*
X0071215Y0164488D01*
X0071053Y0164188D01*
X0070884Y0163892D01*
X0070708Y0163600D01*
X0070524Y0163312D01*
X0070334Y0163029D01*
X0070137Y0162751D01*
X0069933Y0162478D01*
X0069722Y0162209D01*
X0069505Y0161946D01*
X0069281Y0161689D01*
X0069051Y0161437D01*
X0068816Y0161190D01*
X0068574Y0160950D01*
X0068326Y0160715D01*
X0068073Y0160487D01*
X0067814Y0160265D01*
X0067550Y0160049D01*
X0067280Y0159840D01*
X0067006Y0159637D01*
X0066727Y0159441D01*
X0066443Y0159252D01*
X0066154Y0159070D01*
X0065861Y0158895D01*
X0065564Y0158728D01*
X0065263Y0158568D01*
X0064958Y0158415D01*
X0064650Y0158269D01*
X0064338Y0158131D01*
X0064022Y0158001D01*
X0063704Y0157879D01*
X0063383Y0157764D01*
X0063059Y0157658D01*
X0062732Y0157559D01*
X0062403Y0157468D01*
X0062072Y0157386D01*
X0061740Y0157311D01*
X0061405Y0157245D01*
X0061069Y0157187D01*
X0060731Y0157137D01*
X0060393Y0157095D01*
X0060053Y0157062D01*
X0059713Y0157037D01*
X0059373Y0157020D01*
X0059032Y0157012D01*
X0058690Y0157012D01*
X0058349Y0157020D01*
X0058009Y0157037D01*
X0057669Y0157062D01*
X0057329Y0157095D01*
X0056991Y0157137D01*
X0056653Y0157187D01*
X0056317Y0157245D01*
X0055982Y0157311D01*
X0055650Y0157386D01*
X0055319Y0157468D01*
X0054990Y0157559D01*
X0054663Y0157658D01*
X0054339Y0157764D01*
X0054018Y0157879D01*
X0053700Y0158001D01*
X0053384Y0158131D01*
X0053072Y0158269D01*
X0052764Y0158415D01*
X0052459Y0158568D01*
X0052158Y0158728D01*
X0051861Y0158895D01*
X0051568Y0159070D01*
X0051279Y0159252D01*
X0050995Y0159441D01*
X0050716Y0159637D01*
X0050442Y0159840D01*
X0050172Y0160049D01*
X0049908Y0160265D01*
X0049649Y0160487D01*
X0049396Y0160715D01*
X0049148Y0160950D01*
X0048906Y0161190D01*
X0048671Y0161437D01*
X0048441Y0161689D01*
X0048217Y0161946D01*
X0048000Y0162209D01*
X0047789Y0162478D01*
X0047585Y0162751D01*
X0047388Y0163029D01*
X0047198Y0163312D01*
X0047014Y0163600D01*
X0046838Y0163892D01*
X0046669Y0164188D01*
X0046507Y0164488D01*
X0046352Y0164792D01*
X0046205Y0165100D01*
X0046066Y0165411D01*
X0046065Y0165412D02*
X0040475Y0165412D01*
X0039992Y0165406D01*
X0039509Y0165389D01*
X0039026Y0165359D01*
X0038545Y0165319D01*
X0038064Y0165266D01*
X0037585Y0165202D01*
X0037108Y0165127D01*
X0036632Y0165039D01*
X0036159Y0164941D01*
X0035689Y0164831D01*
X0035221Y0164710D01*
X0034756Y0164577D01*
X0034295Y0164433D01*
X0033837Y0164278D01*
X0033383Y0164112D01*
X0032933Y0163935D01*
X0032488Y0163748D01*
X0032047Y0163549D01*
X0031611Y0163341D01*
X0031181Y0163121D01*
X0030755Y0162891D01*
X0030336Y0162651D01*
X0029922Y0162401D01*
X0029515Y0162141D01*
X0029114Y0161872D01*
X0028719Y0161592D01*
X0028332Y0161304D01*
X0027951Y0161005D01*
X0027578Y0160698D01*
X0027213Y0160382D01*
X0026855Y0160057D01*
X0026505Y0159724D01*
X0026163Y0159382D01*
X0025830Y0159032D01*
X0025505Y0158674D01*
X0025189Y0158309D01*
X0024882Y0157936D01*
X0024583Y0157555D01*
X0024295Y0157168D01*
X0024015Y0156773D01*
X0023746Y0156372D01*
X0023486Y0155965D01*
X0023236Y0155551D01*
X0022996Y0155132D01*
X0022766Y0154706D01*
X0022546Y0154276D01*
X0022338Y0153840D01*
X0022139Y0153399D01*
X0021952Y0152954D01*
X0021775Y0152504D01*
X0021609Y0152050D01*
X0021454Y0151592D01*
X0021310Y0151131D01*
X0021177Y0150666D01*
X0021056Y0150198D01*
X0020946Y0149728D01*
X0020848Y0149255D01*
X0020760Y0148779D01*
X0020685Y0148302D01*
X0020621Y0147823D01*
X0020568Y0147342D01*
X0020528Y0146861D01*
X0020498Y0146378D01*
X0020481Y0145895D01*
X0020475Y0145412D01*
X0020475Y0073593D01*
X0020475Y0073594D02*
X0020835Y0073432D01*
X0021191Y0073262D01*
X0021543Y0073084D01*
X0021890Y0072897D01*
X0022233Y0072701D01*
X0022570Y0072497D01*
X0022903Y0072285D01*
X0023230Y0072065D01*
X0023552Y0071836D01*
X0023868Y0071600D01*
X0024178Y0071357D01*
X0024482Y0071106D01*
X0024780Y0070847D01*
X0025071Y0070582D01*
X0025356Y0070309D01*
X0025635Y0070029D01*
X0025906Y0069743D01*
X0026170Y0069450D01*
X0026427Y0069151D01*
X0026676Y0068845D01*
X0026918Y0068534D01*
X0027153Y0068216D01*
X0027379Y0067893D01*
X0027597Y0067565D01*
X0027808Y0067231D01*
X0028010Y0066893D01*
X0028204Y0066549D01*
X0028389Y0066201D01*
X0028566Y0065848D01*
X0028734Y0065492D01*
X0028893Y0065131D01*
X0029044Y0064766D01*
X0029185Y0064398D01*
X0029318Y0064027D01*
X0029441Y0063652D01*
X0029555Y0063274D01*
X0029660Y0062894D01*
X0029756Y0062511D01*
X0029842Y0062127D01*
X0029918Y0061740D01*
X0029986Y0061351D01*
X0030043Y0060961D01*
X0030091Y0060569D01*
X0030130Y0060177D01*
X0030159Y0059783D01*
X0030178Y0059390D01*
X0030188Y0058995D01*
X0030188Y0058601D01*
X0030178Y0058206D01*
X0030159Y0057813D01*
X0030130Y0057419D01*
X0030091Y0057027D01*
X0030043Y0056635D01*
X0029986Y0056245D01*
X0029918Y0055856D01*
X0029842Y0055469D01*
X0029756Y0055085D01*
X0029660Y0054702D01*
X0029555Y0054322D01*
X0029441Y0053944D01*
X0029318Y0053569D01*
X0029185Y0053198D01*
X0029044Y0052830D01*
X0028893Y0052465D01*
X0028734Y0052104D01*
X0028566Y0051748D01*
X0028389Y0051395D01*
X0028204Y0051047D01*
X0028010Y0050703D01*
X0027808Y0050365D01*
X0027597Y0050031D01*
X0027379Y0049703D01*
X0027153Y0049380D01*
X0026918Y0049062D01*
X0026676Y0048751D01*
X0026427Y0048445D01*
X0026170Y0048146D01*
X0025906Y0047853D01*
X0025635Y0047567D01*
X0025356Y0047287D01*
X0025071Y0047014D01*
X0024780Y0046749D01*
X0024482Y0046490D01*
X0024178Y0046239D01*
X0023868Y0045996D01*
X0023552Y0045760D01*
X0023230Y0045531D01*
X0022903Y0045311D01*
X0022570Y0045099D01*
X0022233Y0044895D01*
X0021890Y0044699D01*
X0021543Y0044512D01*
X0021191Y0044334D01*
X0020835Y0044164D01*
X0020475Y0044002D01*
X0020475Y0036660D01*
X0020474Y0036660D02*
X0020529Y0036213D01*
X0020594Y0035767D01*
X0020671Y0035323D01*
X0020758Y0034881D01*
X0020856Y0034441D01*
X0020965Y0034004D01*
X0021085Y0033570D01*
X0021215Y0033138D01*
X0021356Y0032710D01*
X0021507Y0032286D01*
X0021669Y0031865D01*
X0021841Y0031449D01*
X0022023Y0031037D01*
X0022215Y0030629D01*
X0022417Y0030226D01*
X0022629Y0029829D01*
X0022850Y0029436D01*
X0023081Y0029050D01*
X0023322Y0028669D01*
X0023572Y0028294D01*
X0023831Y0027925D01*
X0024099Y0027563D01*
X0024376Y0027207D01*
X0024661Y0026859D01*
X0024955Y0026517D01*
X0025257Y0026183D01*
X0025567Y0025856D01*
X0025885Y0025537D01*
X0026211Y0025226D01*
X0026545Y0024923D01*
X0026886Y0024628D01*
X0027233Y0024342D01*
X0027588Y0024064D01*
X0027950Y0023795D01*
X0028318Y0023536D01*
X0028692Y0023285D01*
X0029073Y0023043D01*
X0029459Y0022811D01*
X0029850Y0022588D01*
X0030248Y0022376D01*
X0030650Y0022172D01*
X0031057Y0021979D01*
X0031468Y0021796D01*
X0031884Y0021623D01*
X0032305Y0021461D01*
X0032729Y0021308D01*
X0033156Y0021166D01*
X0033587Y0021035D01*
X0034021Y0020914D01*
X0034458Y0020804D01*
X0034898Y0020705D01*
X0035340Y0020616D01*
X0035783Y0020539D01*
X0036229Y0020472D01*
X0036676Y0020416D01*
X0037124Y0020372D01*
X0037574Y0020338D01*
X0038024Y0020315D01*
X0038474Y0020304D01*
X0038925Y0020303D01*
X0039375Y0020314D01*
X0039825Y0020335D01*
X0040275Y0020368D01*
X0040723Y0020411D01*
X0040723Y0020412D02*
X0044065Y0020412D01*
X0044227Y0020772D01*
X0044397Y0021128D01*
X0044575Y0021480D01*
X0044762Y0021827D01*
X0044958Y0022170D01*
X0045162Y0022507D01*
X0045374Y0022840D01*
X0045594Y0023167D01*
X0045823Y0023489D01*
X0046059Y0023805D01*
X0046302Y0024115D01*
X0046553Y0024419D01*
X0046812Y0024717D01*
X0047077Y0025008D01*
X0047350Y0025293D01*
X0047630Y0025572D01*
X0047916Y0025843D01*
X0048209Y0026107D01*
X0048508Y0026364D01*
X0048814Y0026613D01*
X0049125Y0026855D01*
X0049443Y0027090D01*
X0049766Y0027316D01*
X0050094Y0027534D01*
X0050428Y0027745D01*
X0050766Y0027947D01*
X0051110Y0028141D01*
X0051458Y0028326D01*
X0051811Y0028503D01*
X0052167Y0028671D01*
X0052528Y0028830D01*
X0052893Y0028981D01*
X0053261Y0029122D01*
X0053632Y0029255D01*
X0054007Y0029378D01*
X0054385Y0029492D01*
X0054765Y0029597D01*
X0055148Y0029693D01*
X0055532Y0029779D01*
X0055919Y0029855D01*
X0056308Y0029923D01*
X0056698Y0029980D01*
X0057090Y0030028D01*
X0057482Y0030067D01*
X0057876Y0030096D01*
X0058269Y0030115D01*
X0058664Y0030125D01*
X0059058Y0030125D01*
X0059453Y0030115D01*
X0059846Y0030096D01*
X0060240Y0030067D01*
X0060632Y0030028D01*
X0061024Y0029980D01*
X0061414Y0029923D01*
X0061803Y0029855D01*
X0062190Y0029779D01*
X0062574Y0029693D01*
X0062957Y0029597D01*
X0063337Y0029492D01*
X0063715Y0029378D01*
X0064090Y0029255D01*
X0064461Y0029122D01*
X0064829Y0028981D01*
X0065194Y0028830D01*
X0065555Y0028671D01*
X0065911Y0028503D01*
X0066264Y0028326D01*
X0066612Y0028141D01*
X0066956Y0027947D01*
X0067294Y0027745D01*
X0067628Y0027534D01*
X0067956Y0027316D01*
X0068279Y0027090D01*
X0068597Y0026855D01*
X0068908Y0026613D01*
X0069214Y0026364D01*
X0069513Y0026107D01*
X0069806Y0025843D01*
X0070092Y0025572D01*
X0070372Y0025293D01*
X0070645Y0025008D01*
X0070910Y0024717D01*
X0071169Y0024419D01*
X0071420Y0024115D01*
X0071663Y0023805D01*
X0071899Y0023489D01*
X0072128Y0023167D01*
X0072348Y0022840D01*
X0072560Y0022507D01*
X0072764Y0022170D01*
X0072960Y0021827D01*
X0073147Y0021480D01*
X0073325Y0021128D01*
X0073495Y0020772D01*
X0073657Y0020412D01*
X0073656Y0020412D02*
X0145475Y0020412D01*
M02*
